G04*
G04 #@! TF.GenerationSoftware,Altium Limited,Altium Designer,24.0.1 (36)*
G04*
G04 Layer_Color=16711935*
%FSLAX44Y44*%
%MOMM*%
G71*
G04*
G04 #@! TF.SameCoordinates,6F16000C-B149-46FA-B592-FBC60BD1AF14*
G04*
G04*
G04 #@! TF.FilePolarity,Positive*
G04*
G01*
G75*
%ADD127C,0.0051*%
%ADD128C,0.0127*%
D127*
X117762Y628397D02*
G03*
X117762Y628397I-3300J0D01*
G01*
X37262Y631296D02*
G03*
X34520Y628396I162J-2900D01*
G01*
X44281Y628397D02*
G03*
X41402Y631297I-2900J0D01*
G01*
Y625497D02*
G03*
X44281Y628397I-21J2900D01*
G01*
X34520Y628396D02*
G03*
X37280Y625496I2904J0D01*
G01*
X37262Y631296D02*
X41402Y631297D01*
X37280Y625496D02*
X41402Y625497D01*
D128*
X63Y50064D02*
X50064Y63D01*
X63Y50064D02*
X83Y623144D01*
X54173Y677194D01*
X722094D01*
X776094Y623194D01*
X776074Y50064D02*
X776094Y623194D01*
X726074Y63D02*
X776074Y50064D01*
X50064Y63D02*
X726074D01*
X222644Y106013D02*
X230644Y98083D01*
X635813D01*
X643813Y106083D01*
X643833Y160294D01*
X635834Y168293D02*
X643833Y160294D01*
X230664Y168293D02*
X635834D01*
X222663Y160644D02*
X230664Y168293D01*
X222644Y106013D02*
X222663Y160644D01*
X230644Y266313D02*
X635813Y266383D01*
X643813Y274384D01*
X643833Y328593D01*
X635834Y336594D02*
X643833Y328593D01*
X230664Y336594D02*
X635834D01*
X222663Y328943D02*
X230664Y336594D01*
X222644Y274314D02*
X222663Y328943D01*
X222644Y274314D02*
X230644Y266313D01*
X231744Y435754D02*
X636913D01*
X644913Y443684D01*
X644923Y497974D01*
X636923Y505974D02*
X644923Y497974D01*
X231763Y505974D02*
X636923D01*
X223764Y498313D02*
X231763Y505974D01*
X223743Y443684D02*
X223764Y498313D01*
X223743Y443684D02*
X231744Y435754D01*
M02*
