G04*
G04 #@! TF.GenerationSoftware,Altium Limited,Altium Designer,24.0.1 (36)*
G04*
G04 Layer_Color=8421504*
%FSLAX44Y44*%
%MOMM*%
G71*
G04*
G04 #@! TF.SameCoordinates,6F16000C-B149-46FA-B592-FBC60BD1AF14*
G04*
G04*
G04 #@! TF.FilePolarity,Positive*
G04*
G01*
G75*
%ADD18O,0.5000X1.5000*%
%ADD19R,0.5000X1.5000*%
%ADD20R,2.4000X2.8000*%
%ADD21R,0.6000X2.9000*%
%ADD22O,0.7000X0.2000*%
%ADD23O,0.2000X0.7000*%
%ADD24R,3.3000X3.3000*%
%ADD25R,0.5000X0.5000*%
%ADD26R,0.5000X0.5000*%
%ADD27R,1.6500X1.4000*%
%ADD28R,0.5650X0.2000*%
%ADD29R,1.2000X1.3000*%
%ADD30R,0.7500X0.8500*%
G04:AMPARAMS|DCode=31|XSize=1.27mm|YSize=1.016mm|CornerRadius=0.254mm|HoleSize=0mm|Usage=FLASHONLY|Rotation=180.000|XOffset=0mm|YOffset=0mm|HoleType=Round|Shape=RoundedRectangle|*
%AMROUNDEDRECTD31*
21,1,1.2700,0.5080,0,0,180.0*
21,1,0.7620,1.0160,0,0,180.0*
1,1,0.5080,-0.3810,0.2540*
1,1,0.5080,0.3810,0.2540*
1,1,0.5080,0.3810,-0.2540*
1,1,0.5080,-0.3810,-0.2540*
%
%ADD31ROUNDEDRECTD31*%
G04:AMPARAMS|DCode=32|XSize=1.27mm|YSize=0.889mm|CornerRadius=0mm|HoleSize=0mm|Usage=FLASHONLY|Rotation=0.000|XOffset=0mm|YOffset=0mm|HoleType=Round|Shape=Octagon|*
%AMOCTAGOND32*
4,1,8,0.6350,-0.2223,0.6350,0.2223,0.4128,0.4445,-0.4128,0.4445,-0.6350,0.2223,-0.6350,-0.2223,-0.4128,-0.4445,0.4128,-0.4445,0.6350,-0.2223,0.0*
%
%ADD32OCTAGOND32*%

%ADD33R,1.2700X0.8890*%
G36*
X211978Y644103D02*
X209979D01*
Y651104D01*
X211978D01*
Y644103D01*
D02*
G37*
G36*
X207978D02*
X205978D01*
Y651104D01*
X207978D01*
Y644103D01*
D02*
G37*
G36*
X203978D02*
X201978D01*
Y651104D01*
X203978D01*
Y644103D01*
D02*
G37*
G36*
X199977D02*
X197977D01*
Y651104D01*
X199977D01*
Y644103D01*
D02*
G37*
G36*
X225478Y642604D02*
X218477D01*
Y644604D01*
X225478D01*
Y642604D01*
D02*
G37*
G36*
X191478Y642601D02*
X184478D01*
Y644602D01*
X191478D01*
Y642601D01*
D02*
G37*
G36*
X165607Y638628D02*
X159957D01*
Y642228D01*
X165607D01*
Y638628D01*
D02*
G37*
G36*
X157257D02*
X151607D01*
Y642228D01*
X157257D01*
Y638628D01*
D02*
G37*
G36*
X225478Y638601D02*
X218478D01*
Y640602D01*
X225478D01*
Y638601D01*
D02*
G37*
G36*
X191478Y638601D02*
X184478D01*
Y640601D01*
X191478D01*
Y638601D01*
D02*
G37*
G36*
Y634603D02*
X184478D01*
Y636603D01*
X191478D01*
Y634603D01*
D02*
G37*
G36*
X225478Y634601D02*
X218478D01*
Y636601D01*
X225478D01*
Y634601D01*
D02*
G37*
G36*
Y630603D02*
X218478D01*
Y632603D01*
X225478D01*
Y630603D01*
D02*
G37*
G36*
X191478Y630602D02*
X184478D01*
Y632603D01*
X191478D01*
Y630602D01*
D02*
G37*
G36*
X225478Y626603D02*
X218478D01*
Y628602D01*
X225478D01*
Y626603D01*
D02*
G37*
G36*
X191478Y626602D02*
X184478D01*
Y628602D01*
X191478D01*
Y626602D01*
D02*
G37*
G36*
X225478Y622602D02*
X218478D01*
Y624602D01*
X225478D01*
Y622602D01*
D02*
G37*
G36*
X191478Y622602D02*
X184478D01*
Y624602D01*
X191478D01*
Y622602D01*
D02*
G37*
G36*
X225478Y618601D02*
X218478D01*
Y620602D01*
X225478D01*
Y618601D01*
D02*
G37*
G36*
X191478Y618601D02*
X184478D01*
Y620601D01*
X191478D01*
Y618601D01*
D02*
G37*
G36*
Y614603D02*
X184478D01*
Y616603D01*
X191478D01*
Y614603D01*
D02*
G37*
G36*
X225478Y614601D02*
X218478D01*
Y616601D01*
X225478D01*
Y614601D01*
D02*
G37*
G36*
X212978Y613602D02*
X196978D01*
Y637602D01*
X212978D01*
Y613602D01*
D02*
G37*
G36*
X225478Y610603D02*
X218478D01*
Y612603D01*
X225478D01*
Y610603D01*
D02*
G37*
G36*
X191478Y610602D02*
X184478D01*
Y612603D01*
X191478D01*
Y610602D01*
D02*
G37*
G36*
X165607Y608896D02*
X159957D01*
Y612496D01*
X165607D01*
Y608896D01*
D02*
G37*
G36*
X157257D02*
X151607D01*
Y612496D01*
X157257D01*
Y608896D01*
D02*
G37*
G36*
X225478Y606603D02*
X218478D01*
Y608602D01*
X225478D01*
Y606603D01*
D02*
G37*
G36*
X191479Y606600D02*
X184478D01*
Y608601D01*
X191479D01*
Y606600D01*
D02*
G37*
G36*
X211979Y600100D02*
X209979D01*
Y607101D01*
X211979D01*
Y600100D01*
D02*
G37*
G36*
X207978D02*
X205979D01*
Y607101D01*
X207978D01*
Y600100D01*
D02*
G37*
G36*
X203978D02*
X201978D01*
Y607101D01*
X203978D01*
Y600100D01*
D02*
G37*
G36*
X199977D02*
X197978D01*
Y607101D01*
X199977D01*
Y600100D01*
D02*
G37*
D18*
X201422Y491852D02*
D03*
X188722D02*
D03*
X176022D02*
D03*
X163322D02*
D03*
X201422Y441852D02*
D03*
X188722D02*
D03*
X176022D02*
D03*
X201422Y204070D02*
D03*
X188722D02*
D03*
X176022D02*
D03*
X163322D02*
D03*
X201422Y154070D02*
D03*
X188722D02*
D03*
X176022D02*
D03*
X201422Y346564D02*
D03*
X188722D02*
D03*
X176022D02*
D03*
X163322D02*
D03*
X201422Y296564D02*
D03*
X188722D02*
D03*
X176022D02*
D03*
X201422Y61684D02*
D03*
X188722D02*
D03*
X176022D02*
D03*
X163322D02*
D03*
X201422Y11684D02*
D03*
X188722D02*
D03*
X176022D02*
D03*
D19*
X163322Y441852D02*
D03*
Y154070D02*
D03*
Y296564D02*
D03*
Y11684D02*
D03*
D20*
X217504Y392425D02*
D03*
X656904D02*
D03*
X217504Y224125D02*
D03*
X656904D02*
D03*
X217504Y55896D02*
D03*
X656904D02*
D03*
X217504Y560726D02*
D03*
X656904D02*
D03*
D21*
X279604Y407425D02*
D03*
X292304D02*
D03*
X305004D02*
D03*
X317703D02*
D03*
X330404D02*
D03*
X343103D02*
D03*
X355803D02*
D03*
X419304D02*
D03*
X432004D02*
D03*
X444703D02*
D03*
X457403D02*
D03*
X470103D02*
D03*
X482803D02*
D03*
X495504D02*
D03*
X508204D02*
D03*
X520904D02*
D03*
X533604D02*
D03*
X546303D02*
D03*
X559003D02*
D03*
X571703D02*
D03*
X584403D02*
D03*
X597104D02*
D03*
X279604Y239125D02*
D03*
X292304D02*
D03*
X305004D02*
D03*
X317703D02*
D03*
X330404D02*
D03*
X343103D02*
D03*
X355803D02*
D03*
X419304D02*
D03*
X432004D02*
D03*
X444703D02*
D03*
X457403D02*
D03*
X470103D02*
D03*
X482803D02*
D03*
X495504D02*
D03*
X508204D02*
D03*
X520904D02*
D03*
X533604D02*
D03*
X546303D02*
D03*
X559003D02*
D03*
X571703D02*
D03*
X584403D02*
D03*
X597104D02*
D03*
X279604Y70896D02*
D03*
X292304D02*
D03*
X305004D02*
D03*
X317703D02*
D03*
X330404D02*
D03*
X343103D02*
D03*
X355803D02*
D03*
X419304D02*
D03*
X432004D02*
D03*
X444703D02*
D03*
X457403D02*
D03*
X470103D02*
D03*
X482803D02*
D03*
X495504D02*
D03*
X508204D02*
D03*
X520904D02*
D03*
X533604D02*
D03*
X546303D02*
D03*
X559003D02*
D03*
X571703D02*
D03*
X584403D02*
D03*
X597104D02*
D03*
X279604Y575726D02*
D03*
X292304D02*
D03*
X305004D02*
D03*
X317703D02*
D03*
X330404D02*
D03*
X343103D02*
D03*
X355803D02*
D03*
X419304D02*
D03*
X432004D02*
D03*
X444703D02*
D03*
X457403D02*
D03*
X470103D02*
D03*
X482803D02*
D03*
X495504D02*
D03*
X508204D02*
D03*
X520904D02*
D03*
X533604D02*
D03*
X546303D02*
D03*
X559003D02*
D03*
X571703D02*
D03*
X584403D02*
D03*
X597104D02*
D03*
D22*
X63980Y350618D02*
D03*
Y354618D02*
D03*
Y362618D02*
D03*
Y358618D02*
D03*
Y378618D02*
D03*
Y382618D02*
D03*
Y370618D02*
D03*
Y374618D02*
D03*
Y390618D02*
D03*
Y394618D02*
D03*
Y386618D02*
D03*
Y366618D02*
D03*
X123980Y350618D02*
D03*
Y354618D02*
D03*
Y362618D02*
D03*
Y366618D02*
D03*
Y358618D02*
D03*
Y378618D02*
D03*
Y382618D02*
D03*
Y370618D02*
D03*
Y374618D02*
D03*
Y390618D02*
D03*
Y394618D02*
D03*
Y386618D02*
D03*
X63472Y501176D02*
D03*
Y505176D02*
D03*
X64626Y211616D02*
D03*
Y215616D02*
D03*
X65504Y69630D02*
D03*
Y73630D02*
D03*
X63472Y533176D02*
D03*
Y541176D02*
D03*
X64626Y243616D02*
D03*
Y251616D02*
D03*
X65504Y101630D02*
D03*
Y109630D02*
D03*
Y81630D02*
D03*
X64626Y223616D02*
D03*
X65504Y85630D02*
D03*
X64626Y227616D02*
D03*
X63472Y513176D02*
D03*
Y517176D02*
D03*
Y537176D02*
D03*
Y529176D02*
D03*
Y525176D02*
D03*
Y521176D02*
D03*
Y509176D02*
D03*
Y497176D02*
D03*
X123472D02*
D03*
Y501176D02*
D03*
Y505176D02*
D03*
Y509176D02*
D03*
Y513176D02*
D03*
Y517176D02*
D03*
Y521176D02*
D03*
Y525176D02*
D03*
Y529176D02*
D03*
Y533176D02*
D03*
Y537176D02*
D03*
Y541176D02*
D03*
X65504Y105630D02*
D03*
Y97630D02*
D03*
Y93630D02*
D03*
Y89630D02*
D03*
Y77630D02*
D03*
Y65630D02*
D03*
X125504D02*
D03*
Y69630D02*
D03*
Y73630D02*
D03*
Y77630D02*
D03*
Y81630D02*
D03*
Y85630D02*
D03*
Y89630D02*
D03*
Y93630D02*
D03*
Y97630D02*
D03*
Y101630D02*
D03*
Y105630D02*
D03*
Y109630D02*
D03*
X64626Y247616D02*
D03*
Y239616D02*
D03*
Y235616D02*
D03*
Y231616D02*
D03*
Y219616D02*
D03*
Y207616D02*
D03*
X124626D02*
D03*
Y211616D02*
D03*
Y215616D02*
D03*
Y219616D02*
D03*
Y223616D02*
D03*
Y227616D02*
D03*
Y231616D02*
D03*
Y235616D02*
D03*
Y239616D02*
D03*
Y243616D02*
D03*
Y247616D02*
D03*
Y251616D02*
D03*
D23*
X87980Y342618D02*
D03*
X83980D02*
D03*
X71980D02*
D03*
X79980D02*
D03*
X75980D02*
D03*
X87980Y402618D02*
D03*
X71980D02*
D03*
X83980D02*
D03*
X75980D02*
D03*
X79980D02*
D03*
X107980Y342618D02*
D03*
X103980D02*
D03*
X115980D02*
D03*
X111980D02*
D03*
X91980D02*
D03*
X99980D02*
D03*
X95980D02*
D03*
X111980Y402618D02*
D03*
X115980D02*
D03*
X95980D02*
D03*
X91980D02*
D03*
X107980D02*
D03*
X99980D02*
D03*
X103980D02*
D03*
X115472Y549176D02*
D03*
X111472D02*
D03*
X107472D02*
D03*
X103472D02*
D03*
X99472D02*
D03*
X95472D02*
D03*
X91472D02*
D03*
X87472D02*
D03*
X83472D02*
D03*
X79472D02*
D03*
X75472D02*
D03*
X71472D02*
D03*
Y489176D02*
D03*
X75472D02*
D03*
X79472D02*
D03*
X83472D02*
D03*
X87472D02*
D03*
X91472D02*
D03*
X95472D02*
D03*
X99472D02*
D03*
X103472D02*
D03*
X107472D02*
D03*
X111472D02*
D03*
X115472D02*
D03*
X117504Y117630D02*
D03*
X113504D02*
D03*
X109504D02*
D03*
X105504D02*
D03*
X101504D02*
D03*
X97504D02*
D03*
X93504D02*
D03*
X89504D02*
D03*
X85504D02*
D03*
X81504D02*
D03*
X77504D02*
D03*
X73504D02*
D03*
Y57630D02*
D03*
X77504D02*
D03*
X81504D02*
D03*
X85504D02*
D03*
X89504D02*
D03*
X93504D02*
D03*
X97504D02*
D03*
X101504D02*
D03*
X105504D02*
D03*
X109504D02*
D03*
X113504D02*
D03*
X117504D02*
D03*
X116626Y259616D02*
D03*
X112626D02*
D03*
X108626D02*
D03*
X104626D02*
D03*
X100626D02*
D03*
X96626D02*
D03*
X92626D02*
D03*
X88626D02*
D03*
X84626D02*
D03*
X80626D02*
D03*
X76626D02*
D03*
X72626D02*
D03*
Y199616D02*
D03*
X76626D02*
D03*
X80626D02*
D03*
X84626D02*
D03*
X88626D02*
D03*
X92626D02*
D03*
X96626D02*
D03*
X100626D02*
D03*
X104626D02*
D03*
X108626D02*
D03*
X112626D02*
D03*
X116626D02*
D03*
D24*
X93980Y372618D02*
D03*
X93472Y519176D02*
D03*
X95504Y87630D02*
D03*
X94626Y229616D02*
D03*
D25*
X87376Y469066D02*
D03*
Y460066D02*
D03*
X79386Y288909D02*
D03*
Y279909D02*
D03*
X113030Y37270D02*
D03*
Y28770D02*
D03*
X188976Y666932D02*
D03*
Y657932D02*
D03*
X210312Y666614D02*
D03*
X199644Y666682D02*
D03*
X221234Y666614D02*
D03*
X68072Y422911D02*
D03*
X67564Y569469D02*
D03*
X69596Y137923D02*
D03*
X68718Y279909D02*
D03*
X78232Y578469D02*
D03*
X99568Y460066D02*
D03*
Y578469D02*
D03*
X67564D02*
D03*
X71120Y447112D02*
D03*
X23622Y468702D02*
D03*
X88900Y578469D02*
D03*
X110236Y578186D02*
D03*
X112268Y146640D02*
D03*
X111390Y288626D02*
D03*
X110744Y431628D02*
D03*
X72898Y18614D02*
D03*
X25654Y40530D02*
D03*
X70358Y161108D02*
D03*
X23114Y182952D02*
D03*
X90932Y146922D02*
D03*
X69596Y146923D02*
D03*
X90054Y288908D02*
D03*
X68718Y288909D02*
D03*
X101600Y28520D02*
D03*
X89916D02*
D03*
X80264Y146923D02*
D03*
X101600D02*
D03*
X88922Y170506D02*
D03*
X100722Y288909D02*
D03*
Y170506D02*
D03*
X70104Y303022D02*
D03*
X22860Y325192D02*
D03*
X89408Y431910D02*
D03*
X68072Y431911D02*
D03*
X87884Y313762D02*
D03*
X100076Y431911D02*
D03*
Y313508D02*
D03*
X78740Y431911D02*
D03*
X199644Y658182D02*
D03*
X210312Y658114D02*
D03*
X221234D02*
D03*
X101600Y37520D02*
D03*
X88922Y179506D02*
D03*
X70358Y170108D02*
D03*
X23114Y191952D02*
D03*
X87884Y322762D02*
D03*
X100722Y179506D02*
D03*
X112036Y171010D02*
D03*
Y179510D02*
D03*
X99568Y569469D02*
D03*
X110236Y569686D02*
D03*
X110998Y460316D02*
D03*
Y468816D02*
D03*
X99568Y469066D02*
D03*
X120904Y569468D02*
D03*
Y578468D02*
D03*
X78232Y569469D02*
D03*
X88900D02*
D03*
X71120Y456112D02*
D03*
X23622Y477702D02*
D03*
X70104Y312022D02*
D03*
X22860Y334192D02*
D03*
X121412Y422982D02*
D03*
Y431982D02*
D03*
X78740Y422911D02*
D03*
X100076D02*
D03*
X89408Y422910D02*
D03*
X110744Y423128D02*
D03*
X111506Y314012D02*
D03*
Y322512D02*
D03*
X100076Y322508D02*
D03*
X122058Y279980D02*
D03*
Y288980D02*
D03*
X111390Y280126D02*
D03*
X90054Y279908D02*
D03*
X100722Y279909D02*
D03*
X112268Y138140D02*
D03*
X72898Y27614D02*
D03*
X25654Y49530D02*
D03*
X90932Y137922D02*
D03*
X89916Y37520D02*
D03*
X80264Y137923D02*
D03*
X101600D02*
D03*
X122936Y146994D02*
D03*
Y137994D02*
D03*
D26*
X144743Y366522D02*
D03*
X153244D02*
D03*
X145389Y223520D02*
D03*
X153890D02*
D03*
X146267Y81534D02*
D03*
X154768D02*
D03*
X45140Y93726D02*
D03*
X36140D02*
D03*
X43616Y368046D02*
D03*
Y378714D02*
D03*
X34108Y514604D02*
D03*
Y525272D02*
D03*
X34616Y368046D02*
D03*
Y378714D02*
D03*
X35262Y225044D02*
D03*
Y235712D02*
D03*
X36140Y83058D02*
D03*
X238070Y624332D02*
D03*
Y635000D02*
D03*
X247070D02*
D03*
Y624332D02*
D03*
X45140Y83058D02*
D03*
X44262Y225044D02*
D03*
Y235712D02*
D03*
X43108Y514604D02*
D03*
Y525272D02*
D03*
X235784Y5334D02*
D03*
X244784D02*
D03*
X235784Y16002D02*
D03*
X244784D02*
D03*
X235784Y184404D02*
D03*
X244784D02*
D03*
X238066Y599694D02*
D03*
X246566D02*
D03*
X145868Y104140D02*
D03*
X144344Y389128D02*
D03*
X144990Y246126D02*
D03*
X143836Y535686D02*
D03*
X34108Y503936D02*
D03*
X153018Y523748D02*
D03*
X34108Y535940D02*
D03*
X168474Y572516D02*
D03*
X153018Y502412D02*
D03*
X34362Y491744D02*
D03*
X34108Y546608D02*
D03*
X152836Y535686D02*
D03*
Y546354D02*
D03*
X36140Y115062D02*
D03*
X154868Y114808D02*
D03*
Y104140D02*
D03*
X35262Y257048D02*
D03*
X198302Y217932D02*
D03*
X153990Y246126D02*
D03*
X36212Y60198D02*
D03*
X36140Y104394D02*
D03*
Y72390D02*
D03*
X155050Y92202D02*
D03*
X35334Y202184D02*
D03*
X154172Y234188D02*
D03*
X35262Y246380D02*
D03*
Y214376D02*
D03*
X170506Y140970D02*
D03*
X169628Y282956D02*
D03*
X155050Y70866D02*
D03*
X154172Y212852D02*
D03*
X153344Y399796D02*
D03*
X34616Y400050D02*
D03*
X153344Y389128D02*
D03*
Y377698D02*
D03*
X34616Y357378D02*
D03*
Y389382D02*
D03*
X34688Y345186D02*
D03*
X168982Y425958D02*
D03*
X153526Y355854D02*
D03*
X246566Y610616D02*
D03*
X197286Y507492D02*
D03*
X197468Y360934D02*
D03*
X153990Y256794D02*
D03*
X199064Y75946D02*
D03*
X238066Y610616D02*
D03*
X188286Y507492D02*
D03*
X190064Y75946D02*
D03*
X189302Y217932D02*
D03*
X188468Y360934D02*
D03*
X767139Y596342D02*
D03*
Y581106D02*
D03*
Y428118D02*
D03*
Y412907D02*
D03*
Y259843D02*
D03*
Y244632D02*
D03*
Y91695D02*
D03*
Y76611D02*
D03*
X263834Y35814D02*
D03*
X254834D02*
D03*
X177474Y572516D02*
D03*
X143836Y546354D02*
D03*
X152736Y491744D02*
D03*
X144235D02*
D03*
X144018Y502412D02*
D03*
Y523748D02*
D03*
X152736Y513080D02*
D03*
X144235D02*
D03*
X43362Y491744D02*
D03*
X43108Y535940D02*
D03*
Y546608D02*
D03*
Y503936D02*
D03*
X144344Y399796D02*
D03*
X153244Y345186D02*
D03*
X144743D02*
D03*
X144526Y355854D02*
D03*
X177982Y425958D02*
D03*
X144344Y377698D02*
D03*
X43616Y357378D02*
D03*
X43688Y345186D02*
D03*
X43616Y389382D02*
D03*
Y400050D02*
D03*
X153890Y202184D02*
D03*
X145389D02*
D03*
X145172Y234188D02*
D03*
X178628Y282956D02*
D03*
X145172Y212852D02*
D03*
X144990Y256794D02*
D03*
X44262Y257048D02*
D03*
Y246380D02*
D03*
X44334Y202184D02*
D03*
X44262Y214376D02*
D03*
X758639Y76611D02*
D03*
Y91695D02*
D03*
Y244632D02*
D03*
Y259843D02*
D03*
Y412907D02*
D03*
Y428118D02*
D03*
Y581106D02*
D03*
Y596342D02*
D03*
X146267Y60198D02*
D03*
X154768D02*
D03*
X45140Y115062D02*
D03*
X145868Y114808D02*
D03*
X45212Y60198D02*
D03*
X45140Y104394D02*
D03*
Y72390D02*
D03*
X146050Y92202D02*
D03*
X179506Y140970D02*
D03*
X146050Y70866D02*
D03*
X236872Y511302D02*
D03*
X245872D02*
D03*
X235530Y341884D02*
D03*
X244530D02*
D03*
X236872Y521970D02*
D03*
X245872D02*
D03*
X235530Y352552D02*
D03*
X244530D02*
D03*
X255778Y531114D02*
D03*
X264778D02*
D03*
X254508Y361696D02*
D03*
X263508D02*
D03*
X255778Y541782D02*
D03*
X264778D02*
D03*
X254508Y372364D02*
D03*
X263508D02*
D03*
X235784Y173736D02*
D03*
X244784D02*
D03*
X254834Y193294D02*
D03*
X263834D02*
D03*
X254762Y25146D02*
D03*
X263762D02*
D03*
X254834Y203962D02*
D03*
X263834D02*
D03*
D27*
X170942Y366238D02*
D03*
Y394238D02*
D03*
X170434Y540796D02*
D03*
Y512796D02*
D03*
X171588Y251236D02*
D03*
Y223236D02*
D03*
X172466Y81250D02*
D03*
Y109250D02*
D03*
D28*
X162782Y600696D02*
D03*
Y605696D02*
D03*
Y615696D02*
D03*
Y620696D02*
D03*
Y630428D02*
D03*
Y635428D02*
D03*
Y645428D02*
D03*
Y650428D02*
D03*
X154432D02*
D03*
Y645428D02*
D03*
Y630428D02*
D03*
Y635428D02*
D03*
Y620696D02*
D03*
Y615696D02*
D03*
Y600696D02*
D03*
Y605696D02*
D03*
D29*
X41284Y43774D02*
D03*
Y22774D02*
D03*
X58284D02*
D03*
Y43774D02*
D03*
X38998Y186268D02*
D03*
Y165268D02*
D03*
X55998D02*
D03*
Y186268D02*
D03*
X38744Y328508D02*
D03*
Y307508D02*
D03*
X55744D02*
D03*
Y328508D02*
D03*
X39506Y472272D02*
D03*
Y451272D02*
D03*
X56506D02*
D03*
Y472272D02*
D03*
D30*
X161152Y559308D02*
D03*
X163184Y127762D02*
D03*
X162306Y269748D02*
D03*
X161660Y412750D02*
D03*
X175652Y559308D02*
D03*
X176160Y412750D02*
D03*
X176806Y269748D02*
D03*
X177684Y127762D02*
D03*
D31*
X741680Y81618D02*
D03*
Y62110D02*
D03*
Y249648D02*
D03*
Y230140D02*
D03*
Y417878D02*
D03*
Y398370D02*
D03*
Y586108D02*
D03*
Y566600D02*
D03*
D32*
X741679Y124619D02*
D03*
Y292849D02*
D03*
Y461079D02*
D03*
Y629311D02*
D03*
D33*
Y143619D02*
D03*
Y311849D02*
D03*
Y480079D02*
D03*
Y648311D02*
D03*
M02*
