M48
;Layer_Color=9474304
;FILE_FORMAT=4:4
METRIC,LZ
;TYPE=PLATED
T01F00S00C0.3000
T02F00S00C0.6000
T03F00S00C0.7000
;TYPE=NON_PLATED
T06F00S00C1.2000
%
T01
X00021082Y00039258
X0004191Y0003375
X0004876Y00022774
X0005842Y00035528
X00050808Y00043688
X00042236Y00060071
X00031962Y00060198
X0003189Y0007239
X00042164
X00028353Y00079982
X0002662Y00085757
Y00091027
X00028311Y0009652
X0003614Y0009975
X00035786Y00109516
X00042164Y00104433
X00058674Y00105664
X00073914Y00108265
Y00102995
X00085598Y00098298
X00097282Y00098806
X00108204Y0009906
X00103504Y00111072
X001016Y00124206
X0009779Y00129032
X00087504Y00124188
X00080264Y00140899
X00084954Y00146591
X00074346Y00146616
X00095896Y00146645
X00106492Y00146844
X00112522Y00144164
X00101506Y00140899
X00111252Y00125476
X00125476Y00114808
X00148844Y0010414
X00141869Y00092133
X001593Y00092202
X00155325Y00074799
X00133232Y00073408
X00127Y00060198
X0011303Y00050631
X001016Y00034544
Y0002427
X00089916
Y00034544
X0007747Y00017342
X00077586Y00064008
X0007366Y00068995
Y00074265
X00077586Y00079502
X00085852Y0008128
X00095758Y00080772
X00108458Y00078486
X00127394Y00146959
X00161798Y00141732
X00155956Y00135128
X00154432Y00124206
X0016002Y00119888
X00168402Y00119126
X001651Y0011557
X00171958Y00122936
X00151196Y00212725
X00130325Y00215521
X00126238Y00202692
X00112036Y00192631
X00100838Y0018415
Y00173482
X000889
X00088646Y0018415
X00076708Y00205994
X00073152Y00210981
Y00216251
X00076708Y00221488
X0009144Y00222504
X00105918Y00221742
X00102756Y00252997
X00097028Y00252984
X00100441Y00265256
X00100764Y0027397
X00090564Y00266204
X00079502Y00273812
X00084582Y0029337
X0010062Y00293278
X0010002Y00308996
X00100241Y00319532
X00087838Y00327213
X00087873Y00309208
X00065268Y00302768
X0006858Y00293624
X00057912Y00280924
X00051954
X00049687Y00267436
X00029766Y00263967
X00023876Y00263906
X00034798Y00252222
X00035052Y00241739
X00044356Y00241736
X00027686Y00239014
X00026416Y00233013
Y00227743
X00027686Y00221488
X00031242Y00214376
X00041286
X00041358Y00202184
X00031242
X00029474Y00183134
X00038862Y0017399
X00046474Y00165268
X00042418Y00149056
X00031187Y00149382
X0003087Y00131896
X00030988Y00125476
X00050292
X00052832Y00135996
X00053086Y0014126
X00065522Y0016129
X00055626Y00178111
X00048522Y00186268
X00058166Y0024765
X00073152Y00250251
Y00244981
X00080264Y00235966
X0008763Y00238252
X00130326Y00247616
X00124968Y00257048
X00112928Y00265938
X00126492Y00289052
X00159004Y00283972
X00156718Y00275844
X00159766Y0026162
X00167132Y0026035
X00164338Y00256794
X0017018Y00263906
X00147966Y00246126
X0015875Y00234188
X00137668Y00228854
X00124714Y00345186
X00132267Y00359632
X00137148Y00372364
X00157366Y00377698
X0014732Y00389128
X00157366Y00355854
X00106934Y00360426
X00104902Y0037211
X00106172Y00380746
X0010198Y0039606
X00095614Y00396003
X00083312Y00385064
X0007239Y00387983
Y00393253
X0005729Y00390652
X0004064Y00389382
X00034704Y00384738
X00034798Y00395224
X00026416Y00376015
Y00370745
X00029972Y00357632
X0004064Y00357124
X00040712Y00345186
X00029972
X0002922Y00325374
X00038608Y00315468
X0004622Y00307508
X0004445Y00294894
X00031242Y0029083
X00056388Y00320045
X00048268Y00328676
X00076062Y00348996
X00072136Y00353983
Y00359253
X00076062Y0036449
X00085598Y00369824
X00111633Y00335607
X00279604Y00386081
X00317754Y00385826
X00355854Y00385572
X00359156Y0036068
Y00355092
Y00349504
X003556Y0021717
X00359156Y00192024
Y00186436
Y00180848
X00318008Y00221234
X002794Y00221488
Y00054102
X003175Y00053086
X00355854Y0004826
X00359156Y00023876
Y00018288
Y000127
X00432477
Y00018288
Y00023876
X00505799
Y00018288
Y000127
X00508254Y0005266
X00502666
X00513842
X005334Y0008763
X00559308
X00578866Y0005266
X00584454
X00590042
X0057912Y00023876
Y00018288
Y000127
X00714502Y00033274
X00719582Y00028194
X00725424Y0002286
X00728472Y00056388
X00724662Y00059436
X00720852Y00062992
X00723153Y00153252
Y0015884
X00728487
X00728741Y00153252
X00717565
X00712231
X00711977Y0015884
X00717565
X0070702Y00178967
X00701555Y00179028
X00701432Y00184809
X00706897Y00184748
X00696628Y00219052
Y00224386
Y00229974
X00695452Y00256286
Y0026162
Y00267208
Y00272796
X00717311Y0028203
X00722645
Y00287364
X00717311
X00728233
Y0028203
X00733821
X0073914Y00275082
Y00269748
Y0026416
Y00258572
X00726034Y00229559
X00641379Y0022987
X00654304Y00251714
Y00262636
X0065913Y0019304
X0057912Y00192024
Y00186436
Y00180848
X00578866Y00220808
X00584454
X00590042
X00559054Y00255524
X00533654
X00483108Y00256032
X00470408
X00502666Y00220808
X00508254
X00513842
X00505799Y00192024
Y00186436
Y00180848
X00432477
Y00186436
Y00192024
X00470154Y00087376
X00482854
X00505799Y00349504
Y00355092
Y0036068
X00508254Y00389108
X00513842
X00502666
X00559054Y00390398
X00578866Y00389108
X00584454
X00590042
X0057912Y0036068
Y00355092
Y00349504
X0065913Y00361188
X00701417Y00352613
X00706882Y00352552
X00707005Y00346771
X0070154Y00346831
X007112Y00326644
X00716788
Y00321056
X00711454
X00722376
X00727964
X0072771Y00326644
X00722376
X00695597Y00387028
Y00392606
X00432477Y0036068
Y00355092
Y00349504
X00470662Y00423418
X00482854
X00533654Y00423164
X00522408Y00525606
X00517296Y0052151
X00513518Y00526114
X00505644Y00525606
X00500532Y0052151
X00496754Y00526114
X00500853Y00530612
X00517617
X00515874Y00549656
Y00554482
X00520954
Y00549656
X0051054
Y00554482
X00505206
X0050038
Y00549656
X00505206
X00482854Y00559054
X00470154Y005588
X00425958Y0055753
X00414782Y00555498
X00406966Y0054692
X00413766Y00539496
X0041278Y0057277
X00400392Y00595542
X0041783Y0061468
X00424434Y00620827
X00416611Y00628396
X0041021Y006223
X00409091Y0063621
X00422656Y0063627
X00401574Y00643636
X0041275Y00667766
X0042291Y00666242
X00434086Y00661924
X00442214Y00669856
X0045147Y00639826
X00459232Y0063246
X00500126Y00628396
Y0062357
X00504952
Y00628396
X00510286
Y0062357
X0051562
Y00628396
X005207
Y0062357
X00517144Y0060579
X00512064
X0050673
X0050419Y0059436
X0049911
X00493776
X00538226Y00594614
Y0059944
X00543306
Y00594614
X00577596Y00597662
X00585724Y00594106
X00591058
X00596138
X00592582Y00636778
X00581406Y00659638
X00517972Y00658294
X00513874Y00653796
X00517652Y00649192
X00522764Y00653288
X0050104Y00649294
X00497262Y00653898
X00501361Y00658396
X00528828Y00562832
X00551797Y0055753
X0059309Y00550046
X00581152Y0051816
X00678706Y00551872
X00737616Y00515366
X00743204
X00748792
X0075438
Y00509524
X00748792
X00743204
X00737616
X00733806Y00455168
Y00449834
X00728218
Y00455168
X0072263
X00717296
Y00449834
X0072263
X0073914Y00443484
Y0043815
Y00432562
Y00426974
X00725272Y00397415
X00695613Y00398052
X0069596Y00423418
Y00428752
Y0043434
Y00439928
X00654558Y00429768
X00654304Y00419354
X00640842Y00397764
X00767334Y00601726
X00396665Y00599269
X0039083Y00597764
X00391651Y00603775
X00387925Y00607501
X00381977Y00606342
X00383165Y00612261
X00379439Y00615988
X0037338Y00615848
X00356108Y00618998
X00343662Y00617728
X00333756Y00649732
X00325374Y00641604
X00316738Y00632714
X00308356Y00624586
X0029152Y00624912
X00284346Y00630453
X00292862Y0063895
X00302006Y00648716
X00309118Y00657098
X00323146Y0066085
X00337058Y00663702
X00365506Y00663194
X00369062Y00656336
X00387096Y00639064
X00375158Y00585216
X00366522Y00577342
X00356108Y00559054
X00390652Y00556514
X00393515Y00538157
X0038989Y00529082
X00381072Y00529772
X00366014Y00528574
X00344932Y00527558
X0033401Y00513588
X00328049Y00541079
X00319651Y00549636
X00311152Y00558091
X00303439Y00534726
X0029591Y00542036
X00277622Y00549656
X00278357Y00560545
X00278391Y00616349
X00246634Y00595355
X00211074Y00614934
X00207264Y00631444
X00204948Y00644133
X00195072Y00640588
X00198628Y00624332
X00138684Y0062357
X00132588Y00623824
X00132842Y0062992
X00128862Y00620098
X00129032Y00613918
Y00605831
Y00600561
X00134112Y00596392
X00123952
Y00609854
X00134112
X0014097Y00610616
X00122936Y00619506
X00115363Y00635886
X00115653Y00642196
X0010922Y00642874
X0011938Y00645922
X00125984Y00645668
X00120142Y00652272
X00139954Y00656082
X0014605Y00650563
Y00645293
Y00638302
X00151638Y00656082
X00172974Y00667004
X00079597Y00655066
X00074327
X00069342Y00648462
X00084582Y00648208
X00084461Y00641006
X00085598Y0060833
X00079598Y00608076
X00074328
X00068326Y0060833
X00069463Y00615786
X00072898Y00574516
X00083566
X00075758Y00562102
X00091199Y00555767
X00098706Y00556075
X00099822Y00564134
X00107696Y00563626
X00110367Y00582807
X0012065Y00582676
X00124206Y005461
X00109484Y00542624
X00090006Y00541994
X00071882Y00539811
Y00534541
X00056896Y0053721
X00051308Y00530098
X00034108Y00531296
X00026416Y00528828
Y00522573
Y00517303
Y00511302
X00037084Y00503936
X00048768Y00503682
Y0049149
X00037338Y00491871
X00056642Y00481584
X0004903Y00471424
X00040132Y00462248
X00029982Y00468884
X0003048Y00451612
X00033528Y0043942
X00044077Y00440922
X0006603Y00446532
X0005903Y00426666
X00056794Y00421894
X00045655Y00406074
X0002413Y0040513
Y00411226
X0007874Y00415798
X00083856Y00427772
X00094525Y0042777
X00105309Y00427635
X00100736Y0041656
X00101655Y00410155
X00112928Y00411068
X00123444Y004064
X00121412Y00436801
X00099822Y00455676
X0008763
X00087122Y00474726
X00099314
X00111252Y00482157
X00126746Y00491744
X00130604Y00505644
X00136201Y0052028
X00158914Y00523632
X00157226Y0054483
X00162528Y00547899
X00166212Y0055148
X0016955Y00555528
X00155194Y00560324
X00153408Y00573794
X00162814Y00568706
X00146812Y00535863
X00075554Y00511048
X00071628Y00505811
Y00500541
X00075554Y00495554
X00048134Y00556975
X00051816Y00568706
X0005549Y00572484
X0004318Y00594868
X0003429Y00586994
X00022847Y00563923
X0002286Y00540512
X00037084Y00546608
X00090322Y00408988
X00159258Y00405638
X00157988Y00398526
X0016383Y0040132
X0016764Y00405384
X00171159Y00408857
X00166878Y0042037
X00155194Y00427736
X00311658Y00525018
X00323342Y0058801
T02
X00014224Y000635
Y000762
Y000889
Y001016
Y001143
Y00127
X0001397Y0020574
Y0021844
Y0023114
Y0024384
Y0025654
Y0026924
X00014224Y00348234
Y00360934
Y00373634
Y00386334
Y00399034
Y00411734
X00014478Y004953
Y00508
Y005207
Y005334
Y005461
Y005588
T03
X00052962Y00606896
Y00649896
X00100962
Y00606896
T06
X00249403Y00055896
Y00224125
Y00392425
X00629403
Y00224125
Y00055896
Y00560726
X00249403
M30
