G04*
G04 #@! TF.GenerationSoftware,Altium Limited,Altium Designer,24.0.1 (36)*
G04*
G04 Layer_Color=12632256*
%FSLAX44Y44*%
%MOMM*%
G71*
G04*
G04 #@! TF.SameCoordinates,86479D1D-582F-4F93-B16F-34CC7BD45DDA*
G04*
G04*
G04 #@! TF.FilePolarity,Positive*
G04*
G01*
G75*
%ADD69C,1.0000*%
%ADD70C,1.3000*%
%ADD71O,1.2000X0.8000*%
%ADD72R,1.2000X0.8000*%
%ADD73R,1.8000X4.5000*%
%ADD74R,1.8000X4.0000*%
%ADD75R,5.0000X2.6000*%
D69*
X629403Y560726D02*
D03*
X249403D02*
D03*
Y55896D02*
D03*
X629403D02*
D03*
X249403Y224125D02*
D03*
X629403D02*
D03*
X249403Y392425D02*
D03*
X629403D02*
D03*
D70*
X100962Y649896D02*
D03*
Y606896D02*
D03*
X52962D02*
D03*
Y649896D02*
D03*
D71*
X14224Y411734D02*
D03*
Y386334D02*
D03*
Y373634D02*
D03*
Y360934D02*
D03*
Y399034D02*
D03*
X14478Y558800D02*
D03*
Y533400D02*
D03*
Y520700D02*
D03*
Y508000D02*
D03*
Y546100D02*
D03*
X14224Y127000D02*
D03*
Y101600D02*
D03*
Y88900D02*
D03*
Y76200D02*
D03*
Y114300D02*
D03*
X13970Y269240D02*
D03*
Y243840D02*
D03*
Y231140D02*
D03*
Y218440D02*
D03*
Y256540D02*
D03*
D72*
X14224Y348234D02*
D03*
X14478Y495300D02*
D03*
X14224Y63500D02*
D03*
X13970Y205740D02*
D03*
D73*
X654910Y614318D02*
D03*
D74*
X676910Y639318D02*
D03*
D75*
X704910Y591818D02*
D03*
M02*
