G04*
G04 #@! TF.GenerationSoftware,Altium Limited,Altium Designer,24.0.1 (36)*
G04*
G04 Layer_Physical_Order=1*
G04 Layer_Color=191*
%FSLAX44Y44*%
%MOMM*%
G71*
G04*
G04 #@! TF.SameCoordinates,86479D1D-582F-4F93-B16F-34CC7BD45DDA*
G04*
G04*
G04 #@! TF.FilePolarity,Positive*
G04*
G01*
G75*
%ADD13C,0.2540*%
%ADD14C,0.1524*%
%ADD15C,0.2032*%
%ADD17C,0.1270*%
%ADD18R,2.4000X2.8000*%
%ADD19R,0.6000X2.9000*%
%ADD20O,0.7000X0.2000*%
%ADD21O,0.2000X0.7000*%
%ADD22R,3.3000X3.3000*%
%ADD23R,0.5000X0.5000*%
%ADD24R,0.5000X0.5000*%
%ADD25R,1.6500X1.4000*%
%ADD26R,0.5650X0.2000*%
%ADD27R,1.2000X1.3000*%
%ADD28R,0.7500X0.8500*%
G04:AMPARAMS|DCode=29|XSize=1.27mm|YSize=1.016mm|CornerRadius=0.254mm|HoleSize=0mm|Usage=FLASHONLY|Rotation=180.000|XOffset=0mm|YOffset=0mm|HoleType=Round|Shape=RoundedRectangle|*
%AMROUNDEDRECTD29*
21,1,1.2700,0.5080,0,0,180.0*
21,1,0.7620,1.0160,0,0,180.0*
1,1,0.5080,-0.3810,0.2540*
1,1,0.5080,0.3810,0.2540*
1,1,0.5080,0.3810,-0.2540*
1,1,0.5080,-0.3810,-0.2540*
%
%ADD29ROUNDEDRECTD29*%
G04:AMPARAMS|DCode=30|XSize=1.27mm|YSize=0.889mm|CornerRadius=0mm|HoleSize=0mm|Usage=FLASHONLY|Rotation=0.000|XOffset=0mm|YOffset=0mm|HoleType=Round|Shape=Octagon|*
%AMOCTAGOND30*
4,1,8,0.6350,-0.2223,0.6350,0.2223,0.4128,0.4445,-0.4128,0.4445,-0.6350,0.2223,-0.6350,-0.2223,-0.4128,-0.4445,0.4128,-0.4445,0.6350,-0.2223,0.0*
%
%ADD30OCTAGOND30*%

%ADD31R,1.2700X0.8890*%
%ADD57R,1.3000X0.7000*%
%ADD58R,0.2000X0.4000*%
%ADD59R,0.7000X0.2000*%
%ADD60R,0.2000X0.7000*%
%ADD61R,2.0000X3.0000*%
%ADD62R,0.5650X0.4000*%
%ADD63C,0.1308*%
%ADD64C,0.1016*%
%ADD65C,0.3810*%
%ADD66C,0.1090*%
%ADD67C,0.1778*%
%ADD68C,0.0508*%
%ADD69C,1.0000*%
%ADD70C,1.3000*%
%ADD71O,1.2000X0.8000*%
%ADD72R,1.2000X0.8000*%
%ADD73R,1.8000X4.5000*%
%ADD74R,1.8000X4.0000*%
%ADD75R,5.0000X2.6000*%
%ADD76C,0.4000*%
G36*
X171704Y145796D02*
X173228Y144272D01*
Y134874D01*
X168656Y130302D01*
Y124714D01*
X166116Y122174D01*
X161544Y117602D01*
Y112268D01*
X160528Y111252D01*
X153162D01*
X152146Y112268D01*
Y144272D01*
X153670Y145796D01*
X171704Y145796D01*
D02*
G37*
G36*
X184404Y144526D02*
Y103632D01*
X182118Y101346D01*
X164592D01*
X163322Y102616D01*
Y116840D01*
X170688Y124206D01*
Y129540D01*
X174752Y133604D01*
Y144526D01*
X176022Y145796D01*
X183134D01*
X184404Y144526D01*
D02*
G37*
G36*
X170826Y287782D02*
X172350Y286258D01*
Y276860D01*
X167778Y272288D01*
Y266700D01*
X165238Y264160D01*
X160666Y259588D01*
Y254254D01*
X159650Y253238D01*
X152284D01*
X151268Y254254D01*
Y286258D01*
X152792Y287782D01*
X170826Y287782D01*
D02*
G37*
G36*
X183526Y286512D02*
Y245618D01*
X181240Y243332D01*
X163714D01*
X162444Y244602D01*
Y258826D01*
X169810Y266192D01*
Y271526D01*
X173874Y275590D01*
Y286512D01*
X175144Y287782D01*
X182256D01*
X183526Y286512D01*
D02*
G37*
G36*
X524002Y86106D02*
X525526Y84582D01*
X525526Y51816D01*
X522732Y49022D01*
X492760D01*
X490474Y51308D01*
Y84582D01*
X491998Y86106D01*
X524002Y86106D01*
D02*
G37*
G36*
X600202D02*
X601726Y84582D01*
X601726Y51816D01*
X598932Y49022D01*
X568960D01*
X566674Y51308D01*
Y84582D01*
X568198Y86106D01*
X600202Y86106D01*
D02*
G37*
G36*
X524002Y254336D02*
X525526Y252812D01*
X525526Y220046D01*
X522732Y217252D01*
X492760D01*
X490474Y219538D01*
Y252812D01*
X491998Y254336D01*
X524002Y254336D01*
D02*
G37*
G36*
X600202D02*
X601726Y252812D01*
X601726Y220046D01*
X598932Y217252D01*
X568960D01*
X566674Y219538D01*
Y252812D01*
X568198Y254336D01*
X600202Y254336D01*
D02*
G37*
G36*
X170180Y430784D02*
X171704Y429260D01*
Y419862D01*
X167132Y415290D01*
Y409702D01*
X164592Y407162D01*
X160020Y402590D01*
Y397256D01*
X159004Y396240D01*
X151638D01*
X150622Y397256D01*
Y429260D01*
X152146Y430784D01*
X170180Y430784D01*
D02*
G37*
G36*
X182880Y429514D02*
Y388620D01*
X180594Y386334D01*
X163068D01*
X161798Y387604D01*
Y401828D01*
X169164Y409194D01*
Y414528D01*
X173228Y418592D01*
Y429514D01*
X174498Y430784D01*
X181610D01*
X182880Y429514D01*
D02*
G37*
G36*
X169672Y577342D02*
X171196Y575818D01*
Y566420D01*
X166624Y561848D01*
Y556260D01*
X164084Y553720D01*
X159512Y549148D01*
Y543814D01*
X158496Y542798D01*
X151130D01*
X150114Y543814D01*
Y575818D01*
X151638Y577342D01*
X169672Y577342D01*
D02*
G37*
G36*
X182372Y576072D02*
Y535178D01*
X180086Y532892D01*
X162560D01*
X161290Y534162D01*
Y548386D01*
X168656Y555752D01*
Y561086D01*
X172720Y565150D01*
Y576072D01*
X173990Y577342D01*
X181102D01*
X182372Y576072D01*
D02*
G37*
G36*
X524002Y422636D02*
X525526Y421112D01*
X525526Y388346D01*
X522732Y385552D01*
X492760D01*
X490474Y387838D01*
Y421112D01*
X491998Y422636D01*
X524002Y422636D01*
D02*
G37*
G36*
X600202D02*
X601726Y421112D01*
X601726Y388346D01*
X598932Y385552D01*
X568960D01*
X566674Y387838D01*
Y421112D01*
X568198Y422636D01*
X600202Y422636D01*
D02*
G37*
G36*
X507238Y596900D02*
X512318Y591820D01*
X523494D01*
X525526Y589788D01*
Y561594D01*
X523240Y559308D01*
X492506D01*
X489458Y562356D01*
Y594868D01*
X491490Y596900D01*
X507238D01*
D02*
G37*
G36*
X599694Y596646D02*
X601726Y594614D01*
Y560832D01*
X600202Y559308D01*
X568960D01*
X567182Y561086D01*
Y590296D01*
X568706Y591820D01*
X577596D01*
X581406Y595630D01*
X582422Y596646D01*
X599694D01*
D02*
G37*
D13*
X45746Y267706D02*
X46070Y267382D01*
X45746Y267706D02*
Y272099D01*
X44640Y273204D02*
Y274351D01*
Y273204D02*
X45746Y272099D01*
X40016Y274828D02*
X44163D01*
X44640Y274351D01*
X44905Y556931D02*
X48090D01*
X48134Y556975D01*
X44861Y556887D02*
X44905Y556931D01*
X44861Y556887D02*
Y561389D01*
X41862Y564388D02*
X44861Y561389D01*
X38862Y564388D02*
X41862D01*
X42370Y417830D02*
X45370Y414831D01*
Y406755D02*
Y414831D01*
X39370Y417830D02*
X42370D01*
X94626Y229616D02*
X124626D01*
X153018Y523748D02*
X159588D01*
X93472Y519176D02*
X123472D01*
X93980Y372618D02*
X123980D01*
X56506Y472272D02*
X56642Y472408D01*
X55658Y471424D02*
X56506Y472272D01*
X95504Y87630D02*
X125504D01*
X49633Y267382D02*
X49687Y267436D01*
X46070Y267382D02*
X49633D01*
X45370Y406755D02*
X45655Y406469D01*
Y406074D02*
Y406469D01*
X158914Y508308D02*
Y523632D01*
X153018Y502412D02*
X158914Y508308D01*
X39166Y451612D02*
X39506Y451272D01*
X30480Y451612D02*
X39166D01*
X39506Y451272D02*
X40132Y451898D01*
X56642Y472408D02*
Y481584D01*
X154172Y234188D02*
X158750D01*
X153090Y394208D02*
X153344Y394462D01*
X123980Y390618D02*
X132295D01*
X135885Y394208D02*
X153090D01*
X132295Y390618D02*
X135885Y394208D01*
X43271Y580735D02*
X43362Y580644D01*
X43271Y580735D02*
Y594777D01*
X43180Y594868D02*
X43271Y594777D01*
X34108Y546608D02*
X37084D01*
X34108Y535940D02*
X34108Y535940D01*
Y531296D02*
Y535940D01*
Y531296D02*
X34108Y531296D01*
X34425Y491808D02*
X37274D01*
X34362Y491744D02*
X34425Y491808D01*
X37274D02*
X37338Y491871D01*
X34108Y503936D02*
X37084D01*
X43870Y434086D02*
X43974Y434190D01*
Y440818D02*
X44077Y440922D01*
X43974Y434190D02*
Y440818D01*
X23622Y468702D02*
X23713Y468793D01*
X29891D02*
X29982Y468884D01*
X23713Y468793D02*
X29891D01*
X40132Y451898D02*
Y462248D01*
X70819Y446811D02*
X71120Y447112D01*
X66309Y446811D02*
X70819D01*
X66030Y446532D02*
X66309Y446811D01*
X87376Y460066D02*
X87503Y459939D01*
Y455803D02*
Y459939D01*
Y455803D02*
X87630Y455676D01*
X99695Y455803D02*
X99822Y455676D01*
X99695Y455803D02*
Y459939D01*
X99568Y460066D02*
X99695Y459939D01*
X49030Y471424D02*
X55658D01*
X123472Y537176D02*
X133726D01*
X34616Y400050D02*
X34707Y399959D01*
Y395315D02*
Y399959D01*
Y395315D02*
X34798Y395224D01*
X34660Y384782D02*
Y389338D01*
X34616Y389382D02*
X34660Y389338D01*
Y384782D02*
X34704Y384738D01*
X34489Y357505D02*
X34616Y357378D01*
X30099Y357505D02*
X34489D01*
X29972Y357632D02*
X30099Y357505D01*
X29972Y345186D02*
X34688D01*
X153344Y377698D02*
X157366D01*
X153526Y355854D02*
X157366D01*
X77545Y57671D02*
Y63967D01*
X77586Y64008D01*
X77504Y57630D02*
X77545Y57671D01*
X85852Y364490D02*
X93980Y372618D01*
X76062Y364490D02*
X85852D01*
X76021Y342659D02*
Y348955D01*
X75980Y342618D02*
X76021Y342659D01*
Y348955D02*
X76062Y348996D01*
X85344Y511048D02*
X93472Y519176D01*
X75554Y511048D02*
X85344D01*
X130326Y247616D02*
X136026D01*
X124626D02*
X130326D01*
X35157Y241844D02*
Y246275D01*
X35262Y246380D01*
X35052Y241739D02*
X35157Y241844D01*
X35030Y252454D02*
Y256816D01*
X35262Y257048D01*
X34798Y252222D02*
X35030Y252454D01*
X31242Y214376D02*
X35262D01*
X31242Y202184D02*
X35334D01*
X88911Y170517D02*
Y173471D01*
X88900Y173482D02*
X88911Y173471D01*
Y170517D02*
X88922Y170506D01*
X100722D02*
X100780Y170564D01*
Y173424D01*
X100838Y173482D01*
X154108Y212789D02*
X154172Y212852D01*
X151196Y212725D02*
X151259Y212789D01*
X154108D01*
X154868Y109474D02*
Y114808D01*
Y104140D02*
Y109474D01*
X154360Y108966D02*
X154868Y109474D01*
X132814Y105630D02*
X136150Y108966D01*
X154360D01*
X125504Y105630D02*
X132814D01*
X153990Y251460D02*
Y256794D01*
Y246126D02*
Y251460D01*
X139870D02*
X153990D01*
X136026Y247616D02*
X139870Y251460D01*
X152836Y541020D02*
Y546354D01*
Y535686D02*
Y541020D01*
X133726Y537176D02*
X137570Y541020D01*
X152836D01*
X153344Y394462D02*
Y399796D01*
Y389128D02*
Y394462D01*
X58674Y105664D02*
X58691Y105647D01*
X65487D01*
X65504Y105630D01*
X89710Y37726D02*
X89916Y37520D01*
X89710Y37726D02*
Y57424D01*
X89504Y57630D02*
X89710Y57424D01*
X89916Y34544D02*
Y37520D01*
X101552Y37568D02*
X101600Y37520D01*
Y34544D02*
Y37520D01*
X101504Y57630D02*
X101552Y57582D01*
Y37568D02*
Y57582D01*
X45140Y72390D02*
X52337D01*
X42164D02*
X45140D01*
X42299Y60135D02*
X45149D01*
X42236Y60071D02*
X42299Y60135D01*
X45149D02*
X50644Y65630D01*
X42164Y104433D02*
X45101D01*
X46370Y103164D01*
X59904Y89630D02*
X65504D01*
X46370Y103164D02*
X46370D01*
X59904Y89630D01*
X50644Y65630D02*
X65504D01*
X52337Y72390D02*
X57577Y77630D01*
X65504D01*
D14*
X155325Y71142D02*
Y74799D01*
X155050Y70866D02*
X155325Y71142D01*
X36140Y99750D02*
Y104394D01*
X45352Y149056D02*
X45394Y149098D01*
X42418Y149056D02*
X45352D01*
X35786Y109516D02*
Y114708D01*
X36140Y115062D01*
X155050Y92202D02*
X159300D01*
X69596Y146923D02*
X69903Y146616D01*
X74346D01*
X80264Y146923D02*
X80596Y146591D01*
X84954D01*
X91209Y146645D02*
X95896D01*
X90932Y146922D02*
X91209Y146645D01*
X101679Y146844D02*
X106492D01*
X101600Y146923D02*
X101679Y146844D01*
X112268Y146640D02*
X112522Y146386D01*
Y144164D02*
Y146386D01*
X31890Y72390D02*
X36140D01*
X31962Y60198D02*
X36212D01*
X21082Y39258D02*
X24382D01*
X25654Y40530D01*
X72898Y18614D02*
X74170Y17342D01*
X77470D01*
X89916Y24270D02*
Y28520D01*
X101600Y24270D02*
Y28520D01*
X654304Y251714D02*
X719456D01*
X726034Y229559D02*
Y245137D01*
X719456Y251714D02*
X726034Y245137D01*
X725272Y397415D02*
Y413918D01*
X654304Y419354D02*
X719836D01*
X725272Y413918D01*
X132842Y629666D02*
Y629920D01*
X138684Y623570D02*
Y623824D01*
D15*
X58380Y374618D02*
X63980D01*
X43616Y389382D02*
X58380Y374618D01*
X71472Y549176D02*
Y565561D01*
Y546388D02*
Y549176D01*
X123980Y382618D02*
X131477D01*
X119854D02*
X123980D01*
X71980Y402618D02*
Y419003D01*
Y399778D02*
Y402618D01*
X72626Y259616D02*
Y276001D01*
Y256828D02*
Y259616D01*
X73504Y117630D02*
Y134015D01*
Y114822D02*
Y117630D01*
X99822Y564134D02*
X103472Y560484D01*
X99695Y564261D02*
X99822Y564134D01*
X99472Y474472D02*
Y489176D01*
X75758Y562102D02*
Y566995D01*
Y557464D02*
Y562102D01*
X51308Y530098D02*
X60230Y521176D01*
X46910Y534496D02*
X51308Y530098D01*
X87472Y474472D02*
Y489176D01*
X41369Y402297D02*
Y410329D01*
Y402297D02*
X43616Y400050D01*
X117602Y396920D02*
X120478Y399796D01*
X123698D01*
X117602Y390208D02*
Y396920D01*
Y390208D02*
X121192Y386618D01*
X123444Y400050D02*
Y406400D01*
Y400050D02*
X123698Y399796D01*
X144344D01*
X125956Y509192D02*
X126908Y510144D01*
X136144Y520446D02*
X136355Y520657D01*
X140013D01*
X127228Y510144D02*
X135824Y518740D01*
Y519904D02*
X136201Y520280D01*
X140013Y520657D02*
X141620Y522264D01*
X126908Y510144D02*
X127228D01*
X135824Y518740D02*
Y519904D01*
X141620Y522264D02*
X142534D01*
X144018Y523748D01*
X121192Y386618D02*
X123980D01*
X121412Y431982D02*
Y436801D01*
X79472Y549176D02*
Y553750D01*
X75758Y557464D02*
X79472Y553750D01*
X75758Y566995D02*
X78232Y569469D01*
X120650Y582676D02*
X120777Y582549D01*
Y578595D02*
X120904Y578468D01*
X120777Y578595D02*
Y582549D01*
X79386Y279909D02*
X79444Y279851D01*
Y273870D02*
Y279851D01*
Y273870D02*
X79502Y273812D01*
X121688Y101630D02*
X125504D01*
X119008Y104310D02*
Y112346D01*
Y104310D02*
X121688Y101630D01*
X125476Y114808D02*
X145868D01*
X121093Y114431D02*
X125099D01*
X125476Y114808D01*
X119008Y112346D02*
X121093Y114431D01*
X120904Y257048D02*
X143506D01*
X118618Y253978D02*
X118618Y254762D01*
X120904Y257048D01*
X143506D02*
X144990Y256794D01*
X118618Y245808D02*
Y253978D01*
Y245808D02*
X120810Y243616D01*
X124626D01*
X120684Y533176D02*
X123472D01*
X116840Y537020D02*
X120684Y533176D01*
X116840Y537020D02*
Y543052D01*
X123829Y545723D02*
X124206Y546100D01*
X119511Y545723D02*
X123829D01*
X116840Y543052D02*
X119511Y545723D01*
X51308Y247650D02*
X58166D01*
X45709Y253249D02*
X51308Y247650D01*
X45709Y253249D02*
Y255601D01*
X44262Y257048D02*
X45709Y255601D01*
X44356Y241736D02*
X49856D01*
X44356Y240698D02*
Y241736D01*
Y246286D01*
X49856Y241736D02*
X59976Y231616D01*
X44262Y246380D02*
X44356Y246286D01*
X59976Y231616D02*
X64626D01*
X49502Y219616D02*
X64626D01*
X41286Y214376D02*
X44262D01*
X49502Y219616D01*
X41358Y202184D02*
X44334D01*
X49766Y207616D01*
X58166Y247616D02*
X64626D01*
X124626Y219616D02*
X128430D01*
X141833Y233019D01*
X144003D01*
X145172Y234188D01*
X88642Y183874D02*
Y199600D01*
X88646Y184150D02*
X88784Y184012D01*
Y179644D02*
X88922Y179506D01*
X88784Y179644D02*
Y184012D01*
X100722Y179506D02*
X100780Y179564D01*
Y184092D01*
X100838Y184150D01*
X100642Y184034D02*
Y199600D01*
X141008Y223558D02*
X145352D01*
X130325Y215521D02*
X130540Y215736D01*
X133186D02*
X141008Y223558D01*
X130540Y215736D02*
X133186D01*
X130246Y215600D02*
X130325Y215521D01*
X124626Y215616D02*
X124642Y215600D01*
X130246D01*
X142148Y232704D02*
X143688D01*
X145172Y234188D01*
X100819Y273914D02*
X104727Y270007D01*
Y263481D02*
Y270007D01*
X104642Y263396D02*
X104727Y263481D01*
X104642Y262100D02*
Y263396D01*
X87838Y327213D02*
X87861Y327190D01*
X87964Y342602D02*
X87980Y342618D01*
X87964Y327339D02*
Y342602D01*
X87838Y327213D02*
X87964Y327339D01*
X87861Y322785D02*
X87884Y322762D01*
X87861Y322785D02*
Y327190D01*
X100076Y322508D02*
X100159Y322425D01*
Y319614D02*
X100241Y319532D01*
X100159Y319614D02*
Y322425D01*
X99980Y322604D02*
Y342618D01*
X33370Y439263D02*
X33528Y439420D01*
X33370Y425331D02*
Y439263D01*
X142860Y376214D02*
X144344Y377698D01*
X141264Y376214D02*
X142860D01*
X137414Y372364D02*
X141264Y376214D01*
X137414Y372364D02*
X137414D01*
X126464Y362634D02*
X127418D01*
X137148Y372364D01*
X123980Y358618D02*
X130721D01*
X132152Y359410D02*
X137740Y364998D01*
X130721Y358618D02*
X131735Y359632D01*
X132267D01*
X137740Y364998D02*
X142069D01*
X124714Y345186D02*
X144743D01*
X57184Y390618D02*
X57290D01*
X63964Y390634D02*
X63980Y390618D01*
X57308Y390634D02*
X63964D01*
X57290Y390652D02*
X57308Y390634D01*
X89946Y409365D02*
X90270Y409040D01*
X90424Y408354D02*
Y409194D01*
X91964Y402634D02*
Y406814D01*
X90424Y408354D02*
X91964Y406814D01*
Y402634D02*
X91980Y402618D01*
X89946Y409365D02*
Y422372D01*
X89408Y422910D02*
X89946Y422372D01*
X111506Y322512D02*
X111569Y322575D01*
Y335544D01*
X111633Y335607D01*
X142069Y364998D02*
X142109Y365038D01*
X143259D02*
X144743Y366522D01*
X142109Y365038D02*
X143259D01*
X130717Y505553D02*
X136708D01*
X123488Y505192D02*
X129619D01*
X130556Y505714D02*
X130717Y505553D01*
X123472Y505176D02*
X123488Y505192D01*
X129619D02*
X130071Y505644D01*
X130604D01*
X136708Y505553D02*
X144235Y513080D01*
X124206Y546100D02*
X124583Y545723D01*
X125966Y546100D02*
X143582D01*
X143836Y546354D01*
X136906Y535686D02*
X143836D01*
X54454Y497176D02*
X63472D01*
X48768Y491490D02*
X54454Y497176D01*
X48768Y503936D02*
X54008Y509176D01*
X63472D01*
X43235Y503809D02*
X48641D01*
X43108Y503936D02*
X43235Y503809D01*
X43108Y535940D02*
X44552Y534496D01*
X46910D01*
X60230Y521176D02*
X63472D01*
X48641Y491617D02*
X48768Y491490D01*
X43362Y491744D02*
X43489Y491617D01*
X48641D01*
Y503809D02*
X48768Y503682D01*
X87249Y469447D02*
X87376Y469320D01*
X87249Y469447D02*
Y474599D01*
X87122Y474726D02*
X87249Y474599D01*
X99441Y469193D02*
X99568Y469066D01*
X99441Y469193D02*
Y474599D01*
X99314Y474726D02*
X99441Y474599D01*
X40877Y552975D02*
Y556871D01*
X42886Y546829D02*
Y550966D01*
Y546829D02*
X52129Y537587D01*
X40877Y552975D02*
X42886Y550966D01*
X40861Y556887D02*
X40877Y556871D01*
X47973Y399828D02*
X57184Y390618D01*
X43837Y399828D02*
X47973D01*
X56914Y537192D02*
X63456D01*
X52129Y537587D02*
X56519D01*
X56914Y537192D01*
X63456D02*
X63472Y537176D01*
X103472Y549176D02*
Y560484D01*
X99695Y564261D02*
Y569342D01*
X99568Y569469D02*
X99695Y569342D01*
X88900Y561831D02*
X90823Y559908D01*
Y556143D02*
X91456Y555510D01*
X90823Y556143D02*
Y559908D01*
X88900Y561831D02*
Y569469D01*
X91456Y549192D02*
Y555510D01*
Y549192D02*
X91472Y549176D01*
X110998Y468816D02*
X111125Y468943D01*
Y482030D01*
X111252Y482157D01*
X121362Y97646D02*
X125488D01*
X112846Y106162D02*
X121362Y97646D01*
X82164Y106162D02*
X112846D01*
X73504Y114822D02*
X82164Y106162D01*
X77591Y254084D02*
X83527Y248148D01*
X75370Y254084D02*
X77591D01*
X83527Y248148D02*
X111968D01*
X72626Y256828D02*
X75370Y254084D01*
X111959Y536578D02*
X119361Y529176D01*
X74258Y543644D02*
X80194Y537708D01*
X123472Y529176D02*
X130396D01*
X111944Y536578D02*
X111959D01*
X119361Y529176D02*
X123472D01*
X110814Y537708D02*
X111944Y536578D01*
X80194Y537708D02*
X110814D01*
X74216Y543644D02*
X74258D01*
X71472Y546388D02*
X74216Y543644D01*
X32863Y571889D02*
Y579144D01*
X34362Y580644D01*
X34326Y580680D02*
X34362Y580644D01*
X34326Y580680D02*
Y586958D01*
X34290Y586994D02*
X34326Y586958D01*
X79980Y402618D02*
Y414025D01*
X78740Y415266D02*
Y422911D01*
Y415266D02*
X79980Y414025D01*
X100076Y417753D02*
Y422911D01*
X100736Y416560D02*
Y417093D01*
X100076Y417753D02*
X100736Y417093D01*
X100076Y422911D02*
X106699Y416288D01*
X111322Y391150D02*
X119854Y382618D01*
X80608Y391150D02*
X111322D01*
X71980Y399778D02*
X80608Y391150D01*
X126746Y491744D02*
X144235D01*
X79502Y267462D02*
Y273812D01*
Y267462D02*
X80626Y266338D01*
Y259616D02*
Y266338D01*
X100722Y274012D02*
Y279909D01*
X32863Y571889D02*
X36863D01*
X33370Y425331D02*
X37371D01*
X40767Y357251D02*
X43489D01*
X43616Y357378D01*
X40640Y357124D02*
X40767Y357251D01*
X40712Y345186D02*
X43688D01*
X90941Y264830D02*
X92610Y263160D01*
X90678Y266192D02*
X90941Y265930D01*
X90054Y279908D02*
X90309Y279653D01*
Y266459D02*
Y279653D01*
X92610Y259632D02*
Y263160D01*
Y259632D02*
X92626Y259616D01*
X90309Y266459D02*
X90564Y266204D01*
X90941Y264830D02*
Y265930D01*
X112036Y179510D02*
Y192631D01*
X127000Y60198D02*
X146267D01*
X145135Y202438D02*
X145389Y202184D01*
X126238Y202692D02*
X126492Y202438D01*
X145135D01*
X145352Y223558D02*
X145389Y223520D01*
X139205Y246126D02*
X144990D01*
X132695Y239616D02*
X139205Y246126D01*
X124626Y239616D02*
X132695D01*
X34032Y289600D02*
X35389Y290957D01*
X31369D02*
X35389D01*
X31242Y290830D02*
X31369Y290957D01*
X34016Y282329D02*
Y287377D01*
X34032Y287393D02*
Y289600D01*
X34016Y287377D02*
X34032Y287393D01*
X34016Y282329D02*
X38017D01*
X42015Y265108D02*
X44262Y262861D01*
Y257048D02*
Y262861D01*
X42015Y265108D02*
Y267327D01*
X105886Y122431D02*
Y133637D01*
X105520Y120114D02*
Y122065D01*
X105886Y122431D01*
X101506Y138017D02*
X105886Y133637D01*
X125520Y73614D02*
X133026D01*
X133232Y73408D01*
X138280Y73546D02*
X146267Y81534D01*
X132965Y74037D02*
X133455Y73546D01*
X138280D01*
X125504Y73630D02*
X125520Y73614D01*
X87493Y124343D02*
Y134483D01*
X90932Y137922D01*
X87884Y123811D02*
X90111D01*
X87493Y124343D02*
X87884Y123952D01*
X93504Y117630D02*
Y120418D01*
X90111Y123811D02*
X93504Y120418D01*
X113030Y37270D02*
Y50631D01*
X34894Y145391D02*
X34910Y145407D01*
X31187Y149382D02*
X31329Y149240D01*
X34910Y147614D02*
X36394Y149098D01*
X31329Y149240D02*
X36252D01*
X34910Y145407D02*
Y147614D01*
X36252Y149240D02*
X36394Y149098D01*
X34894Y140343D02*
Y145391D01*
X127377Y146976D02*
X127394Y146959D01*
X122936Y146994D02*
X122953Y146976D01*
X127377D01*
X45140Y115062D02*
X54161Y106041D01*
X58297D02*
X58674Y105664D01*
X54161Y106041D02*
X58297D01*
X132494Y77630D02*
X141869Y87005D01*
X125504Y77630D02*
X132494D01*
X141869Y87005D02*
Y92133D01*
X141904Y92167D02*
X146015D01*
X146050Y92202D01*
X141869Y92133D02*
X141904Y92167D01*
X80264Y137923D02*
Y140899D01*
X101506Y138017D02*
Y140899D01*
X81504Y117630D02*
Y136683D01*
X80264Y137923D02*
X81504Y136683D01*
X143925Y535774D02*
X146724D01*
X143836Y535686D02*
X143925Y535774D01*
X146724D02*
X146812Y535863D01*
X144344Y389128D02*
X147320D01*
X125488Y97646D02*
X125504Y97630D01*
X131666D01*
X111968Y248148D02*
X120484Y239632D01*
X124610D02*
X124626Y239616D01*
X120484Y239632D02*
X124610D01*
X69053Y137379D02*
X69596Y137923D01*
X73504Y134015D01*
X34894Y140343D02*
X38895D01*
X42893Y116578D02*
Y125341D01*
X145868Y104140D02*
X148844D01*
X103980Y402618D02*
Y406418D01*
X106699Y409137D01*
Y416288D01*
X131666Y97630D02*
X138176Y104140D01*
X145868D01*
X49766Y207616D02*
X64626D01*
X100626Y199616D02*
X100642Y199600D01*
X88626Y199616D02*
X88642Y199600D01*
X68718Y279909D02*
X72626Y276001D01*
X68072Y422911D02*
X71980Y419003D01*
X43616Y357378D02*
X48856Y362618D01*
X63980D01*
X49120Y350618D02*
X63980D01*
X43688Y345186D02*
X49120Y350618D01*
X131477Y382618D02*
X137987Y389128D01*
X144344D01*
X67564Y569469D02*
X71472Y565561D01*
X130396Y529176D02*
X136906Y535686D01*
D17*
X208474Y653951D02*
X210613Y651812D01*
Y647969D02*
Y651812D01*
X203876Y653951D02*
X208474D01*
X199644Y658182D02*
X203876Y653951D01*
X210613Y647969D02*
X210977Y647604D01*
X146774Y214454D02*
Y216404D01*
X143936Y211616D02*
X146774Y214454D01*
Y216404D02*
X153890Y223520D01*
X124626Y207616D02*
X148457D01*
X153890Y202184D01*
X124626Y211616D02*
X143936D01*
X187978Y600946D02*
Y607601D01*
X192786Y596138D02*
X229645D01*
X187978Y600946D02*
X192786Y596138D01*
X228600Y598424D02*
X232410Y602234D01*
X229645Y596138D02*
X233201Y599694D01*
X238066D01*
X209296Y598424D02*
X228600D01*
X207344Y600376D02*
X209296Y598424D01*
X206980Y603601D02*
X207344Y603236D01*
Y600376D02*
Y603236D01*
X221978Y643603D02*
Y657370D01*
X221234Y658114D02*
X221978Y657370D01*
X210312Y658114D02*
X214986Y653440D01*
Y643761D02*
Y653440D01*
Y643761D02*
X218779Y639967D01*
X221613D01*
X221978Y639603D01*
D18*
X217504Y560726D02*
D03*
X656904D02*
D03*
Y55896D02*
D03*
X217504D02*
D03*
X656904Y224125D02*
D03*
X217504D02*
D03*
X656904Y392425D02*
D03*
X217504D02*
D03*
D19*
X279604Y575726D02*
D03*
X292304D02*
D03*
X305004D02*
D03*
X317703D02*
D03*
X330404D02*
D03*
X343103D02*
D03*
X355803D02*
D03*
X419304D02*
D03*
X432004D02*
D03*
X444703D02*
D03*
X457403D02*
D03*
X470103D02*
D03*
X482803D02*
D03*
X495504D02*
D03*
X508204D02*
D03*
X520904D02*
D03*
X533604D02*
D03*
X546303D02*
D03*
X559003D02*
D03*
X571703D02*
D03*
X584403D02*
D03*
X597104D02*
D03*
Y70416D02*
D03*
X584403D02*
D03*
X571703D02*
D03*
X559003D02*
D03*
X546303D02*
D03*
X533604D02*
D03*
X520904D02*
D03*
X508204D02*
D03*
X495504Y70655D02*
D03*
X482803D02*
D03*
X470103D02*
D03*
X457403D02*
D03*
X444703D02*
D03*
X432004D02*
D03*
X419304Y70896D02*
D03*
X355803D02*
D03*
X343103D02*
D03*
X330404D02*
D03*
X317703D02*
D03*
X305004D02*
D03*
X292304D02*
D03*
X279604Y71136D02*
D03*
X559003Y238645D02*
D03*
X533604D02*
D03*
X482803Y238885D02*
D03*
X470103D02*
D03*
X355803Y239125D02*
D03*
X279604Y239366D02*
D03*
X559003Y406945D02*
D03*
X533604D02*
D03*
X482803Y407186D02*
D03*
X470103D02*
D03*
X355803Y407425D02*
D03*
X279604Y407665D02*
D03*
X317703Y239125D02*
D03*
Y407425D02*
D03*
X597104Y238645D02*
D03*
X584403D02*
D03*
X571703D02*
D03*
X546303D02*
D03*
X520904D02*
D03*
X508204D02*
D03*
X495504Y238885D02*
D03*
X457403D02*
D03*
X444703D02*
D03*
X432004D02*
D03*
X419304Y239125D02*
D03*
X343103D02*
D03*
X330404D02*
D03*
X305004D02*
D03*
X292304D02*
D03*
X597104Y406945D02*
D03*
X584403D02*
D03*
X571703D02*
D03*
X546303D02*
D03*
X520904D02*
D03*
X508204D02*
D03*
X495504Y407186D02*
D03*
X457403D02*
D03*
X444703D02*
D03*
X432004D02*
D03*
X419304Y407425D02*
D03*
X343103D02*
D03*
X330404D02*
D03*
X305004D02*
D03*
X292304D02*
D03*
D20*
X63980Y350618D02*
D03*
Y354618D02*
D03*
Y362618D02*
D03*
Y358618D02*
D03*
Y378618D02*
D03*
Y382618D02*
D03*
Y370618D02*
D03*
Y374618D02*
D03*
Y390618D02*
D03*
Y394618D02*
D03*
Y386618D02*
D03*
Y366618D02*
D03*
X123980Y350618D02*
D03*
Y354618D02*
D03*
Y362618D02*
D03*
Y366618D02*
D03*
Y358618D02*
D03*
Y378618D02*
D03*
Y382618D02*
D03*
Y370618D02*
D03*
Y374618D02*
D03*
Y390618D02*
D03*
Y394618D02*
D03*
Y386618D02*
D03*
X63472Y501176D02*
D03*
Y505176D02*
D03*
X64626Y211616D02*
D03*
Y215616D02*
D03*
X65504Y69630D02*
D03*
Y73630D02*
D03*
X63472Y533176D02*
D03*
Y541176D02*
D03*
X64626Y243616D02*
D03*
Y251616D02*
D03*
X65504Y101630D02*
D03*
Y109630D02*
D03*
Y81630D02*
D03*
X64626Y223616D02*
D03*
X65504Y85630D02*
D03*
X64626Y227616D02*
D03*
X63472Y513176D02*
D03*
Y517176D02*
D03*
Y537176D02*
D03*
Y529176D02*
D03*
Y525176D02*
D03*
Y521176D02*
D03*
Y509176D02*
D03*
Y497176D02*
D03*
X123472D02*
D03*
Y501176D02*
D03*
Y505176D02*
D03*
Y509176D02*
D03*
Y513176D02*
D03*
Y517176D02*
D03*
Y521176D02*
D03*
Y525176D02*
D03*
Y529176D02*
D03*
Y533176D02*
D03*
Y537176D02*
D03*
Y541176D02*
D03*
X65504Y105630D02*
D03*
Y97630D02*
D03*
Y93630D02*
D03*
Y89630D02*
D03*
Y77630D02*
D03*
Y65630D02*
D03*
X125504D02*
D03*
Y69630D02*
D03*
Y73630D02*
D03*
Y77630D02*
D03*
Y81630D02*
D03*
Y85630D02*
D03*
Y89630D02*
D03*
Y93630D02*
D03*
Y97630D02*
D03*
Y101630D02*
D03*
Y105630D02*
D03*
Y109630D02*
D03*
X64626Y247616D02*
D03*
Y239616D02*
D03*
Y235616D02*
D03*
Y231616D02*
D03*
Y219616D02*
D03*
Y207616D02*
D03*
X124626D02*
D03*
Y211616D02*
D03*
Y215616D02*
D03*
Y219616D02*
D03*
Y223616D02*
D03*
Y227616D02*
D03*
Y231616D02*
D03*
Y235616D02*
D03*
Y239616D02*
D03*
Y243616D02*
D03*
Y247616D02*
D03*
Y251616D02*
D03*
D21*
X87980Y342618D02*
D03*
X83980D02*
D03*
X71980D02*
D03*
X79980D02*
D03*
X75980D02*
D03*
X87980Y402618D02*
D03*
X71980D02*
D03*
X83980D02*
D03*
X75980D02*
D03*
X79980D02*
D03*
X107980Y342618D02*
D03*
X103980D02*
D03*
X115980D02*
D03*
X111980D02*
D03*
X91980D02*
D03*
X99980D02*
D03*
X95980D02*
D03*
X111980Y402618D02*
D03*
X115980D02*
D03*
X95980D02*
D03*
X91980D02*
D03*
X107980D02*
D03*
X99980D02*
D03*
X103980D02*
D03*
X115472Y549176D02*
D03*
X111472D02*
D03*
X107472D02*
D03*
X103472D02*
D03*
X99472D02*
D03*
X95472D02*
D03*
X91472D02*
D03*
X87472D02*
D03*
X83472D02*
D03*
X79472D02*
D03*
X75472D02*
D03*
X71472D02*
D03*
Y489176D02*
D03*
X75472D02*
D03*
X79472D02*
D03*
X83472D02*
D03*
X87472D02*
D03*
X91472D02*
D03*
X95472D02*
D03*
X99472D02*
D03*
X103472D02*
D03*
X107472D02*
D03*
X111472D02*
D03*
X115472D02*
D03*
X117504Y117630D02*
D03*
X113504D02*
D03*
X109504D02*
D03*
X105504D02*
D03*
X101504D02*
D03*
X97504D02*
D03*
X93504D02*
D03*
X89504D02*
D03*
X85504D02*
D03*
X81504D02*
D03*
X77504D02*
D03*
X73504D02*
D03*
Y57630D02*
D03*
X77504D02*
D03*
X81504D02*
D03*
X85504D02*
D03*
X89504D02*
D03*
X93504D02*
D03*
X97504D02*
D03*
X101504D02*
D03*
X105504D02*
D03*
X109504D02*
D03*
X113504D02*
D03*
X117504D02*
D03*
X116626Y259616D02*
D03*
X112626D02*
D03*
X108626D02*
D03*
X104626D02*
D03*
X100626D02*
D03*
X96626D02*
D03*
X92626D02*
D03*
X88626D02*
D03*
X84626D02*
D03*
X80626D02*
D03*
X76626D02*
D03*
X72626D02*
D03*
Y199616D02*
D03*
X76626D02*
D03*
X80626D02*
D03*
X84626D02*
D03*
X88626D02*
D03*
X92626D02*
D03*
X96626D02*
D03*
X100626D02*
D03*
X104626D02*
D03*
X108626D02*
D03*
X112626D02*
D03*
X116626D02*
D03*
D22*
X93980Y372618D02*
D03*
X93472Y519176D02*
D03*
X95504Y87630D02*
D03*
X94626Y229616D02*
D03*
D23*
X87376Y469066D02*
D03*
Y460066D02*
D03*
X79386Y288909D02*
D03*
Y279909D02*
D03*
X113030Y37270D02*
D03*
Y28770D02*
D03*
X188976Y666932D02*
D03*
Y657932D02*
D03*
X210312Y666614D02*
D03*
X199644Y666682D02*
D03*
X221234Y666614D02*
D03*
X68072Y422911D02*
D03*
X67564Y569469D02*
D03*
X69596Y137923D02*
D03*
X68718Y279909D02*
D03*
X78232Y578469D02*
D03*
X99568Y460066D02*
D03*
Y578469D02*
D03*
X67564D02*
D03*
X71120Y447112D02*
D03*
X23622Y468702D02*
D03*
X88900Y578469D02*
D03*
X110236Y578186D02*
D03*
X112268Y146640D02*
D03*
X111390Y288626D02*
D03*
X110744Y431628D02*
D03*
X72898Y18614D02*
D03*
X25654Y40530D02*
D03*
X70358Y161108D02*
D03*
X23114Y182952D02*
D03*
X90932Y146922D02*
D03*
X69596Y146923D02*
D03*
X90054Y288908D02*
D03*
X68718Y288909D02*
D03*
X101600Y28520D02*
D03*
X89916D02*
D03*
X80264Y146923D02*
D03*
X101600D02*
D03*
X88922Y170506D02*
D03*
X100722Y288909D02*
D03*
Y170506D02*
D03*
X70104Y303022D02*
D03*
X22860Y325192D02*
D03*
X89408Y431910D02*
D03*
X68072Y431911D02*
D03*
X87884Y313762D02*
D03*
X100076Y431911D02*
D03*
Y313508D02*
D03*
X78740Y431911D02*
D03*
X199644Y658182D02*
D03*
X210312Y658114D02*
D03*
X221234D02*
D03*
X101600Y37520D02*
D03*
X88922Y179506D02*
D03*
X70358Y170108D02*
D03*
X23114Y191952D02*
D03*
X87884Y322762D02*
D03*
X100722Y179506D02*
D03*
X112036Y171010D02*
D03*
Y179510D02*
D03*
X99568Y569469D02*
D03*
X110236Y569686D02*
D03*
X110998Y460316D02*
D03*
Y468816D02*
D03*
X99568Y469066D02*
D03*
X120904Y569468D02*
D03*
Y578468D02*
D03*
X78232Y569469D02*
D03*
X88900D02*
D03*
X71120Y456112D02*
D03*
X23622Y477702D02*
D03*
X70104Y312022D02*
D03*
X22860Y334192D02*
D03*
X121412Y422982D02*
D03*
Y431982D02*
D03*
X78740Y422911D02*
D03*
X100076D02*
D03*
X89408Y422910D02*
D03*
X110744Y423128D02*
D03*
X111506Y314012D02*
D03*
Y322512D02*
D03*
X100076Y322508D02*
D03*
X122058Y279980D02*
D03*
Y288980D02*
D03*
X111390Y280126D02*
D03*
X90054Y279908D02*
D03*
X100722Y279909D02*
D03*
X112268Y138140D02*
D03*
X72898Y27614D02*
D03*
X25654Y49530D02*
D03*
X90932Y137922D02*
D03*
X89916Y37520D02*
D03*
X80264Y137923D02*
D03*
X101600D02*
D03*
X122936Y146994D02*
D03*
Y137994D02*
D03*
D24*
X144743Y366522D02*
D03*
X153244D02*
D03*
X145389Y223520D02*
D03*
X153890D02*
D03*
X146267Y81534D02*
D03*
X154768D02*
D03*
X45140Y93726D02*
D03*
X36140D02*
D03*
X43616Y368046D02*
D03*
Y378714D02*
D03*
X34108Y514604D02*
D03*
Y525272D02*
D03*
X34616Y368046D02*
D03*
Y378714D02*
D03*
X35262Y225044D02*
D03*
Y235712D02*
D03*
X36140Y83058D02*
D03*
X238070Y624332D02*
D03*
Y635000D02*
D03*
X247070D02*
D03*
Y624332D02*
D03*
X45140Y83058D02*
D03*
X44262Y225044D02*
D03*
Y235712D02*
D03*
X43108Y514604D02*
D03*
Y525272D02*
D03*
X235784Y5334D02*
D03*
X244784D02*
D03*
X235784Y16002D02*
D03*
X244784D02*
D03*
X235784Y184404D02*
D03*
X244784D02*
D03*
X238066Y599694D02*
D03*
X246566D02*
D03*
X145868Y104140D02*
D03*
X144344Y389128D02*
D03*
X144990Y246126D02*
D03*
X143836Y535686D02*
D03*
X34108Y503936D02*
D03*
X153018Y523748D02*
D03*
X34108Y535940D02*
D03*
X168474Y572516D02*
D03*
X153018Y502412D02*
D03*
X34362Y491744D02*
D03*
X34108Y546608D02*
D03*
X152836Y535686D02*
D03*
Y546354D02*
D03*
X36140Y115062D02*
D03*
X154868Y114808D02*
D03*
Y104140D02*
D03*
X35262Y257048D02*
D03*
X44516Y291084D02*
D03*
X153990Y246126D02*
D03*
X36212Y60198D02*
D03*
X36140Y104394D02*
D03*
Y72390D02*
D03*
X155050Y92202D02*
D03*
X35334Y202184D02*
D03*
X154172Y234188D02*
D03*
X35262Y246380D02*
D03*
Y214376D02*
D03*
X170506Y140970D02*
D03*
X169628Y282956D02*
D03*
X155050Y70866D02*
D03*
X154172Y212852D02*
D03*
X153344Y399796D02*
D03*
X34616Y400050D02*
D03*
X153344Y389128D02*
D03*
Y377698D02*
D03*
X34616Y357378D02*
D03*
Y389382D02*
D03*
X34688Y345186D02*
D03*
X168982Y425958D02*
D03*
X153526Y355854D02*
D03*
X246566Y610616D02*
D03*
X43362Y580644D02*
D03*
X43870Y434086D02*
D03*
X153990Y256794D02*
D03*
X45394Y149098D02*
D03*
X238066Y610616D02*
D03*
X34362Y580644D02*
D03*
X36394Y149098D02*
D03*
X35516Y291084D02*
D03*
X34870Y434086D02*
D03*
X767139Y596342D02*
D03*
Y581106D02*
D03*
Y428118D02*
D03*
Y412907D02*
D03*
Y259843D02*
D03*
Y244632D02*
D03*
Y91695D02*
D03*
Y76611D02*
D03*
X263834Y35814D02*
D03*
X254834D02*
D03*
X177474Y572516D02*
D03*
X143836Y546354D02*
D03*
X152736Y491744D02*
D03*
X144235D02*
D03*
X144018Y502412D02*
D03*
Y523748D02*
D03*
X152736Y513080D02*
D03*
X144235D02*
D03*
X43362Y491744D02*
D03*
X43108Y535940D02*
D03*
Y546608D02*
D03*
Y503936D02*
D03*
X144344Y399796D02*
D03*
X153244Y345186D02*
D03*
X144743D02*
D03*
X144526Y355854D02*
D03*
X177982Y425958D02*
D03*
X144344Y377698D02*
D03*
X43616Y357378D02*
D03*
X43688Y345186D02*
D03*
X43616Y389382D02*
D03*
Y400050D02*
D03*
X153890Y202184D02*
D03*
X145389D02*
D03*
X145172Y234188D02*
D03*
X178628Y282956D02*
D03*
X145172Y212852D02*
D03*
X144990Y256794D02*
D03*
X44262Y257048D02*
D03*
Y246380D02*
D03*
X44334Y202184D02*
D03*
X44262Y214376D02*
D03*
X758639Y76611D02*
D03*
Y91695D02*
D03*
Y244632D02*
D03*
Y259843D02*
D03*
Y412907D02*
D03*
Y428118D02*
D03*
Y581106D02*
D03*
Y596342D02*
D03*
X146267Y60198D02*
D03*
X154768D02*
D03*
X45140Y115062D02*
D03*
X145868Y114808D02*
D03*
X45212Y60198D02*
D03*
X45140Y104394D02*
D03*
Y72390D02*
D03*
X146050Y92202D02*
D03*
X179506Y140970D02*
D03*
X146050Y70866D02*
D03*
X236872Y511302D02*
D03*
X245872D02*
D03*
X235530Y341884D02*
D03*
X244530D02*
D03*
X236872Y521970D02*
D03*
X245872D02*
D03*
X235530Y352552D02*
D03*
X244530D02*
D03*
X255778Y531114D02*
D03*
X264778D02*
D03*
X254508Y361696D02*
D03*
X263508D02*
D03*
X255778Y541782D02*
D03*
X264778D02*
D03*
X254508Y372364D02*
D03*
X263508D02*
D03*
X235784Y173736D02*
D03*
X244784D02*
D03*
X254834Y193294D02*
D03*
X263834D02*
D03*
X254762Y25146D02*
D03*
X263762D02*
D03*
X254834Y203962D02*
D03*
X263834D02*
D03*
D25*
X170942Y366238D02*
D03*
Y394238D02*
D03*
X170434Y540796D02*
D03*
Y512796D02*
D03*
X171588Y251236D02*
D03*
Y223236D02*
D03*
X172466Y81250D02*
D03*
Y109250D02*
D03*
D26*
X162782Y600696D02*
D03*
Y605696D02*
D03*
Y615696D02*
D03*
Y620696D02*
D03*
Y630428D02*
D03*
Y635428D02*
D03*
Y645428D02*
D03*
Y650428D02*
D03*
X154432D02*
D03*
Y645428D02*
D03*
Y630428D02*
D03*
Y635428D02*
D03*
Y620696D02*
D03*
Y615696D02*
D03*
Y600696D02*
D03*
Y605696D02*
D03*
D27*
X41284Y43774D02*
D03*
Y22774D02*
D03*
X58284D02*
D03*
Y43774D02*
D03*
X38998Y186268D02*
D03*
Y165268D02*
D03*
X55998D02*
D03*
Y186268D02*
D03*
X38744Y328508D02*
D03*
Y307508D02*
D03*
X55744D02*
D03*
Y328508D02*
D03*
X39506Y472272D02*
D03*
Y451272D02*
D03*
X56506D02*
D03*
Y472272D02*
D03*
D28*
X161152Y559308D02*
D03*
X163184Y127762D02*
D03*
X162306Y269748D02*
D03*
X161660Y412750D02*
D03*
X175652Y559308D02*
D03*
X176160Y412750D02*
D03*
X176806Y269748D02*
D03*
X177684Y127762D02*
D03*
D29*
X741680Y81618D02*
D03*
Y62110D02*
D03*
Y249648D02*
D03*
Y230140D02*
D03*
Y417878D02*
D03*
Y398370D02*
D03*
Y586108D02*
D03*
Y566600D02*
D03*
D30*
X741679Y124619D02*
D03*
Y292849D02*
D03*
Y461079D02*
D03*
Y629311D02*
D03*
D31*
Y143619D02*
D03*
Y311849D02*
D03*
Y480079D02*
D03*
Y648311D02*
D03*
D57*
X40894Y132842D02*
D03*
X40016Y274828D02*
D03*
X38862Y564388D02*
D03*
X39370Y417830D02*
D03*
D58*
X34894Y125341D02*
D03*
X38895D02*
D03*
X42893D02*
D03*
X46894D02*
D03*
Y140343D02*
D03*
X42893D02*
D03*
X38895D02*
D03*
X34894D02*
D03*
X34016Y267327D02*
D03*
X38017D02*
D03*
X42015D02*
D03*
X46016D02*
D03*
Y282329D02*
D03*
X42015D02*
D03*
X38017D02*
D03*
X34016D02*
D03*
X32863Y556887D02*
D03*
X36863D02*
D03*
X40861D02*
D03*
X44861D02*
D03*
Y571889D02*
D03*
X40861D02*
D03*
X36863D02*
D03*
X32863D02*
D03*
X33370Y410329D02*
D03*
X37371D02*
D03*
X41369D02*
D03*
X45370D02*
D03*
Y425331D02*
D03*
X41369D02*
D03*
X37371D02*
D03*
X33370D02*
D03*
D59*
X187978Y643600D02*
D03*
Y639600D02*
D03*
Y635602D02*
D03*
Y631601D02*
D03*
Y627601D02*
D03*
Y623601D02*
D03*
Y619600D02*
D03*
Y615602D02*
D03*
Y611601D02*
D03*
Y607601D02*
D03*
X221978Y607604D02*
D03*
Y611604D02*
D03*
Y615602D02*
D03*
Y619603D02*
D03*
Y623603D02*
D03*
Y627603D02*
D03*
Y631604D02*
D03*
Y635602D02*
D03*
Y639603D02*
D03*
Y643603D02*
D03*
D60*
X198979Y603601D02*
D03*
X202979D02*
D03*
X206980D02*
D03*
X210980D02*
D03*
X210977Y647604D02*
D03*
X206977D02*
D03*
X202976D02*
D03*
X198976D02*
D03*
D61*
X204978Y625602D02*
D03*
D62*
X162782Y610696D02*
D03*
X154432D02*
D03*
X162782Y640428D02*
D03*
X154432D02*
D03*
D63*
X27055Y233013D02*
X28528Y231540D01*
X32650D01*
X33416Y232306D01*
X26416Y233013D02*
X27055D01*
X33416Y233866D02*
X35262Y235712D01*
X33416Y232306D02*
Y233866D01*
X26416Y227743D02*
X27055D01*
X33416Y226890D02*
X35262Y225044D01*
X27055Y227743D02*
X28528Y229216D01*
X33416Y226890D02*
Y228450D01*
X32650Y229216D02*
X33416Y228450D01*
X28528Y229216D02*
X32650D01*
X69777Y248778D02*
X71040D01*
X72513Y250251D01*
X66939Y251616D02*
X69777Y248778D01*
X72513Y250251D02*
X73152D01*
X64626Y251616D02*
X66939D01*
X64626Y243616D02*
X66939D01*
X69777Y246454D01*
X72513Y244981D02*
X73152D01*
X69777Y246454D02*
X71040D01*
X72513Y244981D01*
X136545Y631766D02*
X151495D01*
X130967Y637344D02*
X136545Y631766D01*
X122588Y637344D02*
X130967D01*
X118189Y641743D02*
X122588Y637344D01*
X131144Y604358D02*
X151495D01*
X152261Y630774D02*
X152607Y630428D01*
X152261Y630774D02*
Y631000D01*
X151495Y631766D02*
X152261Y631000D01*
X152607Y630428D02*
X154432D01*
X291338Y602418D02*
X384925D01*
X286766D02*
X291338D01*
X284226Y604958D02*
X286766Y602418D01*
X280416Y604958D02*
X284226D01*
X277876Y602418D02*
X280416Y604958D01*
X274066Y602418D02*
X277876D01*
X270705D02*
X274066D01*
X253816Y616020D02*
X268675Y601161D01*
X253396Y616440D02*
X253816Y616020D01*
X268675Y601161D02*
X269742Y600094D01*
X300228Y611924D02*
X322072D01*
X334772D02*
X339090D01*
X332232Y614464D02*
X334772Y611924D01*
X328422Y614464D02*
X332232D01*
X325882Y611924D02*
X328422Y614464D01*
X322072Y611924D02*
X325882D01*
X339090D02*
X377458D01*
X273939D02*
X300228D01*
X378987Y615536D02*
X379439Y615988D01*
X378987Y613452D02*
Y615536D01*
X377458Y611924D02*
X378987Y613452D01*
X249682Y630828D02*
X255035D01*
X273939Y611924D01*
X248916Y631594D02*
Y633154D01*
X247070Y635000D02*
X248916Y633154D01*
Y631594D02*
X249682Y630828D01*
X382713Y611809D02*
X383165Y612261D01*
X380630Y611809D02*
X382713D01*
X248916Y627738D02*
X249682Y628504D01*
X254072D01*
X248916Y626178D02*
Y627738D01*
X247070Y624332D02*
X248916Y626178D01*
X378421Y609600D02*
X380630Y611809D01*
X254072Y628504D02*
X272976Y609600D01*
X378421D01*
X225316Y618764D02*
X254358D01*
X224478Y619603D02*
X225316Y618764D01*
X221978Y619603D02*
X224478D01*
X221978Y615602D02*
X224478D01*
X225316Y616440D02*
X253396D01*
X685597Y37901D02*
X689902Y42206D01*
Y60251D02*
X698993Y69342D01*
X466035Y37901D02*
X685597D01*
X689902Y42206D02*
Y60251D01*
X698993Y69342D02*
X740649D01*
X741294Y69987D02*
X747151D01*
X740649Y69342D02*
X741294Y69987D01*
X747151D02*
X751332Y74168D01*
X698030Y71666D02*
X739686D01*
X687578Y61214D02*
X698030Y71666D01*
X687578Y43180D02*
Y61214D01*
X684623Y40225D02*
X687578Y43180D01*
X554135Y40225D02*
X684623D01*
X71497Y353983D02*
X72136D01*
X67505Y355456D02*
X70024D01*
X71497Y353983D01*
X66667Y354618D02*
X67505Y355456D01*
X63980Y354618D02*
X66667D01*
X71497Y359253D02*
X72136D01*
X63980Y358618D02*
X66667D01*
X70024Y357780D02*
X71497Y359253D01*
X67505Y357780D02*
X70024D01*
X66667Y358618D02*
X67505Y357780D01*
X72513Y216251D02*
X73152D01*
X71040Y214778D02*
X72513Y216251D01*
X67313Y215616D02*
X68151Y214778D01*
X64626Y215616D02*
X67313D01*
X68151Y214778D02*
X71040D01*
Y212454D02*
X72513Y210981D01*
X73152D01*
X68151Y212454D02*
X71040D01*
X67313Y211616D02*
X68151Y212454D01*
X64626Y211616D02*
X67313D01*
X69516Y502014D02*
X70989Y500541D01*
X66997Y502014D02*
X69516D01*
X66159Y501176D02*
X66997Y502014D01*
X63472Y501176D02*
X66159D01*
X70989Y500541D02*
X71628D01*
X70989Y505811D02*
X71628D01*
X63472Y505176D02*
X66159D01*
X66997Y504338D01*
X69516D02*
X70989Y505811D01*
X66997Y504338D02*
X69516D01*
X32770Y375308D02*
Y376868D01*
X34616Y378714D01*
X26416Y376015D02*
X27055D01*
X28528Y374542D01*
X32004D02*
X32770Y375308D01*
X28528Y374542D02*
X32004D01*
Y372218D02*
X32770Y371452D01*
X28528Y372218D02*
X32004D01*
X32770Y369892D02*
Y371452D01*
X27055Y370745D02*
X28528Y372218D01*
X32770Y369892D02*
X34616Y368046D01*
X26416Y370745D02*
X27055D01*
X71751Y393253D02*
X72390D01*
X63980Y394618D02*
X66293D01*
X70278Y391780D02*
X71751Y393253D01*
X66293Y394618D02*
X69131Y391780D01*
X70278D01*
Y389456D02*
X71751Y387983D01*
X69131Y389456D02*
X70278D01*
X71751Y387983D02*
X72390D01*
X66293Y386618D02*
X69131Y389456D01*
X63980Y386618D02*
X66293D01*
X32262Y516450D02*
Y518010D01*
X31496Y518776D02*
X32262Y518010D01*
X28528Y518776D02*
X31496D01*
X26416Y517303D02*
X27055D01*
X32262Y516450D02*
X34108Y514604D01*
X27055Y517303D02*
X28528Y518776D01*
X32262Y523426D02*
X34108Y525272D01*
X32262Y521866D02*
Y523426D01*
X26416Y522573D02*
X27055D01*
X31496Y521100D02*
X32262Y521866D01*
X28528Y521100D02*
X31496D01*
X27055Y522573D02*
X28528Y521100D01*
X68623Y536014D02*
X69770D01*
X71243Y534541D02*
X71882D01*
X69770Y536014D02*
X71243Y534541D01*
X65785Y533176D02*
X68623Y536014D01*
X63472Y533176D02*
X65785D01*
X63472Y541176D02*
X65785D01*
X71243Y539811D02*
X71882D01*
X69770Y538338D02*
X71243Y539811D01*
X65785Y541176D02*
X68623Y538338D01*
X69770D01*
X73275Y108265D02*
X73914D01*
X67817Y109630D02*
X70655Y106792D01*
X65504Y109630D02*
X67817D01*
X71802Y106792D02*
X73275Y108265D01*
X70655Y106792D02*
X71802D01*
X73275Y102995D02*
X73914D01*
X70655Y104468D02*
X71802D01*
X73275Y102995D01*
X67817Y101630D02*
X70655Y104468D01*
X65504Y101630D02*
X67817D01*
X34294Y90320D02*
Y91880D01*
X36140Y93726D01*
X26341Y91027D02*
X26620D01*
X27260D01*
X33528Y89554D02*
X34294Y90320D01*
X27260Y91027D02*
X28733Y89554D01*
X33528D01*
Y87230D02*
X34294Y86464D01*
X28733Y87230D02*
X33528D01*
X26620Y85757D02*
Y87103D01*
X34294Y84904D02*
Y86464D01*
X27260Y85757D02*
X28733Y87230D01*
X34294Y84904D02*
X36140Y83058D01*
X26620Y85757D02*
X27260D01*
X73021Y74265D02*
X73660D01*
X71548Y72792D02*
X73021Y74265D01*
X65504Y73630D02*
X68191D01*
X69029Y72792D02*
X71548D01*
X68191Y73630D02*
X69029Y72792D01*
X73021Y68995D02*
X73660D01*
X69029Y70468D02*
X71548D01*
X68191Y69630D02*
X69029Y70468D01*
X71548D02*
X73021Y68995D01*
X65504Y69630D02*
X68191D01*
X43438Y636266D02*
Y655578D01*
X52870Y665010D02*
X167079D01*
X43438Y655578D02*
X52870Y665010D01*
X63500Y629158D02*
X69463Y623195D01*
X50546Y629158D02*
X63500D01*
X69463Y615786D02*
Y623195D01*
X43438Y636266D02*
X50546Y629158D01*
X84461Y641006D02*
X84543Y641087D01*
X87367D01*
X91186Y644906D02*
Y659130D01*
X87367Y641087D02*
X91186Y644906D01*
Y659130D02*
X94742Y662686D01*
X166116D01*
X79598Y608172D02*
Y626268D01*
X74327Y631539D02*
Y655066D01*
Y631539D02*
X79598Y626268D01*
X78125Y605964D02*
X79108Y606946D01*
X79598Y607437D01*
X758639Y91695D02*
Y129091D01*
X741679Y143619D02*
X745470Y139828D01*
X747902D01*
X758639Y129091D01*
X744061Y124619D02*
X751332Y117348D01*
Y74168D02*
Y117348D01*
X741679Y124619D02*
X744061D01*
X741680Y73660D02*
Y81618D01*
X739686Y71666D02*
X741680Y73660D01*
X546303Y48057D02*
Y70416D01*
Y48057D02*
X554135Y40225D01*
X457403Y46533D02*
X466035Y37901D01*
X457403Y46533D02*
Y70655D01*
X745470Y308058D02*
X747566D01*
X758639Y259843D02*
Y296985D01*
X741679Y311849D02*
X745470Y308058D01*
X747566D02*
X758639Y296985D01*
X752856Y242062D02*
Y284734D01*
X744741Y292849D02*
X752856Y284734D01*
X748030Y237236D02*
X752856Y242062D01*
X741679Y292849D02*
X744741D01*
X740194Y239560D02*
X741680Y241046D01*
X734367Y239560D02*
X740194D01*
X741680Y241046D02*
Y249648D01*
X729958Y214577D02*
Y235151D01*
X734367Y239560D01*
X735330Y237236D02*
X748030D01*
X732282Y234188D02*
X735330Y237236D01*
X553036Y208456D02*
X723837D01*
X729958Y214577D01*
X724799Y206131D02*
X732282Y213614D01*
X467223Y206131D02*
X724799D01*
X732282Y213614D02*
Y234188D01*
X546303Y215189D02*
X553036Y208456D01*
X546303Y215189D02*
Y238645D01*
X457403Y215951D02*
Y238885D01*
Y215951D02*
X467223Y206131D01*
X745470Y476288D02*
X747738D01*
X758639Y428118D02*
Y465387D01*
X747738Y476288D02*
X758639Y465387D01*
X741679Y480079D02*
X745470Y476288D01*
X741679Y461079D02*
X743897D01*
X752348Y409448D02*
Y452628D01*
X743897Y461079D02*
X752348Y452628D01*
X748020Y405120D02*
X752348Y409448D01*
X735828Y405120D02*
X748020D01*
X740184Y407444D02*
X741680Y408940D01*
X734865Y407444D02*
X740184D01*
X729196Y401775D02*
X734865Y407444D01*
X741680Y408940D02*
Y417878D01*
X729196Y382471D02*
Y401775D01*
X723153Y376428D02*
X729196Y382471D01*
X555244Y376428D02*
X723153D01*
X731520Y381508D02*
Y400812D01*
X466636Y374104D02*
X724116D01*
X731520Y381508D01*
X546303Y385368D02*
Y406945D01*
Y385368D02*
X555244Y376428D01*
X457403Y383336D02*
X466636Y374104D01*
X457403Y549961D02*
X465112Y542252D01*
X719021D01*
X719821Y543052D01*
X719836D02*
X728218Y551434D01*
X719821Y543052D02*
X719836D01*
X554990Y544576D02*
X718058D01*
X725894Y552412D01*
X546303Y553262D02*
X554990Y544576D01*
X731520Y400812D02*
X735828Y405120D01*
X457403Y383336D02*
Y407186D01*
X546303Y553262D02*
Y575246D01*
X725894Y552412D02*
Y569669D01*
X734113Y577888D01*
X740502D01*
X741680Y579066D02*
Y586108D01*
X740502Y577888D02*
X741680Y579066D01*
X728218Y568706D02*
X735076Y575564D01*
X746760D01*
X728218Y551434D02*
Y568706D01*
X746760Y575564D02*
X752094Y580898D01*
Y618896D01*
X745536Y625454D02*
Y625520D01*
Y625454D02*
X752094Y618896D01*
X741679Y629311D02*
X741745D01*
X745536Y625520D01*
X457403Y549961D02*
Y575485D01*
X752192Y398370D02*
X758639Y404817D01*
X741680Y398370D02*
X752192D01*
X758639Y404817D02*
Y412907D01*
X741680Y230140D02*
X751602D01*
X758639Y237177D02*
Y244632D01*
X751602Y230140D02*
X758639Y237177D01*
Y67251D02*
Y76611D01*
X753498Y62110D02*
X758639Y67251D01*
X741680Y62110D02*
X753498D01*
X752619Y568723D02*
X758639Y574743D01*
Y581106D01*
X745082Y568723D02*
X752619D01*
X743971Y567612D02*
X745082Y568723D01*
X743584Y648311D02*
X747375Y644520D01*
Y644301D02*
X758639Y633037D01*
X741679Y648311D02*
X743584D01*
X758639Y596342D02*
Y633037D01*
X747375Y644301D02*
Y644520D01*
X123551Y639668D02*
X131930D01*
X137508Y634090D01*
X134008Y617034D02*
X148682D01*
X134971Y619358D02*
X149645D01*
X171612Y602034D02*
X182018Y612440D01*
X170650Y604358D02*
X181056Y614764D01*
X165719Y617034D02*
X174564D01*
X165719Y619358D02*
X173601D01*
X165719Y631766D02*
X173640D01*
X165719Y634090D02*
X174603D01*
X171551Y649090D02*
X181878Y638763D01*
X170589Y646766D02*
X180916Y636439D01*
X45462Y369892D02*
Y371452D01*
X46228Y372218D01*
X51178D01*
X55940Y367456D01*
X61293Y366618D02*
X63980D01*
X43616Y368046D02*
X45462Y369892D01*
X55940Y367456D02*
X60455D01*
X61293Y366618D01*
X45462Y375308D02*
X46228Y374542D01*
X45462Y375308D02*
Y376868D01*
X61293Y370618D02*
X63980D01*
X43616Y378714D02*
X45462Y376868D01*
X60455Y369780D02*
X61293Y370618D01*
X56902Y369780D02*
X60455D01*
X52140Y374542D02*
X56902Y369780D01*
X46228Y374542D02*
X52140D01*
X165719Y602034D02*
X171612D01*
X182018Y612440D02*
X184640D01*
X164953Y601042D02*
Y601268D01*
X162782Y600696D02*
X164607D01*
X164953Y601268D02*
X165719Y602034D01*
X164607Y600696D02*
X164953Y601042D01*
X185478Y611601D02*
X187978D01*
X184640Y612440D02*
X185478Y611601D01*
X164953Y605124D02*
X165719Y604358D01*
X164607Y605696D02*
X164953Y605350D01*
Y605124D02*
Y605350D01*
X162782Y605696D02*
X164607D01*
X185478Y615602D02*
X187978D01*
X184640Y614764D02*
X185478Y615602D01*
X181056Y614764D02*
X184640D01*
X165719Y604358D02*
X170650D01*
X177968Y620438D02*
X184640D01*
X164953Y616268D02*
X165719Y617034D01*
X162782Y615696D02*
X164607D01*
X164953Y616042D02*
Y616268D01*
X164607Y615696D02*
X164953Y616042D01*
X174564Y617034D02*
X177968Y620438D01*
X184640D02*
X185478Y619600D01*
X187978D01*
X164953Y620124D02*
Y620350D01*
X162782Y620696D02*
X164607D01*
X164953Y620124D02*
X165719Y619358D01*
X173601D02*
X177006Y622762D01*
X164607Y620696D02*
X164953Y620350D01*
X185478Y623601D02*
X187978D01*
X177006Y622762D02*
X184640D01*
X185478Y623601D01*
X184640Y628439D02*
X185478Y627601D01*
X162782Y630428D02*
X164607D01*
X185478Y627601D02*
X187978D01*
X173640Y631766D02*
X176967Y628439D01*
X184640D01*
X164607Y630428D02*
X164953Y630774D01*
Y631000D01*
X165719Y631766D01*
X164953Y634856D02*
X165719Y634090D01*
X174603D02*
X177929Y630763D01*
X164607Y635428D02*
X164953Y635082D01*
Y634856D02*
Y635082D01*
X162782Y635428D02*
X164607D01*
X185478Y631601D02*
X187978D01*
X184640Y630763D02*
X185478Y631601D01*
X177929Y630763D02*
X184640D01*
X162782Y645428D02*
X164607D01*
X164953Y646000D02*
X165719Y646766D01*
X164607Y645428D02*
X164953Y645774D01*
X165719Y646766D02*
X170589D01*
X164953Y645774D02*
Y646000D01*
X180916Y636439D02*
X184641D01*
X185478Y635602D01*
X187978D01*
X181878Y638763D02*
X184641D01*
X165719Y649090D02*
X171551D01*
X164607Y650428D02*
X164953Y650082D01*
X162782Y650428D02*
X164607D01*
X164953Y649856D02*
Y650082D01*
Y649856D02*
X165719Y649090D01*
X184641Y638763D02*
X185478Y639600D01*
X187978D01*
X74328Y607437D02*
Y608076D01*
Y607437D02*
X75801Y605964D01*
Y596044D02*
X82738Y589107D01*
X75801Y596044D02*
Y605964D01*
X82738Y589107D02*
X263053D01*
X407363Y587464D02*
X411484Y591585D01*
Y599109D01*
X396213Y598817D02*
X396665Y599269D01*
X397117Y599721D02*
X399200D01*
X396665Y599269D02*
X397117Y599721D01*
X408213Y602380D02*
X411484Y599109D01*
X401859Y602380D02*
X408213D01*
X399200Y599721D02*
X401859Y602380D01*
X381307Y587464D02*
X407363D01*
X266744Y592798D02*
X375973D01*
X263053Y589107D02*
X266744Y592798D01*
X375973D02*
X381307Y587464D01*
X78125Y597007D02*
Y605964D01*
Y597007D02*
X83701Y591431D01*
X79598Y607437D02*
Y608076D01*
X83701Y591431D02*
X262091D01*
X406400Y589788D02*
X409160Y592548D01*
Y598146D01*
X399940Y595090D02*
X400392Y595542D01*
X400844Y595994D01*
Y598078D01*
X407250Y600056D02*
X409160Y598146D01*
X400844Y598078D02*
X402822Y600056D01*
X407250D01*
X382270Y589788D02*
X406400D01*
X262091Y591431D02*
X265781Y595122D01*
X376936D02*
X382270Y589788D01*
X265781Y595122D02*
X376936D01*
X146689Y650563D02*
X148162Y649090D01*
X150411D02*
X150411Y649090D01*
X151495D01*
X148162Y649090D02*
X150411D01*
X151495Y649090D02*
X152261Y649856D01*
X146050Y650563D02*
X146689D01*
X146050D02*
Y650563D01*
X152261Y649856D02*
Y650082D01*
X152607Y650428D02*
X154432D01*
X152261Y650082D02*
X152607Y650428D01*
X146329Y645293D02*
X146689D01*
X146050D02*
X146329D01*
X146689D02*
X148162Y646766D01*
X146329Y645293D02*
X147827Y646790D01*
X149448Y646766D02*
X149448Y646766D01*
X151495D01*
X148162Y646766D02*
X149448D01*
X152261Y645774D02*
X152607Y645428D01*
X154432D01*
X151495Y646766D02*
X152261Y646000D01*
Y645774D02*
Y646000D01*
X115653Y642196D02*
X116105Y641743D01*
X118189D01*
X152261Y634856D02*
Y635082D01*
X151495Y634090D02*
X152261Y634856D01*
Y635082D02*
X152607Y635428D01*
X154432D01*
X119832Y643387D02*
Y645470D01*
X137508Y634090D02*
X151495D01*
X119380Y645922D02*
X119832Y645470D01*
Y643387D02*
X123551Y639668D01*
X149645Y619358D02*
X149645Y619358D01*
X133040Y621289D02*
X134971Y619358D01*
X149645Y619358D02*
X151495D01*
X152261Y620124D01*
Y620350D01*
X133040Y621289D02*
Y623372D01*
X132588Y623824D02*
X133040Y623372D01*
X152261Y620350D02*
X152607Y620696D01*
X154432D01*
X152261Y616042D02*
Y616268D01*
X148682Y617034D02*
X151495D01*
X152261Y616268D01*
X152607Y615696D02*
X154432D01*
X152261Y616042D02*
X152607Y615696D01*
X128862Y620098D02*
X129313Y619646D01*
X148682Y617034D02*
X148682Y617034D01*
X129313Y619646D02*
X131397D01*
X134008Y617034D01*
X129032Y600561D02*
X129671D01*
X131144Y602034D01*
X152607Y600696D02*
X154432D01*
X151495Y602034D02*
X152261Y601268D01*
X131144Y602034D02*
X151495D01*
X152261Y601042D02*
X152607Y600696D01*
X152261Y601042D02*
Y601268D01*
X129671Y605831D02*
X131144Y604358D01*
X151495D02*
X152261Y605124D01*
Y605350D01*
X152607Y605696D01*
X129032Y605831D02*
X129671D01*
X152607Y605696D02*
X154432D01*
X236224Y626178D02*
X238070Y624332D01*
X225478Y628504D02*
X235458D01*
X236224Y627738D01*
Y626178D02*
Y627738D01*
X225478Y630828D02*
X235458D01*
X236224Y631594D01*
Y633154D01*
X238070Y635000D01*
X387473Y607049D02*
X387925Y607501D01*
X387473Y604966D02*
Y607049D01*
X387925Y606951D02*
Y607501D01*
X384925Y602418D02*
X387473Y604966D01*
X254358Y618764D02*
X270705Y602418D01*
X389116Y603323D02*
X391199D01*
X224478Y615602D02*
X225316Y616440D01*
X391199Y603323D02*
X391651Y603775D01*
X269742Y600094D02*
X385887D01*
X389116Y603323D01*
X57464Y82468D02*
X61979D01*
X62817Y81630D02*
X65504D01*
X61979Y82468D02*
X62817Y81630D01*
X52702Y87230D02*
X57464Y82468D01*
X47752Y87230D02*
X52702D01*
X46986Y86464D02*
X47752Y87230D01*
X46986Y84904D02*
Y86464D01*
X45140Y83058D02*
X46986Y84904D01*
X61939Y223616D02*
X64626D01*
X56586Y224454D02*
X61101D01*
X44262Y225044D02*
X46108Y226890D01*
X61101Y224454D02*
X61939Y223616D01*
X51824Y229216D02*
X56586Y224454D01*
X46874Y229216D02*
X51824D01*
X46108Y228450D02*
X46874Y229216D01*
X46108Y226890D02*
Y228450D01*
X62817Y85630D02*
X65504D01*
X58426Y84792D02*
X61979D01*
X62817Y85630D01*
X45140Y93726D02*
X46986Y91880D01*
X47752Y89554D02*
X53664D01*
X58426Y84792D01*
X46986Y90320D02*
Y91880D01*
Y90320D02*
X47752Y89554D01*
X46874Y231540D02*
X52786D01*
X46108Y232306D02*
Y233866D01*
X61939Y227616D02*
X64626D01*
X61101Y226778D02*
X61939Y227616D01*
X57548Y226778D02*
X61101D01*
X52786Y231540D02*
X57548Y226778D01*
X46108Y232306D02*
X46874Y231540D01*
X44262Y235712D02*
X46108Y233866D01*
X55432Y514014D02*
X59947D01*
X60785Y513176D01*
X50670Y518776D02*
X55432Y514014D01*
X45720Y518776D02*
X50670D01*
X44954Y518010D02*
X45720Y518776D01*
X44954Y516450D02*
Y518010D01*
X43108Y514604D02*
X44954Y516450D01*
X56395Y516338D02*
X59947D01*
X60785Y517176D01*
X43108Y525272D02*
X44954Y523426D01*
X45720Y521100D02*
X51632D01*
X56395Y516338D01*
X44954Y521866D02*
Y523426D01*
Y521866D02*
X45720Y521100D01*
X184485Y647604D02*
X198976D01*
X167079Y665010D02*
X184485Y647604D01*
X166116Y662686D02*
X184856Y643946D01*
X187632D02*
X187978Y643600D01*
X184856Y643946D02*
X187632D01*
X237096Y609646D02*
X238066Y610616D01*
X237096Y606920D02*
Y609646D01*
X232410Y602234D02*
X237096Y606920D01*
X110454Y569468D02*
X115679D01*
X120904D01*
X115472Y569261D02*
X115679Y569468D01*
X115472Y549176D02*
Y569261D01*
X110236Y569686D02*
X110454Y569468D01*
D64*
X41861Y425823D02*
Y426978D01*
X41369Y425331D02*
X41861Y425823D01*
Y426978D02*
X43738Y428855D01*
X47001D01*
X47001Y428855D01*
X56235D01*
X32878Y411226D02*
X33370Y410734D01*
Y410329D02*
Y410734D01*
X24130Y411226D02*
X32878D01*
X42507Y283976D02*
X44384Y285853D01*
X42507Y282821D02*
Y283976D01*
X42015Y282329D02*
X42507Y282821D01*
X56235Y428855D02*
X58424Y426666D01*
X59030D01*
X45862Y423839D02*
X54042D01*
X45370Y424331D02*
X45862Y423839D01*
X45370Y424331D02*
Y425331D01*
X54042Y423839D02*
X55987Y421894D01*
X56794D01*
X112357Y409495D02*
Y410497D01*
X107980Y405118D02*
X112357Y409495D01*
Y410497D02*
X112928Y411068D01*
X51168Y572484D02*
X55490D01*
X47636Y576016D02*
X51168Y572484D01*
X45353Y570397D02*
X49317D01*
X51009Y568706D01*
X51816D01*
X44861Y570889D02*
Y571889D01*
Y570889D02*
X45353Y570397D01*
X41953Y576016D02*
X47636D01*
X101980Y396060D02*
X109548D01*
X111980Y398492D01*
X95614Y396003D02*
X95797Y396186D01*
Y402435D02*
X95980Y402618D01*
X95797Y396186D02*
Y402435D01*
X111980Y398492D02*
Y402618D01*
X107472Y549176D02*
X107660Y549364D01*
Y552560D01*
X107696Y552596D02*
Y563626D01*
X107660Y552560D02*
X107696Y552596D01*
X93530Y542352D02*
X95330Y544152D01*
X90006Y541994D02*
X90364Y542352D01*
X93530D01*
X95330Y544152D02*
Y549035D01*
X95472Y549176D01*
X24510Y405510D02*
X35196D01*
X37132Y407445D01*
X27715Y267745D02*
X33598D01*
X34016Y267327D01*
X37465Y120777D02*
X38751Y122063D01*
Y125197D01*
X29083Y120777D02*
X37465D01*
X27210Y122650D02*
Y128975D01*
Y122650D02*
X29083Y120777D01*
X27210Y128975D02*
X30130Y131896D01*
X96626Y259616D02*
X96814Y259428D01*
Y253198D02*
Y259428D01*
Y253198D02*
X97028Y252984D01*
X100441Y265256D02*
X100533Y265164D01*
Y259709D02*
Y265164D01*
Y259709D02*
X100626Y259616D01*
X102764Y253005D02*
X105939D01*
X108442Y255508D02*
Y259432D01*
X105939Y253005D02*
X108442Y255508D01*
Y259432D02*
X108626Y259616D01*
X102756Y252997D02*
X102764Y253005D01*
X115980Y318486D02*
Y342618D01*
X111506Y314012D02*
X115980Y318486D01*
X151257Y509651D02*
Y511602D01*
X152736Y513080D01*
X142782Y501176D02*
X151257Y509651D01*
X147580Y496900D02*
X147580D01*
X152736Y491744D01*
X123502Y497206D02*
X147274D01*
X147580Y496900D01*
X109484Y542624D02*
X109498D01*
X111472Y544598D01*
Y549176D01*
X22860Y548277D02*
X27946Y553363D01*
X22860Y540512D02*
Y548277D01*
X23074Y563923D02*
X25812Y561185D01*
X29565D01*
X22847Y563923D02*
X23074D01*
X29565Y561185D02*
X32863Y557887D01*
X27946Y553363D02*
X36268D01*
X36863Y553959D01*
Y556887D01*
X32863D02*
Y557887D01*
X107980Y402618D02*
Y405118D01*
X24130Y405130D02*
X24510Y405510D01*
X37132Y410090D02*
X37371Y410329D01*
X37132Y407445D02*
Y410090D01*
X99980Y407672D02*
X101655Y409347D01*
X99980Y402618D02*
Y407672D01*
X101655Y409347D02*
Y410155D01*
X115472Y483518D02*
X116332Y482658D01*
Y465650D02*
Y482658D01*
X110998Y460316D02*
X116332Y465650D01*
X151765Y363093D02*
Y365044D01*
X153244Y366522D01*
X144526Y355854D02*
X151765Y363093D01*
X127982Y355854D02*
X144526D01*
X126746Y354618D02*
X127982Y355854D01*
X123980Y354618D02*
X126746D01*
X123980Y350618D02*
X147811D01*
X153244Y345186D01*
X53086Y141260D02*
Y141520D01*
X50136Y144470D02*
X53086Y141520D01*
X43985Y144470D02*
X50136D01*
X52261Y136567D02*
X52832Y135996D01*
X49670Y136567D02*
X52261D01*
X46894Y139343D02*
X49670Y136567D01*
X46894Y139343D02*
Y140343D01*
X30130Y131896D02*
X30870D01*
X38751Y125197D02*
X38895Y125341D01*
X30988Y125476D02*
X34760D01*
X34894Y125341D01*
X29766Y263967D02*
X29929Y263804D01*
X35648D01*
X36541Y264696D02*
Y264851D01*
X35648Y263804D02*
X36541Y264696D01*
Y264851D02*
X38017Y266327D01*
Y267327D01*
X23876Y263906D02*
X27715Y267745D01*
X57912Y280924D02*
Y281272D01*
X53331Y285853D02*
X57912Y281272D01*
X44384Y285853D02*
X53331D01*
X99472Y549176D02*
Y554502D01*
X98706Y555268D02*
X99472Y554502D01*
X98706Y555268D02*
Y556075D01*
X103504Y111072D02*
X107262D01*
X109504Y113314D01*
Y117630D01*
X113504D02*
Y122744D01*
X111252Y124996D02*
X113504Y122744D01*
X111252Y124996D02*
Y125476D01*
X117504Y33244D02*
Y57630D01*
X113030Y28770D02*
X117504Y33244D01*
X144814Y69630D02*
X153289Y78105D01*
Y80056D02*
X154768Y81534D01*
X153289Y78105D02*
Y80056D01*
X149335Y65630D02*
X154768Y60198D01*
X125504Y65630D02*
X149335D01*
X121412Y414274D02*
Y422982D01*
X115983Y408845D02*
X121412Y414274D01*
X115983Y402621D02*
Y408845D01*
X115980Y402618D02*
X115983Y402621D01*
X110890Y422982D02*
X121412D01*
X116626Y259616D02*
Y264293D01*
X118872Y266539D02*
Y280126D01*
X116626Y264293D02*
X118872Y266539D01*
X112777Y265787D02*
X112928Y265938D01*
X112777Y259767D02*
Y265787D01*
X112626Y259616D02*
X112777Y259767D01*
X118872Y280126D02*
X121912D01*
X111390D02*
X118872D01*
X40894Y571922D02*
Y574957D01*
X40861Y571889D02*
X40894Y571922D01*
Y574957D02*
X41953Y576016D01*
X46016Y281416D02*
X46508Y280924D01*
X46016Y281416D02*
Y282329D01*
X46508Y280924D02*
X51954D01*
X42926Y143411D02*
X43985Y144470D01*
X42893Y140343D02*
X42926Y140376D01*
Y143411D01*
X97504Y128746D02*
X97790Y129032D01*
X97504Y117630D02*
Y128746D01*
X101552Y124158D02*
X101600Y124206D01*
X101504Y117630D02*
X101552Y117678D01*
Y124158D01*
X41284Y43274D02*
Y44038D01*
X52808Y31750D02*
X74160D01*
X41284Y43274D02*
X52808Y31750D01*
X74160D02*
X82536Y40126D01*
X72898Y27614D02*
X84568Y39284D01*
Y54043D01*
X63124Y27614D02*
X72898D01*
X84568Y54043D02*
X85504Y54979D01*
Y57630D01*
X82536Y40126D02*
Y54043D01*
X81504Y55075D02*
Y57630D01*
Y55075D02*
X82536Y54043D01*
X58284Y22774D02*
X63124Y27614D01*
X25654Y49530D02*
X35792D01*
X41284Y44038D01*
X39506Y471772D02*
X51030Y460248D01*
X72382D01*
X80448Y468313D01*
Y485589D01*
X71120Y456112D02*
X82479Y467472D01*
Y485417D01*
X83472Y486410D01*
X79472Y486564D02*
Y489176D01*
Y486564D02*
X80448Y485589D01*
X83472Y486410D02*
Y489176D01*
X56506Y451272D02*
X61346Y456112D01*
X71120D01*
X23622Y477702D02*
X34076D01*
X39506Y472272D01*
Y471772D02*
Y472272D01*
X55998Y165268D02*
X60838Y170108D01*
X70358D01*
X41406Y178839D02*
Y183860D01*
X45913Y174333D02*
X71709D01*
X38998Y186268D02*
X41406Y183860D01*
Y178839D02*
X45913Y174333D01*
X71709D02*
X77619Y180243D01*
X84626Y196919D02*
Y199616D01*
X83736Y183486D02*
Y196029D01*
X84626Y196919D01*
X79651Y179401D02*
X83736Y183486D01*
X80626Y197107D02*
Y199616D01*
Y197107D02*
X81704Y196029D01*
Y184328D02*
Y196029D01*
X77619Y180243D02*
X81704Y184328D01*
X77619Y180243D02*
Y180243D01*
X79651Y179401D02*
Y179401D01*
X70358Y170108D02*
X79651Y179401D01*
X23114Y191952D02*
X33506D01*
X38998Y186460D01*
Y186268D02*
Y186460D01*
X125504Y69630D02*
X144814D01*
X112414Y137994D02*
X117675D01*
X122936D01*
X117504Y137823D02*
X117675Y137994D01*
X117504Y117630D02*
Y137823D01*
X112268Y138140D02*
X112414Y137994D01*
X121912Y280126D02*
X122058Y279980D01*
X110744Y423128D02*
X110890Y422982D01*
X123472Y501176D02*
X142782D01*
X115472Y483518D02*
Y489176D01*
D65*
X46830Y125405D02*
Y129906D01*
X43894Y132842D02*
X46830Y129906D01*
Y125405D02*
X46894Y125341D01*
X40894Y132842D02*
X43894D01*
X86498Y221488D02*
X94626Y229616D01*
X206977Y623603D02*
X211074Y619506D01*
X204978Y625602D02*
X206977Y623603D01*
X221978D01*
X559003Y575246D02*
Y593395D01*
X546608Y605790D02*
X559003Y593395D01*
X517144Y605790D02*
X546608D01*
X512064D02*
X517144D01*
X506730D02*
X512064D01*
X246600Y595389D02*
Y610582D01*
X110117Y578305D02*
X110331Y578519D01*
X110117Y578305D02*
X110236Y578186D01*
X110095Y578327D02*
X110117Y578305D01*
X99568Y578327D02*
X110095D01*
X94234Y431769D02*
X100076D01*
X88900Y578327D02*
X89041Y578469D01*
X72898Y578327D02*
X84297D01*
X67849D02*
X72898D01*
X84297D02*
X88900D01*
X67564Y578612D02*
X67849Y578327D01*
X84582Y431769D02*
X94234D01*
X68213D02*
X84582D01*
X100722Y288768D02*
X111249D01*
X84535D02*
X100584D01*
X68859D02*
X84535D01*
X39624Y306578D02*
X40554Y307508D01*
X68718Y288909D02*
X68859Y288768D01*
X68616Y289010D02*
X68718Y288909D01*
X38608Y307594D02*
X39624Y306578D01*
X767298Y596501D02*
Y601690D01*
X767334Y601726D01*
X767139Y596342D02*
X767298Y596501D01*
X470129Y70681D02*
Y87351D01*
X470154Y87376D01*
X470103Y70655D02*
X470129Y70681D01*
X482829Y87351D02*
X482854Y87376D01*
X482803Y70655D02*
X482829Y70681D01*
Y87351D01*
X533436Y70583D02*
Y87594D01*
X533400Y87630D02*
X533436Y87594D01*
Y70583D02*
X533604Y70416D01*
X559272Y70684D02*
Y87594D01*
X559308Y87630D01*
X559003Y70416D02*
X559272Y70684D01*
X470372Y239154D02*
Y255996D01*
X470408Y256032D01*
X470103Y238885D02*
X470372Y239154D01*
X483072Y255996D02*
X483108Y256032D01*
X483072Y239154D02*
Y255996D01*
X482803Y238885D02*
X483072Y239154D01*
X533629Y238671D02*
Y255499D01*
X533654Y255524D01*
X533604Y238645D02*
X533629Y238671D01*
X559029D02*
Y255499D01*
X559054Y255524D01*
X559003Y238645D02*
X559029Y238671D01*
X470626Y423382D02*
X470662Y423418D01*
X470103Y407186D02*
X470626Y407708D01*
Y423382D01*
X482803Y407186D02*
X482829Y407211D01*
Y423393D01*
X482854Y423418D01*
X533629Y406971D02*
Y423139D01*
X533604Y406945D02*
X533629Y406971D01*
Y423139D02*
X533654Y423164D01*
X559003Y406945D02*
X559029Y406920D01*
Y390423D02*
Y406920D01*
Y390423D02*
X559054Y390398D01*
X533604Y563927D02*
Y575246D01*
X528828Y562832D02*
X532509D01*
X533604Y563927D01*
X470129Y558825D02*
Y575460D01*
X470103Y575485D02*
X470129Y575460D01*
Y558825D02*
X470154Y558800D01*
X482803Y575485D02*
X482829Y575460D01*
Y559079D02*
Y575460D01*
Y559079D02*
X482854Y559054D01*
X279604Y386081D02*
Y407665D01*
X317729Y385851D02*
X317754Y385826D01*
X317729Y385851D02*
Y407400D01*
X317703Y407425D02*
X317729Y407400D01*
X355829Y385597D02*
X355854Y385572D01*
X355803Y407425D02*
X355829Y407400D01*
Y385597D02*
Y407400D01*
X279400Y221488D02*
X279436Y221524D01*
Y239198D02*
X279604Y239366D01*
X279436Y221524D02*
Y239198D01*
X317972Y221270D02*
X318008Y221234D01*
X317972Y221270D02*
Y238857D01*
X317703Y239125D02*
X317972Y238857D01*
X355600Y217170D02*
Y217221D01*
X355803Y217425D02*
Y239125D01*
X355600Y217221D02*
X355803Y217425D01*
X279436Y70968D02*
X279604Y71136D01*
X279436Y54138D02*
Y70968D01*
X279400Y54102D02*
X279436Y54138D01*
X317500Y53086D02*
X317536Y53122D01*
Y70728D02*
X317703Y70896D01*
X317536Y53122D02*
Y70728D01*
X355803Y70896D02*
X355829Y70870D01*
Y48285D02*
Y70870D01*
Y48285D02*
X355854Y48260D01*
X318799Y588010D02*
X323342D01*
X317703Y575726D02*
Y586915D01*
X318799Y588010D01*
X356072Y559090D02*
X356108Y559054D01*
X356072Y559090D02*
Y575457D01*
X355803Y575726D02*
X356072Y575457D01*
X110331Y582771D02*
X110367Y582807D01*
X110331Y578519D02*
Y582771D01*
X99091Y578327D02*
Y578351D01*
X98973Y578469D02*
X99091Y578351D01*
X83892Y427808D02*
Y431080D01*
X83856Y427772D02*
X83892Y427808D01*
Y431080D02*
X84582Y431769D01*
X94489Y427806D02*
X94525Y427770D01*
X94489Y427806D02*
Y431515D01*
X94234Y431769D02*
X94489Y431515D01*
X105154Y431769D02*
X110603D01*
X100217D02*
X105154D01*
X105273Y427672D02*
X105309Y427635D01*
X105154Y431769D02*
X105273Y431651D01*
Y427672D02*
Y431651D01*
X100076Y431911D02*
X100217Y431769D01*
X110603D02*
X110744Y431628D01*
X211074Y614934D02*
Y619506D01*
X154432Y640428D02*
X162782D01*
X148227D02*
X154432D01*
X146101Y638302D02*
X148227Y640428D01*
X146050Y638302D02*
X146101D01*
X154432Y610696D02*
X162782D01*
X141101D02*
X154432D01*
X141021Y610616D02*
X141101Y610696D01*
X140970Y610616D02*
X141021D01*
X246566D02*
X246600Y610582D01*
Y595389D02*
X246634Y595355D01*
X173025Y667004D02*
X173097Y666932D01*
X172974Y667004D02*
X173025D01*
X173097Y666932D02*
X188976D01*
X72898Y574516D02*
Y578327D01*
X83602Y574552D02*
Y577632D01*
X84297Y578327D01*
X83566Y574516D02*
X83602Y574552D01*
X89041Y578469D02*
X98973D01*
X68072Y431911D02*
X68213Y431769D01*
X44483Y291117D02*
X44516Y291084D01*
X44483Y291117D02*
Y294861D01*
X44450Y294894D02*
X44483Y294861D01*
X68616Y289010D02*
Y293588D01*
X68580Y293624D02*
X68616Y293588D01*
X75518Y489222D02*
Y495518D01*
X75554Y495554D01*
X75472Y489176D02*
X75518Y489222D01*
X76708Y221488D02*
X86498D01*
X76626Y199616D02*
X76672Y199662D01*
Y205958D01*
X76708Y205994D01*
X58420Y35528D02*
Y43638D01*
X58284Y43774D02*
X58420Y43638D01*
X50808Y43688D02*
X58198D01*
X58284Y43774D01*
X41284Y22774D02*
X41910Y23400D01*
Y33750D01*
X41284Y22774D02*
X48760D01*
X50201Y125436D02*
X50241Y125476D01*
X50292D01*
X46894Y125341D02*
X46989Y125436D01*
X50201D01*
X65558Y161254D02*
X70212D01*
X70358Y161108D01*
X65522Y161290D02*
X65558Y161254D01*
X38862Y165404D02*
X38998Y165268D01*
X38862Y165404D02*
Y173990D01*
X38998Y165268D02*
X46474D01*
X55626Y185896D02*
X55998Y186268D01*
X55626Y178111D02*
Y185896D01*
X48522Y186268D02*
X55998D01*
X23114Y182952D02*
X29241D01*
X29423Y183134D01*
X29474D01*
X87878Y313756D02*
X87884Y313762D01*
X87878Y309213D02*
Y313756D01*
X87873Y309208D02*
X87878Y309213D01*
X100048Y309024D02*
Y313480D01*
X100076Y313508D01*
X100020Y308996D02*
X100048Y309024D01*
X48268Y328676D02*
X55576D01*
X55744Y328508D01*
X56388Y320045D02*
Y327864D01*
X55744Y328508D02*
X56388Y327864D01*
X22860Y325192D02*
X28987D01*
X29169Y325374D01*
X29220D01*
X38744Y307508D02*
X40554D01*
X38608Y307594D02*
Y315468D01*
X40554Y307508D02*
X46220D01*
X69886Y302804D02*
X70104Y303022D01*
X65304Y302804D02*
X69886D01*
X65268Y302768D02*
X65304Y302804D01*
X84546Y293334D02*
X84582Y293370D01*
X84546Y288778D02*
Y293334D01*
X84535Y288768D02*
X84546Y288778D01*
X100657Y288974D02*
X100722Y288909D01*
X100657Y288974D02*
Y293242D01*
X100620Y293278D02*
X100657Y293242D01*
X111249Y288768D02*
X111390Y288626D01*
X767139Y581106D02*
Y596342D01*
Y428118D02*
Y581106D01*
Y412907D02*
Y428118D01*
Y259843D02*
Y412907D01*
Y244632D02*
Y259843D01*
Y91695D02*
Y244632D01*
Y76611D02*
Y91695D01*
X125504Y93630D02*
X136048D01*
X140716Y98298D02*
X162306D01*
X136048Y93630D02*
X140716Y98298D01*
X166116Y88577D02*
Y94488D01*
X162306Y98298D02*
X166116Y94488D01*
X169154Y83312D02*
X175006D01*
X166116Y88577D02*
X166121Y88572D01*
Y86345D02*
X169154Y83312D01*
X166121Y86345D02*
Y88572D01*
X135540Y235616D02*
X139954Y240030D01*
X124626Y235616D02*
X135540D01*
X139954Y240030D02*
X160274D01*
X165243Y228331D02*
Y235061D01*
X160274Y240030D02*
X165243Y235061D01*
Y228331D02*
X166244Y227330D01*
X167386D01*
X159258Y383286D02*
X164592Y377952D01*
X139954Y383286D02*
X159258D01*
X135286Y378618D02*
X139954Y383286D01*
X164597Y369057D02*
X166370Y367284D01*
X164597Y369057D02*
Y373560D01*
X164592Y373565D02*
X164597Y373560D01*
X164592Y373565D02*
Y377952D01*
X123980Y378618D02*
X135286D01*
X164089Y517891D02*
Y525775D01*
X138517Y529169D02*
X160695D01*
X164089Y525775D01*
Y517891D02*
X165090Y516890D01*
X169164D01*
X134524Y525176D02*
X138517Y529169D01*
X123472Y525176D02*
X134524D01*
D66*
X289052Y11975D02*
X325665D01*
X268478D02*
X276135D01*
X278638Y14478D02*
X286549D01*
X289052Y11975D01*
X276135D02*
X278638Y14478D01*
X257048D02*
X265975D01*
X268478Y11975D01*
X254545D02*
X257048Y14478D01*
X247378Y11975D02*
X254545D01*
X118893Y13989D02*
X120908Y11975D01*
X109257D02*
X111271Y13989D01*
X118893D01*
X139667Y14040D02*
X141732Y11975D01*
X128951D02*
X131016Y14040D01*
X139667D01*
X120908Y11975D02*
X128951D01*
X141732D02*
X233191D01*
X104611D02*
X109257D01*
X297347Y39537D02*
Y46397D01*
X295416Y48327D02*
Y53237D01*
Y48327D02*
X297347Y46397D01*
X295416Y53237D02*
X297347Y55167D01*
Y65214D01*
X271689Y33984D02*
X277945D01*
X280157Y31772D02*
X289582D01*
X277945Y33984D02*
X280157Y31772D01*
X269477D02*
X271689Y33984D01*
X266355Y31772D02*
X269477D01*
X148551Y23572D02*
X151041Y21082D01*
X139330D02*
X141820Y23572D01*
X148551D01*
X129788Y23547D02*
X132253Y21082D01*
X120650D02*
X123115Y23547D01*
X129788D01*
X151041Y21082D02*
X219710D01*
X132253D02*
X139330D01*
X113511D02*
X120650D01*
X279025Y183401D02*
X286880D01*
X289904Y180377D02*
X321969D01*
X286880Y183401D02*
X289904Y180377D01*
X276001D02*
X279025Y183401D01*
X268771Y180377D02*
X276001D01*
X259334Y183388D02*
X265760D01*
X268771Y180377D01*
X256323D02*
X259334Y183388D01*
X247378Y180377D02*
X256323D01*
X151494Y164084D02*
X193040D01*
X141641Y166555D02*
X149024D01*
X151494Y164084D01*
X131318D02*
X139171D01*
X141641Y166555D01*
X120396Y164084D02*
X122861Y166549D01*
X128853D02*
X131318Y164084D01*
X122861Y166549D02*
X128853D01*
X110490Y164084D02*
X120396D01*
X289582Y31772D02*
X297347Y39537D01*
X122682Y155956D02*
X161544D01*
X261945Y350644D02*
X264065Y348525D01*
X253783D02*
X255903Y350644D01*
X261945D01*
X271567Y348525D02*
X273830Y350787D01*
X279169D01*
X281432Y348525D01*
X264065D02*
X271567D01*
X281432D02*
X328117D01*
X246593D02*
X253783D01*
X287565Y368337D02*
X290018Y370790D01*
Y374346D02*
X291929Y376257D01*
X290018Y370790D02*
Y374346D01*
X295485Y376257D02*
X297347Y378119D01*
X291929Y376257D02*
X295485D01*
X277132Y368337D02*
X287565D01*
X269277D02*
X271272Y370332D01*
X265571Y368337D02*
X269277D01*
X275137Y370332D02*
X277132Y368337D01*
X271272Y370332D02*
X275137D01*
X145709Y310549D02*
X148082Y308176D01*
X139012D02*
X141385Y310549D01*
X145709D01*
X123518Y308176D02*
X125984Y310642D01*
X148082Y308176D02*
X189812D01*
X133350D02*
X139012D01*
X110135D02*
X123518D01*
X130884Y310642D02*
X133350Y308176D01*
X125984Y310642D02*
X130884D01*
X113538Y299286D02*
X143764D01*
X132558Y452374D02*
X134910Y454726D01*
X140396D02*
X142748Y452374D01*
X134910Y454726D02*
X140396D01*
X125984Y452374D02*
X132558D01*
X142748D02*
X189344D01*
X117602Y454660D02*
X123698D01*
X125984Y452374D01*
X110884D02*
X115316D01*
X117602Y454660D01*
X290665Y29158D02*
X299960Y38454D01*
X266355Y29158D02*
X290665D01*
X299960Y65214D02*
X300599Y65852D01*
X302548D02*
X305004Y68307D01*
X300599Y65852D02*
X302548D01*
X305004Y68307D02*
Y70896D01*
X263762Y25146D02*
X265717Y27101D01*
Y28520D01*
X266355Y29158D01*
X299960Y38454D02*
Y65214D01*
X296708Y65852D02*
X297347Y65214D01*
X294759Y65852D02*
X296708D01*
X292304Y68307D02*
Y70896D01*
Y68307D02*
X294759Y65852D01*
X265717Y32410D02*
Y33931D01*
Y32410D02*
X266355Y31772D01*
X263834Y35814D02*
X265717Y33931D01*
X161544Y155956D02*
X199644D01*
X102870D02*
X122682D01*
X143764Y299286D02*
X197291D01*
X103445D02*
X113538D01*
X106882Y456376D02*
X110884Y452374D01*
X101854Y443992D02*
X102616Y443230D01*
X115062D01*
X288126Y519774D02*
X294042D01*
X295873Y517943D02*
X324649D01*
X294042Y519774D02*
X295873Y517943D01*
X278601D02*
X286295D01*
X288126Y519774D01*
X276770D02*
X278601Y517943D01*
X270600Y519774D02*
X276770D01*
X263107Y517943D02*
X268769D01*
X270600Y519774D01*
X255360D02*
X261276D01*
X263107Y517943D01*
X247934D02*
X253529D01*
X255360Y519774D01*
X338060Y527658D02*
Y570044D01*
X247934Y515329D02*
X325731D01*
X247296Y512726D02*
Y514691D01*
X245872Y511302D02*
X247296Y512726D01*
Y514691D02*
X247934Y515329D01*
X325731D02*
X338060Y527658D01*
X324649Y517943D02*
X335447Y528741D01*
X245872Y521970D02*
X247296Y520546D01*
Y518581D02*
Y520546D01*
Y518581D02*
X247934Y517943D01*
X335447Y528741D02*
Y570044D01*
X330404Y573138D02*
X332859Y570682D01*
X334808D01*
X343103Y573138D02*
Y575726D01*
X338699Y570682D02*
X340648D01*
X330404Y573138D02*
Y575726D01*
X340648Y570682D02*
X343103Y573138D01*
X334808Y570682D02*
X335447Y570044D01*
X338060D02*
X338699Y570682D01*
X295209Y550733D02*
X297347Y552871D01*
X292335Y550733D02*
X295209D01*
X290322Y548720D02*
X292335Y550733D01*
X288655Y544179D02*
X290322Y545846D01*
X285781Y544179D02*
X288655D01*
X290322Y545846D02*
Y548720D01*
X283806Y542203D02*
X285781Y544179D01*
X282231Y537755D02*
X283806Y539330D01*
Y542203D01*
X267372Y537755D02*
X282231D01*
X297347Y552871D02*
Y570044D01*
X299960Y551788D02*
Y570044D01*
X283313Y535141D02*
X299960Y551788D01*
X267372Y535141D02*
X283313D01*
X266733Y538393D02*
X267372Y537755D01*
X266733Y534503D02*
X267372Y535141D01*
X264778Y541782D02*
X266733Y539827D01*
Y538393D02*
Y539827D01*
Y533069D02*
Y534503D01*
X264778Y531114D02*
X266733Y533069D01*
X296708Y570682D02*
X297347Y570044D01*
X292304Y573138D02*
Y575726D01*
Y573138D02*
X294759Y570682D01*
X299960Y570044D02*
X300599Y570682D01*
X302548D01*
X305004Y573138D01*
Y575726D01*
X294759Y570682D02*
X296708D01*
X116626Y175600D02*
Y199616D01*
X112036Y171010D02*
X116626Y175600D01*
X92165Y449985D02*
Y473479D01*
X94779Y451067D02*
Y472396D01*
Y451067D02*
X102616Y443230D01*
X235448Y512726D02*
Y514691D01*
Y512726D02*
X236872Y511302D01*
X223623Y515329D02*
X234809D01*
X235448Y514691D01*
X213106Y457568D02*
Y504812D01*
X223623Y515329D01*
X196155Y440616D02*
X213106Y457568D01*
X101533Y440616D02*
X196155D01*
X92165Y473479D02*
Y485736D01*
X92165Y473479D02*
X92165Y473479D01*
X91472Y486430D02*
Y489176D01*
Y486430D02*
X92165Y485736D01*
X235448Y520546D02*
X236872Y521970D01*
X235448Y518581D02*
Y520546D01*
X234809Y517943D02*
X235448Y518581D01*
X222541Y517943D02*
X234809D01*
X210492Y505894D02*
X222541Y517943D01*
X210492Y458650D02*
Y505894D01*
X195072Y443230D02*
X210492Y458650D01*
X115062Y443230D02*
X195072D01*
X95472Y486430D02*
Y489176D01*
X94779Y485737D02*
X95472Y486430D01*
X94779Y472396D02*
X94779Y472396D01*
Y485737D01*
X102616Y443230D02*
X103632D01*
X92165Y449985D02*
X101533Y440616D01*
X224639Y535141D02*
X253715D01*
X202438Y461772D02*
Y512940D01*
X199824Y514022D02*
X223557Y537755D01*
X202438Y512940D02*
X224639Y535141D01*
X199824Y462855D02*
Y514022D01*
X223557Y537755D02*
X253715D01*
X189344Y452374D02*
X199824Y462855D01*
X190426Y449760D02*
X202438Y461772D01*
X109802Y449760D02*
X190426D01*
X106882Y456376D02*
Y485547D01*
X104269Y455293D02*
X109802Y449760D01*
X104269Y455293D02*
Y485633D01*
X107472Y486430D02*
Y489176D01*
X107017Y485975D02*
X107472Y486430D01*
X106882Y485547D02*
X107017Y485682D01*
Y485975D01*
X103472Y486430D02*
Y489176D01*
Y486430D02*
X104269Y485633D01*
X254354Y532538D02*
X255778Y531114D01*
X253715Y537755D02*
X254354Y538393D01*
Y540358D01*
X255778Y541782D01*
X253715Y535141D02*
X254354Y534503D01*
Y532538D02*
Y534503D01*
X264932Y368975D02*
Y370940D01*
Y368975D02*
X265571Y368337D01*
X264932Y363120D02*
Y365085D01*
X263508Y361696D02*
X264932Y363120D01*
X265571Y365723D02*
X288647D01*
X264932Y365085D02*
X265571Y365723D01*
X263508Y372364D02*
X264932Y370940D01*
X297347Y378119D02*
Y401744D01*
X288647Y365723D02*
X299960Y377036D01*
X305004Y404837D02*
Y407425D01*
X292304Y404837D02*
Y407425D01*
X299960Y377036D02*
Y401744D01*
X300599Y402382D02*
X302548D01*
X305004Y404837D01*
X296708Y402382D02*
X297347Y401744D01*
X294759Y402382D02*
X296708D01*
X292304Y404837D02*
X294759Y402382D01*
X299960Y401744D02*
X300599Y402382D01*
X50522Y316230D02*
X71334D01*
X38744Y328008D02*
Y328737D01*
Y328008D02*
X50522Y316230D01*
X71334D02*
X80920Y325816D01*
Y339025D01*
X70104Y312022D02*
X83025Y324943D01*
Y339025D01*
X60258Y312022D02*
X70104D01*
X83980Y339979D02*
Y342618D01*
X83025Y339025D02*
X83980Y339979D01*
X79980Y339964D02*
Y342618D01*
Y339964D02*
X80920Y339025D01*
X55744Y307508D02*
X60258Y312022D01*
X22860Y334192D02*
X33289D01*
X38744Y328737D01*
X338060Y354771D02*
Y401744D01*
X335447Y355854D02*
Y401744D01*
X329200Y345911D02*
X338060Y354771D01*
X246593Y345911D02*
X329200D01*
X245954Y345273D02*
X246593Y345911D01*
X245954Y343308D02*
Y345273D01*
X244530Y341884D02*
X245954Y343308D01*
X328117Y348525D02*
X335447Y355854D01*
X244530Y352552D02*
X245954Y351128D01*
Y349163D02*
Y351128D01*
Y349163D02*
X246593Y348525D01*
X332859Y402382D02*
X334808D01*
X335447Y401744D01*
X340648Y402382D02*
X343103Y404837D01*
X338060Y401744D02*
X338699Y402382D01*
X340648D01*
X330404Y404837D02*
Y407425D01*
Y404837D02*
X332859Y402382D01*
X343103Y404837D02*
Y407425D01*
X189812Y308176D02*
X198808Y317172D01*
X107287Y311024D02*
X110135Y308176D01*
X190894Y305562D02*
X201422Y316090D01*
X104673Y309941D02*
X109052Y305562D01*
X190894D01*
X201422Y316090D02*
Y351282D01*
X198808Y317172D02*
Y352365D01*
X201422Y351282D02*
X215863Y365723D01*
X198808Y352365D02*
X214781Y368337D01*
X252446D01*
X215863Y365723D02*
X252446D01*
X213434Y311732D02*
Y336878D01*
X210820Y312814D02*
Y337960D01*
X198374Y296672D02*
X213434Y311732D01*
X102362Y296672D02*
X198374D01*
X197291Y299286D02*
X210820Y312814D01*
X92673Y306361D02*
X102362Y296672D01*
X95287Y307444D02*
X103445Y299286D01*
X95287Y307444D02*
Y324441D01*
X92673Y306361D02*
Y325524D01*
X107287Y311024D02*
Y339178D01*
X104673Y309941D02*
Y339179D01*
X107980Y339872D02*
Y342618D01*
X107287Y339178D02*
X107980Y339872D01*
X103980D02*
X104673Y339179D01*
X103980Y339872D02*
Y342618D01*
X252446Y365723D02*
X253084Y365085D01*
Y363120D02*
X254508Y361696D01*
X253084Y363120D02*
Y365085D01*
X252446Y368337D02*
X253084Y368975D01*
Y370940D01*
X254508Y372364D01*
X95980Y339872D02*
Y342618D01*
X95287Y339179D02*
X95980Y339872D01*
X95287Y324441D02*
Y339179D01*
X95287Y324441D02*
X95287Y324441D01*
X92673Y325524D02*
X92673Y325524D01*
Y339178D01*
X91980Y339872D02*
Y342618D01*
Y339872D02*
X92673Y339178D01*
X210820Y337960D02*
X221385Y348525D01*
X213434Y336878D02*
X222467Y345911D01*
X234106Y351128D02*
X235530Y352552D01*
X221385Y348525D02*
X233468D01*
Y345911D02*
X234106Y345273D01*
Y343308D02*
X235530Y341884D01*
X234106Y343308D02*
Y345273D01*
Y349163D02*
Y351128D01*
X222467Y345911D02*
X233468D01*
Y348525D02*
X234106Y349163D01*
X265897Y199935D02*
X286295D01*
X299960Y209904D02*
Y233444D01*
X286295Y199935D02*
X297347Y210987D01*
Y233444D01*
X287377Y197321D02*
X299960Y209904D01*
X265897Y197321D02*
X287377D01*
X247378Y177763D02*
X323051D01*
X338060Y192772D02*
Y233444D01*
X323051Y177763D02*
X338060Y192772D01*
X335447Y193855D02*
Y233444D01*
X321969Y180377D02*
X335447Y193855D01*
X265258Y196683D02*
X265897Y197321D01*
X265258Y194718D02*
Y196683D01*
X263834Y193294D02*
X265258Y194718D01*
X263834Y203962D02*
X265258Y202538D01*
Y200573D02*
X265897Y199935D01*
X265258Y200573D02*
Y202538D01*
X305004Y236537D02*
Y239125D01*
X292304Y236537D02*
Y239125D01*
X294759Y234082D02*
X296708D01*
X292304Y236537D02*
X294759Y234082D01*
X296708D02*
X297347Y233444D01*
X299960D02*
X300599Y234082D01*
X302548D02*
X305004Y236537D01*
X300599Y234082D02*
X302548D01*
X244784Y184404D02*
X246739Y182449D01*
Y181015D02*
X247378Y180377D01*
X246739Y181015D02*
Y182449D01*
Y175691D02*
Y177125D01*
X247378Y177763D01*
X244784Y173736D02*
X246739Y175691D01*
X338060Y233444D02*
X338699Y234082D01*
X330404Y236537D02*
X332859Y234082D01*
X330404Y236537D02*
Y239125D01*
X340648Y234082D02*
X343103Y236537D01*
Y239125D01*
X338699Y234082D02*
X340648D01*
X334808D02*
X335447Y233444D01*
X332859Y234082D02*
X334808D01*
X109407Y161470D02*
X194123D01*
X229973Y197321D01*
X252772D01*
X193040Y164084D02*
X228891Y199935D01*
X252772D01*
X200727Y153342D02*
X225147Y177763D01*
X93319Y161811D02*
X101787Y153342D01*
X200727D01*
X199644Y155956D02*
X224065Y180377D01*
X95933Y162893D02*
X102870Y155956D01*
X107933Y166641D02*
X110490Y164084D01*
X105319Y165559D02*
X109407Y161470D01*
X107933Y166641D02*
Y196176D01*
X105319Y165559D02*
Y196176D01*
X108626Y196870D02*
Y199616D01*
X107933Y196176D02*
X108626Y196870D01*
X104626D02*
X105319Y196176D01*
X104626Y196870D02*
Y199616D01*
X252772Y199935D02*
X253410Y200573D01*
Y194718D02*
X254834Y193294D01*
X252772Y197321D02*
X253410Y196683D01*
Y200573D02*
Y202538D01*
X254834Y203962D01*
X253410Y194718D02*
Y196683D01*
X95933Y162893D02*
Y196176D01*
X93319Y161811D02*
Y196176D01*
X96626Y196870D02*
Y199616D01*
X95933Y196176D02*
X96626Y196870D01*
X92626D02*
X93319Y196176D01*
X92626Y196870D02*
Y199616D01*
X234360Y175160D02*
Y177125D01*
X233722Y177763D02*
X234360Y177125D01*
X225147Y177763D02*
X233722D01*
X234360Y181015D02*
Y182980D01*
X235784Y184404D01*
X234360Y175160D02*
X235784Y173736D01*
X233722Y180377D02*
X234360Y181015D01*
X224065Y180377D02*
X233722D01*
X103529Y9361D02*
X233191D01*
X96811Y19775D02*
Y54191D01*
X94197Y18693D02*
Y54190D01*
Y18693D02*
X103529Y9361D01*
X96811Y19775D02*
X104611Y11975D01*
X112428Y18468D02*
X220793D01*
X231512Y29188D02*
X252715D01*
X220793Y18468D02*
X231512Y29188D01*
X219710Y21082D02*
X230430Y31802D01*
X252757D01*
X108811Y25782D02*
X113511Y21082D01*
X106197Y24699D02*
X112428Y18468D01*
X253353Y26555D02*
X254762Y25146D01*
X253395Y32440D02*
Y34375D01*
X252757Y31802D02*
X253395Y32440D01*
Y34375D02*
X254834Y35814D01*
X253353Y26555D02*
Y28550D01*
X252715Y29188D02*
X253353Y28550D01*
X105504Y54884D02*
X106197Y54191D01*
Y24699D02*
Y54191D01*
X108811Y25782D02*
Y54190D01*
X105504Y54884D02*
Y57630D01*
X108811Y54190D02*
X109504Y54884D01*
Y57630D01*
X93504Y54884D02*
X94197Y54190D01*
X93504Y54884D02*
Y57630D01*
X97504Y54884D02*
Y57630D01*
X96811Y54191D02*
X97504Y54884D01*
X233191Y9361D02*
X233829Y8723D01*
Y12613D02*
Y14047D01*
Y7289D02*
X235784Y5334D01*
X233829Y7289D02*
Y8723D01*
Y14047D02*
X235784Y16002D01*
X233191Y11975D02*
X233829Y12613D01*
X335447Y21757D02*
Y65635D01*
X325665Y11975D02*
X335447Y21757D01*
X340648Y66273D02*
X343103Y68728D01*
X330404D02*
X332859Y66273D01*
X334808D01*
X335447Y65635D01*
X338060D02*
X338699Y66273D01*
X340648D01*
X326747Y9361D02*
X338060Y20674D01*
Y65635D01*
X343103Y68728D02*
Y70896D01*
X330404Y68728D02*
Y70896D01*
X244784Y5334D02*
X246739Y7289D01*
Y12613D02*
X247378Y11975D01*
X246739Y12613D02*
Y14047D01*
X247378Y9361D02*
X326747D01*
X246739Y8723D02*
X247378Y9361D01*
X246739Y7289D02*
Y8723D01*
X244784Y16002D02*
X246739Y14047D01*
D67*
X221116Y666614D02*
X221488Y666242D01*
X193836Y657932D02*
Y662432D01*
X193802Y663888D02*
X196596Y666682D01*
X199644D01*
X193802Y662432D02*
Y663888D01*
X195834Y653542D02*
X200464D01*
X193836Y655540D02*
X195834Y653542D01*
X199644Y666682D02*
X199678Y666648D01*
X209922D01*
X193836Y655540D02*
Y657932D01*
X188976D02*
X193836D01*
X200464Y653542D02*
X202866Y651141D01*
X221116Y666614D02*
X221234D01*
X210312D02*
X221116D01*
X202866Y647714D02*
Y651141D01*
Y647714D02*
X202976Y647604D01*
X209922Y666614D02*
X210312D01*
X209042Y665734D02*
X209922Y666614D01*
X203521Y644558D02*
X204523D01*
X204948Y644133D01*
X202946Y645134D02*
X203521Y644558D01*
D68*
X144990Y246126D02*
X147966D01*
D69*
X629403Y560726D02*
D03*
X249403D02*
D03*
Y55896D02*
D03*
X629403D02*
D03*
X249403Y224125D02*
D03*
X629403D02*
D03*
X249403Y392425D02*
D03*
X629403D02*
D03*
D70*
X100962Y649896D02*
D03*
Y606896D02*
D03*
X52962D02*
D03*
Y649896D02*
D03*
D71*
X14224Y411734D02*
D03*
Y386334D02*
D03*
Y373634D02*
D03*
Y360934D02*
D03*
Y399034D02*
D03*
X14478Y558800D02*
D03*
Y533400D02*
D03*
Y520700D02*
D03*
Y508000D02*
D03*
Y546100D02*
D03*
X14224Y127000D02*
D03*
Y101600D02*
D03*
Y88900D02*
D03*
Y76200D02*
D03*
Y114300D02*
D03*
X13970Y269240D02*
D03*
Y243840D02*
D03*
Y231140D02*
D03*
Y218440D02*
D03*
Y256540D02*
D03*
D72*
X14224Y348234D02*
D03*
X14478Y495300D02*
D03*
X14224Y63500D02*
D03*
X13970Y205740D02*
D03*
D73*
X654910Y614318D02*
D03*
D74*
X676910Y639318D02*
D03*
D75*
X704910Y591818D02*
D03*
D76*
X323146Y660850D02*
D03*
X538226Y599440D02*
D03*
Y594614D02*
D03*
X543306Y599440D02*
D03*
Y594614D02*
D03*
X26416Y233013D02*
D03*
Y227743D02*
D03*
X73152Y250251D02*
D03*
Y244981D02*
D03*
X48134Y556975D02*
D03*
X379439Y615988D02*
D03*
X383165Y612261D02*
D03*
X277622Y549656D02*
D03*
X720852Y62992D02*
D03*
X724662Y59436D02*
D03*
X728472Y56388D02*
D03*
X714502Y33274D02*
D03*
X719582Y28194D02*
D03*
X725424Y22860D02*
D03*
X678706Y551872D02*
D03*
X767334Y601726D02*
D03*
X641379Y229870D02*
D03*
X640842Y397764D02*
D03*
X171159Y408857D02*
D03*
X85852Y81280D02*
D03*
X155194Y560324D02*
D03*
X696628Y219052D02*
D03*
Y229974D02*
D03*
Y224386D02*
D03*
X695613Y398052D02*
D03*
X695597Y387028D02*
D03*
Y392606D02*
D03*
X195072Y640588D02*
D03*
X157988Y398526D02*
D03*
X695452Y272796D02*
D03*
Y261620D02*
D03*
Y267208D02*
D03*
Y256286D02*
D03*
X470154Y87376D02*
D03*
X482854D02*
D03*
X533400Y87630D02*
D03*
X559308D02*
D03*
X470408Y256032D02*
D03*
X483108D02*
D03*
X533654Y255524D02*
D03*
X559054D02*
D03*
X470662Y423418D02*
D03*
X482854D02*
D03*
X533654Y423164D02*
D03*
X559054Y390398D02*
D03*
X517144Y605790D02*
D03*
X506730D02*
D03*
X512064D02*
D03*
X528828Y562832D02*
D03*
X470154Y558800D02*
D03*
X482854Y559054D02*
D03*
X279604Y386081D02*
D03*
X317754Y385826D02*
D03*
X355854Y385572D02*
D03*
X279400Y221488D02*
D03*
X318008Y221234D02*
D03*
X355600Y217170D02*
D03*
X279400Y54102D02*
D03*
X317500Y53086D02*
D03*
X355854Y48260D02*
D03*
X654304Y262636D02*
D03*
X659130Y193040D02*
D03*
X717565Y158840D02*
D03*
X723153D02*
D03*
X728487D02*
D03*
X711977D02*
D03*
X723153Y153252D02*
D03*
X717565D02*
D03*
X712231D02*
D03*
X728741D02*
D03*
X728233Y282030D02*
D03*
X722645D02*
D03*
X717311D02*
D03*
X733821D02*
D03*
X728233Y287364D02*
D03*
X722645D02*
D03*
X717311D02*
D03*
X727964Y321056D02*
D03*
X711454D02*
D03*
X716788D02*
D03*
X722376D02*
D03*
X711200Y326644D02*
D03*
X727710D02*
D03*
X722376D02*
D03*
X716788D02*
D03*
X659130Y361188D02*
D03*
X654558Y429768D02*
D03*
X695960Y439928D02*
D03*
Y423418D02*
D03*
Y428752D02*
D03*
Y434340D02*
D03*
X733806Y455168D02*
D03*
X717296D02*
D03*
X722630D02*
D03*
X728218D02*
D03*
X733806Y449834D02*
D03*
X717296D02*
D03*
X722630D02*
D03*
X728218D02*
D03*
X500532Y521510D02*
D03*
X505644Y525606D02*
D03*
X496754Y526114D02*
D03*
X500853Y530612D02*
D03*
X517296Y521510D02*
D03*
X522408Y525606D02*
D03*
X513518Y526114D02*
D03*
X517617Y530612D02*
D03*
X501040Y649294D02*
D03*
X497262Y653898D02*
D03*
X501361Y658396D02*
D03*
X517972Y658294D02*
D03*
X513874Y653796D02*
D03*
X522764Y653288D02*
D03*
X517652Y649192D02*
D03*
X579120Y360680D02*
D03*
Y355092D02*
D03*
Y349504D02*
D03*
X505799D02*
D03*
Y355092D02*
D03*
Y360680D02*
D03*
X432477Y349504D02*
D03*
Y355092D02*
D03*
Y360680D02*
D03*
X359156Y349504D02*
D03*
Y355092D02*
D03*
Y360680D02*
D03*
X579120Y192024D02*
D03*
Y186436D02*
D03*
Y180848D02*
D03*
X505799D02*
D03*
Y186436D02*
D03*
Y192024D02*
D03*
X432477Y180848D02*
D03*
Y186436D02*
D03*
Y192024D02*
D03*
X359156Y180848D02*
D03*
Y186436D02*
D03*
Y192024D02*
D03*
Y23876D02*
D03*
Y18288D02*
D03*
Y12700D02*
D03*
X432477Y23876D02*
D03*
Y18288D02*
D03*
Y12700D02*
D03*
X505799Y23876D02*
D03*
Y18288D02*
D03*
Y12700D02*
D03*
X579120D02*
D03*
Y18288D02*
D03*
Y23876D02*
D03*
X502666Y52660D02*
D03*
X508254D02*
D03*
X513842D02*
D03*
X578866D02*
D03*
X584454D02*
D03*
X590042D02*
D03*
X593090Y550046D02*
D03*
X581152Y518160D02*
D03*
X581406Y659638D02*
D03*
X592582Y636778D02*
D03*
X323342Y588010D02*
D03*
X356108Y559054D02*
D03*
X343662Y617728D02*
D03*
X356108Y618998D02*
D03*
X366522Y577342D02*
D03*
X375158Y585216D02*
D03*
X110367Y582807D02*
D03*
X153408Y573794D02*
D03*
X157226Y544830D02*
D03*
X162814Y568706D02*
D03*
X49687Y267436D02*
D03*
X95758Y80772D02*
D03*
X108458Y78486D02*
D03*
X85598Y98298D02*
D03*
X97282Y98806D02*
D03*
X108204Y99060D02*
D03*
X160020Y119888D02*
D03*
X154432Y124206D02*
D03*
X155956Y135128D02*
D03*
X161798Y141732D02*
D03*
X159766Y261620D02*
D03*
X156718Y275844D02*
D03*
X159004Y283972D02*
D03*
X158750Y234188D02*
D03*
X80264Y235966D02*
D03*
X105918Y221742D02*
D03*
X91440Y222504D02*
D03*
X87630Y238252D02*
D03*
X104902Y372110D02*
D03*
X83312Y385064D02*
D03*
X85598Y369824D02*
D03*
X106172Y380746D02*
D03*
X106934Y360426D02*
D03*
X159258Y405638D02*
D03*
X166878Y420370D02*
D03*
X155194Y427736D02*
D03*
X45655Y406074D02*
D03*
X83856Y427772D02*
D03*
X94525Y427770D02*
D03*
X105309Y427635D02*
D03*
X59030Y426666D02*
D03*
X56794Y421894D02*
D03*
X112928Y411068D02*
D03*
X344932Y527558D02*
D03*
X366014Y528574D02*
D03*
X390652Y556514D02*
D03*
X291520Y624912D02*
D03*
X387096Y639064D02*
D03*
X369062Y656336D02*
D03*
X333756Y649732D02*
D03*
X325374Y641604D02*
D03*
X308356Y624586D02*
D03*
X316738Y632714D02*
D03*
X381072Y529772D02*
D03*
X412780Y572770D02*
D03*
X311658Y525018D02*
D03*
X295910Y542036D02*
D03*
X303439Y534726D02*
D03*
X278357Y560545D02*
D03*
X311152Y558091D02*
D03*
X319651Y549636D02*
D03*
X328049Y541079D02*
D03*
X284346Y630453D02*
D03*
X292862Y638950D02*
D03*
X302006Y648716D02*
D03*
X309118Y657098D02*
D03*
X337058Y663702D02*
D03*
X365506Y663194D02*
D03*
X434086Y661924D02*
D03*
X442214Y669856D02*
D03*
X459232Y632460D02*
D03*
X451470Y639826D02*
D03*
X422656Y636270D02*
D03*
X422910Y666242D02*
D03*
X412750Y667766D02*
D03*
X424434Y620827D02*
D03*
X416611Y628396D02*
D03*
X401574Y643636D02*
D03*
X409091Y636210D02*
D03*
X425958Y557530D02*
D03*
X413766Y539496D02*
D03*
X406966Y546920D02*
D03*
X389890Y529082D02*
D03*
X334010Y513588D02*
D03*
X393515Y538157D02*
D03*
X414782Y555498D02*
D03*
X417830Y614680D02*
D03*
X72136Y353983D02*
D03*
Y359253D02*
D03*
X168402Y119126D02*
D03*
X165100Y115570D02*
D03*
X171958Y122936D02*
D03*
X73152Y216251D02*
D03*
Y210981D02*
D03*
X123444Y406400D02*
D03*
X71628Y500541D02*
D03*
Y505811D02*
D03*
X198628Y624332D02*
D03*
X207264Y631444D02*
D03*
X211074Y614934D02*
D03*
X140970Y610616D02*
D03*
X246634Y595355D02*
D03*
X172974Y667004D02*
D03*
X204948Y644133D02*
D03*
X72898Y574516D02*
D03*
X83566D02*
D03*
X55490Y572484D02*
D03*
X51816Y568706D02*
D03*
X158914Y523632D02*
D03*
X26416Y376015D02*
D03*
Y370745D02*
D03*
X72390Y393253D02*
D03*
Y387983D02*
D03*
X136201Y520280D02*
D03*
X166212Y551480D02*
D03*
X162528Y547899D02*
D03*
X169550Y555528D02*
D03*
X95614Y396003D02*
D03*
X101980Y396060D02*
D03*
X121412Y436801D02*
D03*
X30480Y451612D02*
D03*
X56642Y481584D02*
D03*
X75758Y562102D02*
D03*
X26416Y517303D02*
D03*
Y522573D02*
D03*
X107696Y563626D02*
D03*
X90006Y541994D02*
D03*
X120650Y582676D02*
D03*
X71882Y534541D02*
D03*
Y539811D02*
D03*
X164338Y256794D02*
D03*
X167132Y260350D02*
D03*
X167640Y405384D02*
D03*
X163830Y401320D02*
D03*
X170180Y263906D02*
D03*
X73914Y108265D02*
D03*
Y102995D02*
D03*
X26620Y91027D02*
D03*
Y85757D02*
D03*
X155325Y74799D02*
D03*
X73660Y74265D02*
D03*
Y68995D02*
D03*
X43180Y594868D02*
D03*
X37084Y546608D02*
D03*
X34108Y531296D02*
D03*
X26416Y511302D02*
D03*
Y528828D02*
D03*
X37338Y491871D02*
D03*
X37084Y503936D02*
D03*
X44077Y440922D02*
D03*
X29982Y468884D02*
D03*
X40132Y462248D02*
D03*
X66030Y446532D02*
D03*
X87630Y455676D02*
D03*
X99822D02*
D03*
X49030Y471424D02*
D03*
X34798Y395224D02*
D03*
X34704Y384738D02*
D03*
X29972Y357632D02*
D03*
Y345186D02*
D03*
X157366Y377698D02*
D03*
Y355854D02*
D03*
X44450Y294894D02*
D03*
X68580Y293624D02*
D03*
X28311Y96520D02*
D03*
X28353Y79982D02*
D03*
X75554Y495554D02*
D03*
Y511048D02*
D03*
X76062Y348996D02*
D03*
Y364490D02*
D03*
X77586Y64008D02*
D03*
Y79502D02*
D03*
X76708Y221488D02*
D03*
Y205994D02*
D03*
X58420Y35528D02*
D03*
X50808Y43688D02*
D03*
X41910Y33750D02*
D03*
X48760Y22774D02*
D03*
X50292Y125476D02*
D03*
X65522Y161290D02*
D03*
X38862Y173990D02*
D03*
X46474Y165268D02*
D03*
X55626Y178111D02*
D03*
X48522Y186268D02*
D03*
X29474Y183134D02*
D03*
X87873Y309208D02*
D03*
X100020Y308996D02*
D03*
X48268Y328676D02*
D03*
X56388Y320045D02*
D03*
X29220Y325374D02*
D03*
X38608Y315468D02*
D03*
X46220Y307508D02*
D03*
X65268Y302768D02*
D03*
X84582Y293370D02*
D03*
X79502Y273812D02*
D03*
X100620Y293278D02*
D03*
X27686Y221488D02*
D03*
Y239014D02*
D03*
X130326Y247616D02*
D03*
X35052Y241739D02*
D03*
X34798Y252222D02*
D03*
X31242Y214376D02*
D03*
Y202184D02*
D03*
X88900Y173482D02*
D03*
X100838D02*
D03*
X151196Y212725D02*
D03*
X125476Y114808D02*
D03*
X69342Y648462D02*
D03*
X84582Y648208D02*
D03*
X84461Y641006D02*
D03*
X68326Y608330D02*
D03*
X85598D02*
D03*
X69463Y615786D02*
D03*
X44356Y241736D02*
D03*
X41286Y214376D02*
D03*
X41358Y202184D02*
D03*
X58166Y247650D02*
D03*
X137668Y228854D02*
D03*
X88646Y184150D02*
D03*
X100838D02*
D03*
X130325Y215521D02*
D03*
X97028Y252984D02*
D03*
X100441Y265256D02*
D03*
X124968Y257048D02*
D03*
X87838Y327213D02*
D03*
X100241Y319532D02*
D03*
X33528Y439420D02*
D03*
X137148Y372364D02*
D03*
X132267Y359632D02*
D03*
X124714Y345186D02*
D03*
X57290Y390652D02*
D03*
X90322Y408988D02*
D03*
X111633Y335607D02*
D03*
X130604Y505644D02*
D03*
X124206Y546100D02*
D03*
X51308Y530098D02*
D03*
X48768Y491490D02*
D03*
Y503682D02*
D03*
X87122Y474726D02*
D03*
X99314D02*
D03*
X56896Y537210D02*
D03*
X99822Y564134D02*
D03*
X91199Y555767D02*
D03*
X111252Y482157D02*
D03*
X109484Y542624D02*
D03*
X22860Y540512D02*
D03*
X22847Y563923D02*
D03*
X34290Y586994D02*
D03*
X24130Y405130D02*
D03*
Y411226D02*
D03*
X78740Y415798D02*
D03*
X100736Y416560D02*
D03*
X101655Y410155D02*
D03*
X126746Y491744D02*
D03*
X53086Y141260D02*
D03*
X52832Y135996D02*
D03*
X30870Y131896D02*
D03*
X30988Y125476D02*
D03*
X29766Y263967D02*
D03*
X23876Y263906D02*
D03*
X57912Y280924D02*
D03*
X100764Y273970D02*
D03*
X102756Y252997D02*
D03*
X98706Y556075D02*
D03*
X40640Y389382D02*
D03*
Y357124D02*
D03*
X40712Y345186D02*
D03*
X90564Y266204D02*
D03*
X112036Y192631D02*
D03*
X127000Y60198D02*
D03*
X126238Y202692D02*
D03*
X31242Y290830D02*
D03*
X126492Y289052D02*
D03*
X36140Y99750D02*
D03*
X133232Y73408D02*
D03*
X87504Y124188D02*
D03*
X103504Y111072D02*
D03*
X113030Y50631D02*
D03*
X42418Y149056D02*
D03*
X31187Y149382D02*
D03*
X35786Y109516D02*
D03*
X127394Y146959D02*
D03*
X111252Y125476D02*
D03*
X58674Y105664D02*
D03*
X141869Y92133D02*
D03*
X80264Y140899D02*
D03*
X101506D02*
D03*
X89916Y34544D02*
D03*
X101600D02*
D03*
X159300Y92202D02*
D03*
X146812Y535863D02*
D03*
X147320Y389128D02*
D03*
X147966Y246126D02*
D03*
X74346Y146616D02*
D03*
X84954Y146591D02*
D03*
X95896Y146645D02*
D03*
X106492Y146844D02*
D03*
X112522Y144164D02*
D03*
X42236Y60071D02*
D03*
X42164Y72390D02*
D03*
Y104433D02*
D03*
X31890Y72390D02*
D03*
X31962Y60198D02*
D03*
X21082Y39258D02*
D03*
X77470Y17342D02*
D03*
X89916Y24270D02*
D03*
X101600D02*
D03*
X148844Y104140D02*
D03*
X112928Y265938D02*
D03*
X51954Y280924D02*
D03*
X97790Y129032D02*
D03*
X101600Y124206D02*
D03*
X739140Y432562D02*
D03*
Y438150D02*
D03*
Y443484D02*
D03*
Y426974D02*
D03*
Y275082D02*
D03*
Y269748D02*
D03*
Y258572D02*
D03*
Y264160D02*
D03*
X726034Y229559D02*
D03*
X654304Y251714D02*
D03*
X725272Y397415D02*
D03*
X654304Y419354D02*
D03*
X591058Y594106D02*
D03*
X585724D02*
D03*
X596138D02*
D03*
X499110Y594360D02*
D03*
X493776D02*
D03*
X504190D02*
D03*
X590042Y220808D02*
D03*
X584454D02*
D03*
X578866D02*
D03*
X590042Y389108D02*
D03*
X584454D02*
D03*
X578866D02*
D03*
X513842D02*
D03*
X508254D02*
D03*
X502666D02*
D03*
X513842Y220808D02*
D03*
X508254D02*
D03*
X502666D02*
D03*
X706897Y184748D02*
D03*
X701432Y184809D02*
D03*
X701555Y179028D02*
D03*
X707020Y178967D02*
D03*
X707005Y346771D02*
D03*
X701540Y346831D02*
D03*
X701417Y352613D02*
D03*
X706882Y352552D02*
D03*
X754380Y509524D02*
D03*
X748792D02*
D03*
X743204D02*
D03*
X737616D02*
D03*
Y515366D02*
D03*
X743204D02*
D03*
X748792D02*
D03*
X754380D02*
D03*
X278391Y616349D02*
D03*
X410210Y622300D02*
D03*
X520700Y623570D02*
D03*
X500126D02*
D03*
X510286Y628396D02*
D03*
X515620D02*
D03*
X510286Y623570D02*
D03*
X520700Y628396D02*
D03*
X504952D02*
D03*
X500126D02*
D03*
X515620Y623570D02*
D03*
X504952D02*
D03*
X500380Y549656D02*
D03*
Y554482D02*
D03*
X505206D02*
D03*
Y549656D02*
D03*
X510540D02*
D03*
Y554482D02*
D03*
X515874Y549656D02*
D03*
Y554482D02*
D03*
X520954Y549656D02*
D03*
Y554482D02*
D03*
X577596Y597662D02*
D03*
X74328Y608076D02*
D03*
X79597Y655066D02*
D03*
X396665Y599269D02*
D03*
X79598Y608076D02*
D03*
X74327Y655066D02*
D03*
X400392Y595542D02*
D03*
X146050Y650563D02*
D03*
Y645293D02*
D03*
X115653Y642196D02*
D03*
X119380Y645922D02*
D03*
X132588Y623824D02*
D03*
X128862Y620098D02*
D03*
X129032Y600561D02*
D03*
Y605831D02*
D03*
X387925Y607501D02*
D03*
X391651Y603775D02*
D03*
X551797Y557530D02*
D03*
X373380Y615848D02*
D03*
X381977Y606342D02*
D03*
X390830Y597764D02*
D03*
X115363Y635886D02*
D03*
X109220Y642874D02*
D03*
X125984Y645668D02*
D03*
X120142Y652272D02*
D03*
X123952Y609854D02*
D03*
X134112D02*
D03*
Y596392D02*
D03*
X123952D02*
D03*
X122936Y619506D02*
D03*
X129032Y613918D02*
D03*
X138684Y623570D02*
D03*
X132842Y629920D02*
D03*
X146050Y638302D02*
D03*
X139954Y656082D02*
D03*
X151638D02*
D03*
M02*
