G04*
G04 #@! TF.GenerationSoftware,Altium Limited,Altium Designer,24.0.1 (36)*
G04*
G04 Layer_Physical_Order=1*
G04 Layer_Color=191*
%FSLAX44Y44*%
%MOMM*%
G71*
G04*
G04 #@! TF.SameCoordinates,6F16000C-B149-46FA-B592-FBC60BD1AF14*
G04*
G04*
G04 #@! TF.FilePolarity,Positive*
G04*
G01*
G75*
%ADD10C,0.2032*%
%ADD14C,0.2540*%
%ADD15C,0.1524*%
%ADD17C,0.1270*%
%ADD18O,0.5000X1.5000*%
%ADD19R,0.5000X1.5000*%
%ADD20R,2.4000X2.8000*%
%ADD21R,0.6000X2.9000*%
%ADD22O,0.7000X0.2000*%
%ADD23O,0.2000X0.7000*%
%ADD24R,3.3000X3.3000*%
%ADD25R,0.5000X0.5000*%
%ADD26R,0.5000X0.5000*%
%ADD27R,1.6500X1.4000*%
%ADD28R,0.5650X0.2000*%
%ADD29R,1.2000X1.3000*%
%ADD30R,0.7500X0.8500*%
G04:AMPARAMS|DCode=31|XSize=1.27mm|YSize=1.016mm|CornerRadius=0.254mm|HoleSize=0mm|Usage=FLASHONLY|Rotation=180.000|XOffset=0mm|YOffset=0mm|HoleType=Round|Shape=RoundedRectangle|*
%AMROUNDEDRECTD31*
21,1,1.2700,0.5080,0,0,180.0*
21,1,0.7620,1.0160,0,0,180.0*
1,1,0.5080,-0.3810,0.2540*
1,1,0.5080,0.3810,0.2540*
1,1,0.5080,0.3810,-0.2540*
1,1,0.5080,-0.3810,-0.2540*
%
%ADD31ROUNDEDRECTD31*%
G04:AMPARAMS|DCode=32|XSize=1.27mm|YSize=0.889mm|CornerRadius=0mm|HoleSize=0mm|Usage=FLASHONLY|Rotation=0.000|XOffset=0mm|YOffset=0mm|HoleType=Round|Shape=Octagon|*
%AMOCTAGOND32*
4,1,8,0.6350,-0.2223,0.6350,0.2223,0.4128,0.4445,-0.4128,0.4445,-0.6350,0.2223,-0.6350,-0.2223,-0.4128,-0.4445,0.4128,-0.4445,0.6350,-0.2223,0.0*
%
%ADD32OCTAGOND32*%

%ADD33R,1.2700X0.8890*%
%ADD57C,0.1308*%
%ADD58C,0.1308*%
%ADD59C,0.1090*%
%ADD60C,0.1090*%
%ADD61R,0.7000X0.2000*%
%ADD62R,0.2000X0.7000*%
%ADD63R,2.0000X3.0000*%
%ADD64R,0.5650X0.4000*%
%ADD65C,0.3810*%
%ADD66C,0.1016*%
%ADD67C,0.1778*%
%ADD68C,0.0508*%
%ADD69C,1.0000*%
%ADD70C,1.3000*%
%ADD71R,1.8000X4.5000*%
%ADD72R,1.8000X4.0000*%
%ADD73R,5.0000X2.6000*%
%ADD74C,0.4000*%
G36*
X173228Y142748D02*
Y134874D01*
X168656Y130302D01*
Y124714D01*
X166116Y122174D01*
X161544Y117602D01*
Y112268D01*
X160528Y111252D01*
X153162D01*
X152146Y112268D01*
Y141986D01*
X154178Y144018D01*
X171958D01*
X173228Y142748D01*
D02*
G37*
G36*
X184404Y143002D02*
Y103632D01*
X182118Y101346D01*
X164592D01*
X163322Y102616D01*
Y116840D01*
X170688Y124206D01*
Y129540D01*
X174752Y133604D01*
X174752Y142748D01*
X176276Y144272D01*
X183134D01*
X184404Y143002D01*
D02*
G37*
G36*
X170826Y287782D02*
X172350Y286258D01*
Y276860D01*
X167778Y272288D01*
Y266700D01*
X165238Y264160D01*
X160666Y259588D01*
Y254254D01*
X159650Y253238D01*
X152284D01*
X151268Y254254D01*
Y286258D01*
X152792Y287782D01*
X170826Y287782D01*
D02*
G37*
G36*
X183526Y286512D02*
Y245618D01*
X181240Y243332D01*
X163714D01*
X162444Y244602D01*
Y258826D01*
X169810Y266192D01*
Y271526D01*
X173874Y275590D01*
Y286512D01*
X175144Y287782D01*
X182256D01*
X183526Y286512D01*
D02*
G37*
G36*
X524002Y86106D02*
X525526Y84582D01*
X525526Y51816D01*
X522732Y49022D01*
X492760D01*
X490474Y51308D01*
Y84582D01*
X491998Y86106D01*
X524002Y86106D01*
D02*
G37*
G36*
X600202D02*
X601726Y84582D01*
X601726Y51816D01*
X598932Y49022D01*
X568960D01*
X566674Y51308D01*
Y84582D01*
X568198Y86106D01*
X600202Y86106D01*
D02*
G37*
G36*
X524002Y254336D02*
X525526Y252812D01*
X525526Y220046D01*
X522732Y217252D01*
X492760D01*
X490474Y219538D01*
Y252812D01*
X491998Y254336D01*
X524002Y254336D01*
D02*
G37*
G36*
X600202D02*
X601726Y252812D01*
X601726Y220046D01*
X598932Y217252D01*
X568960D01*
X566674Y219538D01*
Y252812D01*
X568198Y254336D01*
X600202Y254336D01*
D02*
G37*
G36*
X170180Y430784D02*
X171704Y429260D01*
Y419862D01*
X167132Y415290D01*
Y409702D01*
X164592Y407162D01*
X160020Y402590D01*
Y397256D01*
X159004Y396240D01*
X151638D01*
X150622Y397256D01*
Y429260D01*
X152146Y430784D01*
X170180Y430784D01*
D02*
G37*
G36*
X182880Y429514D02*
Y388620D01*
X180594Y386334D01*
X163068D01*
X161798Y387604D01*
Y401828D01*
X169164Y409194D01*
Y414528D01*
X173228Y418592D01*
Y429514D01*
X174498Y430784D01*
X181610D01*
X182880Y429514D01*
D02*
G37*
G36*
X169672Y577342D02*
X171196Y575818D01*
Y566420D01*
X166624Y561848D01*
Y556260D01*
X164084Y553720D01*
X159512Y549148D01*
Y543814D01*
X158496Y542798D01*
X151130D01*
X150114Y543814D01*
Y575818D01*
X151638Y577342D01*
X169672Y577342D01*
D02*
G37*
G36*
X182372Y576072D02*
Y535178D01*
X180086Y532892D01*
X162560D01*
X161290Y534162D01*
Y548386D01*
X168656Y555752D01*
Y561086D01*
X172720Y565150D01*
Y576072D01*
X173990Y577342D01*
X181102D01*
X182372Y576072D01*
D02*
G37*
G36*
X524002Y422636D02*
X525526Y421112D01*
X525526Y388346D01*
X522732Y385552D01*
X492760D01*
X490474Y387838D01*
Y421112D01*
X491998Y422636D01*
X524002Y422636D01*
D02*
G37*
G36*
X600202D02*
X601726Y421112D01*
X601726Y388346D01*
X598932Y385552D01*
X568960D01*
X566674Y387838D01*
Y421112D01*
X568198Y422636D01*
X600202Y422636D01*
D02*
G37*
G36*
X507238Y596900D02*
X512318Y591820D01*
X523494D01*
X525526Y589788D01*
Y561594D01*
X523240Y559308D01*
X492506D01*
X489458Y562356D01*
Y594868D01*
X491490Y596900D01*
X507238D01*
D02*
G37*
G36*
X599694Y596646D02*
X601726Y594614D01*
Y560832D01*
X600202Y559308D01*
X568960D01*
X567182Y561086D01*
Y590296D01*
X568706Y591820D01*
X577596D01*
X581406Y595630D01*
X582422Y596646D01*
X599694D01*
D02*
G37*
D10*
X75375Y254089D02*
X77438Y252026D01*
X72626Y256828D02*
X75365Y254089D01*
X75375D01*
X81306Y248148D02*
X111968D01*
X77438Y252016D02*
X81306Y248148D01*
X77438Y252016D02*
Y252026D01*
X122058Y288980D02*
X129540Y281498D01*
Y257048D02*
Y281498D01*
Y257048D02*
X143506D01*
X124968D02*
X129540D01*
X120904D02*
X124968D01*
X90309Y267079D02*
Y279653D01*
X92626Y264229D02*
Y264762D01*
X90309Y267079D02*
X92626Y264762D01*
X90054Y279908D02*
X90309Y279653D01*
X128524Y546100D02*
X143582D01*
X124206D02*
X128524D01*
X120904Y578468D02*
X122388Y576984D01*
X124214D01*
X128524Y572674D01*
Y546100D02*
Y572674D01*
X123607Y399887D02*
Y403741D01*
Y399887D02*
X123698Y399796D01*
X129271D02*
X144344D01*
X123698D02*
X129271D01*
Y424123D01*
X121412Y431982D02*
X129271Y424123D01*
X122936Y146994D02*
X123666Y146264D01*
X127294D01*
X131572Y114808D02*
Y141986D01*
X127294Y146264D02*
X131572Y141986D01*
Y114808D02*
X145868D01*
X125476D02*
X131572D01*
X176022Y57404D02*
Y61684D01*
X163322D02*
X176022D01*
X103084Y136439D02*
X105034D01*
X108712Y123626D02*
Y132760D01*
X101600Y137923D02*
X103084Y136439D01*
X105034D02*
X108712Y132760D01*
X105504Y120098D02*
X106472Y121066D01*
Y121386D02*
X108712Y123626D01*
X105504Y117630D02*
Y120098D01*
X106472Y121066D02*
Y121386D01*
X100892Y137403D02*
X101506Y138017D01*
X96956Y137027D02*
X97332Y137403D01*
X100892D01*
X176022Y199898D02*
Y204070D01*
X163322D02*
X176022D01*
Y208267D01*
X149922Y197652D02*
X161101D01*
X163322Y199873D01*
X187960Y160758D02*
X188337Y160381D01*
X187960Y160758D02*
Y161290D01*
X188337Y154455D02*
X188722Y154070D01*
X188337Y154455D02*
Y160381D01*
X145389Y202184D02*
X149922Y197652D01*
X163322Y199873D02*
Y204070D01*
X176022Y208267D02*
X177393Y209638D01*
X181008D02*
X189302Y217932D01*
X177393Y209638D02*
X181008D01*
X148767Y487212D02*
X161951D01*
X163322Y488583D01*
Y491852D01*
X144235Y491744D02*
X148767Y487212D01*
X175972Y491802D02*
X176022Y491852D01*
X175972Y484428D02*
Y491802D01*
X175923Y484378D02*
X175972Y484428D01*
X163322Y491852D02*
X176022D01*
X178214Y497420D02*
X188286Y507492D01*
X177393Y497420D02*
X178214D01*
X176022Y496049D02*
X177393Y497420D01*
X176022Y491852D02*
Y496049D01*
X188411Y442163D02*
X188722Y441852D01*
X188100Y450088D02*
X188411Y449777D01*
Y442163D02*
Y449777D01*
X88510Y556751D02*
X91472Y553789D01*
X88510Y556751D02*
Y569079D01*
X88900Y569469D01*
X91472Y549176D02*
Y552889D01*
X106680Y555752D02*
Y562149D01*
X99568Y565315D02*
X103513D01*
X106680Y562149D01*
X94512Y565315D02*
X99568D01*
X99568Y565315D02*
Y569469D01*
X99568Y565315D02*
X99568Y565315D01*
X103472Y549176D02*
Y552544D01*
X106680Y555752D01*
X163322Y346564D02*
X170586D01*
X176022D01*
X160648Y340654D02*
X160990Y340996D01*
X161951D01*
X163322Y342367D01*
X149276Y340654D02*
X160648D01*
X163322Y342367D02*
Y346564D01*
X144743Y345186D02*
X149276Y340654D01*
X177393Y352132D02*
X179666D01*
X176022Y350761D02*
X177393Y352132D01*
X176022Y346564D02*
Y350761D01*
X179666Y352132D02*
X188468Y360934D01*
X187351Y297942D02*
X188722Y296571D01*
Y296564D02*
Y296571D01*
X185166Y297942D02*
X187351D01*
X104344Y407043D02*
Y418293D01*
X102790Y419847D02*
X104344Y418293D01*
X103980Y402618D02*
Y406679D01*
X104344Y407043D01*
X78740Y415266D02*
X79980Y414025D01*
X78740Y415266D02*
Y422911D01*
X79980Y402618D02*
Y414025D01*
X91964Y405102D02*
Y405422D01*
X88179Y409207D02*
X91964Y405422D01*
X87274Y409586D02*
Y420776D01*
X89408Y422910D01*
X87642Y409207D02*
X88179D01*
X100076Y419847D02*
X102790D01*
X95387D02*
X100076D01*
Y422911D01*
X104727Y263481D02*
Y268769D01*
X98273Y274574D02*
X98576D01*
X100373Y272777D01*
X104727Y268769D01*
X98421Y274721D02*
Y277607D01*
X100722Y279909D01*
X98273Y274574D02*
X98421Y274721D01*
X98044Y274574D02*
X98273D01*
X183642Y11684D02*
X188722D01*
X151348Y55118D02*
X160953D01*
X163322Y57487D01*
X146267Y60198D02*
X151348Y55118D01*
X163322Y57487D02*
Y61684D01*
X177393Y67252D02*
X181370D01*
X176022Y61684D02*
Y65881D01*
X181370Y67252D02*
X190064Y75946D01*
X176022Y65881D02*
X177393Y67252D01*
X58380Y374618D02*
X63980D01*
X43616Y389382D02*
X58380Y374618D01*
X71472Y549176D02*
Y565561D01*
Y546388D02*
Y549176D01*
X123980Y382618D02*
X131477D01*
X119854D02*
X123980D01*
X71980Y402618D02*
Y419003D01*
Y399778D02*
Y402618D01*
X72626Y259616D02*
Y276001D01*
Y256828D02*
Y259616D01*
X73504Y117630D02*
Y134015D01*
Y114822D02*
Y117630D01*
X99472Y474472D02*
Y489176D01*
X75758Y562102D02*
Y566995D01*
Y557464D02*
Y562102D01*
X51308Y530098D02*
X60230Y521176D01*
X46910Y534496D02*
X51308Y530098D01*
X87472Y474472D02*
Y489176D01*
X117602Y396920D02*
X120478Y399796D01*
X123698D01*
X117602Y390208D02*
Y396920D01*
Y390208D02*
X121192Y386618D01*
X125956Y509192D02*
X126908Y510144D01*
X136144Y520446D02*
X136355Y520657D01*
X140013D01*
X127228Y510144D02*
X135824Y518740D01*
Y519904D02*
X136201Y520280D01*
X140013Y520657D02*
X141620Y522264D01*
X126908Y510144D02*
X127228D01*
X135824Y518740D02*
Y519904D01*
X141620Y522264D02*
X142534D01*
X144018Y523748D01*
X121192Y386618D02*
X123980D01*
X79472Y549176D02*
Y553750D01*
X75758Y557464D02*
X79472Y553750D01*
X75758Y566995D02*
X78232Y569469D01*
X79386Y279909D02*
X79444Y279851D01*
Y273870D02*
Y279851D01*
Y273870D02*
X79502Y273812D01*
X121688Y101630D02*
X125504D01*
X119008Y104310D02*
Y112346D01*
Y104310D02*
X121688Y101630D01*
X121093Y114431D02*
X125099D01*
X125476Y114808D01*
X119008Y112346D02*
X121093Y114431D01*
X118618Y253978D02*
X118618Y254762D01*
X120904Y257048D01*
X143506D02*
X144990Y256794D01*
X118618Y245808D02*
Y253978D01*
Y245808D02*
X120810Y243616D01*
X124626D01*
X120684Y533176D02*
X123472D01*
X116840Y537020D02*
X120684Y533176D01*
X116840Y537020D02*
Y543052D01*
X123829Y545723D02*
X124206Y546100D01*
X119511Y545723D02*
X123829D01*
X116840Y543052D02*
X119511Y545723D01*
X51308Y247650D02*
X58166D01*
X45709Y253249D02*
X51308Y247650D01*
X45709Y253249D02*
Y255601D01*
X44356Y241736D02*
X49856D01*
X44356Y240698D02*
Y241736D01*
Y246286D01*
X49856Y241736D02*
X59976Y231616D01*
X44262Y246380D02*
X44356Y246286D01*
X59976Y231616D02*
X64626D01*
X49502Y219616D02*
X64626D01*
X41286Y214376D02*
X44262D01*
X49502Y219616D01*
X41358Y202184D02*
X44334D01*
X49766Y207616D01*
X58166Y247616D02*
X64626D01*
X124626Y219616D02*
X128430D01*
X141833Y233019D01*
X144003D01*
X145172Y234188D01*
X88642Y183874D02*
Y199600D01*
X88646Y184150D02*
X88784Y184012D01*
Y179644D02*
X88922Y179506D01*
X88784Y179644D02*
Y184012D01*
X100722Y179506D02*
X100780Y179564D01*
Y184092D01*
X100838Y184150D01*
X100642Y184034D02*
Y199600D01*
X141008Y223558D02*
X145352D01*
X130325Y215521D02*
X130540Y215736D01*
X133186D02*
X141008Y223558D01*
X130540Y215736D02*
X133186D01*
X130246Y215600D02*
X130325Y215521D01*
X124626Y215616D02*
X124642Y215600D01*
X130246D01*
X142148Y232704D02*
X143688D01*
X145172Y234188D01*
X104642Y263396D02*
X104727Y263481D01*
X104642Y262100D02*
Y263396D01*
X87838Y327213D02*
X87861Y327190D01*
X87964Y342602D02*
X87980Y342618D01*
X87964Y327339D02*
Y342602D01*
X87838Y327213D02*
X87964Y327339D01*
X87861Y322785D02*
X87884Y322762D01*
X87861Y322785D02*
Y327190D01*
X100076Y322508D02*
X100159Y322425D01*
Y319614D02*
X100241Y319532D01*
X100159Y319614D02*
Y322425D01*
X99980Y322604D02*
Y342618D01*
X142860Y376214D02*
X144344Y377698D01*
X141264Y376214D02*
X142860D01*
X137414Y372364D02*
X141264Y376214D01*
X137414Y372364D02*
X137414D01*
X126464Y362634D02*
X127418D01*
X137148Y372364D01*
X123980Y358618D02*
X130721D01*
X132152Y359410D02*
X137740Y364998D01*
X130721Y358618D02*
X131735Y359632D01*
X132267D01*
X137740Y364998D02*
X142069D01*
X124714Y345186D02*
X144743D01*
X57184Y390618D02*
X57290D01*
X63964Y390634D02*
X63980Y390618D01*
X57308Y390634D02*
X63964D01*
X57290Y390652D02*
X57308Y390634D01*
X111506Y322512D02*
X111569Y322575D01*
Y335544D01*
X111633Y335607D01*
X142069Y364998D02*
X142109Y365038D01*
X143259D02*
X144743Y366522D01*
X142109Y365038D02*
X143259D01*
X130717Y505553D02*
X136708D01*
X123488Y505192D02*
X129619D01*
X130556Y505714D02*
X130717Y505553D01*
X123472Y505176D02*
X123488Y505192D01*
X129619D02*
X130071Y505644D01*
X130604D01*
X136708Y505553D02*
X144235Y513080D01*
X143582Y546100D02*
X143836Y546354D01*
X136906Y535686D02*
X143836D01*
X54454Y497176D02*
X63472D01*
X48768Y491490D02*
X54454Y497176D01*
X48768Y503936D02*
X54008Y509176D01*
X63472D01*
X43235Y503809D02*
X48641D01*
X43108Y503936D02*
X43235Y503809D01*
X43108Y535940D02*
X44552Y534496D01*
X46910D01*
X60230Y521176D02*
X63472D01*
X48641Y491617D02*
X48768Y491490D01*
X43362Y491744D02*
X43489Y491617D01*
X48641D01*
Y503809D02*
X48768Y503682D01*
X87249Y469447D02*
X87376Y469320D01*
X87249Y469447D02*
Y474599D01*
X87122Y474726D02*
X87249Y474599D01*
X99441Y469193D02*
X99568Y469066D01*
X99441Y469193D02*
Y474599D01*
X99314Y474726D02*
X99441Y474599D01*
X42886Y546829D02*
X52129Y537587D01*
X47973Y399828D02*
X57184Y390618D01*
X43837Y399828D02*
X47973D01*
X56914Y537192D02*
X63456D01*
X52129Y537587D02*
X56519D01*
X56914Y537192D01*
X63456D02*
X63472Y537176D01*
X110998Y468816D02*
X111125Y468943D01*
Y482030D01*
X111252Y482157D01*
X121362Y97646D02*
X125488D01*
X112846Y106162D02*
X121362Y97646D01*
X82164Y106162D02*
X112846D01*
X73504Y114822D02*
X82164Y106162D01*
X111959Y536578D02*
X119361Y529176D01*
X74258Y543644D02*
X80194Y537708D01*
X123472Y529176D02*
X130396D01*
X111944Y536578D02*
X111959D01*
X119361Y529176D02*
X123472D01*
X110814Y537708D02*
X111944Y536578D01*
X80194Y537708D02*
X110814D01*
X74216Y543644D02*
X74258D01*
X71472Y546388D02*
X74216Y543644D01*
X111322Y391150D02*
X119854Y382618D01*
X80608Y391150D02*
X111322D01*
X71980Y399778D02*
X80608Y391150D01*
X126746Y491744D02*
X144235D01*
X79502Y267462D02*
Y273812D01*
Y267462D02*
X80626Y266338D01*
Y259616D02*
Y266338D01*
X40767Y357251D02*
X43489D01*
X43616Y357378D01*
X40640Y357124D02*
X40767Y357251D01*
X40712Y345186D02*
X43688D01*
X112036Y179510D02*
Y192631D01*
X127000Y60198D02*
X146267D01*
X145135Y202438D02*
X145389Y202184D01*
X126238Y202692D02*
X126492Y202438D01*
X145135D01*
X145352Y223558D02*
X145389Y223520D01*
X139205Y246126D02*
X144990D01*
X132695Y239616D02*
X139205Y246126D01*
X124626Y239616D02*
X132695D01*
X125520Y73614D02*
X133026D01*
X133232Y73408D01*
X138280Y73546D02*
X146267Y81534D01*
X132965Y74037D02*
X133455Y73546D01*
X138280D01*
X125504Y73630D02*
X125520Y73614D01*
X87493Y124343D02*
Y134483D01*
X90932Y137922D01*
X87884Y123811D02*
X90111D01*
X87493Y124343D02*
X87884Y123952D01*
X93504Y117630D02*
Y120418D01*
X90111Y123811D02*
X93504Y120418D01*
X113030Y37270D02*
Y50631D01*
X45140Y115062D02*
X54161Y106041D01*
X58297D02*
X58674Y105664D01*
X54161Y106041D02*
X58297D01*
X132494Y77630D02*
X141869Y87005D01*
X125504Y77630D02*
X132494D01*
X141869Y87005D02*
Y92133D01*
X141904Y92167D02*
X146015D01*
X146050Y92202D01*
X141869Y92133D02*
X141904Y92167D01*
X80264Y137923D02*
Y140899D01*
X81504Y117630D02*
Y136683D01*
X80264Y137923D02*
X81504Y136683D01*
X143925Y535774D02*
X146724D01*
X143836Y535686D02*
X143925Y535774D01*
X146724D02*
X146812Y535863D01*
X144344Y389128D02*
X147320D01*
X125488Y97646D02*
X125504Y97630D01*
X131666D01*
X111968Y248148D02*
X120484Y239632D01*
X124610D02*
X124626Y239616D01*
X120484Y239632D02*
X124610D01*
X69053Y137379D02*
X69596Y137923D01*
X73504Y134015D01*
X145868Y104140D02*
X148844D01*
X131666Y97630D02*
X138176Y104140D01*
X145868D01*
X49766Y207616D02*
X64626D01*
X100626Y199616D02*
X100642Y199600D01*
X88626Y199616D02*
X88642Y199600D01*
X68718Y279909D02*
X72626Y276001D01*
X68072Y422911D02*
X71980Y419003D01*
X43616Y357378D02*
X48856Y362618D01*
X63980D01*
X49120Y350618D02*
X63980D01*
X43688Y345186D02*
X49120Y350618D01*
X131477Y382618D02*
X137987Y389128D01*
X144344D01*
X67564Y569469D02*
X71472Y565561D01*
X130396Y529176D02*
X136906Y535686D01*
D14*
X191770Y574802D02*
X197286Y569286D01*
Y507492D02*
Y569286D01*
X95504Y146922D02*
X101600D01*
X90932Y146922D02*
X90932Y146922D01*
X95504D01*
X95504Y146922D01*
X101600D02*
X101600Y146923D01*
X101741Y146782D02*
X112127D01*
X112268Y146640D01*
X101679Y146844D02*
X101741Y146782D01*
X38862Y441166D02*
Y450628D01*
X39506Y451272D01*
X39166Y451612D02*
X39506Y451272D01*
X201422Y3556D02*
Y11684D01*
X199064Y75946D02*
Y81208D01*
X153018Y523748D02*
X159588D01*
X93472Y519176D02*
X123472D01*
X93980Y372618D02*
X123980D01*
X94626Y229616D02*
X124626D01*
X95504Y87630D02*
X125504D01*
X56506Y472272D02*
X56642Y472408D01*
X55658Y471424D02*
X56506Y472272D01*
X158914Y508308D02*
Y523632D01*
X153018Y502412D02*
X158914Y508308D01*
X30480Y451612D02*
X39166D01*
X56642Y472408D02*
Y481584D01*
X154172Y234188D02*
X158750D01*
X153090Y394208D02*
X153344Y394462D01*
X123980Y390618D02*
X132295D01*
X135885Y394208D02*
X153090D01*
X132295Y390618D02*
X135885Y394208D01*
X197195Y507583D02*
X197286Y507492D01*
X34108Y546608D02*
X37084D01*
X34108Y535940D02*
X34108Y535940D01*
Y531296D02*
Y535940D01*
Y531296D02*
X34108Y531296D01*
X34425Y491808D02*
X37274D01*
X34362Y491744D02*
X34425Y491808D01*
X37274D02*
X37338Y491871D01*
X34108Y503936D02*
X37084D01*
X23622Y468702D02*
X23713Y468793D01*
X29891D02*
X29982Y468884D01*
X23713Y468793D02*
X29891D01*
X70819Y446811D02*
X71120Y447112D01*
X66309Y446811D02*
X70819D01*
X66030Y446532D02*
X66309Y446811D01*
X87376Y460066D02*
X87503Y459939D01*
Y455803D02*
Y459939D01*
Y455803D02*
X87630Y455676D01*
X99695Y455803D02*
X99822Y455676D01*
X99695Y455803D02*
Y459939D01*
X99568Y460066D02*
X99695Y459939D01*
X49030Y471424D02*
X55658D01*
X123472Y537176D02*
X133726D01*
X34616Y400050D02*
X34707Y399959D01*
Y395315D02*
Y399959D01*
Y395315D02*
X34798Y395224D01*
X34660Y384782D02*
Y389338D01*
X34616Y389382D02*
X34660Y389338D01*
Y384782D02*
X34704Y384738D01*
X34489Y357505D02*
X34616Y357378D01*
X30099Y357505D02*
X34489D01*
X29972Y357632D02*
X30099Y357505D01*
X29972Y345186D02*
X34688D01*
X153344Y377698D02*
X157366D01*
X153526Y355854D02*
X157366D01*
X77545Y57671D02*
Y63967D01*
X77586Y64008D01*
X77504Y57630D02*
X77545Y57671D01*
X85852Y364490D02*
X93980Y372618D01*
X76062Y364490D02*
X85852D01*
X76021Y342659D02*
Y348955D01*
X75980Y342618D02*
X76021Y342659D01*
Y348955D02*
X76062Y348996D01*
X85344Y511048D02*
X93472Y519176D01*
X75554Y511048D02*
X85344D01*
X130326Y247616D02*
X136026D01*
X124626D02*
X130326D01*
X35157Y241844D02*
Y246275D01*
X35262Y246380D01*
X35052Y241739D02*
X35157Y241844D01*
X35030Y252454D02*
Y256816D01*
X35262Y257048D01*
X34798Y252222D02*
X35030Y252454D01*
X31242Y214376D02*
X35262D01*
X31242Y202184D02*
X35334D01*
X88911Y170517D02*
Y173471D01*
X88900Y173482D02*
X88911Y173471D01*
Y170517D02*
X88922Y170506D01*
X100722D02*
X100780Y170564D01*
Y173424D01*
X100838Y173482D01*
X154108Y212789D02*
X154172Y212852D01*
X151196Y212725D02*
X151259Y212789D01*
X154108D01*
X154868Y109474D02*
Y114808D01*
Y104140D02*
Y109474D01*
X154360Y108966D02*
X154868Y109474D01*
X132814Y105630D02*
X136150Y108966D01*
X154360D01*
X125504Y105630D02*
X132814D01*
X153990Y251460D02*
Y256794D01*
Y246126D02*
Y251460D01*
X139870D02*
X153990D01*
X136026Y247616D02*
X139870Y251460D01*
X152836Y541020D02*
Y546354D01*
Y535686D02*
Y541020D01*
X133726Y537176D02*
X137570Y541020D01*
X152836D01*
X153344Y394462D02*
Y399796D01*
Y389128D02*
Y394462D01*
X58674Y105664D02*
X58691Y105647D01*
X65487D01*
X65504Y105630D01*
X89710Y37726D02*
X89916Y37520D01*
X89710Y37726D02*
Y57424D01*
X89504Y57630D02*
X89710Y57424D01*
X89916Y34544D02*
Y37520D01*
X101552Y37568D02*
X101600Y37520D01*
Y34544D02*
Y37520D01*
X101504Y57630D02*
X101552Y57582D01*
Y37568D02*
Y57582D01*
X45140Y72390D02*
X52337D01*
X42164D02*
X45140D01*
X42299Y60135D02*
X45149D01*
X42236Y60071D02*
X42299Y60135D01*
X45149D02*
X50644Y65630D01*
X42164Y104433D02*
X45101D01*
X46370Y103164D01*
X59904Y89630D02*
X65504D01*
X46370Y103164D02*
X46370D01*
X59904Y89630D01*
X50644Y65630D02*
X65504D01*
X52337Y72390D02*
X57577Y77630D01*
X65504D01*
D15*
X21376Y53126D02*
X25146Y56896D01*
X21376Y44808D02*
X25654Y40530D01*
X21376Y44808D02*
Y53126D01*
X72898Y18614D02*
X73152Y18360D01*
Y12192D02*
Y18360D01*
X155325Y71142D02*
Y74799D01*
X155050Y70866D02*
X155325Y71142D01*
X36140Y99750D02*
Y104394D01*
X35786Y109516D02*
Y114708D01*
X155050Y92202D02*
X159300D01*
X69596Y146923D02*
X69903Y146616D01*
X74346D01*
X80264Y146923D02*
X80596Y146591D01*
X84954D01*
X101600Y146923D02*
X101679Y146844D01*
X31890Y72390D02*
X36140D01*
X31962Y60198D02*
X36212D01*
X89916Y24270D02*
Y28520D01*
X101600Y24270D02*
Y28520D01*
X654304Y251714D02*
X719456D01*
X726034Y229559D02*
Y245137D01*
X719456Y251714D02*
X726034Y245137D01*
X725272Y397415D02*
Y413918D01*
X654304Y419354D02*
X719836D01*
X725272Y413918D01*
X132842Y629666D02*
Y629920D01*
X138684Y623570D02*
Y623824D01*
D17*
X160316Y304570D02*
X161530Y303356D01*
X159004Y305093D02*
X159526Y304570D01*
X160316D01*
X161530Y298356D02*
Y303356D01*
X171702Y301738D02*
X174299D01*
X171180Y302260D02*
X171702Y301738D01*
X174299D02*
Y301749D01*
X161530Y298356D02*
X163322Y296564D01*
Y154070D02*
Y163830D01*
X176022Y296564D02*
Y300026D01*
X174299Y301749D02*
X176022Y300026D01*
X163322Y441852D02*
X163487Y442017D01*
Y450850D01*
X187096Y484355D02*
X188023Y485281D01*
Y491153D01*
X187096Y483616D02*
Y484355D01*
X199784Y484428D02*
X201422Y486067D01*
X199784Y483690D02*
Y484428D01*
X201422Y486067D02*
Y491852D01*
X158496Y11430D02*
X163068D01*
X163322Y11684D01*
X171958Y11430D02*
X175768D01*
X176022Y11684D01*
X201422Y52070D02*
Y61684D01*
X208474Y653951D02*
X210613Y651812D01*
Y647969D02*
Y651812D01*
X203876Y653951D02*
X208474D01*
X199644Y658182D02*
X203876Y653951D01*
X210613Y647969D02*
X210977Y647604D01*
X146774Y214454D02*
Y216404D01*
X143936Y211616D02*
X146774Y214454D01*
Y216404D02*
X153890Y223520D01*
X124626Y207616D02*
X148457D01*
X153890Y202184D01*
X124626Y211616D02*
X143936D01*
X187978Y600946D02*
Y607601D01*
X192786Y596138D02*
X229645D01*
X187978Y600946D02*
X192786Y596138D01*
X228600Y598424D02*
X232410Y602234D01*
X229645Y596138D02*
X233201Y599694D01*
X238066D01*
X209296Y598424D02*
X228600D01*
X207344Y600376D02*
X209296Y598424D01*
X206980Y603601D02*
X207344Y603236D01*
Y600376D02*
Y603236D01*
X221978Y643603D02*
Y657370D01*
X221234Y658114D02*
X221978Y657370D01*
X210312Y658114D02*
X214986Y653440D01*
Y643761D02*
Y653440D01*
Y643761D02*
X218779Y639967D01*
X221613D01*
X221978Y639603D01*
D18*
X201422Y491852D02*
D03*
X188722D02*
D03*
X176022D02*
D03*
X163322D02*
D03*
X201422Y441852D02*
D03*
X188722D02*
D03*
X176022D02*
D03*
X201422Y204070D02*
D03*
X188722D02*
D03*
X176022D02*
D03*
X163322D02*
D03*
X201422Y154070D02*
D03*
X188722D02*
D03*
X176022D02*
D03*
X201422Y346564D02*
D03*
X188722D02*
D03*
X176022D02*
D03*
X163322D02*
D03*
X201422Y296564D02*
D03*
X188722D02*
D03*
X176022D02*
D03*
X201422Y61684D02*
D03*
X188722D02*
D03*
X176022D02*
D03*
X163322D02*
D03*
X201422Y11684D02*
D03*
X188722D02*
D03*
X176022D02*
D03*
D19*
X163322Y441852D02*
D03*
Y154070D02*
D03*
Y296564D02*
D03*
Y11684D02*
D03*
D20*
X217504Y392425D02*
D03*
X656904D02*
D03*
X217504Y224125D02*
D03*
X656904D02*
D03*
X217504Y55896D02*
D03*
X656904D02*
D03*
X217504Y560726D02*
D03*
X656904D02*
D03*
D21*
X279604Y407425D02*
D03*
X292304D02*
D03*
X305004D02*
D03*
X317703D02*
D03*
X330404D02*
D03*
X343103D02*
D03*
X355803D02*
D03*
X419304D02*
D03*
X432004D02*
D03*
X444703D02*
D03*
X457403D02*
D03*
X470103D02*
D03*
X482803D02*
D03*
X495504D02*
D03*
X508204D02*
D03*
X520904D02*
D03*
X533604D02*
D03*
X546303D02*
D03*
X559003D02*
D03*
X571703D02*
D03*
X584403D02*
D03*
X597104D02*
D03*
X279604Y239125D02*
D03*
X292304D02*
D03*
X305004D02*
D03*
X317703D02*
D03*
X330404D02*
D03*
X343103D02*
D03*
X355803D02*
D03*
X419304D02*
D03*
X432004D02*
D03*
X444703D02*
D03*
X457403D02*
D03*
X470103D02*
D03*
X482803D02*
D03*
X495504D02*
D03*
X508204D02*
D03*
X520904D02*
D03*
X533604D02*
D03*
X546303D02*
D03*
X559003D02*
D03*
X571703D02*
D03*
X584403D02*
D03*
X597104D02*
D03*
X279604Y70896D02*
D03*
X292304D02*
D03*
X305004D02*
D03*
X317703D02*
D03*
X330404D02*
D03*
X343103D02*
D03*
X355803D02*
D03*
X419304D02*
D03*
X432004D02*
D03*
X444703D02*
D03*
X457403D02*
D03*
X470103D02*
D03*
X482803D02*
D03*
X495504D02*
D03*
X508204D02*
D03*
X520904D02*
D03*
X533604D02*
D03*
X546303D02*
D03*
X559003D02*
D03*
X571703D02*
D03*
X584403D02*
D03*
X597104D02*
D03*
X279604Y575726D02*
D03*
X292304D02*
D03*
X305004D02*
D03*
X317703D02*
D03*
X330404D02*
D03*
X343103D02*
D03*
X355803D02*
D03*
X419304D02*
D03*
X432004D02*
D03*
X444703D02*
D03*
X457403D02*
D03*
X470103D02*
D03*
X482803D02*
D03*
X495504D02*
D03*
X508204D02*
D03*
X520904D02*
D03*
X533604D02*
D03*
X546303D02*
D03*
X559003D02*
D03*
X571703D02*
D03*
X584403D02*
D03*
X597104D02*
D03*
D22*
X63980Y350618D02*
D03*
Y354618D02*
D03*
Y362618D02*
D03*
Y358618D02*
D03*
Y378618D02*
D03*
Y382618D02*
D03*
Y370618D02*
D03*
Y374618D02*
D03*
Y390618D02*
D03*
Y394618D02*
D03*
Y386618D02*
D03*
Y366618D02*
D03*
X123980Y350618D02*
D03*
Y354618D02*
D03*
Y362618D02*
D03*
Y366618D02*
D03*
Y358618D02*
D03*
Y378618D02*
D03*
Y382618D02*
D03*
Y370618D02*
D03*
Y374618D02*
D03*
Y390618D02*
D03*
Y394618D02*
D03*
Y386618D02*
D03*
X63472Y501176D02*
D03*
Y505176D02*
D03*
X64626Y211616D02*
D03*
Y215616D02*
D03*
X65504Y69630D02*
D03*
Y73630D02*
D03*
X63472Y533176D02*
D03*
Y541176D02*
D03*
X64626Y243616D02*
D03*
Y251616D02*
D03*
X65504Y101630D02*
D03*
Y109630D02*
D03*
Y81630D02*
D03*
X64626Y223616D02*
D03*
X65504Y85630D02*
D03*
X64626Y227616D02*
D03*
X63472Y513176D02*
D03*
Y517176D02*
D03*
Y537176D02*
D03*
Y529176D02*
D03*
Y525176D02*
D03*
Y521176D02*
D03*
Y509176D02*
D03*
Y497176D02*
D03*
X123472D02*
D03*
Y501176D02*
D03*
Y505176D02*
D03*
Y509176D02*
D03*
Y513176D02*
D03*
Y517176D02*
D03*
Y521176D02*
D03*
Y525176D02*
D03*
Y529176D02*
D03*
Y533176D02*
D03*
Y537176D02*
D03*
Y541176D02*
D03*
X65504Y105630D02*
D03*
Y97630D02*
D03*
Y93630D02*
D03*
Y89630D02*
D03*
Y77630D02*
D03*
Y65630D02*
D03*
X125504D02*
D03*
Y69630D02*
D03*
Y73630D02*
D03*
Y77630D02*
D03*
Y81630D02*
D03*
Y85630D02*
D03*
Y89630D02*
D03*
Y93630D02*
D03*
Y97630D02*
D03*
Y101630D02*
D03*
Y105630D02*
D03*
Y109630D02*
D03*
X64626Y247616D02*
D03*
Y239616D02*
D03*
Y235616D02*
D03*
Y231616D02*
D03*
Y219616D02*
D03*
Y207616D02*
D03*
X124626D02*
D03*
Y211616D02*
D03*
Y215616D02*
D03*
Y219616D02*
D03*
Y223616D02*
D03*
Y227616D02*
D03*
Y231616D02*
D03*
Y235616D02*
D03*
Y239616D02*
D03*
Y243616D02*
D03*
Y247616D02*
D03*
Y251616D02*
D03*
D23*
X87980Y342618D02*
D03*
X83980D02*
D03*
X71980D02*
D03*
X79980D02*
D03*
X75980D02*
D03*
X87980Y402618D02*
D03*
X71980D02*
D03*
X83980D02*
D03*
X75980D02*
D03*
X79980D02*
D03*
X107980Y342618D02*
D03*
X103980D02*
D03*
X115980D02*
D03*
X111980D02*
D03*
X91980D02*
D03*
X99980D02*
D03*
X95980D02*
D03*
X111980Y402618D02*
D03*
X115980D02*
D03*
X95980D02*
D03*
X91980D02*
D03*
X107980D02*
D03*
X99980D02*
D03*
X103980D02*
D03*
X115472Y549176D02*
D03*
X111472D02*
D03*
X107472D02*
D03*
X103472D02*
D03*
X99472D02*
D03*
X95472D02*
D03*
X91472D02*
D03*
X87472D02*
D03*
X83472D02*
D03*
X79472D02*
D03*
X75472D02*
D03*
X71472D02*
D03*
Y489176D02*
D03*
X75472D02*
D03*
X79472D02*
D03*
X83472D02*
D03*
X87472D02*
D03*
X91472D02*
D03*
X95472D02*
D03*
X99472D02*
D03*
X103472D02*
D03*
X107472D02*
D03*
X111472D02*
D03*
X115472D02*
D03*
X117504Y117630D02*
D03*
X113504D02*
D03*
X109504D02*
D03*
X105504D02*
D03*
X101504D02*
D03*
X97504D02*
D03*
X93504D02*
D03*
X89504D02*
D03*
X85504D02*
D03*
X81504D02*
D03*
X77504D02*
D03*
X73504D02*
D03*
Y57630D02*
D03*
X77504D02*
D03*
X81504D02*
D03*
X85504D02*
D03*
X89504D02*
D03*
X93504D02*
D03*
X97504D02*
D03*
X101504D02*
D03*
X105504D02*
D03*
X109504D02*
D03*
X113504D02*
D03*
X117504D02*
D03*
X116626Y259616D02*
D03*
X112626D02*
D03*
X108626D02*
D03*
X104626D02*
D03*
X100626D02*
D03*
X96626D02*
D03*
X92626D02*
D03*
X88626D02*
D03*
X84626D02*
D03*
X80626D02*
D03*
X76626D02*
D03*
X72626D02*
D03*
Y199616D02*
D03*
X76626D02*
D03*
X80626D02*
D03*
X84626D02*
D03*
X88626D02*
D03*
X92626D02*
D03*
X96626D02*
D03*
X100626D02*
D03*
X104626D02*
D03*
X108626D02*
D03*
X112626D02*
D03*
X116626D02*
D03*
D24*
X93980Y372618D02*
D03*
X93472Y519176D02*
D03*
X95504Y87630D02*
D03*
X94626Y229616D02*
D03*
D25*
X87376Y469066D02*
D03*
Y460066D02*
D03*
X79386Y288909D02*
D03*
Y279909D02*
D03*
X113030Y37270D02*
D03*
Y28770D02*
D03*
X188976Y666932D02*
D03*
Y657932D02*
D03*
X210312Y666614D02*
D03*
X199644Y666682D02*
D03*
X221234Y666614D02*
D03*
X68072Y422911D02*
D03*
X67564Y569469D02*
D03*
X69596Y137923D02*
D03*
X68718Y279909D02*
D03*
X78232Y578469D02*
D03*
X99568Y460066D02*
D03*
Y578469D02*
D03*
X67564D02*
D03*
X71120Y447112D02*
D03*
X23622Y468702D02*
D03*
X88900Y578469D02*
D03*
X110236Y578186D02*
D03*
X112268Y146640D02*
D03*
X111390Y288626D02*
D03*
X110744Y431628D02*
D03*
X72898Y18614D02*
D03*
X25654Y40530D02*
D03*
X70358Y161108D02*
D03*
X23114Y182952D02*
D03*
X90932Y146922D02*
D03*
X69596Y146923D02*
D03*
X90054Y288908D02*
D03*
X68718Y288909D02*
D03*
X101600Y28520D02*
D03*
X89916D02*
D03*
X80264Y146923D02*
D03*
X101600D02*
D03*
X88922Y170506D02*
D03*
X100722Y288909D02*
D03*
Y170506D02*
D03*
X70104Y303022D02*
D03*
X22860Y325192D02*
D03*
X89408Y431910D02*
D03*
X68072Y431911D02*
D03*
X87884Y313762D02*
D03*
X100076Y431911D02*
D03*
Y313508D02*
D03*
X78740Y431911D02*
D03*
X199644Y658182D02*
D03*
X210312Y658114D02*
D03*
X221234D02*
D03*
X101600Y37520D02*
D03*
X88922Y179506D02*
D03*
X70358Y170108D02*
D03*
X23114Y191952D02*
D03*
X87884Y322762D02*
D03*
X100722Y179506D02*
D03*
X112036Y171010D02*
D03*
Y179510D02*
D03*
X99568Y569469D02*
D03*
X110236Y569686D02*
D03*
X110998Y460316D02*
D03*
Y468816D02*
D03*
X99568Y469066D02*
D03*
X120904Y569468D02*
D03*
Y578468D02*
D03*
X78232Y569469D02*
D03*
X88900D02*
D03*
X71120Y456112D02*
D03*
X23622Y477702D02*
D03*
X70104Y312022D02*
D03*
X22860Y334192D02*
D03*
X121412Y422982D02*
D03*
Y431982D02*
D03*
X78740Y422911D02*
D03*
X100076D02*
D03*
X89408Y422910D02*
D03*
X110744Y423128D02*
D03*
X111506Y314012D02*
D03*
Y322512D02*
D03*
X100076Y322508D02*
D03*
X122058Y279980D02*
D03*
Y288980D02*
D03*
X111390Y280126D02*
D03*
X90054Y279908D02*
D03*
X100722Y279909D02*
D03*
X112268Y138140D02*
D03*
X72898Y27614D02*
D03*
X25654Y49530D02*
D03*
X90932Y137922D02*
D03*
X89916Y37520D02*
D03*
X80264Y137923D02*
D03*
X101600D02*
D03*
X122936Y146994D02*
D03*
Y137994D02*
D03*
D26*
X144743Y366522D02*
D03*
X153244D02*
D03*
X145389Y223520D02*
D03*
X153890D02*
D03*
X146267Y81534D02*
D03*
X154768D02*
D03*
X45140Y93726D02*
D03*
X36140D02*
D03*
X43616Y368046D02*
D03*
Y378714D02*
D03*
X34108Y514604D02*
D03*
Y525272D02*
D03*
X34616Y368046D02*
D03*
Y378714D02*
D03*
X35262Y225044D02*
D03*
Y235712D02*
D03*
X36140Y83058D02*
D03*
X238070Y624332D02*
D03*
Y635000D02*
D03*
X247070D02*
D03*
Y624332D02*
D03*
X45140Y83058D02*
D03*
X44262Y225044D02*
D03*
Y235712D02*
D03*
X43108Y514604D02*
D03*
Y525272D02*
D03*
X235784Y5334D02*
D03*
X244784D02*
D03*
X235784Y16002D02*
D03*
X244784D02*
D03*
X235784Y184404D02*
D03*
X244784D02*
D03*
X238066Y599694D02*
D03*
X246566D02*
D03*
X145868Y104140D02*
D03*
X144344Y389128D02*
D03*
X144990Y246126D02*
D03*
X143836Y535686D02*
D03*
X34108Y503936D02*
D03*
X153018Y523748D02*
D03*
X34108Y535940D02*
D03*
X168474Y572516D02*
D03*
X153018Y502412D02*
D03*
X34362Y491744D02*
D03*
X34108Y546608D02*
D03*
X152836Y535686D02*
D03*
Y546354D02*
D03*
X36140Y115062D02*
D03*
X154868Y114808D02*
D03*
Y104140D02*
D03*
X35262Y257048D02*
D03*
X198302Y217932D02*
D03*
X153990Y246126D02*
D03*
X36212Y60198D02*
D03*
X36140Y104394D02*
D03*
Y72390D02*
D03*
X155050Y92202D02*
D03*
X35334Y202184D02*
D03*
X154172Y234188D02*
D03*
X35262Y246380D02*
D03*
Y214376D02*
D03*
X170506Y140970D02*
D03*
X169628Y282956D02*
D03*
X155050Y70866D02*
D03*
X154172Y212852D02*
D03*
X153344Y399796D02*
D03*
X34616Y400050D02*
D03*
X153344Y389128D02*
D03*
Y377698D02*
D03*
X34616Y357378D02*
D03*
Y389382D02*
D03*
X34688Y345186D02*
D03*
X168982Y425958D02*
D03*
X153526Y355854D02*
D03*
X246566Y610616D02*
D03*
X197286Y507492D02*
D03*
X197468Y360934D02*
D03*
X153990Y256794D02*
D03*
X199064Y75946D02*
D03*
X238066Y610616D02*
D03*
X188286Y507492D02*
D03*
X190064Y75946D02*
D03*
X189302Y217932D02*
D03*
X188468Y360934D02*
D03*
X767139Y596342D02*
D03*
Y581106D02*
D03*
Y428118D02*
D03*
Y412907D02*
D03*
Y259843D02*
D03*
Y244632D02*
D03*
Y91695D02*
D03*
Y76611D02*
D03*
X263834Y35814D02*
D03*
X254834D02*
D03*
X177474Y572516D02*
D03*
X143836Y546354D02*
D03*
X152736Y491744D02*
D03*
X144235D02*
D03*
X144018Y502412D02*
D03*
Y523748D02*
D03*
X152736Y513080D02*
D03*
X144235D02*
D03*
X43362Y491744D02*
D03*
X43108Y535940D02*
D03*
Y546608D02*
D03*
Y503936D02*
D03*
X144344Y399796D02*
D03*
X153244Y345186D02*
D03*
X144743D02*
D03*
X144526Y355854D02*
D03*
X177982Y425958D02*
D03*
X144344Y377698D02*
D03*
X43616Y357378D02*
D03*
X43688Y345186D02*
D03*
X43616Y389382D02*
D03*
Y400050D02*
D03*
X153890Y202184D02*
D03*
X145389D02*
D03*
X145172Y234188D02*
D03*
X178628Y282956D02*
D03*
X145172Y212852D02*
D03*
X144990Y256794D02*
D03*
X44262Y257048D02*
D03*
Y246380D02*
D03*
X44334Y202184D02*
D03*
X44262Y214376D02*
D03*
X758639Y76611D02*
D03*
Y91695D02*
D03*
Y244632D02*
D03*
Y259843D02*
D03*
Y412907D02*
D03*
Y428118D02*
D03*
Y581106D02*
D03*
Y596342D02*
D03*
X146267Y60198D02*
D03*
X154768D02*
D03*
X45140Y115062D02*
D03*
X145868Y114808D02*
D03*
X45212Y60198D02*
D03*
X45140Y104394D02*
D03*
Y72390D02*
D03*
X146050Y92202D02*
D03*
X179506Y140970D02*
D03*
X146050Y70866D02*
D03*
X236872Y511302D02*
D03*
X245872D02*
D03*
X235530Y341884D02*
D03*
X244530D02*
D03*
X236872Y521970D02*
D03*
X245872D02*
D03*
X235530Y352552D02*
D03*
X244530D02*
D03*
X255778Y531114D02*
D03*
X264778D02*
D03*
X254508Y361696D02*
D03*
X263508D02*
D03*
X255778Y541782D02*
D03*
X264778D02*
D03*
X254508Y372364D02*
D03*
X263508D02*
D03*
X235784Y173736D02*
D03*
X244784D02*
D03*
X254834Y193294D02*
D03*
X263834D02*
D03*
X254762Y25146D02*
D03*
X263762D02*
D03*
X254834Y203962D02*
D03*
X263834D02*
D03*
D27*
X170942Y366238D02*
D03*
Y394238D02*
D03*
X170434Y540796D02*
D03*
Y512796D02*
D03*
X171588Y251236D02*
D03*
Y223236D02*
D03*
X172466Y81250D02*
D03*
Y109250D02*
D03*
D28*
X162782Y600696D02*
D03*
Y605696D02*
D03*
Y615696D02*
D03*
Y620696D02*
D03*
Y630428D02*
D03*
Y635428D02*
D03*
Y645428D02*
D03*
Y650428D02*
D03*
X154432D02*
D03*
Y645428D02*
D03*
Y630428D02*
D03*
Y635428D02*
D03*
Y620696D02*
D03*
Y615696D02*
D03*
Y600696D02*
D03*
Y605696D02*
D03*
D29*
X41284Y43774D02*
D03*
Y22774D02*
D03*
X58284D02*
D03*
Y43774D02*
D03*
X38998Y186268D02*
D03*
Y165268D02*
D03*
X55998D02*
D03*
Y186268D02*
D03*
X38744Y328508D02*
D03*
Y307508D02*
D03*
X55744D02*
D03*
Y328508D02*
D03*
X39506Y472272D02*
D03*
Y451272D02*
D03*
X56506D02*
D03*
Y472272D02*
D03*
D30*
X161152Y559308D02*
D03*
X163184Y127762D02*
D03*
X162306Y269748D02*
D03*
X161660Y412750D02*
D03*
X175652Y559308D02*
D03*
X176160Y412750D02*
D03*
X176806Y269748D02*
D03*
X177684Y127762D02*
D03*
D31*
X741680Y81618D02*
D03*
Y62110D02*
D03*
Y249648D02*
D03*
Y230140D02*
D03*
Y417878D02*
D03*
Y398370D02*
D03*
Y586108D02*
D03*
Y566600D02*
D03*
D32*
X741679Y124619D02*
D03*
Y292849D02*
D03*
Y461079D02*
D03*
Y629311D02*
D03*
D33*
Y143619D02*
D03*
Y311849D02*
D03*
Y480079D02*
D03*
Y648311D02*
D03*
D57*
X133040Y622331D02*
G03*
X133775Y620554I2515J0D01*
G01*
X133040Y622733D02*
G03*
X132588Y623824I-1543J0D01*
G01*
X152852Y620696D02*
G03*
X152434Y620523I0J-591D01*
G01*
X150637Y619358D02*
G03*
X152098Y619961I0J2071D01*
G01*
X133775Y620554D02*
G03*
X133777Y620552I1780J1776D01*
G01*
X136323Y619358D02*
G03*
X136336Y619358I13J3296D01*
G01*
X134005Y620323D02*
G03*
X136323Y619358I2331J2331D01*
G01*
X132133Y618909D02*
G03*
X132131Y618911I-1778J-1778D01*
G01*
D02*
G03*
X130355Y619646I-1776J-1780D01*
G01*
X128862Y620098D02*
G03*
X129953Y619646I1091J1091D01*
G01*
X152261Y616042D02*
G03*
X152102Y616426I-545J0D01*
G01*
X152101Y616427D02*
G03*
X150637Y617034I-1465J-1465D01*
G01*
X152102Y616426D02*
G03*
X152101Y616427I-386J-384D01*
G01*
X152434Y615869D02*
G03*
X152852Y615696I418J418D01*
G01*
X135840Y617034D02*
G03*
X135855Y617034I15J4458D01*
G01*
X152101Y619965D02*
G03*
X152261Y620350I-385J385D01*
G01*
X152098Y619961D02*
G03*
X152101Y619965I-1461J1468D01*
G01*
X132702Y618340D02*
G03*
X132706Y618336I3152J3152D01*
G01*
D02*
G03*
X135840Y617034I3149J3156D01*
G01*
X135595Y636003D02*
G03*
X140213Y634090I4618J4618D01*
G01*
X150953D02*
G03*
X151878Y634473I0J1308D01*
G01*
X134912Y636686D02*
G03*
X127709Y639668I-7203J-7209D01*
G01*
X152420Y635241D02*
G03*
X152261Y634856I386J-384D01*
G01*
X152871Y635428D02*
G03*
X152421Y635242I0J-636D01*
G01*
X119832Y644831D02*
G03*
X119385Y645917I-1543J0D01*
G01*
X121830Y641389D02*
G03*
X125984Y639668I4154J4154D01*
G01*
X119832Y644428D02*
G03*
X120567Y642652I2515J0D01*
G01*
D02*
G03*
X120569Y642651I1780J1776D01*
G01*
X133964Y634347D02*
G03*
X140200Y631766I6236J6242D01*
G01*
X133961Y634350D02*
G03*
X133964Y634347I6239J6239D01*
G01*
X120205Y639727D02*
G03*
X125968Y637344I5763J5778D01*
G01*
X133952Y634359D02*
G03*
X126746Y637344I-7206J-7206D01*
G01*
X152421Y630614D02*
G03*
X152871Y630428I450J450D01*
G01*
X151878Y631383D02*
G03*
X150953Y631766I-925J-925D01*
G01*
X152261Y631000D02*
G03*
X152421Y630614I545J0D01*
G01*
X118925Y641007D02*
G03*
X118923Y641009I-1778J-1778D01*
G01*
X115653Y642196D02*
G03*
X116745Y641743I1091J1091D01*
G01*
X118923Y641009D02*
G03*
X117147Y641743I-1776J-1780D01*
G01*
X120198Y639734D02*
G03*
X120205Y639727I5771J5771D01*
G01*
X119385Y645917D02*
G03*
X119380Y645922I-1096J-1086D01*
G01*
X152421Y635242D02*
G03*
X152420Y635241I385J-385D01*
G01*
X134915Y636684D02*
G03*
X134912Y636686I-7206J-7206D01*
G01*
X152852Y650428D02*
G03*
X152434Y650255I0J-591D01*
G01*
X147426Y649827D02*
G03*
X147428Y649825I1778J1778D01*
G01*
X147141Y650111D02*
G03*
X146050Y650563I-1091J-1091D01*
G01*
X147428Y649825D02*
G03*
X149204Y649090I1776J1780D01*
G01*
X152101Y646159D02*
G03*
X150637Y646766I-1465J-1465D01*
G01*
X152102Y646158D02*
G03*
X152101Y646159I-386J-384D01*
G01*
X149204Y646766D02*
G03*
X147428Y646031I0J-2515D01*
G01*
D02*
G03*
X147426Y646030I1776J-1780D01*
G01*
X152261Y645774D02*
G03*
X152102Y646158I-545J0D01*
G01*
X152434Y645601D02*
G03*
X152852Y645428I418J418D01*
G01*
X146361Y645325D02*
G03*
X147141Y645745I-311J1512D01*
G01*
X152101Y649697D02*
G03*
X152261Y650082I-385J385D01*
G01*
X152098Y649693D02*
G03*
X152101Y649697I-1461J1468D01*
G01*
X150637Y649090D02*
G03*
X152098Y649693I0J2071D01*
G01*
X146050Y645293D02*
G03*
X146361Y645325I0J1543D01*
G01*
X34845Y92431D02*
G03*
X34843Y92429I1331J-1331D01*
G01*
D02*
G03*
X34294Y91100I1334J-1329D01*
G01*
X27712Y90575D02*
G03*
X26620Y91027I-1091J-1091D01*
G01*
X27996Y90290D02*
G03*
X27998Y90289I1778J1778D01*
G01*
D02*
G03*
X29774Y89554I1776J1780D01*
G01*
X32986D02*
G03*
X33908Y89935I0J1308D01*
G01*
Y86849D02*
G03*
X32986Y87230I-923J-927D01*
G01*
X34294Y85922D02*
G03*
X33911Y86847I-1308J0D01*
G01*
X29774Y87230D02*
G03*
X27998Y86495I0J-2515D01*
G01*
D02*
G03*
X27996Y86494I1776J-1780D01*
G01*
X26620Y85757D02*
G03*
X27712Y86209I0J1543D01*
G01*
X34294Y85684D02*
G03*
X34843Y84355I1883J0D01*
G01*
D02*
G03*
X34845Y84353I1334J1329D01*
G01*
X33911Y89937D02*
G03*
X34294Y90862I-925J925D01*
G01*
X33908Y89935D02*
G03*
X33911Y89937I-923J927D01*
G01*
Y86847D02*
G03*
X33908Y86849I-925J-925D01*
G01*
X33416Y227908D02*
G03*
X33033Y228833I-1308J0D01*
G01*
X33030Y228835D02*
G03*
X32108Y229216I-923J-927D01*
G01*
X29570D02*
G03*
X27794Y228481I0J-2515D01*
G01*
D02*
G03*
X27792Y228479I1776J-1780D01*
G01*
X26416Y227743D02*
G03*
X27507Y228195I0J1543D01*
G01*
X33965Y226341D02*
G03*
X33967Y226339I1334J1329D01*
G01*
X33416Y227670D02*
G03*
X33965Y226341I1883J0D01*
G01*
X33967Y234417D02*
G03*
X33965Y234415I1331J-1331D01*
G01*
D02*
G03*
X33416Y233086I1334J-1329D01*
G01*
X27507Y232561D02*
G03*
X26416Y233013I-1091J-1091D01*
G01*
X27792Y232276D02*
G03*
X27794Y232275I1778J1778D01*
G01*
D02*
G03*
X29570Y231540I1776J1780D01*
G01*
X32108D02*
G03*
X33030Y231921I0J1308D01*
G01*
X33033Y228833D02*
G03*
X33030Y228835I-925J-925D01*
G01*
X33033Y231923D02*
G03*
X33416Y232848I-925J925D01*
G01*
X33030Y231921D02*
G03*
X33033Y231923I-923J927D01*
G01*
X32384Y371837D02*
G03*
X31462Y372218I-923J-927D01*
G01*
X29570D02*
G03*
X27794Y371483I0J-2515D01*
G01*
X32770Y370672D02*
G03*
X33319Y369343I1883J0D01*
G01*
X32770Y370910D02*
G03*
X32387Y371835I-1308J0D01*
G01*
X33319Y369343D02*
G03*
X33321Y369341I1334J1329D01*
G01*
X27794Y371483D02*
G03*
X27792Y371482I1776J-1780D01*
G01*
X26416Y370745D02*
G03*
X27507Y371197I0J1543D01*
G01*
X33321Y377420D02*
G03*
X33319Y377417I1331J-1331D01*
G01*
D02*
G03*
X32770Y376088I1334J-1329D01*
G01*
X31462Y374542D02*
G03*
X32384Y374923I0J1308D01*
G01*
X27507Y375563D02*
G03*
X26416Y376015I-1091J-1091D01*
G01*
X27792Y375279D02*
G03*
X27794Y375277I1778J1778D01*
G01*
D02*
G03*
X29570Y374542I1776J1780D01*
G01*
X32387Y371835D02*
G03*
X32384Y371837I-925J-925D01*
G01*
X32387Y374925D02*
G03*
X32770Y375850I-925J925D01*
G01*
X32384Y374923D02*
G03*
X32387Y374925I-923J927D01*
G01*
X32262Y517468D02*
G03*
X31879Y518393I-1308J0D01*
G01*
X31876Y518395D02*
G03*
X30954Y518776I-923J-927D01*
G01*
X29570D02*
G03*
X27794Y518041I0J-2515D01*
G01*
D02*
G03*
X27792Y518040I1776J-1780D01*
G01*
X32262Y517230D02*
G03*
X32811Y515901I1883J0D01*
G01*
D02*
G03*
X32813Y515899I1334J1329D01*
G01*
X26416Y517303D02*
G03*
X27507Y517755I0J1543D01*
G01*
X32813Y523978D02*
G03*
X32811Y523975I1331J-1331D01*
G01*
D02*
G03*
X32262Y522646I1334J-1329D01*
G01*
X27507Y522121D02*
G03*
X26416Y522573I-1091J-1091D01*
G01*
X30954Y521100D02*
G03*
X31876Y521481I0J1308D01*
G01*
X27794Y521835D02*
G03*
X29570Y521100I1776J1780D01*
G01*
X27792Y521837D02*
G03*
X27794Y521835I1778J1778D01*
G01*
X31879Y518393D02*
G03*
X31876Y518395I-925J-925D01*
G01*
X31879Y521483D02*
G03*
X32262Y522408I-925J925D01*
G01*
X31876Y521481D02*
G03*
X31879Y521483I-923J927D01*
G01*
X152852Y605696D02*
G03*
X152434Y605523I0J-591D01*
G01*
X152101Y604965D02*
G03*
X152102Y604966I-385J385D01*
G01*
X130123Y605379D02*
G03*
X129032Y605831I-1091J-1091D01*
G01*
X130408Y605094D02*
G03*
X130410Y605093I1778J1778D01*
G01*
D02*
G03*
X132186Y604358I1776J1780D01*
G01*
X150637D02*
G03*
X152101Y604965I0J2071D01*
G01*
X152098Y601431D02*
G03*
X150637Y602034I-1461J-1468D01*
G01*
X132186D02*
G03*
X130410Y601299I0J-2515D01*
G01*
X152261Y601042D02*
G03*
X152101Y601427I-545J0D01*
G01*
X130410Y601299D02*
G03*
X130408Y601297I1776J-1780D01*
G01*
X152434Y600869D02*
G03*
X152852Y600696I418J418D01*
G01*
X129032Y600561D02*
G03*
X130123Y601013I0J1543D01*
G01*
X152102Y604966D02*
G03*
X152261Y605350I-386J384D01*
G01*
X152101Y601427D02*
G03*
X152098Y601431I-1465J-1465D01*
G01*
X402638Y601735D02*
G03*
X400207Y600728I0J-3438D01*
G01*
X410118Y600412D02*
G03*
X406925Y601735I-3194J-3194D01*
G01*
X397776Y599721D02*
G03*
X400207Y600728I0J3438D01*
G01*
X397756Y599721D02*
G03*
X396665Y599269I0J-1543D01*
G01*
X404622Y587464D02*
G03*
X409301Y589402I0J6617D01*
G01*
X378341Y590431D02*
G03*
X372626Y592798I-5715J-5715D01*
G01*
X268566D02*
G03*
X265459Y591513I0J-4398D01*
G01*
X378341Y590431D02*
G03*
X378344Y590427I7162J7162D01*
G01*
D02*
G03*
X385503Y587464I7158J7166D01*
G01*
X265459Y591513D02*
G03*
X265456Y591510I3107J-3113D01*
G01*
X78760Y593085D02*
G03*
X88364Y589107I9629J9668D01*
G01*
X75801Y600191D02*
G03*
X78723Y593122I10013J0D01*
G01*
D02*
G03*
X78734Y593111I7091J7069D01*
G01*
X259656Y589107D02*
G03*
X265456Y591510I0J8203D01*
G01*
X409160Y597132D02*
G03*
X408487Y598757I-2298J0D01*
G01*
X408335Y598895D02*
G03*
X406908Y599411I-1427J-1717D01*
G01*
X403120D02*
G03*
X401510Y598744I0J-2276D01*
G01*
X401401Y598627D02*
G03*
X400844Y597135I1718J-1492D01*
G01*
X400392Y595542D02*
G03*
X400844Y596634I-1091J1091D01*
G01*
X404604Y589788D02*
G03*
X407670Y591058I0J4336D01*
G01*
X379963Y592095D02*
G03*
X372655Y595122I-7308J-7308D01*
G01*
X268544Y595122D02*
G03*
X263832Y593172I0J-6670D01*
G01*
X379967Y592091D02*
G03*
X385533Y589788I5566J5574D01*
G01*
X78125Y600202D02*
G03*
X80385Y594747I7714J0D01*
G01*
X259634Y591431D02*
G03*
X263828Y593168I0J5930D01*
G01*
X80385Y594747D02*
G03*
X88390Y591431I8005J8005D01*
G01*
X411484Y597320D02*
G03*
X410263Y600267I-4169J-1D01*
G01*
X409998Y590099D02*
G03*
X411484Y593692I-3601J3593D01*
G01*
X409994Y590095D02*
G03*
X409998Y590099I-3597J3597D01*
G01*
X88364Y589107D02*
G03*
X88390Y589107I26J13645D01*
G01*
X408487Y598757D02*
G03*
X408335Y598895I-1579J-1579D01*
G01*
X401510Y598744D02*
G03*
X401401Y598627I1609J-1609D01*
G01*
X407674Y591062D02*
G03*
X409160Y594655I-3601J3593D01*
G01*
X407670Y591058D02*
G03*
X407674Y591062I-3597J3597D01*
G01*
X379963Y592095D02*
G03*
X379967Y592091I5570J5570D01*
G01*
X263832Y593172D02*
G03*
X263828Y593168I4712J-4721D01*
G01*
X164793Y605510D02*
G03*
X164343Y605696I-449J-451D01*
G01*
X164795Y605509D02*
G03*
X164793Y605510I-386J-384D01*
G01*
X164953Y605124D02*
G03*
X164795Y605509I-545J0D01*
G01*
X165336Y604741D02*
G03*
X166261Y604358I925J925D01*
G01*
X170413Y605583D02*
G03*
X170414Y605584I-2959J2962D01*
G01*
X167454Y604358D02*
G03*
X170413Y605583I0J4187D01*
G01*
X180436Y614144D02*
G03*
X176461Y611631I3589J-10076D01*
G01*
X184024Y614764D02*
G03*
X180436Y614144I0J-10696D01*
G01*
X184047Y614764D02*
G03*
X185059Y615183I0J1431D01*
G01*
X186070Y615602D02*
G03*
X185059Y615183I0J-1431D01*
G01*
X164343Y600696D02*
G03*
X164793Y600882I0J636D01*
G01*
D02*
G03*
X164953Y601268I-385J385D01*
G01*
X166261Y602034D02*
G03*
X165336Y601651I0J-1308D01*
G01*
X167935Y602034D02*
G03*
X171717Y603601I0J5349D01*
G01*
X181679Y612100D02*
G03*
X178088Y609972I2368J-8087D01*
G01*
X184047Y612440D02*
G03*
X181679Y612100I0J-8427D01*
G01*
X185059Y612021D02*
G03*
X184047Y612440I-1012J-1012D01*
G01*
X185059Y612021D02*
G03*
X186070Y611601I1012J1012D01*
G01*
X164793Y620510D02*
G03*
X164343Y620696I-450J-450D01*
G01*
X164953Y620124D02*
G03*
X164793Y620510I-545J0D01*
G01*
X165336Y619741D02*
G03*
X166261Y619358I925J925D01*
G01*
X171144D02*
G03*
X175254Y621060I0J5811D01*
G01*
X175730Y621486D02*
G03*
X175254Y621060I3634J-4535D01*
G01*
X179363Y622762D02*
G03*
X175730Y621486I0J-5811D01*
G01*
X184047Y622762D02*
G03*
X185059Y623181I0J1431D01*
G01*
X186070Y623601D02*
G03*
X185059Y623181I0J-1431D01*
G01*
X164343Y615696D02*
G03*
X164793Y615882I0J636D01*
G01*
X164795Y615883D02*
G03*
X164953Y616268I-386J384D01*
G01*
X164793Y615882D02*
G03*
X164795Y615883I-385J385D01*
G01*
X166261Y617034D02*
G03*
X165336Y616651I0J-1308D01*
G01*
X173565Y617034D02*
G03*
X175186Y617705I0J2292D01*
G01*
X176692Y619162D02*
G03*
X176216Y618736I3634J-4535D01*
G01*
X180326Y620438D02*
G03*
X176692Y619162I0J-5811D01*
G01*
X185059Y620019D02*
G03*
X184047Y620438I-1012J-1012D01*
G01*
X185059Y620019D02*
G03*
X186070Y619600I1012J1012D01*
G01*
X164343Y630428D02*
G03*
X164793Y630614I0J636D01*
G01*
D02*
G03*
X164953Y631000I-385J385D01*
G01*
X166261Y631766D02*
G03*
X165336Y631383I0J-1308D01*
G01*
X175254Y630103D02*
G03*
X171238Y631766I-4016J-4016D01*
G01*
X175724Y629682D02*
G03*
X179270Y628439I3545J4437D01*
G01*
X175254Y630103D02*
G03*
X175724Y629682I4016J4016D01*
G01*
X185059Y628020D02*
G03*
X184047Y628439I-1012J-1012D01*
G01*
X185059Y628020D02*
G03*
X186070Y627601I1012J1012D01*
G01*
X164793Y635242D02*
G03*
X164343Y635428I-449J-451D01*
G01*
X164795Y635241D02*
G03*
X164793Y635242I-386J-384D01*
G01*
X164953Y634856D02*
G03*
X164795Y635241I-545J0D01*
G01*
X165336Y634473D02*
G03*
X166261Y634090I925J925D01*
G01*
X176216Y632427D02*
G03*
X172201Y634090I-4016J-4016D01*
G01*
X176687Y632006D02*
G03*
X180232Y630763I3545J4437D01*
G01*
X176216Y632427D02*
G03*
X176687Y632006I4016J4016D01*
G01*
X184047Y630763D02*
G03*
X185059Y631182I0J1431D01*
G01*
X186070Y631601D02*
G03*
X185059Y631182I0J-1431D01*
G01*
X164343Y645428D02*
G03*
X164793Y645614I0J636D01*
G01*
X164795Y645615D02*
G03*
X164953Y646000I-386J384D01*
G01*
X164793Y645614D02*
G03*
X164795Y645615I-385J385D01*
G01*
X166261Y646766D02*
G03*
X165336Y646383I0J-1308D01*
G01*
X172308Y645047D02*
G03*
X168154Y646766I-4154J-4159D01*
G01*
X172310Y645044D02*
G03*
X172308Y645047I-4156J-4156D01*
G01*
X178721Y638634D02*
G03*
X184030Y636439I5309J5324D01*
G01*
X178714Y638641D02*
G03*
X178721Y638634I5316J5316D01*
G01*
X185058Y636022D02*
G03*
X184049Y636439I-1009J-1012D01*
G01*
X185059Y636020D02*
G03*
X185058Y636022I-1010J-1010D01*
G01*
X185061Y636019D02*
G03*
X186070Y635602I1009J1012D01*
G01*
X185059Y636020D02*
G03*
X185061Y636019I1010J1010D01*
G01*
X164793Y650242D02*
G03*
X164343Y650428I-450J-450D01*
G01*
X164953Y649856D02*
G03*
X164793Y650242I-545J0D01*
G01*
X165336Y649473D02*
G03*
X166261Y649090I925J925D01*
G01*
X173613Y647028D02*
G03*
X168635Y649090I-4978J-4978D01*
G01*
X180346Y640296D02*
G03*
X184049Y638763I3703J3708D01*
G01*
X180344Y640298D02*
G03*
X180346Y640296I3706J3706D01*
G01*
X185058Y639180D02*
G03*
X185059Y639182I-1009J1012D01*
G01*
X184049Y638763D02*
G03*
X185058Y639180I0J1429D01*
G01*
X185061Y639183D02*
G03*
X185059Y639182I1009J-1012D01*
G01*
X186070Y639600D02*
G03*
X185061Y639183I0J-1429D01*
G01*
X225909Y616440D02*
G03*
X224897Y616021I0J-1431D01*
G01*
X223885Y615602D02*
G03*
X224897Y616021I0J1431D01*
G01*
X264022Y605814D02*
G03*
X277832Y600094I13810J13810D01*
G01*
X257753Y612083D02*
G03*
X247233Y616440I-10520J-10520D01*
G01*
X382784Y600094D02*
G03*
X388082Y602288I0J7493D01*
G01*
X388096Y602303D02*
G03*
X388095Y602302I2464J-2466D01*
G01*
X390560Y603323D02*
G03*
X388096Y602303I0J-3486D01*
G01*
X390560Y603323D02*
G03*
X391651Y603775I0J1543D01*
G01*
X224897Y619183D02*
G03*
X225909Y618764I1012J1012D01*
G01*
X224897Y619183D02*
G03*
X223885Y619603I-1012J-1012D01*
G01*
X277897Y602439D02*
G03*
X278794Y602418I898J19510D01*
G01*
X264984Y608138D02*
G03*
X277897Y602439I13810J13810D01*
G01*
X258716Y614407D02*
G03*
X248196Y618764I-10520J-10520D01*
G01*
X382765Y602418D02*
G03*
X386452Y603945I0J5214D01*
G01*
X386453Y603946D02*
G03*
X387473Y606410I-2466J2464D01*
G01*
X386452Y603945D02*
G03*
X386453Y603946I-2465J2465D01*
G01*
X387925Y607501D02*
G03*
X387473Y606410I1091J-1091D01*
G01*
X224897Y631185D02*
G03*
X223885Y631604I-1012J-1012D01*
G01*
X225492Y630828D02*
G03*
X225909Y630766I417J1369D01*
G01*
X224897Y631185D02*
G03*
X225492Y630828I1012J1012D01*
G01*
X235838Y631209D02*
G03*
X235841Y631211I-923J927D01*
G01*
X234916Y630828D02*
G03*
X235838Y631209I0J1308D01*
G01*
X236773Y633703D02*
G03*
X236224Y632374I1334J-1329D01*
G01*
X236775Y633705D02*
G03*
X236773Y633703I1331J-1331D01*
G01*
X223885Y627603D02*
G03*
X224897Y628023I0J1431D01*
G01*
X225909Y628442D02*
G03*
X224897Y628023I0J-1431D01*
G01*
X235838Y628123D02*
G03*
X234916Y628504I-923J-927D01*
G01*
X235841Y628121D02*
G03*
X235838Y628123I-925J-925D01*
G01*
X236224Y627196D02*
G03*
X235841Y628121I-1308J0D01*
G01*
X236773Y625629D02*
G03*
X236775Y625626I1334J1329D01*
G01*
X236224Y626958D02*
G03*
X236773Y625629I1883J0D01*
G01*
X235841Y631211D02*
G03*
X236224Y632136I-925J925D01*
G01*
X379439Y615988D02*
G03*
X378987Y614896I1091J-1091D01*
G01*
X376377Y611924D02*
G03*
X378219Y612685I0J2609D01*
G01*
X268314Y617549D02*
G03*
X281905Y611924I13591J13605D01*
G01*
X257547Y628316D02*
G03*
X251483Y630828I-6064J-6064D01*
G01*
X248198Y633872D02*
G03*
X248196Y633874I-1740J-1736D01*
G01*
X248916Y632136D02*
G03*
X248198Y633872I-2457J0D01*
G01*
X249297Y631214D02*
G03*
X249299Y631211I927J923D01*
G01*
X248916Y632136D02*
G03*
X249297Y631214I1308J0D01*
G01*
X249299Y631211D02*
G03*
X250224Y630828I925J925D01*
G01*
X382074Y611809D02*
G03*
X383165Y612261I0J1543D01*
G01*
X382074Y611809D02*
G03*
X379610Y610789I0J-3486D01*
G01*
D02*
G03*
X379609Y610788I2464J-2466D01*
G01*
X377465Y609600D02*
G03*
X379097Y610276I0J2308D01*
G01*
X255916Y626660D02*
G03*
X251460Y628504I-4456J-4464D01*
G01*
X267351Y615225D02*
G03*
X280942Y609600I13591J13605D01*
G01*
X248198Y625460D02*
G03*
X248916Y627196I-1740J1736D01*
G01*
X248196Y625458D02*
G03*
X248198Y625460I-1738J1738D01*
G01*
X249297Y628118D02*
G03*
X248916Y627196I927J-923D01*
G01*
X249299Y628121D02*
G03*
X249297Y628118I925J-925D01*
G01*
X250224Y628504D02*
G03*
X249299Y628121I0J-1308D01*
G01*
X378226Y612692D02*
G03*
X378987Y614533I-1848J1841D01*
G01*
X378222Y612688D02*
G03*
X378226Y612692I-1845J1845D01*
G01*
X378219Y612685D02*
G03*
X378222Y612688I-1841J1848D01*
G01*
X268307Y617557D02*
G03*
X268314Y617549I13598J13598D01*
G01*
X255920Y626657D02*
G03*
X255916Y626660I-4460J-4460D01*
G01*
X267344Y615233D02*
G03*
X267351Y615225I13598J13598D01*
G01*
X44236Y515732D02*
G03*
X44954Y517468I-1740J1736D01*
G01*
X44234Y515730D02*
G03*
X44236Y515732I-1738J1738D01*
G01*
X45335Y518390D02*
G03*
X44954Y517468I927J-923D01*
G01*
X45337Y518393D02*
G03*
X45335Y518390I925J-925D01*
G01*
X46262Y518776D02*
G03*
X45337Y518393I0J-1308D01*
G01*
X52420Y517026D02*
G03*
X48195Y518776I-4225J-4225D01*
G01*
X53057Y516389D02*
G03*
X58799Y514014I5742J5754D01*
G01*
X53051Y516395D02*
G03*
X53057Y516389I5748J5748D01*
G01*
X60363Y513598D02*
G03*
X59354Y514014I-1009J-1014D01*
G01*
X60366Y513595D02*
G03*
X60363Y513598I-1011J-1011D01*
G01*
X60368Y513592D02*
G03*
X61377Y513176I1009J1014D01*
G01*
X60366Y513595D02*
G03*
X60368Y513592I1011J1011D01*
G01*
X44236Y524144D02*
G03*
X44234Y524146I-1740J-1736D01*
G01*
X44954Y522408D02*
G03*
X44236Y524144I-2457J0D01*
G01*
X45335Y521486D02*
G03*
X45337Y521483I927J923D01*
G01*
X44954Y522408D02*
G03*
X45335Y521486I1308J0D01*
G01*
X45337Y521483D02*
G03*
X46262Y521100I925J925D01*
G01*
X53719Y519014D02*
G03*
X48676Y521100I-5042J-5051D01*
G01*
X53723Y519010D02*
G03*
X53719Y519014I-5047J-5047D01*
G01*
X54302Y518431D02*
G03*
X59354Y516338I5053J5053D01*
G01*
X60363Y516754D02*
G03*
X60366Y516757I-1009J1014D01*
G01*
X59354Y516338D02*
G03*
X60363Y516754I0J1431D01*
G01*
X60368Y516760D02*
G03*
X60366Y516757I1009J-1014D01*
G01*
X61377Y517176D02*
G03*
X60368Y516760I0J-1431D01*
G01*
X44744Y369174D02*
G03*
X45462Y370910I-1740J1736D01*
G01*
X44742Y369172D02*
G03*
X44744Y369174I-1738J1738D01*
G01*
X45621Y371536D02*
G03*
X45462Y370910I1148J-626D01*
G01*
X45845Y371835D02*
G03*
X45621Y371536I925J-925D01*
G01*
X46770Y372218D02*
G03*
X45845Y371835I0J-1308D01*
G01*
X52928Y370468D02*
G03*
X48703Y372218I-4225J-4225D01*
G01*
X53559Y369837D02*
G03*
X59307Y367456I5748J5748D01*
G01*
X60874Y367037D02*
G03*
X59862Y367456I-1011J-1011D01*
G01*
X60874Y367037D02*
G03*
X61885Y366618I1011J1011D01*
G01*
X44744Y377586D02*
G03*
X44742Y377588I-1740J-1736D01*
G01*
X45462Y375850D02*
G03*
X44744Y377586I-2457J0D01*
G01*
X45462Y375850D02*
G03*
X45845Y374925I1308J0D01*
G01*
D02*
G03*
X46770Y374542I925J925D01*
G01*
X54231Y372452D02*
G03*
X49184Y374542I-5047J-5047D01*
G01*
X54810Y371873D02*
G03*
X59862Y369780I5053J5053D01*
G01*
D02*
G03*
X60874Y370199I0J1431D01*
G01*
X61885Y370618D02*
G03*
X60874Y370199I0J-1431D01*
G01*
X45390Y226172D02*
G03*
X46108Y227908I-1740J1736D01*
G01*
X45388Y226170D02*
G03*
X45390Y226172I-1738J1738D01*
G01*
X46491Y228833D02*
G03*
X46108Y227908I925J-925D01*
G01*
X46736Y229026D02*
G03*
X46491Y228833I680J-1118D01*
G01*
X47416Y229216D02*
G03*
X46736Y229026I0J-1308D01*
G01*
X53574Y227466D02*
G03*
X49349Y229216I-4225J-4225D01*
G01*
X54205Y226835D02*
G03*
X59953Y224454I5748J5748D01*
G01*
X61520Y224035D02*
G03*
X60508Y224454I-1011J-1011D01*
G01*
X61520Y224035D02*
G03*
X62531Y223616I1011J1011D01*
G01*
X45390Y234584D02*
G03*
X45388Y234586I-1740J-1736D01*
G01*
X46108Y232848D02*
G03*
X45390Y234584I-2457J0D01*
G01*
X46108Y232848D02*
G03*
X46491Y231923I1308J0D01*
G01*
D02*
G03*
X47416Y231540I925J925D01*
G01*
X54877Y229450D02*
G03*
X49830Y231540I-5047J-5047D01*
G01*
X55456Y228871D02*
G03*
X60508Y226778I5053J5053D01*
G01*
D02*
G03*
X61520Y227197I0J1431D01*
G01*
X62531Y227616D02*
G03*
X61520Y227197I0J-1431D01*
G01*
X46268Y92598D02*
G03*
X46266Y92600I-1740J-1736D01*
G01*
X46986Y90862D02*
G03*
X46268Y92598I-2457J0D01*
G01*
X47366Y89940D02*
G03*
X47369Y89937I927J923D01*
G01*
X46986Y90862D02*
G03*
X47366Y89940I1308J0D01*
G01*
X47369Y89937D02*
G03*
X48294Y89554I925J925D01*
G01*
X55751Y87468D02*
G03*
X50708Y89554I-5042J-5051D01*
G01*
X55755Y87464D02*
G03*
X55751Y87468I-5047J-5047D01*
G01*
X56334Y86885D02*
G03*
X61386Y84792I5053J5053D01*
G01*
X62395Y85208D02*
G03*
X62398Y85211I-1009J1014D01*
G01*
X61386Y84792D02*
G03*
X62395Y85208I0J1431D01*
G01*
X62400Y85214D02*
G03*
X62398Y85211I1009J-1014D01*
G01*
X63409Y85630D02*
G03*
X62400Y85214I0J-1431D01*
G01*
X46268Y84186D02*
G03*
X46986Y85922I-1740J1736D01*
G01*
X46266Y84184D02*
G03*
X46268Y84186I-1738J1738D01*
G01*
X47366Y86844D02*
G03*
X46986Y85922I927J-923D01*
G01*
X47369Y86847D02*
G03*
X47366Y86844I925J-925D01*
G01*
X48294Y87230D02*
G03*
X47369Y86847I0J-1308D01*
G01*
X54452Y85480D02*
G03*
X50227Y87230I-4225J-4225D01*
G01*
X56796Y83136D02*
G03*
X58420Y82468I1624J1640D01*
G01*
X56788Y83144D02*
G03*
X56796Y83136I1632J1632D01*
G01*
X62395Y82052D02*
G03*
X61386Y82468I-1009J-1014D01*
G01*
X62398Y82049D02*
G03*
X62395Y82052I-1011J-1011D01*
G01*
X62400Y82046D02*
G03*
X63409Y81630I1009J1014D01*
G01*
X62398Y82049D02*
G03*
X62400Y82046I1011J1011D01*
G01*
X152852Y620696D02*
X154432D01*
X133040Y622331D02*
Y622733D01*
X152261Y620350D02*
X152434Y620523D01*
X133775Y620554D02*
X133777Y620552D01*
X134005Y620323D01*
X136336Y619358D02*
X150637D01*
X129953Y619646D02*
X130355D01*
X152261Y616042D02*
X152434Y615869D01*
X152852Y615696D02*
X154432D01*
X132133Y618909D02*
X132702Y618340D01*
X132131Y618911D02*
X132133Y618909D01*
X135855Y617034D02*
X150637D01*
X140213Y634090D02*
X150953D01*
X134915Y636684D02*
X135595Y636003D01*
X151878Y634473D02*
X152261Y634856D01*
X152871Y635428D02*
X154432D01*
X119832Y644428D02*
Y644831D01*
X120569Y642651D02*
X121830Y641389D01*
X120567Y642652D02*
X120569Y642651D01*
X125984Y639668D02*
X127709D01*
X133952Y634359D02*
X133961Y634350D01*
X125968Y637344D02*
X126746D01*
X152871Y630428D02*
X154432D01*
X140200Y631766D02*
X150953D01*
X151878Y631383D02*
X152261Y631000D01*
X118925Y641007D02*
X120198Y639735D01*
X118923Y641009D02*
X118925Y641007D01*
X116745Y641743D02*
X117147D01*
X152852Y650428D02*
X154432D01*
X152261Y650082D02*
X152434Y650255D01*
X147141Y650111D02*
X147426Y649827D01*
X147428Y649825D01*
X146050Y650563D02*
Y650563D01*
X149204Y649090D02*
X150637D01*
X149204Y646766D02*
X150637D01*
X147426Y646030D02*
X147428Y646031D01*
X147141Y645745D02*
X147426Y646030D01*
X152261Y645774D02*
X152434Y645601D01*
X152852Y645428D02*
X154432D01*
X281905Y611924D02*
X350012D01*
X362712D02*
X374904D01*
X360172Y614464D02*
X362712Y611924D01*
X356362Y614464D02*
X360172D01*
X353822Y611924D02*
X356362Y614464D01*
X350012Y611924D02*
X353822D01*
X374904D02*
X376377D01*
X312928Y602418D02*
X382765D01*
X297942D02*
X312928D01*
X295402Y604958D02*
X297942Y602418D01*
X291592Y604958D02*
X295402D01*
X289052Y602418D02*
X291592Y604958D01*
X285242Y602418D02*
X289052D01*
X278794D02*
X285242D01*
X135890Y604358D02*
X150622D01*
X132186D02*
X135890D01*
X150622D02*
X150637D01*
X73021Y74265D02*
X73660D01*
X71548Y72792D02*
X73021Y74265D01*
X65504Y73630D02*
X68191D01*
X69029Y72792D02*
X71548D01*
X68191Y73630D02*
X69029Y72792D01*
X69029Y70468D02*
X71548D01*
X73021Y68995D01*
X68191Y69630D02*
X69029Y70468D01*
X73021Y68995D02*
X73660D01*
X65504Y69630D02*
X68191D01*
X34845Y92431D02*
X36140Y93726D01*
X34843Y92429D02*
X34845Y92431D01*
X34294Y90862D02*
Y91100D01*
X26341Y91027D02*
X26620D01*
X27996Y90290D02*
X27998Y90289D01*
X27712Y90575D02*
X27996Y90290D01*
X29774Y89554D02*
X32986D01*
X29774Y87230D02*
X32986D01*
X27996Y86494D02*
X27998Y86495D01*
X27712Y86209D02*
X27996Y86494D01*
X34845Y84353D02*
X36140Y83058D01*
X34843Y84355D02*
X34845Y84353D01*
X26620Y85757D02*
Y87103D01*
X34294Y85684D02*
Y85922D01*
X73275Y108265D02*
X73914D01*
X71802Y106792D02*
X73275Y108265D01*
X65504Y109630D02*
X67817D01*
X70655Y106792D02*
X71802D01*
X67817Y109630D02*
X70655Y106792D01*
X71802Y104468D02*
X73275Y102995D01*
X70655Y104468D02*
X71802D01*
X73275Y102995D02*
X73914D01*
X67817Y101630D02*
X70655Y104468D01*
X65504Y101630D02*
X67817D01*
X68151Y212454D02*
X71040D01*
X72513Y210981D01*
X67313Y211616D02*
X68151Y212454D01*
X72513Y210981D02*
X73152D01*
X64626Y211616D02*
X67313D01*
X72513Y216251D02*
X73152D01*
X71040Y214778D02*
X72513Y216251D01*
X67313Y215616D02*
X68151Y214778D01*
X71040D01*
X64626Y215616D02*
X67313D01*
X29570Y229216D02*
X32108D01*
X27792Y228479D02*
X27794Y228481D01*
X27507Y228195D02*
X27792Y228479D01*
X33416Y227670D02*
Y227908D01*
X33967Y226339D02*
X35262Y225044D01*
X33965Y226341D02*
X33967Y226339D01*
Y234417D02*
X35262Y235712D01*
X33965Y234415D02*
X33967Y234417D01*
X33416Y232848D02*
Y233086D01*
X27792Y232276D02*
X27794Y232275D01*
X27507Y232561D02*
X27792Y232276D01*
X29570Y231540D02*
X32108D01*
X64626Y251616D02*
X66939D01*
X72513Y250251D02*
X73152D01*
X71040Y248778D02*
X72513Y250251D01*
X66939Y251616D02*
X69777Y248778D01*
X71040D01*
Y246454D02*
X72513Y244981D01*
X69777Y246454D02*
X71040D01*
X72513Y244981D02*
X73152D01*
X66939Y243616D02*
X69777Y246454D01*
X64626Y243616D02*
X66939D01*
X63980Y394618D02*
X66293D01*
X70278Y391780D02*
X71751Y393253D01*
X66293Y394618D02*
X69131Y391780D01*
X71751Y393253D02*
X72390D01*
X69131Y391780D02*
X70278D01*
X69131Y389456D02*
X70278D01*
X71751Y387983D01*
X66293Y386618D02*
X69131Y389456D01*
X71751Y387983D02*
X72390D01*
X63980Y386618D02*
X66293D01*
X67505Y355456D02*
X70024D01*
X66667Y354618D02*
X67505Y355456D01*
X70024D02*
X71497Y353983D01*
X72136D01*
X63980Y354618D02*
X66667D01*
X71497Y359253D02*
X72136D01*
X70024Y357780D02*
X71497Y359253D01*
X66667Y358618D02*
X67505Y357780D01*
X70024D01*
X63980Y358618D02*
X66667D01*
X29570Y372218D02*
X31462D01*
X32770Y370672D02*
Y370910D01*
X33321Y369341D02*
X34616Y368046D01*
X33319Y369343D02*
X33321Y369341D01*
X27792Y371482D02*
X27794Y371483D01*
X27507Y371197D02*
X27792Y371482D01*
X33321Y377420D02*
X34616Y378714D01*
X33319Y377417D02*
X33321Y377420D01*
X32770Y375850D02*
Y376088D01*
X29570Y374542D02*
X31462D01*
X27507Y375563D02*
X27792Y375279D01*
X27794Y375277D01*
X29570Y518776D02*
X30954D01*
X27792Y518040D02*
X27794Y518041D01*
X27507Y517755D02*
X27792Y518040D01*
X32262Y517230D02*
Y517468D01*
X32813Y515899D02*
X34108Y514604D01*
X32811Y515901D02*
X32813Y515899D01*
Y523978D02*
X34108Y525272D01*
X32811Y523975D02*
X32813Y523978D01*
X32262Y522408D02*
Y522646D01*
X27792Y521837D02*
X27794Y521835D01*
X27507Y522121D02*
X27792Y521837D01*
X29570Y521100D02*
X30954D01*
X66997Y502014D02*
X69516D01*
X63472Y501176D02*
X66159D01*
X70989Y500541D02*
X71628D01*
X66159Y501176D02*
X66997Y502014D01*
X69516D02*
X70989Y500541D01*
Y505811D02*
X71628D01*
X63472Y505176D02*
X66159D01*
X69516Y504338D02*
X70989Y505811D01*
X66159Y505176D02*
X66997Y504338D01*
X69516D01*
X63472Y541176D02*
X65785D01*
X71243Y539811D02*
X71882D01*
X69770Y538338D02*
X71243Y539811D01*
X65785Y541176D02*
X68623Y538338D01*
X69770D01*
X68623Y536014D02*
X69770D01*
X71243Y534541D01*
X71882D01*
X65785Y533176D02*
X68623Y536014D01*
X63472Y533176D02*
X65785D01*
X152852Y605696D02*
X154432D01*
X152261Y605350D02*
X152434Y605523D01*
X130123Y605379D02*
X130408Y605094D01*
X130410Y605093D01*
X132186Y602034D02*
X150637D01*
X130408Y601297D02*
X130410Y601299D01*
X130123Y601013D02*
X130408Y601297D01*
X152261Y601042D02*
X152434Y600869D01*
X152852Y600696D02*
X154432D01*
X402638Y601735D02*
X406925D01*
X410118Y600412D02*
X410263Y600267D01*
X397756Y599721D02*
X397776D01*
X396213Y598817D02*
X396665Y599269D01*
X409301Y589402D02*
X409994Y590095D01*
X385503Y587464D02*
X404622D01*
X268566Y592798D02*
X372626D01*
X78734Y593111D02*
X78760Y593085D01*
X88390Y589107D02*
X259656D01*
X75801Y600191D02*
Y605964D01*
X403120Y599411D02*
X406908D01*
X400844Y596634D02*
Y597135D01*
X409160Y594655D02*
Y597132D01*
X385533Y589788D02*
X404604D01*
X399940Y595090D02*
X400392Y595542D01*
X268544Y595122D02*
X372655D01*
X88390Y591431D02*
X259634D01*
X78125Y600202D02*
Y605964D01*
X411484Y593692D02*
Y597320D01*
X74328Y607437D02*
Y608076D01*
Y607437D02*
X75801Y605964D01*
X74327Y631539D02*
X79598Y626268D01*
X74327Y631539D02*
Y655066D01*
X79598Y607437D02*
Y608076D01*
X78125Y605964D02*
X79598Y607437D01*
Y608172D02*
Y626268D01*
X162782Y605696D02*
X164343D01*
X164953Y605124D02*
X165336Y604741D01*
X166261Y604358D02*
X167454D01*
X170414Y605584D02*
X176461Y611631D01*
X170413Y605583D02*
X170414Y605584D01*
X184024Y614764D02*
X184047D01*
X186070Y615602D02*
X187978D01*
X162782Y600696D02*
X164343D01*
X164953Y601268D02*
X165336Y601651D01*
X166261Y602034D02*
X167935D01*
X171717Y603601D02*
X178088Y609972D01*
X186070Y611601D02*
X187978D01*
X162782Y620696D02*
X164343D01*
X164953Y620124D02*
X165336Y619741D01*
X166261Y619358D02*
X171144D01*
X179363Y622762D02*
X184047D01*
X186070Y623601D02*
X187978D01*
X162782Y615696D02*
X164343D01*
X164953Y616268D02*
X165336Y616651D01*
X166261Y617034D02*
X173565D01*
X175186Y617705D02*
X176216Y618736D01*
X180326Y620438D02*
X184047D01*
X186070Y619600D02*
X187978D01*
X162782Y630428D02*
X164343D01*
X164953Y631000D02*
X165336Y631383D01*
X166261Y631766D02*
X171238D01*
X179270Y628439D02*
X184047D01*
X186070Y627601D02*
X187978D01*
X162782Y635428D02*
X164343D01*
X164953Y634856D02*
X165336Y634473D01*
X166261Y634090D02*
X172201D01*
X180232Y630763D02*
X184047D01*
X186070Y631601D02*
X187978D01*
X162782Y645428D02*
X164343D01*
X164953Y646000D02*
X165336Y646383D01*
X166261Y646766D02*
X168154D01*
X172310Y645044D02*
X178714Y638641D01*
X172308Y645047D02*
X172310Y645044D01*
X184030Y636439D02*
X184049D01*
X186070Y635602D02*
X187978D01*
X162782Y650428D02*
X164343D01*
X164953Y649856D02*
X165336Y649473D01*
X166261Y649090D02*
X168635D01*
X180344Y640298D02*
X180346Y640296D01*
X173613Y647028D02*
X180344Y640298D01*
X186070Y639600D02*
X187978D01*
X225909Y616440D02*
X247233D01*
X221978Y615602D02*
X223885D01*
X277832Y600094D02*
X382784D01*
X257753Y612083D02*
X264022Y605814D01*
X388082Y602288D02*
X388095Y602302D01*
X225909Y618764D02*
X248196D01*
X221978Y619603D02*
X223885D01*
X258716Y614407D02*
X264984Y608138D01*
X221978Y631604D02*
X223885D01*
X225909Y630766D02*
X229269D01*
X229331Y630828D02*
X234916D01*
X236224Y632136D02*
Y632374D01*
X236775Y633705D02*
X238070Y635000D01*
X236773Y633703D02*
X236775Y633705D01*
X221978Y627603D02*
X223885D01*
X225909Y628442D02*
X230232D01*
X230294Y628504D02*
X234916D01*
X236224Y626958D02*
Y627196D01*
X236775Y625626D02*
X238070Y624332D01*
X236773Y625629D02*
X236775Y625626D01*
X229269Y630766D02*
X229331Y630828D01*
X230232Y628442D02*
X230294Y628504D01*
X378987Y614533D02*
Y614896D01*
X257547Y628316D02*
X268307Y617557D01*
X248196Y633874D02*
X248198Y633872D01*
X247070Y635000D02*
X248196Y633874D01*
X250224Y630828D02*
X251483D01*
X379609Y610788D02*
X379610Y610789D01*
X379097Y610276D02*
X379609Y610788D01*
X280942Y609600D02*
X377465D01*
X248196Y625458D02*
X248198Y625460D01*
X247070Y624332D02*
X248196Y625458D01*
X250224Y628504D02*
X251460D01*
X255920Y626657D02*
X267344Y615233D01*
X44234Y515730D02*
X44236Y515732D01*
X43108Y514604D02*
X44234Y515730D01*
X46262Y518776D02*
X48195D01*
X52420Y517026D02*
X53051Y516395D01*
X58799Y514014D02*
X59354D01*
X61377Y513176D02*
X63472D01*
X44234Y524146D02*
X44236Y524144D01*
X43108Y525272D02*
X44234Y524146D01*
X46262Y521100D02*
X48676D01*
X53723Y519010D02*
X54302Y518431D01*
X61377Y517176D02*
X63472D01*
X44742Y369172D02*
X44744Y369174D01*
X43616Y368046D02*
X44742Y369172D01*
X46770Y372218D02*
X48703D01*
X52928Y370468D02*
X53559Y369837D01*
X59307Y367456D02*
X59862D01*
X61885Y366618D02*
X63980D01*
X44742Y377588D02*
X44744Y377586D01*
X43616Y378714D02*
X44742Y377588D01*
X46770Y374542D02*
X49184D01*
X54231Y372452D02*
X54810Y371873D01*
X61885Y370618D02*
X63980D01*
X45388Y226170D02*
X45390Y226172D01*
X44262Y225044D02*
X45388Y226170D01*
X47416Y229216D02*
X49349D01*
X53574Y227466D02*
X54205Y226835D01*
X59953Y224454D02*
X60508D01*
X62531Y223616D02*
X64626D01*
X45388Y234586D02*
X45390Y234584D01*
X44262Y235712D02*
X45388Y234586D01*
X47416Y231540D02*
X49830D01*
X54877Y229450D02*
X55456Y228871D01*
X62531Y227616D02*
X64626D01*
X46266Y92600D02*
X46268Y92598D01*
X45140Y93726D02*
X46266Y92600D01*
X48294Y89554D02*
X50708D01*
X55755Y87464D02*
X56334Y86885D01*
X63409Y85630D02*
X65504D01*
X46266Y84184D02*
X46268Y84186D01*
X45140Y83058D02*
X46266Y84184D01*
X48294Y87230D02*
X50227D01*
X54452Y85480D02*
X56788Y83144D01*
X58420Y82468D02*
X61386D01*
X63409Y81630D02*
X65504D01*
X685597Y37901D02*
X689902Y42206D01*
Y60251D02*
X698993Y69342D01*
X466035Y37901D02*
X685597D01*
X689902Y42206D02*
Y60251D01*
X698993Y69342D02*
X740649D01*
X741294Y69987D02*
X747151D01*
X740649Y69342D02*
X741294Y69987D01*
X747151D02*
X751332Y74168D01*
X698030Y71666D02*
X739686D01*
X687578Y61214D02*
X698030Y71666D01*
X687578Y43180D02*
Y61214D01*
X684623Y40225D02*
X687578Y43180D01*
X554135Y40225D02*
X684623D01*
X43438Y636266D02*
Y655578D01*
X52870Y665010D02*
X167079D01*
X43438Y655578D02*
X52870Y665010D01*
X63500Y629158D02*
X69463Y623195D01*
X50546Y629158D02*
X63500D01*
X69463Y615786D02*
Y623195D01*
X43438Y636266D02*
X50546Y629158D01*
X84461Y641006D02*
X84543Y641087D01*
X87367D01*
X91186Y644906D02*
Y659130D01*
X87367Y641087D02*
X91186Y644906D01*
Y659130D02*
X94742Y662686D01*
X166116D01*
X758639Y91695D02*
Y129091D01*
X741679Y143619D02*
X745470Y139828D01*
X747902D01*
X758639Y129091D01*
X744061Y124619D02*
X751332Y117348D01*
Y74168D02*
Y117348D01*
X741679Y124619D02*
X744061D01*
X741680Y73660D02*
Y81618D01*
X739686Y71666D02*
X741680Y73660D01*
X546303Y48057D02*
Y70416D01*
Y48057D02*
X554135Y40225D01*
X457403Y46533D02*
X466035Y37901D01*
X457403Y46533D02*
Y70655D01*
X745470Y308058D02*
X747566D01*
X758639Y259843D02*
Y296985D01*
X741679Y311849D02*
X745470Y308058D01*
X747566D02*
X758639Y296985D01*
X752856Y242062D02*
Y284734D01*
X744741Y292849D02*
X752856Y284734D01*
X748030Y237236D02*
X752856Y242062D01*
X741679Y292849D02*
X744741D01*
X740194Y239560D02*
X741680Y241046D01*
X734367Y239560D02*
X740194D01*
X741680Y241046D02*
Y249648D01*
X729958Y214577D02*
Y235151D01*
X734367Y239560D01*
X735330Y237236D02*
X748030D01*
X732282Y234188D02*
X735330Y237236D01*
X553036Y208456D02*
X723837D01*
X729958Y214577D01*
X724799Y206131D02*
X732282Y213614D01*
X467223Y206131D02*
X724799D01*
X732282Y213614D02*
Y234188D01*
X546303Y215189D02*
X553036Y208456D01*
X546303Y215189D02*
Y238645D01*
X457403Y215951D02*
Y238885D01*
Y215951D02*
X467223Y206131D01*
X745470Y476288D02*
X747738D01*
X758639Y428118D02*
Y465387D01*
X747738Y476288D02*
X758639Y465387D01*
X741679Y480079D02*
X745470Y476288D01*
X741679Y461079D02*
X743897D01*
X752348Y409448D02*
Y452628D01*
X743897Y461079D02*
X752348Y452628D01*
X748020Y405120D02*
X752348Y409448D01*
X735828Y405120D02*
X748020D01*
X740184Y407444D02*
X741680Y408940D01*
X734865Y407444D02*
X740184D01*
X729196Y401775D02*
X734865Y407444D01*
X741680Y408940D02*
Y417878D01*
X729196Y382471D02*
Y401775D01*
X723153Y376428D02*
X729196Y382471D01*
X555244Y376428D02*
X723153D01*
X731520Y381508D02*
Y400812D01*
X466636Y374104D02*
X724116D01*
X731520Y381508D01*
X546303Y385368D02*
Y406945D01*
Y385368D02*
X555244Y376428D01*
X457403Y383336D02*
X466636Y374104D01*
X457403Y549961D02*
X465112Y542252D01*
X719021D01*
X719821Y543052D01*
X719836D02*
X728218Y551434D01*
X719821Y543052D02*
X719836D01*
X554990Y544576D02*
X718058D01*
X725894Y552412D01*
X546303Y553262D02*
X554990Y544576D01*
X731520Y400812D02*
X735828Y405120D01*
X457403Y383336D02*
Y407186D01*
X546303Y553262D02*
Y575246D01*
X725894Y552412D02*
Y569669D01*
X734113Y577888D01*
X740502D01*
X741680Y579066D02*
Y586108D01*
X740502Y577888D02*
X741680Y579066D01*
X728218Y568706D02*
X735076Y575564D01*
X746760D01*
X728218Y551434D02*
Y568706D01*
X746760Y575564D02*
X752094Y580898D01*
Y618896D01*
X745536Y625454D02*
Y625520D01*
Y625454D02*
X752094Y618896D01*
X741679Y629311D02*
X741745D01*
X745536Y625520D01*
X457403Y549961D02*
Y575485D01*
X752192Y398370D02*
X758639Y404817D01*
X741680Y398370D02*
X752192D01*
X758639Y404817D02*
Y412907D01*
X741680Y230140D02*
X751602D01*
X758639Y237177D02*
Y244632D01*
X751602Y230140D02*
X758639Y237177D01*
Y67251D02*
Y76611D01*
X753498Y62110D02*
X758639Y67251D01*
X741680Y62110D02*
X753498D01*
X752619Y568723D02*
X758639Y574743D01*
Y581106D01*
X745082Y568723D02*
X752619D01*
X743971Y567612D02*
X745082Y568723D01*
X743584Y648311D02*
X747375Y644520D01*
Y644301D02*
X758639Y633037D01*
X741679Y648311D02*
X743584D01*
X758639Y596342D02*
Y633037D01*
X747375Y644301D02*
Y644520D01*
X184485Y647604D02*
X198976D01*
X167079Y665010D02*
X184485Y647604D01*
X166116Y662686D02*
X184856Y643946D01*
X187632D02*
X187978Y643600D01*
X184856Y643946D02*
X187632D01*
X237096Y609646D02*
X238066Y610616D01*
X237096Y606920D02*
Y609646D01*
X232410Y602234D02*
X237096Y606920D01*
X110454Y569468D02*
X115679D01*
X120904D01*
X115472Y569261D02*
X115679Y569468D01*
X115472Y549176D02*
Y569261D01*
X110236Y569686D02*
X110454Y569468D01*
D58*
X152421Y635242D02*
D03*
X164793Y605510D02*
D03*
X164793Y615882D02*
D03*
X164793Y635242D02*
D03*
X164793Y645614D02*
D03*
D59*
X234792Y199935D02*
G03*
X232682Y199778I0J-14246D01*
G01*
D02*
G03*
X224718Y195762I2110J-14089D01*
G01*
X229920Y368337D02*
G03*
X215856Y362517I0J-19904D01*
G01*
D02*
G03*
X215846Y362507I14064J-14084D01*
G01*
X215073Y361734D02*
G03*
X215057Y361718I12209J-12209D01*
G01*
D02*
G03*
X210016Y349555I12225J-12192D01*
G01*
D02*
G03*
X210016Y349526I17266J-30D01*
G01*
X206842Y337375D02*
G03*
X210016Y345037I-7662J7662D01*
G01*
X196024Y332560D02*
G03*
X206271Y336804I0J14491D01*
G01*
X166648Y321310D02*
G03*
X162280Y320967I0J-27990D01*
G01*
X192404Y321310D02*
G03*
X195226Y321467I0J25400D01*
G01*
X162280Y320967D02*
G03*
X146881Y313137I4368J-27648D01*
G01*
X195226Y321467D02*
G03*
X210364Y328750I-2822J25243D01*
G01*
X161200Y472186D02*
G03*
X161129Y472186I5J-27990D01*
G01*
X196622Y472186D02*
G03*
X200382Y472996I0J9135D01*
G01*
X161129Y472186D02*
G03*
X141433Y464013I71J-27990D01*
G01*
X200382Y472996D02*
G03*
X203081Y474861I-3760J8325D01*
G01*
X203081D02*
G03*
X207264Y484971I-10127J10110D01*
G01*
X199781Y461772D02*
G03*
X210815Y466339I0J15613D01*
G01*
X130745Y445336D02*
G03*
X136069Y445906I0J25137D01*
G01*
X136069Y445906D02*
G03*
X148520Y452698I-5324J24567D01*
G01*
X169188Y461772D02*
G03*
X149396Y453574I0J-27990D01*
G01*
X235424Y520522D02*
G03*
X235423Y520521I1224J-1224D01*
G01*
X100932Y445836D02*
G03*
X103831Y445336I2899J8144D01*
G01*
X98290Y447556D02*
G03*
X100932Y445836I5344J5321D01*
G01*
X94779Y454932D02*
G03*
X94783Y454668I10063J44D01*
G01*
X94783D02*
G03*
X97527Y448319I9404J297D01*
G01*
X95125Y486083D02*
G03*
X95472Y486920I-837J837D01*
G01*
X95125Y486083D02*
G03*
X94779Y485246I837J-837D01*
G01*
X235423Y520521D02*
G03*
X234917Y519298I1225J-1223D01*
G01*
X233827Y517943D02*
G03*
X234598Y518262I0J1090D01*
G01*
X232650Y517943D02*
G03*
X224954Y514763I0J-10904D01*
G01*
X222230Y512039D02*
G03*
X215812Y496544I15495J-15495D01*
G01*
X234917Y513974D02*
G03*
X235423Y512751I1731J0D01*
G01*
D02*
G03*
X235424Y512750I1225J1223D01*
G01*
X232664Y515329D02*
G03*
X226779Y512891I0J-8323D01*
G01*
X234917Y514240D02*
G03*
X234598Y515010I-1090J0D01*
G01*
D02*
G03*
X233827Y515329I-771J-771D01*
G01*
X224101Y510213D02*
G03*
X218425Y496511I13702J-13702D01*
G01*
X213435Y465262D02*
G03*
X218425Y477312I-12052J12049D01*
G01*
X199791Y459158D02*
G03*
X212662Y464490I0J18202D01*
G01*
X169197Y459158D02*
G03*
X151237Y451719I0J-25400D01*
G01*
X130759Y442722D02*
G03*
X150358Y450840I0J27718D01*
G01*
X96460Y445690D02*
G03*
X103634Y442722I7174J7187D01*
G01*
X92165Y454964D02*
G03*
X95674Y446475I12022J0D01*
G01*
X91821Y486081D02*
G03*
X91819Y486083I-839J-835D01*
G01*
X92165Y485246D02*
G03*
X91821Y486081I-1183J0D01*
G01*
X91472Y486920D02*
G03*
X91819Y486083I1183J0D01*
G01*
X234598Y518262D02*
G03*
X234917Y519033I-771J771D01*
G01*
X224954Y514763D02*
G03*
X224940Y514749I7696J-7724D01*
G01*
X210821Y466345D02*
G03*
X215812Y478395I-12052J12049D01*
G01*
X210815Y466339D02*
G03*
X210821Y466345I-11034J11047D01*
G01*
X95674Y446475D02*
G03*
X95686Y446463I8513J8489D01*
G01*
X96453Y445696D02*
G03*
X96460Y445690I7181J7181D01*
G01*
X107125Y486083D02*
G03*
X106841Y485397I685J-686D01*
G01*
Y458263D02*
G03*
X108147Y455111I4458J0D01*
G01*
X104228Y458061D02*
G03*
X107065Y452497I6875J-0D01*
G01*
X103472Y486920D02*
G03*
X103819Y486083I1183J0D01*
G01*
X107125D02*
G03*
X107472Y486920I-837J837D01*
G01*
X108147Y455111D02*
G03*
X111843Y453580I3695J3695D01*
G01*
X122289D02*
G03*
X137150Y459730I0J21030D01*
G01*
X215345Y529543D02*
G03*
X215328Y529526I19509J-19509D01*
G01*
X235104Y537755D02*
G03*
X215392Y529590I0J-27877D01*
G01*
X252733Y537755D02*
G03*
X253504Y538074I0J1090D01*
G01*
X254329Y540333D02*
G03*
X253823Y539110I1225J-1223D01*
G01*
X254330Y540334D02*
G03*
X254329Y540333I1224J-1224D01*
G01*
X107065Y452497D02*
G03*
X110760Y450967I3695J3695D01*
G01*
X123372D02*
G03*
X138233Y457116I0J21030D01*
G01*
X161210Y469572D02*
G03*
X143249Y462133I0J-25400D01*
G01*
X196633Y469572D02*
G03*
X204922Y473006I0J11723D01*
G01*
X205695Y473779D02*
G03*
X209878Y483889I-10127J10110D01*
G01*
X217200Y527702D02*
G03*
X209878Y510024I17677J-17677D01*
G01*
X235161Y535141D02*
G03*
X217200Y527702I0J-25400D01*
G01*
X253823Y534052D02*
G03*
X253504Y534822I-1090J0D01*
G01*
D02*
G03*
X252733Y535141I-771J-771D01*
G01*
X254329Y532563D02*
G03*
X254330Y532562I1225J1223D01*
G01*
X253823Y533786D02*
G03*
X254329Y532563I1731J0D01*
G01*
X253504Y538074D02*
G03*
X253823Y538844I-771J771D01*
G01*
X215328Y529526D02*
G03*
X207264Y510071I19526J-19492D01*
G01*
D02*
G03*
X207264Y510034I27590J-37D01*
G01*
X141433Y464013D02*
G03*
X141408Y463988I19767J-19818D01*
G01*
X137150Y459730D02*
G03*
X137160Y459740I-14861J14880D01*
G01*
X138233Y457116D02*
G03*
X138243Y457126I-14861J14880D01*
G01*
X303776Y571910D02*
G03*
X305004Y574874I-2964J2964D01*
G01*
X301574Y570682D02*
G03*
X303238Y571372I0J2353D01*
G01*
X301050Y570682D02*
G03*
X300280Y570363I0J-1090D01*
G01*
X300279Y570363D02*
G03*
X299960Y569593I771J-770D01*
G01*
X273128Y535141D02*
G03*
X283861Y539586I0J15180D01*
G01*
X267292Y535141D02*
G03*
X266521Y534822I0J-1090D01*
G01*
X265132Y531468D02*
G03*
X266202Y534052I-2583J2583D01*
G01*
X294187Y549912D02*
G03*
X299960Y563881I-14012J13969D01*
G01*
X294165Y549890D02*
G03*
X294187Y549912I-13990J13990D01*
G01*
X294069Y571372D02*
G03*
X295734Y570682I1664J1664D01*
G01*
X292304Y574874D02*
G03*
X293531Y571910I4191J0D01*
G01*
X297347Y569593D02*
G03*
X297028Y570363I-1090J0D01*
G01*
X297027Y570363D02*
G03*
X296257Y570682I-771J-771D01*
G01*
X266202Y538844D02*
G03*
X265132Y541428I-3653J0D01*
G01*
X272587Y537755D02*
G03*
X282397Y541818I0J13873D01*
G01*
X266202Y538844D02*
G03*
X266521Y538074I1090J0D01*
G01*
D02*
G03*
X267292Y537755I771J771D01*
G01*
X292317Y551739D02*
G03*
X297347Y563890I-12166J12152D01*
G01*
X292310Y551732D02*
G03*
X292317Y551739I-12159J12159D01*
G01*
X300280Y570363D02*
X300279Y570363D01*
X266521Y534822D02*
G03*
X266202Y534052I771J-771D01*
G01*
X297028Y570363D02*
X297027Y570363D01*
X341876Y571910D02*
G03*
X343103Y574874I-2964J2964D01*
G01*
X339674Y570682D02*
G03*
X341338Y571372I0J2353D01*
G01*
X339150Y570682D02*
G03*
X338380Y570363I0J-1090D01*
G01*
X338379Y570363D02*
G03*
X338060Y569593I771J-770D01*
G01*
X333472Y523070D02*
G03*
X338060Y534146I-11076J11076D01*
G01*
X316812Y515329D02*
G03*
X332038Y521636I0J21534D01*
G01*
X247296Y512744D02*
G03*
X247827Y514240I-1840J1496D01*
G01*
X247134Y512564D02*
G03*
X247296Y512744I-1678J1675D01*
G01*
X247133Y512563D02*
G03*
X247134Y512564I-1677J1677D01*
G01*
X248917Y515329D02*
G03*
X248146Y515010I0J-1090D01*
G01*
X335127Y570363D02*
G03*
X334357Y570682I-771J-771D01*
G01*
X335447Y569593D02*
G03*
X335128Y570363I-1090J0D01*
G01*
X330404Y574874D02*
G03*
X331631Y571910I4191J0D01*
G01*
X332169Y571372D02*
G03*
X333834Y570682I1664J1664D01*
G01*
X331613Y524907D02*
G03*
X335447Y534162I-9255J9255D01*
G01*
X316798Y517943D02*
G03*
X330191Y523485I0J18953D01*
G01*
X247134Y520708D02*
G03*
X247133Y520709I-1678J-1675D01*
G01*
X247296Y520528D02*
G03*
X247134Y520708I-1840J-1496D01*
G01*
X247827Y519033D02*
G03*
X247296Y520528I-2371J0D01*
G01*
X247827Y519033D02*
G03*
X248146Y518262I1090J0D01*
G01*
D02*
G03*
X248917Y517943I771J771D01*
G01*
X338380Y570363D02*
X338379Y570363D01*
X335128D02*
X335127Y570363D01*
X330191Y523485D02*
G03*
X330200Y523494I-13393J13410D01*
G01*
X248146Y515010D02*
G03*
X247827Y514240I771J-771D01*
G01*
X107892Y310418D02*
G03*
X107896Y310414I1476J1467D01*
G01*
X107287Y311886D02*
G03*
X107892Y310418I2081J0D01*
G01*
X107914Y310397D02*
G03*
X113288Y308176I5374J5390D01*
G01*
X114487D02*
G03*
X131199Y315095I0J23641D01*
G01*
X107631Y339523D02*
G03*
X107287Y338688I839J-835D01*
G01*
X160258Y332560D02*
G03*
X140491Y324387I0J-27990D01*
G01*
X251463Y368337D02*
G03*
X252234Y368656I0J1090D01*
G01*
X253059Y370915D02*
G03*
X252553Y369692I1225J-1223D01*
G01*
X253060Y370916D02*
G03*
X253059Y370915I1224J-1224D01*
G01*
X104673Y311876D02*
G03*
X106032Y308582I4672J0D01*
G01*
X106469Y308145D02*
G03*
X112706Y305562I6236J6236D01*
G01*
X115570D02*
G03*
X132286Y312486I0J23641D01*
G01*
X104673Y338688D02*
G03*
X104327Y339525I-1183J0D01*
G01*
X103980Y340362D02*
G03*
X104327Y339525I1183J0D01*
G01*
X160267Y329946D02*
G03*
X142307Y322506I0J-25400D01*
G01*
X196035Y329946D02*
G03*
X208111Y334948I0J17077D01*
G01*
X208702Y335539D02*
G03*
X212630Y345021I-9482J9482D01*
G01*
X216928Y359893D02*
G03*
X212630Y349515I10378J-10378D01*
G01*
X231003Y365723D02*
G03*
X216938Y359903I0J-19904D01*
G01*
X252553Y364633D02*
G03*
X252234Y365404I-1090J0D01*
G01*
D02*
G03*
X251463Y365723I-771J-771D01*
G01*
X252553Y364368D02*
G03*
X253059Y363145I1731J0D01*
G01*
D02*
G03*
X253060Y363144I1225J1223D01*
G01*
X106032Y308582D02*
G03*
X106041Y308573I3313J3294D01*
G01*
X131199Y315095D02*
G03*
X131204Y315100I-16711J16722D01*
G01*
X252234Y368656D02*
G03*
X252553Y369426I-771J771D01*
G01*
X140491Y324387D02*
G03*
X140465Y324361I19767J-19818D01*
G01*
X107633Y339525D02*
G03*
X107980Y340362I-837J837D01*
G01*
X107633Y339525D02*
G03*
X107631Y339523I837J-837D01*
G01*
X216938Y359903D02*
G03*
X216928Y359893I14064J-14084D01*
G01*
X234082Y351104D02*
G03*
X234081Y351103I1224J-1224D01*
G01*
D02*
G03*
X233575Y349880I1225J-1223D01*
G01*
X232485Y348525D02*
G03*
X233256Y348844I0J1090D01*
G01*
X232144Y348525D02*
G03*
X229980Y348014I0J-4838D01*
G01*
X122508Y299286D02*
G03*
X140469Y306725I0J25400D01*
G01*
X98876Y303854D02*
G03*
X109905Y299286I11029J11029D01*
G01*
X95287Y311262D02*
G03*
X97987Y304743I9219J0D01*
G01*
X95633Y339525D02*
G03*
X95287Y338688I837J-837D01*
G01*
X95633Y339525D02*
G03*
X95980Y340362I-837J837D01*
G01*
X233575Y344822D02*
G03*
X233256Y345592I-1090J0D01*
G01*
X234081Y343333D02*
G03*
X234082Y343332I1225J1223D01*
G01*
X233575Y344556D02*
G03*
X234081Y343333I1731J0D01*
G01*
X232156Y345911D02*
G03*
X230562Y345251I0J-2254D01*
G01*
X233256Y345592D02*
G03*
X232485Y345911I-771J-771D01*
G01*
X192416Y318696D02*
G03*
X212204Y326893I0J27986D01*
G01*
X166657Y318696D02*
G03*
X148697Y311257I0J-25400D01*
G01*
X122520Y296672D02*
G03*
X142309Y304869I0J27986D01*
G01*
X97052Y301982D02*
G03*
X109887Y296672I12836J12858D01*
G01*
X92673Y310180D02*
G03*
X95373Y303661I9219J0D01*
G01*
X92329Y339523D02*
G03*
X92327Y339525I-839J-835D01*
G01*
X92673Y338688D02*
G03*
X92329Y339523I-1183J0D01*
G01*
X91980Y340362D02*
G03*
X92327Y339525I1183J0D01*
G01*
X233256Y348844D02*
G03*
X233575Y349614I-771J771D01*
G01*
X229980Y348014D02*
G03*
X228723Y347108I2164J-4327D01*
G01*
X146881Y313137D02*
G03*
X146855Y313112I19767J-19818D01*
G01*
X97041Y301993D02*
G03*
X97052Y301982I12847J12847D01*
G01*
X303776Y403610D02*
G03*
X305004Y406574I-2964J2964D01*
G01*
X301574Y402382D02*
G03*
X303238Y403072I0J2353D01*
G01*
X301050Y402382D02*
G03*
X300280Y402063I0J-1090D01*
G01*
X300279Y402063D02*
G03*
X299960Y401293I771J-770D01*
G01*
X296808Y373884D02*
G03*
X296817Y373892I-7611J7611D01*
G01*
X280991Y365723D02*
G03*
X294055Y371131I0J18485D01*
G01*
X264932Y363138D02*
G03*
X265463Y364633I-1840J1496D01*
G01*
X264770Y362958D02*
G03*
X264932Y363138I-1678J1675D01*
G01*
X264769Y362957D02*
G03*
X264770Y362958I-1677J1677D01*
G01*
X266553Y365723D02*
G03*
X265782Y365404I0J-1090D01*
G01*
X297027Y402063D02*
G03*
X296257Y402382I-771J-771D01*
G01*
X294069Y403072D02*
G03*
X295734Y402382I1664J1664D01*
G01*
X297347Y401293D02*
G03*
X297028Y402063I-1090J0D01*
G01*
X292304Y406574D02*
G03*
X293531Y403610I4191J0D01*
G01*
X279908Y368337D02*
G03*
X292972Y373744I0J18485D01*
G01*
X264770Y371102D02*
G03*
X264769Y371103I-1678J-1675D01*
G01*
X264932Y370922D02*
G03*
X264770Y371102I-1840J-1496D01*
G01*
X265463Y369426D02*
G03*
X264932Y370922I-2371J0D01*
G01*
X265463Y369426D02*
G03*
X265782Y368656I1090J0D01*
G01*
D02*
G03*
X266553Y368337I771J771D01*
G01*
X300280Y402063D02*
X300279Y402063D01*
X296817Y373892D02*
G03*
X299960Y381494I-7620J7602D01*
G01*
X294055Y371131D02*
G03*
X294062Y371137I-13064J13078D01*
G01*
X297028Y402063D02*
X297027Y402063D01*
X295440Y376257D02*
G03*
X297347Y381508I-6276J5251D01*
G01*
X294950Y375722D02*
G03*
X295440Y376257I-5786J5786D01*
G01*
X292972Y373744D02*
G03*
X292979Y373751I-13064J13078D01*
G01*
X265782Y365404D02*
G03*
X265463Y364633I771J-771D01*
G01*
X332169Y403072D02*
G03*
X333834Y402382I1664J1664D01*
G01*
X330404Y406574D02*
G03*
X331631Y403610I4191J0D01*
G01*
X335447Y401293D02*
G03*
X335128Y402063I-1090J0D01*
G01*
X328836Y355138D02*
G03*
X335447Y371100I-15964J15962D01*
G01*
X335127Y402063D02*
G03*
X334357Y402382I-771J-771D01*
G01*
X328827Y355129D02*
G03*
X328835Y355137I-15955J15971D01*
G01*
X312872Y348525D02*
G03*
X328827Y355129I0J22575D01*
G01*
X246805Y348844D02*
G03*
X247575Y348525I771J771D01*
G01*
X246485Y349614D02*
G03*
X246805Y348844I1090J0D01*
G01*
X245979Y351103D02*
G03*
X245979Y351104I-1225J-1223D01*
G01*
X246485Y349880D02*
G03*
X245979Y351103I-1731J0D01*
G01*
X341876Y403610D02*
G03*
X343103Y406574I-2964J2964D01*
G01*
X339674Y402382D02*
G03*
X341338Y403072I0J2353D01*
G01*
X339150Y402382D02*
G03*
X338380Y402063I0J-1090D01*
G01*
X338379Y402063D02*
G03*
X338060Y401293I771J-770D01*
G01*
X331449Y354055D02*
G03*
X338060Y370017I-15964J15962D01*
G01*
X312881Y345911D02*
G03*
X330676Y353282I0J25165D01*
G01*
X247394Y345896D02*
G03*
X246805Y345592I181J-1075D01*
G01*
X247575Y345911D02*
G03*
X247394Y345896I0J-1090D01*
G01*
X246805Y345592D02*
G03*
X246485Y344822I771J-771D01*
G01*
X245979Y343333D02*
G03*
X246485Y344556I-1225J1223D01*
G01*
X245979Y343332D02*
G03*
X245979Y343333I-1224J1224D01*
G01*
X335128Y402063D02*
X335127Y402063D01*
X338380D02*
X338379Y402063D01*
X233829Y176408D02*
G03*
X234335Y175185I1731J0D01*
G01*
X233510Y177444D02*
G03*
X232739Y177763I-771J-771D01*
G01*
X233829Y176674D02*
G03*
X233510Y177444I-1090J0D01*
G01*
X234335Y175185D02*
G03*
X234336Y175184I1225J1223D01*
G01*
X180042Y177763D02*
G03*
X162082Y170324I0J-25400D01*
G01*
X133508Y153342D02*
G03*
X153297Y161539I0J27986D01*
G01*
X93319Y167640D02*
G03*
X97441Y157689I14073J0D01*
G01*
X234336Y182956D02*
G03*
X234335Y182955I1224J-1224D01*
G01*
D02*
G03*
X233829Y181732I1225J-1223D01*
G01*
X232739Y180377D02*
G03*
X233510Y180696I0J1090D01*
G01*
X180033Y180377D02*
G03*
X160266Y172204I0J-27990D01*
G01*
X133497Y155956D02*
G03*
X151458Y163396I0J25400D01*
G01*
X100033Y158793D02*
G03*
X106891Y155956I6858J6870D01*
G01*
X100019Y158807D02*
G03*
X100027Y158799I9892J9876D01*
G01*
X95933Y168683D02*
G03*
X100019Y158807I13978J0D01*
G01*
X106848Y153342D02*
G03*
X106873Y153342I25J12277D01*
G01*
X98191Y156938D02*
G03*
X98212Y156918I8681J8681D01*
G01*
D02*
G03*
X106848Y153342I8661J8702D01*
G01*
X233510Y180696D02*
G03*
X233829Y181467I-771J771D01*
G01*
X160266Y172204D02*
G03*
X160241Y172179I19767J-19818D01*
G01*
X100027Y158799D02*
G03*
X100033Y158793I6864J6864D01*
G01*
X252879Y195966D02*
G03*
X253385Y194743I1731J0D01*
G01*
D02*
G03*
X253386Y194742I1225J1223D01*
G01*
X252560Y197002D02*
G03*
X251789Y197321I-771J-771D01*
G01*
X252879Y196231D02*
G03*
X252560Y197002I-1090J0D01*
G01*
X235874Y197321D02*
G03*
X225801Y193149I0J-14246D01*
G01*
X216192Y188976D02*
G03*
X225468Y192816I0J13124D01*
G01*
X170935Y188976D02*
G03*
X152975Y181537I0J-25400D01*
G01*
X105319Y168599D02*
G03*
X106568Y165574I4288J0D01*
G01*
X121849Y161678D02*
G03*
X141083Y169645I0J27202D01*
G01*
X106568Y165574D02*
G03*
X106575Y165567I3039J3025D01*
G01*
X106602Y165541D02*
G03*
X115927Y161678I9325J9325D01*
G01*
X253385Y202513D02*
G03*
X252879Y201290I1225J-1223D01*
G01*
X251789Y199935D02*
G03*
X252560Y200254I0J1090D01*
G01*
X215727Y191590D02*
G03*
X223946Y194990I0J11632D01*
G01*
X170926Y191590D02*
G03*
X151159Y183417I0J-27990D01*
G01*
X121811Y164292D02*
G03*
X139262Y171520I0J24680D01*
G01*
X107933Y168615D02*
G03*
X108426Y167412I1711J0D01*
G01*
X108441Y167398D02*
G03*
X115950Y164292I7509J7523D01*
G01*
X108434Y167405D02*
G03*
X108441Y167398I7516J7516D01*
G01*
X225468Y192816D02*
G03*
X225472Y192820I-9276J9284D01*
G01*
X252560Y200254D02*
G03*
X252879Y201024I-771J771D01*
G01*
X223946Y194990D02*
G03*
X223953Y194997I-8219J8232D01*
G01*
X151159Y183417D02*
G03*
X151133Y183391I19767J-19818D01*
G01*
X108426Y167412D02*
G03*
X108434Y167405I1218J1202D01*
G01*
X341876Y235310D02*
G03*
X343103Y238274I-2964J2964D01*
G01*
X339674Y234082D02*
G03*
X341338Y234772I0J2353D01*
G01*
X339150Y234082D02*
G03*
X338380Y233763I0J-1090D01*
G01*
X338379Y233763D02*
G03*
X338060Y232993I771J-770D01*
G01*
X312452Y177763D02*
G03*
X330546Y185258I0J25589D01*
G01*
X246046Y174998D02*
G03*
X246739Y176674I-1678J1675D01*
G01*
X246045Y174997D02*
G03*
X246046Y174998I-1677J1677D01*
G01*
X247058Y177444D02*
G03*
X246739Y176674I771J-770D01*
G01*
X247059Y177444D02*
X247058Y177444D01*
X247829Y177763D02*
G03*
X247059Y177444I0J-1090D01*
G01*
X332169Y234772D02*
G03*
X333834Y234082I1664J1664D01*
G01*
X335127Y233763D02*
G03*
X334357Y234082I-771J-771D01*
G01*
X330404Y238274D02*
G03*
X331631Y235310I4191J0D01*
G01*
X335447Y232993D02*
G03*
X335128Y233763I-1090J0D01*
G01*
X312438Y180377D02*
G03*
X328699Y187107I0J23009D01*
G01*
X246046Y183142D02*
G03*
X246045Y183143I-1678J-1675D01*
G01*
X246739Y181467D02*
G03*
X246046Y183142I-2371J0D01*
G01*
X247058Y180696D02*
X247059Y180696D01*
X246739Y181467D02*
G03*
X247058Y180696I1090J0D01*
G01*
X247059Y180696D02*
G03*
X247829Y180377I771J771D01*
G01*
X338380Y233763D02*
X338379Y233763D01*
X331325Y186038D02*
G03*
X338060Y202303I-16274J16265D01*
G01*
X331321Y186033D02*
G03*
X331325Y186038I-16269J16269D01*
G01*
X335128Y233763D02*
X335127Y233763D01*
X328712Y187120D02*
G03*
X335447Y203385I-16274J16265D01*
G01*
X328708Y187116D02*
G03*
X328712Y187120I-16269J16269D01*
G01*
X328699Y187107D02*
G03*
X328708Y187116I-16261J16278D01*
G01*
X303776Y235310D02*
G03*
X305004Y238274I-2964J2964D01*
G01*
X301574Y234082D02*
G03*
X303238Y234772I0J2353D01*
G01*
X301050Y234082D02*
G03*
X300280Y233763I0J-1090D01*
G01*
D02*
G03*
X299960Y232993I771J-771D01*
G01*
X293693Y210074D02*
G03*
X299960Y225205I-15130J15130D01*
G01*
X266879Y197321D02*
G03*
X266108Y197002I0J-1090D01*
G01*
X265096Y194556D02*
G03*
X265258Y194736I-1678J1675D01*
G01*
X270728Y197321D02*
G03*
X288161Y204542I0J24654D01*
G01*
X294069Y234772D02*
G03*
X295734Y234082I1664J1664D01*
G01*
X297027Y233763D02*
G03*
X296257Y234082I-771J-771D01*
G01*
X292304Y238274D02*
G03*
X293531Y235310I4191J0D01*
G01*
X297347Y232993D02*
G03*
X297027Y233763I-1090J0D01*
G01*
X265789Y201024D02*
G03*
X265258Y202520I-2371J0D01*
G01*
D02*
G03*
X265096Y202700I-1840J-1496D01*
G01*
X266108Y200254D02*
G03*
X266879Y199935I771J771D01*
G01*
X265789Y201024D02*
G03*
X266108Y200254I1090J0D01*
G01*
X270692Y199935D02*
G03*
X286338Y206416I0J22127D01*
G01*
X266108Y197002D02*
G03*
X265789Y196231I771J-771D01*
G01*
X265258Y194736D02*
G03*
X265789Y196231I-1840J1496D01*
G01*
X291088Y211165D02*
G03*
X297347Y226287I-15139J15122D01*
G01*
X291079Y211157D02*
G03*
X291088Y211165I-15130J15130D01*
G01*
X284121Y29158D02*
G03*
X295291Y33785I0J15797D01*
G01*
X295319Y33813D02*
G03*
X295338Y33832I-11205J11205D01*
G01*
X300279Y65533D02*
G03*
X299960Y64763I771J-770D01*
G01*
X301050Y65852D02*
G03*
X300280Y65533I0J-1090D01*
G01*
X301574Y65852D02*
G03*
X303238Y66542I0J2353D01*
G01*
X303776Y67080D02*
G03*
X305004Y70044I-2964J2964D01*
G01*
X265034Y26418D02*
G03*
X265717Y28068I-1653J1650D01*
G01*
X265033Y26417D02*
G03*
X265034Y26418I-1651J1651D01*
G01*
X266036Y28839D02*
G03*
X265717Y28068I771J-770D01*
G01*
X266807Y29158D02*
G03*
X266036Y28839I0J-1090D01*
G01*
X284091Y31772D02*
G03*
X293464Y35654I0J13255D01*
G01*
X292304Y70044D02*
G03*
X293531Y67080I4191J0D01*
G01*
X297347Y64763D02*
G03*
X297028Y65533I-1090J0D01*
G01*
X297027Y65533D02*
G03*
X296257Y65852I-771J-771D01*
G01*
X294069Y66542D02*
G03*
X295734Y65852I1664J1664D01*
G01*
X265717Y32862D02*
G03*
X264961Y34687I-2582J0D01*
G01*
X265717Y32862D02*
G03*
X266036Y32091I1090J0D01*
G01*
X266036Y32091D02*
G03*
X266807Y31772I771J771D01*
G01*
X300280Y65533D02*
X300279Y65533D01*
X295338Y33832D02*
G03*
X299960Y45017I-11223J11186D01*
G01*
X297028Y65533D02*
X297027Y65533D01*
X293468Y35659D02*
G03*
X297347Y45027I-9377J9369D01*
G01*
X293464Y35654D02*
G03*
X293468Y35659I-9373J9373D01*
G01*
X333091Y15705D02*
G03*
X333102Y15716I-11997J11997D01*
G01*
X317819Y9361D02*
G03*
X333060Y15674I0J21554D01*
G01*
X247829Y9361D02*
G03*
X247059Y9042I0J-1090D01*
G01*
X247059Y9042D02*
G03*
X246739Y8271I771J-771D01*
G01*
X246233Y6783D02*
G03*
X246739Y8006I-1225J1223D01*
G01*
X246232Y6782D02*
G03*
X246233Y6783I-1224J1224D01*
G01*
X342669Y68294D02*
G03*
X343103Y70281I-4331J1987D01*
G01*
X341708Y66912D02*
G03*
X342669Y68294I-3370J3370D01*
G01*
X339150Y65852D02*
G03*
X341708Y66912I0J3617D01*
G01*
X339150Y65852D02*
G03*
X338380Y65533I0J-1090D01*
G01*
D02*
G03*
X338060Y64763I771J-771D01*
G01*
X331236Y17546D02*
G03*
X331244Y17554I-10165J10165D01*
G01*
X317786Y11975D02*
G03*
X331236Y17546I0J19021D01*
G01*
X246739Y13330D02*
G03*
X246233Y14553I-1731J0D01*
G01*
D02*
G03*
X246232Y14554I-1225J-1223D01*
G01*
X247059Y12294D02*
G03*
X247829Y11975I770J771D01*
G01*
X246739Y13065D02*
G03*
X247059Y12294I1090J0D01*
G01*
X330838Y68294D02*
G03*
X331799Y66912I4331J1987D01*
G01*
X330404Y70281D02*
G03*
X330838Y68294I4765J0D01*
G01*
X331799Y66912D02*
G03*
X334357Y65852I2558J2558D01*
G01*
X335127Y65533D02*
G03*
X334357Y65852I-771J-771D01*
G01*
X335447Y64763D02*
G03*
X335127Y65533I-1090J0D01*
G01*
X333102Y15716D02*
G03*
X338060Y27702I-12008J11986D01*
G01*
X331244Y17554D02*
G03*
X335447Y27711I-10173J10157D01*
G01*
X218413Y33442D02*
G03*
X222376Y31802I3964J3971D01*
G01*
X218409Y33445D02*
G03*
X210851Y36576I-7559J-7559D01*
G01*
X158152Y36576D02*
G03*
X138385Y28403I0J-27990D01*
G01*
X108811Y26644D02*
G03*
X109416Y25176I2080J0D01*
G01*
X109157Y54537D02*
G03*
X108811Y53700I837J-837D01*
G01*
X121205Y21082D02*
G03*
X138028Y28047I0J23802D01*
G01*
X111165Y23428D02*
G03*
X116834Y21082I5669J5677D01*
G01*
X251789Y31802D02*
G03*
X252560Y32121I0J1090D01*
G01*
X253379Y34359D02*
G03*
X252879Y33149I1213J-1209D01*
G01*
X253381Y34360D02*
G03*
X253379Y34359I1211J-1211D01*
G01*
X216587Y31571D02*
G03*
X222346Y29188I5759J5767D01*
G01*
X216583Y31575D02*
G03*
X210820Y33962I-5763J-5763D01*
G01*
X216583Y31575D02*
G03*
X216587Y31571I5763J5763D01*
G01*
X158162Y33962D02*
G03*
X140201Y26523I0J-25400D01*
G01*
X122287Y18468D02*
G03*
X139118Y25440I0J23802D01*
G01*
X106197Y26631D02*
G03*
X107557Y23339I4663J0D01*
G01*
X105504Y55374D02*
G03*
X105851Y54537I1183J0D01*
G01*
X106197Y53700D02*
G03*
X105851Y54537I-1183J0D01*
G01*
X252560Y28869D02*
G03*
X251789Y29188I-771J-771D01*
G01*
X252879Y28098D02*
G03*
X252560Y28869I-1090J0D01*
G01*
X253354Y26557D02*
G03*
X253417Y26491I1360J1233D01*
G01*
X253353Y26558D02*
G03*
X253354Y26557I1362J1231D01*
G01*
X252879Y27789D02*
G03*
X253353Y26558I1836J0D01*
G01*
X218409Y33445D02*
G03*
X218413Y33442I3967J3967D01*
G01*
X138385Y28403D02*
G03*
X138360Y28378I19767J-19818D01*
G01*
X109159Y54539D02*
G03*
X109504Y55374I-839J835D01*
G01*
X109157Y54537D02*
G03*
X109159Y54539I-837J837D01*
G01*
X109416Y25176D02*
G03*
X109420Y25173I1475J1467D01*
G01*
X111161Y23432D02*
G03*
X111165Y23428I5673J5673D01*
G01*
X116793Y18468D02*
G03*
X116816Y18468I23J10594D01*
G01*
X109344Y21553D02*
G03*
X116793Y18468I7473J7509D01*
G01*
X107557Y23339D02*
G03*
X107563Y23333I3303J3292D01*
G01*
X109325Y21571D02*
G03*
X109344Y21553I7491J7491D01*
G01*
X252560Y32121D02*
G03*
X252879Y32891I-771J771D01*
G01*
X234524Y14741D02*
G03*
X234522Y14740I1677J-1677D01*
G01*
D02*
G03*
X233829Y13065I1678J-1675D01*
G01*
X216642Y17940D02*
G03*
X198633Y25400I-18009J-18009D01*
G01*
X233510Y12294D02*
G03*
X233829Y13065I-771J770D01*
G01*
X232739Y11975D02*
G03*
X233510Y12294I0J1090D01*
G01*
X219248Y15334D02*
G03*
X227358Y11975I8109J8109D01*
G01*
X97157Y54537D02*
G03*
X97504Y55374I-837J837D01*
G01*
X162655Y25400D02*
G03*
X146449Y18687I0J-22918D01*
G01*
X97157Y54537D02*
G03*
X96811Y53700I837J-837D01*
G01*
X130244Y11975D02*
G03*
X146449Y18687I0J22918D01*
G01*
X100719Y15867D02*
G03*
X110127Y11975I9408J9424D01*
G01*
X100703Y15883D02*
G03*
X100711Y15875I9424J9408D01*
G01*
X96811Y25291D02*
G03*
X100703Y15883I13316J0D01*
G01*
X100711Y15875D02*
G03*
X100719Y15867I9416J9416D01*
G01*
X217429Y13457D02*
G03*
X227321Y9361I9919J9963D01*
G01*
X217407Y13479D02*
G03*
X217429Y13457I9941J9941D01*
G01*
X227321Y9361D02*
G03*
X227348Y9361I27J14059D01*
G01*
X214804Y16082D02*
G03*
X198607Y22786I-16197J-16214D01*
G01*
X214812Y16074D02*
G03*
X214804Y16082I-16206J-16206D01*
G01*
X234522Y6596D02*
G03*
X234524Y6595I1678J1675D01*
G01*
X233510Y9042D02*
G03*
X232739Y9361I-771J-771D01*
G01*
X233829Y8271D02*
G03*
X234522Y6596I2371J0D01*
G01*
X233829Y8271D02*
G03*
X233510Y9042I-1090J0D01*
G01*
X162691Y22786D02*
G03*
X148272Y16814I0J-20391D01*
G01*
X94197Y24208D02*
G03*
X98089Y14801I13316J0D01*
G01*
X93504Y55374D02*
G03*
X93848Y54539I1183J0D01*
G01*
X94197Y53700D02*
G03*
X93851Y54537I-1183J0D01*
G01*
X93848Y54539D02*
G03*
X93851Y54537I839J835D01*
G01*
X130280Y9361D02*
G03*
X148272Y16814I0J25445D01*
G01*
X98899Y13991D02*
G03*
X110081Y9361I11210J11257D01*
G01*
D02*
G03*
X110109Y9361I28J15886D01*
G01*
X98089Y14801D02*
G03*
X98097Y14792I9424J9408D01*
G01*
X98876Y14014D02*
G03*
X98899Y13991I11234J11234D01*
G01*
X284988Y180377D02*
X312438D01*
X278348D02*
X284988D01*
X275808Y182917D02*
X278348Y180377D01*
X271998Y182917D02*
X275808D01*
X269349Y180268D02*
X271998Y182917D01*
X265539Y180268D02*
X269349D01*
X262890Y182917D02*
X265539Y180268D01*
X259080Y182917D02*
X262890D01*
X256540Y180377D02*
X259080Y182917D01*
X252730Y180377D02*
X256540D01*
X247829D02*
X252730D01*
X197576Y36576D02*
X203571D01*
X195036Y39116D02*
X197576Y36576D01*
X191226Y39116D02*
X195036D01*
X188577Y36467D02*
X191226Y39116D01*
X184767Y36467D02*
X188577D01*
X182118Y39116D02*
X184767Y36467D01*
X178308Y39116D02*
X182118D01*
X175768Y36576D02*
X178308Y39116D01*
X171958Y36576D02*
X175768D01*
X158152D02*
X171958D01*
X203571D02*
X210851D01*
X162998Y25400D02*
X168438D01*
X170978Y27940D01*
X174788D01*
X177437Y25291D01*
X181247D01*
X183896Y27940D01*
X187706D01*
X190246Y25400D01*
X194056D01*
X162655D02*
X162998D01*
X194056D02*
X198633D01*
X281142Y11975D02*
X291592D01*
X278602Y14515D02*
X281142Y11975D01*
X274792Y14515D02*
X278602D01*
X272143Y11866D02*
X274792Y14515D01*
X268333Y11866D02*
X272143D01*
X265684Y14515D02*
X268333Y11866D01*
X261874Y14515D02*
X265684D01*
X259334Y11975D02*
X261874Y14515D01*
X255524Y11975D02*
X259334D01*
X247829D02*
X255524D01*
X291592D02*
X317786D01*
X208661Y191590D02*
X213614D01*
X206121Y194130D02*
X208661Y191590D01*
X202311Y194130D02*
X206121D01*
X199771Y191590D02*
X202311Y194130D01*
X190246Y191590D02*
X199771D01*
X213614D02*
X215727D01*
X170926D02*
X190246D01*
X245374Y199935D02*
X251789D01*
X242834Y202475D02*
X245374Y199935D01*
X239024Y202475D02*
X242834D01*
X236484Y199935D02*
X239024Y202475D01*
X234792Y199935D02*
X236484D01*
X195580Y180377D02*
X201458D01*
X203998Y182917D01*
X207808D01*
X210457Y180268D01*
X214267D01*
X216916Y182917D01*
X220726D01*
X223266Y180377D01*
X227076D01*
X180033D02*
X195580D01*
X227076D02*
X232739D01*
X168402Y332560D02*
X177387D01*
X179927Y335100D01*
X183737D01*
X186277Y332560D01*
X190087D01*
X196024D01*
X160258D02*
X168402D01*
X229920Y368337D02*
X235966D01*
X238506Y370877D01*
X242316D01*
X244856Y368337D01*
X248666D01*
X215073Y361734D02*
X215846Y362507D01*
X210016Y345037D02*
Y349526D01*
X206271Y336804D02*
X206842Y337375D01*
X248666Y368337D02*
X251463D01*
X195226Y321467D02*
X195226D01*
X166648Y321310D02*
X169614D01*
X172154Y323850D01*
X175964D01*
X178613Y321201D01*
X182423D01*
X185072Y323850D01*
X188882D01*
X191422Y321310D01*
X192404D01*
X281904Y348525D02*
X288798D01*
X279364Y351065D02*
X281904Y348525D01*
X275554Y351065D02*
X279364D01*
X272905Y348416D02*
X275554Y351065D01*
X269095Y348416D02*
X272905D01*
X266446Y351065D02*
X269095Y348416D01*
X262636Y351065D02*
X266446D01*
X260096Y348525D02*
X262636Y351065D01*
X256286Y348525D02*
X260096D01*
X288798D02*
X312872D01*
X247575D02*
X256286D01*
X161129Y472186D02*
X161129D01*
Y472186D02*
Y472186D01*
X161200Y472186D02*
X174123D01*
X176757Y474819D01*
X180567Y474820D01*
X183201Y472186D01*
X183310Y472077D01*
X187120Y472077D01*
X187229Y472186D01*
X189862Y474819D01*
X193672Y474820D01*
X196306Y472186D01*
X196622Y472186D01*
X197866Y461772D02*
X199781D01*
X136069Y445906D02*
X136069D01*
X148520Y452698D02*
X148520D01*
X149396Y453574D01*
X149396Y453574D02*
X149396Y453574D01*
X169188Y461772D02*
X171611D01*
X174311Y464471D01*
X178121D01*
X180929Y461663D01*
X184739D01*
X187547Y464471D01*
X191357D01*
X194056Y461772D01*
X197866D01*
X235423Y520521D02*
X235424Y520522D01*
X236872Y521970D01*
X103831Y445336D02*
X130745Y445336D01*
X97527Y448319D02*
X98290Y447556D01*
X94779Y454976D02*
X94779Y454932D01*
X94779Y454976D02*
Y472396D01*
X94779Y472396D01*
Y485246D01*
X95472Y486920D02*
Y489176D01*
X248917Y517943D02*
X253238D01*
X266446D02*
X274828D01*
X263652Y520737D02*
X266446Y517943D01*
X259842Y520737D02*
X263652D01*
X257048Y517943D02*
X259842Y520737D01*
X253238Y517943D02*
X257048D01*
X274828D02*
X316798D01*
X234917Y519033D02*
Y519298D01*
X232650Y517943D02*
X233827D01*
X222230Y512039D02*
X224940Y514749D01*
X215812Y478395D02*
Y496544D01*
X235423Y512751D02*
X235424Y512750D01*
X234917Y513974D02*
Y514240D01*
X235424Y512750D02*
X236872Y511302D01*
X232664Y515329D02*
X233827D01*
X224101Y510213D02*
X226779Y512891D01*
X218425Y477312D02*
Y496511D01*
X212662Y464490D02*
X213435Y465262D01*
X169197Y459158D02*
X199791D01*
X92165Y454964D02*
Y473479D01*
X150358Y450840D02*
X151237Y451719D01*
X103634Y442722D02*
X130759D01*
X92165Y473479D02*
Y485246D01*
X91472Y486920D02*
Y489176D01*
X92165Y473479D02*
X92165Y473479D01*
X95686Y446463D02*
X96453Y445696D01*
X104228Y458061D02*
Y485674D01*
X103819Y486083D02*
X103819D01*
X103819Y486083D02*
X104228Y485674D01*
X103819Y486083D02*
X103819Y486083D01*
X106841Y458263D02*
Y485397D01*
X103472Y486920D02*
Y489176D01*
X107472Y486920D02*
Y489176D01*
X111843Y453580D02*
X122289D01*
X215345Y529543D02*
X215392Y529590D01*
X235104Y537755D02*
X252733D01*
X253823Y538844D02*
Y539110D01*
X254330Y540334D02*
X255778Y541782D01*
X254329Y540333D02*
X254330Y540334D01*
X110760Y450967D02*
X123372D01*
X138243Y457126D02*
X143249Y462133D01*
X161210Y469572D02*
X196633D01*
X204922Y473006D02*
X205695Y473779D01*
X209878Y483889D02*
Y510024D01*
X253823Y533786D02*
Y534052D01*
X235161Y535141D02*
X252733D01*
X254330Y532562D02*
X255778Y531114D01*
X254329Y532563D02*
X254330Y532562D01*
X207264Y484971D02*
Y510034D01*
X137160Y459740D02*
X141408Y463988D01*
X303238Y571372D02*
X303776Y571910D01*
X301050Y570682D02*
X301574D01*
X299960Y563881D02*
Y569593D01*
X267292Y535141D02*
X273128D01*
X264778Y531114D02*
X265132Y531468D01*
X283861Y539586D02*
X294165Y549890D01*
X293531Y571910D02*
X294069Y571372D01*
X295734Y570682D02*
X296257D01*
X292304Y574874D02*
Y575726D01*
X282397Y541818D02*
X292310Y551732D01*
X264778Y541782D02*
X265132Y541428D01*
X267292Y537755D02*
X272587D01*
X305004Y574874D02*
Y575726D01*
X297347Y563890D02*
Y569593D01*
X341338Y571372D02*
X341876Y571910D01*
X339150Y570682D02*
X339674D01*
X338060Y534146D02*
Y569593D01*
X332038Y521636D02*
X333472Y523070D01*
X247133Y512563D02*
X247134Y512564D01*
X245872Y511302D02*
X247133Y512563D01*
X248917Y515329D02*
X316812D01*
X333834Y570682D02*
X334357D01*
X330404Y574874D02*
Y575726D01*
X331631Y571910D02*
X332169Y571372D01*
X335447Y534162D02*
Y569593D01*
X330200Y523494D02*
X331613Y524907D01*
X247133Y520709D02*
X247134Y520708D01*
X245872Y521970D02*
X247133Y520709D01*
X343103Y574874D02*
Y575726D01*
X107896Y310414D02*
X107914Y310397D01*
X113288Y308176D02*
X114487D01*
X107287Y311886D02*
Y338688D01*
X252553Y369426D02*
Y369692D01*
X253059Y370915D02*
X253060Y370916D01*
X254508Y372364D01*
X112706Y305562D02*
X115570D01*
X106041Y308573D02*
X106469Y308145D01*
X104673Y311876D02*
Y338688D01*
X103980Y340362D02*
Y342618D01*
X132286Y312486D02*
X142307Y322506D01*
X160267Y329946D02*
X196035D01*
X208111Y334948D02*
X208702Y335539D01*
X212630Y345021D02*
Y349515D01*
X252553Y364368D02*
Y364633D01*
X231003Y365723D02*
X251463D01*
X253059Y363145D02*
X253060Y363144D01*
X254508Y361696D01*
X131204Y315100D02*
X140465Y324361D01*
X107980Y340362D02*
Y342618D01*
X234082Y351104D02*
X235530Y352552D01*
X234081Y351103D02*
X234082Y351104D01*
X233575Y349614D02*
Y349880D01*
X232144Y348525D02*
X232485D01*
X210364Y328750D02*
X228723Y347108D01*
X95287Y311262D02*
Y324441D01*
X140469Y306725D02*
X146855Y313112D01*
X109905Y299286D02*
X122508D01*
X97987Y304743D02*
X98876Y303854D01*
X95287Y324441D02*
Y338688D01*
X233575Y344556D02*
Y344822D01*
X232156Y345911D02*
X232485D01*
X212204Y326893D02*
X230562Y345251D01*
X234082Y343332D02*
X235530Y341884D01*
X234081Y343333D02*
X234082Y343332D01*
X166657Y318696D02*
X192416D01*
X92673Y310180D02*
Y325524D01*
X142309Y304869D02*
X148697Y311257D01*
X109887Y296672D02*
X122520D01*
X95373Y303661D02*
X97041Y301993D01*
X92673Y325524D02*
Y338688D01*
X91980Y340362D02*
Y342618D01*
X95287Y324441D02*
X95287Y324441D01*
X92673Y325524D02*
X92673Y325524D01*
X95980Y340362D02*
Y342618D01*
X303238Y403072D02*
X303776Y403610D01*
X301050Y402382D02*
X301574D01*
X299960Y381494D02*
Y401293D01*
X294062Y371137D02*
X296808Y373884D01*
X264769Y362957D02*
X264770Y362958D01*
X263508Y361696D02*
X264769Y362957D01*
X266553Y365723D02*
X280991D01*
X295734Y402382D02*
X296257D01*
X293531Y403610D02*
X294069Y403072D01*
X292304Y406574D02*
Y407425D01*
X297347Y381508D02*
Y401293D01*
X264769Y371103D02*
X264770Y371102D01*
X263508Y372364D02*
X264769Y371103D01*
X266553Y368337D02*
X279908D01*
X305004Y406574D02*
Y407425D01*
X292979Y373751D02*
X294950Y375722D01*
X331631Y403610D02*
X332169Y403072D01*
X333834Y402382D02*
X334357D01*
X330404Y406574D02*
Y407425D01*
X335447Y371100D02*
Y401293D01*
X328835Y355137D02*
X328836Y355138D01*
X246485Y349614D02*
Y349880D01*
X245979Y351104D02*
X245979Y351103D01*
X244530Y352552D02*
X245979Y351104D01*
X341338Y403072D02*
X341876Y403610D01*
X339150Y402382D02*
X339674D01*
X338060Y370017D02*
Y401293D01*
X330676Y353282D02*
X331449Y354055D01*
X247575Y345911D02*
X312881D01*
X246485Y344556D02*
Y344822D01*
X245979Y343332D02*
X245979Y343333D01*
X244530Y341884D02*
X245979Y343332D01*
X343103Y406574D02*
Y407425D01*
X233829Y176408D02*
Y176674D01*
X234335Y175185D02*
X234336Y175184D01*
X180042Y177763D02*
X232739D01*
X234336Y175184D02*
X235784Y173736D01*
X153298Y161539D02*
X162082Y170324D01*
X93319Y167640D02*
Y196176D01*
X106873Y153342D02*
X133508D01*
X97441Y157689D02*
X98191Y156938D01*
X234336Y182956D02*
X235784Y184404D01*
X234335Y182955D02*
X234336Y182956D01*
X233829Y181467D02*
Y181732D01*
X151458Y163396D02*
X160241Y172179D01*
X95933Y168683D02*
Y196176D01*
X106891Y155956D02*
X133497D01*
X92626Y196870D02*
X93319Y196176D01*
X92626Y196870D02*
Y199616D01*
X96626Y196870D02*
Y199616D01*
X95933Y196176D02*
X96626Y196870D01*
X253385Y194743D02*
X253386Y194742D01*
X254834Y193294D01*
X235874Y197321D02*
X251789D01*
X252879Y195966D02*
Y196231D01*
X225472Y192820D02*
X225801Y193149D01*
X170935Y188976D02*
X216192D01*
X141083Y169645D02*
X152975Y181537D01*
X105319Y168599D02*
Y196176D01*
X115927Y161678D02*
X121849D01*
X106575Y165567D02*
X106602Y165541D01*
X253385Y202513D02*
X254834Y203962D01*
X252879Y201024D02*
Y201290D01*
X223953Y194997D02*
X224718Y195762D01*
X139262Y171520D02*
X151133Y183391D01*
X107933Y168615D02*
Y196176D01*
X121811Y164292D02*
X122894D01*
X115950D02*
X121811D01*
X104626Y196870D02*
X105319Y196176D01*
X104626Y196870D02*
Y199616D01*
X108626Y196870D02*
Y199616D01*
X107933Y196176D02*
X108626Y196870D01*
X341338Y234772D02*
X341876Y235310D01*
X339150Y234082D02*
X339674D01*
X338060Y202303D02*
Y232993D01*
X330546Y185258D02*
X331321Y186033D01*
X247829Y177763D02*
X312452D01*
X246045Y174997D02*
X246046Y174998D01*
X244784Y173736D02*
X246045Y174997D01*
X333834Y234082D02*
X334357D01*
X330404Y238274D02*
Y239125D01*
X331631Y235310D02*
X332169Y234772D01*
X335447Y203385D02*
Y232993D01*
X246045Y183143D02*
X246046Y183142D01*
X244784Y184404D02*
X246045Y183143D01*
X343103Y238274D02*
Y239125D01*
X303238Y234772D02*
X303776Y235310D01*
X301050Y234082D02*
X301574D01*
X299960Y225205D02*
Y232993D01*
X288161Y204542D02*
X293693Y210074D01*
X263834Y193294D02*
X265096Y194556D01*
X266879Y197321D02*
X270728D01*
X295734Y234082D02*
X296257D01*
X292304Y238274D02*
Y239125D01*
X293531Y235310D02*
X294069Y234772D01*
X297347Y226287D02*
Y232993D01*
X286338Y206416D02*
X291079Y211157D01*
X263834Y203962D02*
X265096Y202700D01*
X266879Y199935D02*
X270692D01*
X305004Y238274D02*
Y239125D01*
X266807Y29158D02*
X284121D01*
X295291Y33785D02*
X295319Y33813D01*
X299960Y45017D02*
Y64763D01*
X301050Y65852D02*
X301574D01*
X303238Y66542D02*
X303776Y67080D01*
X265033Y26417D02*
X265034Y26418D01*
X263762Y25146D02*
X265033Y26417D01*
X297347Y45027D02*
Y64763D01*
X293531Y67080D02*
X294069Y66542D01*
X292304Y70044D02*
Y70896D01*
X295734Y65852D02*
X296257D01*
X263834Y35814D02*
X264961Y34687D01*
X266807Y31772D02*
X284091D01*
X305004Y70044D02*
Y70896D01*
X338060Y27702D02*
Y64763D01*
X333060Y15674D02*
X333091Y15705D01*
X247829Y9361D02*
X317819D01*
X246739Y8006D02*
Y8271D01*
X246232Y6782D02*
X246233Y6783D01*
X244784Y5334D02*
X246232Y6782D01*
X335447Y27711D02*
Y64763D01*
X246739Y13065D02*
Y13330D01*
X246232Y14554D02*
X246233Y14553D01*
X244784Y16002D02*
X246232Y14554D01*
X330404Y70281D02*
Y70896D01*
X343103Y70281D02*
Y70896D01*
X138028Y28047D02*
X138360Y28378D01*
X137270Y27288D02*
X138028Y28047D01*
X108811Y26644D02*
Y53700D01*
X116834Y21082D02*
X121205D01*
X222376Y31802D02*
X251789D01*
X252879Y32891D02*
Y33149D01*
X253381Y34360D02*
X254834Y35814D01*
X253379Y34359D02*
X253381Y34360D01*
X158162Y33962D02*
X210820D01*
X139118Y25440D02*
X140201Y26523D01*
X106197Y26631D02*
Y53700D01*
X105504Y55374D02*
Y57630D01*
X116816Y18468D02*
X122287D01*
X222346Y29188D02*
X251789D01*
X252879Y27789D02*
Y28098D01*
X253417Y26491D02*
X254762Y25146D01*
X109504Y55374D02*
Y57630D01*
X109420Y25173D02*
X111161Y23432D01*
X107563Y23333D02*
X109325Y21571D01*
X234524Y14741D02*
X235784Y16002D01*
X234522Y14740D02*
X234524Y14741D01*
X216642Y17940D02*
X219248Y15334D01*
X227358Y11975D02*
X232739D01*
X97504Y55374D02*
Y57630D01*
X96811Y25291D02*
Y53700D01*
X110127Y11975D02*
X130244D01*
X227348Y9361D02*
X232739D01*
X162691Y22786D02*
X198607D01*
X214812Y16074D02*
X217407Y13479D01*
X234524Y6595D02*
X235784Y5334D01*
X234522Y6596D02*
X234524Y6595D01*
X94197Y24208D02*
Y53700D01*
X93504Y55374D02*
Y57630D01*
X110109Y9361D02*
X130280D01*
X98097Y14792D02*
X98876Y14014D01*
X22860Y334192D02*
X33289D01*
X38744Y328737D01*
Y328008D02*
Y328737D01*
X116626Y175600D02*
Y199616D01*
X112036Y171010D02*
X116626Y175600D01*
X50522Y316230D02*
X71334D01*
X38744Y328008D02*
X50522Y316230D01*
X71334D02*
X80920Y325816D01*
Y339025D01*
X70104Y312022D02*
X83025Y324943D01*
Y339025D01*
X60258Y312022D02*
X70104D01*
X83980Y339979D02*
Y342618D01*
X83025Y339025D02*
X83980Y339979D01*
X79980Y339964D02*
Y342618D01*
Y339964D02*
X80920Y339025D01*
X55744Y307508D02*
X60258Y312022D01*
D60*
X200382Y472996D02*
D03*
X266036Y28839D02*
D03*
X266036Y32091D02*
D03*
X247059Y9042D02*
D03*
X247059Y12294D02*
D03*
X233510Y12294D02*
D03*
X233510Y9042D02*
D03*
D61*
X187978Y643600D02*
D03*
Y639600D02*
D03*
Y635602D02*
D03*
Y631601D02*
D03*
Y627601D02*
D03*
Y623601D02*
D03*
Y619600D02*
D03*
Y615602D02*
D03*
Y611601D02*
D03*
Y607601D02*
D03*
X221978Y607604D02*
D03*
Y611604D02*
D03*
Y615602D02*
D03*
Y619603D02*
D03*
Y623603D02*
D03*
Y627603D02*
D03*
Y631604D02*
D03*
Y635602D02*
D03*
Y639603D02*
D03*
Y643603D02*
D03*
D62*
X198979Y603601D02*
D03*
X202979D02*
D03*
X206980D02*
D03*
X210980D02*
D03*
X210977Y647604D02*
D03*
X206977D02*
D03*
X202976D02*
D03*
X198976D02*
D03*
D63*
X204978Y625602D02*
D03*
D64*
X162782Y610696D02*
D03*
X154432D02*
D03*
X162782Y640428D02*
D03*
X154432D02*
D03*
D65*
X482803Y575485D02*
X482990Y575299D01*
Y561207D02*
X483026Y561171D01*
X482990Y561207D02*
Y575299D01*
X44047Y20011D02*
X48760D01*
X41284Y22774D02*
X44047Y20011D01*
X41284Y13557D02*
Y22774D01*
X69763Y160513D02*
X70358Y161108D01*
X65786Y159798D02*
X65837D01*
X66553Y160513D01*
X69763D01*
X73950Y431769D02*
X84582D01*
X68213D02*
X73950D01*
X73442Y431262D02*
X73950Y431769D01*
X73406Y427514D02*
X73442Y427550D01*
Y431262D01*
X100048Y310384D02*
Y313480D01*
X87873Y310356D02*
X87878Y310362D01*
Y313756D01*
X100020Y310356D02*
X100048Y310384D01*
Y313480D02*
X100076Y313508D01*
X87878Y313756D02*
X87884Y313762D01*
X22860Y325192D02*
X28987D01*
X29169Y325374D02*
X29220D01*
X28987Y325192D02*
X29169Y325374D01*
X83892Y427689D02*
X84067Y427514D01*
X84081D01*
X83892Y427689D02*
Y431080D01*
X38608Y307594D02*
Y315468D01*
X38354Y296418D02*
Y307118D01*
X110603Y431769D02*
X110744Y431628D01*
X38354Y307118D02*
X38744Y307508D01*
X70322Y297978D02*
X70358Y297942D01*
X70104Y303022D02*
X70322Y302804D01*
Y297978D02*
Y302804D01*
X38862Y156210D02*
Y165132D01*
X39473Y165743D01*
Y175439D01*
X100657Y288974D02*
X100722Y288909D01*
X100657Y288974D02*
Y293242D01*
X100620Y293278D02*
X100657Y293242D01*
X84535Y288768D02*
X100584D01*
X198272Y441452D02*
X198309Y441488D01*
X201058D02*
X201422Y441852D01*
X198309Y441488D02*
X201058D01*
X197468Y360934D02*
X198063Y361529D01*
Y367023D01*
X198272Y367233D01*
Y367284D01*
X482829Y407211D02*
Y423393D01*
X533629Y406971D02*
Y423139D01*
X559029Y238671D02*
Y255499D01*
X533629Y238671D02*
Y255499D01*
X482803Y238885D02*
X483072Y239154D01*
X470103Y407186D02*
X470626Y407708D01*
X470103Y238885D02*
X470372Y239154D01*
X279436Y239198D02*
X279604Y239366D01*
X279436Y221524D02*
Y239198D01*
X559272Y70684D02*
Y87594D01*
X482829Y70681D02*
Y87351D01*
X470129Y70681D02*
Y87351D01*
X559003Y70416D02*
X559272Y70684D01*
X533436Y70583D02*
Y87594D01*
X279436Y70968D02*
X279604Y71136D01*
X279436Y54138D02*
Y70968D01*
X246600Y595389D02*
Y610582D01*
X110117Y578305D02*
X110331Y578519D01*
X110117Y578305D02*
X110117Y578305D01*
X99568Y578327D02*
X110095D01*
X67564Y578612D02*
X67849Y578327D01*
X88900D02*
X89041Y578469D01*
X84297Y578327D02*
X88900D01*
X67849D02*
X72898D01*
X84297D01*
X84582Y431769D02*
X100076D01*
X100722Y288768D02*
X111249D01*
X86498Y221488D02*
X94626Y229616D01*
X68859Y288768D02*
X84535D01*
X201194Y296336D02*
X201422Y296564D01*
X201194Y291014D02*
Y296336D01*
X199172Y288992D02*
X201194Y291014D01*
X198287Y217947D02*
X198302Y217932D01*
X198287Y217947D02*
Y222428D01*
X198272Y222443D02*
X198287Y222428D01*
X201422Y149684D02*
Y154070D01*
X198309Y149134D02*
X200872D01*
X198272Y149098D02*
X198309Y149134D01*
X200872D02*
X201422Y149684D01*
X559003Y575726D02*
Y593395D01*
Y575246D02*
Y575726D01*
X279604Y407425D02*
Y407665D01*
Y386081D02*
Y407425D01*
X206977Y623603D02*
X211074Y619506D01*
X204978Y625602D02*
X206977Y623603D01*
X221978D01*
X546608Y605790D02*
X559003Y593395D01*
X517144Y605790D02*
X546608D01*
X512064D02*
X517144D01*
X506730D02*
X512064D01*
X110117Y578305D02*
X110236Y578186D01*
X110095Y578327D02*
X110117Y578305D01*
X68718Y288909D02*
X68859Y288768D01*
X68616Y289010D02*
X68718Y288909D01*
X767298Y596501D02*
Y601690D01*
X767334Y601726D01*
X767139Y596342D02*
X767298Y596501D01*
X470129Y87351D02*
X470154Y87376D01*
X470103Y70655D02*
X470129Y70681D01*
X482829Y87351D02*
X482854Y87376D01*
X482803Y70655D02*
X482829Y70681D01*
X533400Y87630D02*
X533436Y87594D01*
Y70583D02*
X533604Y70416D01*
X559272Y87594D02*
X559308Y87630D01*
X470372Y239154D02*
Y255996D01*
X470408Y256032D01*
X483072Y255996D02*
X483108Y256032D01*
X483072Y239154D02*
Y255996D01*
X533629Y255499D02*
X533654Y255524D01*
X533604Y238645D02*
X533629Y238671D01*
X559029Y255499D02*
X559054Y255524D01*
X559003Y238645D02*
X559029Y238671D01*
X470626Y423382D02*
X470662Y423418D01*
X470626Y407708D02*
Y423382D01*
X482803Y407186D02*
X482829Y407211D01*
Y423393D02*
X482854Y423418D01*
X533604Y406945D02*
X533629Y406971D01*
Y423139D02*
X533654Y423164D01*
X559003Y406945D02*
X559029Y406920D01*
Y390423D02*
Y406920D01*
Y390423D02*
X559054Y390398D01*
X533604Y563927D02*
Y575246D01*
X528828Y562832D02*
X532509D01*
X533604Y563927D01*
X470129Y558825D02*
Y575460D01*
X470103Y575485D02*
X470129Y575460D01*
Y558825D02*
X470154Y558800D01*
X317729Y385851D02*
X317754Y385826D01*
X317729Y385851D02*
Y407400D01*
X317703Y407425D02*
X317729Y407400D01*
X355829Y385597D02*
X355854Y385572D01*
X355803Y407425D02*
X355829Y407400D01*
Y385597D02*
Y407400D01*
X279400Y221488D02*
X279436Y221524D01*
X317972Y221270D02*
X318008Y221234D01*
X317972Y221270D02*
Y238857D01*
X317703Y239125D02*
X317972Y238857D01*
X355600Y217170D02*
Y217221D01*
X355803Y217425D02*
Y239125D01*
X355600Y217221D02*
X355803Y217425D01*
X279400Y54102D02*
X279436Y54138D01*
X317500Y53086D02*
X317536Y53122D01*
Y70728D02*
X317703Y70896D01*
X317536Y53122D02*
Y70728D01*
X355803Y70896D02*
X355829Y70870D01*
Y48285D02*
Y70870D01*
Y48285D02*
X355854Y48260D01*
X318799Y588010D02*
X323342D01*
X317703Y575726D02*
Y586915D01*
X318799Y588010D01*
X356072Y559090D02*
X356108Y559054D01*
X356072Y559090D02*
Y575457D01*
X355803Y575726D02*
X356072Y575457D01*
X110331Y582771D02*
X110367Y582807D01*
X110331Y578519D02*
Y582771D01*
X99091Y578327D02*
Y578351D01*
X98973Y578469D02*
X99091Y578351D01*
X83892Y431080D02*
X84582Y431769D01*
X100217D02*
X110603D01*
X100076Y431911D02*
X100217Y431769D01*
X211074Y614934D02*
Y619506D01*
X154432Y640428D02*
X162782D01*
X148227D02*
X154432D01*
X146101Y638302D02*
X148227Y640428D01*
X146050Y638302D02*
X146101D01*
X154432Y610696D02*
X162782D01*
X141101D02*
X154432D01*
X141021Y610616D02*
X141101Y610696D01*
X140970Y610616D02*
X141021D01*
X246566D02*
X246600Y610582D01*
Y595389D02*
X246634Y595355D01*
X173025Y667004D02*
X173097Y666932D01*
X172974Y667004D02*
X173025D01*
X173097Y666932D02*
X188976D01*
X72898Y574516D02*
Y578327D01*
X83602Y574552D02*
Y577632D01*
X84297Y578327D01*
X83566Y574516D02*
X83602Y574552D01*
X89041Y578469D02*
X98973D01*
X68072Y431911D02*
X68213Y431769D01*
X68616Y289010D02*
Y293588D01*
X68580Y293624D02*
X68616Y293588D01*
X75518Y489222D02*
Y495518D01*
X75554Y495554D01*
X75472Y489176D02*
X75518Y489222D01*
X76708Y221488D02*
X86498D01*
X76626Y199616D02*
X76672Y199662D01*
Y205958D01*
X76708Y205994D01*
X58420Y35528D02*
Y43638D01*
X58284Y43774D02*
X58420Y43638D01*
X50808Y43688D02*
X58198D01*
X58284Y43774D01*
X55626Y185896D02*
X55998Y186268D01*
X55626Y178111D02*
Y185896D01*
X48522Y186268D02*
X55998D01*
X23114Y182952D02*
X29241D01*
X29423Y183134D01*
X29474D01*
X48268Y328676D02*
X55576D01*
X55744Y328508D01*
X56388Y320045D02*
Y327864D01*
X55744Y328508D02*
X56388Y327864D01*
X84546Y293334D02*
X84582Y293370D01*
X84546Y288778D02*
Y293334D01*
X84535Y288768D02*
X84546Y288778D01*
X111249Y288768D02*
X111390Y288626D01*
X767139Y581106D02*
Y596342D01*
Y428118D02*
Y581106D01*
Y412907D02*
Y428118D01*
Y259843D02*
Y412907D01*
Y244632D02*
Y259843D01*
Y91695D02*
Y244632D01*
Y76611D02*
Y91695D01*
X125504Y93630D02*
X136048D01*
X140716Y98298D02*
X162306D01*
X136048Y93630D02*
X140716Y98298D01*
X166116Y88577D02*
Y94488D01*
X162306Y98298D02*
X166116Y94488D01*
X169154Y83312D02*
X175006D01*
X166116Y88577D02*
X166121Y88572D01*
Y86345D02*
X169154Y83312D01*
X166121Y86345D02*
Y88572D01*
X135540Y235616D02*
X139954Y240030D01*
X124626Y235616D02*
X135540D01*
X139954Y240030D02*
X160274D01*
X165243Y228331D02*
Y235061D01*
X160274Y240030D02*
X165243Y235061D01*
Y228331D02*
X166244Y227330D01*
X167386D01*
X159258Y383286D02*
X164592Y377952D01*
X139954Y383286D02*
X159258D01*
X135286Y378618D02*
X139954Y383286D01*
X164597Y369057D02*
X166370Y367284D01*
X164597Y369057D02*
Y373560D01*
X164592Y373565D02*
X164597Y373560D01*
X164592Y373565D02*
Y377952D01*
X123980Y378618D02*
X135286D01*
X164089Y517891D02*
Y525775D01*
X138517Y529169D02*
X160695D01*
X164089Y525775D01*
Y517891D02*
X165090Y516890D01*
X169164D01*
X134524Y525176D02*
X138517Y529169D01*
X123472Y525176D02*
X134524D01*
D66*
X186882Y341978D02*
X188722Y343818D01*
X184150Y341884D02*
X184244Y341978D01*
X188722Y343818D02*
Y346564D01*
X184244Y341978D02*
X186882D01*
X102291Y125420D02*
Y126227D01*
X101504Y117630D02*
Y124632D01*
X102291Y125420D01*
X98496Y110716D02*
X105090D01*
X109504Y115130D02*
Y117630D01*
X105090Y110716D02*
X109504Y115130D01*
X93288Y558121D02*
Y558737D01*
X95472Y549176D02*
Y555937D01*
X93288Y558121D02*
X95472Y555937D01*
X99660Y554794D02*
X102394Y557527D01*
X99660Y549364D02*
Y554794D01*
X99472Y549176D02*
X99660Y549364D01*
X98043Y542047D02*
X100882D01*
X97472Y542618D02*
X98043Y542047D01*
X100882D02*
X100935Y541994D01*
X102790D01*
X107472Y546676D02*
Y549176D01*
X102790Y541994D02*
X107472Y546676D01*
X111472Y549176D02*
X111536Y549240D01*
Y559296D01*
X111548Y559308D01*
X110299Y412400D02*
Y413165D01*
Y412400D02*
X112408Y410290D01*
Y406601D02*
Y410290D01*
X112168Y406361D02*
X112408Y406601D01*
X108168Y402806D02*
Y407704D01*
X108630Y408166D01*
X100019Y402657D02*
Y408779D01*
X100058Y408818D01*
X99980Y402618D02*
X100019Y402657D01*
X107980Y402618D02*
X108168Y402806D01*
X111980Y402618D02*
X112168Y402806D01*
Y406361D01*
X95869Y402507D02*
X95980Y402618D01*
X95758Y397510D02*
X95869Y397621D01*
Y402507D01*
X110302Y264440D02*
X112626Y262116D01*
X110302Y264440D02*
Y265932D01*
X109731Y266503D02*
X110302Y265932D01*
X112626Y259616D02*
Y262116D01*
X170691Y155953D02*
X174182D01*
X176022Y154070D02*
Y154112D01*
X174182Y155953D02*
X176022Y154112D01*
X186249Y197675D02*
X188722Y200148D01*
X184658Y197104D02*
X185229Y197675D01*
X188722Y200148D02*
Y204070D01*
X185229Y197675D02*
X186249D01*
X43251Y176995D02*
Y182015D01*
Y176995D02*
X45913Y174333D01*
X38998Y186268D02*
X43251Y182015D01*
X45913Y174333D02*
X71709D01*
X38998Y186268D02*
Y186460D01*
X95009Y268227D02*
Y269034D01*
Y268227D02*
X96626Y266610D01*
Y259616D02*
Y266610D01*
X108626Y255003D02*
X108626Y255003D01*
Y259616D01*
X94742Y127208D02*
Y128016D01*
Y127208D02*
X97504Y124446D01*
Y117630D02*
Y124446D01*
X113504Y117630D02*
Y127540D01*
X113726Y127762D01*
X201422Y198976D02*
Y204070D01*
X199136Y196596D02*
Y196690D01*
X201422Y198976D01*
Y341397D02*
Y346564D01*
X198988Y338796D02*
Y338963D01*
X201422Y341397D01*
X176022Y441852D02*
Y450850D01*
X188023Y491153D02*
X188722Y491852D01*
X115980Y318486D02*
Y342618D01*
X111506Y314012D02*
X115980Y318486D01*
X151257Y509651D02*
Y511602D01*
X152736Y513080D01*
X142782Y501176D02*
X151257Y509651D01*
X147580Y496900D02*
X147580D01*
X152736Y491744D01*
X123502Y497206D02*
X147274D01*
X147580Y496900D01*
X115472Y483518D02*
X116332Y482658D01*
Y465650D02*
Y482658D01*
X110998Y460316D02*
X116332Y465650D01*
X151765Y363093D02*
Y365044D01*
X153244Y366522D01*
X144526Y355854D02*
X151765Y363093D01*
X127982Y355854D02*
X144526D01*
X126746Y354618D02*
X127982Y355854D01*
X123980Y354618D02*
X126746D01*
X123980Y350618D02*
X147811D01*
X153244Y345186D01*
X117504Y33244D02*
Y57630D01*
X113030Y28770D02*
X117504Y33244D01*
X144814Y69630D02*
X153289Y78105D01*
Y80056D02*
X154768Y81534D01*
X153289Y78105D02*
Y80056D01*
X149335Y65630D02*
X154768Y60198D01*
X125504Y65630D02*
X149335D01*
X121412Y414274D02*
Y422982D01*
X115983Y408845D02*
X121412Y414274D01*
X115983Y402621D02*
Y408845D01*
X115980Y402618D02*
X115983Y402621D01*
X110890Y422982D02*
X121412D01*
X116626Y259616D02*
Y264293D01*
X118872Y266539D02*
Y280126D01*
X116626Y264293D02*
X118872Y266539D01*
Y280126D02*
X121912D01*
X111390D02*
X118872D01*
X41284Y43274D02*
Y44038D01*
X52808Y31750D02*
X74160D01*
X41284Y43274D02*
X52808Y31750D01*
X74160D02*
X82536Y40126D01*
X72898Y27614D02*
X84568Y39284D01*
Y54043D01*
X63124Y27614D02*
X72898D01*
X84568Y54043D02*
X85504Y54979D01*
Y57630D01*
X82536Y40126D02*
Y54043D01*
X81504Y55075D02*
Y57630D01*
Y55075D02*
X82536Y54043D01*
X58284Y22774D02*
X63124Y27614D01*
X25654Y49530D02*
X35792D01*
X41284Y44038D01*
X39506Y471772D02*
X51030Y460248D01*
X72382D01*
X80448Y468313D01*
Y485589D01*
X71120Y456112D02*
X82479Y467472D01*
Y485417D01*
X83472Y486410D01*
X79472Y486564D02*
Y489176D01*
Y486564D02*
X80448Y485589D01*
X83472Y486410D02*
Y489176D01*
X56506Y451272D02*
X61346Y456112D01*
X71120D01*
X23622Y477702D02*
X34076D01*
X39506Y472272D01*
Y471772D02*
Y472272D01*
X55998Y165268D02*
X60838Y170108D01*
X70358D01*
X71709Y174333D02*
X77619Y180243D01*
X84626Y196919D02*
Y199616D01*
X83736Y183486D02*
Y196029D01*
X84626Y196919D01*
X79651Y179401D02*
X83736Y183486D01*
X80626Y197107D02*
Y199616D01*
Y197107D02*
X81704Y196029D01*
Y184328D02*
Y196029D01*
X77619Y180243D02*
X81704Y184328D01*
X77619Y180243D02*
Y180243D01*
X79651Y179401D02*
Y179401D01*
X70358Y170108D02*
X79651Y179401D01*
X23114Y191952D02*
X33506D01*
X38998Y186460D01*
X125504Y69630D02*
X144814D01*
X112414Y137994D02*
X117675D01*
X122936D01*
X117504Y137823D02*
X117675Y137994D01*
X117504Y117630D02*
Y137823D01*
X112268Y138140D02*
X112414Y137994D01*
X121912Y280126D02*
X122058Y279980D01*
X110744Y423128D02*
X110890Y422982D01*
X123472Y501176D02*
X142782D01*
X115472Y483518D02*
Y489176D01*
D67*
X221116Y666614D02*
X221488Y666242D01*
X193836Y657932D02*
Y662432D01*
X193802Y663888D02*
X196596Y666682D01*
X199644D01*
X193802Y662432D02*
Y663888D01*
X195834Y653542D02*
X200464D01*
X193836Y655540D02*
X195834Y653542D01*
X199644Y666682D02*
X199678Y666648D01*
X209922D01*
X193836Y655540D02*
Y657932D01*
X188976D02*
X193836D01*
X200464Y653542D02*
X202866Y651141D01*
X221116Y666614D02*
X221234D01*
X210312D02*
X221116D01*
X202866Y647714D02*
Y651141D01*
Y647714D02*
X202976Y647604D01*
X209922Y666614D02*
X210312D01*
X209042Y665734D02*
X209922Y666614D01*
X203521Y644558D02*
X204523D01*
X204948Y644133D01*
X202946Y645134D02*
X203521Y644558D01*
D68*
X144990Y246126D02*
X147966D01*
D69*
X629403Y392425D02*
D03*
X249403D02*
D03*
X629403Y224125D02*
D03*
X249403D02*
D03*
X629403Y55896D02*
D03*
X249403D02*
D03*
X629403Y560726D02*
D03*
X249403D02*
D03*
D70*
X100962Y649896D02*
D03*
Y606896D02*
D03*
X52962D02*
D03*
Y649896D02*
D03*
D71*
X654910Y614318D02*
D03*
D72*
X676910Y639318D02*
D03*
D73*
X704910Y591818D02*
D03*
D74*
X132588Y623824D02*
D03*
X128862Y620098D02*
D03*
X115653Y642196D02*
D03*
X119380Y645922D02*
D03*
X146050Y650563D02*
D03*
Y645293D02*
D03*
X379669Y529143D02*
D03*
X380104Y520580D02*
D03*
X426212Y555752D02*
D03*
X483026Y561171D02*
D03*
X48760Y20011D02*
D03*
X25146Y56896D02*
D03*
X161225Y418403D02*
D03*
X271780Y622554D02*
D03*
X296380Y619722D02*
D03*
X184150Y341884D02*
D03*
X73660Y74265D02*
D03*
Y68995D02*
D03*
X26620Y91027D02*
D03*
Y85757D02*
D03*
X73914Y108265D02*
D03*
Y102995D02*
D03*
X73152Y216251D02*
D03*
Y210981D02*
D03*
X26416Y227743D02*
D03*
Y233013D02*
D03*
X73152Y250251D02*
D03*
Y244981D02*
D03*
X159004Y305093D02*
D03*
X72390Y393253D02*
D03*
Y387983D02*
D03*
X72136Y353983D02*
D03*
Y359253D02*
D03*
X26416Y370745D02*
D03*
Y376015D02*
D03*
Y517303D02*
D03*
Y522573D02*
D03*
X71628Y505811D02*
D03*
Y500541D02*
D03*
X71882Y539811D02*
D03*
Y534541D02*
D03*
X129032Y605831D02*
D03*
Y600561D02*
D03*
X396665Y599269D02*
D03*
X74328Y608076D02*
D03*
X400392Y595542D02*
D03*
X79598Y608076D02*
D03*
X79597Y655066D02*
D03*
X74327D02*
D03*
X391651Y603775D02*
D03*
X387925Y607501D02*
D03*
X379439Y615988D02*
D03*
X383165Y612261D02*
D03*
X191770Y574802D02*
D03*
X92626Y264229D02*
D03*
X123607Y403741D02*
D03*
X176022Y57404D02*
D03*
X65786Y159798D02*
D03*
X102291Y126227D02*
D03*
X73152Y12192D02*
D03*
X41284Y13557D02*
D03*
X98496Y110716D02*
D03*
X95504Y146922D02*
D03*
X96956Y137027D02*
D03*
X176022Y199898D02*
D03*
X187960Y161290D02*
D03*
X175923Y484378D02*
D03*
X188100Y450088D02*
D03*
X93288Y558737D02*
D03*
X91472Y553789D02*
D03*
X102394Y557527D02*
D03*
X94512Y565315D02*
D03*
X97472Y542618D02*
D03*
X111548Y559308D02*
D03*
X38862Y441166D02*
D03*
X170586Y346564D02*
D03*
X185166Y297942D02*
D03*
X78740Y415798D02*
D03*
X110299Y413165D02*
D03*
X108630Y408166D02*
D03*
X73406Y427514D02*
D03*
X171180Y302260D02*
D03*
X100020Y310356D02*
D03*
X87873D02*
D03*
X29220Y325374D02*
D03*
X84067Y427514D02*
D03*
X84081D02*
D03*
X100058Y408818D02*
D03*
X87274Y409586D02*
D03*
X95387Y419847D02*
D03*
X38608Y315468D02*
D03*
X38354Y296418D02*
D03*
X95758Y397510D02*
D03*
X70358Y297942D02*
D03*
X109731Y266503D02*
D03*
X184658Y197104D02*
D03*
X170691Y155953D02*
D03*
X163322Y163830D02*
D03*
X38862Y156210D02*
D03*
X39473Y175439D02*
D03*
X27686Y239014D02*
D03*
X100620Y293278D02*
D03*
X100626Y255002D02*
D03*
X95009Y269034D02*
D03*
X108626Y255003D02*
D03*
X98044Y274574D02*
D03*
X94742Y128016D02*
D03*
X113726Y127762D02*
D03*
X183642Y11684D02*
D03*
X201422Y3556D02*
D03*
X199064Y81208D02*
D03*
X198272Y441452D02*
D03*
Y367284D02*
D03*
X199172Y288992D02*
D03*
X198272Y222443D02*
D03*
Y149098D02*
D03*
X199136Y196596D02*
D03*
X198988Y338796D02*
D03*
X163487Y450850D02*
D03*
X176022D02*
D03*
X187096Y483616D02*
D03*
X199784Y483690D02*
D03*
X158496Y11430D02*
D03*
X171958D02*
D03*
X188722Y52832D02*
D03*
X201422Y52070D02*
D03*
X26829Y364970D02*
D03*
X26787Y381508D02*
D03*
X35786Y109516D02*
D03*
X323146Y660850D02*
D03*
X538226Y599440D02*
D03*
Y594614D02*
D03*
X543306Y599440D02*
D03*
Y594614D02*
D03*
X277622Y549656D02*
D03*
X720852Y62992D02*
D03*
X724662Y59436D02*
D03*
X728472Y56388D02*
D03*
X714502Y33274D02*
D03*
X719582Y28194D02*
D03*
X725424Y22860D02*
D03*
X678706Y551872D02*
D03*
X767334Y601726D02*
D03*
X641379Y229870D02*
D03*
X640842Y397764D02*
D03*
X171159Y408857D02*
D03*
X85852Y81280D02*
D03*
X155194Y560324D02*
D03*
X696628Y219052D02*
D03*
Y229974D02*
D03*
Y224386D02*
D03*
X695613Y398052D02*
D03*
X695597Y387028D02*
D03*
Y392606D02*
D03*
X195072Y640588D02*
D03*
X157988Y398526D02*
D03*
X695452Y272796D02*
D03*
Y261620D02*
D03*
Y267208D02*
D03*
Y256286D02*
D03*
X470154Y87376D02*
D03*
X482854D02*
D03*
X533400Y87630D02*
D03*
X559308D02*
D03*
X470408Y256032D02*
D03*
X483108D02*
D03*
X533654Y255524D02*
D03*
X559054D02*
D03*
X470662Y423418D02*
D03*
X482854D02*
D03*
X533654Y423164D02*
D03*
X559054Y390398D02*
D03*
X517144Y605790D02*
D03*
X506730D02*
D03*
X512064D02*
D03*
X528828Y562832D02*
D03*
X470154Y558800D02*
D03*
X279604Y386081D02*
D03*
X317754Y385826D02*
D03*
X355854Y385572D02*
D03*
X279400Y221488D02*
D03*
X318008Y221234D02*
D03*
X355600Y217170D02*
D03*
X279400Y54102D02*
D03*
X317500Y53086D02*
D03*
X355854Y48260D02*
D03*
X654304Y262636D02*
D03*
X659130Y193040D02*
D03*
X717565Y158840D02*
D03*
X723153D02*
D03*
X728487D02*
D03*
X711977D02*
D03*
X723153Y153252D02*
D03*
X717565D02*
D03*
X712231D02*
D03*
X728741D02*
D03*
X728233Y282030D02*
D03*
X722645D02*
D03*
X717311D02*
D03*
X733821D02*
D03*
X728233Y287364D02*
D03*
X722645D02*
D03*
X717311D02*
D03*
X727964Y321056D02*
D03*
X711454D02*
D03*
X716788D02*
D03*
X722376D02*
D03*
X711200Y326644D02*
D03*
X727710D02*
D03*
X722376D02*
D03*
X716788D02*
D03*
X659130Y361188D02*
D03*
X654558Y429768D02*
D03*
X695960Y439928D02*
D03*
Y423418D02*
D03*
Y428752D02*
D03*
Y434340D02*
D03*
X733806Y455168D02*
D03*
X717296D02*
D03*
X722630D02*
D03*
X728218D02*
D03*
X733806Y449834D02*
D03*
X717296D02*
D03*
X722630D02*
D03*
X728218D02*
D03*
X500532Y521510D02*
D03*
X505644Y525606D02*
D03*
X496754Y526114D02*
D03*
X500853Y530612D02*
D03*
X517296Y521510D02*
D03*
X522408Y525606D02*
D03*
X513518Y526114D02*
D03*
X517617Y530612D02*
D03*
X501040Y649294D02*
D03*
X497262Y653898D02*
D03*
X501361Y658396D02*
D03*
X517972Y658294D02*
D03*
X513874Y653796D02*
D03*
X522764Y653288D02*
D03*
X517652Y649192D02*
D03*
X579120Y360680D02*
D03*
Y355092D02*
D03*
Y349504D02*
D03*
X505799D02*
D03*
Y355092D02*
D03*
Y360680D02*
D03*
X432477Y349504D02*
D03*
Y355092D02*
D03*
Y360680D02*
D03*
X359156Y349504D02*
D03*
Y355092D02*
D03*
Y360680D02*
D03*
X579120Y192024D02*
D03*
Y186436D02*
D03*
Y180848D02*
D03*
X505799D02*
D03*
Y186436D02*
D03*
Y192024D02*
D03*
X432477Y180848D02*
D03*
Y186436D02*
D03*
Y192024D02*
D03*
X359156Y180848D02*
D03*
Y186436D02*
D03*
Y192024D02*
D03*
Y23876D02*
D03*
Y18288D02*
D03*
Y12700D02*
D03*
X432477Y23876D02*
D03*
Y18288D02*
D03*
Y12700D02*
D03*
X505799Y23876D02*
D03*
Y18288D02*
D03*
Y12700D02*
D03*
X579120D02*
D03*
Y18288D02*
D03*
Y23876D02*
D03*
X502666Y52660D02*
D03*
X508254D02*
D03*
X513842D02*
D03*
X578866D02*
D03*
X584454D02*
D03*
X590042D02*
D03*
X593090Y550046D02*
D03*
X581152Y518160D02*
D03*
X581406Y659638D02*
D03*
X592582Y636778D02*
D03*
X323342Y588010D02*
D03*
X356108Y559054D02*
D03*
X343662Y617728D02*
D03*
X356108Y618998D02*
D03*
X366522Y577342D02*
D03*
X375158Y585216D02*
D03*
X110367Y582807D02*
D03*
X153408Y573794D02*
D03*
X157226Y544830D02*
D03*
X162814Y568706D02*
D03*
X95758Y80772D02*
D03*
X108458Y78486D02*
D03*
X85598Y98298D02*
D03*
X97282Y98806D02*
D03*
X108204Y99060D02*
D03*
X160020Y119888D02*
D03*
X154432Y124206D02*
D03*
X155956Y135128D02*
D03*
X161798Y141732D02*
D03*
X159766Y261620D02*
D03*
X156718Y275844D02*
D03*
X159004Y283972D02*
D03*
X158750Y234188D02*
D03*
X80264Y235966D02*
D03*
X105918Y221742D02*
D03*
X91440Y222504D02*
D03*
X87630Y238252D02*
D03*
X104902Y372110D02*
D03*
X83312Y385064D02*
D03*
X85598Y369824D02*
D03*
X106172Y380746D02*
D03*
X106934Y360426D02*
D03*
X166878Y420370D02*
D03*
X155194Y427736D02*
D03*
X344932Y527558D02*
D03*
X366014Y528574D02*
D03*
X390652Y556514D02*
D03*
X387096Y639064D02*
D03*
X369062Y656336D02*
D03*
X333756Y649732D02*
D03*
X325374Y641604D02*
D03*
X308356Y624586D02*
D03*
X316738Y632714D02*
D03*
X412780Y572770D02*
D03*
X311658Y525018D02*
D03*
X295910Y542036D02*
D03*
X303439Y534726D02*
D03*
X278357Y560545D02*
D03*
X311152Y558091D02*
D03*
X319651Y549636D02*
D03*
X328049Y541079D02*
D03*
X284346Y630453D02*
D03*
X292862Y638950D02*
D03*
X302006Y648716D02*
D03*
X309118Y657098D02*
D03*
X337058Y663702D02*
D03*
X365506Y663194D02*
D03*
X434086Y661924D02*
D03*
X442214Y669856D02*
D03*
X459232Y632460D02*
D03*
X451470Y639826D02*
D03*
X422656Y636270D02*
D03*
X422910Y666242D02*
D03*
X412750Y667766D02*
D03*
X424434Y620827D02*
D03*
X416611Y628396D02*
D03*
X401574Y643636D02*
D03*
X409091Y636210D02*
D03*
X413766Y539496D02*
D03*
X406966Y546920D02*
D03*
X334010Y513588D02*
D03*
X393515Y538157D02*
D03*
X414782Y555498D02*
D03*
X417830Y614680D02*
D03*
X168402Y119126D02*
D03*
X165100Y115570D02*
D03*
X171958Y122936D02*
D03*
X198628Y624332D02*
D03*
X207264Y631444D02*
D03*
X211074Y614934D02*
D03*
X140970Y610616D02*
D03*
X246634Y595355D02*
D03*
X172974Y667004D02*
D03*
X204948Y644133D02*
D03*
X72898Y574516D02*
D03*
X83566D02*
D03*
X158914Y523632D02*
D03*
X136201Y520280D02*
D03*
X166212Y551480D02*
D03*
X162528Y547899D02*
D03*
X169550Y555528D02*
D03*
X30480Y451612D02*
D03*
X56642Y481584D02*
D03*
X75758Y562102D02*
D03*
X164338Y256794D02*
D03*
X167132Y260350D02*
D03*
X167640Y405384D02*
D03*
X163830Y401320D02*
D03*
X170180Y263906D02*
D03*
X155325Y74799D02*
D03*
X37084Y546608D02*
D03*
X34108Y531296D02*
D03*
X26416Y511302D02*
D03*
Y528828D02*
D03*
X37338Y491871D02*
D03*
X37084Y503936D02*
D03*
X29982Y468884D02*
D03*
X66030Y446532D02*
D03*
X87630Y455676D02*
D03*
X99822D02*
D03*
X49030Y471424D02*
D03*
X34798Y395224D02*
D03*
X34704Y384738D02*
D03*
X29972Y357632D02*
D03*
Y345186D02*
D03*
X157366Y377698D02*
D03*
Y355854D02*
D03*
X68580Y293624D02*
D03*
X28311Y96520D02*
D03*
X28353Y79982D02*
D03*
X75554Y495554D02*
D03*
Y511048D02*
D03*
X76062Y348996D02*
D03*
Y364490D02*
D03*
X77586Y64008D02*
D03*
Y79502D02*
D03*
X76708Y221488D02*
D03*
Y205994D02*
D03*
X58420Y35528D02*
D03*
X50808Y43688D02*
D03*
X55626Y178111D02*
D03*
X48522Y186268D02*
D03*
X29474Y183134D02*
D03*
X48268Y328676D02*
D03*
X56388Y320045D02*
D03*
X84582Y293370D02*
D03*
X79502Y273812D02*
D03*
X27686Y221488D02*
D03*
X130326Y247616D02*
D03*
X35052Y241739D02*
D03*
X34798Y252222D02*
D03*
X31242Y214376D02*
D03*
Y202184D02*
D03*
X88900Y173482D02*
D03*
X100838D02*
D03*
X151196Y212725D02*
D03*
X125476Y114808D02*
D03*
X69342Y648462D02*
D03*
X84582Y648208D02*
D03*
X84461Y641006D02*
D03*
X68326Y608330D02*
D03*
X85598D02*
D03*
X69463Y615786D02*
D03*
X44356Y241736D02*
D03*
X41286Y214376D02*
D03*
X41358Y202184D02*
D03*
X58166Y247650D02*
D03*
X137668Y228854D02*
D03*
X88646Y184150D02*
D03*
X100838D02*
D03*
X130325Y215521D02*
D03*
X124968Y257048D02*
D03*
X87838Y327213D02*
D03*
X100241Y319532D02*
D03*
X137148Y372364D02*
D03*
X132267Y359632D02*
D03*
X124714Y345186D02*
D03*
X57290Y390652D02*
D03*
X111633Y335607D02*
D03*
X130604Y505644D02*
D03*
X124206Y546100D02*
D03*
X51308Y530098D02*
D03*
X48768Y491490D02*
D03*
Y503682D02*
D03*
X87122Y474726D02*
D03*
X99314D02*
D03*
X56896Y537210D02*
D03*
X111252Y482157D02*
D03*
X126746Y491744D02*
D03*
X40640Y389382D02*
D03*
Y357124D02*
D03*
X40712Y345186D02*
D03*
X112036Y192631D02*
D03*
X127000Y60198D02*
D03*
X126238Y202692D02*
D03*
X36140Y99750D02*
D03*
X133232Y73408D02*
D03*
X87504Y124188D02*
D03*
X113030Y50631D02*
D03*
X58674Y105664D02*
D03*
X141869Y92133D02*
D03*
X80264Y140899D02*
D03*
X89916Y34544D02*
D03*
X101600D02*
D03*
X159300Y92202D02*
D03*
X146812Y535863D02*
D03*
X147320Y389128D02*
D03*
X147966Y246126D02*
D03*
X74346Y146616D02*
D03*
X84954Y146591D02*
D03*
X42236Y60071D02*
D03*
X42164Y72390D02*
D03*
Y104433D02*
D03*
X31890Y72390D02*
D03*
X31962Y60198D02*
D03*
X89916Y24270D02*
D03*
X101600D02*
D03*
X148844Y104140D02*
D03*
X739140Y432562D02*
D03*
Y438150D02*
D03*
Y443484D02*
D03*
Y426974D02*
D03*
Y275082D02*
D03*
Y269748D02*
D03*
Y258572D02*
D03*
Y264160D02*
D03*
X726034Y229559D02*
D03*
X654304Y251714D02*
D03*
X725272Y397415D02*
D03*
X654304Y419354D02*
D03*
X591058Y594106D02*
D03*
X585724D02*
D03*
X596138D02*
D03*
X499110Y594360D02*
D03*
X493776D02*
D03*
X504190D02*
D03*
X590042Y220808D02*
D03*
X584454D02*
D03*
X578866D02*
D03*
X590042Y389108D02*
D03*
X584454D02*
D03*
X578866D02*
D03*
X513842D02*
D03*
X508254D02*
D03*
X502666D02*
D03*
X513842Y220808D02*
D03*
X508254D02*
D03*
X502666D02*
D03*
X706897Y184748D02*
D03*
X701432Y184809D02*
D03*
X701555Y179028D02*
D03*
X707020Y178967D02*
D03*
X707005Y346771D02*
D03*
X701540Y346831D02*
D03*
X701417Y352613D02*
D03*
X706882Y352552D02*
D03*
X754380Y509524D02*
D03*
X748792D02*
D03*
X743204D02*
D03*
X737616D02*
D03*
Y515366D02*
D03*
X743204D02*
D03*
X748792D02*
D03*
X754380D02*
D03*
X410210Y622300D02*
D03*
X520700Y623570D02*
D03*
X500126D02*
D03*
X510286Y628396D02*
D03*
X515620D02*
D03*
X510286Y623570D02*
D03*
X520700Y628396D02*
D03*
X504952D02*
D03*
X500126D02*
D03*
X515620Y623570D02*
D03*
X504952D02*
D03*
X500380Y549656D02*
D03*
Y554482D02*
D03*
X505206D02*
D03*
Y549656D02*
D03*
X510540D02*
D03*
Y554482D02*
D03*
X515874Y549656D02*
D03*
Y554482D02*
D03*
X520954Y549656D02*
D03*
Y554482D02*
D03*
X577596Y597662D02*
D03*
X551797Y557530D02*
D03*
X373380Y615848D02*
D03*
X381977Y606342D02*
D03*
X390830Y597764D02*
D03*
X115363Y635886D02*
D03*
X109220Y642874D02*
D03*
X125984Y645668D02*
D03*
X120142Y652272D02*
D03*
X123952Y609854D02*
D03*
X134112D02*
D03*
Y596392D02*
D03*
X123952D02*
D03*
X122936Y619506D02*
D03*
X129032Y613918D02*
D03*
X138684Y623570D02*
D03*
X132842Y629920D02*
D03*
X146050Y638302D02*
D03*
X139954Y656082D02*
D03*
X151638D02*
D03*
M02*
