G04*
G04 #@! TF.GenerationSoftware,Altium Limited,Altium Designer,24.0.1 (36)*
G04*
G04 Layer_Color=16711935*
%FSLAX44Y44*%
%MOMM*%
G71*
G04*
G04 #@! TF.SameCoordinates,86479D1D-582F-4F93-B16F-34CC7BD45DDA*
G04*
G04*
G04 #@! TF.FilePolarity,Positive*
G04*
G01*
G75*
%ADD12C,0.2000*%
%ADD17C,0.1270*%
%ADD125C,0.1000*%
D12*
X172107Y600696D02*
G03*
X172107Y600696I-1000J0D01*
G01*
Y630428D02*
G03*
X172107Y630428I-1000J0D01*
G01*
D17*
X163607Y598196D02*
Y623196D01*
X153607D02*
X163607D01*
X153607Y598196D02*
Y623196D01*
Y598196D02*
X163607D01*
Y627928D02*
Y652928D01*
X153607D02*
X163607D01*
X153607Y627928D02*
Y652928D01*
Y627928D02*
X163607D01*
D125*
X119980Y393618D02*
G03*
X119980Y393618I-5000J0D01*
G01*
X119472Y540176D02*
G03*
X119472Y540176I-5000J0D01*
G01*
X121504Y108630D02*
G03*
X121504Y108630I-5000J0D01*
G01*
X120626Y250616D02*
G03*
X120626Y250616I-5000J0D01*
G01*
X573797Y586616D02*
G03*
X573797Y586616I-2540J0D01*
G01*
X63980Y342618D02*
Y402618D01*
Y342618D02*
X123980D01*
X63980Y402618D02*
X123980D01*
Y342618D02*
Y402618D01*
X730748Y552714D02*
X761248D01*
Y522214D02*
Y552714D01*
X730748Y522214D02*
X761248D01*
X730748D02*
Y552714D01*
X63472Y549176D02*
X123472D01*
X63472Y489176D02*
X123472D01*
Y549176D01*
X63472Y489176D02*
Y549176D01*
X65504Y117630D02*
X125504D01*
X65504Y57630D02*
X125504D01*
Y117630D01*
X65504Y57630D02*
Y117630D01*
X64626Y259616D02*
X124626D01*
X64626Y199616D02*
X124626D01*
Y259616D01*
X64626Y199616D02*
Y259616D01*
X546338Y581538D02*
X576338D01*
X546338Y597538D02*
X576338D01*
Y581538D02*
Y597538D01*
X546338Y581538D02*
Y597538D01*
M02*
