G04*
G04 #@! TF.GenerationSoftware,Altium Limited,Altium Designer,24.0.1 (36)*
G04*
G04 Layer_Physical_Order=2*
G04 Layer_Color=36540*
%FSLAX44Y44*%
%MOMM*%
G71*
G04*
G04 #@! TF.SameCoordinates,2863EE23-0FE7-43ED-B731-855E9A245776*
G04*
G04*
G04 #@! TF.FilePolarity,Positive*
G04*
G01*
G75*
%ADD13C,1.0000*%
%ADD62C,0.3810*%
%ADD65C,0.1016*%
%ADD68C,1.3000*%
%ADD69O,1.2000X0.8000*%
%ADD70R,1.2000X0.8000*%
%ADD71R,1.8000X4.5000*%
%ADD72R,1.8000X4.0000*%
%ADD73R,5.0000X2.6000*%
%ADD74C,0.4000*%
%ADD75C,0.8890*%
G36*
X398526Y643890D02*
Y637540D01*
X395562Y634576D01*
X381201D01*
X362981Y652796D01*
X362204Y653118D01*
X321310Y653118D01*
X320532Y652796D01*
X295132Y627396D01*
X294810Y626618D01*
Y564642D01*
X295132Y563864D01*
X320532Y538464D01*
X321310Y538142D01*
X327258D01*
X327449Y538063D01*
X328649D01*
X328840Y538142D01*
X379984D01*
X380762Y538464D01*
X400066Y557768D01*
X400388Y558546D01*
Y567996D01*
X404130Y571738D01*
X410241Y577850D01*
X519684D01*
X522986Y574548D01*
Y548640D01*
X520192Y545846D01*
X426466D01*
X405638Y525018D01*
X391278D01*
X391026Y526288D01*
X391598Y526525D01*
X392447Y527374D01*
X392906Y528482D01*
Y529682D01*
X392447Y530790D01*
X391598Y531639D01*
X390490Y532098D01*
X389290D01*
X388182Y531639D01*
X387333Y530790D01*
X386874Y529682D01*
Y528482D01*
X387333Y527374D01*
X388182Y526525D01*
X388754Y526288D01*
X388502Y525018D01*
X314674D01*
Y525618D01*
X314215Y526726D01*
X313366Y527575D01*
X312258Y528034D01*
X311058D01*
X309950Y527575D01*
X309101Y526726D01*
X308642Y525618D01*
Y525018D01*
X297180D01*
X276731Y545467D01*
X276779Y545657D01*
X277354Y546640D01*
X278222D01*
X279330Y547099D01*
X280179Y547948D01*
X280638Y549056D01*
Y550256D01*
X280179Y551364D01*
X279330Y552213D01*
X278222Y552672D01*
X277022D01*
X275914Y552213D01*
X275065Y551364D01*
X274606Y550256D01*
Y549388D01*
X273623Y548812D01*
X273433Y548765D01*
X265430Y556768D01*
Y645922D01*
X291529Y672021D01*
X370395D01*
X398526Y643890D01*
D02*
G37*
G36*
X362204Y652018D02*
X380746Y633476D01*
X407811D01*
X408491Y633194D01*
X409691D01*
X410372Y633476D01*
X421520D01*
X422056Y633254D01*
X423256D01*
X423792Y633476D01*
X455938D01*
X456216Y633060D01*
Y631860D01*
X456675Y630752D01*
X457524Y629903D01*
X458632Y629444D01*
X459832D01*
X460940Y629903D01*
X461789Y630752D01*
X462248Y631860D01*
Y633060D01*
X462526Y633476D01*
X519938D01*
X523240Y630174D01*
Y608330D01*
X521333Y606423D01*
X519968Y606854D01*
X519701Y607498D01*
X518852Y608347D01*
X517744Y608806D01*
X516544D01*
X515436Y608347D01*
X514604Y607515D01*
X513772Y608347D01*
X512664Y608806D01*
X511464D01*
X510356Y608347D01*
X510227Y608218D01*
X509397Y607583D01*
X508567Y608218D01*
X508438Y608347D01*
X507330Y608806D01*
X506130D01*
X505022Y608347D01*
X504173Y607498D01*
X503714Y606390D01*
Y605190D01*
X503781Y605028D01*
X502933Y603758D01*
X425196D01*
X417830Y596392D01*
Y586994D01*
X403352Y572516D01*
X399288Y568452D01*
Y558546D01*
X379984Y539242D01*
X321310D01*
X295910Y564642D01*
Y626618D01*
X321310Y652018D01*
X362204Y652018D01*
D02*
G37*
G36*
X132842Y584454D02*
Y488188D01*
X124968Y480314D01*
X60106Y480314D01*
X59658Y480984D01*
Y482184D01*
X59199Y483292D01*
X58350Y484141D01*
X57242Y484600D01*
X56042D01*
X55090Y484206D01*
X54389Y484747D01*
X54102Y485066D01*
Y528962D01*
X54324Y529498D01*
Y530698D01*
X54102Y531234D01*
Y553466D01*
X59182Y558546D01*
X93218D01*
X94996Y556768D01*
Y547370D01*
X92710Y545084D01*
X91440Y544665D01*
X90606Y545010D01*
X89406D01*
X88298Y544551D01*
X87450Y543702D01*
X86990Y542594D01*
Y541394D01*
X87450Y540286D01*
X88298Y539437D01*
X89406Y538978D01*
X90606D01*
X91440Y539323D01*
X92342Y538932D01*
X92710Y538636D01*
Y538494D01*
X95728D01*
X96894Y537328D01*
X98061Y536844D01*
X113109D01*
X114276Y537328D01*
X115442Y538494D01*
X116092D01*
X120650Y543052D01*
Y571246D01*
X112669Y579226D01*
X112759Y580933D01*
X112924Y581099D01*
X113383Y582207D01*
Y583407D01*
X112924Y584516D01*
X112076Y585364D01*
X110967Y585823D01*
X109768D01*
X108659Y585364D01*
X107811Y584516D01*
X107395Y583511D01*
X106191Y583451D01*
X105918Y583564D01*
X32004D01*
X31701Y583438D01*
X30480D01*
X20066Y573024D01*
Y565090D01*
X19831Y564523D01*
Y563323D01*
X20066Y562755D01*
Y556006D01*
X18668Y554608D01*
X7874D01*
X6958Y554228D01*
X6858D01*
X5334Y555752D01*
X5334Y585978D01*
X11430Y592074D01*
X42044D01*
X42580Y591852D01*
X43780D01*
X44316Y592074D01*
X125222D01*
X132842Y584454D01*
D02*
G37*
G36*
X48800Y568106D02*
X49259Y566998D01*
X50108Y566149D01*
X51216Y565690D01*
X52416D01*
X53524Y566149D01*
X54373Y566998D01*
X54397Y567056D01*
X99901D01*
X100211Y566746D01*
X100227Y566739D01*
X101854Y565112D01*
Y561378D01*
Y560070D01*
X100838Y559054D01*
X99396D01*
X99306Y559091D01*
X98106D01*
X98015Y559054D01*
X94265D01*
X93996Y559324D01*
X93218Y559646D01*
X59182D01*
X58404Y559324D01*
X53324Y554244D01*
X53302Y554190D01*
X52578Y553466D01*
Y484886D01*
X54128Y483336D01*
X54085Y483292D01*
X53626Y482184D01*
Y480984D01*
X54085Y479876D01*
X54934Y479027D01*
X56042Y478568D01*
X57242D01*
X58350Y479027D01*
X58394Y479070D01*
X58674Y478790D01*
X125730D01*
X134112Y487172D01*
X134112Y552450D01*
X138938Y557276D01*
X170434D01*
X171704Y556006D01*
X171704Y541782D01*
X169961Y540039D01*
X144523D01*
X142748Y538265D01*
X142748Y527812D01*
X148844Y521716D01*
Y480060D01*
X135128Y466344D01*
X44196D01*
X37084Y473456D01*
Y488855D01*
X37938D01*
X39046Y489314D01*
X39895Y490163D01*
X40354Y491271D01*
Y492471D01*
X39895Y493580D01*
X39046Y494428D01*
X37938Y494887D01*
X37084D01*
Y500920D01*
X37684D01*
X38792Y501379D01*
X39641Y502228D01*
X40100Y503336D01*
Y504536D01*
X39641Y505644D01*
X38792Y506493D01*
X37684Y506952D01*
X37084D01*
X37084Y530600D01*
X37124Y530696D01*
Y531896D01*
X37084Y531992D01*
Y543592D01*
X37684D01*
X38792Y544051D01*
X39641Y544900D01*
X40100Y546008D01*
Y547208D01*
X39641Y548316D01*
X38792Y549165D01*
X37684Y549624D01*
X37084D01*
Y564642D01*
X41244Y568802D01*
X48800D01*
Y568106D01*
D02*
G37*
G36*
X774917Y522769D02*
X774904Y50547D01*
X725589Y1232D01*
X708444D01*
X705358Y4318D01*
Y35560D01*
X710438Y40640D01*
X725424D01*
X731774Y46990D01*
Y238760D01*
Y278239D01*
X733044Y279088D01*
X733221Y279014D01*
X734421D01*
X735530Y279473D01*
X736378Y280322D01*
X736837Y281430D01*
Y282630D01*
X736378Y283739D01*
X735530Y284587D01*
X734421Y285046D01*
X733221D01*
X733044Y284973D01*
X731774Y285821D01*
X731774Y401574D01*
Y446036D01*
X733044Y446885D01*
X733206Y446818D01*
X734406D01*
X735514Y447277D01*
X736363Y448126D01*
X736822Y449234D01*
Y450434D01*
X736363Y451542D01*
X736234Y451671D01*
X735599Y452501D01*
X736234Y453331D01*
X736363Y453460D01*
X736822Y454568D01*
Y455768D01*
X736363Y456876D01*
X735514Y457725D01*
X734406Y458184D01*
X733206D01*
X733044Y458117D01*
X731774Y458965D01*
Y519684D01*
X736854Y524764D01*
X772922D01*
X774917Y522769D01*
D02*
G37*
G36*
X133096Y441960D02*
Y342900D01*
X123444Y333248D01*
X59182D01*
X53340Y339090D01*
Y407924D01*
X56896Y411480D01*
X95250Y411480D01*
X97536Y409194D01*
Y399846D01*
X96266Y398998D01*
X96214Y399019D01*
X95014D01*
X93905Y398560D01*
X93057Y397712D01*
X92598Y396603D01*
Y395403D01*
X93057Y394295D01*
X93905Y393447D01*
X95014Y392987D01*
X96112D01*
X98608Y390492D01*
X99774Y390008D01*
X100974D01*
X101092Y389890D01*
X116840Y389890D01*
X120904Y393954D01*
Y430022D01*
X112522Y438404D01*
X47484D01*
X46825Y439674D01*
X47093Y440322D01*
Y441522D01*
X46634Y442631D01*
X45786Y443479D01*
X44677Y443938D01*
X43478D01*
X42369Y443479D01*
X41521Y442631D01*
X41061Y441522D01*
Y440322D01*
X41330Y439674D01*
X40671Y438404D01*
X34290D01*
X20320Y424434D01*
Y409749D01*
X18241Y407670D01*
X8890D01*
X7112Y409448D01*
Y440436D01*
X16002Y449326D01*
X28501D01*
X28772Y449055D01*
X29880Y448596D01*
X31080D01*
X32188Y449055D01*
X32459Y449326D01*
X62763D01*
X63103Y448806D01*
X63397Y448056D01*
X63014Y447132D01*
Y445932D01*
X63473Y444824D01*
X64322Y443975D01*
X65430Y443516D01*
X66630D01*
X67738Y443975D01*
X68587Y444824D01*
X69046Y445932D01*
Y447132D01*
X68663Y448056D01*
X68957Y448806D01*
X69297Y449326D01*
X125730D01*
X133096Y441960D01*
D02*
G37*
G36*
X54237Y420186D02*
X55086Y419337D01*
X56194Y418878D01*
X57394D01*
X58503Y419337D01*
X59351Y420186D01*
X59375Y420244D01*
X102870D01*
X102870Y414528D01*
X101513Y413171D01*
X101055D01*
X99947Y412712D01*
X99477Y412242D01*
X96043D01*
X96028Y412258D01*
X95250Y412580D01*
X56896Y412580D01*
X56118Y412258D01*
X56103Y412242D01*
X55626D01*
X52070Y408686D01*
Y337566D01*
X57658Y331978D01*
X124714D01*
X134620Y341884D01*
Y357719D01*
X134824Y357924D01*
X135283Y359032D01*
Y360232D01*
X134824Y361340D01*
X134620Y361545D01*
Y401320D01*
X143398Y410464D01*
X172212D01*
X173736Y408940D01*
X173736Y397510D01*
X171196Y394970D01*
X160357D01*
X160345Y394988D01*
X159967Y396240D01*
X160545Y396818D01*
X161004Y397926D01*
Y399126D01*
X160545Y400234D01*
X159696Y401083D01*
X159191Y401292D01*
X159047Y401352D01*
X159299Y402622D01*
X159433Y402622D01*
X159858D01*
X160966Y403081D01*
X161815Y403930D01*
X162274Y405038D01*
Y406238D01*
X161815Y407346D01*
X160966Y408195D01*
X159858Y408654D01*
X158658D01*
X157550Y408195D01*
X156701Y407346D01*
X156242Y406238D01*
Y405038D01*
X156701Y403930D01*
X157550Y403081D01*
X158055Y402872D01*
X158199Y402812D01*
X157947Y401542D01*
X157812Y401542D01*
X157388D01*
X156280Y401083D01*
X155431Y400234D01*
X154972Y399126D01*
Y397926D01*
X155431Y396818D01*
X156009Y396240D01*
X155631Y394988D01*
X155619Y394970D01*
X145796D01*
X143002Y392176D01*
Y382524D01*
X149098Y376428D01*
Y332486D01*
X133096Y316484D01*
X58752D01*
X58728Y316521D01*
X58362Y317754D01*
X58945Y318336D01*
X59404Y319445D01*
Y320645D01*
X58945Y321753D01*
X58096Y322602D01*
X56988Y323061D01*
X55788D01*
X54680Y322602D01*
X53831Y321753D01*
X53372Y320645D01*
Y319445D01*
X53831Y318336D01*
X54414Y317754D01*
X54048Y316521D01*
X54024Y316484D01*
X42926D01*
X34544Y324866D01*
Y381722D01*
X35304D01*
X36412Y382181D01*
X37261Y383030D01*
X37720Y384138D01*
Y385338D01*
X37261Y386446D01*
X36412Y387295D01*
X35304Y387754D01*
X34544D01*
Y392208D01*
X35398D01*
X36506Y392667D01*
X37355Y393516D01*
X37814Y394624D01*
Y395824D01*
X37355Y396932D01*
X36506Y397781D01*
X35398Y398240D01*
X34544D01*
Y414528D01*
X40831Y420815D01*
X53976D01*
X54237Y420186D01*
D02*
G37*
G36*
X264330Y645498D02*
Y556768D01*
X264652Y555990D01*
X272655Y547988D01*
X272783Y547935D01*
X272865Y547823D01*
X272866Y547823D01*
X273158Y547779D01*
X273433Y547666D01*
X273560Y547719D01*
X273697Y547698D01*
X273887Y547745D01*
X273888Y547745D01*
X274018Y547841D01*
X274179Y547864D01*
X274277Y547921D01*
X275887Y546311D01*
X275830Y546213D01*
X275807Y546052D01*
X275711Y545922D01*
X275664Y545731D01*
X275685Y545594D01*
X275632Y545467D01*
X275745Y545192D01*
X275790Y544899D01*
X275901Y544817D01*
X275954Y544689D01*
X296402Y524240D01*
X297180Y523918D01*
X308642D01*
X308819Y523992D01*
X309101Y523310D01*
X309950Y522461D01*
X311058Y522002D01*
X312258D01*
X313366Y522461D01*
X314215Y523310D01*
X314497Y523992D01*
X314674Y523918D01*
X388502D01*
X388798Y524041D01*
X389113Y524104D01*
X389175Y524197D01*
X389205Y524210D01*
X389464Y524240D01*
X390316D01*
X390575Y524210D01*
X390605Y524197D01*
X390667Y524104D01*
X390982Y524041D01*
X391278Y523918D01*
X405638D01*
X406416Y524240D01*
X407193Y525018D01*
X407434D01*
X407364Y525188D01*
X426922Y544746D01*
X520192D01*
X520970Y545068D01*
X521313Y544935D01*
X525272Y548894D01*
Y560463D01*
X525289Y560475D01*
X526542Y560853D01*
X527119Y560275D01*
X528228Y559816D01*
X529428D01*
X530536Y560275D01*
X531385Y561124D01*
X531844Y562232D01*
Y563432D01*
X531385Y564540D01*
X530536Y565389D01*
X529428Y565848D01*
X528228D01*
X527119Y565389D01*
X526542Y564811D01*
X525289Y565189D01*
X525272Y565201D01*
Y595630D01*
X530352Y600710D01*
X556260D01*
X560832Y596138D01*
Y518160D01*
X549740Y507068D01*
X231755D01*
X231377Y506911D01*
X230995Y506763D01*
X230696Y506476D01*
X225298D01*
X215900Y497078D01*
X215900Y102870D01*
X209296Y96266D01*
X149891D01*
X146642Y99515D01*
X146642Y106479D01*
X147775Y107612D01*
X171450D01*
X172228Y107934D01*
X174768Y110474D01*
X175090Y111252D01*
Y125984D01*
X174768Y126762D01*
X174768Y126762D01*
X172228Y129302D01*
X172228Y129302D01*
X171450Y129624D01*
X171450Y129624D01*
X155872D01*
X154336Y131160D01*
X155056Y132236D01*
X155356Y132112D01*
X156556D01*
X157664Y132571D01*
X158513Y133420D01*
X158972Y134528D01*
Y135728D01*
X158513Y136836D01*
X157664Y137685D01*
X156556Y138144D01*
X155356D01*
X154686Y137866D01*
X153416Y138513D01*
Y185897D01*
X154194Y186674D01*
X154516Y187452D01*
X154516Y209020D01*
X154471Y209129D01*
X154493Y209244D01*
X154315Y209506D01*
X154194Y209798D01*
X153754Y211012D01*
X153753Y211017D01*
X154212Y212125D01*
Y213325D01*
X153753Y214433D01*
X153754Y214438D01*
X154194Y215652D01*
X154315Y215944D01*
X154493Y216206D01*
X154471Y216321D01*
X154516Y216430D01*
Y228600D01*
X154194Y229378D01*
X144864Y238708D01*
Y248465D01*
X146251Y249852D01*
X170180Y249852D01*
X170958Y250174D01*
X173244Y252460D01*
X173566Y253238D01*
Y264414D01*
X173244Y265192D01*
X171720Y266716D01*
X171720Y266716D01*
X170942Y267038D01*
X170942Y267038D01*
X155110Y267038D01*
X149098Y273050D01*
Y330931D01*
X149876Y331708D01*
X150198Y332486D01*
Y376428D01*
X149876Y377206D01*
X144102Y382980D01*
Y391721D01*
X146251Y393870D01*
X155619D01*
X155726Y393914D01*
X155839Y393893D01*
X156004Y394004D01*
X156151Y394019D01*
X156240Y394127D01*
X156397Y394192D01*
X156441Y394299D01*
X156537Y394364D01*
X156549Y394381D01*
X156580Y394543D01*
X156684Y394670D01*
X156774Y394970D01*
X159202Y394970D01*
X159292Y394670D01*
X159396Y394543D01*
X159427Y394382D01*
X159439Y394364D01*
X159535Y394299D01*
X159579Y394192D01*
X159736Y394127D01*
X159825Y394019D01*
X159971Y394004D01*
X160136Y393893D01*
X160250Y393915D01*
X160357Y393870D01*
X171196D01*
X171974Y394192D01*
X174514Y396732D01*
X174836Y397510D01*
X174836Y408940D01*
X174514Y409718D01*
X173752Y410479D01*
X173716Y410565D01*
X172868Y411414D01*
X171759Y411873D01*
X170560D01*
X169813Y411564D01*
X151554D01*
X149098Y414020D01*
Y478759D01*
X149622Y479282D01*
X149944Y480060D01*
Y521716D01*
X149622Y522494D01*
X143848Y528268D01*
X143848Y537809D01*
X144978Y538940D01*
X169961D01*
X170739Y539262D01*
X172481Y541004D01*
X172804Y541782D01*
X172804Y556006D01*
X172804Y556006D01*
X172482Y556784D01*
X172481Y556784D01*
X172162Y557103D01*
X172107Y557237D01*
X171450Y557894D01*
X171450Y642874D01*
X156718Y657606D01*
X154271D01*
X154195Y657790D01*
X153346Y658639D01*
X152238Y659098D01*
X151038D01*
X149930Y658639D01*
X149081Y657790D01*
X149005Y657606D01*
X142587D01*
X142511Y657790D01*
X141662Y658639D01*
X140554Y659098D01*
X139354D01*
X138246Y658639D01*
X137397Y657790D01*
X137321Y657606D01*
X96012D01*
X92202Y653796D01*
Y638048D01*
Y607314D01*
X88138Y603250D01*
X67310D01*
X65024Y605536D01*
Y665226D01*
X71819Y672021D01*
X237807D01*
X264330Y645498D01*
D02*
G37*
G36*
X132842Y291846D02*
Y251024D01*
X131572Y250364D01*
X130926Y250632D01*
X129726D01*
X128617Y250173D01*
X127769Y249324D01*
X127310Y248216D01*
Y247016D01*
X127769Y245908D01*
X128617Y245059D01*
X129726Y244600D01*
X130926D01*
X131572Y244868D01*
X132842Y244208D01*
Y197358D01*
X125984Y190500D01*
X60452D01*
X50064Y200889D01*
X50064Y259359D01*
X59436Y268732D01*
X93218D01*
X94488Y267462D01*
Y256794D01*
X93472Y255778D01*
Y249682D01*
X96012Y247142D01*
X116332D01*
X120142Y250952D01*
Y278384D01*
X107442Y291084D01*
X104351D01*
X103502Y292354D01*
X103636Y292678D01*
Y293878D01*
X103177Y294986D01*
X102329Y295835D01*
X101220Y296294D01*
X100020D01*
X98912Y295835D01*
X98063Y294986D01*
X97604Y293878D01*
Y292678D01*
X97739Y292354D01*
X96890Y291084D01*
X88221D01*
X87426Y292354D01*
X87598Y292770D01*
Y293970D01*
X87139Y295078D01*
X86290Y295927D01*
X85182Y296386D01*
X83982D01*
X82874Y295927D01*
X82025Y295078D01*
X81566Y293970D01*
Y292770D01*
X81738Y292354D01*
X80943Y291084D01*
X71965D01*
X71318Y292354D01*
X71596Y293024D01*
Y294224D01*
X71137Y295332D01*
X70288Y296181D01*
X69180Y296640D01*
X67980D01*
X66872Y296181D01*
X66023Y295332D01*
X65564Y294224D01*
Y293024D01*
X65841Y292354D01*
X65195Y291084D01*
X46452D01*
X46177Y292257D01*
X46175Y292354D01*
X47007Y293186D01*
X47466Y294294D01*
Y295494D01*
X47007Y296602D01*
X46158Y297451D01*
X45050Y297910D01*
X43850D01*
X42742Y297451D01*
X41893Y296602D01*
X41434Y295494D01*
Y294294D01*
X41893Y293186D01*
X42725Y292354D01*
X42723Y292257D01*
X42448Y291084D01*
X33020D01*
X20828Y278892D01*
Y266700D01*
X19494Y265366D01*
X11334D01*
X10876Y265176D01*
X8890D01*
X7620Y266446D01*
Y289306D01*
X18288Y299974D01*
X64132D01*
X64668Y299752D01*
X65868D01*
X66404Y299974D01*
X124714D01*
X132842Y291846D01*
D02*
G37*
G36*
X102362Y274828D02*
Y271018D01*
X100076Y268732D01*
X94773D01*
X93996Y269510D01*
X93218Y269832D01*
X59436D01*
X58658Y269510D01*
X49286Y260137D01*
X49264Y260084D01*
X48768Y259588D01*
Y200406D01*
X59944Y189230D01*
X126746D01*
X134620Y197104D01*
Y259588D01*
X140970Y265938D01*
X170942Y265938D01*
X172466Y264414D01*
Y253238D01*
X170180Y250952D01*
X145796Y250952D01*
X143764Y248920D01*
Y238252D01*
X153416Y228600D01*
Y216430D01*
X152146Y215596D01*
X151796Y215741D01*
X150596D01*
X149488Y215282D01*
X148639Y214433D01*
X148180Y213325D01*
Y212125D01*
X148639Y211017D01*
X149488Y210168D01*
X150596Y209709D01*
X151796D01*
X152146Y209854D01*
X153416Y209020D01*
X153416Y187452D01*
X138938Y172974D01*
X103854D01*
Y174082D01*
X103395Y175190D01*
X102546Y176039D01*
X101438Y176498D01*
X100238D01*
X99130Y176039D01*
X98281Y175190D01*
X97822Y174082D01*
Y172974D01*
X91916D01*
Y174082D01*
X91457Y175190D01*
X90608Y176039D01*
X89500Y176498D01*
X88300D01*
X87192Y176039D01*
X86343Y175190D01*
X85884Y174082D01*
Y172974D01*
X50546D01*
X37846Y185674D01*
Y240603D01*
X38068Y241139D01*
Y242339D01*
X37846Y242875D01*
Y268224D01*
X44450Y274828D01*
X44704Y274574D01*
X70358D01*
X71882Y276098D01*
X101092D01*
X102362Y274828D01*
D02*
G37*
G36*
X149098Y160274D02*
Y129794D01*
X135890Y116586D01*
Y59182D01*
X125476Y48768D01*
X58674D01*
X49390Y58052D01*
Y102476D01*
X60706Y113792D01*
X79441D01*
X81504Y115855D01*
Y124430D01*
X83312Y126238D01*
X96518D01*
X98552Y124209D01*
Y109728D01*
X100838Y107442D01*
X109982D01*
X125476Y122936D01*
Y149098D01*
X116078Y158496D01*
X115884D01*
X114967Y158876D01*
X69032D01*
X68313Y160146D01*
X68538Y160690D01*
Y161890D01*
X68079Y162998D01*
X67230Y163847D01*
X66122Y164306D01*
X64922D01*
X63814Y163847D01*
X62965Y162998D01*
X62506Y161890D01*
Y160690D01*
X62889Y159766D01*
X62595Y159016D01*
X62255Y158496D01*
X57658D01*
X52832Y153670D01*
X52832Y148844D01*
X50498Y146510D01*
X45798D01*
X45154Y147781D01*
X45434Y148456D01*
Y149656D01*
X44975Y150764D01*
X44127Y151613D01*
X43018Y152072D01*
X41818D01*
X40710Y151613D01*
X39861Y150764D01*
X39402Y149656D01*
Y148456D01*
X39682Y147781D01*
X39039Y146510D01*
X34242D01*
X27530Y139798D01*
X27450Y139765D01*
X20932Y133246D01*
X20898Y133166D01*
X20320Y132588D01*
Y124761D01*
X17733Y122174D01*
X3556D01*
X2032Y123698D01*
Y162052D01*
X6858Y166878D01*
X42783D01*
X43458Y165868D01*
Y164668D01*
X43917Y163560D01*
X44766Y162711D01*
X45874Y162252D01*
X47074D01*
X48182Y162711D01*
X49031Y163560D01*
X49490Y164668D01*
Y165868D01*
X50165Y166878D01*
X142494D01*
X149098Y160274D01*
D02*
G37*
G36*
X106172Y141986D02*
X106172Y132780D01*
X105218Y131826D01*
X98926D01*
X98390Y132048D01*
X97190D01*
X96654Y131826D01*
X95758D01*
X94742Y130810D01*
Y128016D01*
X94064Y127338D01*
X83312D01*
X83312Y127338D01*
X82534Y127016D01*
X82534Y127015D01*
X80726Y125208D01*
X80404Y124430D01*
Y116311D01*
X78986Y114892D01*
X60706D01*
X59928Y114570D01*
X48613Y103254D01*
X48291Y102476D01*
Y58052D01*
X48613Y57274D01*
X57896Y47990D01*
X58674Y47668D01*
X112301D01*
X112430Y47615D01*
X113630D01*
X113759Y47668D01*
X125476D01*
X125678Y47752D01*
X127254D01*
X136906Y57404D01*
Y58980D01*
X136990Y59182D01*
Y115908D01*
X149606Y128524D01*
X171450D01*
X173990Y125984D01*
Y111252D01*
X171450Y108712D01*
X147320D01*
X145542Y106934D01*
X145542Y99060D01*
X152654Y91948D01*
Y76230D01*
X152309Y75399D01*
Y74199D01*
X152654Y73367D01*
Y45720D01*
X139192Y32258D01*
X61211D01*
X60685Y33528D01*
X60977Y33820D01*
X61436Y34928D01*
Y36128D01*
X60977Y37236D01*
X60128Y38085D01*
X59020Y38544D01*
X57820D01*
X56712Y38085D01*
X55863Y37236D01*
X55404Y36128D01*
Y34928D01*
X55863Y33820D01*
X56155Y33528D01*
X55629Y32258D01*
X49530D01*
X38354Y43434D01*
Y97699D01*
X38697Y98042D01*
X39156Y99150D01*
Y100350D01*
X38697Y101458D01*
X38354Y101801D01*
Y107834D01*
X38802Y108916D01*
Y110116D01*
X38354Y111198D01*
Y112268D01*
X44958Y118872D01*
X44958Y124968D01*
X46006Y126016D01*
X47276Y125490D01*
Y124876D01*
X47735Y123768D01*
X48584Y122919D01*
X49692Y122460D01*
X50892D01*
X52000Y122919D01*
X52849Y123768D01*
X53308Y124876D01*
Y126076D01*
X52925Y127000D01*
X53219Y127750D01*
X53559Y128270D01*
X58166D01*
X73152Y143256D01*
X104902D01*
X106172Y141986D01*
D02*
G37*
%LPC*%
G36*
X318354Y668224D02*
X317154D01*
X316046Y667765D01*
X315197Y666916D01*
X314738Y665808D01*
Y664608D01*
X315197Y663500D01*
X316046Y662651D01*
X317154Y662192D01*
X318354D01*
X319462Y662651D01*
X320311Y663500D01*
X320770Y664608D01*
Y665808D01*
X320311Y666916D01*
X319462Y667765D01*
X318354Y668224D01*
D02*
G37*
G36*
X309718Y660114D02*
X308518D01*
X307410Y659655D01*
X306561Y658806D01*
X306102Y657698D01*
Y656498D01*
X306561Y655390D01*
X307410Y654541D01*
X308518Y654082D01*
X309718D01*
X310826Y654541D01*
X311675Y655390D01*
X312134Y656498D01*
Y657698D01*
X311675Y658806D01*
X310826Y659655D01*
X309718Y660114D01*
D02*
G37*
G36*
X302606Y651732D02*
X301406D01*
X300298Y651273D01*
X299449Y650424D01*
X298990Y649316D01*
Y648116D01*
X299449Y647008D01*
X300298Y646159D01*
X301406Y645700D01*
X302606D01*
X303714Y646159D01*
X304563Y647008D01*
X305022Y648116D01*
Y649316D01*
X304563Y650424D01*
X303714Y651273D01*
X302606Y651732D01*
D02*
G37*
G36*
X293462Y641966D02*
X292262D01*
X291154Y641507D01*
X290305Y640658D01*
X289846Y639550D01*
Y638350D01*
X290305Y637242D01*
X291154Y636393D01*
X292262Y635934D01*
X293462D01*
X294570Y636393D01*
X295419Y637242D01*
X295878Y638350D01*
Y639550D01*
X295419Y640658D01*
X294570Y641507D01*
X293462Y641966D01*
D02*
G37*
G36*
X284946Y633470D02*
X283746D01*
X282638Y633010D01*
X281789Y632162D01*
X281330Y631053D01*
Y629854D01*
X281789Y628745D01*
X282638Y627897D01*
X283746Y627438D01*
X284946D01*
X286054Y627897D01*
X286903Y628745D01*
X287362Y629854D01*
Y631053D01*
X286903Y632162D01*
X286054Y633010D01*
X284946Y633470D01*
D02*
G37*
G36*
X278957Y563561D02*
X277757D01*
X276649Y563102D01*
X275800Y562253D01*
X275341Y561145D01*
Y559945D01*
X275800Y558836D01*
X276649Y557988D01*
X277757Y557529D01*
X278957D01*
X280066Y557988D01*
X280914Y558836D01*
X281373Y559945D01*
Y561145D01*
X280914Y562253D01*
X280066Y563102D01*
X278957Y563561D01*
D02*
G37*
G36*
X483454Y562070D02*
X482254D01*
X481146Y561611D01*
X480297Y560762D01*
X479838Y559654D01*
Y558454D01*
X480297Y557346D01*
X481146Y556497D01*
X482254Y556038D01*
X483454D01*
X484562Y556497D01*
X485411Y557346D01*
X485870Y558454D01*
Y559654D01*
X485411Y560762D01*
X484562Y561611D01*
X483454Y562070D01*
D02*
G37*
G36*
X470754Y561816D02*
X469554D01*
X468446Y561357D01*
X467597Y560508D01*
X467138Y559400D01*
Y558200D01*
X467597Y557092D01*
X468446Y556243D01*
X469554Y555784D01*
X470754D01*
X471862Y556243D01*
X472711Y557092D01*
X473170Y558200D01*
Y559400D01*
X472711Y560508D01*
X471862Y561357D01*
X470754Y561816D01*
D02*
G37*
G36*
X426558Y560546D02*
X425358D01*
X424250Y560087D01*
X423401Y559238D01*
X422942Y558130D01*
Y556930D01*
X423401Y555822D01*
X424250Y554973D01*
X425358Y554514D01*
X426558D01*
X427666Y554973D01*
X428515Y555822D01*
X428974Y556930D01*
Y558130D01*
X428515Y559238D01*
X427666Y560087D01*
X426558Y560546D01*
D02*
G37*
G36*
X407566Y549936D02*
X406367D01*
X405258Y549477D01*
X404410Y548629D01*
X403950Y547520D01*
Y546320D01*
X404410Y545212D01*
X405258Y544364D01*
X406367Y543904D01*
X407566D01*
X408675Y544364D01*
X409523Y545212D01*
X409982Y546320D01*
Y547520D01*
X409523Y548629D01*
X408675Y549477D01*
X407566Y549936D01*
D02*
G37*
G36*
X296510Y545052D02*
X295310D01*
X294202Y544593D01*
X293353Y543744D01*
X292894Y542636D01*
Y541436D01*
X293353Y540328D01*
X294202Y539479D01*
X295310Y539020D01*
X296510D01*
X297618Y539479D01*
X298467Y540328D01*
X298926Y541436D01*
Y542636D01*
X298467Y543744D01*
X297618Y544593D01*
X296510Y545052D01*
D02*
G37*
G36*
X414366Y542512D02*
X413166D01*
X412058Y542053D01*
X411209Y541204D01*
X410750Y540096D01*
Y538896D01*
X411209Y537788D01*
X412058Y536939D01*
X413166Y536480D01*
X414366D01*
X415474Y536939D01*
X416323Y537788D01*
X416782Y538896D01*
Y540096D01*
X416323Y541204D01*
X415474Y542053D01*
X414366Y542512D01*
D02*
G37*
G36*
X304039Y537743D02*
X302839D01*
X301731Y537283D01*
X300882Y536435D01*
X300423Y535326D01*
Y534127D01*
X300882Y533018D01*
X301731Y532170D01*
X302839Y531711D01*
X304039D01*
X305147Y532170D01*
X305996Y533018D01*
X306455Y534127D01*
Y535326D01*
X305996Y536435D01*
X305147Y537283D01*
X304039Y537743D01*
D02*
G37*
G36*
X417211Y631412D02*
X416012D01*
X414903Y630953D01*
X414055Y630104D01*
X413595Y628996D01*
Y627796D01*
X414055Y626688D01*
X414903Y625839D01*
X416012Y625380D01*
X417211D01*
X418320Y625839D01*
X419168Y626688D01*
X419627Y627796D01*
Y628996D01*
X419168Y630104D01*
X418320Y630953D01*
X417211Y631412D01*
D02*
G37*
G36*
X425034Y623843D02*
X423834D01*
X422726Y623384D01*
X421877Y622536D01*
X421418Y621427D01*
Y620228D01*
X421877Y619119D01*
X422726Y618271D01*
X423834Y617811D01*
X425034D01*
X426142Y618271D01*
X426991Y619119D01*
X427450Y620228D01*
Y621427D01*
X426991Y622536D01*
X426142Y623384D01*
X425034Y623843D01*
D02*
G37*
G36*
X380038Y619004D02*
X378839D01*
X377730Y618544D01*
X377145Y617959D01*
X376525Y617753D01*
X375592Y617901D01*
X375088Y618405D01*
X373980Y618864D01*
X372780D01*
X371672Y618405D01*
X370823Y617557D01*
X370364Y616448D01*
Y615248D01*
X370823Y614140D01*
X371672Y613291D01*
X372780Y612832D01*
X373980D01*
X375088Y613291D01*
X375674Y613877D01*
X376293Y614083D01*
X377226Y613934D01*
X377730Y613431D01*
X378839Y612972D01*
X378976D01*
X380048Y612871D01*
X380149Y611798D01*
Y611661D01*
X380608Y610553D01*
X380706Y610455D01*
X380408Y608956D01*
X380269Y608899D01*
X379420Y608050D01*
X378961Y606942D01*
Y605742D01*
X379420Y604633D01*
X380269Y603785D01*
X381377Y603326D01*
X382577D01*
X383686Y603785D01*
X384534Y604633D01*
X384592Y604773D01*
X386090Y605071D01*
X386216Y604944D01*
X387325Y604485D01*
X387462D01*
X388534Y604384D01*
X388635Y603312D01*
Y603175D01*
X389094Y602066D01*
X389364Y601796D01*
X389121Y600321D01*
X388273Y599472D01*
X387813Y598364D01*
Y597164D01*
X388273Y596056D01*
X389121Y595207D01*
X390230Y594748D01*
X391429D01*
X392538Y595207D01*
X393386Y596056D01*
X393512Y596360D01*
X394957Y596712D01*
X396065Y596253D01*
X396202D01*
X397275Y596152D01*
X397376Y595080D01*
Y594943D01*
X397835Y593834D01*
X398683Y592986D01*
X399792Y592527D01*
X400992D01*
X402100Y592986D01*
X402948Y593834D01*
X403408Y594943D01*
Y596142D01*
X402948Y597251D01*
X402100Y598099D01*
X400992Y598558D01*
X400854D01*
X399782Y598660D01*
X399681Y599732D01*
Y599869D01*
X399222Y600977D01*
X398374Y601826D01*
X397265Y602285D01*
X396065D01*
X395592Y602089D01*
X394620Y603061D01*
X394667Y603175D01*
Y604375D01*
X394208Y605483D01*
X393360Y606332D01*
X392251Y606791D01*
X392114D01*
X391042Y606892D01*
X390941Y607964D01*
Y608101D01*
X390482Y609210D01*
X389633Y610058D01*
X388525Y610517D01*
X387325D01*
X387031Y610396D01*
X386059Y611368D01*
X386181Y611661D01*
Y612861D01*
X385722Y613970D01*
X384873Y614818D01*
X383765Y615277D01*
X383628D01*
X382556Y615378D01*
X382454Y616451D01*
Y616587D01*
X381995Y617696D01*
X381147Y618544D01*
X380038Y619004D01*
D02*
G37*
G36*
X356708Y622014D02*
X355508D01*
X354400Y621555D01*
X353551Y620706D01*
X353092Y619598D01*
Y618398D01*
X353551Y617290D01*
X354400Y616441D01*
X355508Y615982D01*
X356708D01*
X357816Y616441D01*
X358665Y617290D01*
X359124Y618398D01*
Y619598D01*
X358665Y620706D01*
X357816Y621555D01*
X356708Y622014D01*
D02*
G37*
G36*
X344262Y620744D02*
X343062D01*
X341954Y620285D01*
X341105Y619436D01*
X340646Y618328D01*
Y617128D01*
X341105Y616020D01*
X341954Y615171D01*
X343062Y614712D01*
X344262D01*
X345370Y615171D01*
X346219Y616020D01*
X346678Y617128D01*
Y618328D01*
X346219Y619436D01*
X345370Y620285D01*
X344262Y620744D01*
D02*
G37*
G36*
X323942Y591026D02*
X322742D01*
X321634Y590567D01*
X320785Y589718D01*
X320326Y588610D01*
Y587410D01*
X320785Y586302D01*
X321634Y585453D01*
X322742Y584994D01*
X323942D01*
X325050Y585453D01*
X325899Y586302D01*
X326358Y587410D01*
Y588610D01*
X325899Y589718D01*
X325050Y590567D01*
X323942Y591026D01*
D02*
G37*
G36*
X375758Y588232D02*
X374558D01*
X373450Y587773D01*
X372601Y586924D01*
X372142Y585816D01*
Y584616D01*
X372601Y583508D01*
X373450Y582659D01*
X374558Y582200D01*
X375758D01*
X376866Y582659D01*
X377715Y583508D01*
X378174Y584616D01*
Y585816D01*
X377715Y586924D01*
X376866Y587773D01*
X375758Y588232D01*
D02*
G37*
G36*
X367122Y580358D02*
X365922D01*
X364814Y579899D01*
X363965Y579050D01*
X363506Y577942D01*
Y576742D01*
X363965Y575634D01*
X364814Y574785D01*
X365922Y574326D01*
X367122D01*
X368230Y574785D01*
X369079Y575634D01*
X369538Y576742D01*
Y577942D01*
X369079Y579050D01*
X368230Y579899D01*
X367122Y580358D01*
D02*
G37*
G36*
X356708Y562070D02*
X355508D01*
X354400Y561611D01*
X353551Y560762D01*
X353092Y559654D01*
Y558454D01*
X353551Y557346D01*
X354400Y556497D01*
X355508Y556038D01*
X356708D01*
X357816Y556497D01*
X358665Y557346D01*
X359124Y558454D01*
Y559654D01*
X358665Y560762D01*
X357816Y561611D01*
X356708Y562070D01*
D02*
G37*
G36*
X72482Y542827D02*
X71282D01*
X70174Y542368D01*
X69325Y541519D01*
X68866Y540411D01*
Y539211D01*
X69325Y538103D01*
X69422Y538006D01*
X70109Y537176D01*
X69422Y536346D01*
X69325Y536249D01*
X68866Y535141D01*
Y533941D01*
X69325Y532833D01*
X70174Y531984D01*
X71282Y531525D01*
X72482D01*
X73590Y531984D01*
X74439Y532833D01*
X74898Y533941D01*
Y535141D01*
X74439Y536249D01*
X74342Y536346D01*
X73655Y537176D01*
X74342Y538006D01*
X74439Y538103D01*
X74898Y539211D01*
Y540411D01*
X74439Y541519D01*
X73590Y542368D01*
X72482Y542827D01*
D02*
G37*
G36*
X76154Y514064D02*
X74954D01*
X73846Y513605D01*
X72997Y512756D01*
X72538Y511648D01*
Y510448D01*
X72725Y509996D01*
X72574Y509641D01*
X71850Y508827D01*
X71028D01*
X69920Y508368D01*
X69071Y507519D01*
X68612Y506411D01*
Y505211D01*
X69071Y504103D01*
X69168Y504006D01*
X69855Y503176D01*
X69168Y502346D01*
X69071Y502249D01*
X68612Y501141D01*
Y499941D01*
X69071Y498833D01*
X69920Y497984D01*
X71028Y497525D01*
X71731D01*
X72554Y496548D01*
X72620Y496352D01*
X72538Y496154D01*
Y494954D01*
X72997Y493846D01*
X73846Y492997D01*
X74954Y492538D01*
X76154D01*
X77262Y492997D01*
X78111Y493846D01*
X78570Y494954D01*
Y496154D01*
X78111Y497262D01*
X77262Y498111D01*
X76154Y498570D01*
X75451D01*
X74628Y499547D01*
X74562Y499743D01*
X74644Y499941D01*
Y501141D01*
X74185Y502249D01*
X74088Y502346D01*
X73401Y503176D01*
X74088Y504006D01*
X74185Y504103D01*
X74644Y505211D01*
Y506411D01*
X74457Y506863D01*
X74608Y507218D01*
X75332Y508032D01*
X76154D01*
X77262Y508491D01*
X78111Y509340D01*
X78570Y510448D01*
Y511648D01*
X78111Y512756D01*
X77262Y513605D01*
X76154Y514064D01*
D02*
G37*
G36*
X48734Y559991D02*
X47534D01*
X46426Y559532D01*
X45577Y558683D01*
X45118Y557575D01*
Y556375D01*
X45577Y555267D01*
X46426Y554418D01*
X47534Y553959D01*
X48734D01*
X49843Y554418D01*
X50691Y555267D01*
X51150Y556375D01*
Y557575D01*
X50691Y558683D01*
X49843Y559532D01*
X48734Y559991D01*
D02*
G37*
G36*
X157826Y547846D02*
X156626D01*
X155518Y547387D01*
X154669Y546538D01*
X154210Y545430D01*
Y544230D01*
X154669Y543122D01*
X155518Y542273D01*
X156626Y541814D01*
X157826D01*
X158934Y542273D01*
X159783Y543122D01*
X160242Y544230D01*
Y545430D01*
X159783Y546538D01*
X158934Y547387D01*
X157826Y547846D01*
D02*
G37*
G36*
X49630Y474440D02*
X48430D01*
X47322Y473981D01*
X46473Y473132D01*
X46014Y472024D01*
Y470824D01*
X46473Y469716D01*
X47322Y468867D01*
X48430Y468408D01*
X49630D01*
X50739Y468867D01*
X51587Y469716D01*
X52046Y470824D01*
Y472024D01*
X51587Y473132D01*
X50739Y473981D01*
X49630Y474440D01*
D02*
G37*
G36*
X72990Y396269D02*
X71790D01*
X70682Y395810D01*
X69833Y394961D01*
X69374Y393853D01*
Y392653D01*
X69833Y391545D01*
X69930Y391448D01*
X70617Y390618D01*
X69930Y389788D01*
X69833Y389691D01*
X69374Y388583D01*
Y387383D01*
X69833Y386275D01*
X70682Y385426D01*
X71790Y384967D01*
X72990D01*
X74098Y385426D01*
X74947Y386275D01*
X75406Y387383D01*
Y388583D01*
X74947Y389691D01*
X74850Y389788D01*
X74163Y390618D01*
X74850Y391448D01*
X74947Y391545D01*
X75406Y392653D01*
Y393853D01*
X74947Y394961D01*
X74098Y395810D01*
X72990Y396269D01*
D02*
G37*
G36*
X83912Y388080D02*
X82712D01*
X81604Y387621D01*
X80755Y386772D01*
X80296Y385664D01*
Y384464D01*
X80755Y383356D01*
X81604Y382507D01*
X82712Y382048D01*
X83912D01*
X85020Y382507D01*
X85869Y383356D01*
X86328Y384464D01*
Y385664D01*
X85869Y386772D01*
X85020Y387621D01*
X83912Y388080D01*
D02*
G37*
G36*
X106772Y383762D02*
X105572D01*
X104464Y383303D01*
X103615Y382454D01*
X103156Y381346D01*
Y380146D01*
X103615Y379038D01*
X104464Y378189D01*
X105572Y377730D01*
X106772D01*
X107880Y378189D01*
X108729Y379038D01*
X109188Y380146D01*
Y381346D01*
X108729Y382454D01*
X107880Y383303D01*
X106772Y383762D01*
D02*
G37*
G36*
X105502Y375126D02*
X104302D01*
X103194Y374667D01*
X102345Y373818D01*
X101886Y372710D01*
Y371510D01*
X102345Y370402D01*
X103194Y369553D01*
X104302Y369094D01*
X105502D01*
X106610Y369553D01*
X107459Y370402D01*
X107918Y371510D01*
Y372710D01*
X107459Y373818D01*
X106610Y374667D01*
X105502Y375126D01*
D02*
G37*
G36*
X86198Y372840D02*
X84998D01*
X83890Y372381D01*
X83041Y371532D01*
X82582Y370424D01*
Y369224D01*
X83041Y368116D01*
X83890Y367267D01*
X84998Y366808D01*
X86198D01*
X87306Y367267D01*
X88155Y368116D01*
X88614Y369224D01*
Y370424D01*
X88155Y371532D01*
X87306Y372381D01*
X86198Y372840D01*
D02*
G37*
G36*
X107534Y363442D02*
X106334D01*
X105226Y362983D01*
X104377Y362134D01*
X103918Y361026D01*
Y359826D01*
X104377Y358718D01*
X105226Y357869D01*
X106334Y357410D01*
X107534D01*
X108642Y357869D01*
X109491Y358718D01*
X109950Y359826D01*
Y361026D01*
X109491Y362134D01*
X108642Y362983D01*
X107534Y363442D01*
D02*
G37*
G36*
X76662Y367506D02*
X75462D01*
X74354Y367047D01*
X73505Y366198D01*
X73046Y365090D01*
Y363890D01*
X73233Y363438D01*
X73082Y363083D01*
X72358Y362269D01*
X71536D01*
X70428Y361810D01*
X69579Y360961D01*
X69120Y359853D01*
Y358653D01*
X69579Y357545D01*
X69676Y357448D01*
X70363Y356618D01*
X69676Y355788D01*
X69579Y355691D01*
X69120Y354583D01*
Y353383D01*
X69579Y352275D01*
X70428Y351426D01*
X71536Y350967D01*
X72239D01*
X73062Y349990D01*
X73128Y349794D01*
X73046Y349596D01*
Y348396D01*
X73505Y347288D01*
X74354Y346439D01*
X75462Y345980D01*
X76662D01*
X77770Y346439D01*
X78619Y347288D01*
X79078Y348396D01*
Y349596D01*
X78619Y350704D01*
X77770Y351553D01*
X76662Y352012D01*
X75959D01*
X75136Y352989D01*
X75070Y353185D01*
X75152Y353383D01*
Y354583D01*
X74693Y355691D01*
X74596Y355788D01*
X73909Y356618D01*
X74596Y357448D01*
X74693Y357545D01*
X75152Y358653D01*
Y359853D01*
X74965Y360305D01*
X75116Y360660D01*
X75840Y361474D01*
X76662D01*
X77770Y361933D01*
X78619Y362782D01*
X79078Y363890D01*
Y365090D01*
X78619Y366198D01*
X77770Y367047D01*
X76662Y367506D01*
D02*
G37*
G36*
X46255Y409090D02*
X45055D01*
X43946Y408631D01*
X43098Y407782D01*
X42639Y406674D01*
Y405474D01*
X43098Y404366D01*
X43946Y403517D01*
X45055Y403058D01*
X46255D01*
X47363Y403517D01*
X48212Y404366D01*
X48671Y405474D01*
Y406674D01*
X48212Y407782D01*
X47363Y408631D01*
X46255Y409090D01*
D02*
G37*
G36*
X48868Y331692D02*
X47668D01*
X46560Y331233D01*
X45711Y330384D01*
X45252Y329276D01*
Y328076D01*
X45711Y326968D01*
X46560Y326119D01*
X47668Y325660D01*
X48868D01*
X49977Y326119D01*
X50825Y326968D01*
X51284Y328076D01*
Y329276D01*
X50825Y330384D01*
X49977Y331233D01*
X48868Y331692D01*
D02*
G37*
G36*
X173574Y670020D02*
X172374D01*
X171266Y669561D01*
X170417Y668712D01*
X169958Y667604D01*
Y666404D01*
X170417Y665296D01*
X171266Y664447D01*
X172374Y663988D01*
X173574D01*
X174682Y664447D01*
X175531Y665296D01*
X175990Y666404D01*
Y667604D01*
X175531Y668712D01*
X174682Y669561D01*
X173574Y670020D01*
D02*
G37*
G36*
X80197Y658082D02*
X78997D01*
X77889Y657623D01*
X77792Y657526D01*
X76962Y656839D01*
X76132Y657526D01*
X76035Y657623D01*
X74927Y658082D01*
X73727D01*
X72619Y657623D01*
X71770Y656774D01*
X71311Y655666D01*
Y654466D01*
X71770Y653358D01*
X72619Y652509D01*
X73727Y652050D01*
X74927D01*
X76035Y652509D01*
X76132Y652606D01*
X76962Y653293D01*
X77792Y652606D01*
X77889Y652509D01*
X78997Y652050D01*
X80197D01*
X81305Y652509D01*
X82154Y653358D01*
X82613Y654466D01*
Y655666D01*
X82154Y656774D01*
X81305Y657623D01*
X80197Y658082D01*
D02*
G37*
G36*
X85061Y644022D02*
X83861D01*
X82753Y643563D01*
X81904Y642715D01*
X81445Y641606D01*
Y640406D01*
X81904Y639298D01*
X82753Y638449D01*
X83861Y637990D01*
X85061D01*
X86170Y638449D01*
X87018Y639298D01*
X87477Y640406D01*
Y641606D01*
X87018Y642715D01*
X86170Y643563D01*
X85061Y644022D01*
D02*
G37*
G36*
X195672Y643604D02*
X194472D01*
X193364Y643145D01*
X192515Y642296D01*
X192056Y641188D01*
Y639988D01*
X192515Y638880D01*
X193364Y638031D01*
X194472Y637572D01*
X195672D01*
X196780Y638031D01*
X197629Y638880D01*
X198088Y639988D01*
Y641188D01*
X197629Y642296D01*
X196780Y643145D01*
X195672Y643604D01*
D02*
G37*
G36*
X207864Y634460D02*
X206664D01*
X205556Y634001D01*
X204707Y633152D01*
X204248Y632044D01*
Y630844D01*
X204707Y629736D01*
X205556Y628887D01*
X206664Y628428D01*
X207864D01*
X208972Y628887D01*
X209821Y629736D01*
X210280Y630844D01*
Y632044D01*
X209821Y633152D01*
X208972Y634001D01*
X207864Y634460D01*
D02*
G37*
G36*
X199228Y627348D02*
X198028D01*
X196920Y626889D01*
X196071Y626040D01*
X195612Y624932D01*
Y623732D01*
X196071Y622624D01*
X196920Y621775D01*
X198028Y621316D01*
X199228D01*
X200336Y621775D01*
X201185Y622624D01*
X201644Y623732D01*
Y624932D01*
X201185Y626040D01*
X200336Y626889D01*
X199228Y627348D01*
D02*
G37*
G36*
X70063Y618802D02*
X68863D01*
X67754Y618343D01*
X66906Y617494D01*
X66447Y616386D01*
Y615186D01*
X66906Y614077D01*
X67754Y613229D01*
X68863Y612770D01*
X70063D01*
X71171Y613229D01*
X72020Y614077D01*
X72479Y615186D01*
Y616386D01*
X72020Y617494D01*
X71171Y618343D01*
X70063Y618802D01*
D02*
G37*
G36*
X211674Y617950D02*
X210474D01*
X209366Y617491D01*
X208517Y616642D01*
X208058Y615534D01*
Y614334D01*
X208517Y613226D01*
X209366Y612377D01*
X210474Y611918D01*
X211674D01*
X212782Y612377D01*
X213631Y613226D01*
X214090Y614334D01*
Y615534D01*
X213631Y616642D01*
X212782Y617491D01*
X211674Y617950D01*
D02*
G37*
G36*
X80198Y611092D02*
X78998D01*
X77890Y610633D01*
X77793Y610536D01*
X76963Y609849D01*
X76134Y610536D01*
X76037Y610633D01*
X74928Y611092D01*
X73728D01*
X72620Y610633D01*
X71771Y609784D01*
X71312Y608676D01*
Y607476D01*
X71771Y606368D01*
X72620Y605519D01*
X73728Y605060D01*
X74928D01*
X76037Y605519D01*
X76134Y605616D01*
X76963Y606303D01*
X77793Y605616D01*
X77890Y605519D01*
X78998Y605060D01*
X80198D01*
X81307Y605519D01*
X82155Y606368D01*
X82614Y607476D01*
Y608676D01*
X82155Y609784D01*
X81307Y610633D01*
X80198Y611092D01*
D02*
G37*
G36*
X247234Y598371D02*
X246034D01*
X244926Y597912D01*
X244077Y597064D01*
X243618Y595955D01*
Y594756D01*
X244077Y593647D01*
X244926Y592799D01*
X246034Y592339D01*
X247234D01*
X248342Y592799D01*
X249191Y593647D01*
X249650Y594756D01*
Y595955D01*
X249191Y597064D01*
X248342Y597912D01*
X247234Y598371D01*
D02*
G37*
G36*
X552397Y560546D02*
X551197D01*
X550089Y560087D01*
X549240Y559238D01*
X548781Y558130D01*
Y556930D01*
X549240Y555822D01*
X550089Y554973D01*
X551197Y554514D01*
X552397D01*
X553506Y554973D01*
X554354Y555822D01*
X554813Y556930D01*
Y558130D01*
X554354Y559238D01*
X553506Y560087D01*
X552397Y560546D01*
D02*
G37*
G36*
X518217Y533628D02*
X517017D01*
X515908Y533169D01*
X515060Y532320D01*
X514601Y531212D01*
Y530303D01*
X514414Y529848D01*
X513592Y529130D01*
X512918D01*
X511810Y528671D01*
X510961Y527822D01*
X510502Y526714D01*
Y525514D01*
X510961Y524405D01*
X511810Y523557D01*
X512918Y523098D01*
X513315D01*
X514250Y522140D01*
X514280Y521924D01*
Y520910D01*
X514739Y519801D01*
X515588Y518953D01*
X516696Y518494D01*
X517896D01*
X519005Y518953D01*
X519853Y519801D01*
X520312Y520910D01*
Y521835D01*
X520988Y522499D01*
X521422Y522750D01*
X521808Y522590D01*
X523008D01*
X524117Y523049D01*
X524965Y523897D01*
X525424Y525006D01*
Y526206D01*
X524965Y527314D01*
X524117Y528162D01*
X523008Y528622D01*
X521808D01*
X521354Y528433D01*
X520382Y529405D01*
X520633Y530012D01*
Y531212D01*
X520174Y532320D01*
X519325Y533169D01*
X518217Y533628D01*
D02*
G37*
G36*
X501453D02*
X500253D01*
X499144Y533169D01*
X498296Y532320D01*
X497837Y531212D01*
Y530303D01*
X497650Y529848D01*
X496828Y529130D01*
X496154D01*
X495046Y528671D01*
X494197Y527822D01*
X493738Y526714D01*
Y525514D01*
X493873Y525188D01*
X493759Y525018D01*
X493943D01*
X494197Y524405D01*
X495046Y523557D01*
X496154Y523098D01*
X496551D01*
X497486Y522140D01*
X497516Y521924D01*
Y520910D01*
X497976Y519801D01*
X498824Y518953D01*
X499932Y518494D01*
X501132D01*
X502241Y518953D01*
X503089Y519801D01*
X503548Y520910D01*
Y521835D01*
X504224Y522499D01*
X504658Y522750D01*
X505044Y522590D01*
X506244D01*
X507353Y523049D01*
X508201Y523897D01*
X508660Y525006D01*
Y526206D01*
X508201Y527314D01*
X508201Y527314D01*
X507353Y528162D01*
X506634Y528460D01*
X506244Y528622D01*
X505044D01*
X504590Y528433D01*
X503618Y529405D01*
X503869Y530012D01*
Y531212D01*
X503410Y532320D01*
X502561Y533169D01*
X501453Y533628D01*
D02*
G37*
G36*
X159514Y526647D02*
X158314D01*
X157206Y526188D01*
X156357Y525340D01*
X155898Y524231D01*
Y523032D01*
X156357Y521923D01*
X157206Y521075D01*
X158314Y520616D01*
X159514D01*
X160622Y521075D01*
X161471Y521923D01*
X161930Y523032D01*
Y524231D01*
X161471Y525340D01*
X160622Y526188D01*
X159514Y526647D01*
D02*
G37*
G36*
X334610Y516604D02*
X333410D01*
X332302Y516145D01*
X331453Y515296D01*
X330994Y514188D01*
Y512988D01*
X331453Y511880D01*
X332302Y511031D01*
X333410Y510572D01*
X334610D01*
X335718Y511031D01*
X336567Y511880D01*
X337026Y512988D01*
Y514188D01*
X336567Y515296D01*
X335718Y516145D01*
X334610Y516604D01*
D02*
G37*
G36*
X155794Y430752D02*
X154594D01*
X153486Y430293D01*
X152637Y429444D01*
X152178Y428336D01*
Y427136D01*
X152637Y426028D01*
X153486Y425179D01*
X154594Y424720D01*
X155794D01*
X156902Y425179D01*
X157751Y426028D01*
X158210Y427136D01*
Y428336D01*
X157751Y429444D01*
X156902Y430293D01*
X155794Y430752D01*
D02*
G37*
G36*
X167478Y423386D02*
X166278D01*
X165170Y422927D01*
X164321Y422078D01*
X163862Y420970D01*
Y419770D01*
X164321Y418662D01*
X165170Y417813D01*
X166278Y417354D01*
X167478D01*
X168586Y417813D01*
X169435Y418662D01*
X169894Y419770D01*
Y420970D01*
X169435Y422078D01*
X168586Y422927D01*
X167478Y423386D01*
D02*
G37*
G36*
X157966Y380714D02*
X156766D01*
X155658Y380255D01*
X154809Y379406D01*
X154350Y378298D01*
Y377098D01*
X154809Y375990D01*
X155658Y375141D01*
X156766Y374682D01*
X157966D01*
X159074Y375141D01*
X159923Y375990D01*
X160382Y377098D01*
Y378298D01*
X159923Y379406D01*
X159074Y380255D01*
X157966Y380714D01*
D02*
G37*
G36*
Y358870D02*
X156766D01*
X155658Y358411D01*
X154809Y357562D01*
X154350Y356454D01*
Y355254D01*
X154809Y354146D01*
X155658Y353297D01*
X156766Y352838D01*
X157966D01*
X159074Y353297D01*
X159923Y354146D01*
X160382Y355254D01*
Y356454D01*
X159923Y357562D01*
X159074Y358411D01*
X157966Y358870D01*
D02*
G37*
G36*
X159604Y286988D02*
X158404D01*
X157296Y286529D01*
X156447Y285680D01*
X155988Y284572D01*
Y283372D01*
X156447Y282264D01*
X157296Y281415D01*
X158404Y280956D01*
X159604D01*
X160712Y281415D01*
X161561Y282264D01*
X162020Y283372D01*
Y284572D01*
X161561Y285680D01*
X160712Y286529D01*
X159604Y286988D01*
D02*
G37*
G36*
X157318Y278860D02*
X156118D01*
X155010Y278401D01*
X154161Y277552D01*
X153702Y276444D01*
Y275244D01*
X154161Y274136D01*
X155010Y273287D01*
X156118Y272828D01*
X157318D01*
X158426Y273287D01*
X159275Y274136D01*
X159734Y275244D01*
Y276444D01*
X159275Y277552D01*
X158426Y278401D01*
X157318Y278860D01*
D02*
G37*
G36*
X159350Y237204D02*
X158150D01*
X157042Y236745D01*
X156193Y235896D01*
X155734Y234788D01*
Y233588D01*
X156193Y232480D01*
X157042Y231631D01*
X158150Y231172D01*
X159350D01*
X160458Y231631D01*
X161307Y232480D01*
X161766Y233588D01*
Y234788D01*
X161307Y235896D01*
X160458Y236745D01*
X159350Y237204D01*
D02*
G37*
G36*
X162398Y144748D02*
X161198D01*
X160090Y144289D01*
X159241Y143440D01*
X158782Y142332D01*
Y141132D01*
X159241Y140024D01*
X160090Y139175D01*
X161198Y138716D01*
X162398D01*
X163506Y139175D01*
X164355Y140024D01*
X164814Y141132D01*
Y142332D01*
X164355Y143440D01*
X163506Y144289D01*
X162398Y144748D01*
D02*
G37*
G36*
X73752Y253267D02*
X72552D01*
X71444Y252808D01*
X70595Y251959D01*
X70136Y250851D01*
Y249651D01*
X70595Y248543D01*
X70692Y248446D01*
X71379Y247616D01*
X70692Y246786D01*
X70595Y246689D01*
X70136Y245581D01*
Y244381D01*
X70595Y243273D01*
X71444Y242424D01*
X72552Y241965D01*
X73752D01*
X74860Y242424D01*
X75709Y243273D01*
X76168Y244381D01*
Y245581D01*
X75709Y246689D01*
X75612Y246786D01*
X74925Y247616D01*
X75612Y248446D01*
X75709Y248543D01*
X76168Y249651D01*
Y250851D01*
X75709Y251959D01*
X74860Y252808D01*
X73752Y253267D01*
D02*
G37*
G36*
X88230Y241268D02*
X87030D01*
X85922Y240809D01*
X85073Y239960D01*
X84614Y238852D01*
Y237652D01*
X85073Y236544D01*
X85922Y235695D01*
X87030Y235236D01*
X88230D01*
X89338Y235695D01*
X90187Y236544D01*
X90646Y237652D01*
Y238852D01*
X90187Y239960D01*
X89338Y240809D01*
X88230Y241268D01*
D02*
G37*
G36*
X80864Y238982D02*
X79664D01*
X78556Y238523D01*
X77707Y237674D01*
X77248Y236566D01*
Y235366D01*
X77707Y234258D01*
X78556Y233409D01*
X79664Y232950D01*
X80864D01*
X81972Y233409D01*
X82821Y234258D01*
X83280Y235366D01*
Y236566D01*
X82821Y237674D01*
X81972Y238523D01*
X80864Y238982D01*
D02*
G37*
G36*
X92040Y225520D02*
X90840D01*
X89732Y225061D01*
X88883Y224212D01*
X88424Y223104D01*
Y221904D01*
X88883Y220796D01*
X89732Y219947D01*
X90840Y219488D01*
X92040D01*
X93148Y219947D01*
X93997Y220796D01*
X94456Y221904D01*
Y223104D01*
X93997Y224212D01*
X93148Y225061D01*
X92040Y225520D01*
D02*
G37*
G36*
X106518Y224758D02*
X105318D01*
X104210Y224299D01*
X103361Y223450D01*
X102902Y222342D01*
Y221142D01*
X103361Y220034D01*
X104210Y219185D01*
X105318Y218726D01*
X106518D01*
X107626Y219185D01*
X108475Y220034D01*
X108934Y221142D01*
Y222342D01*
X108475Y223450D01*
X107626Y224299D01*
X106518Y224758D01*
D02*
G37*
G36*
X77308Y224504D02*
X76108D01*
X75000Y224045D01*
X74151Y223196D01*
X73692Y222088D01*
Y220888D01*
X73855Y220494D01*
X73004Y219267D01*
X72552D01*
X71444Y218808D01*
X70595Y217959D01*
X70136Y216851D01*
Y215651D01*
X70595Y214543D01*
X70692Y214446D01*
X71379Y213616D01*
X70692Y212786D01*
X70595Y212689D01*
X70136Y211581D01*
Y210381D01*
X70595Y209273D01*
X71444Y208424D01*
X72552Y207965D01*
X72885D01*
X73734Y206695D01*
X73692Y206594D01*
Y205394D01*
X74151Y204286D01*
X75000Y203437D01*
X76108Y202978D01*
X77308D01*
X78416Y203437D01*
X79265Y204286D01*
X79724Y205394D01*
Y206594D01*
X79265Y207702D01*
X78416Y208551D01*
X77308Y209010D01*
X76975D01*
X76126Y210280D01*
X76168Y210381D01*
Y211581D01*
X75709Y212689D01*
X75612Y212786D01*
X74925Y213616D01*
X75612Y214446D01*
X75709Y214543D01*
X76168Y215651D01*
Y216851D01*
X76005Y217245D01*
X76856Y218472D01*
X77308D01*
X78416Y218931D01*
X79265Y219780D01*
X79724Y220888D01*
Y222088D01*
X79265Y223196D01*
X78416Y224045D01*
X77308Y224504D01*
D02*
G37*
G36*
X50287Y270452D02*
X49088D01*
X47979Y269993D01*
X47131Y269144D01*
X46671Y268036D01*
Y266836D01*
X47131Y265727D01*
X47979Y264879D01*
X49088Y264420D01*
X50287D01*
X51396Y264879D01*
X52244Y265727D01*
X52703Y266836D01*
Y268036D01*
X52244Y269144D01*
X51396Y269993D01*
X50287Y270452D01*
D02*
G37*
G36*
X160366Y264636D02*
X159166D01*
X158058Y264177D01*
X157209Y263328D01*
X156750Y262220D01*
Y261020D01*
X157209Y259912D01*
X158058Y259063D01*
X159166Y258604D01*
X160366D01*
X161474Y259063D01*
X162323Y259912D01*
X162782Y261020D01*
Y262220D01*
X162323Y263328D01*
X161474Y264177D01*
X160366Y264636D01*
D02*
G37*
G36*
X49122Y189284D02*
X47922D01*
X46814Y188825D01*
X45965Y187976D01*
X45506Y186868D01*
Y185668D01*
X45965Y184560D01*
X46814Y183711D01*
X47922Y183252D01*
X49122D01*
X50230Y183711D01*
X51079Y184560D01*
X51538Y185668D01*
Y186868D01*
X51079Y187976D01*
X50230Y188825D01*
X49122Y189284D01*
D02*
G37*
G36*
X56226Y181127D02*
X55026D01*
X53918Y180668D01*
X53069Y179819D01*
X52610Y178711D01*
Y177511D01*
X53069Y176402D01*
X53918Y175554D01*
X55026Y175095D01*
X56226D01*
X57334Y175554D01*
X58183Y176402D01*
X58642Y177511D01*
Y178711D01*
X58183Y179819D01*
X57334Y180668D01*
X56226Y181127D01*
D02*
G37*
G36*
X74514Y111281D02*
X73314D01*
X72206Y110822D01*
X71357Y109973D01*
X70898Y108865D01*
Y107665D01*
X71357Y106557D01*
X71454Y106460D01*
X72141Y105630D01*
X71454Y104800D01*
X71357Y104703D01*
X70898Y103595D01*
Y102395D01*
X71357Y101287D01*
X72206Y100438D01*
X73314Y99979D01*
X74514D01*
X75622Y100438D01*
X76471Y101287D01*
X76930Y102395D01*
Y103595D01*
X76471Y104703D01*
X76374Y104800D01*
X75687Y105630D01*
X76374Y106460D01*
X76471Y106557D01*
X76930Y107665D01*
Y108865D01*
X76471Y109973D01*
X75622Y110822D01*
X74514Y111281D01*
D02*
G37*
G36*
X108804Y102076D02*
X107604D01*
X106496Y101617D01*
X105647Y100768D01*
X105188Y99660D01*
Y98460D01*
X105647Y97352D01*
X106496Y96503D01*
X107604Y96044D01*
X108804D01*
X109912Y96503D01*
X110761Y97352D01*
X111220Y98460D01*
Y99660D01*
X110761Y100768D01*
X109912Y101617D01*
X108804Y102076D01*
D02*
G37*
G36*
X97882Y101822D02*
X96682D01*
X95574Y101363D01*
X94725Y100514D01*
X94266Y99406D01*
Y98206D01*
X94725Y97098D01*
X95574Y96249D01*
X96682Y95790D01*
X97882D01*
X98990Y96249D01*
X99839Y97098D01*
X100298Y98206D01*
Y99406D01*
X99839Y100514D01*
X98990Y101363D01*
X97882Y101822D01*
D02*
G37*
G36*
X86198Y101314D02*
X84998D01*
X83890Y100855D01*
X83041Y100006D01*
X82582Y98898D01*
Y97698D01*
X83041Y96590D01*
X83890Y95741D01*
X84998Y95282D01*
X86198D01*
X87306Y95741D01*
X88155Y96590D01*
X88614Y97698D01*
Y98898D01*
X88155Y100006D01*
X87306Y100855D01*
X86198Y101314D01*
D02*
G37*
G36*
X86452Y84296D02*
X85252D01*
X84144Y83837D01*
X83295Y82988D01*
X82836Y81880D01*
Y80680D01*
X83295Y79572D01*
X84144Y78723D01*
X85252Y78264D01*
X86452D01*
X87560Y78723D01*
X88409Y79572D01*
X88868Y80680D01*
Y81880D01*
X88409Y82988D01*
X87560Y83837D01*
X86452Y84296D01*
D02*
G37*
G36*
X96358Y83788D02*
X95158D01*
X94050Y83329D01*
X93201Y82480D01*
X92742Y81372D01*
Y80172D01*
X93201Y79064D01*
X94050Y78215D01*
X95158Y77756D01*
X96358D01*
X97466Y78215D01*
X98315Y79064D01*
X98774Y80172D01*
Y81372D01*
X98315Y82480D01*
X97466Y83329D01*
X96358Y83788D01*
D02*
G37*
G36*
X109058Y81502D02*
X107858D01*
X106750Y81043D01*
X105901Y80194D01*
X105442Y79086D01*
Y77886D01*
X105901Y76778D01*
X106750Y75929D01*
X107858Y75470D01*
X109058D01*
X110166Y75929D01*
X111015Y76778D01*
X111474Y77886D01*
Y79086D01*
X111015Y80194D01*
X110166Y81043D01*
X109058Y81502D01*
D02*
G37*
G36*
X78186Y82518D02*
X76986D01*
X75878Y82059D01*
X75029Y81210D01*
X74570Y80102D01*
Y78902D01*
X74757Y78450D01*
X74606Y78095D01*
X73882Y77281D01*
X73060D01*
X71952Y76822D01*
X71103Y75973D01*
X70644Y74865D01*
Y73665D01*
X71103Y72557D01*
X71200Y72460D01*
X71887Y71630D01*
X71200Y70800D01*
X71103Y70703D01*
X70644Y69595D01*
Y68395D01*
X71103Y67287D01*
X71952Y66438D01*
X73060Y65979D01*
X73763D01*
X74586Y65002D01*
X74652Y64806D01*
X74570Y64608D01*
Y63408D01*
X75029Y62300D01*
X75878Y61451D01*
X76986Y60992D01*
X78186D01*
X79294Y61451D01*
X80143Y62300D01*
X80602Y63408D01*
Y64608D01*
X80143Y65716D01*
X79294Y66565D01*
X78186Y67024D01*
X77483D01*
X76660Y68001D01*
X76594Y68197D01*
X76676Y68395D01*
Y69595D01*
X76217Y70703D01*
X76120Y70800D01*
X75433Y71630D01*
X76120Y72460D01*
X76217Y72557D01*
X76676Y73665D01*
Y74865D01*
X76489Y75317D01*
X76640Y75672D01*
X77364Y76486D01*
X78186D01*
X79294Y76945D01*
X80143Y77794D01*
X80602Y78902D01*
Y80102D01*
X80143Y81210D01*
X79294Y82059D01*
X78186Y82518D01*
D02*
G37*
G36*
X155032Y127222D02*
X153832D01*
X152724Y126763D01*
X151875Y125914D01*
X151416Y124806D01*
Y123606D01*
X151875Y122498D01*
X152724Y121649D01*
X153832Y121190D01*
X155032D01*
X156104Y121634D01*
X156245Y121571D01*
X157166Y120878D01*
X157004Y120488D01*
Y119288D01*
X157463Y118180D01*
X158312Y117331D01*
X159420Y116872D01*
X160620D01*
X161728Y117331D01*
X162577Y118180D01*
X163036Y119288D01*
Y120488D01*
X162577Y121596D01*
X161728Y122445D01*
X160620Y122904D01*
X159420D01*
X158348Y122460D01*
X158207Y122523D01*
X157286Y123216D01*
X157448Y123606D01*
Y124806D01*
X156989Y125914D01*
X156140Y126763D01*
X155032Y127222D01*
D02*
G37*
G36*
X51408Y46704D02*
X50208D01*
X49100Y46245D01*
X48251Y45396D01*
X47792Y44288D01*
Y43088D01*
X48251Y41980D01*
X49100Y41131D01*
X50208Y40672D01*
X51408D01*
X52516Y41131D01*
X53365Y41980D01*
X53824Y43088D01*
Y44288D01*
X53365Y45396D01*
X52516Y46245D01*
X51408Y46704D01*
D02*
G37*
%LPD*%
D13*
X249403Y55896D02*
D03*
X629403D02*
D03*
X249403Y224125D02*
D03*
X629403D02*
D03*
Y560726D02*
D03*
X249403Y392425D02*
D03*
X629403D02*
D03*
D62*
X531622Y609600D02*
Y643890D01*
X520954Y554482D02*
Y598932D01*
X531622Y609600D01*
X726948Y665480D02*
X767334Y625094D01*
Y601726D02*
Y625094D01*
X553212Y665480D02*
X726948D01*
X531622Y643890D02*
X553212Y665480D01*
D65*
X55826Y426666D02*
X59030D01*
X53657Y424497D02*
X55826Y426666D01*
X38845Y424497D02*
X53657D01*
X30734Y416386D02*
X38845Y424497D01*
X30734Y405892D02*
Y416386D01*
X56052Y422636D02*
X56565Y422123D01*
X56794Y421894D01*
X32766Y405050D02*
Y415544D01*
X39687Y422465D02*
X56052D01*
X56906D01*
X32766Y415544D02*
X39687Y422465D01*
X61770Y423926D02*
X104591D01*
X108137Y420380D01*
X59030Y426666D02*
X61770Y423926D01*
X57136Y422235D02*
X57477Y421894D01*
X103750D01*
X106105Y419539D01*
X112476Y411068D02*
X112928D01*
X108137Y415406D02*
X112476Y411068D01*
X108137Y415406D02*
Y420380D01*
X106105Y415354D02*
Y419539D01*
X101655Y410904D02*
X106105Y415354D01*
X103545Y570738D02*
X107133Y567150D01*
Y564189D02*
Y567150D01*
X57577Y570738D02*
X103545D01*
X107133Y564189D02*
X107696Y563626D01*
X29718Y541744D02*
Y565738D01*
X36464Y572484D01*
X55831D01*
X31750Y564896D02*
X37306Y570452D01*
X31750Y543066D02*
Y564896D01*
X37306Y570452D02*
X49729D01*
X51475Y568706D01*
X100584D01*
X55831Y572484D02*
X57577Y570738D01*
X100584Y568706D02*
X101378Y567912D01*
X103801Y559044D02*
Y565489D01*
X101387Y567912D02*
X103600Y565699D01*
X101378Y567912D02*
X101387D01*
X103600Y565690D02*
X103801Y565489D01*
X103600Y565690D02*
Y565699D01*
X95614Y395818D02*
X99774Y391658D01*
X95614Y395818D02*
Y396003D01*
X99774Y391658D02*
X115611D01*
X104129Y395489D02*
X104182Y395436D01*
X102551Y395489D02*
X104129D01*
X101980Y396060D02*
X102551Y395489D01*
X104182Y395436D02*
X114046D01*
X116808Y398198D01*
X90006Y541994D02*
X94561D01*
X98061Y538494D01*
X17337Y525621D02*
X31750Y540034D01*
X31750Y543066D01*
X17337Y523559D02*
Y525621D01*
X14478Y533400D02*
X14511Y533433D01*
X21407D01*
X29718Y541744D01*
X14478Y520700D02*
X17337Y523559D01*
X36322Y80121D02*
Y94234D01*
X32401Y76200D02*
X36322Y80121D01*
X14224Y76200D02*
X32401D01*
X30988Y99568D02*
X32362Y98194D01*
X30988Y99568D02*
Y125421D01*
X32362Y98185D02*
X34575Y95972D01*
X34584D02*
X36322Y94234D01*
X32362Y98185D02*
Y98194D01*
X34575Y95972D02*
X34584D01*
X23780Y95582D02*
Y117426D01*
X26162Y119808D01*
Y128778D01*
X24130Y120650D02*
Y131238D01*
X21748Y118268D02*
X24130Y120650D01*
X21748Y96424D02*
Y118268D01*
X18034Y120142D02*
X22098Y124206D01*
X8382Y120142D02*
X18034D01*
X22098Y124206D02*
Y132080D01*
X5334Y108490D02*
X10414Y103410D01*
X5334Y108490D02*
Y117094D01*
X10414Y102108D02*
Y103410D01*
X5334Y117094D02*
X8382Y120142D01*
X30993Y248925D02*
Y256978D01*
X20384Y238316D02*
X30993Y248925D01*
X16117Y238316D02*
X20384D01*
X14816Y244687D02*
X23139D01*
X28961Y250508D01*
Y257820D01*
X13970Y231140D02*
Y236169D01*
X16117Y238316D01*
X13970Y243840D02*
X14816Y244687D01*
X30993Y256978D02*
X35575Y261561D01*
X28961Y257820D02*
X33544Y262402D01*
X97028Y252984D02*
X101092Y248920D01*
X112014D01*
X100441Y265256D02*
X104542Y269357D01*
Y275534D01*
X98061Y538494D02*
X113109D01*
X116958Y542342D01*
Y570874D01*
X105918Y581914D02*
X116958Y570874D01*
X32004Y581914D02*
X105918D01*
X109484Y542624D02*
X109852Y542991D01*
X114926Y545849D02*
Y570033D01*
X109852Y542991D02*
X112068D01*
X114926Y545849D01*
X110610Y574348D02*
X114926Y570033D01*
X32846Y579882D02*
X105076D01*
X110610Y574348D01*
Y574348D02*
Y574348D01*
X101245Y556487D02*
X103801Y559044D01*
X99118Y556487D02*
X101245D01*
X98706Y556075D02*
X99118Y556487D01*
X22847Y554977D02*
Y572757D01*
X32004Y581914D01*
X22860Y540512D02*
X26599Y544251D01*
Y560834D02*
X26625Y560860D01*
X26599Y544251D02*
Y560834D01*
X26625Y560860D02*
Y573661D01*
X22352Y540004D02*
X22860Y540512D01*
X4064Y549148D02*
X7874Y552958D01*
X4064Y515874D02*
X11938Y508000D01*
X4064Y515874D02*
Y549148D01*
X8462Y514350D02*
X18288D01*
X6096Y516716D02*
Y536956D01*
Y516716D02*
X8462Y514350D01*
X18288D02*
X22002Y510636D01*
Y500824D02*
Y510636D01*
X11938Y508000D02*
X14478D01*
X16478Y495300D02*
X22002Y500824D01*
X26625Y573661D02*
X32846Y579882D01*
X6096Y536956D02*
X9144Y540004D01*
X22352D01*
X20828Y552958D02*
X22847Y554977D01*
X14478Y495300D02*
X16478D01*
X7874Y552958D02*
X20828D01*
X118840Y394887D02*
Y429292D01*
X115611Y391658D02*
X118840Y394887D01*
X111506Y436626D02*
X118840Y429292D01*
X37084Y434340D02*
X110918D01*
X116808Y428450D01*
Y398198D02*
Y428450D01*
X101655Y410155D02*
Y410904D01*
X22526Y381000D02*
X26416Y384890D01*
X19558Y381000D02*
X22526D01*
X14224Y386334D02*
X19558Y381000D01*
X19668Y378968D02*
X23368D01*
X14334Y373634D02*
X19668Y378968D01*
X14224Y373634D02*
X14334D01*
X23368Y378968D02*
X28448Y384048D01*
X26416Y384890D02*
Y401574D01*
X28448Y384048D02*
Y400732D01*
X32766Y405050D01*
X26416Y401574D02*
X30734Y405892D01*
X21748Y353758D02*
Y363222D01*
X16224Y348234D02*
X21748Y353758D01*
X4318Y401811D02*
X7891Y405384D01*
X4318Y365760D02*
Y401811D01*
X7891Y405384D02*
X18288D01*
X4318Y365760D02*
X7808Y362270D01*
X9953Y392474D02*
X19490D01*
X6480Y389001D02*
X9953Y392474D01*
X6480Y371565D02*
Y389001D01*
Y371565D02*
X10762Y367284D01*
X19490Y392474D02*
X24130Y397114D01*
X28690Y409690D02*
Y425946D01*
X24130Y405130D02*
X28690Y409690D01*
Y425946D02*
X37084Y434340D01*
X24130Y424434D02*
X36322Y436626D01*
X111506D01*
X24130Y411226D02*
Y424434D01*
X18288Y405384D02*
X24130Y411226D01*
Y397114D02*
Y405130D01*
X14224Y348234D02*
X16224D01*
X17686Y367284D02*
X21748Y363222D01*
X10762Y367284D02*
X17686D01*
X12888Y362270D02*
X14224Y360934D01*
X7808Y362270D02*
X12888D01*
X28617Y138599D02*
X50092D01*
X52753Y141260D02*
X58202D01*
X50092Y138599D02*
X52753Y141260D01*
X22098Y132080D02*
X28617Y138599D01*
X60198Y143256D02*
Y151376D01*
X58202Y141260D02*
X60198Y143256D01*
Y151376D02*
X66048Y157226D01*
X114967D01*
X52127Y136567D02*
X53169Y135525D01*
X29459Y136567D02*
X52127D01*
X24130Y131238D02*
X29459Y136567D01*
X66889Y155194D02*
X114126D01*
X62230Y150535D02*
X66889Y155194D01*
X57931Y136911D02*
X62230Y141210D01*
Y150535D01*
X54554Y136911D02*
X57931D01*
X53169Y135525D02*
X54554Y136911D01*
X30988Y125476D02*
X35698Y130186D01*
X56954D01*
X26162Y128778D02*
X28709Y131325D01*
X30602D01*
X31495Y132218D01*
X56112D01*
X22098Y93900D02*
X23780Y95582D01*
X22098Y86360D02*
Y93900D01*
X112928Y265938D02*
Y266145D01*
X114808Y268025D01*
X103838Y286734D02*
X114808Y275764D01*
Y268025D02*
Y275764D01*
X104680Y288766D02*
X116840Y276606D01*
X112014Y248920D02*
X116840Y253746D01*
Y276606D01*
X39592Y286734D02*
X103838D01*
X34521Y288766D02*
X104680D01*
X15970Y205740D02*
X21494Y211264D01*
Y220728D01*
X10784Y224514D02*
X17708D01*
X21494Y220728D01*
X6350Y228948D02*
X10784Y224514D01*
X4318Y225298D02*
X11176Y218440D01*
X4318Y225298D02*
Y256700D01*
X11176Y218440D02*
X13970D01*
X4318Y256700D02*
X11334Y263716D01*
X10254Y249936D02*
X23479D01*
X26924Y253381D02*
Y261126D01*
X23479Y249936D02*
X26924Y253381D01*
X6350Y246032D02*
X10254Y249936D01*
X6350Y228948D02*
Y246032D01*
X26924Y261126D02*
X29766Y263967D01*
X35575Y261561D02*
Y266374D01*
X33829Y274367D02*
X42132Y282670D01*
X33829Y268120D02*
Y274367D01*
Y268120D02*
X35575Y266374D01*
X31797Y267278D02*
Y276066D01*
Y267278D02*
X33544Y265532D01*
X31797Y276066D02*
X40434Y284702D01*
X33544Y262402D02*
Y265532D01*
X29766Y276908D02*
X39592Y286734D01*
X29766Y263967D02*
Y276908D01*
X67944Y277748D02*
X102329D01*
X56526Y276352D02*
X66548D01*
X67944Y277748D01*
X42132Y282670D02*
X49867D01*
X51613Y280924D02*
X51954D01*
X49867Y282670D02*
X51613Y280924D01*
X23876Y278121D02*
X34521Y288766D01*
X11334Y263716D02*
X23686D01*
X23876Y263906D02*
Y278121D01*
X23686Y263716D02*
X23876Y263906D01*
X51954Y280924D02*
X56526Y276352D01*
X40434Y284702D02*
X54482D01*
X57912Y280924D02*
X58720D01*
X59864Y279780D01*
X103454D01*
X54482Y284702D02*
X57912Y281272D01*
Y280924D02*
Y281272D01*
X102329Y277748D02*
X104542Y275534D01*
X107188Y257429D02*
Y276046D01*
X103454Y279780D02*
X107188Y276046D01*
X102756Y252997D02*
X107188Y257429D01*
X13970Y205740D02*
X15970D01*
X103515Y114596D02*
X108585Y119666D01*
X103515Y111083D02*
Y114596D01*
X103504Y111072D02*
X103515Y111083D01*
X123329Y125028D02*
Y148864D01*
X117968Y119666D02*
X123329Y125028D01*
X108585Y119666D02*
X117968D01*
X6700Y69024D02*
X8732Y66992D01*
X6700Y69024D02*
Y79598D01*
X8732Y66992D02*
Y66992D01*
Y66992D02*
X12224Y63500D01*
X18542Y82804D02*
X22098Y86360D01*
X17560Y92236D02*
X21748Y96424D01*
X6700Y79598D02*
X9906Y82804D01*
X12224Y63500D02*
X14224D01*
X9906Y82804D02*
X18542D01*
X17560Y92126D02*
Y92236D01*
X14224Y88900D02*
X14334D01*
X17560Y92126D01*
X119265Y129488D02*
Y147181D01*
X115254Y125476D02*
X119265Y129488D01*
X121297Y125869D02*
Y148022D01*
X117126Y121698D02*
X121297Y125869D01*
X114126Y155194D02*
X121297Y148022D01*
X113284Y153162D02*
X119265Y147181D01*
X112442Y151130D02*
X117233Y146339D01*
X113644Y129607D02*
X117233Y133195D01*
Y146339D01*
X99877Y129607D02*
X113644D01*
X98361Y129603D02*
X99874D01*
X99877Y129607D01*
X97790Y129032D02*
X98361Y129603D01*
X64262Y140368D02*
Y149693D01*
X56112Y132218D02*
X64262Y140368D01*
X56954Y130186D02*
X66294Y139526D01*
Y148851D01*
X68573Y151130D02*
X112442D01*
X66294Y148851D02*
X68573Y151130D01*
X114967Y157226D02*
X123329Y148864D01*
X67731Y153162D02*
X113284D01*
X64262Y149693D02*
X67731Y153162D01*
X111252Y125476D02*
X115254D01*
X104108Y121698D02*
X117126D01*
X101600Y124206D02*
X104108Y121698D01*
D68*
X100962Y649896D02*
D03*
Y606896D02*
D03*
X52962D02*
D03*
Y649896D02*
D03*
D69*
X14224Y411734D02*
D03*
Y386334D02*
D03*
Y373634D02*
D03*
Y360934D02*
D03*
Y399034D02*
D03*
X14478Y558800D02*
D03*
Y533400D02*
D03*
Y520700D02*
D03*
Y508000D02*
D03*
Y546100D02*
D03*
X14224Y127000D02*
D03*
Y101600D02*
D03*
Y88900D02*
D03*
Y76200D02*
D03*
Y114300D02*
D03*
X13970Y269240D02*
D03*
Y243840D02*
D03*
Y231140D02*
D03*
Y218440D02*
D03*
Y256540D02*
D03*
D70*
X14224Y348234D02*
D03*
X14478Y495300D02*
D03*
X14224Y63500D02*
D03*
X13970Y205740D02*
D03*
D71*
X654910Y614318D02*
D03*
D72*
X676910Y639318D02*
D03*
D73*
X704910Y591818D02*
D03*
D74*
X48134Y556975D02*
D03*
X379439Y615988D02*
D03*
X383165Y612261D02*
D03*
X277622Y549656D02*
D03*
X720852Y62992D02*
D03*
X724662Y59436D02*
D03*
X728472Y56388D02*
D03*
X714502Y33274D02*
D03*
X719582Y28194D02*
D03*
X725424Y22860D02*
D03*
X678706Y551872D02*
D03*
X767334Y601726D02*
D03*
X641379Y229870D02*
D03*
X640842Y397764D02*
D03*
X171159Y408857D02*
D03*
X85852Y81280D02*
D03*
X155194Y560324D02*
D03*
X696628Y219052D02*
D03*
Y229974D02*
D03*
Y224386D02*
D03*
X695613Y398052D02*
D03*
X695597Y387028D02*
D03*
Y392606D02*
D03*
X195072Y640588D02*
D03*
X157988Y398526D02*
D03*
X695452Y272796D02*
D03*
Y261620D02*
D03*
Y267208D02*
D03*
Y256286D02*
D03*
X470154Y87376D02*
D03*
X482854D02*
D03*
X533400Y87630D02*
D03*
X559308D02*
D03*
X470408Y256032D02*
D03*
X483108D02*
D03*
X533654Y255524D02*
D03*
X559054D02*
D03*
X470662Y423418D02*
D03*
X482854D02*
D03*
X533654Y423164D02*
D03*
X559054Y390398D02*
D03*
X517144Y605790D02*
D03*
X506730D02*
D03*
X512064D02*
D03*
X528828Y562832D02*
D03*
X470154Y558800D02*
D03*
X482854Y559054D02*
D03*
X279604Y386081D02*
D03*
X317754Y385826D02*
D03*
X355854Y385572D02*
D03*
X279400Y221488D02*
D03*
X318008Y221234D02*
D03*
X355600Y217170D02*
D03*
X279400Y54102D02*
D03*
X317500Y53086D02*
D03*
X355854Y48260D02*
D03*
X654304Y262636D02*
D03*
X659130Y193040D02*
D03*
X717565Y158840D02*
D03*
X723153D02*
D03*
X728487D02*
D03*
X711977D02*
D03*
X723153Y153252D02*
D03*
X717565D02*
D03*
X712231D02*
D03*
X728741D02*
D03*
X728233Y282030D02*
D03*
X722645D02*
D03*
X717311D02*
D03*
X733821D02*
D03*
X728233Y287364D02*
D03*
X722645D02*
D03*
X717311D02*
D03*
X727964Y321056D02*
D03*
X711454D02*
D03*
X716788D02*
D03*
X722376D02*
D03*
X711200Y326644D02*
D03*
X727710D02*
D03*
X722376D02*
D03*
X716788D02*
D03*
X659130Y361188D02*
D03*
X654558Y429768D02*
D03*
X695960Y439928D02*
D03*
Y423418D02*
D03*
Y428752D02*
D03*
Y434340D02*
D03*
X733806Y455168D02*
D03*
X717296D02*
D03*
X722630D02*
D03*
X728218D02*
D03*
X733806Y449834D02*
D03*
X717296D02*
D03*
X722630D02*
D03*
X728218D02*
D03*
X500532Y521510D02*
D03*
X505644Y525606D02*
D03*
X496754Y526114D02*
D03*
X500853Y530612D02*
D03*
X517296Y521510D02*
D03*
X522408Y525606D02*
D03*
X513518Y526114D02*
D03*
X517617Y530612D02*
D03*
X501040Y649294D02*
D03*
X497262Y653898D02*
D03*
X501361Y658396D02*
D03*
X517972Y658294D02*
D03*
X513874Y653796D02*
D03*
X522764Y653288D02*
D03*
X517652Y649192D02*
D03*
X579120Y360680D02*
D03*
Y355092D02*
D03*
Y349504D02*
D03*
X505799D02*
D03*
Y355092D02*
D03*
Y360680D02*
D03*
X432477Y349504D02*
D03*
Y355092D02*
D03*
Y360680D02*
D03*
X359156Y349504D02*
D03*
Y355092D02*
D03*
Y360680D02*
D03*
X579120Y192024D02*
D03*
Y186436D02*
D03*
Y180848D02*
D03*
X505799D02*
D03*
Y186436D02*
D03*
Y192024D02*
D03*
X432477Y180848D02*
D03*
Y186436D02*
D03*
Y192024D02*
D03*
X359156Y180848D02*
D03*
Y186436D02*
D03*
Y192024D02*
D03*
Y23876D02*
D03*
Y18288D02*
D03*
Y12700D02*
D03*
X432477Y23876D02*
D03*
Y18288D02*
D03*
Y12700D02*
D03*
X505799Y23876D02*
D03*
Y18288D02*
D03*
Y12700D02*
D03*
X579120D02*
D03*
Y18288D02*
D03*
Y23876D02*
D03*
X502666Y52660D02*
D03*
X508254D02*
D03*
X513842D02*
D03*
X578866D02*
D03*
X584454D02*
D03*
X590042D02*
D03*
X593090Y550046D02*
D03*
X581152Y518160D02*
D03*
X581406Y659638D02*
D03*
X592582Y636778D02*
D03*
X323342Y588010D02*
D03*
X356108Y559054D02*
D03*
X343662Y617728D02*
D03*
X356108Y618998D02*
D03*
X366522Y577342D02*
D03*
X375158Y585216D02*
D03*
X110367Y582807D02*
D03*
X153408Y573794D02*
D03*
X157226Y544830D02*
D03*
X162814Y568706D02*
D03*
X49687Y267436D02*
D03*
X95758Y80772D02*
D03*
X108458Y78486D02*
D03*
X85598Y98298D02*
D03*
X97282Y98806D02*
D03*
X108204Y99060D02*
D03*
X160020Y119888D02*
D03*
X154432Y124206D02*
D03*
X155956Y135128D02*
D03*
X161798Y141732D02*
D03*
X159766Y261620D02*
D03*
X156718Y275844D02*
D03*
X159004Y283972D02*
D03*
X158750Y234188D02*
D03*
X80264Y235966D02*
D03*
X105918Y221742D02*
D03*
X91440Y222504D02*
D03*
X87630Y238252D02*
D03*
X104902Y372110D02*
D03*
X83312Y385064D02*
D03*
X85598Y369824D02*
D03*
X106172Y380746D02*
D03*
X106934Y360426D02*
D03*
X159258Y405638D02*
D03*
X166878Y420370D02*
D03*
X155194Y427736D02*
D03*
X45655Y406074D02*
D03*
X83856Y427772D02*
D03*
X94525Y427770D02*
D03*
X105309Y427635D02*
D03*
X59030Y426666D02*
D03*
X56794Y421894D02*
D03*
X112928Y411068D02*
D03*
X537972Y598424D02*
D03*
X344932Y527558D02*
D03*
X366014Y528574D02*
D03*
X390652Y556514D02*
D03*
X291520Y624912D02*
D03*
X387096Y639064D02*
D03*
X369062Y656336D02*
D03*
X333756Y649732D02*
D03*
X325374Y641604D02*
D03*
X308356Y624586D02*
D03*
X316738Y632714D02*
D03*
X381072Y529772D02*
D03*
X412780Y572770D02*
D03*
X311658Y525018D02*
D03*
X295910Y542036D02*
D03*
X303439Y534726D02*
D03*
X278357Y560545D02*
D03*
X311152Y558091D02*
D03*
X319651Y549636D02*
D03*
X328049Y541079D02*
D03*
X284346Y630453D02*
D03*
X292862Y638950D02*
D03*
X302006Y648716D02*
D03*
X309118Y657098D02*
D03*
X317754Y665208D02*
D03*
X337058Y663702D02*
D03*
X365506Y663194D02*
D03*
X434086Y661924D02*
D03*
X442214Y669856D02*
D03*
X459232Y632460D02*
D03*
X451470Y639826D02*
D03*
X422656Y636270D02*
D03*
X422910Y666242D02*
D03*
X412750Y667766D02*
D03*
X424434Y620827D02*
D03*
X416611Y628396D02*
D03*
X401574Y643636D02*
D03*
X409091Y636210D02*
D03*
X425958Y557530D02*
D03*
X413766Y539496D02*
D03*
X406966Y546920D02*
D03*
X389890Y529082D02*
D03*
X334010Y513588D02*
D03*
X393515Y538157D02*
D03*
X414782Y555498D02*
D03*
X417830Y614680D02*
D03*
X72136Y353983D02*
D03*
Y359253D02*
D03*
X168402Y119126D02*
D03*
X165100Y115570D02*
D03*
X171958Y122936D02*
D03*
X73152Y216251D02*
D03*
Y210981D02*
D03*
X123444Y406400D02*
D03*
X71628Y500541D02*
D03*
Y505811D02*
D03*
X198628Y624332D02*
D03*
X207264Y631444D02*
D03*
X211074Y614934D02*
D03*
X140970Y610616D02*
D03*
X246634Y595355D02*
D03*
X172974Y667004D02*
D03*
X204948Y644133D02*
D03*
X72898Y574516D02*
D03*
X83566D02*
D03*
X55490Y572484D02*
D03*
X51816Y568706D02*
D03*
X158914Y523632D02*
D03*
X26416Y376015D02*
D03*
Y370745D02*
D03*
X72390Y393253D02*
D03*
Y387983D02*
D03*
X136201Y520280D02*
D03*
X166212Y551480D02*
D03*
X162528Y547899D02*
D03*
X169550Y555528D02*
D03*
X95614Y396003D02*
D03*
X101980Y396060D02*
D03*
X121412Y436801D02*
D03*
X73152Y250251D02*
D03*
Y244981D02*
D03*
X30480Y451612D02*
D03*
X56642Y481584D02*
D03*
X75758Y562102D02*
D03*
X26416Y517303D02*
D03*
Y522573D02*
D03*
X107696Y563626D02*
D03*
X90006Y541994D02*
D03*
X120650Y582676D02*
D03*
X71882Y534541D02*
D03*
Y539811D02*
D03*
X26416Y233013D02*
D03*
Y227743D02*
D03*
X164338Y256794D02*
D03*
X167132Y260350D02*
D03*
X167640Y405384D02*
D03*
X163830Y401320D02*
D03*
X170180Y263906D02*
D03*
X73914Y108265D02*
D03*
Y102995D02*
D03*
X26620Y91027D02*
D03*
Y85757D02*
D03*
X155325Y74799D02*
D03*
X73660Y74265D02*
D03*
Y68995D02*
D03*
X43180Y594868D02*
D03*
X37084Y546608D02*
D03*
X34108Y531296D02*
D03*
X26416Y511302D02*
D03*
Y528828D02*
D03*
X37338Y491871D02*
D03*
X37084Y503936D02*
D03*
X44077Y440922D02*
D03*
X29982Y468884D02*
D03*
X40132Y462248D02*
D03*
X66030Y446532D02*
D03*
X87630Y455676D02*
D03*
X99822D02*
D03*
X49030Y471424D02*
D03*
X34798Y395224D02*
D03*
X34704Y384738D02*
D03*
X29972Y357632D02*
D03*
Y345186D02*
D03*
X157366Y377698D02*
D03*
Y355854D02*
D03*
X44450Y294894D02*
D03*
X68580Y293624D02*
D03*
X28311Y96520D02*
D03*
X28353Y79982D02*
D03*
X75554Y495554D02*
D03*
Y511048D02*
D03*
X76062Y348996D02*
D03*
Y364490D02*
D03*
X77586Y64008D02*
D03*
Y79502D02*
D03*
X76708Y221488D02*
D03*
Y205994D02*
D03*
X58420Y35528D02*
D03*
X50808Y43688D02*
D03*
X41910Y33750D02*
D03*
X48760Y22774D02*
D03*
X50292Y125476D02*
D03*
X65522Y161290D02*
D03*
X38862Y173990D02*
D03*
X46474Y165268D02*
D03*
X55626Y178111D02*
D03*
X48522Y186268D02*
D03*
X29474Y183134D02*
D03*
X87873Y309208D02*
D03*
X100020Y308996D02*
D03*
X48268Y328676D02*
D03*
X56388Y320045D02*
D03*
X29220Y325374D02*
D03*
X38608Y315468D02*
D03*
X46220Y307508D02*
D03*
X65268Y302768D02*
D03*
X84582Y293370D02*
D03*
X79502Y273812D02*
D03*
X100620Y293278D02*
D03*
X27686Y221488D02*
D03*
Y239014D02*
D03*
X130326Y247616D02*
D03*
X35052Y241739D02*
D03*
X34798Y252222D02*
D03*
X31242Y214376D02*
D03*
Y202184D02*
D03*
X88900Y173482D02*
D03*
X100838D02*
D03*
X151196Y212725D02*
D03*
X125476Y114808D02*
D03*
X69342Y648462D02*
D03*
X84582Y648208D02*
D03*
X84461Y641006D02*
D03*
X68326Y608330D02*
D03*
X85598D02*
D03*
X69463Y615786D02*
D03*
X44356Y241736D02*
D03*
X41286Y214376D02*
D03*
X41358Y202184D02*
D03*
X58166Y247650D02*
D03*
X137668Y228854D02*
D03*
X88646Y184150D02*
D03*
X100838D02*
D03*
X130325Y215521D02*
D03*
X97028Y252984D02*
D03*
X100441Y265256D02*
D03*
X124968Y257048D02*
D03*
X87838Y327213D02*
D03*
X100241Y319532D02*
D03*
X33528Y439420D02*
D03*
X137148Y372364D02*
D03*
X132267Y359632D02*
D03*
X124714Y345186D02*
D03*
X57290Y390652D02*
D03*
X90322Y408988D02*
D03*
X111633Y335607D02*
D03*
X130604Y505644D02*
D03*
X124206Y546100D02*
D03*
X51308Y530098D02*
D03*
X48768Y491490D02*
D03*
Y503682D02*
D03*
X87122Y474726D02*
D03*
X99314D02*
D03*
X56896Y537210D02*
D03*
X99822Y564134D02*
D03*
X91199Y555767D02*
D03*
X111252Y482157D02*
D03*
X109484Y542624D02*
D03*
X22860Y540512D02*
D03*
X22847Y563923D02*
D03*
X34290Y586994D02*
D03*
X24130Y405130D02*
D03*
Y411226D02*
D03*
X78740Y415798D02*
D03*
X100736Y416560D02*
D03*
X101655Y410155D02*
D03*
X126746Y491744D02*
D03*
X53086Y141260D02*
D03*
X52832Y135996D02*
D03*
X30870Y131896D02*
D03*
X30988Y125476D02*
D03*
X29766Y263967D02*
D03*
X23876Y263906D02*
D03*
X57912Y280924D02*
D03*
X100764Y273970D02*
D03*
X102756Y252997D02*
D03*
X98706Y556075D02*
D03*
X40640Y389382D02*
D03*
Y357124D02*
D03*
X40712Y345186D02*
D03*
X90564Y266204D02*
D03*
X112036Y192631D02*
D03*
X127000Y60198D02*
D03*
X126238Y202692D02*
D03*
X31242Y290830D02*
D03*
X126492Y289052D02*
D03*
X36140Y99750D02*
D03*
X133232Y73408D02*
D03*
X87504Y124188D02*
D03*
X103504Y111072D02*
D03*
X113030Y50631D02*
D03*
X42418Y149056D02*
D03*
X31187Y149382D02*
D03*
X35786Y109516D02*
D03*
X127394Y146959D02*
D03*
X111252Y125476D02*
D03*
X58674Y105664D02*
D03*
X141869Y92133D02*
D03*
X80264Y140899D02*
D03*
X101506D02*
D03*
X89916Y34544D02*
D03*
X101600D02*
D03*
X159300Y92202D02*
D03*
X146812Y535863D02*
D03*
X147320Y389128D02*
D03*
X147966Y246126D02*
D03*
X74346Y146616D02*
D03*
X84954Y146591D02*
D03*
X95896Y146645D02*
D03*
X106492Y146844D02*
D03*
X112522Y144164D02*
D03*
X42236Y60071D02*
D03*
X42164Y72390D02*
D03*
Y104433D02*
D03*
X31890Y72390D02*
D03*
X31962Y60198D02*
D03*
X21082Y39258D02*
D03*
X77470Y17342D02*
D03*
X89916Y24270D02*
D03*
X101600D02*
D03*
X148844Y104140D02*
D03*
X112928Y265938D02*
D03*
X51954Y280924D02*
D03*
X97790Y129032D02*
D03*
X101600Y124206D02*
D03*
X739140Y432562D02*
D03*
Y438150D02*
D03*
Y443484D02*
D03*
Y426974D02*
D03*
Y275082D02*
D03*
Y269748D02*
D03*
Y258572D02*
D03*
Y264160D02*
D03*
X726034Y229559D02*
D03*
X654304Y251714D02*
D03*
X725272Y397415D02*
D03*
X654304Y419354D02*
D03*
X591058Y594106D02*
D03*
X585724D02*
D03*
X596138D02*
D03*
X499110Y594360D02*
D03*
X493776D02*
D03*
X504190D02*
D03*
X590042Y220808D02*
D03*
X584454D02*
D03*
X578866D02*
D03*
X590042Y389108D02*
D03*
X584454D02*
D03*
X578866D02*
D03*
X513842D02*
D03*
X508254D02*
D03*
X502666D02*
D03*
X513842Y220808D02*
D03*
X508254D02*
D03*
X502666D02*
D03*
X706897Y184748D02*
D03*
X701432Y184809D02*
D03*
X701555Y179028D02*
D03*
X707020Y178967D02*
D03*
X707005Y346771D02*
D03*
X701540Y346831D02*
D03*
X701417Y352613D02*
D03*
X706882Y352552D02*
D03*
X754380Y509524D02*
D03*
X748792D02*
D03*
X743204D02*
D03*
X737616D02*
D03*
Y515366D02*
D03*
X743204D02*
D03*
X748792D02*
D03*
X754380D02*
D03*
X278391Y616349D02*
D03*
X410210Y622300D02*
D03*
X537972Y593598D02*
D03*
X543052Y598424D02*
D03*
Y593598D02*
D03*
X520700Y623570D02*
D03*
X500126D02*
D03*
X510286Y628396D02*
D03*
X515620D02*
D03*
X510286Y623570D02*
D03*
X520700Y628396D02*
D03*
X504952D02*
D03*
X500126D02*
D03*
X515620Y623570D02*
D03*
X504952D02*
D03*
X500380Y549656D02*
D03*
Y554482D02*
D03*
X505206D02*
D03*
Y549656D02*
D03*
X510540D02*
D03*
Y554482D02*
D03*
X515874Y549656D02*
D03*
Y554482D02*
D03*
X520954Y549656D02*
D03*
Y554482D02*
D03*
X577596Y597662D02*
D03*
X74328Y608076D02*
D03*
X79597Y655066D02*
D03*
X396665Y599269D02*
D03*
X79598Y608076D02*
D03*
X74327Y655066D02*
D03*
X400392Y595542D02*
D03*
X146050Y650563D02*
D03*
Y645293D02*
D03*
X115653Y642196D02*
D03*
X119380Y645922D02*
D03*
X132588Y623824D02*
D03*
X128862Y620098D02*
D03*
X129032Y600561D02*
D03*
Y605831D02*
D03*
X387925Y607501D02*
D03*
X391651Y603775D02*
D03*
X551797Y557530D02*
D03*
X373380Y615848D02*
D03*
X381977Y606342D02*
D03*
X390830Y597764D02*
D03*
X115363Y635886D02*
D03*
X109220Y642874D02*
D03*
X125984Y645668D02*
D03*
X120142Y652272D02*
D03*
X123952Y609854D02*
D03*
X134112D02*
D03*
Y596392D02*
D03*
X123952D02*
D03*
X122936Y619506D02*
D03*
X129032Y613918D02*
D03*
X138684Y623570D02*
D03*
X132842Y629920D02*
D03*
X146050Y638302D02*
D03*
X139954Y656082D02*
D03*
X151638D02*
D03*
D75*
X623824Y28956D02*
X712978D01*
X578866Y52578D02*
X600202D01*
X623824Y28956D01*
X649732Y542544D02*
Y569468D01*
X625094Y594106D02*
X649732Y569468D01*
Y542544D02*
X676910Y515366D01*
X748792D02*
X754380D01*
X743204D02*
X748792D01*
X737616D02*
X743204D01*
X676910D02*
X737616D01*
X596138Y594106D02*
X625094D01*
X591058D02*
X596138D01*
X585724D02*
X591058D01*
X590042Y220808D02*
X609264D01*
X584454D02*
X590042D01*
X578866D02*
X584454D01*
X622300Y207772D02*
X741934D01*
X609264Y220808D02*
X622300Y207772D01*
X590042Y389108D02*
X607080D01*
X584454D02*
X590042D01*
X578866D02*
X584454D01*
X624332Y371856D02*
X738632D01*
X607080Y389108D02*
X624332Y371856D01*
M02*
