G04*
G04 #@! TF.GenerationSoftware,Altium Limited,Altium Designer,24.0.1 (36)*
G04*
G04 Layer_Color=255*
%FSLAX44Y44*%
%MOMM*%
G71*
G04*
G04 #@! TF.SameCoordinates,2863EE23-0FE7-43ED-B731-855E9A245776*
G04*
G04*
G04 #@! TF.FilePolarity,Positive*
G04*
G01*
G75*
%ADD13C,1.0000*%
%ADD19R,0.5000X0.5000*%
%ADD20R,0.5000X0.5000*%
%ADD28R,1.2000X1.3000*%
%ADD29R,0.7500X0.8500*%
%ADD68C,1.3000*%
%ADD69O,1.2000X0.8000*%
%ADD70R,1.2000X0.8000*%
%ADD71R,1.8000X4.5000*%
%ADD72R,1.8000X4.0000*%
%ADD73R,5.0000X2.6000*%
%ADD76R,0.8000X0.3000*%
%ADD77C,0.3040*%
%ADD78P,7.7782X4X90.0*%
G04:AMPARAMS|DCode=79|XSize=0.2mm|YSize=0.8mm|CornerRadius=0mm|HoleSize=0mm|Usage=FLASHONLY|Rotation=315.000|XOffset=0mm|YOffset=0mm|HoleType=Round|Shape=Round|*
%AMOVALD79*
21,1,0.6000,0.2000,0.0000,0.0000,45.0*
1,1,0.2000,-0.2121,-0.2121*
1,1,0.2000,0.2121,0.2121*
%
%ADD79OVALD79*%

G04:AMPARAMS|DCode=80|XSize=0.2mm|YSize=0.8mm|CornerRadius=0mm|HoleSize=0mm|Usage=FLASHONLY|Rotation=225.000|XOffset=0mm|YOffset=0mm|HoleType=Round|Shape=Round|*
%AMOVALD80*
21,1,0.6000,0.2000,0.0000,0.0000,315.0*
1,1,0.2000,-0.2121,0.2121*
1,1,0.2000,0.2121,-0.2121*
%
%ADD80OVALD80*%

%ADD81R,0.3000X1.0000*%
G04:AMPARAMS|DCode=82|XSize=2mm|YSize=3.5mm|CornerRadius=0mm|HoleSize=0mm|Usage=FLASHONLY|Rotation=45.000|XOffset=0mm|YOffset=0mm|HoleType=Round|Shape=Rectangle|*
%AMROTATEDRECTD82*
4,1,4,0.5303,-1.9446,-1.9446,0.5303,-0.5303,1.9446,1.9446,-0.5303,0.5303,-1.9446,0.0*
%
%ADD82ROTATEDRECTD82*%

G04:AMPARAMS|DCode=83|XSize=1.2mm|YSize=3.5mm|CornerRadius=0mm|HoleSize=0mm|Usage=FLASHONLY|Rotation=45.000|XOffset=0mm|YOffset=0mm|HoleType=Round|Shape=Rectangle|*
%AMROTATEDRECTD83*
4,1,4,0.8132,-1.6617,-1.6617,0.8132,-0.8132,1.6617,1.6617,-0.8132,0.8132,-1.6617,0.0*
%
%ADD83ROTATEDRECTD83*%

%ADD84R,0.8500X0.7500*%
%ADD85R,1.0000X2.7000*%
%ADD86O,1.0000X2.7000*%
%ADD87R,0.4200X0.6600*%
%ADD88R,3.7000X1.1000*%
G04:AMPARAMS|DCode=89|XSize=0.8mm|YSize=2.5mm|CornerRadius=0mm|HoleSize=0mm|Usage=FLASHONLY|Rotation=315.000|XOffset=0mm|YOffset=0mm|HoleType=Round|Shape=Rectangle|*
%AMROTATEDRECTD89*
4,1,4,-1.1667,-0.6010,0.6010,1.1667,1.1667,0.6010,-0.6010,-1.1667,-1.1667,-0.6010,0.0*
%
%ADD89ROTATEDRECTD89*%

G04:AMPARAMS|DCode=90|XSize=1.95mm|YSize=1.5mm|CornerRadius=0mm|HoleSize=0mm|Usage=FLASHONLY|Rotation=225.000|XOffset=0mm|YOffset=0mm|HoleType=Round|Shape=Rectangle|*
%AMROTATEDRECTD90*
4,1,4,0.1591,1.2198,1.2198,0.1591,-0.1591,-1.2198,-1.2198,-0.1591,0.1591,1.2198,0.0*
%
%ADD90ROTATEDRECTD90*%

%ADD91R,1.1000X3.7000*%
%ADD92P,0.7071X4X270.0*%
%ADD93P,0.7071X4X180.0*%
%ADD94R,0.4318X0.9779*%
D13*
X249403Y55896D02*
D03*
X629403D02*
D03*
X249403Y224125D02*
D03*
X629403D02*
D03*
Y560726D02*
D03*
X249403Y392425D02*
D03*
X629403D02*
D03*
D19*
X648477Y217950D02*
D03*
Y208950D02*
D03*
X769366Y548962D02*
D03*
Y557462D02*
D03*
X593090Y556070D02*
D03*
Y547570D02*
D03*
X592836Y623384D02*
D03*
Y631884D02*
D03*
X593344Y524138D02*
D03*
Y532638D02*
D03*
X581406D02*
D03*
Y524138D02*
D03*
X581152Y547506D02*
D03*
Y556006D02*
D03*
X427482Y645596D02*
D03*
Y636596D02*
D03*
Y666170D02*
D03*
Y657170D02*
D03*
X592836Y655252D02*
D03*
X581406D02*
D03*
X648462Y376754D02*
D03*
X581152Y631816D02*
D03*
X592836Y646752D02*
D03*
X648462Y385754D02*
D03*
X581152Y623316D02*
D03*
X581406Y646752D02*
D03*
D20*
X667713Y229924D02*
D03*
X659213D02*
D03*
X667713Y262472D02*
D03*
X659213D02*
D03*
X667713Y219074D02*
D03*
X659213D02*
D03*
X659277Y240773D02*
D03*
X667777D02*
D03*
X220798Y644906D02*
D03*
Y655574D02*
D03*
X220544Y621030D02*
D03*
Y631698D02*
D03*
X260748Y537210D02*
D03*
X260676Y548132D02*
D03*
X290648Y512318D02*
D03*
X290576Y523240D02*
D03*
X229798Y655574D02*
D03*
Y644906D02*
D03*
X229544Y631698D02*
D03*
Y621030D02*
D03*
X269676Y548132D02*
D03*
X269748Y537210D02*
D03*
X299576Y523240D02*
D03*
X299648Y512318D02*
D03*
X346202Y513588D02*
D03*
X337702D02*
D03*
X659198Y365179D02*
D03*
Y430276D02*
D03*
Y397728D02*
D03*
X659213Y197376D02*
D03*
X658980Y376029D02*
D03*
X658995Y208225D02*
D03*
X407856Y667766D02*
D03*
X365878Y513588D02*
D03*
X357378D02*
D03*
X337448Y667766D02*
D03*
X345948D02*
D03*
X357192D02*
D03*
X365692D02*
D03*
X667762Y408577D02*
D03*
X659262D02*
D03*
X659198Y386878D02*
D03*
X667698D02*
D03*
X667713Y197376D02*
D03*
X667698Y365179D02*
D03*
Y430276D02*
D03*
X659213Y186526D02*
D03*
X667713D02*
D03*
X667698Y397728D02*
D03*
X659198Y354330D02*
D03*
X667698D02*
D03*
X667995Y208225D02*
D03*
X658980Y419426D02*
D03*
X667980D02*
D03*
X658995Y251623D02*
D03*
X667995D02*
D03*
X667980Y376029D02*
D03*
X399356Y667766D02*
D03*
D28*
X458946Y661876D02*
D03*
Y640876D02*
D03*
X441946D02*
D03*
Y661876D02*
D03*
D29*
X732006Y439674D02*
D03*
X746506D02*
D03*
X732006Y424180D02*
D03*
X746506D02*
D03*
X718058D02*
D03*
X703558D02*
D03*
X746521Y256376D02*
D03*
X732021D02*
D03*
Y271870D02*
D03*
X746521D02*
D03*
X718073D02*
D03*
X703573D02*
D03*
Y256376D02*
D03*
X718073D02*
D03*
X529082Y581914D02*
D03*
X514582D02*
D03*
X529082Y597916D02*
D03*
X514582D02*
D03*
X703558Y439674D02*
D03*
X718058D02*
D03*
D68*
X100962Y649896D02*
D03*
Y606896D02*
D03*
X52962D02*
D03*
Y649896D02*
D03*
D69*
X14224Y411734D02*
D03*
Y386334D02*
D03*
Y373634D02*
D03*
Y360934D02*
D03*
Y399034D02*
D03*
X14478Y558800D02*
D03*
Y533400D02*
D03*
Y520700D02*
D03*
Y508000D02*
D03*
Y546100D02*
D03*
X14224Y127000D02*
D03*
Y101600D02*
D03*
Y88900D02*
D03*
Y76200D02*
D03*
Y114300D02*
D03*
X13970Y269240D02*
D03*
Y243840D02*
D03*
Y231140D02*
D03*
Y218440D02*
D03*
Y256540D02*
D03*
D70*
X14224Y348234D02*
D03*
X14478Y495300D02*
D03*
X14224Y63500D02*
D03*
X13970Y205740D02*
D03*
D71*
X654910Y614318D02*
D03*
D72*
X676910Y639318D02*
D03*
D73*
X704910Y591818D02*
D03*
D76*
X718071Y402429D02*
D03*
Y397430D02*
D03*
Y392429D02*
D03*
Y387430D02*
D03*
Y382429D02*
D03*
X688073D02*
D03*
Y387430D02*
D03*
Y392429D02*
D03*
Y402429D02*
D03*
Y397430D02*
D03*
X718071Y234535D02*
D03*
Y229536D02*
D03*
Y224535D02*
D03*
Y219536D02*
D03*
Y214535D02*
D03*
X688073D02*
D03*
Y219536D02*
D03*
Y224535D02*
D03*
Y234535D02*
D03*
Y229536D02*
D03*
D77*
X703057Y392340D02*
D03*
Y224446D02*
D03*
D78*
X351536Y592836D02*
D03*
D79*
X345519Y535919D02*
D03*
X342699Y538739D02*
D03*
X339862Y541577D02*
D03*
X337042Y544397D02*
D03*
X334204Y547234D02*
D03*
X331384Y550054D02*
D03*
X328547Y552892D02*
D03*
X325727Y555712D02*
D03*
X322889Y558549D02*
D03*
X320069Y561369D02*
D03*
X317249Y564189D02*
D03*
X314412Y567027D02*
D03*
X311592Y569847D02*
D03*
X308754Y572684D02*
D03*
X305934Y575504D02*
D03*
X303097Y578342D02*
D03*
X300277Y581162D02*
D03*
X297439Y583999D02*
D03*
X294619Y586819D02*
D03*
X357553Y649753D02*
D03*
X360373Y646933D02*
D03*
X363210Y644095D02*
D03*
X366030Y641275D02*
D03*
X368868Y638438D02*
D03*
X371688Y635618D02*
D03*
X374525Y632780D02*
D03*
X377345Y629960D02*
D03*
X380183Y627123D02*
D03*
X383003Y624303D02*
D03*
X385823Y621483D02*
D03*
X388660Y618645D02*
D03*
X391480Y615826D02*
D03*
X394318Y612988D02*
D03*
X397138Y610168D02*
D03*
X399976Y607330D02*
D03*
X402795Y604510D02*
D03*
X405633Y601673D02*
D03*
X408453Y598853D02*
D03*
D80*
X294619D02*
D03*
X297439Y601673D02*
D03*
X300277Y604510D02*
D03*
X303097Y607330D02*
D03*
X305934Y610168D02*
D03*
X308754Y612988D02*
D03*
X311592Y615826D02*
D03*
X314412Y618645D02*
D03*
X317249Y621483D02*
D03*
X320069Y624303D02*
D03*
X322889Y627123D02*
D03*
X325727Y629960D02*
D03*
X328547Y632780D02*
D03*
X331384Y635618D02*
D03*
X334204Y638438D02*
D03*
X337042Y641275D02*
D03*
X339862Y644095D02*
D03*
X342699Y646933D02*
D03*
X345519Y649753D02*
D03*
X408453Y586819D02*
D03*
X405633Y583999D02*
D03*
X402795Y581162D02*
D03*
X399976Y578342D02*
D03*
X397138Y575504D02*
D03*
X394318Y572684D02*
D03*
X391480Y569847D02*
D03*
X388660Y567027D02*
D03*
X385823Y564189D02*
D03*
X383003Y561369D02*
D03*
X380183Y558549D02*
D03*
X377345Y555712D02*
D03*
X374525Y552892D02*
D03*
X371688Y550054D02*
D03*
X368868Y547234D02*
D03*
X366030Y544397D02*
D03*
X363210Y541577D02*
D03*
X360373Y538739D02*
D03*
X357553Y535919D02*
D03*
D81*
X104463Y635596D02*
D03*
X79461D02*
D03*
X99461D02*
D03*
X94463D02*
D03*
X89461D02*
D03*
X84463D02*
D03*
X49461D02*
D03*
X74463D02*
D03*
X69461D02*
D03*
X64463D02*
D03*
X59461D02*
D03*
X54463D02*
D03*
X104463Y621196D02*
D03*
X79464D02*
D03*
X99461D02*
D03*
X94463D02*
D03*
X89461D02*
D03*
X84463D02*
D03*
X49461D02*
D03*
X74463D02*
D03*
X69461D02*
D03*
X64463D02*
D03*
X59461D02*
D03*
X54463D02*
D03*
D82*
X708306Y129111D02*
D03*
X647113Y67918D02*
D03*
D83*
X736972Y56930D02*
D03*
X719294Y39252D02*
D03*
D84*
X732636Y181954D02*
D03*
Y167454D02*
D03*
X763778Y349758D02*
D03*
Y335258D02*
D03*
X717042Y349758D02*
D03*
Y335258D02*
D03*
X732621Y349758D02*
D03*
Y335258D02*
D03*
X763793Y181954D02*
D03*
Y167454D02*
D03*
X517906Y638926D02*
D03*
Y653426D02*
D03*
X500888Y525642D02*
D03*
Y540142D02*
D03*
X501396Y653426D02*
D03*
Y638926D02*
D03*
X517652Y525642D02*
D03*
X748199Y335258D02*
D03*
X748215Y167454D02*
D03*
X717057D02*
D03*
X517652Y540142D02*
D03*
X717057Y181954D02*
D03*
X748215D02*
D03*
X748199Y349758D02*
D03*
D85*
X584200Y415572D02*
D03*
Y246916D02*
D03*
X510879D02*
D03*
X437557D02*
D03*
X364236D02*
D03*
X584200Y78768D02*
D03*
X510879D02*
D03*
X364236D02*
D03*
X437557D02*
D03*
X510879Y415572D02*
D03*
X437557D02*
D03*
X364236D02*
D03*
D86*
X584200Y355572D02*
D03*
Y186916D02*
D03*
X510879D02*
D03*
X437557D02*
D03*
X364236D02*
D03*
X584200Y18768D02*
D03*
X510879D02*
D03*
X364236D02*
D03*
X437557D02*
D03*
X510879Y355572D02*
D03*
X437557D02*
D03*
X364236D02*
D03*
D87*
X755748Y522764D02*
D03*
X749248D02*
D03*
X742748D02*
D03*
X736248D02*
D03*
X736248Y552164D02*
D03*
X742748D02*
D03*
X749248D02*
D03*
X755748D02*
D03*
D88*
X750331Y199706D02*
D03*
Y229706D02*
D03*
X750316Y397510D02*
D03*
Y367510D02*
D03*
D89*
X678085Y530573D02*
D03*
X667478Y541179D02*
D03*
D90*
X664070Y487312D02*
D03*
X624218Y527164D02*
D03*
D91*
X565912Y639064D02*
D03*
X535912D02*
D03*
Y540004D02*
D03*
X565912D02*
D03*
D92*
X378925Y665183D02*
D03*
X372915Y659173D02*
D03*
X405087Y640037D02*
D03*
X399077Y634027D02*
D03*
X428124Y617354D02*
D03*
X421760Y610990D02*
D03*
X397390Y647834D02*
D03*
X391026Y641470D02*
D03*
X289546Y554214D02*
D03*
X410090Y535820D02*
D03*
X420504Y624974D02*
D03*
X281418Y562342D02*
D03*
X314946Y528560D02*
D03*
X298690Y545070D02*
D03*
X412884Y632594D02*
D03*
X306564Y537196D02*
D03*
X287782Y568706D02*
D03*
X321310Y534924D02*
D03*
X414140Y618610D02*
D03*
X406520Y626230D02*
D03*
X312928Y543560D02*
D03*
X305054Y551434D02*
D03*
X295910Y560578D02*
D03*
X386545Y657563D02*
D03*
X380535Y651553D02*
D03*
X330665Y524467D02*
D03*
X324655Y518457D02*
D03*
X403726Y529456D02*
D03*
D93*
X385332Y525512D02*
D03*
X378968Y531876D02*
D03*
X403232Y543934D02*
D03*
X426092Y566794D02*
D03*
X321042Y662954D02*
D03*
X295642Y637554D02*
D03*
X287260Y629172D02*
D03*
X304278Y646190D02*
D03*
X312152Y654064D02*
D03*
X396868Y550298D02*
D03*
X410675Y551731D02*
D03*
X404665Y557741D02*
D03*
X327406Y656590D02*
D03*
X318516Y647700D02*
D03*
X310642Y639826D02*
D03*
X302006Y631190D02*
D03*
X418252Y559394D02*
D03*
X276438Y617896D02*
D03*
X395392Y536534D02*
D03*
X389382Y542544D02*
D03*
X282448Y611886D02*
D03*
X412242Y565404D02*
D03*
X419728Y573158D02*
D03*
X293624Y622808D02*
D03*
D94*
X564590Y603186D02*
D03*
X551590D02*
D03*
X571090Y575882D02*
D03*
X564590D02*
D03*
X558090D02*
D03*
X551590D02*
D03*
X558090Y603186D02*
D03*
X571090D02*
D03*
M02*
