G04*
G04 #@! TF.GenerationSoftware,Altium Limited,Altium Designer,24.0.1 (36)*
G04*
G04 Layer_Color=32896*
%FSLAX44Y44*%
%MOMM*%
G71*
G04*
G04 #@! TF.SameCoordinates,2863EE23-0FE7-43ED-B731-855E9A245776*
G04*
G04*
G04 #@! TF.FilePolarity,Positive*
G04*
G01*
G75*
%ADD10C,0.2500*%
%ADD11C,0.2000*%
%ADD12C,0.1500*%
%ADD14C,0.2540*%
%ADD15C,0.1524*%
%ADD16C,0.2032*%
%ADD17C,0.1500*%
%ADD119C,0.3000*%
D10*
X737498Y560964D02*
G03*
X737498Y560964I-1250J0D01*
G01*
X579097Y573026D02*
G03*
X579097Y573026I-1250J0D01*
G01*
D11*
X615700Y385572D02*
G03*
X615700Y385572I-31500J0D01*
G01*
Y216916D02*
G03*
X615700Y216916I-31500J0D01*
G01*
X542379D02*
G03*
X542379Y216916I-31500J0D01*
G01*
X469057D02*
G03*
X469057Y216916I-31500J0D01*
G01*
X395736D02*
G03*
X395736Y216916I-31500J0D01*
G01*
X615700Y48768D02*
G03*
X615700Y48768I-31500J0D01*
G01*
X542379D02*
G03*
X542379Y48768I-31500J0D01*
G01*
X395736D02*
G03*
X395736Y48768I-31500J0D01*
G01*
X469057D02*
G03*
X469057Y48768I-31500J0D01*
G01*
X542379Y385572D02*
G03*
X542379Y385572I-31500J0D01*
G01*
X469057D02*
G03*
X469057Y385572I-31500J0D01*
G01*
X395736D02*
G03*
X395736Y385572I-31500J0D01*
G01*
X285068Y592836D02*
X288604Y589300D01*
X285068Y592836D02*
X288604Y596372D01*
X351536Y659304D02*
X355072Y655768D01*
X348000D02*
X351536Y659304D01*
X414468Y589300D02*
X418004Y592836D01*
X414468Y596372D02*
X418004Y592836D01*
X351536Y526368D02*
X355072Y529904D01*
X348000D02*
X351536Y526368D01*
X730997Y99675D02*
X748872Y81799D01*
X676550Y45227D02*
X694425Y27352D01*
X694934Y76340D02*
X703476Y84882D01*
X699884Y99250D02*
X703476Y84882D01*
X675630Y123504D02*
X699884Y99250D01*
X652720Y100594D02*
X676974Y76340D01*
X691342Y72748D01*
X694934Y76340D01*
X681853Y39924D02*
X736300Y94371D01*
X726471Y120463D02*
X739128Y107806D01*
X730997Y99675D02*
X739128Y107806D01*
X655761Y49753D02*
X668418Y37095D01*
X676550Y45227D01*
X694425Y27352D02*
X748872Y81799D01*
X636952Y84825D02*
X691399Y139272D01*
X730148Y522214D02*
Y530964D01*
X761848Y522214D02*
Y530964D01*
X730148Y544664D02*
Y552714D01*
X761848Y544664D02*
Y552714D01*
X456542Y671696D02*
X467718D01*
X467972Y660266D02*
Y671696D01*
X576837Y584456D02*
Y594616D01*
X545837Y584456D02*
Y594616D01*
Y584456D02*
X576837D01*
X545837Y594616D02*
X576837D01*
D12*
X722871Y407669D02*
G03*
X722871Y407669I-749J0D01*
G01*
Y239775D02*
G03*
X722871Y239775I-749J0D01*
G01*
X703048Y407392D02*
X703066D01*
X718057Y377392D02*
Y378900D01*
X709548Y377392D02*
X718057D01*
X703048D02*
X703066D01*
X688057D02*
X696566D01*
X688057Y407392D02*
X696565D01*
X709548D02*
X718057D01*
Y405883D02*
Y407392D01*
X688057Y377392D02*
Y379450D01*
Y405333D02*
Y407392D01*
X703048Y239498D02*
X703066D01*
X718057Y209498D02*
Y211006D01*
X709548Y209498D02*
X718057D01*
X703048D02*
X703066D01*
X688057D02*
X696566D01*
X688057Y239498D02*
X696565D01*
X709548D02*
X718057D01*
Y237989D02*
Y239498D01*
X688057Y209498D02*
Y211556D01*
Y237439D02*
Y239498D01*
D14*
X727770Y628575D02*
G03*
X727770Y628575I-17780J0D01*
G01*
X717553Y578271D02*
G03*
X711260Y671828I-6293J46567D01*
G01*
X126962Y608396D02*
Y648396D01*
X26962Y608396D02*
Y648396D01*
X109645D02*
X126962D01*
X61644D02*
X92280D01*
X26962D02*
X44279D01*
X109645Y608396D02*
X126962D01*
X61644D02*
X92280D01*
X26962D02*
X44279D01*
X551200Y404072D02*
X565700Y418572D01*
X551200Y352572D02*
X617200D01*
X551200D02*
Y404072D01*
X565700Y418572D02*
X601700D01*
X617200Y403072D01*
Y352572D02*
Y403072D01*
X551200Y235416D02*
X565700Y249916D01*
X551200Y183916D02*
X617200D01*
X551200D02*
Y235416D01*
X565700Y249916D02*
X601700D01*
X617200Y234416D01*
Y183916D02*
Y234416D01*
X477879Y235416D02*
X492379Y249916D01*
X477879Y183916D02*
X543879D01*
X477879D02*
Y235416D01*
X492379Y249916D02*
X528379D01*
X543879Y234416D01*
Y183916D02*
Y234416D01*
X404557Y235416D02*
X419057Y249916D01*
X404557Y183916D02*
X470557D01*
X404557D02*
Y235416D01*
X419057Y249916D02*
X455057D01*
X470557Y234416D01*
Y183916D02*
Y234416D01*
X331236Y235416D02*
X345736Y249916D01*
X331236Y183916D02*
X397236D01*
X331236D02*
Y235416D01*
X345736Y249916D02*
X381736D01*
X397236Y234416D01*
Y183916D02*
Y234416D01*
X551200Y67268D02*
X565700Y81768D01*
X551200Y15768D02*
X617200D01*
X551200D02*
Y67268D01*
X565700Y81768D02*
X601700D01*
X617200Y66268D01*
Y15768D02*
Y66268D01*
X477879Y67268D02*
X492379Y81768D01*
X477879Y15768D02*
X543879D01*
X477879D02*
Y67268D01*
X492379Y81768D02*
X528379D01*
X543879Y66268D01*
Y15768D02*
Y66268D01*
X331236Y67268D02*
X345736Y81768D01*
X331236Y15768D02*
X397236D01*
X331236D02*
Y67268D01*
X345736Y81768D02*
X381736D01*
X397236Y66268D01*
Y15768D02*
Y66268D01*
X404557Y67268D02*
X419057Y81768D01*
X404557Y15768D02*
X470557D01*
X404557D02*
Y67268D01*
X419057Y81768D02*
X455057D01*
X470557Y66268D01*
Y15768D02*
Y66268D01*
X477879Y404072D02*
X492379Y418572D01*
X477879Y352572D02*
X543879D01*
X477879D02*
Y404072D01*
X492379Y418572D02*
X528379D01*
X543879Y403072D01*
Y352572D02*
Y403072D01*
X404557Y404072D02*
X419057Y418572D01*
X404557Y352572D02*
X470557D01*
X404557D02*
Y404072D01*
X419057Y418572D02*
X455057D01*
X470557Y403072D01*
Y352572D02*
Y403072D01*
X331236Y404072D02*
X345736Y418572D01*
X331236Y352572D02*
X397236D01*
X331236D02*
Y404072D01*
X345736Y418572D02*
X381736D01*
X397236Y403072D01*
Y352572D02*
Y403072D01*
X640140Y578271D02*
Y671828D01*
X711260D01*
X640140Y578271D02*
X717553D01*
X137414Y33523D02*
Y23366D01*
X132336Y18288D01*
X127257Y23366D01*
Y33523D01*
X114561Y18288D02*
X119640D01*
X122179Y20827D01*
Y25905D01*
X119640Y28445D01*
X114561D01*
X112022Y25905D01*
Y23366D01*
X122179D01*
X106944Y28445D02*
Y18288D01*
Y23366D01*
X104405Y25905D01*
X101866Y28445D01*
X99326D01*
X91709Y30984D02*
X89170Y33523D01*
X84091D01*
X81552Y30984D01*
Y20827D01*
X84091Y18288D01*
X89170D01*
X91709Y20827D01*
Y30984D01*
X76474Y18288D02*
Y20827D01*
X73934D01*
Y18288D01*
X76474D01*
X63778D02*
X58699D01*
X61239D01*
Y33523D01*
X63778Y30984D01*
X320548Y78987D02*
Y66291D01*
X318009Y63752D01*
X312931D01*
X310391Y66291D01*
Y78987D01*
X295156Y76448D02*
X297695Y78987D01*
X302774D01*
X305313Y76448D01*
Y73909D01*
X302774Y71370D01*
X297695D01*
X295156Y68831D01*
Y66291D01*
X297695Y63752D01*
X302774D01*
X305313Y66291D01*
X290078Y78987D02*
Y63752D01*
X282460D01*
X279921Y66291D01*
Y68831D01*
X282460Y71370D01*
X290078D01*
X282460D01*
X279921Y73909D01*
Y76448D01*
X282460Y78987D01*
X290078D01*
X274843Y76448D02*
X272304Y78987D01*
X267225D01*
X264686Y76448D01*
Y73909D01*
X267225Y71370D01*
X269764D01*
X267225D01*
X264686Y68831D01*
Y66291D01*
X267225Y63752D01*
X272304D01*
X274843Y66291D01*
X259608Y63752D02*
Y66291D01*
X257069D01*
Y63752D01*
X259608D01*
X246912Y76448D02*
X244373Y78987D01*
X239294D01*
X236755Y76448D01*
Y66291D01*
X239294Y63752D01*
X244373D01*
X246912Y66291D01*
Y76448D01*
X206285D02*
X208824Y78987D01*
X213902D01*
X216442Y76448D01*
Y66291D01*
X213902Y63752D01*
X208824D01*
X206285Y66291D01*
Y71370D01*
X211363D01*
X193589Y63752D02*
X198667D01*
X201207Y66291D01*
Y71370D01*
X198667Y73909D01*
X193589D01*
X191050Y71370D01*
Y68831D01*
X201207D01*
X185972Y63752D02*
Y73909D01*
X178354D01*
X175815Y71370D01*
Y63752D01*
X160580D02*
X170737D01*
X160580Y73909D01*
Y76448D01*
X163119Y78987D01*
X168197D01*
X170737Y76448D01*
X155501Y63752D02*
X145345Y73909D01*
X140266Y63752D02*
X135188D01*
X137727D01*
Y78987D01*
X140266Y76448D01*
X127570D02*
X125031Y78987D01*
X119953D01*
X117414Y76448D01*
Y66291D01*
X119953Y63752D01*
X125031D01*
X127570Y66291D01*
Y76448D01*
X102179D02*
X104718Y78987D01*
X109796D01*
X112335Y76448D01*
Y66291D01*
X109796Y63752D01*
X104718D01*
X102179Y66291D01*
Y71370D01*
X107257D01*
X97100Y58674D02*
Y73909D01*
X89483D01*
X86944Y71370D01*
Y66291D01*
X89483Y63752D01*
X97100D01*
X81865Y78987D02*
Y63752D01*
X74248D01*
X71708Y66291D01*
Y68831D01*
Y71370D01*
X74248Y73909D01*
X81865D01*
X66630Y63752D02*
X59013D01*
X56473Y66291D01*
X59013Y68831D01*
X64091D01*
X66630Y71370D01*
X64091Y73909D01*
X56473D01*
X321564Y17780D02*
Y27937D01*
X319025D01*
X316486Y25398D01*
Y17780D01*
Y25398D01*
X313946Y27937D01*
X311407Y25398D01*
Y17780D01*
X306329D02*
X301251D01*
X303790D01*
Y27937D01*
X306329D01*
X293633Y17780D02*
X286015D01*
X283476Y20319D01*
X286015Y22858D01*
X291094D01*
X293633Y25398D01*
X291094Y27937D01*
X283476D01*
X275859D02*
X270780D01*
X268241Y25398D01*
Y17780D01*
X275859D01*
X278398Y20319D01*
X275859Y22858D01*
X268241D01*
X263163Y17780D02*
Y33015D01*
Y22858D02*
X255545Y27937D01*
X263163Y22858D02*
X255545Y17780D01*
X245389Y27937D02*
X240310D01*
X237771Y25398D01*
Y17780D01*
X245389D01*
X247928Y20319D01*
X245389Y22858D01*
X237771D01*
X232693Y17780D02*
X227614D01*
X230154D01*
Y33015D01*
X232693Y30476D01*
X219997D02*
X217458Y33015D01*
X212379D01*
X209840Y30476D01*
Y20319D01*
X212379Y17780D01*
X217458D01*
X219997Y20319D01*
Y30476D01*
X204762D02*
X202223Y33015D01*
X197144D01*
X194605Y30476D01*
Y20319D01*
X197144Y17780D01*
X202223D01*
X204762Y20319D01*
Y30476D01*
X189527D02*
X186987Y33015D01*
X181909D01*
X179370Y30476D01*
Y27937D01*
X181909Y25398D01*
X184448D01*
X181909D01*
X179370Y22858D01*
Y20319D01*
X181909Y17780D01*
X186987D01*
X189527Y20319D01*
X174292D02*
X171752Y17780D01*
X166674D01*
X164135Y20319D01*
Y30476D01*
X166674Y33015D01*
X171752D01*
X174292Y30476D01*
Y27937D01*
X171752Y25398D01*
X164135D01*
D15*
X725778Y178006D02*
Y188166D01*
X732636Y175720D02*
Y176990D01*
X725778Y188166D02*
X739494D01*
Y178006D02*
Y188166D01*
X730096Y175720D02*
X735176D01*
X730096Y173688D02*
X735176D01*
X725778Y161242D02*
Y171402D01*
X732636Y172418D02*
Y173688D01*
X725778Y161242D02*
X739494D01*
Y171402D01*
X611950Y413862D02*
Y419862D01*
X608950Y416822D02*
X614990D01*
X611950Y245206D02*
Y251206D01*
X608950Y248166D02*
X614990D01*
X538629Y245206D02*
Y251206D01*
X535629Y248166D02*
X541669D01*
X465307Y245206D02*
Y251206D01*
X462307Y248166D02*
X468347D01*
X391986Y245206D02*
Y251206D01*
X388986Y248166D02*
X395026D01*
X611950Y77058D02*
Y83058D01*
X608950Y80018D02*
X614990D01*
X538629Y77058D02*
Y83058D01*
X535629Y80018D02*
X541669D01*
X391986Y77058D02*
Y83058D01*
X388986Y80018D02*
X395026D01*
X465307Y77058D02*
Y83058D01*
X462307Y80018D02*
X468347D01*
X538629Y413862D02*
Y419862D01*
X535629Y416822D02*
X541669D01*
X465307Y413862D02*
Y419862D01*
X462307Y416822D02*
X468347D01*
X391986Y413862D02*
Y419862D01*
X388986Y416822D02*
X395026D01*
X725794Y446532D02*
X735954D01*
X736970Y439674D02*
X738240D01*
X740272Y437134D02*
Y442214D01*
X742558Y446532D02*
X752718D01*
X740272Y439674D02*
X741542D01*
X725794Y432816D02*
Y446532D01*
Y432816D02*
X735954D01*
X738240Y437134D02*
Y442214D01*
X752718Y432816D02*
Y446532D01*
X742558Y432816D02*
X752718D01*
X770636Y345810D02*
Y355970D01*
X763778Y343524D02*
Y344794D01*
X761238Y341492D02*
X766318D01*
X770636Y329046D02*
Y339206D01*
X763778Y340222D02*
Y341492D01*
X756920Y355970D02*
X770636D01*
X756920Y345810D02*
Y355970D01*
X761238Y343524D02*
X766318D01*
X756920Y329046D02*
X770636D01*
X756920D02*
Y339206D01*
X710184Y345810D02*
Y355970D01*
X717042Y343524D02*
Y344794D01*
X710184Y355970D02*
X723900D01*
Y345810D02*
Y355970D01*
X714502Y343524D02*
X719582D01*
X714502Y341492D02*
X719582D01*
X710184Y329046D02*
Y339206D01*
X717042Y340222D02*
Y341492D01*
X710184Y329046D02*
X723900D01*
Y339206D01*
X739479Y345810D02*
Y355970D01*
X732621Y343524D02*
Y344794D01*
X730081Y341492D02*
X735161D01*
X739479Y329046D02*
Y339206D01*
X732621Y340222D02*
Y341492D01*
X725763Y355970D02*
X739479D01*
X725763Y345810D02*
Y355970D01*
X730081Y343524D02*
X735161D01*
X725763Y329046D02*
X739479D01*
X725763D02*
Y339206D01*
X725794Y417322D02*
X735954D01*
X736970Y424180D02*
X738240D01*
X740272Y421640D02*
Y426720D01*
X742558Y417322D02*
X752718D01*
X740272Y424180D02*
X741542D01*
X725794Y417322D02*
Y431038D01*
X735954D01*
X738240Y421640D02*
Y426720D01*
X752718Y417322D02*
Y431038D01*
X742558D02*
X752718D01*
X714110D02*
X724270D01*
X711824Y424180D02*
X713094D01*
X709792Y421640D02*
Y426720D01*
X697346Y431038D02*
X707506D01*
X708522Y424180D02*
X709792D01*
X724270Y417322D02*
Y431038D01*
X714110Y417322D02*
X724270D01*
X711824Y421640D02*
Y426720D01*
X697346Y417322D02*
Y431038D01*
Y417322D02*
X707506D01*
X654745Y234496D02*
X672245D01*
X654745Y225352D02*
X672245D01*
Y234496D01*
X654745Y225352D02*
Y234496D01*
X756935Y161242D02*
X770651D01*
X756935Y188166D02*
X770651D01*
X756935Y161242D02*
Y171402D01*
X770651Y178006D02*
Y188166D01*
Y161242D02*
Y171402D01*
X756935Y178006D02*
Y188166D01*
X763793Y172418D02*
Y173688D01*
Y175720D02*
Y176990D01*
X761253Y175720D02*
X766333D01*
X761253Y173688D02*
X766333D01*
X752733Y249518D02*
Y263234D01*
X725809Y249518D02*
Y263234D01*
X742573Y249518D02*
X752733D01*
X725809Y263234D02*
X735969D01*
X742573D02*
X752733D01*
X725809Y249518D02*
X735969D01*
X740287Y256376D02*
X741557D01*
X736985D02*
X738255D01*
Y253836D02*
Y258916D01*
X740287Y253836D02*
Y258916D01*
X752733Y265012D02*
Y278728D01*
X725809Y265012D02*
Y278728D01*
X742573Y265012D02*
X752733D01*
X725809Y278728D02*
X735969D01*
X742573D02*
X752733D01*
X725809Y265012D02*
X735969D01*
X740287Y271870D02*
X741557D01*
X736985D02*
X738255D01*
Y269330D02*
Y274410D01*
X740287Y269330D02*
Y274410D01*
X654745Y267044D02*
X672245D01*
X654745Y257900D02*
X672245D01*
Y267044D01*
X654745Y257900D02*
Y267044D01*
X697361Y265012D02*
Y278728D01*
X724285Y265012D02*
Y278728D01*
X697361D02*
X707521D01*
X714125Y265012D02*
X724285D01*
X697361D02*
X707521D01*
X714125Y278728D02*
X724285D01*
X708537Y271870D02*
X709807D01*
X711839D02*
X713109D01*
X711839Y269330D02*
Y274410D01*
X709807Y269330D02*
Y274410D01*
X654745Y223646D02*
X672245D01*
X654745Y214502D02*
X672245D01*
Y223646D01*
X654745Y214502D02*
Y223646D01*
X697361Y249518D02*
Y263234D01*
X724285Y249518D02*
Y263234D01*
X697361D02*
X707521D01*
X714125Y249518D02*
X724285D01*
X697361D02*
X707521D01*
X714125Y263234D02*
X724285D01*
X708537Y256376D02*
X709807D01*
X711839D02*
X713109D01*
X711839Y253836D02*
Y258916D01*
X709807Y253836D02*
Y258916D01*
X654745Y236201D02*
X672245D01*
X654745Y245345D02*
X672245D01*
X654745Y236201D02*
Y245345D01*
X672245Y236201D02*
Y245345D01*
X643905Y216244D02*
Y222200D01*
X653049Y204701D02*
Y210656D01*
Y216244D02*
Y222200D01*
X643905Y204700D02*
Y210656D01*
Y204700D02*
X653049D01*
X643905Y222200D02*
X653049D01*
X764794Y544494D02*
X773938D01*
X764794Y561994D02*
X773938D01*
Y544494D02*
Y561994D01*
X764794Y544494D02*
Y561994D01*
X511048Y659638D02*
X524764D01*
X511048Y632714D02*
X524764D01*
Y649478D02*
Y659638D01*
X511048Y632714D02*
Y642874D01*
Y649478D02*
Y659638D01*
X524764Y632714D02*
Y642874D01*
X517906Y647192D02*
Y648462D01*
Y643890D02*
Y645160D01*
X515366D02*
X520446D01*
X515366Y647192D02*
X520446D01*
X494030Y519430D02*
X507746D01*
X494030Y546354D02*
X507746D01*
X494030Y519430D02*
Y529590D01*
X507746Y536194D02*
Y546354D01*
Y519430D02*
Y529590D01*
X494030Y536194D02*
Y546354D01*
X500888Y530606D02*
Y531876D01*
Y533908D02*
Y535178D01*
X498348Y533908D02*
X503428D01*
X498348Y531876D02*
X503428D01*
X494538Y659638D02*
X508254D01*
X494538Y632714D02*
X508254D01*
Y649478D02*
Y659638D01*
X494538Y632714D02*
Y642874D01*
Y649478D02*
Y659638D01*
X508254Y632714D02*
Y642874D01*
X501396Y647192D02*
Y648462D01*
Y643890D02*
Y645160D01*
X498856D02*
X503936D01*
X498856Y647192D02*
X503936D01*
X588518Y543102D02*
Y560602D01*
Y543102D02*
X597662D01*
X588518Y560602D02*
X597662D01*
Y543102D02*
Y560602D01*
X597408Y618852D02*
Y636352D01*
X588264D02*
X597408D01*
X588264Y618852D02*
X597408D01*
X588264D02*
Y636352D01*
X597916Y519606D02*
Y537106D01*
X588772D02*
X597916D01*
X588772Y519606D02*
X597916D01*
X588772D02*
Y537106D01*
X576834Y519670D02*
Y537170D01*
Y519670D02*
X585978D01*
X576834Y537170D02*
X585978D01*
Y519670D02*
Y537170D01*
X585724Y542974D02*
Y560474D01*
X576580D02*
X585724D01*
X576580Y542974D02*
X585724D01*
X576580D02*
Y560474D01*
X525134Y575056D02*
X535294D01*
X522848Y581914D02*
X524118D01*
X520816Y579374D02*
Y584454D01*
X508370Y575056D02*
X518530D01*
X519546Y581914D02*
X520816D01*
X535294Y575056D02*
Y588772D01*
X525134D02*
X535294D01*
X522848Y579374D02*
Y584454D01*
X508370Y575056D02*
Y588772D01*
X518530D01*
X525134Y591058D02*
X535294D01*
X522848Y597916D02*
X524118D01*
X520816Y595376D02*
Y600456D01*
X508370Y591058D02*
X518530D01*
X519546Y597916D02*
X520816D01*
X535294Y591058D02*
Y604774D01*
X525134D02*
X535294D01*
X522848Y595376D02*
Y600456D01*
X508370Y591058D02*
Y604774D01*
X518530D01*
X234048Y640334D02*
Y649478D01*
X228092Y640334D02*
X234048D01*
X228092Y649478D02*
X234048D01*
X216548D02*
X222504D01*
X216548Y640334D02*
X222504D01*
X216548D02*
Y649478D01*
X234048Y651002D02*
Y660146D01*
X228092Y651002D02*
X234048D01*
X228092Y660146D02*
X234048D01*
X216548D02*
X222504D01*
X216548Y651002D02*
X222504D01*
X216548D02*
Y660146D01*
X233794Y627126D02*
Y636270D01*
X227838Y627126D02*
X233794D01*
X227838Y636270D02*
X233794D01*
X216294D02*
X222250D01*
X216294Y627126D02*
X222250D01*
X216294D02*
Y636270D01*
X233794Y616458D02*
Y625602D01*
X227838Y616458D02*
X233794D01*
X227838Y625602D02*
X233794D01*
X216294D02*
X222250D01*
X216294Y616458D02*
X222250D01*
X216294D02*
Y625602D01*
X378897Y671621D02*
X385363Y665155D01*
X366523Y659246D02*
X378897Y671621D01*
X372988Y652781D02*
X385363Y665155D01*
X366523Y659246D02*
X372988Y652781D01*
X350734Y509016D02*
Y518160D01*
X333234D02*
X350734D01*
X333234Y509016D02*
Y518160D01*
Y509016D02*
X350734D01*
X387358Y529951D02*
X391570Y525740D01*
X385104Y519274D02*
X391570Y525740D01*
X379196Y538114D02*
X383407Y533903D01*
X372730Y531649D02*
X379195Y538114D01*
X380893Y523486D02*
X385104Y519274D01*
X372730Y531648D02*
X376941Y527437D01*
X432054Y643890D02*
Y649846D01*
Y632346D02*
Y638302D01*
X422910Y649846D02*
X432054D01*
X422910Y643890D02*
Y649846D01*
Y632346D02*
X432054D01*
X422910Y632346D02*
Y638302D01*
X432054Y664464D02*
Y670420D01*
Y652920D02*
Y658876D01*
X422910Y670420D02*
X432054D01*
X422910Y664464D02*
Y670420D01*
Y652920D02*
X432054D01*
X422910D02*
Y658876D01*
X405014Y646429D02*
X411479Y639964D01*
X392639Y634055D02*
X405014Y646429D01*
X399105Y627589D02*
X411479Y639964D01*
X392639Y634055D02*
X399105Y627589D01*
X415522Y611218D02*
X421988Y604752D01*
X427896Y623592D02*
X434362Y617126D01*
X430150Y612915D02*
X434362Y617126D01*
X415522Y611218D02*
X419734Y615429D01*
X423685Y619380D02*
X427896Y623592D01*
X421988Y604752D02*
X426199Y608964D01*
X384788Y641698D02*
X391254Y635232D01*
X397162Y654072D02*
X403628Y647606D01*
X399417Y643395D02*
X403628Y647606D01*
X384788Y641698D02*
X388999Y645909D01*
X392951Y649861D02*
X397162Y654072D01*
X391254Y635232D02*
X395465Y639444D01*
X287555Y574944D02*
X294020Y568479D01*
X275180Y562570D02*
X281646Y556104D01*
X275180Y562570D02*
X279392Y566781D01*
X289809Y564267D02*
X294020Y568478D01*
X281646Y556104D02*
X285857Y560316D01*
X283343Y570733D02*
X287554Y574944D01*
X390630Y550070D02*
X397096Y556536D01*
X403004Y537696D02*
X409470Y544162D01*
X398793Y541908D02*
X403004Y537696D01*
X397096Y556536D02*
X401307Y552324D01*
X405258Y548373D02*
X409470Y544162D01*
X390630Y550070D02*
X394841Y545859D01*
X410602Y545339D02*
X417067Y551804D01*
X398227Y557713D02*
X404693Y564179D01*
X417067Y551804D01*
X398227Y557713D02*
X410602Y545339D01*
X321083Y541162D02*
X327548Y534697D01*
X308708Y528788D02*
X315174Y522322D01*
X308708Y528788D02*
X312920Y532999D01*
X323337Y530485D02*
X327548Y534696D01*
X315174Y522322D02*
X319385Y526534D01*
X316871Y536951D02*
X321082Y541162D01*
X407902Y618838D02*
X414368Y612372D01*
X420276Y631212D02*
X426742Y624746D01*
X422531Y620535D02*
X426742Y624746D01*
X407902Y618838D02*
X412113Y623049D01*
X416065Y627001D02*
X420276Y631212D01*
X414368Y612372D02*
X418579Y616584D01*
X400282Y626458D02*
X406748Y619992D01*
X412656Y638832D02*
X419122Y632366D01*
X414911Y628155D02*
X419122Y632366D01*
X400282Y626458D02*
X404493Y630669D01*
X408445Y634621D02*
X412656Y638832D01*
X406748Y619992D02*
X410959Y624203D01*
X327179Y650352D02*
X333644Y656817D01*
X314804Y662726D02*
X321270Y669192D01*
X325481Y664980D01*
X322967Y654563D02*
X327178Y650352D01*
X314804Y662726D02*
X319016Y658515D01*
X329433Y661029D02*
X333644Y656818D01*
X318289Y641462D02*
X324754Y647927D01*
X305914Y653836D02*
X312380Y660302D01*
X316591Y656090D01*
X314077Y645673D02*
X318288Y641462D01*
X305914Y653836D02*
X310126Y649625D01*
X320543Y652139D02*
X324754Y647928D01*
X310415Y633588D02*
X316880Y640053D01*
X298040Y645962D02*
X304506Y652428D01*
X308717Y648216D01*
X306203Y637799D02*
X310414Y633588D01*
X298040Y645962D02*
X302252Y641751D01*
X312669Y644265D02*
X316880Y640054D01*
X312701Y549798D02*
X319166Y543333D01*
X300326Y537424D02*
X306792Y530958D01*
X300326Y537424D02*
X304538Y541635D01*
X314955Y539121D02*
X319166Y543332D01*
X306792Y530958D02*
X311003Y535170D01*
X308489Y545587D02*
X312700Y549798D01*
X304827Y557672D02*
X311292Y551207D01*
X292452Y545298D02*
X298918Y538832D01*
X292452Y545298D02*
X296664Y549509D01*
X307081Y546995D02*
X311292Y551206D01*
X298918Y538832D02*
X303129Y543044D01*
X300615Y553461D02*
X304826Y557672D01*
X295683Y566816D02*
X302148Y560351D01*
X283308Y554442D02*
X289774Y547976D01*
X283308Y554442D02*
X287520Y558653D01*
X297937Y556139D02*
X302148Y560350D01*
X289774Y547976D02*
X293985Y552188D01*
X291471Y562605D02*
X295682Y566816D01*
X301779Y624952D02*
X308244Y631417D01*
X289404Y637326D02*
X295870Y643792D01*
X300081Y639580D01*
X297567Y629163D02*
X301778Y624952D01*
X289404Y637326D02*
X293616Y633115D01*
X304033Y635629D02*
X308244Y631418D01*
X370346Y509016D02*
Y518160D01*
X352846Y509016D02*
Y518160D01*
X370346D01*
X352846Y509016D02*
X370346D01*
X386472Y663955D02*
X392937Y657490D01*
X374097Y651581D02*
X380563Y645115D01*
X374097Y651581D02*
X386472Y663955D01*
X380563Y645115D02*
X392937Y657490D01*
X332980Y663194D02*
Y672338D01*
X350480Y663194D02*
Y672338D01*
X332980Y663194D02*
X350480D01*
X332980Y672338D02*
X350480D01*
X303826Y518668D02*
Y527812D01*
X286326Y518668D02*
Y527812D01*
X292282D01*
X297870Y518668D02*
X303826D01*
X286327D02*
X292282D01*
X297870Y527812D02*
X303826D01*
X672230Y404005D02*
Y413149D01*
X654730Y404005D02*
Y413149D01*
X672230D01*
X654730Y404005D02*
X672230D01*
X654730Y382306D02*
Y391450D01*
X672230Y382306D02*
Y391450D01*
X654730Y382306D02*
X672230D01*
X654730Y391450D02*
X672230D01*
X654745Y192804D02*
Y201948D01*
X672245Y192804D02*
Y201948D01*
X654745Y192804D02*
X672245D01*
X654745Y201948D02*
X672245D01*
X654730Y360607D02*
Y369751D01*
X672230Y360607D02*
Y369751D01*
X654730Y360607D02*
X672230D01*
X654730Y369751D02*
X672230D01*
X588264Y642284D02*
X597408D01*
X588264Y659784D02*
X597408D01*
Y642284D02*
Y659784D01*
X588264Y642284D02*
Y659784D01*
X714517Y173688D02*
X719597D01*
X714517Y175720D02*
X719597D01*
X717057D02*
Y176990D01*
Y172418D02*
Y173688D01*
X710199Y178006D02*
Y188166D01*
X723915Y161242D02*
Y171402D01*
Y178006D02*
Y188166D01*
X710199Y161242D02*
Y171402D01*
Y188166D02*
X723915D01*
X710199Y161242D02*
X723915D01*
X745675Y173688D02*
X750755D01*
X745675Y175720D02*
X750755D01*
X748215D02*
Y176990D01*
Y172418D02*
Y173688D01*
X741357Y178006D02*
Y188166D01*
X755073Y161242D02*
Y171402D01*
Y178006D02*
Y188166D01*
X741357Y161242D02*
Y171402D01*
Y188166D02*
X755073D01*
X741357Y161242D02*
X755073D01*
X654730Y425704D02*
Y434848D01*
X672230Y425704D02*
Y434848D01*
X654730Y425704D02*
X672230D01*
X654730Y434848D02*
X672230D01*
X643890Y390004D02*
X653034D01*
X643890Y372504D02*
X653034D01*
X643890D02*
Y378460D01*
X653034Y384048D02*
Y390004D01*
Y372504D02*
Y378460D01*
X643890Y384048D02*
Y390004D01*
X745659Y341492D02*
X750739D01*
X745659Y343524D02*
X750739D01*
X748199D02*
Y344794D01*
Y340222D02*
Y341492D01*
X741341Y345810D02*
Y355970D01*
X755057Y329046D02*
Y339206D01*
Y345810D02*
Y355970D01*
X741341Y329046D02*
Y339206D01*
Y355970D02*
X755057D01*
X741341Y329046D02*
X755057D01*
X515112Y531876D02*
X520192D01*
X515112Y533908D02*
X520192D01*
X517652D02*
Y535178D01*
Y530606D02*
Y531876D01*
X510794Y536194D02*
Y546354D01*
X524510Y519430D02*
Y529590D01*
Y536194D02*
Y546354D01*
X510794Y519430D02*
Y529590D01*
Y546354D02*
X524510D01*
X510794Y519430D02*
X524510D01*
X709792Y437134D02*
Y442214D01*
X711824Y437134D02*
Y442214D01*
Y439674D02*
X713094D01*
X708522D02*
X709792D01*
X714110Y446532D02*
X724270D01*
X697346Y432816D02*
X707506D01*
X714110D02*
X724270D01*
X697346Y446532D02*
X707506D01*
X724270Y432816D02*
Y446532D01*
X697346Y432816D02*
Y446532D01*
X654745Y181954D02*
Y191098D01*
X672245Y181954D02*
Y191098D01*
X654745Y181954D02*
X672245D01*
X654745Y191098D02*
X672245D01*
X576580Y618848D02*
X585724D01*
X576580Y636348D02*
X585724D01*
Y618848D02*
Y636348D01*
X576580Y618848D02*
Y636348D01*
X576834Y659720D02*
X585978D01*
X576834Y642220D02*
X585978D01*
X576834D02*
Y659720D01*
X585978Y642220D02*
Y659720D01*
X654730Y393156D02*
Y402300D01*
X672230Y393156D02*
Y402300D01*
X654730Y393156D02*
X672230D01*
X654730Y402300D02*
X672230D01*
X654730Y349758D02*
Y358902D01*
X672230Y349758D02*
Y358902D01*
X654730Y349758D02*
X672230D01*
X654730Y358902D02*
X672230D01*
X672245Y203653D02*
Y212797D01*
X654745Y203653D02*
Y212797D01*
X660701D01*
X666289Y203653D02*
X672245D01*
X654746D02*
X660701D01*
X666289Y212797D02*
X672245D01*
X672230Y414854D02*
Y423998D01*
X654730Y414854D02*
Y423998D01*
X660686D01*
X666274Y414854D02*
X672230D01*
X654730D02*
X660686D01*
X666274Y423998D02*
X672230D01*
X672245Y247051D02*
Y256195D01*
X654745Y247051D02*
Y256195D01*
X660701D01*
X666289Y247051D02*
X672245D01*
X654746D02*
X660701D01*
X666289Y256195D02*
X672245D01*
X672230Y371457D02*
Y380601D01*
X654730Y371457D02*
Y380601D01*
X660686D01*
X666274Y371457D02*
X672230D01*
X654730D02*
X660686D01*
X666274Y380601D02*
X672230D01*
X352660Y663194D02*
X370160D01*
X352660Y672338D02*
X370160D01*
X352660Y663194D02*
Y672338D01*
X370160Y663194D02*
Y672338D01*
X318263Y518530D02*
X330637Y530905D01*
X324728Y512065D02*
X337103Y524439D01*
X330637Y530905D02*
X337103Y524439D01*
X318263Y518530D02*
X324728Y512065D01*
X382944Y542516D02*
X395319Y530141D01*
X389410Y548982D02*
X401785Y536607D01*
X382944Y542516D02*
X389410Y548982D01*
X395319Y530141D02*
X401785Y536607D01*
X405651Y537846D02*
X409862Y542058D01*
X403954Y523218D02*
X408165Y527430D01*
X412117Y531381D02*
X416328Y535592D01*
X397488Y529684D02*
X401699Y533895D01*
X397488Y529684D02*
X403954Y523218D01*
X409862Y542058D02*
X416328Y535592D01*
X276511Y624289D02*
X288886Y611914D01*
X270045Y617823D02*
X282420Y605448D01*
X288886Y611914D01*
X270045Y617823D02*
X276511Y624289D01*
X405804Y565376D02*
X418179Y553001D01*
X412270Y571842D02*
X424645Y559467D01*
X405804Y565376D02*
X412270Y571842D01*
X418179Y553001D02*
X424645Y559467D01*
X394824Y663194D02*
X412324D01*
X394824Y672338D02*
X412324D01*
X394824Y663194D02*
Y672338D01*
X412324Y663194D02*
Y672338D01*
X268042Y541782D02*
X273997D01*
X256498Y532638D02*
X262454D01*
X268042D02*
X273997D01*
X256498Y541782D02*
X262454D01*
X256498Y532638D02*
Y541782D01*
X273998Y532638D02*
Y541782D01*
X297942Y516890D02*
X303898D01*
X286399Y507746D02*
X292354D01*
X297942D02*
X303898D01*
X286399Y516890D02*
X292354D01*
X286399Y507746D02*
Y516890D01*
X303899Y507746D02*
Y516890D01*
X267970Y552704D02*
X273926D01*
X256426Y543560D02*
X262382D01*
X267970D02*
X273926D01*
X256426Y552704D02*
X262382D01*
X256426Y543560D02*
Y552704D01*
X273926Y543560D02*
Y552704D01*
X413490Y572930D02*
X417701Y568719D01*
X428119Y571233D02*
X432330Y567022D01*
X419956Y579396D02*
X424167Y575185D01*
X421653Y564767D02*
X425864Y560556D01*
X432330Y567022D01*
X413490Y572930D02*
X419956Y579396D01*
X295651Y627247D02*
X299862Y623036D01*
X281022Y628944D02*
X285234Y624733D01*
X289185Y620781D02*
X293396Y616570D01*
X287488Y635410D02*
X291699Y631198D01*
X281022Y628944D02*
X287488Y635410D01*
X293397Y616570D02*
X299862Y623035D01*
D16*
X755410Y215975D02*
G03*
X760490Y215975I2540J0D01*
G01*
X740170D02*
G03*
X745250Y215975I2540J0D01*
G01*
X750330D02*
G03*
X755410Y215975I2540J0D01*
G01*
X745250D02*
G03*
X750330Y215975I2540J0D01*
G01*
X549643Y644143D02*
G03*
X549643Y649223I0J2540D01*
G01*
Y628903D02*
G03*
X549643Y633983I0J2540D01*
G01*
Y639063D02*
G03*
X549643Y644143I0J2540D01*
G01*
Y633983D02*
G03*
X549643Y639063I0J2540D01*
G01*
X745235Y383779D02*
G03*
X750315Y383779I2540J0D01*
G01*
D02*
G03*
X755395Y383779I2540J0D01*
G01*
X740155D02*
G03*
X745235Y383779I2540J0D01*
G01*
X755395D02*
G03*
X760475Y383779I2540J0D01*
G01*
X549643Y534923D02*
G03*
X549643Y540003I0J2540D01*
G01*
D02*
G03*
X549643Y545083I0J2540D01*
G01*
Y529843D02*
G03*
X549643Y534923I0J2540D01*
G01*
Y545083D02*
G03*
X549643Y550163I0J2540D01*
G01*
X770651Y210896D02*
Y218516D01*
X730011Y210896D02*
Y218516D01*
X732551Y215975D02*
X740170D01*
X760490D02*
X768111D01*
X730011Y191846D02*
Y205816D01*
Y191846D02*
X770651D01*
Y205816D01*
Y223596D02*
Y237566D01*
X730011D02*
X770651D01*
X730011Y223596D02*
Y237566D01*
X657614Y502748D02*
X662104Y498258D01*
X648634Y493768D02*
X657614Y502748D01*
X648634Y493768D02*
X653124Y489277D01*
X662104Y498258D01*
X676473Y519810D02*
X684555Y511728D01*
X690841Y518014D01*
X694448Y514408D01*
X673793Y493753D02*
X694448Y514408D01*
X673779Y493768D02*
X673793Y493753D01*
X651569Y471529D02*
X657629Y477589D01*
X657614Y477603D02*
X657629Y477589D01*
X637349Y523014D02*
X641839Y518523D01*
X632859Y509543D02*
X641839Y518523D01*
X628368Y514033D02*
X632859Y509543D01*
X628368Y514033D02*
X637349Y523014D01*
X648804Y547479D02*
X656886Y539397D01*
X648804Y547479D02*
X655090Y553766D01*
X651484Y557372D02*
X655090Y553766D01*
X630829Y536717D02*
X651484Y557372D01*
X630829Y536717D02*
X630843Y536703D01*
X614664Y520553D02*
X614679Y520539D01*
X608605Y514493D02*
X651569Y471529D01*
X608605Y514493D02*
X614664Y520553D01*
X547102Y659384D02*
X554722D01*
X547102Y618744D02*
X554722D01*
X549643Y621284D02*
Y628903D01*
Y649223D02*
Y656844D01*
X559802Y618744D02*
X573772D01*
Y659384D01*
X559802D02*
X573772D01*
X528052D02*
X542022D01*
X528052Y618744D02*
Y659384D01*
Y618744D02*
X542022D01*
X729996Y391400D02*
Y405370D01*
X770636D01*
Y391400D02*
Y405370D01*
Y359650D02*
Y373620D01*
X729996Y359650D02*
X770636D01*
X729996D02*
Y373620D01*
X760475Y383779D02*
X768096D01*
X732536D02*
X740155D01*
X729996Y378700D02*
Y386320D01*
X770636Y378700D02*
Y386320D01*
X528052Y519684D02*
X542022D01*
X528052D02*
Y560324D01*
X542022D01*
X559802D02*
X573772D01*
Y519684D02*
Y560324D01*
X559802Y519684D02*
X573772D01*
X549643Y550163D02*
Y557784D01*
Y522224D02*
Y529843D01*
X547102Y519684D02*
X554722D01*
X547102Y560324D02*
X554722D01*
D17*
X433936Y632326D02*
Y670426D01*
Y632326D02*
X466956D01*
Y670426D01*
X433936D02*
X466956D01*
D119*
X341194Y531619D02*
G03*
X341212Y531601I-1052J-1070D01*
G01*
M02*
