G04*
G04 #@! TF.GenerationSoftware,Altium Limited,Altium Designer,24.0.1 (36)*
G04*
G04 Layer_Color=16711935*
%FSLAX44Y44*%
%MOMM*%
G71*
G04*
G04 #@! TF.SameCoordinates,2863EE23-0FE7-43ED-B731-855E9A245776*
G04*
G04*
G04 #@! TF.FilePolarity,Positive*
G04*
G01*
G75*
%ADD120C,0.0051*%
%ADD121C,0.0127*%
G36*
X34520Y628396D02*
X34520Y627838D01*
X34935Y626800D01*
X35706Y625990D01*
X36722Y625524D01*
X37280Y625496D01*
D01*
X41402Y625497D01*
X41976Y625501D01*
X43035Y625946D01*
X43844Y626761D01*
X44281Y627823D01*
Y628397D01*
Y628971D01*
X43844Y630033D01*
X43035Y630848D01*
X41976Y631293D01*
X41402Y631297D01*
D01*
X37262Y631296D01*
X36706Y631265D01*
X35697Y630796D01*
X34932Y629987D01*
X34520Y628953D01*
Y628396D01*
X34520Y628396D01*
X34520D01*
D02*
G37*
G36*
X111163Y628397D02*
Y627741D01*
X111665Y626528D01*
X112593Y625600D01*
X113806Y625097D01*
X115119D01*
X116332Y625600D01*
X117260Y626528D01*
X117762Y627741D01*
Y628397D01*
Y629054D01*
X117260Y630266D01*
X116332Y631195D01*
X115119Y631697D01*
X113806D01*
X112593Y631195D01*
X111665Y630266D01*
X111163Y629054D01*
Y628397D01*
D01*
D01*
D02*
G37*
D120*
X117762D02*
G03*
X117762Y628397I-3300J0D01*
G01*
X37262Y631296D02*
G03*
X34520Y628396I162J-2900D01*
G01*
X44281Y628397D02*
G03*
X41402Y631297I-2900J0D01*
G01*
Y625497D02*
G03*
X44281Y628397I-21J2900D01*
G01*
X34520Y628396D02*
G03*
X37280Y625496I2904J0D01*
G01*
X37262Y631296D02*
X41402Y631297D01*
X37280Y625496D02*
X41402Y625497D01*
D121*
X79Y623190D02*
X50079Y673190D01*
X63Y50064D02*
X79Y623190D01*
X50079Y673190D02*
X726088D01*
X776088Y623190D01*
X63Y50064D02*
X50064Y63D01*
X726072D01*
X776072Y50064D01*
X776088Y623190D01*
M02*
