G04*
G04 #@! TF.GenerationSoftware,Altium Limited,Altium Designer,24.0.1 (36)*
G04*
G04 Layer_Color=32896*
%FSLAX44Y44*%
%MOMM*%
G71*
G04*
G04 #@! TF.SameCoordinates,86479D1D-582F-4F93-B16F-34CC7BD45DDA*
G04*
G04*
G04 #@! TF.FilePolarity,Positive*
G04*
G01*
G75*
%ADD10C,0.2500*%
%ADD11C,0.1500*%
%ADD12C,0.2000*%
%ADD13C,0.2540*%
%ADD14C,0.1524*%
%ADD15C,0.2032*%
%ADD16C,0.1500*%
%ADD121C,0.3000*%
%ADD122C,0.5080*%
G36*
X65922Y203296D02*
X69829D01*
Y202995D01*
X73134D01*
Y202695D01*
X76440D01*
Y202394D01*
X79446D01*
Y202094D01*
X82451D01*
Y201793D01*
X85456D01*
Y201493D01*
X88462D01*
Y201192D01*
X91166D01*
Y200892D01*
X93871D01*
Y200591D01*
X96576D01*
Y200291D01*
X99281D01*
Y199990D01*
X101685D01*
Y199689D01*
X104089D01*
Y199389D01*
X105892D01*
Y199088D01*
X107996D01*
Y198788D01*
X109799D01*
Y198487D01*
X111302D01*
Y198187D01*
X112504D01*
Y197886D01*
X113706D01*
Y197586D01*
X114608D01*
Y197285D01*
X115509D01*
Y196985D01*
X116411D01*
Y196684D01*
X117012D01*
Y196384D01*
X117914D01*
Y196083D01*
X118815D01*
Y195783D01*
X119416D01*
Y195482D01*
X120318D01*
Y195182D01*
X120919D01*
Y194881D01*
X121520D01*
Y194580D01*
X122121D01*
Y194280D01*
X122722D01*
Y193979D01*
X123323D01*
Y193679D01*
X123924D01*
Y193378D01*
X124525D01*
Y193078D01*
X125126D01*
Y192777D01*
X125727D01*
Y192477D01*
X126028D01*
Y192176D01*
X126629D01*
Y191876D01*
X126929D01*
Y191575D01*
X127530D01*
Y191275D01*
X128132D01*
Y190974D01*
X128432D01*
Y190674D01*
X129033D01*
Y190373D01*
X129334D01*
Y190072D01*
X129935D01*
Y189772D01*
X130235D01*
Y189471D01*
X130836D01*
Y189171D01*
X131137D01*
Y188870D01*
X131437D01*
Y188570D01*
X132038D01*
Y188269D01*
X132339D01*
Y187969D01*
X132640D01*
Y187668D01*
X132940D01*
Y187368D01*
X133541D01*
Y187067D01*
X133842D01*
Y186767D01*
X134142D01*
Y186466D01*
X134443D01*
Y186166D01*
X134743D01*
Y185865D01*
X135344D01*
Y185564D01*
X135645D01*
Y185264D01*
X135945D01*
Y184963D01*
X136246D01*
Y184663D01*
X136546D01*
Y184362D01*
X136847D01*
Y184062D01*
X137147D01*
Y183761D01*
X137448D01*
Y183461D01*
X137748D01*
Y183160D01*
X138049D01*
Y182860D01*
X138350D01*
Y182559D01*
X138650D01*
Y182259D01*
X138951D01*
Y181958D01*
X139251D01*
Y181658D01*
X139552D01*
Y181357D01*
X139852D01*
Y181057D01*
X140153D01*
Y180756D01*
X140453D01*
Y180455D01*
X140754D01*
Y180155D01*
Y179855D01*
X141054D01*
Y179554D01*
X141355D01*
Y179253D01*
X141655D01*
Y178953D01*
X141956D01*
Y178652D01*
X142256D01*
Y178352D01*
Y178051D01*
X142557D01*
Y177751D01*
X142858D01*
Y177450D01*
X143158D01*
Y177150D01*
Y176849D01*
X143459D01*
Y176549D01*
X143759D01*
Y176248D01*
X144060D01*
Y175948D01*
Y175647D01*
X144360D01*
Y175347D01*
X144661D01*
Y175046D01*
Y174745D01*
X144961D01*
Y174445D01*
Y174144D01*
X145262D01*
Y173844D01*
X145562D01*
Y173543D01*
Y173243D01*
X145863D01*
Y172942D01*
X146163D01*
Y172642D01*
Y172341D01*
X146464D01*
Y172041D01*
X146764D01*
Y171740D01*
Y171440D01*
X147065D01*
Y171139D01*
Y170839D01*
X147365D01*
Y170538D01*
Y170238D01*
X147666D01*
Y169937D01*
X147966D01*
Y169636D01*
Y169336D01*
X148267D01*
Y169035D01*
Y168735D01*
X148568D01*
Y168434D01*
Y168134D01*
X148868D01*
Y167833D01*
Y167533D01*
X149169D01*
Y167232D01*
Y166932D01*
X149469D01*
Y166631D01*
Y166331D01*
Y166030D01*
X149770D01*
Y165730D01*
Y165429D01*
X150070D01*
Y165128D01*
Y164828D01*
Y164527D01*
X150371D01*
Y164227D01*
Y163926D01*
X150671D01*
Y163626D01*
Y163325D01*
Y163025D01*
X150972D01*
Y162724D01*
Y162424D01*
X151272D01*
Y162123D01*
Y161823D01*
Y161522D01*
X151573D01*
Y161222D01*
Y160921D01*
Y160620D01*
X151873D01*
Y160320D01*
Y160019D01*
Y159719D01*
X152174D01*
Y159418D01*
Y159118D01*
Y158817D01*
X152474D01*
Y158517D01*
Y158216D01*
Y157916D01*
Y157615D01*
X152775D01*
Y157315D01*
Y157014D01*
Y156714D01*
Y156413D01*
X153076D01*
Y156113D01*
Y155812D01*
Y155512D01*
Y155211D01*
Y154910D01*
X153376D01*
Y154610D01*
Y154309D01*
Y154009D01*
Y153708D01*
X153677D01*
Y153408D01*
Y153107D01*
Y152807D01*
Y152506D01*
Y152206D01*
Y151905D01*
X153977D01*
Y151605D01*
Y151304D01*
Y151004D01*
Y150703D01*
Y150402D01*
Y150102D01*
Y149801D01*
Y149501D01*
X154278D01*
Y149200D01*
Y148900D01*
Y148599D01*
Y148299D01*
Y147998D01*
Y147698D01*
Y147397D01*
Y147097D01*
Y146796D01*
Y146496D01*
Y146195D01*
Y145894D01*
Y145594D01*
Y145294D01*
Y144993D01*
X154578D01*
Y144692D01*
Y144392D01*
Y144091D01*
Y143791D01*
Y143490D01*
Y143190D01*
Y142889D01*
Y142589D01*
Y142288D01*
Y141988D01*
Y141687D01*
X154278D01*
Y141387D01*
Y141086D01*
Y140786D01*
Y140485D01*
Y140184D01*
Y139884D01*
Y139583D01*
Y139283D01*
Y138982D01*
Y138682D01*
Y138381D01*
Y138081D01*
Y137780D01*
Y137480D01*
Y137179D01*
X153977D01*
Y136879D01*
Y136578D01*
Y136278D01*
Y135977D01*
Y135676D01*
Y135376D01*
Y135075D01*
X153677D01*
Y134775D01*
Y134474D01*
Y134174D01*
Y133873D01*
Y133573D01*
Y133272D01*
X153376D01*
Y132972D01*
Y132671D01*
Y132371D01*
Y132070D01*
Y131770D01*
Y131469D01*
X153076D01*
Y131168D01*
Y130868D01*
Y130568D01*
Y130267D01*
X152775D01*
Y129966D01*
Y129666D01*
Y129365D01*
Y129065D01*
X152474D01*
Y128764D01*
Y128464D01*
Y128163D01*
X152174D01*
Y127863D01*
Y127562D01*
Y127262D01*
Y126961D01*
X151873D01*
Y126661D01*
Y126360D01*
Y126060D01*
X151573D01*
Y125759D01*
Y125458D01*
Y125158D01*
X151272D01*
Y124857D01*
Y124557D01*
Y124256D01*
X150972D01*
Y123956D01*
Y123655D01*
Y123355D01*
X150671D01*
Y123054D01*
Y122754D01*
X150371D01*
Y122453D01*
Y122153D01*
Y121852D01*
X150070D01*
Y121552D01*
Y121251D01*
X149770D01*
Y120950D01*
Y120650D01*
Y120350D01*
X149469D01*
Y120049D01*
X149169D01*
Y119748D01*
Y119448D01*
Y119147D01*
X148868D01*
Y118847D01*
Y118546D01*
X148568D01*
Y118246D01*
Y117945D01*
X148267D01*
Y117645D01*
Y117344D01*
Y117044D01*
X147966D01*
Y117344D01*
X147666D01*
Y117044D01*
X147966D01*
Y116743D01*
X147666D01*
Y116443D01*
X147365D01*
Y116142D01*
Y115842D01*
Y115541D01*
X147065D01*
Y115240D01*
X146764D01*
Y114940D01*
Y114639D01*
Y114339D01*
X146464D01*
Y114038D01*
X146163D01*
Y113738D01*
Y113437D01*
X145863D01*
Y113137D01*
X145562D01*
Y113437D01*
X145262D01*
Y113137D01*
X145562D01*
Y112836D01*
Y112536D01*
X145262D01*
Y112235D01*
X144961D01*
Y111935D01*
Y111634D01*
X144661D01*
Y111334D01*
X144360D01*
Y111033D01*
Y110732D01*
X144060D01*
Y110432D01*
X143759D01*
Y110732D01*
X143459D01*
Y110432D01*
X143759D01*
Y110131D01*
Y109831D01*
X143459D01*
Y109530D01*
X143158D01*
Y109230D01*
Y108929D01*
X142858D01*
Y108629D01*
X142557D01*
Y108328D01*
X142256D01*
Y108028D01*
X141956D01*
Y107727D01*
Y107427D01*
X141655D01*
Y107126D01*
X141355D01*
Y106826D01*
Y106525D01*
X141054D01*
Y106224D01*
X140754D01*
Y105924D01*
X140453D01*
Y106224D01*
X140153D01*
Y106525D01*
Y106826D01*
X140453D01*
Y106525D01*
X140754D01*
Y106826D01*
X140453D01*
Y107126D01*
Y107427D01*
X139852D01*
Y107126D01*
Y106826D01*
Y106525D01*
Y106224D01*
X140153D01*
Y105924D01*
X140453D01*
Y105624D01*
X140153D01*
Y105323D01*
X139552D01*
Y105022D01*
Y104722D01*
Y104421D01*
X139251D01*
Y104722D01*
X138951D01*
Y104421D01*
X139251D01*
Y104121D01*
X138951D01*
Y103820D01*
X138650D01*
Y103520D01*
X138049D01*
Y103219D01*
X137748D01*
Y102919D01*
Y102618D01*
X137147D01*
Y102318D01*
Y102017D01*
X136847D01*
Y101717D01*
X136546D01*
Y102017D01*
X135945D01*
Y102318D01*
Y102618D01*
X135645D01*
Y102318D01*
Y102017D01*
X135945D01*
Y101717D01*
X136546D01*
Y101416D01*
X135945D01*
Y101717D01*
X135645D01*
Y102017D01*
X135344D01*
Y101717D01*
X135645D01*
Y101416D01*
X135945D01*
Y101116D01*
Y100815D01*
X135344D01*
Y100514D01*
Y100214D01*
X134743D01*
Y99913D01*
X134443D01*
Y99613D01*
X134142D01*
Y99312D01*
X133842D01*
Y99012D01*
X133541D01*
Y98711D01*
X132940D01*
Y98411D01*
X132339D01*
Y98110D01*
X132038D01*
Y97810D01*
X131738D01*
Y98110D01*
Y98411D01*
X132038D01*
Y98711D01*
X131738D01*
Y99012D01*
X131437D01*
Y99312D01*
X130836D01*
Y99613D01*
X130536D01*
Y99312D01*
X130836D01*
Y99012D01*
X131137D01*
Y98711D01*
X131437D01*
Y98411D01*
Y98110D01*
X131137D01*
Y97810D01*
X131738D01*
Y97509D01*
X131437D01*
Y97209D01*
X131137D01*
Y96908D01*
X130836D01*
Y97209D01*
Y97509D01*
X131137D01*
Y97810D01*
X130536D01*
Y98110D01*
X130836D01*
Y98411D01*
X130536D01*
Y98711D01*
Y99012D01*
Y99312D01*
X125727D01*
Y99613D01*
X70430D01*
Y99312D01*
X68025D01*
Y99613D01*
Y99913D01*
Y100214D01*
X67424D01*
Y99913D01*
Y99613D01*
X67124D01*
Y99312D01*
X66523D01*
Y99613D01*
X66222D01*
Y99913D01*
Y100214D01*
X65621D01*
Y99913D01*
Y99613D01*
X62916D01*
Y99913D01*
X62616D01*
Y100214D01*
X62015D01*
Y99913D01*
X62616D01*
Y99613D01*
X62916D01*
Y99312D01*
X63217D01*
Y99012D01*
X62916D01*
Y99312D01*
X62616D01*
Y99613D01*
X62015D01*
Y99913D01*
X61714D01*
Y100214D01*
X61113D01*
Y99913D01*
X61714D01*
Y99613D01*
X62015D01*
Y99312D01*
X61714D01*
Y99613D01*
X61113D01*
Y99913D01*
X60813D01*
Y100214D01*
Y100514D01*
Y100815D01*
X60512D01*
Y101116D01*
X59911D01*
Y101416D01*
X59611D01*
Y101717D01*
X59310D01*
Y101416D01*
X59611D01*
Y101116D01*
X59911D01*
Y100815D01*
Y100514D01*
X60212D01*
Y100214D01*
X60512D01*
Y99913D01*
X60813D01*
Y99613D01*
X61113D01*
Y99312D01*
X60813D01*
Y99613D01*
X60512D01*
Y99913D01*
X60212D01*
Y100214D01*
X59611D01*
Y100514D01*
Y100815D01*
X59010D01*
Y101116D01*
Y101416D01*
X58408D01*
Y101717D01*
X58108D01*
Y102017D01*
X57807D01*
Y102318D01*
X57507D01*
Y102618D01*
X57206D01*
Y102919D01*
Y103219D01*
X56605D01*
Y103520D01*
X56305D01*
Y103820D01*
X56004D01*
Y104121D01*
X55704D01*
Y104421D01*
X55403D01*
Y104722D01*
X55103D01*
Y105022D01*
Y105323D01*
X54802D01*
Y105624D01*
X54502D01*
Y105924D01*
X54201D01*
Y106224D01*
X53901D01*
Y106525D01*
X53600D01*
Y106826D01*
Y107126D01*
X53299D01*
Y107427D01*
X52999D01*
Y107727D01*
X52698D01*
Y108028D01*
X52398D01*
Y108328D01*
Y108629D01*
X52097D01*
Y108929D01*
X51797D01*
Y109230D01*
X51496D01*
Y109530D01*
Y109831D01*
X51196D01*
Y110131D01*
X50895D01*
Y110432D01*
Y110732D01*
X50595D01*
Y111033D01*
X50294D01*
Y111334D01*
Y111634D01*
X49994D01*
Y111935D01*
Y112235D01*
X49693D01*
Y112536D01*
X49393D01*
Y112836D01*
X49092D01*
Y113137D01*
Y113437D01*
X48791D01*
Y113738D01*
Y114038D01*
X48491D01*
Y114339D01*
X48190D01*
Y114639D01*
Y114940D01*
X47890D01*
Y115240D01*
Y115541D01*
X47589D01*
Y115842D01*
X47289D01*
Y116142D01*
Y116443D01*
X46988D01*
Y116743D01*
Y117044D01*
X46688D01*
Y117344D01*
Y117645D01*
X46387D01*
Y117945D01*
Y118246D01*
X46087D01*
Y118546D01*
Y118847D01*
X45786D01*
Y119147D01*
Y119448D01*
X45486D01*
Y119748D01*
Y120049D01*
X45185D01*
Y120350D01*
Y120650D01*
X44885D01*
Y120950D01*
Y121251D01*
Y121552D01*
X44584D01*
Y121852D01*
Y122153D01*
Y122453D01*
X44284D01*
Y122754D01*
Y123054D01*
X43983D01*
Y123355D01*
Y123655D01*
Y123956D01*
X43682D01*
Y124256D01*
Y124557D01*
Y124857D01*
X43382D01*
Y125158D01*
Y125458D01*
X43081D01*
Y125759D01*
Y126060D01*
Y126360D01*
Y126661D01*
X42781D01*
Y126961D01*
Y127262D01*
Y127562D01*
Y127863D01*
X42480D01*
Y128163D01*
Y128464D01*
Y128764D01*
Y129065D01*
X42180D01*
Y129365D01*
Y129666D01*
Y129966D01*
Y130267D01*
Y130568D01*
X41879D01*
Y130868D01*
Y131168D01*
Y131469D01*
Y131770D01*
Y132070D01*
Y132371D01*
X41579D01*
Y132671D01*
Y132972D01*
Y133272D01*
Y133573D01*
Y133873D01*
Y134174D01*
Y134474D01*
X41278D01*
Y134775D01*
Y135075D01*
Y135376D01*
Y135676D01*
Y135977D01*
Y136278D01*
Y136578D01*
Y136879D01*
Y137179D01*
Y137480D01*
X40978D01*
Y137780D01*
Y138081D01*
Y138381D01*
Y138682D01*
Y138982D01*
Y139283D01*
Y139583D01*
Y139884D01*
Y140184D01*
Y140485D01*
Y140786D01*
Y141086D01*
Y141387D01*
Y141687D01*
Y141988D01*
Y142288D01*
Y142589D01*
X40677D01*
Y142889D01*
Y143190D01*
Y143490D01*
Y143791D01*
Y144091D01*
Y144392D01*
Y144692D01*
Y144993D01*
Y145294D01*
Y145594D01*
Y145894D01*
Y146195D01*
Y146496D01*
Y146796D01*
Y147097D01*
Y147397D01*
Y147698D01*
Y147998D01*
Y148299D01*
Y148599D01*
Y148900D01*
Y149200D01*
Y149501D01*
Y149801D01*
Y150102D01*
Y150402D01*
Y150703D01*
Y151004D01*
Y151304D01*
Y151605D01*
Y151905D01*
Y152206D01*
Y152506D01*
Y152807D01*
Y153107D01*
Y153408D01*
Y153708D01*
Y154009D01*
Y154309D01*
Y154610D01*
Y154910D01*
Y155211D01*
Y155512D01*
Y155812D01*
Y156113D01*
Y156413D01*
Y156714D01*
Y157014D01*
Y157315D01*
Y157615D01*
Y157916D01*
Y158216D01*
Y158517D01*
Y158817D01*
Y159118D01*
Y159418D01*
Y159719D01*
Y160019D01*
Y160320D01*
Y160620D01*
Y160921D01*
Y161222D01*
Y161522D01*
Y161823D01*
Y162123D01*
Y162424D01*
Y162724D01*
Y163025D01*
Y163325D01*
Y163626D01*
Y163926D01*
X40377D01*
Y164227D01*
Y164527D01*
Y164828D01*
Y165128D01*
Y165429D01*
Y165730D01*
Y166030D01*
Y166331D01*
Y166631D01*
Y166932D01*
Y167232D01*
Y167533D01*
Y167833D01*
Y168134D01*
Y168434D01*
Y168735D01*
Y169035D01*
Y169336D01*
Y169636D01*
Y169937D01*
Y170238D01*
Y170538D01*
Y170839D01*
Y171139D01*
Y171440D01*
Y171740D01*
Y172041D01*
Y172341D01*
Y172642D01*
Y172942D01*
Y173243D01*
Y173543D01*
Y173844D01*
Y174144D01*
Y174445D01*
Y174745D01*
Y175046D01*
Y175347D01*
Y175647D01*
Y175948D01*
Y176248D01*
Y176549D01*
Y176849D01*
Y177150D01*
Y177450D01*
Y177751D01*
Y178051D01*
Y178352D01*
Y178652D01*
Y178953D01*
Y179253D01*
Y179554D01*
Y179855D01*
X40076D01*
Y180155D01*
Y180455D01*
Y180756D01*
Y181057D01*
Y181357D01*
Y181658D01*
Y181958D01*
Y182259D01*
Y182559D01*
Y182860D01*
Y183160D01*
Y183461D01*
Y183761D01*
Y184062D01*
Y184362D01*
Y184663D01*
Y184963D01*
Y185264D01*
Y185564D01*
Y185865D01*
Y186166D01*
Y186466D01*
Y186767D01*
Y187067D01*
Y187368D01*
Y187668D01*
Y187969D01*
Y188269D01*
Y188570D01*
Y188870D01*
Y189171D01*
Y189471D01*
Y189772D01*
Y190072D01*
Y190373D01*
Y190674D01*
Y190974D01*
Y191275D01*
Y191575D01*
Y191876D01*
Y192176D01*
X40377D01*
Y192477D01*
Y192777D01*
Y193078D01*
Y193378D01*
Y193679D01*
Y193979D01*
Y194280D01*
Y194580D01*
Y194881D01*
Y195182D01*
Y195482D01*
Y195783D01*
Y196083D01*
Y196384D01*
Y196684D01*
Y196985D01*
Y197285D01*
Y197586D01*
Y197886D01*
Y198187D01*
Y198487D01*
Y198788D01*
Y199088D01*
Y199389D01*
Y199689D01*
X40677D01*
Y199389D01*
X41278D01*
Y199088D01*
X41579D01*
Y198788D01*
X41879D01*
Y198487D01*
X42180D01*
Y198187D01*
X42480D01*
Y197886D01*
X42781D01*
Y197586D01*
X43081D01*
Y197285D01*
X43382D01*
Y196985D01*
X43682D01*
Y196684D01*
X43983D01*
Y196384D01*
X44584D01*
Y196083D01*
X44885D01*
Y195783D01*
X45185D01*
Y195482D01*
X45486D01*
Y195182D01*
X45786D01*
Y194881D01*
X46087D01*
Y194580D01*
X46387D01*
Y194280D01*
X46688D01*
Y193979D01*
X46988D01*
Y193679D01*
X47289D01*
Y193378D01*
X47589D01*
Y193078D01*
X47890D01*
Y192777D01*
X48190D01*
Y192477D01*
X48491D01*
Y192176D01*
X48791D01*
Y191876D01*
X49092D01*
Y191575D01*
X49393D01*
Y191275D01*
X49693D01*
Y190974D01*
X49994D01*
Y190674D01*
X50294D01*
Y190373D01*
X50595D01*
Y190072D01*
X50895D01*
Y189772D01*
X51196D01*
Y189471D01*
X51496D01*
Y189171D01*
X51797D01*
Y188870D01*
X52398D01*
Y188570D01*
X52698D01*
Y188269D01*
X52999D01*
Y187969D01*
X53299D01*
Y187668D01*
X53600D01*
Y187368D01*
Y187067D01*
X53901D01*
Y186767D01*
X54201D01*
Y186466D01*
X54802D01*
Y186166D01*
X55103D01*
Y185865D01*
X55403D01*
Y185564D01*
X55704D01*
Y185264D01*
X56004D01*
Y184963D01*
X56305D01*
Y184663D01*
X56605D01*
Y184362D01*
X56906D01*
Y184062D01*
X57206D01*
Y183761D01*
X57507D01*
Y183461D01*
X57807D01*
Y183160D01*
X58108D01*
Y182860D01*
X58408D01*
Y182559D01*
X58709D01*
Y182259D01*
X59010D01*
Y181958D01*
X59310D01*
Y181658D01*
X59611D01*
Y181357D01*
X59911D01*
Y181057D01*
X60212D01*
Y180756D01*
X60512D01*
Y180455D01*
X60813D01*
Y180155D01*
X61113D01*
Y179855D01*
X61414D01*
Y179554D01*
X61714D01*
Y179253D01*
X62015D01*
Y178953D01*
X62315D01*
Y178652D01*
X62616D01*
Y178352D01*
X62916D01*
Y178051D01*
X63217D01*
Y177751D01*
X63517D01*
Y177450D01*
X63818D01*
Y177150D01*
X64119D01*
Y176849D01*
X64419D01*
Y176549D01*
X64720D01*
Y176248D01*
X65020D01*
Y175948D01*
X65321D01*
Y175647D01*
X65621D01*
Y175347D01*
X65922D01*
Y175046D01*
X66222D01*
Y174745D01*
X66523D01*
Y174445D01*
X66823D01*
Y174144D01*
X67124D01*
Y173844D01*
X67424D01*
Y173543D01*
X67725D01*
Y173243D01*
X68025D01*
Y172942D01*
X68326D01*
Y172642D01*
X68626D01*
Y172341D01*
X68927D01*
Y172041D01*
X69228D01*
Y171740D01*
X69528D01*
Y171440D01*
X69829D01*
Y171139D01*
X70129D01*
Y170839D01*
X70430D01*
Y170538D01*
X70730D01*
Y170238D01*
X71031D01*
Y169937D01*
X71331D01*
Y169636D01*
X71632D01*
Y169336D01*
X71932D01*
Y169035D01*
X72233D01*
Y168735D01*
X72533D01*
Y168434D01*
X72834D01*
Y168134D01*
X73134D01*
Y167833D01*
X73435D01*
Y167533D01*
X73735D01*
Y167232D01*
X74036D01*
Y166932D01*
X74337D01*
Y166631D01*
X74637D01*
Y166331D01*
X74938D01*
Y166030D01*
X75238D01*
Y165730D01*
X75539D01*
Y165429D01*
X75839D01*
Y165128D01*
X76140D01*
Y164828D01*
X76440D01*
Y164527D01*
X76741D01*
Y164227D01*
X77041D01*
Y163926D01*
X77342D01*
Y163626D01*
X77642D01*
Y163325D01*
X77943D01*
Y163025D01*
X78243D01*
Y162724D01*
X78544D01*
Y162424D01*
X78844D01*
Y162123D01*
X79145D01*
Y161823D01*
X79446D01*
Y161522D01*
X79746D01*
Y161222D01*
X80047D01*
Y160921D01*
X80347D01*
Y160620D01*
X80648D01*
Y160320D01*
X80948D01*
Y160019D01*
X81249D01*
Y159719D01*
X81549D01*
Y159418D01*
X81850D01*
Y159118D01*
X82150D01*
Y158817D01*
X82451D01*
Y158517D01*
X82751D01*
Y158216D01*
X83052D01*
Y157916D01*
X83352D01*
Y157615D01*
X83653D01*
Y157315D01*
X83954D01*
Y157014D01*
X84254D01*
Y156714D01*
X84555D01*
Y156413D01*
X84855D01*
Y156113D01*
X85156D01*
Y155812D01*
X85456D01*
Y155512D01*
X86057D01*
Y155211D01*
X86358D01*
Y154910D01*
X86658D01*
Y154610D01*
X87259D01*
Y154309D01*
Y154009D01*
X87860D01*
Y153708D01*
X88462D01*
Y153408D01*
X88762D01*
Y153107D01*
X89063D01*
Y152807D01*
X89363D01*
Y152506D01*
X89664D01*
Y152206D01*
X90265D01*
Y151905D01*
X90565D01*
Y151605D01*
X91166D01*
Y151304D01*
X91467D01*
Y151004D01*
X91767D01*
Y150703D01*
X93270D01*
Y151004D01*
X94472D01*
Y151304D01*
X95975D01*
Y151605D01*
X97177D01*
Y151905D01*
X98379D01*
Y152206D01*
X99882D01*
Y152506D01*
X101384D01*
Y152807D01*
X103188D01*
Y152506D01*
X104089D01*
Y152206D01*
X104690D01*
Y151905D01*
X104991D01*
Y151605D01*
X105291D01*
Y151304D01*
Y151004D01*
X105592D01*
Y150703D01*
X105892D01*
Y150402D01*
Y150102D01*
X106193D01*
Y149801D01*
Y149501D01*
Y149200D01*
X106493D01*
Y148900D01*
Y148599D01*
Y148299D01*
X106794D01*
Y147998D01*
Y147698D01*
Y147397D01*
X107094D01*
Y147097D01*
Y146796D01*
Y146496D01*
X107395D01*
Y146195D01*
Y145894D01*
Y145594D01*
X107696D01*
Y145294D01*
Y144993D01*
X107996D01*
Y144692D01*
Y144392D01*
Y144091D01*
X108296D01*
Y143791D01*
Y143490D01*
Y143190D01*
Y142889D01*
X108597D01*
Y142589D01*
Y142288D01*
X108898D01*
Y141988D01*
Y141687D01*
Y141387D01*
X109198D01*
Y141086D01*
Y140786D01*
Y140485D01*
X109499D01*
Y140184D01*
Y139884D01*
Y139583D01*
X109799D01*
Y139283D01*
Y138982D01*
Y138682D01*
X110100D01*
Y138381D01*
Y138081D01*
Y137780D01*
X110400D01*
Y137480D01*
Y137179D01*
Y136879D01*
X110701D01*
Y136578D01*
Y136278D01*
X111001D01*
Y135977D01*
Y135676D01*
Y135376D01*
Y135075D01*
X111302D01*
Y134775D01*
Y134474D01*
X111602D01*
Y134174D01*
Y133873D01*
Y133573D01*
Y133272D01*
X111903D01*
Y132972D01*
Y132671D01*
X112203D01*
Y132371D01*
Y132070D01*
Y131770D01*
Y131469D01*
Y131168D01*
Y130868D01*
X112504D01*
Y130568D01*
X112203D01*
Y130267D01*
Y129966D01*
Y129666D01*
X111903D01*
Y129365D01*
Y129065D01*
X111602D01*
Y128764D01*
X111302D01*
Y128464D01*
X110701D01*
Y128163D01*
X109799D01*
Y127863D01*
X108898D01*
Y128163D01*
X107996D01*
Y128464D01*
X107395D01*
Y128764D01*
X107094D01*
Y129065D01*
X106794D01*
Y129365D01*
Y129666D01*
X106493D01*
Y129966D01*
Y130267D01*
X106193D01*
Y130568D01*
Y130868D01*
Y131168D01*
X105892D01*
Y131469D01*
Y131770D01*
Y132070D01*
X105592D01*
Y132371D01*
Y132671D01*
Y132972D01*
X105291D01*
Y133272D01*
Y133573D01*
Y133873D01*
X104991D01*
Y134174D01*
Y134474D01*
Y134775D01*
X104690D01*
Y135075D01*
Y135376D01*
Y135676D01*
X104390D01*
Y135977D01*
Y136278D01*
X104089D01*
Y136578D01*
Y136879D01*
Y137179D01*
Y137480D01*
X103789D01*
Y137780D01*
Y138081D01*
Y138381D01*
X103488D01*
Y138682D01*
Y138982D01*
Y139283D01*
X103188D01*
Y139583D01*
Y139884D01*
Y140184D01*
X102887D01*
Y140485D01*
Y140786D01*
Y141086D01*
X102586D01*
Y141387D01*
Y141687D01*
Y141988D01*
X102286D01*
Y142288D01*
Y142589D01*
Y142889D01*
X101985D01*
Y143190D01*
Y143490D01*
X101685D01*
Y143791D01*
Y144091D01*
Y144392D01*
Y144692D01*
X101384D01*
Y144993D01*
Y145294D01*
X101084D01*
Y145594D01*
Y145894D01*
X99581D01*
Y145594D01*
X98078D01*
Y145294D01*
X96576D01*
Y144993D01*
X94773D01*
Y144692D01*
X93270D01*
Y144392D01*
X91767D01*
Y144091D01*
X90866D01*
Y143791D01*
X90565D01*
Y143490D01*
X90265D01*
Y143190D01*
X89964D01*
Y142889D01*
X89664D01*
Y142589D01*
Y142288D01*
X89363D01*
Y141988D01*
X89063D01*
Y141687D01*
X88762D01*
Y141387D01*
Y141086D01*
X88462D01*
Y140786D01*
X88161D01*
Y140485D01*
X87860D01*
Y140184D01*
Y139884D01*
X87560D01*
Y139583D01*
X87259D01*
Y139283D01*
X86959D01*
Y138982D01*
X86658D01*
Y138682D01*
Y138381D01*
X86358D01*
Y138081D01*
X86057D01*
Y137780D01*
X85757D01*
Y137480D01*
Y137179D01*
X85456D01*
Y136879D01*
Y136578D01*
Y136278D01*
Y135977D01*
Y135676D01*
X85156D01*
Y135376D01*
Y135075D01*
Y134775D01*
Y134474D01*
Y134174D01*
Y133873D01*
Y133573D01*
Y133272D01*
Y132972D01*
Y132671D01*
Y132371D01*
Y132070D01*
Y131770D01*
Y131469D01*
Y131168D01*
Y130868D01*
Y130568D01*
Y130267D01*
Y129966D01*
Y129666D01*
Y129365D01*
Y129065D01*
Y128764D01*
Y128464D01*
Y128163D01*
Y127863D01*
Y127562D01*
Y127262D01*
X86057D01*
Y126961D01*
X87860D01*
Y126661D01*
X89664D01*
Y126360D01*
X91467D01*
Y126060D01*
X93571D01*
Y125759D01*
X95674D01*
Y125458D01*
X97177D01*
Y125158D01*
X99281D01*
Y124857D01*
X100783D01*
Y124557D01*
X102286D01*
Y124256D01*
X103188D01*
Y123956D01*
X103488D01*
Y123655D01*
Y123355D01*
X104089D01*
Y123054D01*
Y122754D01*
X104390D01*
Y122453D01*
Y122153D01*
Y121852D01*
Y121552D01*
Y121251D01*
Y120950D01*
Y120650D01*
X104089D01*
Y120350D01*
Y120049D01*
X103789D01*
Y119748D01*
X103488D01*
Y119448D01*
Y119147D01*
X102887D01*
Y118847D01*
X102286D01*
Y119147D01*
X101985D01*
Y118847D01*
X102286D01*
Y118546D01*
X99882D01*
Y118847D01*
X98078D01*
Y119147D01*
X96576D01*
Y119448D01*
X95073D01*
Y119748D01*
X92970D01*
Y120049D01*
X90866D01*
Y120350D01*
X89063D01*
Y120650D01*
X87259D01*
Y120950D01*
X85156D01*
Y121251D01*
Y121552D01*
X84855D01*
Y121251D01*
X83352D01*
Y121552D01*
X81549D01*
Y121852D01*
X80648D01*
Y122153D01*
X80047D01*
Y122453D01*
X79746D01*
Y122754D01*
X79446D01*
Y123054D01*
Y123355D01*
X79145D01*
Y123655D01*
Y123956D01*
X78844D01*
Y124256D01*
Y124557D01*
Y124857D01*
Y125158D01*
Y125458D01*
Y125759D01*
Y126060D01*
Y126360D01*
Y126661D01*
Y126961D01*
Y127262D01*
Y127562D01*
Y127863D01*
Y128163D01*
Y128464D01*
Y128764D01*
Y129065D01*
Y129365D01*
Y129666D01*
Y129966D01*
Y130267D01*
Y130568D01*
Y130868D01*
Y131168D01*
Y131469D01*
Y131770D01*
Y132070D01*
Y132371D01*
Y132671D01*
Y132972D01*
X79145D01*
Y133272D01*
Y133573D01*
Y133873D01*
Y134174D01*
Y134474D01*
Y134775D01*
X78844D01*
Y135075D01*
X78544D01*
Y135376D01*
X78243D01*
Y135676D01*
Y135977D01*
X77943D01*
Y136278D01*
X77642D01*
Y136578D01*
X77342D01*
Y136879D01*
X77041D01*
Y137179D01*
X76741D01*
Y137480D01*
X76440D01*
Y137780D01*
Y138081D01*
X75839D01*
Y138381D01*
X75539D01*
Y138682D01*
X75238D01*
Y138982D01*
Y139283D01*
X74637D01*
Y139583D01*
X74337D01*
Y139884D01*
X74036D01*
Y140184D01*
X73735D01*
Y140485D01*
X73435D01*
Y140786D01*
X73134D01*
Y141086D01*
X72834D01*
Y141387D01*
X72533D01*
Y141687D01*
X72233D01*
Y141988D01*
X71932D01*
Y142288D01*
X71632D01*
Y142589D01*
X71331D01*
Y142889D01*
X71031D01*
Y143190D01*
X70730D01*
Y143490D01*
X70430D01*
Y143791D01*
X70129D01*
Y144091D01*
X69829D01*
Y144392D01*
X69528D01*
Y144692D01*
X69228D01*
Y144993D01*
X68927D01*
Y145294D01*
X68626D01*
Y145594D01*
X68326D01*
Y145894D01*
X68025D01*
Y146195D01*
X67725D01*
Y146496D01*
X67424D01*
Y146796D01*
X67124D01*
Y147097D01*
X66823D01*
Y147397D01*
X66523D01*
Y147698D01*
X66222D01*
Y147998D01*
X65922D01*
Y148299D01*
X65621D01*
Y148599D01*
X65321D01*
Y148900D01*
X65020D01*
Y149200D01*
X64720D01*
Y149501D01*
X64419D01*
Y149801D01*
X64119D01*
Y150102D01*
X63818D01*
Y150402D01*
X63217D01*
Y150102D01*
X62916D01*
Y149801D01*
Y149501D01*
Y149200D01*
X62616D01*
Y148900D01*
Y148599D01*
Y148299D01*
X62315D01*
Y147998D01*
Y147698D01*
Y147397D01*
Y147097D01*
Y146796D01*
Y146496D01*
Y146195D01*
Y145894D01*
X62015D01*
Y145594D01*
Y145294D01*
Y144993D01*
Y144692D01*
Y144392D01*
Y144091D01*
Y143791D01*
Y143490D01*
Y143190D01*
Y142889D01*
Y142589D01*
Y142288D01*
Y141988D01*
Y141687D01*
Y141387D01*
Y141086D01*
Y140786D01*
X62315D01*
Y140485D01*
Y140184D01*
Y139884D01*
Y139583D01*
Y139283D01*
Y138982D01*
Y138682D01*
Y138381D01*
Y138081D01*
X62616D01*
Y137780D01*
Y137480D01*
Y137179D01*
Y136879D01*
Y136578D01*
X62916D01*
Y136278D01*
Y135977D01*
Y135676D01*
Y135376D01*
X63217D01*
Y135075D01*
Y134775D01*
Y134474D01*
Y134174D01*
X63517D01*
Y133873D01*
Y133573D01*
Y133272D01*
Y132972D01*
X63818D01*
Y132671D01*
Y132371D01*
Y132070D01*
X64119D01*
Y131770D01*
Y131469D01*
Y131168D01*
X64419D01*
Y130868D01*
Y130568D01*
Y130267D01*
X64720D01*
Y129966D01*
Y129666D01*
X65020D01*
Y129365D01*
Y129065D01*
X65321D01*
Y128764D01*
Y128464D01*
Y128163D01*
X65621D01*
Y127863D01*
Y127562D01*
X65922D01*
Y127262D01*
Y126961D01*
X66222D01*
Y126661D01*
Y126360D01*
X66523D01*
Y126060D01*
Y125759D01*
X66823D01*
Y125458D01*
Y125158D01*
X67124D01*
Y124857D01*
X66823D01*
Y124557D01*
X67424D01*
Y124256D01*
Y123956D01*
X67725D01*
Y123655D01*
X68025D01*
Y123355D01*
X68326D01*
Y123054D01*
Y122754D01*
X68626D01*
Y122453D01*
X68927D01*
Y122153D01*
Y121852D01*
X69228D01*
Y121552D01*
X69528D01*
Y121251D01*
X69829D01*
Y120950D01*
X70129D01*
Y120650D01*
Y120350D01*
X70430D01*
Y120049D01*
X70730D01*
Y119748D01*
X71031D01*
Y119448D01*
Y119147D01*
X71331D01*
Y118847D01*
X71632D01*
Y118546D01*
X71932D01*
Y118246D01*
X72233D01*
Y117945D01*
X72533D01*
Y117645D01*
X72834D01*
Y117344D01*
X73134D01*
Y117044D01*
X73435D01*
Y116743D01*
X74036D01*
Y116443D01*
Y116142D01*
X74637D01*
Y115842D01*
X74938D01*
Y115541D01*
X75238D01*
Y115240D01*
X75539D01*
Y114940D01*
X76140D01*
Y114639D01*
X76440D01*
Y114339D01*
X76741D01*
Y114038D01*
X77041D01*
Y113738D01*
X77642D01*
Y113437D01*
X78243D01*
Y113137D01*
X78844D01*
Y112836D01*
X79145D01*
Y112536D01*
X79446D01*
Y112235D01*
X80047D01*
Y111935D01*
Y111634D01*
X80347D01*
Y111334D01*
X80648D01*
Y111634D01*
X80347D01*
Y111935D01*
X80648D01*
Y111634D01*
X81249D01*
Y111334D01*
X80948D01*
Y111033D01*
X80347D01*
Y111334D01*
X80047D01*
Y111033D01*
X80347D01*
Y110732D01*
X81249D01*
Y111033D01*
X81549D01*
Y111334D01*
X81850D01*
Y111033D01*
X82451D01*
Y110732D01*
X83052D01*
Y110432D01*
X83653D01*
Y110131D01*
X84254D01*
Y109831D01*
X85156D01*
Y109530D01*
X86057D01*
Y109230D01*
X87259D01*
Y108929D01*
X86658D01*
Y108629D01*
X87560D01*
Y108328D01*
X86658D01*
Y108629D01*
X85456D01*
Y108929D01*
X86057D01*
Y109230D01*
X85156D01*
Y108929D01*
Y108629D01*
X84855D01*
Y108929D01*
Y109230D01*
X84254D01*
Y108929D01*
Y108629D01*
X83954D01*
Y108328D01*
X84555D01*
Y108028D01*
X84855D01*
Y107727D01*
X86358D01*
Y108028D01*
X84855D01*
Y108328D01*
X86358D01*
Y108028D01*
X87860D01*
Y107727D01*
X88462D01*
Y108028D01*
X87860D01*
Y108328D01*
X88462D01*
Y108629D01*
X89063D01*
Y108328D01*
X90565D01*
Y108028D01*
X92368D01*
Y107727D01*
X95073D01*
Y107427D01*
X100182D01*
Y107727D01*
X102887D01*
Y107427D01*
X103488D01*
Y107727D01*
X102887D01*
Y108028D01*
X104690D01*
Y108328D01*
X105892D01*
Y108629D01*
X106794D01*
Y108328D01*
X107094D01*
Y108629D01*
Y108929D01*
X107696D01*
Y108629D01*
X108597D01*
Y108929D01*
X107996D01*
Y109230D01*
X108898D01*
Y109530D01*
X109799D01*
Y109831D01*
X110400D01*
Y110131D01*
X111001D01*
Y110432D01*
X111903D01*
Y110732D01*
X112504D01*
Y111033D01*
X112804D01*
Y111334D01*
X113406D01*
Y111033D01*
X113706D01*
Y110732D01*
X114007D01*
Y111033D01*
X113706D01*
Y111334D01*
Y111634D01*
X114608D01*
Y111935D01*
X114908D01*
Y112235D01*
X115209D01*
Y112536D01*
X115810D01*
Y112235D01*
X115509D01*
Y111935D01*
X116110D01*
Y112235D01*
Y112536D01*
X115810D01*
Y112836D01*
X116110D01*
Y113137D01*
X116411D01*
Y112836D01*
X116711D01*
Y113137D01*
X116411D01*
Y113437D01*
X117012D01*
Y113738D01*
X117312D01*
Y114038D01*
X117613D01*
Y114339D01*
X118214D01*
Y114639D01*
X118514D01*
Y114940D01*
X118815D01*
Y114639D01*
X119116D01*
Y114940D01*
X118815D01*
Y115240D01*
X119116D01*
Y115541D01*
X119416D01*
Y115842D01*
X120017D01*
Y116142D01*
X120618D01*
Y115842D01*
X120919D01*
Y116142D01*
X120618D01*
Y116443D01*
Y116743D01*
X120919D01*
Y117044D01*
X121219D01*
Y117344D01*
X121520D01*
Y117645D01*
X121820D01*
Y117945D01*
X122121D01*
Y118246D01*
X122421D01*
Y118546D01*
X122722D01*
Y118847D01*
Y119147D01*
X123022D01*
Y118847D01*
X123323D01*
Y119147D01*
Y119448D01*
Y119748D01*
X123624D01*
Y120049D01*
X123924D01*
Y120350D01*
X124225D01*
Y120650D01*
X124525D01*
Y120950D01*
X124826D01*
Y121251D01*
Y121552D01*
X125126D01*
Y121852D01*
X125427D01*
Y122153D01*
X125727D01*
Y122453D01*
Y122754D01*
X126028D01*
Y123054D01*
X126328D01*
Y122754D01*
X126629D01*
Y123054D01*
X126328D01*
Y123355D01*
Y123655D01*
X126929D01*
Y123956D01*
Y124256D01*
Y124557D01*
X127230D01*
Y124857D01*
Y125158D01*
X127530D01*
Y125458D01*
X127831D01*
Y125759D01*
Y126060D01*
X128132D01*
Y126360D01*
Y126661D01*
X128432D01*
Y126961D01*
X128733D01*
Y127262D01*
Y127562D01*
Y127863D01*
X129033D01*
Y128163D01*
Y128464D01*
X129334D01*
Y128764D01*
Y129065D01*
X129634D01*
Y129365D01*
Y129666D01*
X129935D01*
Y129966D01*
Y130267D01*
Y130568D01*
X130235D01*
Y130868D01*
Y131168D01*
Y131469D01*
X130536D01*
Y131770D01*
Y132070D01*
X130836D01*
Y132371D01*
Y132671D01*
Y132972D01*
Y133272D01*
X131137D01*
Y133573D01*
Y133873D01*
Y134174D01*
X131437D01*
Y134474D01*
Y134775D01*
Y135075D01*
Y135376D01*
X131738D01*
Y135676D01*
Y135977D01*
Y136278D01*
Y136578D01*
Y136879D01*
X132038D01*
Y137179D01*
Y137480D01*
Y137780D01*
Y138081D01*
Y138381D01*
Y138682D01*
X132339D01*
Y138982D01*
Y139283D01*
Y139583D01*
Y139884D01*
Y140184D01*
Y140485D01*
Y140786D01*
Y141086D01*
X132640D01*
Y141387D01*
Y141687D01*
Y141988D01*
Y142288D01*
Y142589D01*
Y142889D01*
Y143190D01*
Y143490D01*
Y143791D01*
Y144091D01*
Y144392D01*
Y144692D01*
Y144993D01*
Y145294D01*
Y145594D01*
Y145894D01*
X132339D01*
Y146195D01*
Y146496D01*
Y146796D01*
Y147097D01*
Y147397D01*
Y147698D01*
Y147998D01*
Y148299D01*
Y148599D01*
Y148900D01*
X132038D01*
Y149200D01*
Y149501D01*
Y149801D01*
Y150102D01*
Y150402D01*
X131738D01*
Y150703D01*
Y151004D01*
Y151304D01*
Y151605D01*
Y151905D01*
X131437D01*
Y152206D01*
Y152506D01*
Y152807D01*
Y153107D01*
X131137D01*
Y153408D01*
Y153708D01*
Y154009D01*
Y154309D01*
X130836D01*
Y154610D01*
Y154910D01*
Y155211D01*
X130536D01*
Y155512D01*
Y155812D01*
X130235D01*
Y156113D01*
Y156413D01*
Y156714D01*
X129935D01*
Y157014D01*
Y157315D01*
X129634D01*
Y157615D01*
Y157916D01*
Y158216D01*
X129334D01*
Y158517D01*
Y158817D01*
X129033D01*
Y159118D01*
Y159418D01*
X128733D01*
Y159719D01*
Y160019D01*
X128432D01*
Y160320D01*
X128132D01*
Y160620D01*
Y160921D01*
Y161222D01*
X127831D01*
Y161522D01*
X127530D01*
Y161823D01*
Y162123D01*
X127230D01*
Y162424D01*
Y162724D01*
X126929D01*
Y163025D01*
Y163325D01*
X126629D01*
Y163626D01*
X126328D01*
Y163926D01*
X126028D01*
Y164227D01*
Y164527D01*
X125727D01*
Y164828D01*
X125427D01*
Y165128D01*
X125126D01*
Y165429D01*
X124826D01*
Y165730D01*
X124525D01*
Y166030D01*
Y166331D01*
X124225D01*
Y166631D01*
X123924D01*
Y166932D01*
X123624D01*
Y167232D01*
X123323D01*
Y167533D01*
X123022D01*
Y167833D01*
X122722D01*
Y168134D01*
X122421D01*
Y168434D01*
X122121D01*
Y168735D01*
X121820D01*
Y169035D01*
X121520D01*
Y169336D01*
X121219D01*
Y169636D01*
X120919D01*
Y169937D01*
X120618D01*
Y170238D01*
X120318D01*
Y170538D01*
X119717D01*
Y170839D01*
X119416D01*
Y171139D01*
X119116D01*
Y171440D01*
X118514D01*
Y171740D01*
X118214D01*
Y172041D01*
X117914D01*
Y172341D01*
X117312D01*
Y172642D01*
X116711D01*
Y172942D01*
X116411D01*
Y173243D01*
X115810D01*
Y173543D01*
X115509D01*
Y173844D01*
X114908D01*
Y174144D01*
X114307D01*
Y174445D01*
X113706D01*
Y174745D01*
X113105D01*
Y175046D01*
X112203D01*
Y175347D01*
X111602D01*
Y175647D01*
X111001D01*
Y175948D01*
X110100D01*
Y176248D01*
X109198D01*
Y176549D01*
X108296D01*
Y176849D01*
X107094D01*
Y177150D01*
X105892D01*
Y177450D01*
X104690D01*
Y177751D01*
X102586D01*
Y178051D01*
X99281D01*
Y178352D01*
X96876D01*
Y178051D01*
X93871D01*
Y177751D01*
X92068D01*
Y177450D01*
X90265D01*
Y177150D01*
X87860D01*
Y176849D01*
X86658D01*
Y177150D01*
X86358D01*
Y177450D01*
Y177751D01*
X86057D01*
Y178051D01*
X85757D01*
Y178352D01*
X85456D01*
Y178652D01*
Y178953D01*
X85156D01*
Y179253D01*
X84855D01*
Y179554D01*
X84555D01*
Y179855D01*
X84254D01*
Y180155D01*
Y180455D01*
X83954D01*
Y180756D01*
X83653D01*
Y181057D01*
X83352D01*
Y181357D01*
X83052D01*
Y181658D01*
X82751D01*
Y181958D01*
X82451D01*
Y182259D01*
Y182559D01*
X82150D01*
Y182860D01*
X81850D01*
Y183160D01*
X81549D01*
Y183461D01*
X81249D01*
Y183761D01*
X80948D01*
Y184062D01*
Y184362D01*
X80648D01*
Y184663D01*
X80347D01*
Y184963D01*
X80047D01*
Y185264D01*
X79746D01*
Y185564D01*
X79446D01*
Y185865D01*
X79145D01*
Y186166D01*
Y186466D01*
X78844D01*
Y186767D01*
X78544D01*
Y187067D01*
X78243D01*
Y187368D01*
X77943D01*
Y187668D01*
X77642D01*
Y187969D01*
X77342D01*
Y188269D01*
Y188570D01*
X77041D01*
Y188870D01*
X76741D01*
Y189171D01*
X76440D01*
Y189471D01*
X76140D01*
Y189772D01*
X75839D01*
Y190072D01*
X75539D01*
Y190373D01*
Y190674D01*
X75238D01*
Y190974D01*
X74938D01*
Y191275D01*
X74637D01*
Y191575D01*
X74337D01*
Y191876D01*
X74036D01*
Y192176D01*
X73735D01*
Y192477D01*
X73435D01*
Y192777D01*
Y193078D01*
X73134D01*
Y193378D01*
X72834D01*
Y193679D01*
X72533D01*
Y193979D01*
X72233D01*
Y194280D01*
X71932D01*
Y194580D01*
X71632D01*
Y194881D01*
Y195182D01*
X71331D01*
Y195482D01*
X71031D01*
Y195783D01*
X70730D01*
Y196083D01*
X70430D01*
Y196384D01*
X70129D01*
Y196684D01*
X69829D01*
Y196985D01*
Y197285D01*
X69528D01*
Y197586D01*
X69228D01*
Y197886D01*
X68927D01*
Y198187D01*
Y198487D01*
X68626D01*
Y198788D01*
X68326D01*
Y199088D01*
X68025D01*
Y199389D01*
Y199689D01*
X67725D01*
Y199990D01*
X67424D01*
Y200291D01*
X67124D01*
Y200591D01*
X66823D01*
Y200892D01*
Y201192D01*
X66523D01*
Y201493D01*
X66222D01*
Y201793D01*
Y202094D01*
X65922D01*
Y202394D01*
X65621D01*
Y202695D01*
Y202995D01*
Y203296D01*
X65321D01*
Y203596D01*
X65922D01*
Y203296D01*
D02*
G37*
G36*
X61714Y99012D02*
Y98711D01*
X61414D01*
Y99012D01*
Y99312D01*
X61714D01*
Y99012D01*
D02*
G37*
G36*
X62916Y98411D02*
X63217D01*
Y98110D01*
X62916D01*
Y98411D01*
X62616D01*
Y98110D01*
X62916D01*
Y97810D01*
X62616D01*
Y98110D01*
X62315D01*
Y98411D01*
Y98711D01*
X62916D01*
Y98411D01*
D02*
G37*
G36*
X130235Y97509D02*
X130536D01*
Y97209D01*
X130235D01*
Y97509D01*
X129634D01*
Y97810D01*
X130235D01*
Y97509D01*
D02*
G37*
G36*
X127530D02*
Y97209D01*
X126328D01*
Y96908D01*
X125727D01*
Y97209D01*
Y97509D01*
Y97810D01*
X127530D01*
Y97509D01*
D02*
G37*
G36*
X70430D02*
Y97209D01*
X71031D01*
Y96908D01*
X71331D01*
Y96608D01*
X70430D01*
Y96307D01*
X70730D01*
Y96006D01*
Y95706D01*
X69829D01*
Y96006D01*
X69228D01*
Y96307D01*
X68025D01*
Y96608D01*
Y96908D01*
X67725D01*
Y97209D01*
Y97509D01*
X68025D01*
Y97209D01*
X68626D01*
Y96908D01*
X69228D01*
Y97209D01*
X69528D01*
Y97509D01*
X69829D01*
Y97810D01*
X70430D01*
Y97509D01*
D02*
G37*
G36*
X65020D02*
X65321D01*
Y97209D01*
X65621D01*
Y96908D01*
X65321D01*
Y97209D01*
X65020D01*
Y97509D01*
X64419D01*
Y97810D01*
X65020D01*
Y97509D01*
D02*
G37*
G36*
X67124Y96908D02*
X67424D01*
Y96608D01*
Y96307D01*
X66823D01*
Y96608D01*
X65922D01*
Y96908D01*
X66222D01*
Y97209D01*
X67124D01*
Y96908D01*
D02*
G37*
G36*
X129033D02*
X129634D01*
Y96608D01*
X130235D01*
Y96307D01*
X129935D01*
Y96006D01*
X129334D01*
Y96307D01*
X129634D01*
Y96608D01*
X129033D01*
Y96908D01*
X128432D01*
Y97209D01*
X129033D01*
Y96908D01*
D02*
G37*
G36*
X63818Y97509D02*
X64419D01*
Y97209D01*
X64119D01*
Y96908D01*
X64720D01*
Y96608D01*
X65020D01*
Y96307D01*
X65321D01*
Y96006D01*
X65020D01*
Y96307D01*
X64720D01*
Y96608D01*
X64119D01*
Y96908D01*
X63818D01*
Y97209D01*
Y97509D01*
X63217D01*
Y97810D01*
X63818D01*
Y97509D01*
D02*
G37*
G36*
X128432Y96608D02*
X128733D01*
Y96307D01*
X129033D01*
Y96006D01*
X129334D01*
Y95706D01*
X129033D01*
Y96006D01*
X128432D01*
Y96307D01*
Y96608D01*
X128132D01*
Y96908D01*
X128432D01*
Y96608D01*
D02*
G37*
G36*
Y95706D02*
X129033D01*
Y95405D01*
X128432D01*
Y95706D01*
X128132D01*
Y96006D01*
X128432D01*
Y95706D01*
D02*
G37*
G36*
X126929Y95105D02*
X127230D01*
Y94804D01*
X127530D01*
Y94504D01*
X127230D01*
Y94804D01*
X126929D01*
Y95105D01*
X126629D01*
Y95405D01*
X126929D01*
Y95105D01*
D02*
G37*
G36*
X69528D02*
X70129D01*
Y94804D01*
X70430D01*
Y94504D01*
X70129D01*
Y94804D01*
X69528D01*
Y95105D01*
X69228D01*
Y95405D01*
X69528D01*
Y95105D01*
D02*
G37*
G36*
X66222Y96006D02*
X66523D01*
Y95706D01*
X66823D01*
Y95405D01*
Y95105D01*
X67424D01*
Y94804D01*
X67725D01*
Y94504D01*
X67424D01*
Y94804D01*
X66823D01*
Y95105D01*
X66523D01*
Y95405D01*
Y95706D01*
X65922D01*
Y96006D01*
X65621D01*
Y96307D01*
X66222D01*
Y96006D01*
D02*
G37*
G36*
X126028Y95105D02*
X126328D01*
Y94804D01*
X126629D01*
Y94504D01*
X127230D01*
Y94203D01*
X126629D01*
Y94504D01*
X126328D01*
Y94804D01*
X126028D01*
Y95105D01*
X125427D01*
Y95405D01*
X126028D01*
Y95105D01*
D02*
G37*
G36*
X124826Y94504D02*
Y94203D01*
X124225D01*
Y94504D01*
X124525D01*
Y94804D01*
X124826D01*
Y94504D01*
D02*
G37*
G36*
X68626Y94804D02*
X69228D01*
Y94504D01*
X69829D01*
Y94203D01*
X68927D01*
Y94504D01*
X68626D01*
Y94804D01*
X68326D01*
Y95105D01*
X68626D01*
Y94804D01*
D02*
G37*
G36*
X126328Y94203D02*
X126629D01*
Y93903D01*
X126328D01*
Y94203D01*
X126028D01*
Y94504D01*
X126328D01*
Y94203D01*
D02*
G37*
G36*
X126028Y93903D02*
X126328D01*
Y93602D01*
X126028D01*
Y93903D01*
X125727D01*
Y94203D01*
X126028D01*
Y93903D01*
D02*
G37*
G36*
X123022Y92100D02*
X122722D01*
Y91799D01*
X122121D01*
Y92100D01*
X122421D01*
Y92400D01*
X123022D01*
Y92100D01*
D02*
G37*
G36*
X70430Y93001D02*
X72233D01*
Y92701D01*
X72533D01*
Y92400D01*
X72834D01*
Y92100D01*
Y91799D01*
X72533D01*
Y92100D01*
Y92400D01*
X72233D01*
Y92701D01*
X71331D01*
Y92400D01*
X71031D01*
Y92701D01*
X70430D01*
Y93001D01*
X70129D01*
Y93302D01*
X70430D01*
Y93001D01*
D02*
G37*
G36*
X120618Y91198D02*
Y90898D01*
X120017D01*
Y91198D01*
X120318D01*
Y91498D01*
X120618D01*
Y91198D01*
D02*
G37*
G36*
X74938Y90898D02*
X75238D01*
Y90597D01*
X74938D01*
Y90898D01*
X74337D01*
Y91198D01*
X74938D01*
Y90898D01*
D02*
G37*
G36*
X80347Y89094D02*
X81249D01*
Y88794D01*
Y88493D01*
X80948D01*
Y88794D01*
X80347D01*
Y89094D01*
X80047D01*
Y89395D01*
X80347D01*
Y89094D01*
D02*
G37*
%LPC*%
G36*
X61414Y177751D02*
X61113D01*
Y177450D01*
X61414D01*
Y177751D01*
D02*
G37*
G36*
X79746Y135075D02*
X79446D01*
Y134775D01*
X79746D01*
Y135075D01*
D02*
G37*
G36*
X130235Y129065D02*
X129935D01*
Y128764D01*
X130235D01*
Y129065D01*
D02*
G37*
G36*
X64119D02*
X63818D01*
Y128764D01*
X64119D01*
Y129065D01*
D02*
G37*
G36*
X66222Y126360D02*
X65922D01*
Y126060D01*
Y125759D01*
X66222D01*
Y126060D01*
Y126360D01*
D02*
G37*
G36*
X80047Y124256D02*
X79746D01*
Y123956D01*
X80047D01*
Y124256D01*
D02*
G37*
G36*
X46087D02*
X45786D01*
Y123956D01*
X46087D01*
Y124256D01*
D02*
G37*
G36*
X128132Y122754D02*
X127831D01*
Y122453D01*
X128132D01*
Y122754D01*
D02*
G37*
G36*
X103488Y122453D02*
X103188D01*
Y122153D01*
X103488D01*
Y122453D01*
D02*
G37*
G36*
X127831Y122153D02*
X127530D01*
Y121852D01*
X127831D01*
Y122153D01*
D02*
G37*
G36*
X103188Y121852D02*
X102887D01*
Y121552D01*
X103188D01*
Y121852D01*
D02*
G37*
G36*
X68626Y120950D02*
X68326D01*
Y120650D01*
X68626D01*
Y120950D01*
D02*
G37*
G36*
X125427Y120650D02*
X125126D01*
Y120350D01*
X125427D01*
Y120650D01*
D02*
G37*
G36*
X46087D02*
X45786D01*
Y120350D01*
X46087D01*
Y120650D01*
D02*
G37*
G36*
X125126Y120350D02*
X124826D01*
Y120049D01*
X125126D01*
Y120350D01*
D02*
G37*
G36*
X69228D02*
X68927D01*
Y120049D01*
X69228D01*
Y120350D01*
D02*
G37*
G36*
X70129D02*
X69829D01*
Y120049D01*
Y119748D01*
X70129D01*
Y120049D01*
Y120350D01*
D02*
G37*
G36*
X125427Y119748D02*
X125126D01*
Y119448D01*
X125427D01*
Y119748D01*
D02*
G37*
G36*
X124525D02*
X124225D01*
Y119448D01*
X124525D01*
Y119748D01*
D02*
G37*
G36*
X69829D02*
X69528D01*
Y119448D01*
X69829D01*
Y119748D01*
D02*
G37*
G36*
X48491Y119448D02*
X48190D01*
Y119147D01*
X48491D01*
Y119448D01*
D02*
G37*
G36*
X46988D02*
X46688D01*
Y119147D01*
X46988D01*
Y119448D01*
D02*
G37*
G36*
X47890Y118546D02*
X47589D01*
Y118246D01*
X47890D01*
Y118546D01*
D02*
G37*
G36*
X71331Y117344D02*
X70730D01*
Y117044D01*
X71331D01*
Y117344D01*
D02*
G37*
G36*
X47589Y117645D02*
X47289D01*
Y117344D01*
Y117044D01*
X47589D01*
Y117344D01*
Y117645D01*
D02*
G37*
G36*
X73134Y117044D02*
X72834D01*
Y116743D01*
X73134D01*
Y116443D01*
X73435D01*
Y116743D01*
X73134D01*
Y117044D01*
D02*
G37*
G36*
X48190Y116743D02*
X47890D01*
Y116443D01*
X48190D01*
Y116743D01*
D02*
G37*
G36*
X47890Y116443D02*
X47589D01*
Y116142D01*
X47890D01*
Y116443D01*
D02*
G37*
G36*
X74036Y116142D02*
X73735D01*
Y115842D01*
X74036D01*
Y116142D01*
D02*
G37*
G36*
X73435Y115842D02*
X73134D01*
Y115541D01*
X73435D01*
Y115842D01*
D02*
G37*
G36*
X74938Y115541D02*
X74637D01*
Y115240D01*
X74938D01*
Y115541D01*
D02*
G37*
G36*
X73134D02*
X72834D01*
Y115240D01*
X73134D01*
Y115541D01*
D02*
G37*
G36*
X120919Y115240D02*
X120618D01*
Y114940D01*
X120919D01*
Y115240D01*
D02*
G37*
G36*
X120017D02*
X119717D01*
Y114940D01*
X120017D01*
Y115240D01*
D02*
G37*
G36*
X75539Y114940D02*
X75238D01*
Y114639D01*
X75539D01*
Y114940D01*
D02*
G37*
G36*
X145562Y114639D02*
X145262D01*
Y114339D01*
X145562D01*
Y114639D01*
D02*
G37*
G36*
X51196Y114339D02*
X50895D01*
Y114038D01*
Y113738D01*
X51196D01*
Y114038D01*
Y114339D01*
D02*
G37*
G36*
X50294Y114038D02*
X49994D01*
Y113738D01*
X50294D01*
Y114038D01*
D02*
G37*
G36*
X118214Y113738D02*
X117914D01*
Y113437D01*
X118214D01*
Y113738D01*
D02*
G37*
G36*
X51196Y113137D02*
X50895D01*
Y112836D01*
X51196D01*
Y113137D01*
D02*
G37*
G36*
X117914Y113437D02*
X117613D01*
Y113137D01*
X117914D01*
Y112836D01*
X118214D01*
Y112536D01*
X118514D01*
Y112836D01*
X118214D01*
Y113137D01*
X117914D01*
Y113437D01*
D02*
G37*
G36*
X117613Y112836D02*
X117312D01*
Y112536D01*
X117613D01*
Y112836D01*
D02*
G37*
G36*
X77642Y113137D02*
X77342D01*
Y112836D01*
X77642D01*
Y112536D01*
X77943D01*
Y112836D01*
X77642D01*
Y113137D01*
D02*
G37*
G36*
X118214Y112536D02*
X117914D01*
Y112235D01*
X118214D01*
Y112536D01*
D02*
G37*
G36*
X77342D02*
X77041D01*
Y112235D01*
X77342D01*
Y112536D01*
D02*
G37*
G36*
X144060Y112235D02*
X143759D01*
Y111935D01*
X144060D01*
Y112235D01*
D02*
G37*
G36*
X50895D02*
X50595D01*
Y111935D01*
Y111634D01*
X50895D01*
Y111935D01*
Y112235D01*
D02*
G37*
G36*
X143158D02*
X142858D01*
Y111935D01*
X143158D01*
Y111634D01*
Y111334D01*
X143459D01*
Y111634D01*
Y111935D01*
X143158D01*
Y112235D01*
D02*
G37*
G36*
X144060Y111334D02*
X143759D01*
Y111033D01*
X144060D01*
Y111334D01*
D02*
G37*
G36*
X115209Y111634D02*
X114908D01*
Y111334D01*
X114608D01*
Y111033D01*
X115209D01*
Y111334D01*
Y111634D01*
D02*
G37*
G36*
X143158Y111033D02*
X142858D01*
Y110732D01*
X143158D01*
Y111033D01*
D02*
G37*
G36*
X113406D02*
X113105D01*
Y110732D01*
X113406D01*
Y111033D01*
D02*
G37*
G36*
X80347Y110732D02*
X80047D01*
Y110432D01*
X80347D01*
Y110732D01*
D02*
G37*
G36*
X115209Y110432D02*
X114608D01*
Y110131D01*
X115209D01*
Y110432D01*
D02*
G37*
G36*
X143158Y110131D02*
X142858D01*
Y109831D01*
X143158D01*
Y110131D01*
D02*
G37*
G36*
X116110D02*
X115810D01*
Y109831D01*
X116110D01*
Y110131D01*
D02*
G37*
G36*
X111602D02*
X111302D01*
Y109831D01*
X111602D01*
Y110131D01*
D02*
G37*
G36*
X83653D02*
X83352D01*
Y109831D01*
X83653D01*
Y110131D01*
D02*
G37*
G36*
X80948D02*
X80347D01*
Y109831D01*
X80948D01*
Y110131D01*
D02*
G37*
G36*
X52398Y109831D02*
X52097D01*
Y109530D01*
X52398D01*
Y109831D01*
D02*
G37*
G36*
X142858Y109530D02*
X142557D01*
Y109230D01*
X142858D01*
Y109530D01*
D02*
G37*
G36*
X83052Y110432D02*
X82451D01*
Y110131D01*
X81850D01*
Y109831D01*
X82451D01*
Y109530D01*
Y109230D01*
X82751D01*
Y109530D01*
X83352D01*
Y109230D01*
X83653D01*
Y109530D01*
X83352D01*
Y109831D01*
X83052D01*
Y110131D01*
Y110432D01*
D02*
G37*
G36*
X52999Y109831D02*
X52698D01*
Y109530D01*
Y109230D01*
X52999D01*
Y109530D01*
Y109831D01*
D02*
G37*
G36*
X52097Y109530D02*
X51797D01*
Y109230D01*
X52097D01*
Y109530D01*
D02*
G37*
G36*
X142256Y109831D02*
X141956D01*
Y109530D01*
Y109230D01*
Y108929D01*
X142256D01*
Y109230D01*
Y109530D01*
Y109831D01*
D02*
G37*
G36*
X140453Y109530D02*
X140153D01*
Y109230D01*
Y108929D01*
X140453D01*
Y109230D01*
Y109530D01*
D02*
G37*
G36*
X52698Y109230D02*
X52398D01*
Y108929D01*
X52698D01*
Y109230D01*
D02*
G37*
G36*
X141956Y108929D02*
X141655D01*
Y108629D01*
X141956D01*
Y108929D01*
D02*
G37*
G36*
X109198D02*
X108898D01*
Y108629D01*
X109198D01*
Y108929D01*
D02*
G37*
G36*
X80948D02*
X80047D01*
Y108629D01*
X80948D01*
Y108929D01*
D02*
G37*
G36*
X110701Y108629D02*
X110100D01*
Y108328D01*
X110701D01*
Y108629D01*
D02*
G37*
G36*
X141655D02*
X141355D01*
Y108328D01*
Y108028D01*
X141655D01*
Y108328D01*
Y108629D01*
D02*
G37*
G36*
X110100Y108328D02*
X109198D01*
Y108028D01*
X110100D01*
Y108328D01*
D02*
G37*
G36*
X108296D02*
X107395D01*
Y108028D01*
X108296D01*
Y108328D01*
D02*
G37*
G36*
X89063D02*
X88762D01*
Y108028D01*
X89063D01*
Y108328D01*
D02*
G37*
G36*
X80948D02*
X80047D01*
Y108028D01*
X80948D01*
Y108328D01*
D02*
G37*
G36*
X111302Y108028D02*
X111001D01*
Y107727D01*
X111302D01*
Y108028D01*
D02*
G37*
G36*
X108898D02*
X108597D01*
Y107727D01*
X108898D01*
Y108028D01*
D02*
G37*
G36*
X106794D02*
X106193D01*
Y107727D01*
X106794D01*
Y108028D01*
D02*
G37*
G36*
X90265D02*
X89363D01*
Y107727D01*
X90265D01*
Y108028D01*
D02*
G37*
G36*
X53299Y108328D02*
X52999D01*
Y108028D01*
Y107727D01*
X53299D01*
Y108028D01*
Y108328D01*
D02*
G37*
G36*
X107696Y107727D02*
X107395D01*
Y107427D01*
X107696D01*
Y107727D01*
D02*
G37*
G36*
X91467D02*
X91166D01*
Y107427D01*
X91467D01*
Y107727D01*
D02*
G37*
G36*
X83954Y108028D02*
X82451D01*
Y107727D01*
Y107427D01*
X83954D01*
Y107727D01*
Y108028D01*
D02*
G37*
G36*
X89363Y107727D02*
X88762D01*
Y107427D01*
Y107126D01*
X89664D01*
Y107427D01*
X89363D01*
Y107727D01*
D02*
G37*
G36*
X87560D02*
X86959D01*
Y107427D01*
X87259D01*
Y107126D01*
X87560D01*
Y107427D01*
Y107727D01*
D02*
G37*
G36*
X53901Y107427D02*
X53600D01*
Y107126D01*
X53901D01*
Y107427D01*
D02*
G37*
G36*
X141054Y107126D02*
X140754D01*
Y106826D01*
X141054D01*
Y107126D01*
D02*
G37*
G36*
X54502D02*
X54201D01*
Y106826D01*
X54502D01*
Y107126D01*
D02*
G37*
G36*
X55704Y107427D02*
X55403D01*
Y107126D01*
X55704D01*
Y106826D01*
Y106525D01*
X56004D01*
Y106826D01*
Y107126D01*
X55704D01*
Y107427D01*
D02*
G37*
G36*
X54201Y106826D02*
X53901D01*
Y106525D01*
X54201D01*
Y106826D01*
D02*
G37*
G36*
X54802Y107427D02*
X54502D01*
Y107126D01*
X54802D01*
Y106826D01*
X55103D01*
Y106525D01*
X55403D01*
Y106224D01*
Y105924D01*
X55704D01*
Y106224D01*
Y106525D01*
X55403D01*
Y106826D01*
X55103D01*
Y107126D01*
X54802D01*
Y107427D01*
D02*
G37*
G36*
X55103Y106224D02*
X54502D01*
Y105924D01*
X55103D01*
Y105624D01*
X55403D01*
Y105323D01*
X55704D01*
Y105624D01*
X55403D01*
Y105924D01*
X55103D01*
Y106224D01*
D02*
G37*
G36*
X57807Y105022D02*
X57206D01*
Y104722D01*
X57807D01*
Y105022D01*
D02*
G37*
G36*
X138350D02*
X138049D01*
Y104722D01*
Y104421D01*
Y104121D01*
X138350D01*
Y104421D01*
Y104722D01*
Y105022D01*
D02*
G37*
G36*
X135945D02*
X135344D01*
Y104722D01*
Y104421D01*
Y104121D01*
X135945D01*
Y104421D01*
Y104722D01*
Y105022D01*
D02*
G37*
G36*
X58709D02*
X58108D01*
Y104722D01*
Y104421D01*
Y104121D01*
X58408D01*
Y104421D01*
Y104722D01*
X58709D01*
Y105022D01*
D02*
G37*
G36*
X138049Y104121D02*
X137748D01*
Y103820D01*
X138049D01*
Y104121D01*
D02*
G37*
G36*
X137147Y103520D02*
X136847D01*
Y103219D01*
X136546D01*
Y102919D01*
X137448D01*
Y103219D01*
X137147D01*
Y103520D01*
D02*
G37*
G36*
X56605Y105022D02*
X56305D01*
Y104722D01*
X56004D01*
Y104421D01*
X56605D01*
Y104121D01*
Y103820D01*
X56906D01*
Y103520D01*
X57206D01*
Y103219D01*
X57507D01*
Y103520D01*
X58108D01*
Y103219D01*
Y102919D01*
X58408D01*
Y103219D01*
Y103520D01*
X58108D01*
Y103820D01*
Y104121D01*
X57807D01*
Y103820D01*
X57206D01*
Y104121D01*
Y104421D01*
X56605D01*
Y104722D01*
Y105022D01*
D02*
G37*
G36*
X59911Y102919D02*
X59310D01*
Y102618D01*
X59911D01*
Y102919D01*
D02*
G37*
G36*
X58108D02*
X57507D01*
Y102618D01*
X58108D01*
Y102919D01*
D02*
G37*
G36*
X136847Y102618D02*
X136546D01*
Y102318D01*
X136847D01*
Y102618D01*
D02*
G37*
G36*
X61714Y102318D02*
X61414D01*
Y102017D01*
X61113D01*
Y102318D01*
X60813D01*
Y102017D01*
Y101717D01*
X60512D01*
Y102017D01*
X60212D01*
Y102318D01*
X59611D01*
Y102017D01*
X59911D01*
Y101717D01*
X60512D01*
Y101416D01*
Y101116D01*
X61113D01*
Y101416D01*
X61714D01*
Y101717D01*
X62015D01*
Y102017D01*
X61714D01*
Y102318D01*
D02*
G37*
G36*
X59310Y102618D02*
X58709D01*
Y102318D01*
X58408D01*
Y102017D01*
Y101717D01*
X58709D01*
Y102017D01*
X59010D01*
Y102318D01*
X59310D01*
Y102618D01*
D02*
G37*
G36*
X135044Y101416D02*
X134743D01*
Y101116D01*
X135044D01*
Y101416D01*
D02*
G37*
G36*
X134743Y101116D02*
X134443D01*
Y100815D01*
X134743D01*
Y101116D01*
D02*
G37*
G36*
X130836Y100815D02*
X130536D01*
Y100514D01*
X130836D01*
Y100815D01*
D02*
G37*
G36*
X63517Y100514D02*
X62616D01*
Y100214D01*
X63517D01*
Y100514D01*
D02*
G37*
G36*
X134142Y100214D02*
X133240D01*
Y99913D01*
X134142D01*
Y100214D01*
D02*
G37*
G36*
X132940D02*
X132640D01*
Y99913D01*
X131738D01*
Y100214D01*
X131437D01*
Y99913D01*
X131738D01*
Y99613D01*
X132038D01*
Y99312D01*
X132339D01*
Y99012D01*
X133240D01*
Y99312D01*
X132640D01*
Y99613D01*
X133240D01*
Y99312D01*
X133541D01*
Y99613D01*
X133240D01*
Y99913D01*
X132940D01*
Y100214D01*
D02*
G37*
%LPD*%
D10*
X737498Y560964D02*
G03*
X737498Y560964I-1250J0D01*
G01*
X579097Y573026D02*
G03*
X579097Y573026I-1250J0D01*
G01*
D11*
X722871Y407669D02*
G03*
X722871Y407669I-749J0D01*
G01*
Y239775D02*
G03*
X722871Y239775I-749J0D01*
G01*
X703048Y407392D02*
X703066D01*
X718057Y377392D02*
Y378900D01*
X709548Y377392D02*
X718057D01*
X703048D02*
X703066D01*
X688057D02*
X696566D01*
X688057Y407392D02*
X696565D01*
X709548D02*
X718057D01*
Y405883D02*
Y407392D01*
X688057Y377392D02*
Y379450D01*
Y405333D02*
Y407392D01*
X703048Y239498D02*
X703066D01*
X718057Y209498D02*
Y211006D01*
X709548Y209498D02*
X718057D01*
X703048D02*
X703066D01*
X688057D02*
X696566D01*
X688057Y239498D02*
X696565D01*
X709548D02*
X718057D01*
Y237989D02*
Y239498D01*
X688057Y209498D02*
Y211556D01*
Y237439D02*
Y239498D01*
D12*
X615700Y385572D02*
G03*
X615700Y385572I-31500J0D01*
G01*
Y216916D02*
G03*
X615700Y216916I-31500J0D01*
G01*
X542379D02*
G03*
X542379Y216916I-31500J0D01*
G01*
X469057D02*
G03*
X469057Y216916I-31500J0D01*
G01*
X395736D02*
G03*
X395736Y216916I-31500J0D01*
G01*
X615700Y48768D02*
G03*
X615700Y48768I-31500J0D01*
G01*
X542379D02*
G03*
X542379Y48768I-31500J0D01*
G01*
X395736D02*
G03*
X395736Y48768I-31500J0D01*
G01*
X469057D02*
G03*
X469057Y48768I-31500J0D01*
G01*
X542379Y385572D02*
G03*
X542379Y385572I-31500J0D01*
G01*
X469057D02*
G03*
X469057Y385572I-31500J0D01*
G01*
X395736D02*
G03*
X395736Y385572I-31500J0D01*
G01*
X285068Y592836D02*
X288604Y589300D01*
X285068Y592836D02*
X288604Y596372D01*
X351536Y659304D02*
X355072Y655768D01*
X348000D02*
X351536Y659304D01*
X414468Y589300D02*
X418004Y592836D01*
X414468Y596372D02*
X418004Y592836D01*
X351536Y526368D02*
X355072Y529904D01*
X348000D02*
X351536Y526368D01*
X730997Y99675D02*
X748872Y81799D01*
X676550Y45227D02*
X694425Y27352D01*
X694934Y76340D02*
X703476Y84882D01*
X699884Y99250D02*
X703476Y84882D01*
X675630Y123504D02*
X699884Y99250D01*
X652720Y100594D02*
X676974Y76340D01*
X691342Y72748D01*
X694934Y76340D01*
X681853Y39924D02*
X736300Y94371D01*
X726471Y120463D02*
X739128Y107806D01*
X730997Y99675D02*
X739128Y107806D01*
X655761Y49753D02*
X668418Y37095D01*
X676550Y45227D01*
X694425Y27352D02*
X748872Y81799D01*
X636952Y84825D02*
X691399Y139272D01*
X730148Y522214D02*
Y530964D01*
X761848Y522214D02*
Y530964D01*
X730148Y544664D02*
Y552714D01*
X761848Y544664D02*
Y552714D01*
X456542Y671696D02*
X467718D01*
X467972Y660266D02*
Y671696D01*
X576837Y584456D02*
Y594616D01*
X545837Y584456D02*
Y594616D01*
Y584456D02*
X576837D01*
X545837Y594616D02*
X576837D01*
D13*
X727770Y628575D02*
G03*
X727770Y628575I-17780J0D01*
G01*
X717553Y578271D02*
G03*
X711260Y671828I-6293J46567D01*
G01*
X126962Y608396D02*
Y648396D01*
X26962Y608396D02*
Y648396D01*
X109645D02*
X126962D01*
X61644D02*
X92280D01*
X26962D02*
X44279D01*
X109645Y608396D02*
X126962D01*
X61644D02*
X92280D01*
X26962D02*
X44279D01*
X551200Y404072D02*
X565700Y418572D01*
X551200Y352572D02*
X617200D01*
X551200D02*
Y404072D01*
X565700Y418572D02*
X601700D01*
X617200Y403072D01*
Y352572D02*
Y403072D01*
X551200Y235416D02*
X565700Y249916D01*
X551200Y183916D02*
X617200D01*
X551200D02*
Y235416D01*
X565700Y249916D02*
X601700D01*
X617200Y234416D01*
Y183916D02*
Y234416D01*
X477879Y235416D02*
X492379Y249916D01*
X477879Y183916D02*
X543879D01*
X477879D02*
Y235416D01*
X492379Y249916D02*
X528379D01*
X543879Y234416D01*
Y183916D02*
Y234416D01*
X404557Y235416D02*
X419057Y249916D01*
X404557Y183916D02*
X470557D01*
X404557D02*
Y235416D01*
X419057Y249916D02*
X455057D01*
X470557Y234416D01*
Y183916D02*
Y234416D01*
X331236Y235416D02*
X345736Y249916D01*
X331236Y183916D02*
X397236D01*
X331236D02*
Y235416D01*
X345736Y249916D02*
X381736D01*
X397236Y234416D01*
Y183916D02*
Y234416D01*
X551200Y67268D02*
X565700Y81768D01*
X551200Y15768D02*
X617200D01*
X551200D02*
Y67268D01*
X565700Y81768D02*
X601700D01*
X617200Y66268D01*
Y15768D02*
Y66268D01*
X477879Y67268D02*
X492379Y81768D01*
X477879Y15768D02*
X543879D01*
X477879D02*
Y67268D01*
X492379Y81768D02*
X528379D01*
X543879Y66268D01*
Y15768D02*
Y66268D01*
X331236Y67268D02*
X345736Y81768D01*
X331236Y15768D02*
X397236D01*
X331236D02*
Y67268D01*
X345736Y81768D02*
X381736D01*
X397236Y66268D01*
Y15768D02*
Y66268D01*
X404557Y67268D02*
X419057Y81768D01*
X404557Y15768D02*
X470557D01*
X404557D02*
Y67268D01*
X419057Y81768D02*
X455057D01*
X470557Y66268D01*
Y15768D02*
Y66268D01*
X477879Y404072D02*
X492379Y418572D01*
X477879Y352572D02*
X543879D01*
X477879D02*
Y404072D01*
X492379Y418572D02*
X528379D01*
X543879Y403072D01*
Y352572D02*
Y403072D01*
X404557Y404072D02*
X419057Y418572D01*
X404557Y352572D02*
X470557D01*
X404557D02*
Y404072D01*
X419057Y418572D02*
X455057D01*
X470557Y403072D01*
Y352572D02*
Y403072D01*
X331236Y404072D02*
X345736Y418572D01*
X331236Y352572D02*
X397236D01*
X331236D02*
Y404072D01*
X345736Y418572D02*
X381736D01*
X397236Y403072D01*
Y352572D02*
Y403072D01*
X640140Y578271D02*
Y671828D01*
X711260D01*
X640140Y578271D02*
X717553D01*
X312420Y80765D02*
Y68070D01*
X309881Y65530D01*
X304802D01*
X302263Y68070D01*
Y80765D01*
X287028Y78226D02*
X289567Y80765D01*
X294646D01*
X297185Y78226D01*
Y75687D01*
X294646Y73148D01*
X289567D01*
X287028Y70609D01*
Y68070D01*
X289567Y65530D01*
X294646D01*
X297185Y68070D01*
X281950Y80765D02*
Y65530D01*
X274332D01*
X271793Y68070D01*
Y70609D01*
X274332Y73148D01*
X281950D01*
X274332D01*
X271793Y75687D01*
Y78226D01*
X274332Y80765D01*
X281950D01*
X266715Y78226D02*
X264176Y80765D01*
X259097D01*
X256558Y78226D01*
Y75687D01*
X259097Y73148D01*
X261636D01*
X259097D01*
X256558Y70609D01*
Y68070D01*
X259097Y65530D01*
X264176D01*
X266715Y68070D01*
X251480Y65530D02*
Y68070D01*
X248941D01*
Y65530D01*
X251480D01*
X238784Y78226D02*
X236245Y80765D01*
X231166D01*
X228627Y78226D01*
Y68070D01*
X231166Y65530D01*
X236245D01*
X238784Y68070D01*
Y78226D01*
X198157D02*
X200696Y80765D01*
X205774D01*
X208314Y78226D01*
Y68070D01*
X205774Y65530D01*
X200696D01*
X198157Y68070D01*
Y73148D01*
X203235D01*
X185461Y65530D02*
X190539D01*
X193079Y68070D01*
Y73148D01*
X190539Y75687D01*
X185461D01*
X182922Y73148D01*
Y70609D01*
X193079D01*
X177843Y65530D02*
Y75687D01*
X170226D01*
X167687Y73148D01*
Y65530D01*
X152452D02*
X162609D01*
X152452Y75687D01*
Y78226D01*
X154991Y80765D01*
X160069D01*
X162609Y78226D01*
X147373Y65530D02*
X137217Y75687D01*
X132138Y65530D02*
X127060D01*
X129599D01*
Y80765D01*
X132138Y78226D01*
X119442D02*
X116903Y80765D01*
X111825D01*
X109286Y78226D01*
Y68070D01*
X111825Y65530D01*
X116903D01*
X119442Y68070D01*
Y78226D01*
X94051D02*
X96590Y80765D01*
X101668D01*
X104207Y78226D01*
Y68070D01*
X101668Y65530D01*
X96590D01*
X94051Y68070D01*
Y73148D01*
X99129D01*
X88972Y60452D02*
Y75687D01*
X81355D01*
X78816Y73148D01*
Y68070D01*
X81355Y65530D01*
X88972D01*
X73737Y80765D02*
Y65530D01*
X66120D01*
X63580Y68070D01*
Y70609D01*
Y73148D01*
X66120Y75687D01*
X73737D01*
X58502Y65530D02*
X50885D01*
X48345Y68070D01*
X50885Y70609D01*
X55963D01*
X58502Y73148D01*
X55963Y75687D01*
X48345D01*
D14*
X725778Y178006D02*
Y188166D01*
X732636Y175720D02*
Y176990D01*
X725778Y188166D02*
X739494D01*
Y178006D02*
Y188166D01*
X730096Y175720D02*
X735176D01*
X730096Y173688D02*
X735176D01*
X725778Y161242D02*
Y171402D01*
X732636Y172418D02*
Y173688D01*
X725778Y161242D02*
X739494D01*
Y171402D01*
X611950Y413862D02*
Y419862D01*
X608950Y416822D02*
X614990D01*
X611950Y245206D02*
Y251206D01*
X608950Y248166D02*
X614990D01*
X538629Y245206D02*
Y251206D01*
X535629Y248166D02*
X541669D01*
X465307Y245206D02*
Y251206D01*
X462307Y248166D02*
X468347D01*
X391986Y245206D02*
Y251206D01*
X388986Y248166D02*
X395026D01*
X611950Y77058D02*
Y83058D01*
X608950Y80018D02*
X614990D01*
X538629Y77058D02*
Y83058D01*
X535629Y80018D02*
X541669D01*
X391986Y77058D02*
Y83058D01*
X388986Y80018D02*
X395026D01*
X465307Y77058D02*
Y83058D01*
X462307Y80018D02*
X468347D01*
X538629Y413862D02*
Y419862D01*
X535629Y416822D02*
X541669D01*
X465307Y413862D02*
Y419862D01*
X462307Y416822D02*
X468347D01*
X391986Y413862D02*
Y419862D01*
X388986Y416822D02*
X395026D01*
X725794Y446532D02*
X735954D01*
X736970Y439674D02*
X738240D01*
X740272Y437134D02*
Y442214D01*
X742558Y446532D02*
X752718D01*
X740272Y439674D02*
X741542D01*
X725794Y432816D02*
Y446532D01*
Y432816D02*
X735954D01*
X738240Y437134D02*
Y442214D01*
X752718Y432816D02*
Y446532D01*
X742558Y432816D02*
X752718D01*
X770636Y345810D02*
Y355970D01*
X763778Y343524D02*
Y344794D01*
X761238Y341492D02*
X766318D01*
X770636Y329046D02*
Y339206D01*
X763778Y340222D02*
Y341492D01*
X756920Y355970D02*
X770636D01*
X756920Y345810D02*
Y355970D01*
X761238Y343524D02*
X766318D01*
X756920Y329046D02*
X770636D01*
X756920D02*
Y339206D01*
X710184Y345810D02*
Y355970D01*
X717042Y343524D02*
Y344794D01*
X710184Y355970D02*
X723900D01*
Y345810D02*
Y355970D01*
X714502Y343524D02*
X719582D01*
X714502Y341492D02*
X719582D01*
X710184Y329046D02*
Y339206D01*
X717042Y340222D02*
Y341492D01*
X710184Y329046D02*
X723900D01*
Y339206D01*
X739479Y345810D02*
Y355970D01*
X732621Y343524D02*
Y344794D01*
X730081Y341492D02*
X735161D01*
X739479Y329046D02*
Y339206D01*
X732621Y340222D02*
Y341492D01*
X725763Y355970D02*
X739479D01*
X725763Y345810D02*
Y355970D01*
X730081Y343524D02*
X735161D01*
X725763Y329046D02*
X739479D01*
X725763D02*
Y339206D01*
X725794Y417322D02*
X735954D01*
X736970Y424180D02*
X738240D01*
X740272Y421640D02*
Y426720D01*
X742558Y417322D02*
X752718D01*
X740272Y424180D02*
X741542D01*
X725794Y417322D02*
Y431038D01*
X735954D01*
X738240Y421640D02*
Y426720D01*
X752718Y417322D02*
Y431038D01*
X742558D02*
X752718D01*
X714110D02*
X724270D01*
X711824Y424180D02*
X713094D01*
X709792Y421640D02*
Y426720D01*
X697346Y431038D02*
X707506D01*
X708522Y424180D02*
X709792D01*
X724270Y417322D02*
Y431038D01*
X714110Y417322D02*
X724270D01*
X711824Y421640D02*
Y426720D01*
X697346Y417322D02*
Y431038D01*
Y417322D02*
X707506D01*
X654745Y234496D02*
X672245D01*
X654745Y225352D02*
X672245D01*
Y234496D01*
X654745Y225352D02*
Y234496D01*
X756935Y161242D02*
X770651D01*
X756935Y188166D02*
X770651D01*
X756935Y161242D02*
Y171402D01*
X770651Y178006D02*
Y188166D01*
Y161242D02*
Y171402D01*
X756935Y178006D02*
Y188166D01*
X763793Y172418D02*
Y173688D01*
Y175720D02*
Y176990D01*
X761253Y175720D02*
X766333D01*
X761253Y173688D02*
X766333D01*
X752733Y249518D02*
Y263234D01*
X725809Y249518D02*
Y263234D01*
X742573Y249518D02*
X752733D01*
X725809Y263234D02*
X735969D01*
X742573D02*
X752733D01*
X725809Y249518D02*
X735969D01*
X740287Y256376D02*
X741557D01*
X736985D02*
X738255D01*
Y253836D02*
Y258916D01*
X740287Y253836D02*
Y258916D01*
X752733Y265012D02*
Y278728D01*
X725809Y265012D02*
Y278728D01*
X742573Y265012D02*
X752733D01*
X725809Y278728D02*
X735969D01*
X742573D02*
X752733D01*
X725809Y265012D02*
X735969D01*
X740287Y271870D02*
X741557D01*
X736985D02*
X738255D01*
Y269330D02*
Y274410D01*
X740287Y269330D02*
Y274410D01*
X654745Y267044D02*
X672245D01*
X654745Y257900D02*
X672245D01*
Y267044D01*
X654745Y257900D02*
Y267044D01*
X697361Y265012D02*
Y278728D01*
X724285Y265012D02*
Y278728D01*
X697361D02*
X707521D01*
X714125Y265012D02*
X724285D01*
X697361D02*
X707521D01*
X714125Y278728D02*
X724285D01*
X708537Y271870D02*
X709807D01*
X711839D02*
X713109D01*
X711839Y269330D02*
Y274410D01*
X709807Y269330D02*
Y274410D01*
X654745Y223646D02*
X672245D01*
X654745Y214502D02*
X672245D01*
Y223646D01*
X654745Y214502D02*
Y223646D01*
X697361Y249518D02*
Y263234D01*
X724285Y249518D02*
Y263234D01*
X697361D02*
X707521D01*
X714125Y249518D02*
X724285D01*
X697361D02*
X707521D01*
X714125Y263234D02*
X724285D01*
X708537Y256376D02*
X709807D01*
X711839D02*
X713109D01*
X711839Y253836D02*
Y258916D01*
X709807Y253836D02*
Y258916D01*
X654745Y236201D02*
X672245D01*
X654745Y245345D02*
X672245D01*
X654745Y236201D02*
Y245345D01*
X672245Y236201D02*
Y245345D01*
X643905Y216244D02*
Y222200D01*
X653049Y204701D02*
Y210656D01*
Y216244D02*
Y222200D01*
X643905Y204700D02*
Y210656D01*
Y204700D02*
X653049D01*
X643905Y222200D02*
X653049D01*
X764794Y544494D02*
X773938D01*
X764794Y561994D02*
X773938D01*
Y544494D02*
Y561994D01*
X764794Y544494D02*
Y561994D01*
X511048Y659638D02*
X524764D01*
X511048Y632714D02*
X524764D01*
Y649478D02*
Y659638D01*
X511048Y632714D02*
Y642874D01*
Y649478D02*
Y659638D01*
X524764Y632714D02*
Y642874D01*
X517906Y647192D02*
Y648462D01*
Y643890D02*
Y645160D01*
X515366D02*
X520446D01*
X515366Y647192D02*
X520446D01*
X494030Y519430D02*
X507746D01*
X494030Y546354D02*
X507746D01*
X494030Y519430D02*
Y529590D01*
X507746Y536194D02*
Y546354D01*
Y519430D02*
Y529590D01*
X494030Y536194D02*
Y546354D01*
X500888Y530606D02*
Y531876D01*
Y533908D02*
Y535178D01*
X498348Y533908D02*
X503428D01*
X498348Y531876D02*
X503428D01*
X494538Y659638D02*
X508254D01*
X494538Y632714D02*
X508254D01*
Y649478D02*
Y659638D01*
X494538Y632714D02*
Y642874D01*
Y649478D02*
Y659638D01*
X508254Y632714D02*
Y642874D01*
X501396Y647192D02*
Y648462D01*
Y643890D02*
Y645160D01*
X498856D02*
X503936D01*
X498856Y647192D02*
X503936D01*
X588518Y543102D02*
Y560602D01*
Y543102D02*
X597662D01*
X588518Y560602D02*
X597662D01*
Y543102D02*
Y560602D01*
X597408Y618852D02*
Y636352D01*
X588264D02*
X597408D01*
X588264Y618852D02*
X597408D01*
X588264D02*
Y636352D01*
X597916Y519606D02*
Y537106D01*
X588772D02*
X597916D01*
X588772Y519606D02*
X597916D01*
X588772D02*
Y537106D01*
X576834Y519670D02*
Y537170D01*
Y519670D02*
X585978D01*
X576834Y537170D02*
X585978D01*
Y519670D02*
Y537170D01*
X585724Y542974D02*
Y560474D01*
X576580D02*
X585724D01*
X576580Y542974D02*
X585724D01*
X576580D02*
Y560474D01*
X525134Y575056D02*
X535294D01*
X522848Y581914D02*
X524118D01*
X520816Y579374D02*
Y584454D01*
X508370Y575056D02*
X518530D01*
X519546Y581914D02*
X520816D01*
X535294Y575056D02*
Y588772D01*
X525134D02*
X535294D01*
X522848Y579374D02*
Y584454D01*
X508370Y575056D02*
Y588772D01*
X518530D01*
X525134Y591058D02*
X535294D01*
X522848Y597916D02*
X524118D01*
X520816Y595376D02*
Y600456D01*
X508370Y591058D02*
X518530D01*
X519546Y597916D02*
X520816D01*
X535294Y591058D02*
Y604774D01*
X525134D02*
X535294D01*
X522848Y595376D02*
Y600456D01*
X508370Y591058D02*
Y604774D01*
X518530D01*
X234048Y640334D02*
Y649478D01*
X228092Y640334D02*
X234048D01*
X228092Y649478D02*
X234048D01*
X216548D02*
X222504D01*
X216548Y640334D02*
X222504D01*
X216548D02*
Y649478D01*
X234048Y651002D02*
Y660146D01*
X228092Y651002D02*
X234048D01*
X228092Y660146D02*
X234048D01*
X216548D02*
X222504D01*
X216548Y651002D02*
X222504D01*
X216548D02*
Y660146D01*
X233794Y627126D02*
Y636270D01*
X227838Y627126D02*
X233794D01*
X227838Y636270D02*
X233794D01*
X216294D02*
X222250D01*
X216294Y627126D02*
X222250D01*
X216294D02*
Y636270D01*
X233794Y616458D02*
Y625602D01*
X227838Y616458D02*
X233794D01*
X227838Y625602D02*
X233794D01*
X216294D02*
X222250D01*
X216294Y616458D02*
X222250D01*
X216294D02*
Y625602D01*
X378897Y671621D02*
X385363Y665155D01*
X366523Y659246D02*
X378897Y671621D01*
X372988Y652781D02*
X385363Y665155D01*
X366523Y659246D02*
X372988Y652781D01*
X350734Y509016D02*
Y518160D01*
X333234D02*
X350734D01*
X333234Y509016D02*
Y518160D01*
Y509016D02*
X350734D01*
X387358Y529951D02*
X391570Y525740D01*
X385104Y519274D02*
X391570Y525740D01*
X379196Y538114D02*
X383407Y533903D01*
X372730Y531649D02*
X379195Y538114D01*
X380893Y523486D02*
X385104Y519274D01*
X372730Y531648D02*
X376941Y527437D01*
X432054Y643890D02*
Y649846D01*
Y632346D02*
Y638302D01*
X422910Y649846D02*
X432054D01*
X422910Y643890D02*
Y649846D01*
Y632346D02*
X432054D01*
X422910Y632346D02*
Y638302D01*
X432054Y664464D02*
Y670420D01*
Y652920D02*
Y658876D01*
X422910Y670420D02*
X432054D01*
X422910Y664464D02*
Y670420D01*
Y652920D02*
X432054D01*
X422910D02*
Y658876D01*
X405014Y646429D02*
X411479Y639964D01*
X392639Y634055D02*
X405014Y646429D01*
X399105Y627589D02*
X411479Y639964D01*
X392639Y634055D02*
X399105Y627589D01*
X415522Y611218D02*
X421988Y604752D01*
X427896Y623592D02*
X434362Y617126D01*
X430150Y612915D02*
X434362Y617126D01*
X415522Y611218D02*
X419734Y615429D01*
X423685Y619380D02*
X427896Y623592D01*
X421988Y604752D02*
X426199Y608964D01*
X384788Y641698D02*
X391254Y635232D01*
X397162Y654072D02*
X403628Y647606D01*
X399417Y643395D02*
X403628Y647606D01*
X384788Y641698D02*
X388999Y645909D01*
X392951Y649861D02*
X397162Y654072D01*
X391254Y635232D02*
X395465Y639444D01*
X287555Y574944D02*
X294020Y568479D01*
X275180Y562570D02*
X281646Y556104D01*
X275180Y562570D02*
X279392Y566781D01*
X289809Y564267D02*
X294020Y568478D01*
X281646Y556104D02*
X285857Y560316D01*
X283343Y570733D02*
X287554Y574944D01*
X390630Y550070D02*
X397096Y556536D01*
X403004Y537696D02*
X409470Y544162D01*
X398793Y541908D02*
X403004Y537696D01*
X397096Y556536D02*
X401307Y552324D01*
X405258Y548373D02*
X409470Y544162D01*
X390630Y550070D02*
X394841Y545859D01*
X410602Y545339D02*
X417067Y551804D01*
X398227Y557713D02*
X404693Y564179D01*
X417067Y551804D01*
X398227Y557713D02*
X410602Y545339D01*
X321083Y541162D02*
X327548Y534697D01*
X308708Y528788D02*
X315174Y522322D01*
X308708Y528788D02*
X312920Y532999D01*
X323337Y530485D02*
X327548Y534696D01*
X315174Y522322D02*
X319385Y526534D01*
X316871Y536951D02*
X321082Y541162D01*
X407902Y618838D02*
X414368Y612372D01*
X420276Y631212D02*
X426742Y624746D01*
X422531Y620535D02*
X426742Y624746D01*
X407902Y618838D02*
X412113Y623049D01*
X416065Y627001D02*
X420276Y631212D01*
X414368Y612372D02*
X418579Y616584D01*
X400282Y626458D02*
X406748Y619992D01*
X412656Y638832D02*
X419122Y632366D01*
X414911Y628155D02*
X419122Y632366D01*
X400282Y626458D02*
X404493Y630669D01*
X408445Y634621D02*
X412656Y638832D01*
X406748Y619992D02*
X410959Y624203D01*
X327179Y650352D02*
X333644Y656817D01*
X314804Y662726D02*
X321270Y669192D01*
X325481Y664980D01*
X322967Y654563D02*
X327178Y650352D01*
X314804Y662726D02*
X319016Y658515D01*
X329433Y661029D02*
X333644Y656818D01*
X318289Y641462D02*
X324754Y647927D01*
X305914Y653836D02*
X312380Y660302D01*
X316591Y656090D01*
X314077Y645673D02*
X318288Y641462D01*
X305914Y653836D02*
X310126Y649625D01*
X320543Y652139D02*
X324754Y647928D01*
X310415Y633588D02*
X316880Y640053D01*
X298040Y645962D02*
X304506Y652428D01*
X308717Y648216D01*
X306203Y637799D02*
X310414Y633588D01*
X298040Y645962D02*
X302252Y641751D01*
X312669Y644265D02*
X316880Y640054D01*
X312701Y549798D02*
X319166Y543333D01*
X300326Y537424D02*
X306792Y530958D01*
X300326Y537424D02*
X304538Y541635D01*
X314955Y539121D02*
X319166Y543332D01*
X306792Y530958D02*
X311003Y535170D01*
X308489Y545587D02*
X312700Y549798D01*
X304827Y557672D02*
X311292Y551207D01*
X292452Y545298D02*
X298918Y538832D01*
X292452Y545298D02*
X296664Y549509D01*
X307081Y546995D02*
X311292Y551206D01*
X298918Y538832D02*
X303129Y543044D01*
X300615Y553461D02*
X304826Y557672D01*
X295683Y566816D02*
X302148Y560351D01*
X283308Y554442D02*
X289774Y547976D01*
X283308Y554442D02*
X287520Y558653D01*
X297937Y556139D02*
X302148Y560350D01*
X289774Y547976D02*
X293985Y552188D01*
X291471Y562605D02*
X295682Y566816D01*
X301779Y624952D02*
X308244Y631417D01*
X289404Y637326D02*
X295870Y643792D01*
X300081Y639580D01*
X297567Y629163D02*
X301778Y624952D01*
X289404Y637326D02*
X293616Y633115D01*
X304033Y635629D02*
X308244Y631418D01*
X370346Y509016D02*
Y518160D01*
X352846Y509016D02*
Y518160D01*
X370346D01*
X352846Y509016D02*
X370346D01*
X386472Y663955D02*
X392937Y657490D01*
X374097Y651581D02*
X380563Y645115D01*
X374097Y651581D02*
X386472Y663955D01*
X380563Y645115D02*
X392937Y657490D01*
X332980Y663194D02*
Y672338D01*
X350480Y663194D02*
Y672338D01*
X332980Y663194D02*
X350480D01*
X332980Y672338D02*
X350480D01*
X303826Y518668D02*
Y527812D01*
X286326Y518668D02*
Y527812D01*
X292282D01*
X297870Y518668D02*
X303826D01*
X286327D02*
X292282D01*
X297870Y527812D02*
X303826D01*
X672230Y404005D02*
Y413149D01*
X654730Y404005D02*
Y413149D01*
X672230D01*
X654730Y404005D02*
X672230D01*
X654730Y382306D02*
Y391450D01*
X672230Y382306D02*
Y391450D01*
X654730Y382306D02*
X672230D01*
X654730Y391450D02*
X672230D01*
X654745Y192804D02*
Y201948D01*
X672245Y192804D02*
Y201948D01*
X654745Y192804D02*
X672245D01*
X654745Y201948D02*
X672245D01*
X654730Y360607D02*
Y369751D01*
X672230Y360607D02*
Y369751D01*
X654730Y360607D02*
X672230D01*
X654730Y369751D02*
X672230D01*
X588264Y642284D02*
X597408D01*
X588264Y659784D02*
X597408D01*
Y642284D02*
Y659784D01*
X588264Y642284D02*
Y659784D01*
X714517Y173688D02*
X719597D01*
X714517Y175720D02*
X719597D01*
X717057D02*
Y176990D01*
Y172418D02*
Y173688D01*
X710199Y178006D02*
Y188166D01*
X723915Y161242D02*
Y171402D01*
Y178006D02*
Y188166D01*
X710199Y161242D02*
Y171402D01*
Y188166D02*
X723915D01*
X710199Y161242D02*
X723915D01*
X745675Y173688D02*
X750755D01*
X745675Y175720D02*
X750755D01*
X748215D02*
Y176990D01*
Y172418D02*
Y173688D01*
X741357Y178006D02*
Y188166D01*
X755073Y161242D02*
Y171402D01*
Y178006D02*
Y188166D01*
X741357Y161242D02*
Y171402D01*
Y188166D02*
X755073D01*
X741357Y161242D02*
X755073D01*
X654730Y425704D02*
Y434848D01*
X672230Y425704D02*
Y434848D01*
X654730Y425704D02*
X672230D01*
X654730Y434848D02*
X672230D01*
X643890Y390004D02*
X653034D01*
X643890Y372504D02*
X653034D01*
X643890D02*
Y378460D01*
X653034Y384048D02*
Y390004D01*
Y372504D02*
Y378460D01*
X643890Y384048D02*
Y390004D01*
X745659Y341492D02*
X750739D01*
X745659Y343524D02*
X750739D01*
X748199D02*
Y344794D01*
Y340222D02*
Y341492D01*
X741341Y345810D02*
Y355970D01*
X755057Y329046D02*
Y339206D01*
Y345810D02*
Y355970D01*
X741341Y329046D02*
Y339206D01*
Y355970D02*
X755057D01*
X741341Y329046D02*
X755057D01*
X515112Y531876D02*
X520192D01*
X515112Y533908D02*
X520192D01*
X517652D02*
Y535178D01*
Y530606D02*
Y531876D01*
X510794Y536194D02*
Y546354D01*
X524510Y519430D02*
Y529590D01*
Y536194D02*
Y546354D01*
X510794Y519430D02*
Y529590D01*
Y546354D02*
X524510D01*
X510794Y519430D02*
X524510D01*
X709792Y437134D02*
Y442214D01*
X711824Y437134D02*
Y442214D01*
Y439674D02*
X713094D01*
X708522D02*
X709792D01*
X714110Y446532D02*
X724270D01*
X697346Y432816D02*
X707506D01*
X714110D02*
X724270D01*
X697346Y446532D02*
X707506D01*
X724270Y432816D02*
Y446532D01*
X697346Y432816D02*
Y446532D01*
X654745Y181954D02*
Y191098D01*
X672245Y181954D02*
Y191098D01*
X654745Y181954D02*
X672245D01*
X654745Y191098D02*
X672245D01*
X576580Y618848D02*
X585724D01*
X576580Y636348D02*
X585724D01*
Y618848D02*
Y636348D01*
X576580Y618848D02*
Y636348D01*
X576834Y659720D02*
X585978D01*
X576834Y642220D02*
X585978D01*
X576834D02*
Y659720D01*
X585978Y642220D02*
Y659720D01*
X654730Y393156D02*
Y402300D01*
X672230Y393156D02*
Y402300D01*
X654730Y393156D02*
X672230D01*
X654730Y402300D02*
X672230D01*
X654730Y349758D02*
Y358902D01*
X672230Y349758D02*
Y358902D01*
X654730Y349758D02*
X672230D01*
X654730Y358902D02*
X672230D01*
X672245Y203653D02*
Y212797D01*
X654745Y203653D02*
Y212797D01*
X660701D01*
X666289Y203653D02*
X672245D01*
X654746D02*
X660701D01*
X666289Y212797D02*
X672245D01*
X672230Y414854D02*
Y423998D01*
X654730Y414854D02*
Y423998D01*
X660686D01*
X666274Y414854D02*
X672230D01*
X654730D02*
X660686D01*
X666274Y423998D02*
X672230D01*
X672245Y247051D02*
Y256195D01*
X654745Y247051D02*
Y256195D01*
X660701D01*
X666289Y247051D02*
X672245D01*
X654746D02*
X660701D01*
X666289Y256195D02*
X672245D01*
X672230Y371457D02*
Y380601D01*
X654730Y371457D02*
Y380601D01*
X660686D01*
X666274Y371457D02*
X672230D01*
X654730D02*
X660686D01*
X666274Y380601D02*
X672230D01*
X352660Y663194D02*
X370160D01*
X352660Y672338D02*
X370160D01*
X352660Y663194D02*
Y672338D01*
X370160Y663194D02*
Y672338D01*
X318263Y518530D02*
X330637Y530905D01*
X324728Y512065D02*
X337103Y524439D01*
X330637Y530905D02*
X337103Y524439D01*
X318263Y518530D02*
X324728Y512065D01*
X382944Y542516D02*
X395319Y530141D01*
X389410Y548982D02*
X401785Y536607D01*
X382944Y542516D02*
X389410Y548982D01*
X395319Y530141D02*
X401785Y536607D01*
X405651Y537846D02*
X409862Y542058D01*
X403954Y523218D02*
X408165Y527430D01*
X412117Y531381D02*
X416328Y535592D01*
X397488Y529684D02*
X401699Y533895D01*
X397488Y529684D02*
X403954Y523218D01*
X409862Y542058D02*
X416328Y535592D01*
X276511Y624289D02*
X288886Y611914D01*
X270045Y617823D02*
X282420Y605448D01*
X288886Y611914D01*
X270045Y617823D02*
X276511Y624289D01*
X405804Y565376D02*
X418179Y553001D01*
X412270Y571842D02*
X424645Y559467D01*
X405804Y565376D02*
X412270Y571842D01*
X418179Y553001D02*
X424645Y559467D01*
X394824Y663194D02*
X412324D01*
X394824Y672338D02*
X412324D01*
X394824Y663194D02*
Y672338D01*
X412324Y663194D02*
Y672338D01*
X268042Y541782D02*
X273997D01*
X256498Y532638D02*
X262454D01*
X268042D02*
X273997D01*
X256498Y541782D02*
X262454D01*
X256498Y532638D02*
Y541782D01*
X273998Y532638D02*
Y541782D01*
X297942Y516890D02*
X303898D01*
X286399Y507746D02*
X292354D01*
X297942D02*
X303898D01*
X286399Y516890D02*
X292354D01*
X286399Y507746D02*
Y516890D01*
X303899Y507746D02*
Y516890D01*
X267970Y552704D02*
X273926D01*
X256426Y543560D02*
X262382D01*
X267970D02*
X273926D01*
X256426Y552704D02*
X262382D01*
X256426Y543560D02*
Y552704D01*
X273926Y543560D02*
Y552704D01*
X413490Y572930D02*
X417701Y568719D01*
X428119Y571233D02*
X432330Y567022D01*
X419956Y579396D02*
X424167Y575185D01*
X421653Y564767D02*
X425864Y560556D01*
X432330Y567022D01*
X413490Y572930D02*
X419956Y579396D01*
X295651Y627247D02*
X299862Y623036D01*
X281022Y628944D02*
X285234Y624733D01*
X289185Y620781D02*
X293396Y616570D01*
X287488Y635410D02*
X291699Y631198D01*
X281022Y628944D02*
X287488Y635410D01*
X293397Y616570D02*
X299862Y623035D01*
D15*
X549643Y633983D02*
G03*
X549643Y639063I0J2540D01*
G01*
D02*
G03*
X549643Y644143I0J2540D01*
G01*
Y628903D02*
G03*
X549643Y633983I0J2540D01*
G01*
Y644143D02*
G03*
X549643Y649223I0J2540D01*
G01*
X755410Y215975D02*
G03*
X760490Y215975I2540J0D01*
G01*
X740170D02*
G03*
X745250Y215975I2540J0D01*
G01*
X750330D02*
G03*
X755410Y215975I2540J0D01*
G01*
X745250D02*
G03*
X750330Y215975I2540J0D01*
G01*
X745235Y383779D02*
G03*
X750315Y383779I2540J0D01*
G01*
D02*
G03*
X755395Y383779I2540J0D01*
G01*
X740155D02*
G03*
X745235Y383779I2540J0D01*
G01*
X755395D02*
G03*
X760475Y383779I2540J0D01*
G01*
X549643Y534923D02*
G03*
X549643Y540003I0J2540D01*
G01*
D02*
G03*
X549643Y545083I0J2540D01*
G01*
Y529843D02*
G03*
X549643Y534923I0J2540D01*
G01*
Y545083D02*
G03*
X549643Y550163I0J2540D01*
G01*
X528052Y618744D02*
X542022D01*
X528052D02*
Y659384D01*
X542022D01*
X559802D02*
X573772D01*
Y618744D02*
Y659384D01*
X559802Y618744D02*
X573772D01*
X549643Y649223D02*
Y656844D01*
Y621284D02*
Y628903D01*
X547102Y618744D02*
X554722D01*
X547102Y659384D02*
X554722D01*
X770651Y210896D02*
Y218516D01*
X730011Y210896D02*
Y218516D01*
X732551Y215975D02*
X740170D01*
X760490D02*
X768111D01*
X730011Y191846D02*
Y205816D01*
Y191846D02*
X770651D01*
Y205816D01*
Y223596D02*
Y237566D01*
X730011D02*
X770651D01*
X730011Y223596D02*
Y237566D01*
X657614Y502748D02*
X662104Y498258D01*
X648634Y493768D02*
X657614Y502748D01*
X648634Y493768D02*
X653124Y489277D01*
X662104Y498258D01*
X676473Y519810D02*
X684555Y511728D01*
X690841Y518014D01*
X694448Y514408D01*
X673793Y493753D02*
X694448Y514408D01*
X673779Y493768D02*
X673793Y493753D01*
X651569Y471529D02*
X657629Y477589D01*
X657614Y477603D02*
X657629Y477589D01*
X637349Y523014D02*
X641839Y518523D01*
X632859Y509543D02*
X641839Y518523D01*
X628368Y514033D02*
X632859Y509543D01*
X628368Y514033D02*
X637349Y523014D01*
X648804Y547479D02*
X656886Y539397D01*
X648804Y547479D02*
X655090Y553766D01*
X651484Y557372D02*
X655090Y553766D01*
X630829Y536717D02*
X651484Y557372D01*
X630829Y536717D02*
X630843Y536703D01*
X614664Y520553D02*
X614679Y520539D01*
X608605Y514493D02*
X651569Y471529D01*
X608605Y514493D02*
X614664Y520553D01*
X729996Y391400D02*
Y405370D01*
X770636D01*
Y391400D02*
Y405370D01*
Y359650D02*
Y373620D01*
X729996Y359650D02*
X770636D01*
X729996D02*
Y373620D01*
X760475Y383779D02*
X768096D01*
X732536D02*
X740155D01*
X729996Y378700D02*
Y386320D01*
X770636Y378700D02*
Y386320D01*
X528052Y519684D02*
X542022D01*
X528052D02*
Y560324D01*
X542022D01*
X559802D02*
X573772D01*
Y519684D02*
Y560324D01*
X559802Y519684D02*
X573772D01*
X549643Y550163D02*
Y557784D01*
Y522224D02*
Y529843D01*
X547102Y519684D02*
X554722D01*
X547102Y560324D02*
X554722D01*
D16*
X433936Y632326D02*
Y670426D01*
Y632326D02*
X466956D01*
Y670426D01*
X433936D02*
X466956D01*
D121*
X341194Y531619D02*
G03*
X341212Y531601I-1052J-1070D01*
G01*
D122*
X299810Y40546D02*
X304042Y44778D01*
X312506D01*
X316738Y40546D01*
Y23618D01*
X312506Y19386D01*
X304042D01*
X299810Y23618D01*
X291346Y44778D02*
Y19386D01*
Y32082D01*
X287114Y36314D01*
X278650D01*
X274418Y32082D01*
Y19386D01*
X261722Y36314D02*
X253258D01*
X249027Y32082D01*
Y19386D01*
X261722D01*
X265954Y23618D01*
X261722Y27850D01*
X249027D01*
X240563Y19386D02*
Y36314D01*
X227867D01*
X223635Y32082D01*
Y19386D01*
X206707Y10922D02*
X202475D01*
X198243Y15154D01*
Y36314D01*
X210939D01*
X215171Y32082D01*
Y23618D01*
X210939Y19386D01*
X198243D01*
X177083D02*
X185547D01*
X189779Y23618D01*
Y32082D01*
X185547Y36314D01*
X177083D01*
X172851Y32082D01*
Y27850D01*
X189779D01*
X160155Y19386D02*
X151691D01*
X147459Y23618D01*
Y32082D01*
X151691Y36314D01*
X160155D01*
X164387Y32082D01*
Y23618D01*
X160155Y19386D01*
X113604Y44778D02*
X96676D01*
X105140D01*
Y19386D01*
X75516D02*
X83980D01*
X88212Y23618D01*
Y32082D01*
X83980Y36314D01*
X75516D01*
X71284Y32082D01*
Y27850D01*
X88212D01*
X45892Y36314D02*
X58588D01*
X62820Y32082D01*
Y23618D01*
X58588Y19386D01*
X45892D01*
M02*
