G04*
G04 #@! TF.GenerationSoftware,Altium Limited,Altium Designer,24.0.1 (36)*
G04*
G04 Layer_Color=128*
%FSLAX44Y44*%
%MOMM*%
G71*
G04*
G04 #@! TF.SameCoordinates,2863EE23-0FE7-43ED-B731-855E9A245776*
G04*
G04*
G04 #@! TF.FilePolarity,Positive*
G04*
G01*
G75*
%ADD18C,0.1270*%
D18*
X97462Y649896D02*
X104463D01*
X100962Y646396D02*
Y653396D01*
X97462Y606896D02*
X104463D01*
X100962Y603396D02*
Y610396D01*
X49461Y606896D02*
X56462D01*
X52962Y603396D02*
Y610396D01*
X49461Y649896D02*
X56462D01*
X52962Y646396D02*
Y653396D01*
X11224Y411734D02*
X17224D01*
X14224Y408734D02*
Y414734D01*
X11224Y386334D02*
X17224D01*
X14224Y383334D02*
Y389334D01*
X11224Y373634D02*
X17224D01*
X14224Y370634D02*
Y376634D01*
X11224Y360934D02*
X17224D01*
X14224Y357934D02*
Y363934D01*
X11224Y348234D02*
X17224D01*
X14224Y345234D02*
Y351234D01*
X11224Y399034D02*
X17224D01*
X14224Y396034D02*
Y402034D01*
X11478Y558800D02*
X17478D01*
X14478Y555800D02*
Y561800D01*
X11478Y533400D02*
X17478D01*
X14478Y530400D02*
Y536400D01*
X11478Y520700D02*
X17478D01*
X14478Y517700D02*
Y523700D01*
X11478Y508000D02*
X17478D01*
X14478Y505000D02*
Y511000D01*
X11478Y495300D02*
X17478D01*
X14478Y492300D02*
Y498300D01*
X11478Y546100D02*
X17478D01*
X14478Y543100D02*
Y549100D01*
X11224Y127000D02*
X17224D01*
X14224Y124000D02*
Y130000D01*
X11224Y101600D02*
X17224D01*
X14224Y98600D02*
Y104600D01*
X11224Y88900D02*
X17224D01*
X14224Y85900D02*
Y91900D01*
X11224Y76200D02*
X17224D01*
X14224Y73200D02*
Y79200D01*
X11224Y63500D02*
X17224D01*
X14224Y60500D02*
Y66500D01*
X11224Y114300D02*
X17224D01*
X14224Y111300D02*
Y117300D01*
X10970Y269240D02*
X16970D01*
X13970Y266240D02*
Y272240D01*
X10970Y243840D02*
X16970D01*
X13970Y240840D02*
Y246840D01*
X10970Y231140D02*
X16970D01*
X13970Y228140D02*
Y234140D01*
X10970Y218440D02*
X16970D01*
X13970Y215440D02*
Y221440D01*
X10970Y205740D02*
X16970D01*
X13970Y202740D02*
Y208740D01*
X10970Y256540D02*
X16970D01*
X13970Y253540D02*
Y259540D01*
X243403Y55896D02*
X255403D01*
X249403Y49896D02*
Y61895D01*
X623404Y55896D02*
X635404D01*
X629403Y49896D02*
Y61895D01*
X651410Y614318D02*
X658410D01*
X654910Y610818D02*
Y617818D01*
X673410Y639318D02*
X680410D01*
X676910Y635818D02*
Y642818D01*
X700410Y591818D02*
X709410D01*
X704910Y587318D02*
Y596318D01*
X243403Y224125D02*
X255403D01*
X249403Y218125D02*
Y230126D01*
X623404Y224125D02*
X635404D01*
X629403Y218125D02*
Y230126D01*
X623404Y560726D02*
X635404D01*
X629403Y554725D02*
Y566726D01*
X243403Y392425D02*
X255403D01*
X249403Y386426D02*
Y398425D01*
X623404Y392425D02*
X635404D01*
X629403Y386426D02*
Y398425D01*
X46634Y556975D02*
X49634D01*
X48134Y555475D02*
Y558475D01*
X377938Y615988D02*
X380938D01*
X379439Y614488D02*
Y617488D01*
X381665Y612261D02*
X384665D01*
X383165Y610761D02*
Y613761D01*
X276122Y549656D02*
X279122D01*
X277622Y548156D02*
Y551156D01*
X719352Y62992D02*
X722352D01*
X720852Y61492D02*
Y64492D01*
X723162Y59436D02*
X726162D01*
X724662Y57936D02*
Y60936D01*
X726972Y56388D02*
X729972D01*
X728472Y54888D02*
Y57888D01*
X713002Y33274D02*
X716002D01*
X714502Y31774D02*
Y34774D01*
X718082Y28194D02*
X721082D01*
X719582Y26694D02*
Y29694D01*
X723924Y22860D02*
X726924D01*
X725424Y21360D02*
Y24360D01*
X677206Y551872D02*
X680206D01*
X678706Y550372D02*
Y553372D01*
X765834Y601726D02*
X768834D01*
X767334Y600226D02*
Y603226D01*
X639879Y229870D02*
X642879D01*
X641379Y228370D02*
Y231370D01*
X639342Y397764D02*
X642342D01*
X640842Y396264D02*
Y399264D01*
X169659Y408857D02*
X172659D01*
X171159Y407357D02*
Y410357D01*
X84352Y81280D02*
X87352D01*
X85852Y79780D02*
Y82780D01*
X153694Y560324D02*
X156694D01*
X155194Y558824D02*
Y561824D01*
X695128Y219052D02*
X698128D01*
X696628Y217552D02*
Y220552D01*
X695128Y229974D02*
X698128D01*
X696628Y228474D02*
Y231474D01*
X695128Y224386D02*
X698128D01*
X696628Y222886D02*
Y225886D01*
X694113Y398052D02*
X697113D01*
X695613Y396552D02*
Y399552D01*
X694097Y387028D02*
X697097D01*
X695597Y385528D02*
Y388528D01*
X694097Y392606D02*
X697097D01*
X695597Y391106D02*
Y394106D01*
X193572Y640588D02*
X196572D01*
X195072Y639088D02*
Y642088D01*
X156488Y398526D02*
X159488D01*
X157988Y397026D02*
Y400026D01*
X693952Y272796D02*
X696952D01*
X695452Y271296D02*
Y274296D01*
X693952Y261620D02*
X696952D01*
X695452Y260120D02*
Y263120D01*
X693952Y267208D02*
X696952D01*
X695452Y265708D02*
Y268708D01*
X693952Y256286D02*
X696952D01*
X695452Y254786D02*
Y257786D01*
X468654Y87376D02*
X471654D01*
X470154Y85876D02*
Y88876D01*
X481354Y87376D02*
X484354D01*
X482854Y85876D02*
Y88876D01*
X531900Y87630D02*
X534900D01*
X533400Y86130D02*
Y89130D01*
X557808Y87630D02*
X560808D01*
X559308Y86130D02*
Y89130D01*
X468908Y256032D02*
X471908D01*
X470408Y254532D02*
Y257532D01*
X481608Y256032D02*
X484608D01*
X483108Y254532D02*
Y257532D01*
X532154Y255524D02*
X535154D01*
X533654Y254024D02*
Y257024D01*
X557554Y255524D02*
X560554D01*
X559054Y254024D02*
Y257024D01*
X469162Y423418D02*
X472162D01*
X470662Y421918D02*
Y424918D01*
X481354Y423418D02*
X484354D01*
X482854Y421918D02*
Y424918D01*
X532154Y423164D02*
X535154D01*
X533654Y421664D02*
Y424664D01*
X557554Y390398D02*
X560554D01*
X559054Y388898D02*
Y391898D01*
X515644Y605790D02*
X518644D01*
X517144Y604290D02*
Y607290D01*
X505230Y605790D02*
X508230D01*
X506730Y604290D02*
Y607290D01*
X510564Y605790D02*
X513564D01*
X512064Y604290D02*
Y607290D01*
X527328Y562832D02*
X530328D01*
X528828Y561332D02*
Y564332D01*
X468654Y558800D02*
X471654D01*
X470154Y557300D02*
Y560300D01*
X481354Y559054D02*
X484354D01*
X482854Y557554D02*
Y560554D01*
X278104Y386081D02*
X281103D01*
X279604Y384581D02*
Y387581D01*
X316254Y385826D02*
X319254D01*
X317754Y384326D02*
Y387326D01*
X354354Y385572D02*
X357354D01*
X355854Y384072D02*
Y387072D01*
X277900Y221488D02*
X280900D01*
X279400Y219988D02*
Y222988D01*
X316508Y221234D02*
X319508D01*
X318008Y219734D02*
Y222734D01*
X354100Y217170D02*
X357100D01*
X355600Y215670D02*
Y218670D01*
X277900Y54102D02*
X280900D01*
X279400Y52602D02*
Y55602D01*
X316000Y53086D02*
X319000D01*
X317500Y51586D02*
Y54586D01*
X354354Y48260D02*
X357354D01*
X355854Y46760D02*
Y49760D01*
X652804Y262636D02*
X655804D01*
X654304Y261136D02*
Y264136D01*
X657630Y193040D02*
X660630D01*
X659130Y191540D02*
Y194540D01*
X716065Y158840D02*
X719065D01*
X717565Y157340D02*
Y160340D01*
X721653Y158840D02*
X724653D01*
X723153Y157340D02*
Y160340D01*
X726987Y158840D02*
X729987D01*
X728487Y157340D02*
Y160340D01*
X710477Y158840D02*
X713477D01*
X711977Y157340D02*
Y160340D01*
X721653Y153252D02*
X724653D01*
X723153Y151752D02*
Y154752D01*
X716065Y153252D02*
X719065D01*
X717565Y151752D02*
Y154752D01*
X710731Y153252D02*
X713731D01*
X712231Y151752D02*
Y154752D01*
X727241Y153252D02*
X730241D01*
X728741Y151752D02*
Y154752D01*
X726733Y282030D02*
X729733D01*
X728233Y280530D02*
Y283530D01*
X721145Y282030D02*
X724145D01*
X722645Y280530D02*
Y283530D01*
X715811Y282030D02*
X718811D01*
X717311Y280530D02*
Y283530D01*
X732321Y282030D02*
X735321D01*
X733821Y280530D02*
Y283530D01*
X726733Y287364D02*
X729733D01*
X728233Y285864D02*
Y288864D01*
X721145Y287364D02*
X724145D01*
X722645Y285864D02*
Y288864D01*
X715811Y287364D02*
X718811D01*
X717311Y285864D02*
Y288864D01*
X726464Y321056D02*
X729464D01*
X727964Y319556D02*
Y322556D01*
X709954Y321056D02*
X712954D01*
X711454Y319556D02*
Y322556D01*
X715288Y321056D02*
X718288D01*
X716788Y319556D02*
Y322556D01*
X720876Y321056D02*
X723876D01*
X722376Y319556D02*
Y322556D01*
X709700Y326644D02*
X712700D01*
X711200Y325144D02*
Y328144D01*
X726210Y326644D02*
X729210D01*
X727710Y325144D02*
Y328144D01*
X720876Y326644D02*
X723876D01*
X722376Y325144D02*
Y328144D01*
X715288Y326644D02*
X718288D01*
X716788Y325144D02*
Y328144D01*
X657630Y361188D02*
X660630D01*
X659130Y359688D02*
Y362688D01*
X653058Y429768D02*
X656058D01*
X654558Y428268D02*
Y431268D01*
X694460Y439928D02*
X697460D01*
X695960Y438428D02*
Y441428D01*
X694460Y423418D02*
X697460D01*
X695960Y421918D02*
Y424918D01*
X694460Y428752D02*
X697460D01*
X695960Y427252D02*
Y430252D01*
X694460Y434340D02*
X697460D01*
X695960Y432840D02*
Y435840D01*
X732306Y455168D02*
X735306D01*
X733806Y453668D02*
Y456668D01*
X715796Y455168D02*
X718796D01*
X717296Y453668D02*
Y456668D01*
X721130Y455168D02*
X724130D01*
X722630Y453668D02*
Y456668D01*
X726718Y455168D02*
X729718D01*
X728218Y453668D02*
Y456668D01*
X732306Y449834D02*
X735306D01*
X733806Y448334D02*
Y451334D01*
X715796Y449834D02*
X718796D01*
X717296Y448334D02*
Y451334D01*
X721130Y449834D02*
X724130D01*
X722630Y448334D02*
Y451334D01*
X726718Y449834D02*
X729718D01*
X728218Y448334D02*
Y451334D01*
X499032Y521510D02*
X502032D01*
X500532Y520010D02*
Y523010D01*
X504144Y525606D02*
X507144D01*
X505644Y524106D02*
Y527106D01*
X495254Y526114D02*
X498254D01*
X496754Y524614D02*
Y527614D01*
X499353Y530612D02*
X502353D01*
X500853Y529112D02*
Y532112D01*
X515796Y521510D02*
X518796D01*
X517296Y520010D02*
Y523010D01*
X520908Y525606D02*
X523908D01*
X522408Y524106D02*
Y527106D01*
X512018Y526114D02*
X515018D01*
X513518Y524614D02*
Y527614D01*
X516117Y530612D02*
X519117D01*
X517617Y529112D02*
Y532112D01*
X499540Y649294D02*
X502540D01*
X501040Y647794D02*
Y650794D01*
X495762Y653898D02*
X498762D01*
X497262Y652398D02*
Y655398D01*
X499861Y658396D02*
X502861D01*
X501361Y656896D02*
Y659896D01*
X516473Y658294D02*
X519473D01*
X517972Y656794D02*
Y659794D01*
X512374Y653796D02*
X515374D01*
X513874Y652296D02*
Y655296D01*
X521264Y653288D02*
X524264D01*
X522764Y651788D02*
Y654788D01*
X516152Y649192D02*
X519152D01*
X517652Y647692D02*
Y650692D01*
X577620Y360680D02*
X580620D01*
X579120Y359180D02*
Y362180D01*
X577620Y355092D02*
X580620D01*
X579120Y353592D02*
Y356592D01*
X577620Y349504D02*
X580620D01*
X579120Y348004D02*
Y351004D01*
X504299Y349504D02*
X507299D01*
X505799Y348004D02*
Y351004D01*
X504299Y355092D02*
X507299D01*
X505799Y353592D02*
Y356592D01*
X504299Y360680D02*
X507299D01*
X505799Y359180D02*
Y362180D01*
X430977Y349504D02*
X433977D01*
X432477Y348004D02*
Y351004D01*
X430977Y355092D02*
X433977D01*
X432477Y353592D02*
Y356592D01*
X430977Y360680D02*
X433977D01*
X432477Y359180D02*
Y362180D01*
X357656Y349504D02*
X360656D01*
X359156Y348004D02*
Y351004D01*
X357656Y355092D02*
X360656D01*
X359156Y353592D02*
Y356592D01*
X357656Y360680D02*
X360656D01*
X359156Y359180D02*
Y362180D01*
X577620Y192024D02*
X580620D01*
X579120Y190524D02*
Y193524D01*
X577620Y186436D02*
X580620D01*
X579120Y184936D02*
Y187936D01*
X577620Y180848D02*
X580620D01*
X579120Y179348D02*
Y182348D01*
X504299Y180848D02*
X507299D01*
X505799Y179348D02*
Y182348D01*
X504299Y186436D02*
X507299D01*
X505799Y184936D02*
Y187936D01*
X504299Y192024D02*
X507299D01*
X505799Y190524D02*
Y193524D01*
X430977Y180848D02*
X433977D01*
X432477Y179348D02*
Y182348D01*
X430977Y186436D02*
X433977D01*
X432477Y184936D02*
Y187936D01*
X430977Y192024D02*
X433977D01*
X432477Y190524D02*
Y193524D01*
X357656Y180848D02*
X360656D01*
X359156Y179348D02*
Y182348D01*
X357656Y186436D02*
X360656D01*
X359156Y184936D02*
Y187936D01*
X357656Y192024D02*
X360656D01*
X359156Y190524D02*
Y193524D01*
X357656Y23876D02*
X360656D01*
X359156Y22376D02*
Y25376D01*
X357656Y18288D02*
X360656D01*
X359156Y16788D02*
Y19788D01*
X357656Y12700D02*
X360656D01*
X359156Y11200D02*
Y14200D01*
X430977Y23876D02*
X433977D01*
X432477Y22376D02*
Y25376D01*
X430977Y18288D02*
X433977D01*
X432477Y16788D02*
Y19788D01*
X430977Y12700D02*
X433977D01*
X432477Y11200D02*
Y14200D01*
X504299Y23876D02*
X507299D01*
X505799Y22376D02*
Y25376D01*
X504299Y18288D02*
X507299D01*
X505799Y16788D02*
Y19788D01*
X504299Y12700D02*
X507299D01*
X505799Y11200D02*
Y14200D01*
X577620Y12700D02*
X580620D01*
X579120Y11200D02*
Y14200D01*
X577620Y18288D02*
X580620D01*
X579120Y16788D02*
Y19788D01*
X577620Y23876D02*
X580620D01*
X579120Y22376D02*
Y25376D01*
X501166Y52660D02*
X504166D01*
X502666Y51160D02*
Y54160D01*
X506754Y52660D02*
X509754D01*
X508254Y51160D02*
Y54160D01*
X512342Y52660D02*
X515342D01*
X513842Y51160D02*
Y54160D01*
X577366Y52660D02*
X580366D01*
X578866Y51160D02*
Y54160D01*
X582954Y52660D02*
X585954D01*
X584454Y51160D02*
Y54160D01*
X588542Y52660D02*
X591542D01*
X590042Y51160D02*
Y54160D01*
X591590Y550046D02*
X594590D01*
X593090Y548546D02*
Y551546D01*
X579652Y518160D02*
X582652D01*
X581152Y516660D02*
Y519660D01*
X579906Y659638D02*
X582906D01*
X581406Y658138D02*
Y661138D01*
X591082Y636778D02*
X594082D01*
X592582Y635278D02*
Y638278D01*
X321842Y588010D02*
X324842D01*
X323342Y586510D02*
Y589510D01*
X354608Y559054D02*
X357608D01*
X356108Y557554D02*
Y560554D01*
X342162Y617728D02*
X345162D01*
X343662Y616228D02*
Y619228D01*
X354608Y618998D02*
X357608D01*
X356108Y617498D02*
Y620498D01*
X365022Y577342D02*
X368022D01*
X366522Y575842D02*
Y578842D01*
X373658Y585216D02*
X376658D01*
X375158Y583716D02*
Y586716D01*
X108867Y582807D02*
X111867D01*
X110367Y581307D02*
Y584307D01*
X151908Y573794D02*
X154908D01*
X153408Y572294D02*
Y575294D01*
X155726Y544830D02*
X158726D01*
X157226Y543330D02*
Y546330D01*
X161314Y568706D02*
X164314D01*
X162814Y567206D02*
Y570206D01*
X48187Y267436D02*
X51187D01*
X49687Y265936D02*
Y268936D01*
X94258Y80772D02*
X97258D01*
X95758Y79272D02*
Y82272D01*
X106958Y78486D02*
X109958D01*
X108458Y76986D02*
Y79986D01*
X84098Y98298D02*
X87098D01*
X85598Y96798D02*
Y99798D01*
X95782Y98806D02*
X98782D01*
X97282Y97306D02*
Y100306D01*
X106704Y99060D02*
X109704D01*
X108204Y97560D02*
Y100560D01*
X158520Y119888D02*
X161520D01*
X160020Y118388D02*
Y121388D01*
X152932Y124206D02*
X155932D01*
X154432Y122706D02*
Y125706D01*
X154456Y135128D02*
X157456D01*
X155956Y133628D02*
Y136628D01*
X160298Y141732D02*
X163298D01*
X161798Y140232D02*
Y143232D01*
X158266Y261620D02*
X161266D01*
X159766Y260120D02*
Y263120D01*
X155218Y275844D02*
X158218D01*
X156718Y274344D02*
Y277344D01*
X157504Y283972D02*
X160504D01*
X159004Y282472D02*
Y285472D01*
X157250Y234188D02*
X160250D01*
X158750Y232688D02*
Y235688D01*
X78764Y235966D02*
X81764D01*
X80264Y234466D02*
Y237466D01*
X104418Y221742D02*
X107418D01*
X105918Y220242D02*
Y223242D01*
X89940Y222504D02*
X92940D01*
X91440Y221004D02*
Y224004D01*
X86130Y238252D02*
X89130D01*
X87630Y236752D02*
Y239752D01*
X103402Y372110D02*
X106402D01*
X104902Y370610D02*
Y373610D01*
X81812Y385064D02*
X84812D01*
X83312Y383564D02*
Y386564D01*
X84098Y369824D02*
X87098D01*
X85598Y368324D02*
Y371324D01*
X104672Y380746D02*
X107672D01*
X106172Y379246D02*
Y382246D01*
X105434Y360426D02*
X108434D01*
X106934Y358926D02*
Y361926D01*
X157758Y405638D02*
X160758D01*
X159258Y404138D02*
Y407138D01*
X165378Y420370D02*
X168378D01*
X166878Y418870D02*
Y421870D01*
X153694Y427736D02*
X156694D01*
X155194Y426236D02*
Y429236D01*
X44155Y406074D02*
X47155D01*
X45655Y404574D02*
Y407574D01*
X82356Y427772D02*
X85356D01*
X83856Y426272D02*
Y429272D01*
X93025Y427770D02*
X96025D01*
X94525Y426270D02*
Y429270D01*
X103809Y427635D02*
X106809D01*
X105309Y426135D02*
Y429135D01*
X57530Y426666D02*
X60530D01*
X59030Y425166D02*
Y428166D01*
X55294Y421894D02*
X58294D01*
X56794Y420394D02*
Y423394D01*
X111428Y411068D02*
X114428D01*
X112928Y409568D02*
Y412568D01*
X536472Y598424D02*
X539472D01*
X537972Y596924D02*
Y599924D01*
X343432Y527558D02*
X346432D01*
X344932Y526058D02*
Y529058D01*
X364514Y528574D02*
X367514D01*
X366014Y527074D02*
Y530074D01*
X389152Y556514D02*
X392152D01*
X390652Y555014D02*
Y558014D01*
X290020Y624912D02*
X293020D01*
X291520Y623412D02*
Y626412D01*
X385596Y639064D02*
X388596D01*
X387096Y637564D02*
Y640564D01*
X367562Y656336D02*
X370562D01*
X369062Y654836D02*
Y657836D01*
X332256Y649732D02*
X335256D01*
X333756Y648232D02*
Y651232D01*
X323874Y641604D02*
X326874D01*
X325374Y640104D02*
Y643104D01*
X306856Y624586D02*
X309856D01*
X308356Y623086D02*
Y626086D01*
X315238Y632714D02*
X318238D01*
X316738Y631214D02*
Y634214D01*
X379572Y529772D02*
X382572D01*
X381072Y528272D02*
Y531272D01*
X411279Y572770D02*
X414280D01*
X412780Y571270D02*
Y574270D01*
X310158Y525018D02*
X313158D01*
X311658Y523518D02*
Y526518D01*
X294410Y542036D02*
X297410D01*
X295910Y540536D02*
Y543536D01*
X301939Y534726D02*
X304939D01*
X303439Y533227D02*
Y536227D01*
X276857Y560545D02*
X279857D01*
X278357Y559045D02*
Y562045D01*
X309652Y558091D02*
X312652D01*
X311152Y556591D02*
Y559591D01*
X318151Y549636D02*
X321151D01*
X319651Y548136D02*
Y551136D01*
X326549Y541079D02*
X329549D01*
X328049Y539579D02*
Y542579D01*
X282846Y630453D02*
X285846D01*
X284346Y628954D02*
Y631954D01*
X291362Y638950D02*
X294362D01*
X292862Y637450D02*
Y640450D01*
X300506Y648716D02*
X303506D01*
X302006Y647216D02*
Y650216D01*
X307618Y657098D02*
X310618D01*
X309118Y655598D02*
Y658598D01*
X316254Y665208D02*
X319254D01*
X317754Y663708D02*
Y666708D01*
X335558Y663702D02*
X338558D01*
X337058Y662202D02*
Y665202D01*
X364006Y663194D02*
X367006D01*
X365506Y661694D02*
Y664694D01*
X432586Y661924D02*
X435586D01*
X434086Y660424D02*
Y663424D01*
X440714Y669856D02*
X443714D01*
X442214Y668356D02*
Y671356D01*
X457732Y632460D02*
X460732D01*
X459232Y630960D02*
Y633960D01*
X449970Y639826D02*
X452970D01*
X451470Y638326D02*
Y641326D01*
X421156Y636270D02*
X424156D01*
X422656Y634770D02*
Y637770D01*
X421410Y666242D02*
X424410D01*
X422910Y664742D02*
Y667742D01*
X411250Y667766D02*
X414250D01*
X412750Y666266D02*
Y669266D01*
X422934Y620827D02*
X425934D01*
X424434Y619327D02*
Y622327D01*
X415111Y628396D02*
X418111D01*
X416611Y626896D02*
Y629896D01*
X400074Y643636D02*
X403074D01*
X401574Y642136D02*
Y645136D01*
X407591Y636210D02*
X410591D01*
X409091Y634710D02*
Y637710D01*
X424458Y557530D02*
X427458D01*
X425958Y556030D02*
Y559030D01*
X412266Y539496D02*
X415266D01*
X413766Y537996D02*
Y540996D01*
X405466Y546920D02*
X408466D01*
X406966Y545420D02*
Y548420D01*
X388390Y529082D02*
X391390D01*
X389890Y527582D02*
Y530582D01*
X332510Y513588D02*
X335510D01*
X334010Y512088D02*
Y515088D01*
X392015Y538157D02*
X395015D01*
X393515Y536657D02*
Y539657D01*
X413282Y555498D02*
X416282D01*
X414782Y553998D02*
Y556998D01*
X416330Y614680D02*
X419330D01*
X417830Y613180D02*
Y616180D01*
X70636Y353983D02*
X73636D01*
X72136Y352483D02*
Y355483D01*
X70636Y359253D02*
X73636D01*
X72136Y357753D02*
Y360753D01*
X166902Y119126D02*
X169902D01*
X168402Y117626D02*
Y120626D01*
X163600Y115570D02*
X166600D01*
X165100Y114070D02*
Y117070D01*
X170458Y122936D02*
X173458D01*
X171958Y121436D02*
Y124436D01*
X71652Y216251D02*
X74652D01*
X73152Y214751D02*
Y217751D01*
X71652Y210981D02*
X74652D01*
X73152Y209481D02*
Y212481D01*
X121944Y406400D02*
X124944D01*
X123444Y404900D02*
Y407900D01*
X70128Y500541D02*
X73128D01*
X71628Y499041D02*
Y502041D01*
X70128Y505811D02*
X73128D01*
X71628Y504311D02*
Y507311D01*
X197128Y624332D02*
X200128D01*
X198628Y622832D02*
Y625832D01*
X205764Y631444D02*
X208764D01*
X207264Y629944D02*
Y632944D01*
X209574Y614934D02*
X212574D01*
X211074Y613434D02*
Y616434D01*
X139470Y610616D02*
X142470D01*
X140970Y609116D02*
Y612116D01*
X245134Y595355D02*
X248134D01*
X246634Y593855D02*
Y596855D01*
X171474Y667004D02*
X174474D01*
X172974Y665504D02*
Y668504D01*
X203448Y644133D02*
X206448D01*
X204948Y642633D02*
Y645633D01*
X71398Y574516D02*
X74398D01*
X72898Y573016D02*
Y576016D01*
X82066Y574516D02*
X85066D01*
X83566Y573016D02*
Y576016D01*
X53990Y572484D02*
X56990D01*
X55490Y570984D02*
Y573984D01*
X50316Y568706D02*
X53316D01*
X51816Y567206D02*
Y570206D01*
X157414Y523632D02*
X160414D01*
X158914Y522132D02*
Y525131D01*
X24916Y376015D02*
X27916D01*
X26416Y374515D02*
Y377515D01*
X24916Y370745D02*
X27916D01*
X26416Y369245D02*
Y372245D01*
X70890Y393253D02*
X73890D01*
X72390Y391753D02*
Y394753D01*
X70890Y387983D02*
X73890D01*
X72390Y386483D02*
Y389483D01*
X134701Y520280D02*
X137701D01*
X136201Y518780D02*
Y521780D01*
X164712Y551480D02*
X167712D01*
X166212Y549981D02*
Y552980D01*
X161028Y547899D02*
X164028D01*
X162528Y546399D02*
Y549399D01*
X168050Y555528D02*
X171050D01*
X169550Y554029D02*
Y557029D01*
X94114Y396003D02*
X97114D01*
X95614Y394503D02*
Y397503D01*
X100480Y396060D02*
X103480D01*
X101980Y394560D02*
Y397560D01*
X119912Y436801D02*
X122912D01*
X121412Y435302D02*
Y438302D01*
X71652Y250251D02*
X74652D01*
X73152Y248751D02*
Y251751D01*
X71652Y244981D02*
X74652D01*
X73152Y243481D02*
Y246481D01*
X28980Y451612D02*
X31980D01*
X30480Y450112D02*
Y453112D01*
X55142Y481584D02*
X58142D01*
X56642Y480084D02*
Y483084D01*
X74258Y562102D02*
X77258D01*
X75758Y560602D02*
Y563602D01*
X24916Y517303D02*
X27916D01*
X26416Y515803D02*
Y518803D01*
X24916Y522573D02*
X27916D01*
X26416Y521073D02*
Y524073D01*
X106196Y563626D02*
X109196D01*
X107696Y562126D02*
Y565126D01*
X88506Y541994D02*
X91506D01*
X90006Y540494D02*
Y543494D01*
X119150Y582676D02*
X122150D01*
X120650Y581176D02*
Y584176D01*
X70382Y534541D02*
X73382D01*
X71882Y533041D02*
Y536041D01*
X70382Y539811D02*
X73382D01*
X71882Y538311D02*
Y541311D01*
X24916Y233013D02*
X27916D01*
X26416Y231513D02*
Y234513D01*
X24916Y227743D02*
X27916D01*
X26416Y226243D02*
Y229243D01*
X162838Y256794D02*
X165838D01*
X164338Y255294D02*
Y258294D01*
X165632Y260350D02*
X168632D01*
X167132Y258850D02*
Y261850D01*
X166140Y405384D02*
X169140D01*
X167640Y403884D02*
Y406884D01*
X162330Y401320D02*
X165330D01*
X163830Y399820D02*
Y402820D01*
X168680Y263906D02*
X171680D01*
X170180Y262406D02*
Y265406D01*
X72414Y108265D02*
X75414D01*
X73914Y106765D02*
Y109765D01*
X72414Y102995D02*
X75414D01*
X73914Y101495D02*
Y104495D01*
X25120Y91027D02*
X28120D01*
X26620Y89527D02*
Y92527D01*
X25120Y85757D02*
X28120D01*
X26620Y84257D02*
Y87257D01*
X153825Y74799D02*
X156825D01*
X155325Y73299D02*
Y76299D01*
X72160Y74265D02*
X75160D01*
X73660Y72765D02*
Y75765D01*
X72160Y68995D02*
X75160D01*
X73660Y67495D02*
Y70495D01*
X41680Y594868D02*
X44680D01*
X43180Y593368D02*
Y596368D01*
X35584Y546608D02*
X38584D01*
X37084Y545108D02*
Y548108D01*
X32608Y531296D02*
X35608D01*
X34108Y529796D02*
Y532796D01*
X24916Y511302D02*
X27916D01*
X26416Y509802D02*
Y512802D01*
X24916Y528828D02*
X27916D01*
X26416Y527328D02*
Y530328D01*
X35838Y491871D02*
X38838D01*
X37338Y490371D02*
Y493371D01*
X35584Y503936D02*
X38584D01*
X37084Y502436D02*
Y505436D01*
X42577Y440922D02*
X45577D01*
X44077Y439422D02*
Y442422D01*
X28482Y468884D02*
X31482D01*
X29982Y467384D02*
Y470384D01*
X38632Y462248D02*
X41632D01*
X40132Y460748D02*
Y463748D01*
X64530Y446532D02*
X67530D01*
X66030Y445032D02*
Y448032D01*
X86130Y455676D02*
X89130D01*
X87630Y454176D02*
Y457176D01*
X98322Y455676D02*
X101322D01*
X99822Y454176D02*
Y457176D01*
X47530Y471424D02*
X50530D01*
X49030Y469924D02*
Y472924D01*
X33298Y395224D02*
X36298D01*
X34798Y393724D02*
Y396724D01*
X33204Y384738D02*
X36204D01*
X34704Y383238D02*
Y386238D01*
X28472Y357632D02*
X31472D01*
X29972Y356132D02*
Y359132D01*
X28472Y345186D02*
X31472D01*
X29972Y343686D02*
Y346686D01*
X155866Y377698D02*
X158866D01*
X157366Y376198D02*
Y379198D01*
X155866Y355854D02*
X158866D01*
X157366Y354354D02*
Y357354D01*
X42950Y294894D02*
X45950D01*
X44450Y293394D02*
Y296394D01*
X67080Y293624D02*
X70080D01*
X68580Y292124D02*
Y295124D01*
X26811Y96520D02*
X29811D01*
X28311Y95020D02*
Y98020D01*
X26853Y79982D02*
X29853D01*
X28353Y78482D02*
Y81482D01*
X74054Y495554D02*
X77054D01*
X75554Y494054D02*
Y497054D01*
X74054Y511048D02*
X77054D01*
X75554Y509548D02*
Y512548D01*
X74562Y348996D02*
X77562D01*
X76062Y347496D02*
Y350496D01*
X74562Y364490D02*
X77562D01*
X76062Y362990D02*
Y365990D01*
X76086Y64008D02*
X79086D01*
X77586Y62508D02*
Y65508D01*
X76086Y79502D02*
X79086D01*
X77586Y78002D02*
Y81002D01*
X75208Y221488D02*
X78208D01*
X76708Y219988D02*
Y222988D01*
X75208Y205994D02*
X78208D01*
X76708Y204494D02*
Y207494D01*
X56920Y35528D02*
X59920D01*
X58420Y34028D02*
Y37028D01*
X49308Y43688D02*
X52308D01*
X50808Y42188D02*
Y45188D01*
X40410Y33750D02*
X43410D01*
X41910Y32250D02*
Y35250D01*
X47260Y22774D02*
X50260D01*
X48760Y21274D02*
Y24274D01*
X48792Y125476D02*
X51792D01*
X50292Y123976D02*
Y126976D01*
X64022Y161290D02*
X67022D01*
X65522Y159790D02*
Y162790D01*
X37362Y173990D02*
X40362D01*
X38862Y172490D02*
Y175490D01*
X44974Y165268D02*
X47974D01*
X46474Y163768D02*
Y166768D01*
X54126Y178111D02*
X57126D01*
X55626Y176611D02*
Y179611D01*
X47022Y186268D02*
X50022D01*
X48522Y184768D02*
Y187768D01*
X27974Y183134D02*
X30974D01*
X29474Y181634D02*
Y184634D01*
X86373Y309208D02*
X89373D01*
X87873Y307708D02*
Y310708D01*
X98520Y308996D02*
X101520D01*
X100020Y307496D02*
Y310496D01*
X46768Y328676D02*
X49768D01*
X48268Y327176D02*
Y330176D01*
X54888Y320045D02*
X57888D01*
X56388Y318545D02*
Y321545D01*
X27720Y325374D02*
X30720D01*
X29220Y323874D02*
Y326874D01*
X37108Y315468D02*
X40108D01*
X38608Y313968D02*
Y316968D01*
X44720Y307508D02*
X47720D01*
X46220Y306008D02*
Y309008D01*
X63768Y302768D02*
X66768D01*
X65268Y301268D02*
Y304268D01*
X83082Y293370D02*
X86082D01*
X84582Y291870D02*
Y294870D01*
X78002Y273812D02*
X81002D01*
X79502Y272312D02*
Y275312D01*
X99120Y293278D02*
X102120D01*
X100620Y291778D02*
Y294778D01*
X26186Y221488D02*
X29186D01*
X27686Y219988D02*
Y222988D01*
X26186Y239014D02*
X29186D01*
X27686Y237514D02*
Y240514D01*
X128826Y247616D02*
X131826D01*
X130326Y246116D02*
Y249116D01*
X33552Y241739D02*
X36552D01*
X35052Y240239D02*
Y243239D01*
X33298Y252222D02*
X36298D01*
X34798Y250722D02*
Y253722D01*
X29742Y214376D02*
X32742D01*
X31242Y212876D02*
Y215876D01*
X29742Y202184D02*
X32742D01*
X31242Y200684D02*
Y203684D01*
X87400Y173482D02*
X90400D01*
X88900Y171982D02*
Y174982D01*
X99338Y173482D02*
X102338D01*
X100838Y171982D02*
Y174982D01*
X149696Y212725D02*
X152696D01*
X151196Y211225D02*
Y214225D01*
X123976Y114808D02*
X126976D01*
X125476Y113308D02*
Y116308D01*
X67842Y648462D02*
X70842D01*
X69342Y646962D02*
Y649962D01*
X83082Y648208D02*
X86082D01*
X84582Y646708D02*
Y649708D01*
X82961Y641006D02*
X85961D01*
X84461Y639506D02*
Y642506D01*
X66826Y608330D02*
X69826D01*
X68326Y606830D02*
Y609830D01*
X84098Y608330D02*
X87098D01*
X85598Y606830D02*
Y609830D01*
X67963Y615786D02*
X70963D01*
X69463Y614286D02*
Y617286D01*
X42856Y241736D02*
X45856D01*
X44356Y240236D02*
Y243236D01*
X39786Y214376D02*
X42786D01*
X41286Y212876D02*
Y215876D01*
X39858Y202184D02*
X42858D01*
X41358Y200684D02*
Y203684D01*
X56666Y247650D02*
X59666D01*
X58166Y246150D02*
Y249150D01*
X136168Y228854D02*
X139168D01*
X137668Y227354D02*
Y230354D01*
X87146Y184150D02*
X90146D01*
X88646Y182650D02*
Y185650D01*
X99338Y184150D02*
X102338D01*
X100838Y182650D02*
Y185650D01*
X128825Y215521D02*
X131825D01*
X130325Y214021D02*
Y217021D01*
X95528Y252984D02*
X98528D01*
X97028Y251484D02*
Y254484D01*
X98941Y265256D02*
X101941D01*
X100441Y263756D02*
Y266756D01*
X123468Y257048D02*
X126468D01*
X124968Y255548D02*
Y258548D01*
X86338Y327213D02*
X89338D01*
X87838Y325713D02*
Y328713D01*
X98741Y319532D02*
X101741D01*
X100241Y318032D02*
Y321032D01*
X32028Y439420D02*
X35028D01*
X33528Y437920D02*
Y440920D01*
X135648Y372364D02*
X138648D01*
X137148Y370864D02*
Y373864D01*
X130767Y359632D02*
X133767D01*
X132267Y358132D02*
Y361132D01*
X123214Y345186D02*
X126214D01*
X124714Y343686D02*
Y346686D01*
X55790Y390652D02*
X58790D01*
X57290Y389152D02*
Y392152D01*
X88822Y408988D02*
X91822D01*
X90322Y407489D02*
Y410489D01*
X110133Y335607D02*
X113133D01*
X111633Y334107D02*
Y337107D01*
X129104Y505644D02*
X132104D01*
X130604Y504144D02*
Y507144D01*
X122706Y546100D02*
X125706D01*
X124206Y544600D02*
Y547600D01*
X49808Y530098D02*
X52808D01*
X51308Y528598D02*
Y531598D01*
X47268Y491490D02*
X50268D01*
X48768Y489990D02*
Y492990D01*
X47268Y503682D02*
X50268D01*
X48768Y502182D02*
Y505182D01*
X85622Y474726D02*
X88622D01*
X87122Y473226D02*
Y476226D01*
X97814Y474726D02*
X100814D01*
X99314Y473226D02*
Y476226D01*
X55396Y537210D02*
X58396D01*
X56896Y535710D02*
Y538710D01*
X98322Y564134D02*
X101322D01*
X99822Y562634D02*
Y565634D01*
X89699Y555767D02*
X92699D01*
X91199Y554267D02*
Y557267D01*
X109752Y482157D02*
X112752D01*
X111252Y480657D02*
Y483657D01*
X107984Y542624D02*
X110984D01*
X109484Y541124D02*
Y544124D01*
X21360Y540512D02*
X24360D01*
X22860Y539012D02*
Y542012D01*
X21347Y563923D02*
X24347D01*
X22847Y562423D02*
Y565423D01*
X32790Y586994D02*
X35790D01*
X34290Y585494D02*
Y588494D01*
X22630Y405130D02*
X25630D01*
X24130Y403630D02*
Y406630D01*
X22630Y411226D02*
X25630D01*
X24130Y409726D02*
Y412726D01*
X77240Y415798D02*
X80240D01*
X78740Y414298D02*
Y417298D01*
X99236Y416560D02*
X102236D01*
X100736Y415060D02*
Y418060D01*
X100155Y410155D02*
X103155D01*
X101655Y408655D02*
Y411655D01*
X125246Y491744D02*
X128246D01*
X126746Y490244D02*
Y493244D01*
X51586Y141260D02*
X54586D01*
X53086Y139760D02*
Y142760D01*
X51332Y135996D02*
X54332D01*
X52832Y134496D02*
Y137496D01*
X29370Y131896D02*
X32370D01*
X30870Y130396D02*
Y133396D01*
X29488Y125476D02*
X32488D01*
X30988Y123976D02*
Y126976D01*
X28266Y263967D02*
X31265D01*
X29766Y262467D02*
Y265467D01*
X22376Y263906D02*
X25376D01*
X23876Y262406D02*
Y265406D01*
X56412Y280924D02*
X59412D01*
X57912Y279424D02*
Y282424D01*
X99264Y273970D02*
X102264D01*
X100764Y272470D02*
Y275470D01*
X101256Y252997D02*
X104256D01*
X102756Y251497D02*
Y254496D01*
X97206Y556075D02*
X100206D01*
X98706Y554575D02*
Y557575D01*
X39140Y389382D02*
X42140D01*
X40640Y387882D02*
Y390882D01*
X39140Y357124D02*
X42140D01*
X40640Y355624D02*
Y358624D01*
X39212Y345186D02*
X42212D01*
X40712Y343686D02*
Y346686D01*
X89064Y266204D02*
X92064D01*
X90564Y264704D02*
Y267704D01*
X110536Y192631D02*
X113536D01*
X112036Y191131D02*
Y194131D01*
X125500Y60198D02*
X128500D01*
X127000Y58698D02*
Y61698D01*
X124738Y202692D02*
X127738D01*
X126238Y201192D02*
Y204192D01*
X29742Y290830D02*
X32742D01*
X31242Y289330D02*
Y292330D01*
X124992Y289052D02*
X127992D01*
X126492Y287552D02*
Y290552D01*
X34640Y99750D02*
X37640D01*
X36140Y98250D02*
Y101250D01*
X131732Y73408D02*
X134732D01*
X133232Y71908D02*
Y74908D01*
X86004Y124188D02*
X89004D01*
X87504Y122688D02*
Y125688D01*
X102004Y111072D02*
X105004D01*
X103504Y109572D02*
Y112572D01*
X111530Y50631D02*
X114530D01*
X113030Y49131D02*
Y52131D01*
X40918Y149056D02*
X43918D01*
X42418Y147556D02*
Y150556D01*
X29687Y149382D02*
X32687D01*
X31187Y147882D02*
Y150882D01*
X34286Y109516D02*
X37286D01*
X35786Y108016D02*
Y111016D01*
X125894Y146959D02*
X128894D01*
X127394Y145459D02*
Y148459D01*
X109752Y125476D02*
X112752D01*
X111252Y123976D02*
Y126976D01*
X57174Y105664D02*
X60174D01*
X58674Y104164D02*
Y107164D01*
X140369Y92133D02*
X143369D01*
X141869Y90633D02*
Y93633D01*
X78764Y140899D02*
X81764D01*
X80264Y139399D02*
Y142399D01*
X100006Y140899D02*
X103006D01*
X101506Y139399D02*
Y142399D01*
X88416Y34544D02*
X91416D01*
X89916Y33044D02*
Y36044D01*
X100100Y34544D02*
X103100D01*
X101600Y33044D02*
Y36044D01*
X157800Y92202D02*
X160800D01*
X159300Y90702D02*
Y93702D01*
X145312Y535863D02*
X148312D01*
X146812Y534363D02*
Y537363D01*
X145820Y389128D02*
X148820D01*
X147320Y387628D02*
Y390628D01*
X146466Y246126D02*
X149466D01*
X147966Y244626D02*
Y247626D01*
X72846Y146616D02*
X75846D01*
X74346Y145116D02*
Y148116D01*
X83454Y146591D02*
X86454D01*
X84954Y145091D02*
Y148091D01*
X94396Y146645D02*
X97396D01*
X95896Y145145D02*
Y148145D01*
X104992Y146844D02*
X107992D01*
X106492Y145344D02*
Y148343D01*
X111022Y144164D02*
X114022D01*
X112522Y142664D02*
Y145664D01*
X40736Y60071D02*
X43736D01*
X42236Y58571D02*
Y61571D01*
X40664Y72390D02*
X43664D01*
X42164Y70890D02*
Y73890D01*
X40664Y104433D02*
X43664D01*
X42164Y102933D02*
Y105933D01*
X30390Y72390D02*
X33390D01*
X31890Y70890D02*
Y73890D01*
X30462Y60198D02*
X33462D01*
X31962Y58698D02*
Y61698D01*
X19582Y39258D02*
X22582D01*
X21082Y37758D02*
Y40758D01*
X75970Y17342D02*
X78970D01*
X77470Y15842D02*
Y18842D01*
X88416Y24270D02*
X91416D01*
X89916Y22770D02*
Y25770D01*
X100100Y24270D02*
X103100D01*
X101600Y22770D02*
Y25770D01*
X147344Y104140D02*
X150344D01*
X148844Y102640D02*
Y105640D01*
X111428Y265938D02*
X114428D01*
X112928Y264438D02*
Y267438D01*
X50454Y280924D02*
X53454D01*
X51954Y279424D02*
Y282424D01*
X96290Y129032D02*
X99290D01*
X97790Y127532D02*
Y130532D01*
X100100Y124206D02*
X103100D01*
X101600Y122706D02*
Y125706D01*
X737640Y432562D02*
X740640D01*
X739140Y431062D02*
Y434062D01*
X737640Y438150D02*
X740640D01*
X739140Y436650D02*
Y439650D01*
X737640Y443484D02*
X740640D01*
X739140Y441984D02*
Y444984D01*
X737640Y426974D02*
X740640D01*
X739140Y425474D02*
Y428474D01*
X737640Y275082D02*
X740640D01*
X739140Y273582D02*
Y276582D01*
X737640Y269748D02*
X740640D01*
X739140Y268248D02*
Y271248D01*
X737640Y258572D02*
X740640D01*
X739140Y257072D02*
Y260072D01*
X737640Y264160D02*
X740640D01*
X739140Y262660D02*
Y265660D01*
X724534Y229559D02*
X727534D01*
X726034Y228058D02*
Y231059D01*
X652804Y251714D02*
X655804D01*
X654304Y250214D02*
Y253214D01*
X723772Y397415D02*
X726772D01*
X725272Y395914D02*
Y398914D01*
X652804Y419354D02*
X655804D01*
X654304Y417854D02*
Y420854D01*
X589558Y594106D02*
X592558D01*
X591058Y592606D02*
Y595606D01*
X584224Y594106D02*
X587224D01*
X585724Y592606D02*
Y595606D01*
X594638Y594106D02*
X597638D01*
X596138Y592606D02*
Y595606D01*
X497610Y594360D02*
X500610D01*
X499110Y592860D02*
Y595860D01*
X492276Y594360D02*
X495276D01*
X493776Y592860D02*
Y595860D01*
X502690Y594360D02*
X505690D01*
X504190Y592860D02*
Y595860D01*
X588542Y220808D02*
X591542D01*
X590042Y219308D02*
Y222308D01*
X582954Y220808D02*
X585954D01*
X584454Y219308D02*
Y222308D01*
X577366Y220808D02*
X580366D01*
X578866Y219308D02*
Y222308D01*
X588542Y389108D02*
X591542D01*
X590042Y387608D02*
Y390608D01*
X582954Y389108D02*
X585954D01*
X584454Y387608D02*
Y390608D01*
X577366Y389108D02*
X580366D01*
X578866Y387608D02*
Y390608D01*
X512342Y389108D02*
X515342D01*
X513842Y387608D02*
Y390608D01*
X506754Y389108D02*
X509754D01*
X508254Y387608D02*
Y390608D01*
X501166Y389108D02*
X504166D01*
X502666Y387608D02*
Y390608D01*
X512342Y220808D02*
X515342D01*
X513842Y219308D02*
Y222308D01*
X506754Y220808D02*
X509754D01*
X508254Y219308D02*
Y222308D01*
X501166Y220808D02*
X504166D01*
X502666Y219308D02*
Y222308D01*
X705397Y184748D02*
X708397D01*
X706897Y183248D02*
Y186248D01*
X699932Y184809D02*
X702932D01*
X701432Y183309D02*
Y186309D01*
X700055Y179028D02*
X703055D01*
X701555Y177528D02*
Y180527D01*
X705520Y178967D02*
X708520D01*
X707020Y177467D02*
Y180467D01*
X705505Y346771D02*
X708505D01*
X707005Y345271D02*
Y348271D01*
X700040Y346831D02*
X703040D01*
X701540Y345331D02*
Y348331D01*
X699917Y352613D02*
X702917D01*
X701417Y351113D02*
Y354113D01*
X705382Y352552D02*
X708382D01*
X706882Y351052D02*
Y354052D01*
X752880Y509524D02*
X755880D01*
X754380Y508024D02*
Y511024D01*
X747292Y509524D02*
X750292D01*
X748792Y508024D02*
Y511024D01*
X741704Y509524D02*
X744704D01*
X743204Y508024D02*
Y511024D01*
X736116Y509524D02*
X739116D01*
X737616Y508024D02*
Y511024D01*
X736116Y515366D02*
X739116D01*
X737616Y513866D02*
Y516866D01*
X741704Y515366D02*
X744704D01*
X743204Y513866D02*
Y516866D01*
X747292Y515366D02*
X750292D01*
X748792Y513866D02*
Y516866D01*
X752880Y515366D02*
X755880D01*
X754380Y513866D02*
Y516866D01*
X276891Y616349D02*
X279891D01*
X278391Y614849D02*
Y617849D01*
X408710Y622300D02*
X411710D01*
X410210Y620800D02*
Y623800D01*
X536472Y593598D02*
X539472D01*
X537972Y592098D02*
Y595098D01*
X541552Y598424D02*
X544552D01*
X543052Y596924D02*
Y599924D01*
X541552Y593598D02*
X544552D01*
X543052Y592098D02*
Y595098D01*
X519200Y623570D02*
X522200D01*
X520700Y622070D02*
Y625070D01*
X498626Y623570D02*
X501626D01*
X500126Y622070D02*
Y625070D01*
X508786Y628396D02*
X511786D01*
X510286Y626896D02*
Y629896D01*
X514120Y628396D02*
X517120D01*
X515620Y626896D02*
Y629896D01*
X508786Y623570D02*
X511786D01*
X510286Y622070D02*
Y625070D01*
X519200Y628396D02*
X522200D01*
X520700Y626896D02*
Y629896D01*
X503452Y628396D02*
X506452D01*
X504952Y626896D02*
Y629896D01*
X498626Y628396D02*
X501626D01*
X500126Y626896D02*
Y629896D01*
X514120Y623570D02*
X517120D01*
X515620Y622070D02*
Y625070D01*
X503452Y623570D02*
X506452D01*
X504952Y622070D02*
Y625070D01*
X498880Y549656D02*
X501880D01*
X500380Y548156D02*
Y551156D01*
X498880Y554482D02*
X501880D01*
X500380Y552982D02*
Y555982D01*
X503706Y554482D02*
X506706D01*
X505206Y552982D02*
Y555982D01*
X503706Y549656D02*
X506706D01*
X505206Y548156D02*
Y551156D01*
X509040Y549656D02*
X512040D01*
X510540Y548156D02*
Y551156D01*
X509040Y554482D02*
X512040D01*
X510540Y552982D02*
Y555982D01*
X514374Y549656D02*
X517374D01*
X515874Y548156D02*
Y551156D01*
X514374Y554482D02*
X517374D01*
X515874Y552982D02*
Y555982D01*
X519454Y549656D02*
X522454D01*
X520954Y548156D02*
Y551156D01*
X519454Y554482D02*
X522454D01*
X520954Y552982D02*
Y555982D01*
X576096Y597662D02*
X579096D01*
X577596Y596162D02*
Y599162D01*
X72828Y608076D02*
X75828D01*
X74328Y606576D02*
Y609576D01*
X78097Y655066D02*
X81097D01*
X79597Y653566D02*
Y656566D01*
X395165Y599269D02*
X398165D01*
X396665Y597769D02*
Y600769D01*
X78098Y608076D02*
X81098D01*
X79598Y606576D02*
Y609576D01*
X72827Y655066D02*
X75827D01*
X74327Y653566D02*
Y656566D01*
X398892Y595542D02*
X401892D01*
X400392Y594042D02*
Y597042D01*
X144550Y650563D02*
X147550D01*
X146050Y649063D02*
Y652063D01*
X144550Y645293D02*
X147550D01*
X146050Y643793D02*
Y646793D01*
X114153Y642196D02*
X117154D01*
X115653Y640695D02*
Y643696D01*
X117880Y645922D02*
X120880D01*
X119380Y644422D02*
Y647422D01*
X131088Y623824D02*
X134088D01*
X132588Y622324D02*
Y625324D01*
X127361Y620098D02*
X130361D01*
X128862Y618597D02*
Y621598D01*
X127532Y600561D02*
X130532D01*
X129032Y599061D02*
Y602061D01*
X127532Y605831D02*
X130532D01*
X129032Y604331D02*
Y607331D01*
X386425Y607501D02*
X389425D01*
X387925Y606001D02*
Y609001D01*
X390151Y603775D02*
X393151D01*
X391651Y602275D02*
Y605275D01*
X550297Y557530D02*
X553297D01*
X551797Y556030D02*
Y559030D01*
X371880Y615848D02*
X374880D01*
X373380Y614348D02*
Y617348D01*
X380477Y606342D02*
X383477D01*
X381977Y604842D02*
Y607842D01*
X389329Y597764D02*
X392329D01*
X390830Y596264D02*
Y599264D01*
X113863Y635886D02*
X116863D01*
X115363Y634386D02*
Y637387D01*
X107720Y642874D02*
X110720D01*
X109220Y641374D02*
Y644374D01*
X124484Y645668D02*
X127484D01*
X125984Y644168D02*
Y647168D01*
X118642Y652272D02*
X121642D01*
X120142Y650772D02*
Y653772D01*
X122452Y609854D02*
X125452D01*
X123952Y608354D02*
Y611354D01*
X132612Y609854D02*
X135612D01*
X134112Y608354D02*
Y611354D01*
X132612Y596392D02*
X135612D01*
X134112Y594892D02*
Y597892D01*
X122452Y596392D02*
X125452D01*
X123952Y594892D02*
Y597892D01*
X121436Y619506D02*
X124436D01*
X122936Y618006D02*
Y621006D01*
X127532Y613918D02*
X130532D01*
X129032Y612418D02*
Y615418D01*
X137184Y623570D02*
X140184D01*
X138684Y622070D02*
Y625070D01*
X131342Y629920D02*
X134342D01*
X132842Y628420D02*
Y631420D01*
X144550Y638302D02*
X147550D01*
X146050Y636802D02*
Y639802D01*
X138454Y656082D02*
X141454D01*
X139954Y654582D02*
Y657582D01*
X150138Y656082D02*
X153138D01*
X151638Y654582D02*
Y657582D01*
M02*
