G04*
G04 #@! TF.GenerationSoftware,Altium Limited,Altium Designer,24.0.1 (36)*
G04*
G04 Layer_Color=2752767*
%FSLAX44Y44*%
%MOMM*%
G71*
G04*
G04 #@! TF.SameCoordinates,86479D1D-582F-4F93-B16F-34CC7BD45DDA*
G04*
G04*
G04 #@! TF.FilePolarity,Positive*
G04*
G01*
G75*
%ADD17C,0.1270*%
%ADD130C,0.1693*%
D17*
X624324Y555645D02*
X626864D01*
X629403Y558186D01*
X631944Y555645D01*
X634483D01*
Y558186D01*
X631944Y560726D01*
X634483Y563265D01*
Y565806D01*
X631944D01*
X629403Y563265D01*
X626864Y565806D01*
X624324D01*
Y563265D01*
X626864Y560726D01*
X624324Y558186D01*
Y555645D01*
X244324D02*
X246863D01*
X249403Y558186D01*
X251943Y555645D01*
X254484D01*
Y558186D01*
X251943Y560726D01*
X254484Y563265D01*
Y565806D01*
X251943D01*
X249403Y563265D01*
X246863Y565806D01*
X244324D01*
Y563265D01*
X246863Y560726D01*
X244324Y558186D01*
Y555645D01*
X95883Y644816D02*
Y654976D01*
X106042D01*
Y644816D01*
X95883D01*
Y601816D02*
Y611976D01*
X106042D01*
Y601816D01*
X95883D01*
X47881D02*
Y611976D01*
X58042D01*
Y601816D01*
X47881D01*
Y644816D02*
Y654976D01*
X58042D01*
Y644816D01*
X47881D01*
X11684Y409194D02*
Y406654D01*
X16764D01*
Y409194D01*
X19304D01*
Y414274D01*
X16764D01*
Y416814D01*
X11684D01*
Y414274D01*
X9144D01*
Y409194D01*
X11684D01*
Y383794D02*
Y381254D01*
X16764D01*
Y383794D01*
X19304D01*
Y388874D01*
X16764D01*
Y391414D01*
X11684D01*
Y388874D01*
X9144D01*
Y383794D01*
X11684D01*
Y371094D02*
Y368554D01*
X16764D01*
Y371094D01*
X19304D01*
Y376174D01*
X16764D01*
Y378714D01*
X11684D01*
Y376174D01*
X9144D01*
Y371094D01*
X11684D01*
Y358394D02*
Y355854D01*
X16764D01*
Y358394D01*
X19304D01*
Y363474D01*
X16764D01*
Y366014D01*
X11684D01*
Y363474D01*
X9144D01*
Y358394D01*
X11684D01*
Y345694D02*
Y343154D01*
X16764D01*
Y345694D01*
X19304D01*
Y350774D01*
X16764D01*
Y353314D01*
X11684D01*
Y350774D01*
X9144D01*
Y345694D01*
X11684D01*
Y396494D02*
Y393954D01*
X16764D01*
Y396494D01*
X19304D01*
Y401574D01*
X16764D01*
Y404114D01*
X11684D01*
Y401574D01*
X9144D01*
Y396494D01*
X11684D01*
X11938Y556260D02*
Y553720D01*
X17018D01*
Y556260D01*
X19558D01*
Y561340D01*
X17018D01*
Y563880D01*
X11938D01*
Y561340D01*
X9398D01*
Y556260D01*
X11938D01*
Y530860D02*
Y528320D01*
X17018D01*
Y530860D01*
X19558D01*
Y535940D01*
X17018D01*
Y538480D01*
X11938D01*
Y535940D01*
X9398D01*
Y530860D01*
X11938D01*
Y518160D02*
Y515620D01*
X17018D01*
Y518160D01*
X19558D01*
Y523240D01*
X17018D01*
Y525780D01*
X11938D01*
Y523240D01*
X9398D01*
Y518160D01*
X11938D01*
Y505460D02*
Y502920D01*
X17018D01*
Y505460D01*
X19558D01*
Y510540D01*
X17018D01*
Y513080D01*
X11938D01*
Y510540D01*
X9398D01*
Y505460D01*
X11938D01*
Y492760D02*
Y490220D01*
X17018D01*
Y492760D01*
X19558D01*
Y497840D01*
X17018D01*
Y500380D01*
X11938D01*
Y497840D01*
X9398D01*
Y492760D01*
X11938D01*
Y543560D02*
Y541020D01*
X17018D01*
Y543560D01*
X19558D01*
Y548640D01*
X17018D01*
Y551180D01*
X11938D01*
Y548640D01*
X9398D01*
Y543560D01*
X11938D01*
X11684Y124460D02*
Y121920D01*
X16764D01*
Y124460D01*
X19304D01*
Y129540D01*
X16764D01*
Y132080D01*
X11684D01*
Y129540D01*
X9144D01*
Y124460D01*
X11684D01*
Y99060D02*
Y96520D01*
X16764D01*
Y99060D01*
X19304D01*
Y104140D01*
X16764D01*
Y106680D01*
X11684D01*
Y104140D01*
X9144D01*
Y99060D01*
X11684D01*
Y86360D02*
Y83820D01*
X16764D01*
Y86360D01*
X19304D01*
Y91440D01*
X16764D01*
Y93980D01*
X11684D01*
Y91440D01*
X9144D01*
Y86360D01*
X11684D01*
Y73660D02*
Y71120D01*
X16764D01*
Y73660D01*
X19304D01*
Y78740D01*
X16764D01*
Y81280D01*
X11684D01*
Y78740D01*
X9144D01*
Y73660D01*
X11684D01*
Y60960D02*
Y58420D01*
X16764D01*
Y60960D01*
X19304D01*
Y66040D01*
X16764D01*
Y68580D01*
X11684D01*
Y66040D01*
X9144D01*
Y60960D01*
X11684D01*
Y111760D02*
Y109220D01*
X16764D01*
Y111760D01*
X19304D01*
Y116840D01*
X16764D01*
Y119380D01*
X11684D01*
Y116840D01*
X9144D01*
Y111760D01*
X11684D01*
X11430Y266700D02*
Y264160D01*
X16510D01*
Y266700D01*
X19050D01*
Y271780D01*
X16510D01*
Y274320D01*
X11430D01*
Y271780D01*
X8890D01*
Y266700D01*
X11430D01*
Y241300D02*
Y238760D01*
X16510D01*
Y241300D01*
X19050D01*
Y246380D01*
X16510D01*
Y248920D01*
X11430D01*
Y246380D01*
X8890D01*
Y241300D01*
X11430D01*
Y228600D02*
Y226060D01*
X16510D01*
Y228600D01*
X19050D01*
Y233680D01*
X16510D01*
Y236220D01*
X11430D01*
Y233680D01*
X8890D01*
Y228600D01*
X11430D01*
Y215900D02*
Y213360D01*
X16510D01*
Y215900D01*
X19050D01*
Y220980D01*
X16510D01*
Y223520D01*
X11430D01*
Y220980D01*
X8890D01*
Y215900D01*
X11430D01*
Y203200D02*
Y200660D01*
X16510D01*
Y203200D01*
X19050D01*
Y208280D01*
X16510D01*
Y210820D01*
X11430D01*
Y208280D01*
X8890D01*
Y203200D01*
X11430D01*
Y254000D02*
Y251460D01*
X16510D01*
Y254000D01*
X19050D01*
Y259080D01*
X16510D01*
Y261620D01*
X11430D01*
Y259080D01*
X8890D01*
Y254000D01*
X11430D01*
X244324Y50816D02*
X246863D01*
X249403Y53355D01*
X251943Y50816D01*
X254484D01*
Y53355D01*
X251943Y55896D01*
X254484Y58436D01*
Y60975D01*
X251943D01*
X249403Y58436D01*
X246863Y60975D01*
X244324D01*
Y58436D01*
X246863Y55896D01*
X244324Y53355D01*
Y50816D01*
X624324D02*
X626864D01*
X629403Y53355D01*
X631944Y50816D01*
X634483D01*
Y53355D01*
X631944Y55896D01*
X634483Y58436D01*
Y60975D01*
X631944D01*
X629403Y58436D01*
X626864Y60975D01*
X624324D01*
Y58436D01*
X626864Y55896D01*
X624324Y53355D01*
Y50816D01*
X654910Y609238D02*
X649830Y619398D01*
X659990D01*
X654910Y609238D01*
X676910Y634238D02*
X671830Y644398D01*
X681990D01*
X676910Y634238D01*
X244324Y219046D02*
X246863D01*
X249403Y221586D01*
X251943Y219046D01*
X254484D01*
Y221586D01*
X251943Y224125D01*
X254484Y226665D01*
Y229205D01*
X251943D01*
X249403Y226665D01*
X246863Y229205D01*
X244324D01*
Y226665D01*
X246863Y224125D01*
X244324Y221586D01*
Y219046D01*
X624324D02*
X626864D01*
X629403Y221586D01*
X631944Y219046D01*
X634483D01*
Y221586D01*
X631944Y224125D01*
X634483Y226665D01*
Y229205D01*
X631944D01*
X629403Y226665D01*
X626864Y229205D01*
X624324D01*
Y226665D01*
X626864Y224125D01*
X624324Y221586D01*
Y219046D01*
X244324Y387346D02*
X246863D01*
X249403Y389885D01*
X251943Y387346D01*
X254484D01*
Y389885D01*
X251943Y392425D01*
X254484Y394966D01*
Y397505D01*
X251943D01*
X249403Y394966D01*
X246863Y397505D01*
X244324D01*
Y394966D01*
X246863Y392425D01*
X244324Y389885D01*
Y387346D01*
X624324D02*
X626864D01*
X629403Y389885D01*
X631944Y387346D01*
X634483D01*
Y389885D01*
X631944Y392425D01*
X634483Y394966D01*
Y397505D01*
X631944D01*
X629403Y394966D01*
X626864Y397505D01*
X624324D01*
Y394966D01*
X626864Y392425D01*
X624324Y389885D01*
Y387346D01*
X323146Y655770D02*
X325686Y658310D01*
X328226D01*
X325686Y660850D01*
X328226Y663390D01*
X325686D01*
X323146Y665930D01*
X320606Y663390D01*
X318066D01*
X320606Y660850D01*
X318066Y658310D01*
X320606D01*
X323146Y655770D01*
X538226Y594360D02*
X540766Y596900D01*
X543306D01*
X540766Y599440D01*
X543306Y601980D01*
X540766D01*
X538226Y604520D01*
X535686Y601980D01*
X533146D01*
X535686Y599440D01*
X533146Y596900D01*
X535686D01*
X538226Y594360D01*
Y589534D02*
X540766Y592074D01*
X543306D01*
X540766Y594614D01*
X543306Y597154D01*
X540766D01*
X538226Y599694D01*
X535686Y597154D01*
X533146D01*
X535686Y594614D01*
X533146Y592074D01*
X535686D01*
X538226Y589534D01*
X543306Y594360D02*
X545846Y596900D01*
X548386D01*
X545846Y599440D01*
X548386Y601980D01*
X545846D01*
X543306Y604520D01*
X540766Y601980D01*
X538226D01*
X540766Y599440D01*
X538226Y596900D01*
X540766D01*
X543306Y594360D01*
Y589534D02*
X545846Y592074D01*
X548386D01*
X545846Y594614D01*
X548386Y597154D01*
X545846D01*
X543306Y599694D01*
X540766Y597154D01*
X538226D01*
X540766Y594614D01*
X538226Y592074D01*
X540766D01*
X543306Y589534D01*
X26416Y227933D02*
X28956Y230473D01*
X31496D01*
X28956Y233013D01*
X31496Y235553D01*
X28956D01*
X26416Y238093D01*
X23876Y235553D01*
X21336D01*
X23876Y233013D01*
X21336Y230473D01*
X23876D01*
X26416Y227933D01*
Y222663D02*
X28956Y225203D01*
X31496D01*
X28956Y227743D01*
X31496Y230283D01*
X28956D01*
X26416Y232823D01*
X23876Y230283D01*
X21336D01*
X23876Y227743D01*
X21336Y225203D01*
X23876D01*
X26416Y222663D01*
X73152Y245171D02*
X75692Y247711D01*
X78232D01*
X75692Y250251D01*
X78232Y252791D01*
X75692D01*
X73152Y255331D01*
X70612Y252791D01*
X68072D01*
X70612Y250251D01*
X68072Y247711D01*
X70612D01*
X73152Y245171D01*
Y239901D02*
X75692Y242441D01*
X78232D01*
X75692Y244981D01*
X78232Y247521D01*
X75692D01*
X73152Y250061D01*
X70612Y247521D01*
X68072D01*
X70612Y244981D01*
X68072Y242441D01*
X70612D01*
X73152Y239901D01*
X48134Y551895D02*
X50674Y554435D01*
X53214D01*
X50674Y556975D01*
X53214Y559515D01*
X50674D01*
X48134Y562055D01*
X45594Y559515D01*
X43054D01*
X45594Y556975D01*
X43054Y554435D01*
X45594D01*
X48134Y551895D01*
X379439Y610908D02*
X381978Y613448D01*
X384519D01*
X381978Y615988D01*
X384519Y618528D01*
X381978D01*
X379439Y621068D01*
X376898Y618528D01*
X374358D01*
X376898Y615988D01*
X374358Y613448D01*
X376898D01*
X379439Y610908D01*
X383165Y607181D02*
X385705Y609721D01*
X388245D01*
X385705Y612261D01*
X388245Y614801D01*
X385705D01*
X383165Y617341D01*
X380625Y614801D01*
X378085D01*
X380625Y612261D01*
X378085Y609721D01*
X380625D01*
X383165Y607181D01*
X277622Y544576D02*
X280162Y547116D01*
X282702D01*
X280162Y549656D01*
X282702Y552196D01*
X280162D01*
X277622Y554736D01*
X275082Y552196D01*
X272542D01*
X275082Y549656D01*
X272542Y547116D01*
X275082D01*
X277622Y544576D01*
X720852Y57912D02*
X723392Y60452D01*
X725932D01*
X723392Y62992D01*
X725932Y65532D01*
X723392D01*
X720852Y68072D01*
X718312Y65532D01*
X715772D01*
X718312Y62992D01*
X715772Y60452D01*
X718312D01*
X720852Y57912D01*
X724662Y54356D02*
X727202Y56896D01*
X729742D01*
X727202Y59436D01*
X729742Y61976D01*
X727202D01*
X724662Y64516D01*
X722122Y61976D01*
X719582D01*
X722122Y59436D01*
X719582Y56896D01*
X722122D01*
X724662Y54356D01*
X728472Y51308D02*
X731012Y53848D01*
X733552D01*
X731012Y56388D01*
X733552Y58928D01*
X731012D01*
X728472Y61468D01*
X725932Y58928D01*
X723392D01*
X725932Y56388D01*
X723392Y53848D01*
X725932D01*
X728472Y51308D01*
X714502Y28194D02*
X717042Y30734D01*
X719582D01*
X717042Y33274D01*
X719582Y35814D01*
X717042D01*
X714502Y38354D01*
X711962Y35814D01*
X709422D01*
X711962Y33274D01*
X709422Y30734D01*
X711962D01*
X714502Y28194D01*
X719582Y23114D02*
X722122Y25654D01*
X724662D01*
X722122Y28194D01*
X724662Y30734D01*
X722122D01*
X719582Y33274D01*
X717042Y30734D01*
X714502D01*
X717042Y28194D01*
X714502Y25654D01*
X717042D01*
X719582Y23114D01*
X725424Y17780D02*
X727964Y20320D01*
X730504D01*
X727964Y22860D01*
X730504Y25400D01*
X727964D01*
X725424Y27940D01*
X722884Y25400D01*
X720344D01*
X722884Y22860D01*
X720344Y20320D01*
X722884D01*
X725424Y17780D01*
X678706Y546792D02*
X681246Y549332D01*
X683786D01*
X681246Y551872D01*
X683786Y554412D01*
X681246D01*
X678706Y556952D01*
X676166Y554412D01*
X673626D01*
X676166Y551872D01*
X673626Y549332D01*
X676166D01*
X678706Y546792D01*
X767334Y596646D02*
X769874Y599186D01*
X772414D01*
X769874Y601726D01*
X772414Y604266D01*
X769874D01*
X767334Y606806D01*
X764794Y604266D01*
X762254D01*
X764794Y601726D01*
X762254Y599186D01*
X764794D01*
X767334Y596646D01*
X641379Y224790D02*
X643920Y227330D01*
X646460D01*
X643920Y229870D01*
X646460Y232410D01*
X643920D01*
X641379Y234950D01*
X638839Y232410D01*
X636300D01*
X638839Y229870D01*
X636300Y227330D01*
X638839D01*
X641379Y224790D01*
X640842Y392684D02*
X643382Y395224D01*
X645922D01*
X643382Y397764D01*
X645922Y400304D01*
X643382D01*
X640842Y402844D01*
X638302Y400304D01*
X635762D01*
X638302Y397764D01*
X635762Y395224D01*
X638302D01*
X640842Y392684D01*
X171159Y403777D02*
X173699Y406317D01*
X176239D01*
X173699Y408857D01*
X176239Y411397D01*
X173699D01*
X171159Y413937D01*
X168619Y411397D01*
X166079D01*
X168619Y408857D01*
X166079Y406317D01*
X168619D01*
X171159Y403777D01*
X85852Y76200D02*
X88392Y78740D01*
X90932D01*
X88392Y81280D01*
X90932Y83820D01*
X88392D01*
X85852Y86360D01*
X83312Y83820D01*
X80772D01*
X83312Y81280D01*
X80772Y78740D01*
X83312D01*
X85852Y76200D01*
X155194Y555244D02*
X157734Y557784D01*
X160274D01*
X157734Y560324D01*
X160274Y562864D01*
X157734D01*
X155194Y565404D01*
X152654Y562864D01*
X150114D01*
X152654Y560324D01*
X150114Y557784D01*
X152654D01*
X155194Y555244D01*
X696628Y213972D02*
X699168Y216512D01*
X701708D01*
X699168Y219052D01*
X701708Y221592D01*
X699168D01*
X696628Y224132D01*
X694088Y221592D01*
X691548D01*
X694088Y219052D01*
X691548Y216512D01*
X694088D01*
X696628Y213972D01*
Y224894D02*
X699168Y227434D01*
X701708D01*
X699168Y229974D01*
X701708Y232514D01*
X699168D01*
X696628Y235054D01*
X694088Y232514D01*
X691548D01*
X694088Y229974D01*
X691548Y227434D01*
X694088D01*
X696628Y224894D01*
Y219306D02*
X699168Y221846D01*
X701708D01*
X699168Y224386D01*
X701708Y226926D01*
X699168D01*
X696628Y229466D01*
X694088Y226926D01*
X691548D01*
X694088Y224386D01*
X691548Y221846D01*
X694088D01*
X696628Y219306D01*
X695613Y392972D02*
X698153Y395512D01*
X700693D01*
X698153Y398052D01*
X700693Y400592D01*
X698153D01*
X695613Y403132D01*
X693073Y400592D01*
X690533D01*
X693073Y398052D01*
X690533Y395512D01*
X693073D01*
X695613Y392972D01*
X695597Y381948D02*
X698137Y384488D01*
X700677D01*
X698137Y387028D01*
X700677Y389568D01*
X698137D01*
X695597Y392108D01*
X693057Y389568D01*
X690517D01*
X693057Y387028D01*
X690517Y384488D01*
X693057D01*
X695597Y381948D01*
Y387526D02*
X698137Y390066D01*
X700677D01*
X698137Y392606D01*
X700677Y395146D01*
X698137D01*
X695597Y397686D01*
X693057Y395146D01*
X690517D01*
X693057Y392606D01*
X690517Y390066D01*
X693057D01*
X695597Y387526D01*
X195072Y635508D02*
X197612Y638048D01*
X200152D01*
X197612Y640588D01*
X200152Y643128D01*
X197612D01*
X195072Y645668D01*
X192532Y643128D01*
X189992D01*
X192532Y640588D01*
X189992Y638048D01*
X192532D01*
X195072Y635508D01*
X157988Y393446D02*
X160528Y395986D01*
X163068D01*
X160528Y398526D01*
X163068Y401066D01*
X160528D01*
X157988Y403606D01*
X155448Y401066D01*
X152908D01*
X155448Y398526D01*
X152908Y395986D01*
X155448D01*
X157988Y393446D01*
X695452Y267716D02*
X697992Y270256D01*
X700532D01*
X697992Y272796D01*
X700532Y275336D01*
X697992D01*
X695452Y277876D01*
X692912Y275336D01*
X690372D01*
X692912Y272796D01*
X690372Y270256D01*
X692912D01*
X695452Y267716D01*
Y256540D02*
X697992Y259080D01*
X700532D01*
X697992Y261620D01*
X700532Y264160D01*
X697992D01*
X695452Y266700D01*
X692912Y264160D01*
X690372D01*
X692912Y261620D01*
X690372Y259080D01*
X692912D01*
X695452Y256540D01*
Y262128D02*
X697992Y264668D01*
X700532D01*
X697992Y267208D01*
X700532Y269748D01*
X697992D01*
X695452Y272288D01*
X692912Y269748D01*
X690372D01*
X692912Y267208D01*
X690372Y264668D01*
X692912D01*
X695452Y262128D01*
Y251206D02*
X697992Y253746D01*
X700532D01*
X697992Y256286D01*
X700532Y258826D01*
X697992D01*
X695452Y261366D01*
X692912Y258826D01*
X690372D01*
X692912Y256286D01*
X690372Y253746D01*
X692912D01*
X695452Y251206D01*
X470154Y82296D02*
X472694Y84836D01*
X475234D01*
X472694Y87376D01*
X475234Y89916D01*
X472694D01*
X470154Y92456D01*
X467614Y89916D01*
X465074D01*
X467614Y87376D01*
X465074Y84836D01*
X467614D01*
X470154Y82296D01*
X482854D02*
X485394Y84836D01*
X487934D01*
X485394Y87376D01*
X487934Y89916D01*
X485394D01*
X482854Y92456D01*
X480314Y89916D01*
X477774D01*
X480314Y87376D01*
X477774Y84836D01*
X480314D01*
X482854Y82296D01*
X533400Y82550D02*
X535940Y85090D01*
X538480D01*
X535940Y87630D01*
X538480Y90170D01*
X535940D01*
X533400Y92710D01*
X530860Y90170D01*
X528320D01*
X530860Y87630D01*
X528320Y85090D01*
X530860D01*
X533400Y82550D01*
X559308D02*
X561848Y85090D01*
X564388D01*
X561848Y87630D01*
X564388Y90170D01*
X561848D01*
X559308Y92710D01*
X556768Y90170D01*
X554228D01*
X556768Y87630D01*
X554228Y85090D01*
X556768D01*
X559308Y82550D01*
X470408Y250952D02*
X472948Y253492D01*
X475488D01*
X472948Y256032D01*
X475488Y258572D01*
X472948D01*
X470408Y261112D01*
X467868Y258572D01*
X465328D01*
X467868Y256032D01*
X465328Y253492D01*
X467868D01*
X470408Y250952D01*
X483108D02*
X485648Y253492D01*
X488188D01*
X485648Y256032D01*
X488188Y258572D01*
X485648D01*
X483108Y261112D01*
X480568Y258572D01*
X478028D01*
X480568Y256032D01*
X478028Y253492D01*
X480568D01*
X483108Y250952D01*
X533654Y250444D02*
X536194Y252984D01*
X538734D01*
X536194Y255524D01*
X538734Y258064D01*
X536194D01*
X533654Y260604D01*
X531114Y258064D01*
X528574D01*
X531114Y255524D01*
X528574Y252984D01*
X531114D01*
X533654Y250444D01*
X559054D02*
X561594Y252984D01*
X564134D01*
X561594Y255524D01*
X564134Y258064D01*
X561594D01*
X559054Y260604D01*
X556514Y258064D01*
X553974D01*
X556514Y255524D01*
X553974Y252984D01*
X556514D01*
X559054Y250444D01*
X470662Y418338D02*
X473202Y420878D01*
X475742D01*
X473202Y423418D01*
X475742Y425958D01*
X473202D01*
X470662Y428498D01*
X468122Y425958D01*
X465582D01*
X468122Y423418D01*
X465582Y420878D01*
X468122D01*
X470662Y418338D01*
X482854D02*
X485394Y420878D01*
X487934D01*
X485394Y423418D01*
X487934Y425958D01*
X485394D01*
X482854Y428498D01*
X480314Y425958D01*
X477774D01*
X480314Y423418D01*
X477774Y420878D01*
X480314D01*
X482854Y418338D01*
X533654Y418084D02*
X536194Y420624D01*
X538734D01*
X536194Y423164D01*
X538734Y425704D01*
X536194D01*
X533654Y428244D01*
X531114Y425704D01*
X528574D01*
X531114Y423164D01*
X528574Y420624D01*
X531114D01*
X533654Y418084D01*
X559054Y385318D02*
X561594Y387858D01*
X564134D01*
X561594Y390398D01*
X564134Y392938D01*
X561594D01*
X559054Y395478D01*
X556514Y392938D01*
X553974D01*
X556514Y390398D01*
X553974Y387858D01*
X556514D01*
X559054Y385318D01*
X517144Y600710D02*
X519684Y603250D01*
X522224D01*
X519684Y605790D01*
X522224Y608330D01*
X519684D01*
X517144Y610870D01*
X514604Y608330D01*
X512064D01*
X514604Y605790D01*
X512064Y603250D01*
X514604D01*
X517144Y600710D01*
X506730D02*
X509270Y603250D01*
X511810D01*
X509270Y605790D01*
X511810Y608330D01*
X509270D01*
X506730Y610870D01*
X504190Y608330D01*
X501650D01*
X504190Y605790D01*
X501650Y603250D01*
X504190D01*
X506730Y600710D01*
X512064D02*
X514604Y603250D01*
X517144D01*
X514604Y605790D01*
X517144Y608330D01*
X514604D01*
X512064Y610870D01*
X509524Y608330D01*
X506984D01*
X509524Y605790D01*
X506984Y603250D01*
X509524D01*
X512064Y600710D01*
X528828Y557752D02*
X531368Y560292D01*
X533908D01*
X531368Y562832D01*
X533908Y565372D01*
X531368D01*
X528828Y567912D01*
X526288Y565372D01*
X523748D01*
X526288Y562832D01*
X523748Y560292D01*
X526288D01*
X528828Y557752D01*
X470154Y553720D02*
X472694Y556260D01*
X475234D01*
X472694Y558800D01*
X475234Y561340D01*
X472694D01*
X470154Y563880D01*
X467614Y561340D01*
X465074D01*
X467614Y558800D01*
X465074Y556260D01*
X467614D01*
X470154Y553720D01*
X482854Y553974D02*
X485394Y556514D01*
X487934D01*
X485394Y559054D01*
X487934Y561594D01*
X485394D01*
X482854Y564134D01*
X480314Y561594D01*
X477774D01*
X480314Y559054D01*
X477774Y556514D01*
X480314D01*
X482854Y553974D01*
X279604Y381001D02*
X282143Y383541D01*
X284683D01*
X282143Y386081D01*
X284683Y388621D01*
X282143D01*
X279604Y391161D01*
X277064Y388621D01*
X274524D01*
X277064Y386081D01*
X274524Y383541D01*
X277064D01*
X279604Y381001D01*
X317754Y380746D02*
X320294Y383286D01*
X322834D01*
X320294Y385826D01*
X322834Y388366D01*
X320294D01*
X317754Y390906D01*
X315214Y388366D01*
X312674D01*
X315214Y385826D01*
X312674Y383286D01*
X315214D01*
X317754Y380746D01*
X355854Y380492D02*
X358394Y383032D01*
X360934D01*
X358394Y385572D01*
X360934Y388112D01*
X358394D01*
X355854Y390652D01*
X353314Y388112D01*
X350774D01*
X353314Y385572D01*
X350774Y383032D01*
X353314D01*
X355854Y380492D01*
X279400Y216408D02*
X281940Y218948D01*
X284480D01*
X281940Y221488D01*
X284480Y224028D01*
X281940D01*
X279400Y226568D01*
X276860Y224028D01*
X274320D01*
X276860Y221488D01*
X274320Y218948D01*
X276860D01*
X279400Y216408D01*
X318008Y216154D02*
X320548Y218694D01*
X323088D01*
X320548Y221234D01*
X323088Y223774D01*
X320548D01*
X318008Y226314D01*
X315468Y223774D01*
X312928D01*
X315468Y221234D01*
X312928Y218694D01*
X315468D01*
X318008Y216154D01*
X355600Y212090D02*
X358140Y214630D01*
X360680D01*
X358140Y217170D01*
X360680Y219710D01*
X358140D01*
X355600Y222250D01*
X353060Y219710D01*
X350520D01*
X353060Y217170D01*
X350520Y214630D01*
X353060D01*
X355600Y212090D01*
X279400Y49022D02*
X281940Y51562D01*
X284480D01*
X281940Y54102D01*
X284480Y56642D01*
X281940D01*
X279400Y59182D01*
X276860Y56642D01*
X274320D01*
X276860Y54102D01*
X274320Y51562D01*
X276860D01*
X279400Y49022D01*
X317500Y48006D02*
X320040Y50546D01*
X322580D01*
X320040Y53086D01*
X322580Y55626D01*
X320040D01*
X317500Y58166D01*
X314960Y55626D01*
X312420D01*
X314960Y53086D01*
X312420Y50546D01*
X314960D01*
X317500Y48006D01*
X355854Y43180D02*
X358394Y45720D01*
X360934D01*
X358394Y48260D01*
X360934Y50800D01*
X358394D01*
X355854Y53340D01*
X353314Y50800D01*
X350774D01*
X353314Y48260D01*
X350774Y45720D01*
X353314D01*
X355854Y43180D01*
X654304Y257556D02*
X656844Y260096D01*
X659384D01*
X656844Y262636D01*
X659384Y265176D01*
X656844D01*
X654304Y267716D01*
X651764Y265176D01*
X649224D01*
X651764Y262636D01*
X649224Y260096D01*
X651764D01*
X654304Y257556D01*
X659130Y187960D02*
X661670Y190500D01*
X664210D01*
X661670Y193040D01*
X664210Y195580D01*
X661670D01*
X659130Y198120D01*
X656590Y195580D01*
X654050D01*
X656590Y193040D01*
X654050Y190500D01*
X656590D01*
X659130Y187960D01*
X717565Y153760D02*
X720105Y156300D01*
X722645D01*
X720105Y158840D01*
X722645Y161380D01*
X720105D01*
X717565Y163920D01*
X715025Y161380D01*
X712485D01*
X715025Y158840D01*
X712485Y156300D01*
X715025D01*
X717565Y153760D01*
X723153D02*
X725693Y156300D01*
X728233D01*
X725693Y158840D01*
X728233Y161380D01*
X725693D01*
X723153Y163920D01*
X720613Y161380D01*
X718073D01*
X720613Y158840D01*
X718073Y156300D01*
X720613D01*
X723153Y153760D01*
X728487D02*
X731027Y156300D01*
X733567D01*
X731027Y158840D01*
X733567Y161380D01*
X731027D01*
X728487Y163920D01*
X725947Y161380D01*
X723407D01*
X725947Y158840D01*
X723407Y156300D01*
X725947D01*
X728487Y153760D01*
X711977D02*
X714517Y156300D01*
X717057D01*
X714517Y158840D01*
X717057Y161380D01*
X714517D01*
X711977Y163920D01*
X709437Y161380D01*
X706897D01*
X709437Y158840D01*
X706897Y156300D01*
X709437D01*
X711977Y153760D01*
X723153Y148172D02*
X725693Y150712D01*
X728233D01*
X725693Y153252D01*
X728233Y155792D01*
X725693D01*
X723153Y158332D01*
X720613Y155792D01*
X718073D01*
X720613Y153252D01*
X718073Y150712D01*
X720613D01*
X723153Y148172D01*
X717565D02*
X720105Y150712D01*
X722645D01*
X720105Y153252D01*
X722645Y155792D01*
X720105D01*
X717565Y158332D01*
X715025Y155792D01*
X712485D01*
X715025Y153252D01*
X712485Y150712D01*
X715025D01*
X717565Y148172D01*
X712231D02*
X714771Y150712D01*
X717311D01*
X714771Y153252D01*
X717311Y155792D01*
X714771D01*
X712231Y158332D01*
X709691Y155792D01*
X707151D01*
X709691Y153252D01*
X707151Y150712D01*
X709691D01*
X712231Y148172D01*
X728741D02*
X731281Y150712D01*
X733821D01*
X731281Y153252D01*
X733821Y155792D01*
X731281D01*
X728741Y158332D01*
X726201Y155792D01*
X723661D01*
X726201Y153252D01*
X723661Y150712D01*
X726201D01*
X728741Y148172D01*
X728233Y276950D02*
X730773Y279490D01*
X733313D01*
X730773Y282030D01*
X733313Y284570D01*
X730773D01*
X728233Y287110D01*
X725693Y284570D01*
X723153D01*
X725693Y282030D01*
X723153Y279490D01*
X725693D01*
X728233Y276950D01*
X722645D02*
X725185Y279490D01*
X727725D01*
X725185Y282030D01*
X727725Y284570D01*
X725185D01*
X722645Y287110D01*
X720105Y284570D01*
X717565D01*
X720105Y282030D01*
X717565Y279490D01*
X720105D01*
X722645Y276950D01*
X717311D02*
X719851Y279490D01*
X722391D01*
X719851Y282030D01*
X722391Y284570D01*
X719851D01*
X717311Y287110D01*
X714771Y284570D01*
X712231D01*
X714771Y282030D01*
X712231Y279490D01*
X714771D01*
X717311Y276950D01*
X733821D02*
X736361Y279490D01*
X738901D01*
X736361Y282030D01*
X738901Y284570D01*
X736361D01*
X733821Y287110D01*
X731281Y284570D01*
X728741D01*
X731281Y282030D01*
X728741Y279490D01*
X731281D01*
X733821Y276950D01*
X728233Y282284D02*
X730773Y284824D01*
X733313D01*
X730773Y287364D01*
X733313Y289904D01*
X730773D01*
X728233Y292444D01*
X725693Y289904D01*
X723153D01*
X725693Y287364D01*
X723153Y284824D01*
X725693D01*
X728233Y282284D01*
X722645D02*
X725185Y284824D01*
X727725D01*
X725185Y287364D01*
X727725Y289904D01*
X725185D01*
X722645Y292444D01*
X720105Y289904D01*
X717565D01*
X720105Y287364D01*
X717565Y284824D01*
X720105D01*
X722645Y282284D01*
X717311D02*
X719851Y284824D01*
X722391D01*
X719851Y287364D01*
X722391Y289904D01*
X719851D01*
X717311Y292444D01*
X714771Y289904D01*
X712231D01*
X714771Y287364D01*
X712231Y284824D01*
X714771D01*
X717311Y282284D01*
X727964Y315976D02*
X730504Y318516D01*
X733044D01*
X730504Y321056D01*
X733044Y323596D01*
X730504D01*
X727964Y326136D01*
X725424Y323596D01*
X722884D01*
X725424Y321056D01*
X722884Y318516D01*
X725424D01*
X727964Y315976D01*
X711454D02*
X713994Y318516D01*
X716534D01*
X713994Y321056D01*
X716534Y323596D01*
X713994D01*
X711454Y326136D01*
X708914Y323596D01*
X706374D01*
X708914Y321056D01*
X706374Y318516D01*
X708914D01*
X711454Y315976D01*
X716788D02*
X719328Y318516D01*
X721868D01*
X719328Y321056D01*
X721868Y323596D01*
X719328D01*
X716788Y326136D01*
X714248Y323596D01*
X711708D01*
X714248Y321056D01*
X711708Y318516D01*
X714248D01*
X716788Y315976D01*
X722376D02*
X724916Y318516D01*
X727456D01*
X724916Y321056D01*
X727456Y323596D01*
X724916D01*
X722376Y326136D01*
X719836Y323596D01*
X717296D01*
X719836Y321056D01*
X717296Y318516D01*
X719836D01*
X722376Y315976D01*
X711200Y321564D02*
X713740Y324104D01*
X716280D01*
X713740Y326644D01*
X716280Y329184D01*
X713740D01*
X711200Y331724D01*
X708660Y329184D01*
X706120D01*
X708660Y326644D01*
X706120Y324104D01*
X708660D01*
X711200Y321564D01*
X727710D02*
X730250Y324104D01*
X732790D01*
X730250Y326644D01*
X732790Y329184D01*
X730250D01*
X727710Y331724D01*
X725170Y329184D01*
X722630D01*
X725170Y326644D01*
X722630Y324104D01*
X725170D01*
X727710Y321564D01*
X722376D02*
X724916Y324104D01*
X727456D01*
X724916Y326644D01*
X727456Y329184D01*
X724916D01*
X722376Y331724D01*
X719836Y329184D01*
X717296D01*
X719836Y326644D01*
X717296Y324104D01*
X719836D01*
X722376Y321564D01*
X716788D02*
X719328Y324104D01*
X721868D01*
X719328Y326644D01*
X721868Y329184D01*
X719328D01*
X716788Y331724D01*
X714248Y329184D01*
X711708D01*
X714248Y326644D01*
X711708Y324104D01*
X714248D01*
X716788Y321564D01*
X659130Y356108D02*
X661670Y358648D01*
X664210D01*
X661670Y361188D01*
X664210Y363728D01*
X661670D01*
X659130Y366268D01*
X656590Y363728D01*
X654050D01*
X656590Y361188D01*
X654050Y358648D01*
X656590D01*
X659130Y356108D01*
X654558Y424688D02*
X657098Y427228D01*
X659638D01*
X657098Y429768D01*
X659638Y432308D01*
X657098D01*
X654558Y434848D01*
X652018Y432308D01*
X649478D01*
X652018Y429768D01*
X649478Y427228D01*
X652018D01*
X654558Y424688D01*
X695960Y434848D02*
X698500Y437388D01*
X701040D01*
X698500Y439928D01*
X701040Y442468D01*
X698500D01*
X695960Y445008D01*
X693420Y442468D01*
X690880D01*
X693420Y439928D01*
X690880Y437388D01*
X693420D01*
X695960Y434848D01*
Y418338D02*
X698500Y420878D01*
X701040D01*
X698500Y423418D01*
X701040Y425958D01*
X698500D01*
X695960Y428498D01*
X693420Y425958D01*
X690880D01*
X693420Y423418D01*
X690880Y420878D01*
X693420D01*
X695960Y418338D01*
Y423672D02*
X698500Y426212D01*
X701040D01*
X698500Y428752D01*
X701040Y431292D01*
X698500D01*
X695960Y433832D01*
X693420Y431292D01*
X690880D01*
X693420Y428752D01*
X690880Y426212D01*
X693420D01*
X695960Y423672D01*
Y429260D02*
X698500Y431800D01*
X701040D01*
X698500Y434340D01*
X701040Y436880D01*
X698500D01*
X695960Y439420D01*
X693420Y436880D01*
X690880D01*
X693420Y434340D01*
X690880Y431800D01*
X693420D01*
X695960Y429260D01*
X733806Y450088D02*
X736346Y452628D01*
X738886D01*
X736346Y455168D01*
X738886Y457708D01*
X736346D01*
X733806Y460248D01*
X731266Y457708D01*
X728726D01*
X731266Y455168D01*
X728726Y452628D01*
X731266D01*
X733806Y450088D01*
X717296D02*
X719836Y452628D01*
X722376D01*
X719836Y455168D01*
X722376Y457708D01*
X719836D01*
X717296Y460248D01*
X714756Y457708D01*
X712216D01*
X714756Y455168D01*
X712216Y452628D01*
X714756D01*
X717296Y450088D01*
X722630D02*
X725170Y452628D01*
X727710D01*
X725170Y455168D01*
X727710Y457708D01*
X725170D01*
X722630Y460248D01*
X720090Y457708D01*
X717550D01*
X720090Y455168D01*
X717550Y452628D01*
X720090D01*
X722630Y450088D01*
X728218D02*
X730758Y452628D01*
X733298D01*
X730758Y455168D01*
X733298Y457708D01*
X730758D01*
X728218Y460248D01*
X725678Y457708D01*
X723138D01*
X725678Y455168D01*
X723138Y452628D01*
X725678D01*
X728218Y450088D01*
X733806Y444754D02*
X736346Y447294D01*
X738886D01*
X736346Y449834D01*
X738886Y452374D01*
X736346D01*
X733806Y454914D01*
X731266Y452374D01*
X728726D01*
X731266Y449834D01*
X728726Y447294D01*
X731266D01*
X733806Y444754D01*
X717296D02*
X719836Y447294D01*
X722376D01*
X719836Y449834D01*
X722376Y452374D01*
X719836D01*
X717296Y454914D01*
X714756Y452374D01*
X712216D01*
X714756Y449834D01*
X712216Y447294D01*
X714756D01*
X717296Y444754D01*
X722630D02*
X725170Y447294D01*
X727710D01*
X725170Y449834D01*
X727710Y452374D01*
X725170D01*
X722630Y454914D01*
X720090Y452374D01*
X717550D01*
X720090Y449834D01*
X717550Y447294D01*
X720090D01*
X722630Y444754D01*
X728218D02*
X730758Y447294D01*
X733298D01*
X730758Y449834D01*
X733298Y452374D01*
X730758D01*
X728218Y454914D01*
X725678Y452374D01*
X723138D01*
X725678Y449834D01*
X723138Y447294D01*
X725678D01*
X728218Y444754D01*
X500532Y516430D02*
X503072Y518970D01*
X505612D01*
X503072Y521510D01*
X505612Y524050D01*
X503072D01*
X500532Y526590D01*
X497992Y524050D01*
X495452D01*
X497992Y521510D01*
X495452Y518970D01*
X497992D01*
X500532Y516430D01*
X505644Y520526D02*
X508184Y523066D01*
X510724D01*
X508184Y525606D01*
X510724Y528146D01*
X508184D01*
X505644Y530686D01*
X503104Y528146D01*
X500564D01*
X503104Y525606D01*
X500564Y523066D01*
X503104D01*
X505644Y520526D01*
X496754Y521034D02*
X499294Y523574D01*
X501834D01*
X499294Y526114D01*
X501834Y528654D01*
X499294D01*
X496754Y531194D01*
X494214Y528654D01*
X491674D01*
X494214Y526114D01*
X491674Y523574D01*
X494214D01*
X496754Y521034D01*
X500853Y525532D02*
X503393Y528072D01*
X505933D01*
X503393Y530612D01*
X505933Y533152D01*
X503393D01*
X500853Y535692D01*
X498313Y533152D01*
X495773D01*
X498313Y530612D01*
X495773Y528072D01*
X498313D01*
X500853Y525532D01*
X517296Y516430D02*
X519836Y518970D01*
X522376D01*
X519836Y521510D01*
X522376Y524050D01*
X519836D01*
X517296Y526590D01*
X514756Y524050D01*
X512216D01*
X514756Y521510D01*
X512216Y518970D01*
X514756D01*
X517296Y516430D01*
X522408Y520526D02*
X524948Y523066D01*
X527488D01*
X524948Y525606D01*
X527488Y528146D01*
X524948D01*
X522408Y530686D01*
X519868Y528146D01*
X517328D01*
X519868Y525606D01*
X517328Y523066D01*
X519868D01*
X522408Y520526D01*
X513518Y521034D02*
X516058Y523574D01*
X518598D01*
X516058Y526114D01*
X518598Y528654D01*
X516058D01*
X513518Y531194D01*
X510978Y528654D01*
X508438D01*
X510978Y526114D01*
X508438Y523574D01*
X510978D01*
X513518Y521034D01*
X517617Y525532D02*
X520157Y528072D01*
X522697D01*
X520157Y530612D01*
X522697Y533152D01*
X520157D01*
X517617Y535692D01*
X515077Y533152D01*
X512537D01*
X515077Y530612D01*
X512537Y528072D01*
X515077D01*
X517617Y525532D01*
X501040Y644214D02*
X503580Y646754D01*
X506120D01*
X503580Y649294D01*
X506120Y651834D01*
X503580D01*
X501040Y654374D01*
X498500Y651834D01*
X495960D01*
X498500Y649294D01*
X495960Y646754D01*
X498500D01*
X501040Y644214D01*
X497262Y648818D02*
X499802Y651358D01*
X502342D01*
X499802Y653898D01*
X502342Y656438D01*
X499802D01*
X497262Y658978D01*
X494722Y656438D01*
X492182D01*
X494722Y653898D01*
X492182Y651358D01*
X494722D01*
X497262Y648818D01*
X501361Y653316D02*
X503901Y655856D01*
X506441D01*
X503901Y658396D01*
X506441Y660936D01*
X503901D01*
X501361Y663476D01*
X498821Y660936D01*
X496281D01*
X498821Y658396D01*
X496281Y655856D01*
X498821D01*
X501361Y653316D01*
X517972Y653214D02*
X520513Y655754D01*
X523052D01*
X520513Y658294D01*
X523052Y660834D01*
X520513D01*
X517972Y663374D01*
X515433Y660834D01*
X512892D01*
X515433Y658294D01*
X512892Y655754D01*
X515433D01*
X517972Y653214D01*
X513874Y648716D02*
X516414Y651256D01*
X518954D01*
X516414Y653796D01*
X518954Y656336D01*
X516414D01*
X513874Y658876D01*
X511334Y656336D01*
X508794D01*
X511334Y653796D01*
X508794Y651256D01*
X511334D01*
X513874Y648716D01*
X522764Y648208D02*
X525304Y650748D01*
X527844D01*
X525304Y653288D01*
X527844Y655828D01*
X525304D01*
X522764Y658368D01*
X520224Y655828D01*
X517684D01*
X520224Y653288D01*
X517684Y650748D01*
X520224D01*
X522764Y648208D01*
X517652Y644112D02*
X520192Y646652D01*
X522732D01*
X520192Y649192D01*
X522732Y651732D01*
X520192D01*
X517652Y654272D01*
X515112Y651732D01*
X512572D01*
X515112Y649192D01*
X512572Y646652D01*
X515112D01*
X517652Y644112D01*
X579120Y355600D02*
X581660Y358140D01*
X584200D01*
X581660Y360680D01*
X584200Y363220D01*
X581660D01*
X579120Y365760D01*
X576580Y363220D01*
X574040D01*
X576580Y360680D01*
X574040Y358140D01*
X576580D01*
X579120Y355600D01*
Y350012D02*
X581660Y352552D01*
X584200D01*
X581660Y355092D01*
X584200Y357632D01*
X581660D01*
X579120Y360172D01*
X576580Y357632D01*
X574040D01*
X576580Y355092D01*
X574040Y352552D01*
X576580D01*
X579120Y350012D01*
Y344424D02*
X581660Y346964D01*
X584200D01*
X581660Y349504D01*
X584200Y352044D01*
X581660D01*
X579120Y354584D01*
X576580Y352044D01*
X574040D01*
X576580Y349504D01*
X574040Y346964D01*
X576580D01*
X579120Y344424D01*
X505799D02*
X508339Y346964D01*
X510879D01*
X508339Y349504D01*
X510879Y352044D01*
X508339D01*
X505799Y354584D01*
X503259Y352044D01*
X500719D01*
X503259Y349504D01*
X500719Y346964D01*
X503259D01*
X505799Y344424D01*
Y350012D02*
X508339Y352552D01*
X510879D01*
X508339Y355092D01*
X510879Y357632D01*
X508339D01*
X505799Y360172D01*
X503259Y357632D01*
X500719D01*
X503259Y355092D01*
X500719Y352552D01*
X503259D01*
X505799Y350012D01*
Y355600D02*
X508339Y358140D01*
X510879D01*
X508339Y360680D01*
X510879Y363220D01*
X508339D01*
X505799Y365760D01*
X503259Y363220D01*
X500719D01*
X503259Y360680D01*
X500719Y358140D01*
X503259D01*
X505799Y355600D01*
X432477Y344424D02*
X435017Y346964D01*
X437557D01*
X435017Y349504D01*
X437557Y352044D01*
X435017D01*
X432477Y354584D01*
X429937Y352044D01*
X427397D01*
X429937Y349504D01*
X427397Y346964D01*
X429937D01*
X432477Y344424D01*
Y350012D02*
X435017Y352552D01*
X437557D01*
X435017Y355092D01*
X437557Y357632D01*
X435017D01*
X432477Y360172D01*
X429937Y357632D01*
X427397D01*
X429937Y355092D01*
X427397Y352552D01*
X429937D01*
X432477Y350012D01*
Y355600D02*
X435017Y358140D01*
X437557D01*
X435017Y360680D01*
X437557Y363220D01*
X435017D01*
X432477Y365760D01*
X429937Y363220D01*
X427397D01*
X429937Y360680D01*
X427397Y358140D01*
X429937D01*
X432477Y355600D01*
X359156Y344424D02*
X361696Y346964D01*
X364236D01*
X361696Y349504D01*
X364236Y352044D01*
X361696D01*
X359156Y354584D01*
X356616Y352044D01*
X354076D01*
X356616Y349504D01*
X354076Y346964D01*
X356616D01*
X359156Y344424D01*
Y350012D02*
X361696Y352552D01*
X364236D01*
X361696Y355092D01*
X364236Y357632D01*
X361696D01*
X359156Y360172D01*
X356616Y357632D01*
X354076D01*
X356616Y355092D01*
X354076Y352552D01*
X356616D01*
X359156Y350012D01*
Y355600D02*
X361696Y358140D01*
X364236D01*
X361696Y360680D01*
X364236Y363220D01*
X361696D01*
X359156Y365760D01*
X356616Y363220D01*
X354076D01*
X356616Y360680D01*
X354076Y358140D01*
X356616D01*
X359156Y355600D01*
X579120Y186944D02*
X581660Y189484D01*
X584200D01*
X581660Y192024D01*
X584200Y194564D01*
X581660D01*
X579120Y197104D01*
X576580Y194564D01*
X574040D01*
X576580Y192024D01*
X574040Y189484D01*
X576580D01*
X579120Y186944D01*
Y181356D02*
X581660Y183896D01*
X584200D01*
X581660Y186436D01*
X584200Y188976D01*
X581660D01*
X579120Y191516D01*
X576580Y188976D01*
X574040D01*
X576580Y186436D01*
X574040Y183896D01*
X576580D01*
X579120Y181356D01*
Y175768D02*
X581660Y178308D01*
X584200D01*
X581660Y180848D01*
X584200Y183388D01*
X581660D01*
X579120Y185928D01*
X576580Y183388D01*
X574040D01*
X576580Y180848D01*
X574040Y178308D01*
X576580D01*
X579120Y175768D01*
X505799D02*
X508339Y178308D01*
X510879D01*
X508339Y180848D01*
X510879Y183388D01*
X508339D01*
X505799Y185928D01*
X503259Y183388D01*
X500719D01*
X503259Y180848D01*
X500719Y178308D01*
X503259D01*
X505799Y175768D01*
Y181356D02*
X508339Y183896D01*
X510879D01*
X508339Y186436D01*
X510879Y188976D01*
X508339D01*
X505799Y191516D01*
X503259Y188976D01*
X500719D01*
X503259Y186436D01*
X500719Y183896D01*
X503259D01*
X505799Y181356D01*
Y186944D02*
X508339Y189484D01*
X510879D01*
X508339Y192024D01*
X510879Y194564D01*
X508339D01*
X505799Y197104D01*
X503259Y194564D01*
X500719D01*
X503259Y192024D01*
X500719Y189484D01*
X503259D01*
X505799Y186944D01*
X432477Y175768D02*
X435017Y178308D01*
X437557D01*
X435017Y180848D01*
X437557Y183388D01*
X435017D01*
X432477Y185928D01*
X429937Y183388D01*
X427397D01*
X429937Y180848D01*
X427397Y178308D01*
X429937D01*
X432477Y175768D01*
Y181356D02*
X435017Y183896D01*
X437557D01*
X435017Y186436D01*
X437557Y188976D01*
X435017D01*
X432477Y191516D01*
X429937Y188976D01*
X427397D01*
X429937Y186436D01*
X427397Y183896D01*
X429937D01*
X432477Y181356D01*
Y186944D02*
X435017Y189484D01*
X437557D01*
X435017Y192024D01*
X437557Y194564D01*
X435017D01*
X432477Y197104D01*
X429937Y194564D01*
X427397D01*
X429937Y192024D01*
X427397Y189484D01*
X429937D01*
X432477Y186944D01*
X359156Y175768D02*
X361696Y178308D01*
X364236D01*
X361696Y180848D01*
X364236Y183388D01*
X361696D01*
X359156Y185928D01*
X356616Y183388D01*
X354076D01*
X356616Y180848D01*
X354076Y178308D01*
X356616D01*
X359156Y175768D01*
Y181356D02*
X361696Y183896D01*
X364236D01*
X361696Y186436D01*
X364236Y188976D01*
X361696D01*
X359156Y191516D01*
X356616Y188976D01*
X354076D01*
X356616Y186436D01*
X354076Y183896D01*
X356616D01*
X359156Y181356D01*
Y186944D02*
X361696Y189484D01*
X364236D01*
X361696Y192024D01*
X364236Y194564D01*
X361696D01*
X359156Y197104D01*
X356616Y194564D01*
X354076D01*
X356616Y192024D01*
X354076Y189484D01*
X356616D01*
X359156Y186944D01*
Y18796D02*
X361696Y21336D01*
X364236D01*
X361696Y23876D01*
X364236Y26416D01*
X361696D01*
X359156Y28956D01*
X356616Y26416D01*
X354076D01*
X356616Y23876D01*
X354076Y21336D01*
X356616D01*
X359156Y18796D01*
Y13208D02*
X361696Y15748D01*
X364236D01*
X361696Y18288D01*
X364236Y20828D01*
X361696D01*
X359156Y23368D01*
X356616Y20828D01*
X354076D01*
X356616Y18288D01*
X354076Y15748D01*
X356616D01*
X359156Y13208D01*
Y7620D02*
X361696Y10160D01*
X364236D01*
X361696Y12700D01*
X364236Y15240D01*
X361696D01*
X359156Y17780D01*
X356616Y15240D01*
X354076D01*
X356616Y12700D01*
X354076Y10160D01*
X356616D01*
X359156Y7620D01*
X432477Y18796D02*
X435017Y21336D01*
X437557D01*
X435017Y23876D01*
X437557Y26416D01*
X435017D01*
X432477Y28956D01*
X429937Y26416D01*
X427397D01*
X429937Y23876D01*
X427397Y21336D01*
X429937D01*
X432477Y18796D01*
Y13208D02*
X435017Y15748D01*
X437557D01*
X435017Y18288D01*
X437557Y20828D01*
X435017D01*
X432477Y23368D01*
X429937Y20828D01*
X427397D01*
X429937Y18288D01*
X427397Y15748D01*
X429937D01*
X432477Y13208D01*
Y7620D02*
X435017Y10160D01*
X437557D01*
X435017Y12700D01*
X437557Y15240D01*
X435017D01*
X432477Y17780D01*
X429937Y15240D01*
X427397D01*
X429937Y12700D01*
X427397Y10160D01*
X429937D01*
X432477Y7620D01*
X505799Y18796D02*
X508339Y21336D01*
X510879D01*
X508339Y23876D01*
X510879Y26416D01*
X508339D01*
X505799Y28956D01*
X503259Y26416D01*
X500719D01*
X503259Y23876D01*
X500719Y21336D01*
X503259D01*
X505799Y18796D01*
Y13208D02*
X508339Y15748D01*
X510879D01*
X508339Y18288D01*
X510879Y20828D01*
X508339D01*
X505799Y23368D01*
X503259Y20828D01*
X500719D01*
X503259Y18288D01*
X500719Y15748D01*
X503259D01*
X505799Y13208D01*
Y7620D02*
X508339Y10160D01*
X510879D01*
X508339Y12700D01*
X510879Y15240D01*
X508339D01*
X505799Y17780D01*
X503259Y15240D01*
X500719D01*
X503259Y12700D01*
X500719Y10160D01*
X503259D01*
X505799Y7620D01*
X579120D02*
X581660Y10160D01*
X584200D01*
X581660Y12700D01*
X584200Y15240D01*
X581660D01*
X579120Y17780D01*
X576580Y15240D01*
X574040D01*
X576580Y12700D01*
X574040Y10160D01*
X576580D01*
X579120Y7620D01*
Y13208D02*
X581660Y15748D01*
X584200D01*
X581660Y18288D01*
X584200Y20828D01*
X581660D01*
X579120Y23368D01*
X576580Y20828D01*
X574040D01*
X576580Y18288D01*
X574040Y15748D01*
X576580D01*
X579120Y13208D01*
Y18796D02*
X581660Y21336D01*
X584200D01*
X581660Y23876D01*
X584200Y26416D01*
X581660D01*
X579120Y28956D01*
X576580Y26416D01*
X574040D01*
X576580Y23876D01*
X574040Y21336D01*
X576580D01*
X579120Y18796D01*
X502666Y47580D02*
X505206Y50120D01*
X507746D01*
X505206Y52660D01*
X507746Y55200D01*
X505206D01*
X502666Y57740D01*
X500126Y55200D01*
X497586D01*
X500126Y52660D01*
X497586Y50120D01*
X500126D01*
X502666Y47580D01*
X508254D02*
X510794Y50120D01*
X513334D01*
X510794Y52660D01*
X513334Y55200D01*
X510794D01*
X508254Y57740D01*
X505714Y55200D01*
X503174D01*
X505714Y52660D01*
X503174Y50120D01*
X505714D01*
X508254Y47580D01*
X513842D02*
X516382Y50120D01*
X518922D01*
X516382Y52660D01*
X518922Y55200D01*
X516382D01*
X513842Y57740D01*
X511302Y55200D01*
X508762D01*
X511302Y52660D01*
X508762Y50120D01*
X511302D01*
X513842Y47580D01*
X578866D02*
X581406Y50120D01*
X583946D01*
X581406Y52660D01*
X583946Y55200D01*
X581406D01*
X578866Y57740D01*
X576326Y55200D01*
X573786D01*
X576326Y52660D01*
X573786Y50120D01*
X576326D01*
X578866Y47580D01*
X584454D02*
X586994Y50120D01*
X589534D01*
X586994Y52660D01*
X589534Y55200D01*
X586994D01*
X584454Y57740D01*
X581914Y55200D01*
X579374D01*
X581914Y52660D01*
X579374Y50120D01*
X581914D01*
X584454Y47580D01*
X590042D02*
X592582Y50120D01*
X595122D01*
X592582Y52660D01*
X595122Y55200D01*
X592582D01*
X590042Y57740D01*
X587502Y55200D01*
X584962D01*
X587502Y52660D01*
X584962Y50120D01*
X587502D01*
X590042Y47580D01*
X593090Y544966D02*
X595630Y547506D01*
X598170D01*
X595630Y550046D01*
X598170Y552586D01*
X595630D01*
X593090Y555126D01*
X590550Y552586D01*
X588010D01*
X590550Y550046D01*
X588010Y547506D01*
X590550D01*
X593090Y544966D01*
X581152Y513080D02*
X583692Y515620D01*
X586232D01*
X583692Y518160D01*
X586232Y520700D01*
X583692D01*
X581152Y523240D01*
X578612Y520700D01*
X576072D01*
X578612Y518160D01*
X576072Y515620D01*
X578612D01*
X581152Y513080D01*
X581406Y654558D02*
X583946Y657098D01*
X586486D01*
X583946Y659638D01*
X586486Y662178D01*
X583946D01*
X581406Y664718D01*
X578866Y662178D01*
X576326D01*
X578866Y659638D01*
X576326Y657098D01*
X578866D01*
X581406Y654558D01*
X592582Y631698D02*
X595122Y634238D01*
X597662D01*
X595122Y636778D01*
X597662Y639318D01*
X595122D01*
X592582Y641858D01*
X590042Y639318D01*
X587502D01*
X590042Y636778D01*
X587502Y634238D01*
X590042D01*
X592582Y631698D01*
X323342Y582930D02*
X325882Y585470D01*
X328422D01*
X325882Y588010D01*
X328422Y590550D01*
X325882D01*
X323342Y593090D01*
X320802Y590550D01*
X318262D01*
X320802Y588010D01*
X318262Y585470D01*
X320802D01*
X323342Y582930D01*
X356108Y553974D02*
X358648Y556514D01*
X361188D01*
X358648Y559054D01*
X361188Y561594D01*
X358648D01*
X356108Y564134D01*
X353568Y561594D01*
X351028D01*
X353568Y559054D01*
X351028Y556514D01*
X353568D01*
X356108Y553974D01*
X343662Y612648D02*
X346202Y615188D01*
X348742D01*
X346202Y617728D01*
X348742Y620268D01*
X346202D01*
X343662Y622808D01*
X341122Y620268D01*
X338582D01*
X341122Y617728D01*
X338582Y615188D01*
X341122D01*
X343662Y612648D01*
X356108Y613918D02*
X358648Y616458D01*
X361188D01*
X358648Y618998D01*
X361188Y621538D01*
X358648D01*
X356108Y624078D01*
X353568Y621538D01*
X351028D01*
X353568Y618998D01*
X351028Y616458D01*
X353568D01*
X356108Y613918D01*
X366522Y572262D02*
X369062Y574802D01*
X371602D01*
X369062Y577342D01*
X371602Y579882D01*
X369062D01*
X366522Y582422D01*
X363982Y579882D01*
X361442D01*
X363982Y577342D01*
X361442Y574802D01*
X363982D01*
X366522Y572262D01*
X375158Y580136D02*
X377698Y582676D01*
X380238D01*
X377698Y585216D01*
X380238Y587756D01*
X377698D01*
X375158Y590296D01*
X372618Y587756D01*
X370078D01*
X372618Y585216D01*
X370078Y582676D01*
X372618D01*
X375158Y580136D01*
X110367Y577727D02*
X112907Y580267D01*
X115447D01*
X112907Y582807D01*
X115447Y585347D01*
X112907D01*
X110367Y587887D01*
X107827Y585347D01*
X105287D01*
X107827Y582807D01*
X105287Y580267D01*
X107827D01*
X110367Y577727D01*
X153408Y568714D02*
X155948Y571254D01*
X158488D01*
X155948Y573794D01*
X158488Y576334D01*
X155948D01*
X153408Y578874D01*
X150868Y576334D01*
X148328D01*
X150868Y573794D01*
X148328Y571254D01*
X150868D01*
X153408Y568714D01*
X157226Y539750D02*
X159766Y542290D01*
X162306D01*
X159766Y544830D01*
X162306Y547370D01*
X159766D01*
X157226Y549910D01*
X154686Y547370D01*
X152146D01*
X154686Y544830D01*
X152146Y542290D01*
X154686D01*
X157226Y539750D01*
X162814Y563626D02*
X165354Y566166D01*
X167894D01*
X165354Y568706D01*
X167894Y571246D01*
X165354D01*
X162814Y573786D01*
X160274Y571246D01*
X157734D01*
X160274Y568706D01*
X157734Y566166D01*
X160274D01*
X162814Y563626D01*
X49687Y262356D02*
X52227Y264896D01*
X54767D01*
X52227Y267436D01*
X54767Y269976D01*
X52227D01*
X49687Y272516D01*
X47147Y269976D01*
X44607D01*
X47147Y267436D01*
X44607Y264896D01*
X47147D01*
X49687Y262356D01*
X95758Y75692D02*
X98298Y78232D01*
X100838D01*
X98298Y80772D01*
X100838Y83312D01*
X98298D01*
X95758Y85852D01*
X93218Y83312D01*
X90678D01*
X93218Y80772D01*
X90678Y78232D01*
X93218D01*
X95758Y75692D01*
X108458Y73406D02*
X110998Y75946D01*
X113538D01*
X110998Y78486D01*
X113538Y81026D01*
X110998D01*
X108458Y83566D01*
X105918Y81026D01*
X103378D01*
X105918Y78486D01*
X103378Y75946D01*
X105918D01*
X108458Y73406D01*
X85598Y93218D02*
X88138Y95758D01*
X90678D01*
X88138Y98298D01*
X90678Y100838D01*
X88138D01*
X85598Y103378D01*
X83058Y100838D01*
X80518D01*
X83058Y98298D01*
X80518Y95758D01*
X83058D01*
X85598Y93218D01*
X97282Y93726D02*
X99822Y96266D01*
X102362D01*
X99822Y98806D01*
X102362Y101346D01*
X99822D01*
X97282Y103886D01*
X94742Y101346D01*
X92202D01*
X94742Y98806D01*
X92202Y96266D01*
X94742D01*
X97282Y93726D01*
X108204Y93980D02*
X110744Y96520D01*
X113284D01*
X110744Y99060D01*
X113284Y101600D01*
X110744D01*
X108204Y104140D01*
X105664Y101600D01*
X103124D01*
X105664Y99060D01*
X103124Y96520D01*
X105664D01*
X108204Y93980D01*
X160020Y114808D02*
X162560Y117348D01*
X165100D01*
X162560Y119888D01*
X165100Y122428D01*
X162560D01*
X160020Y124968D01*
X157480Y122428D01*
X154940D01*
X157480Y119888D01*
X154940Y117348D01*
X157480D01*
X160020Y114808D01*
X154432Y119126D02*
X156972Y121666D01*
X159512D01*
X156972Y124206D01*
X159512Y126746D01*
X156972D01*
X154432Y129286D01*
X151892Y126746D01*
X149352D01*
X151892Y124206D01*
X149352Y121666D01*
X151892D01*
X154432Y119126D01*
X155956Y130048D02*
X158496Y132588D01*
X161036D01*
X158496Y135128D01*
X161036Y137668D01*
X158496D01*
X155956Y140208D01*
X153416Y137668D01*
X150876D01*
X153416Y135128D01*
X150876Y132588D01*
X153416D01*
X155956Y130048D01*
X161798Y136652D02*
X164338Y139192D01*
X166878D01*
X164338Y141732D01*
X166878Y144272D01*
X164338D01*
X161798Y146812D01*
X159258Y144272D01*
X156718D01*
X159258Y141732D01*
X156718Y139192D01*
X159258D01*
X161798Y136652D01*
X159766Y256540D02*
X162306Y259080D01*
X164846D01*
X162306Y261620D01*
X164846Y264160D01*
X162306D01*
X159766Y266700D01*
X157226Y264160D01*
X154686D01*
X157226Y261620D01*
X154686Y259080D01*
X157226D01*
X159766Y256540D01*
X156718Y270764D02*
X159258Y273304D01*
X161798D01*
X159258Y275844D01*
X161798Y278384D01*
X159258D01*
X156718Y280924D01*
X154178Y278384D01*
X151638D01*
X154178Y275844D01*
X151638Y273304D01*
X154178D01*
X156718Y270764D01*
X159004Y278892D02*
X161544Y281432D01*
X164084D01*
X161544Y283972D01*
X164084Y286512D01*
X161544D01*
X159004Y289052D01*
X156464Y286512D01*
X153924D01*
X156464Y283972D01*
X153924Y281432D01*
X156464D01*
X159004Y278892D01*
X158750Y229108D02*
X161290Y231648D01*
X163830D01*
X161290Y234188D01*
X163830Y236728D01*
X161290D01*
X158750Y239268D01*
X156210Y236728D01*
X153670D01*
X156210Y234188D01*
X153670Y231648D01*
X156210D01*
X158750Y229108D01*
X80264Y230886D02*
X82804Y233426D01*
X85344D01*
X82804Y235966D01*
X85344Y238506D01*
X82804D01*
X80264Y241046D01*
X77724Y238506D01*
X75184D01*
X77724Y235966D01*
X75184Y233426D01*
X77724D01*
X80264Y230886D01*
X105918Y216662D02*
X108458Y219202D01*
X110998D01*
X108458Y221742D01*
X110998Y224282D01*
X108458D01*
X105918Y226822D01*
X103378Y224282D01*
X100838D01*
X103378Y221742D01*
X100838Y219202D01*
X103378D01*
X105918Y216662D01*
X91440Y217424D02*
X93980Y219964D01*
X96520D01*
X93980Y222504D01*
X96520Y225044D01*
X93980D01*
X91440Y227584D01*
X88900Y225044D01*
X86360D01*
X88900Y222504D01*
X86360Y219964D01*
X88900D01*
X91440Y217424D01*
X87630Y233172D02*
X90170Y235712D01*
X92710D01*
X90170Y238252D01*
X92710Y240792D01*
X90170D01*
X87630Y243332D01*
X85090Y240792D01*
X82550D01*
X85090Y238252D01*
X82550Y235712D01*
X85090D01*
X87630Y233172D01*
X104902Y367030D02*
X107442Y369570D01*
X109982D01*
X107442Y372110D01*
X109982Y374650D01*
X107442D01*
X104902Y377190D01*
X102362Y374650D01*
X99822D01*
X102362Y372110D01*
X99822Y369570D01*
X102362D01*
X104902Y367030D01*
X83312Y379984D02*
X85852Y382524D01*
X88392D01*
X85852Y385064D01*
X88392Y387604D01*
X85852D01*
X83312Y390144D01*
X80772Y387604D01*
X78232D01*
X80772Y385064D01*
X78232Y382524D01*
X80772D01*
X83312Y379984D01*
X85598Y364744D02*
X88138Y367284D01*
X90678D01*
X88138Y369824D01*
X90678Y372364D01*
X88138D01*
X85598Y374904D01*
X83058Y372364D01*
X80518D01*
X83058Y369824D01*
X80518Y367284D01*
X83058D01*
X85598Y364744D01*
X106172Y375666D02*
X108712Y378206D01*
X111252D01*
X108712Y380746D01*
X111252Y383286D01*
X108712D01*
X106172Y385826D01*
X103632Y383286D01*
X101092D01*
X103632Y380746D01*
X101092Y378206D01*
X103632D01*
X106172Y375666D01*
X106934Y355346D02*
X109474Y357886D01*
X112014D01*
X109474Y360426D01*
X112014Y362966D01*
X109474D01*
X106934Y365506D01*
X104394Y362966D01*
X101854D01*
X104394Y360426D01*
X101854Y357886D01*
X104394D01*
X106934Y355346D01*
X159258Y400558D02*
X161798Y403098D01*
X164338D01*
X161798Y405638D01*
X164338Y408178D01*
X161798D01*
X159258Y410718D01*
X156718Y408178D01*
X154178D01*
X156718Y405638D01*
X154178Y403098D01*
X156718D01*
X159258Y400558D01*
X166878Y415290D02*
X169418Y417830D01*
X171958D01*
X169418Y420370D01*
X171958Y422910D01*
X169418D01*
X166878Y425450D01*
X164338Y422910D01*
X161798D01*
X164338Y420370D01*
X161798Y417830D01*
X164338D01*
X166878Y415290D01*
X155194Y422656D02*
X157734Y425196D01*
X160274D01*
X157734Y427736D01*
X160274Y430276D01*
X157734D01*
X155194Y432816D01*
X152654Y430276D01*
X150114D01*
X152654Y427736D01*
X150114Y425196D01*
X152654D01*
X155194Y422656D01*
X45655Y400994D02*
X48195Y403534D01*
X50735D01*
X48195Y406074D01*
X50735Y408614D01*
X48195D01*
X45655Y411154D01*
X43115Y408614D01*
X40575D01*
X43115Y406074D01*
X40575Y403534D01*
X43115D01*
X45655Y400994D01*
X83856Y422692D02*
X86396Y425232D01*
X88936D01*
X86396Y427772D01*
X88936Y430312D01*
X86396D01*
X83856Y432852D01*
X81316Y430312D01*
X78776D01*
X81316Y427772D01*
X78776Y425232D01*
X81316D01*
X83856Y422692D01*
X94525Y422690D02*
X97065Y425230D01*
X99605D01*
X97065Y427770D01*
X99605Y430310D01*
X97065D01*
X94525Y432850D01*
X91985Y430310D01*
X89445D01*
X91985Y427770D01*
X89445Y425230D01*
X91985D01*
X94525Y422690D01*
X105309Y422555D02*
X107849Y425095D01*
X110389D01*
X107849Y427635D01*
X110389Y430175D01*
X107849D01*
X105309Y432715D01*
X102769Y430175D01*
X100229D01*
X102769Y427635D01*
X100229Y425095D01*
X102769D01*
X105309Y422555D01*
X59030Y421586D02*
X61570Y424126D01*
X64110D01*
X61570Y426666D01*
X64110Y429206D01*
X61570D01*
X59030Y431746D01*
X56490Y429206D01*
X53950D01*
X56490Y426666D01*
X53950Y424126D01*
X56490D01*
X59030Y421586D01*
X56794Y416814D02*
X59334Y419354D01*
X61874D01*
X59334Y421894D01*
X61874Y424434D01*
X59334D01*
X56794Y426974D01*
X54254Y424434D01*
X51714D01*
X54254Y421894D01*
X51714Y419354D01*
X54254D01*
X56794Y416814D01*
X112928Y405988D02*
X115468Y408528D01*
X118008D01*
X115468Y411068D01*
X118008Y413608D01*
X115468D01*
X112928Y416148D01*
X110388Y413608D01*
X107848D01*
X110388Y411068D01*
X107848Y408528D01*
X110388D01*
X112928Y405988D01*
X344932Y522478D02*
X347472Y525018D01*
X350012D01*
X347472Y527558D01*
X350012Y530098D01*
X347472D01*
X344932Y532638D01*
X342392Y530098D01*
X339852D01*
X342392Y527558D01*
X339852Y525018D01*
X342392D01*
X344932Y522478D01*
X366014Y523494D02*
X368554Y526034D01*
X371094D01*
X368554Y528574D01*
X371094Y531114D01*
X368554D01*
X366014Y533654D01*
X363474Y531114D01*
X360934D01*
X363474Y528574D01*
X360934Y526034D01*
X363474D01*
X366014Y523494D01*
X390652Y551434D02*
X393192Y553974D01*
X395732D01*
X393192Y556514D01*
X395732Y559054D01*
X393192D01*
X390652Y561594D01*
X388112Y559054D01*
X385572D01*
X388112Y556514D01*
X385572Y553974D01*
X388112D01*
X390652Y551434D01*
X291520Y619832D02*
X294060Y622372D01*
X296600D01*
X294060Y624912D01*
X296600Y627452D01*
X294060D01*
X291520Y629992D01*
X288980Y627452D01*
X286440D01*
X288980Y624912D01*
X286440Y622372D01*
X288980D01*
X291520Y619832D01*
X387096Y633984D02*
X389636Y636524D01*
X392176D01*
X389636Y639064D01*
X392176Y641604D01*
X389636D01*
X387096Y644144D01*
X384556Y641604D01*
X382016D01*
X384556Y639064D01*
X382016Y636524D01*
X384556D01*
X387096Y633984D01*
X369062Y651256D02*
X371602Y653796D01*
X374142D01*
X371602Y656336D01*
X374142Y658876D01*
X371602D01*
X369062Y661416D01*
X366522Y658876D01*
X363982D01*
X366522Y656336D01*
X363982Y653796D01*
X366522D01*
X369062Y651256D01*
X333756Y644652D02*
X336296Y647192D01*
X338836D01*
X336296Y649732D01*
X338836Y652272D01*
X336296D01*
X333756Y654812D01*
X331216Y652272D01*
X328676D01*
X331216Y649732D01*
X328676Y647192D01*
X331216D01*
X333756Y644652D01*
X325374Y636524D02*
X327914Y639064D01*
X330454D01*
X327914Y641604D01*
X330454Y644144D01*
X327914D01*
X325374Y646684D01*
X322834Y644144D01*
X320294D01*
X322834Y641604D01*
X320294Y639064D01*
X322834D01*
X325374Y636524D01*
X308356Y619506D02*
X310896Y622046D01*
X313436D01*
X310896Y624586D01*
X313436Y627126D01*
X310896D01*
X308356Y629666D01*
X305816Y627126D01*
X303276D01*
X305816Y624586D01*
X303276Y622046D01*
X305816D01*
X308356Y619506D01*
X316738Y627634D02*
X319278Y630174D01*
X321818D01*
X319278Y632714D01*
X321818Y635254D01*
X319278D01*
X316738Y637794D01*
X314198Y635254D01*
X311658D01*
X314198Y632714D01*
X311658Y630174D01*
X314198D01*
X316738Y627634D01*
X381072Y524692D02*
X383612Y527232D01*
X386152D01*
X383612Y529772D01*
X386152Y532312D01*
X383612D01*
X381072Y534852D01*
X378532Y532312D01*
X375992D01*
X378532Y529772D01*
X375992Y527232D01*
X378532D01*
X381072Y524692D01*
X412780Y567690D02*
X415320Y570230D01*
X417859D01*
X415320Y572770D01*
X417859Y575310D01*
X415320D01*
X412780Y577850D01*
X410239Y575310D01*
X407700D01*
X410239Y572770D01*
X407700Y570230D01*
X410239D01*
X412780Y567690D01*
X311658Y519938D02*
X314198Y522478D01*
X316738D01*
X314198Y525018D01*
X316738Y527558D01*
X314198D01*
X311658Y530098D01*
X309118Y527558D01*
X306578D01*
X309118Y525018D01*
X306578Y522478D01*
X309118D01*
X311658Y519938D01*
X295910Y536956D02*
X298450Y539496D01*
X300990D01*
X298450Y542036D01*
X300990Y544576D01*
X298450D01*
X295910Y547116D01*
X293370Y544576D01*
X290830D01*
X293370Y542036D01*
X290830Y539496D01*
X293370D01*
X295910Y536956D01*
X303439Y529646D02*
X305979Y532187D01*
X308519D01*
X305979Y534726D01*
X308519Y537267D01*
X305979D01*
X303439Y539807D01*
X300899Y537267D01*
X298359D01*
X300899Y534726D01*
X298359Y532187D01*
X300899D01*
X303439Y529646D01*
X278357Y555465D02*
X280897Y558005D01*
X283437D01*
X280897Y560545D01*
X283437Y563085D01*
X280897D01*
X278357Y565625D01*
X275817Y563085D01*
X273277D01*
X275817Y560545D01*
X273277Y558005D01*
X275817D01*
X278357Y555465D01*
X311152Y553011D02*
X313692Y555551D01*
X316232D01*
X313692Y558091D01*
X316232Y560631D01*
X313692D01*
X311152Y563171D01*
X308612Y560631D01*
X306072D01*
X308612Y558091D01*
X306072Y555551D01*
X308612D01*
X311152Y553011D01*
X319651Y544556D02*
X322191Y547096D01*
X324731D01*
X322191Y549636D01*
X324731Y552176D01*
X322191D01*
X319651Y554716D01*
X317111Y552176D01*
X314571D01*
X317111Y549636D01*
X314571Y547096D01*
X317111D01*
X319651Y544556D01*
X328049Y535999D02*
X330589Y538539D01*
X333129D01*
X330589Y541079D01*
X333129Y543619D01*
X330589D01*
X328049Y546159D01*
X325509Y543619D01*
X322969D01*
X325509Y541079D01*
X322969Y538539D01*
X325509D01*
X328049Y535999D01*
X284346Y625373D02*
X286886Y627914D01*
X289426D01*
X286886Y630453D01*
X289426Y632994D01*
X286886D01*
X284346Y635533D01*
X281806Y632994D01*
X279266D01*
X281806Y630453D01*
X279266Y627914D01*
X281806D01*
X284346Y625373D01*
X292862Y633870D02*
X295402Y636410D01*
X297942D01*
X295402Y638950D01*
X297942Y641490D01*
X295402D01*
X292862Y644030D01*
X290322Y641490D01*
X287782D01*
X290322Y638950D01*
X287782Y636410D01*
X290322D01*
X292862Y633870D01*
X302006Y643636D02*
X304546Y646176D01*
X307086D01*
X304546Y648716D01*
X307086Y651256D01*
X304546D01*
X302006Y653796D01*
X299466Y651256D01*
X296926D01*
X299466Y648716D01*
X296926Y646176D01*
X299466D01*
X302006Y643636D01*
X309118Y652018D02*
X311658Y654558D01*
X314198D01*
X311658Y657098D01*
X314198Y659638D01*
X311658D01*
X309118Y662178D01*
X306578Y659638D01*
X304038D01*
X306578Y657098D01*
X304038Y654558D01*
X306578D01*
X309118Y652018D01*
X337058Y658622D02*
X339598Y661162D01*
X342138D01*
X339598Y663702D01*
X342138Y666242D01*
X339598D01*
X337058Y668782D01*
X334518Y666242D01*
X331978D01*
X334518Y663702D01*
X331978Y661162D01*
X334518D01*
X337058Y658622D01*
X365506Y658114D02*
X368046Y660654D01*
X370586D01*
X368046Y663194D01*
X370586Y665734D01*
X368046D01*
X365506Y668274D01*
X362966Y665734D01*
X360426D01*
X362966Y663194D01*
X360426Y660654D01*
X362966D01*
X365506Y658114D01*
X434086Y656844D02*
X436626Y659384D01*
X439166D01*
X436626Y661924D01*
X439166Y664464D01*
X436626D01*
X434086Y667004D01*
X431546Y664464D01*
X429006D01*
X431546Y661924D01*
X429006Y659384D01*
X431546D01*
X434086Y656844D01*
X442214Y664776D02*
X444754Y667316D01*
X447294D01*
X444754Y669856D01*
X447294Y672396D01*
X444754D01*
X442214Y674936D01*
X439674Y672396D01*
X437134D01*
X439674Y669856D01*
X437134Y667316D01*
X439674D01*
X442214Y664776D01*
X459232Y627380D02*
X461772Y629920D01*
X464312D01*
X461772Y632460D01*
X464312Y635000D01*
X461772D01*
X459232Y637540D01*
X456692Y635000D01*
X454152D01*
X456692Y632460D01*
X454152Y629920D01*
X456692D01*
X459232Y627380D01*
X451470Y634746D02*
X454010Y637286D01*
X456550D01*
X454010Y639826D01*
X456550Y642366D01*
X454010D01*
X451470Y644906D01*
X448930Y642366D01*
X446390D01*
X448930Y639826D01*
X446390Y637286D01*
X448930D01*
X451470Y634746D01*
X422656Y631190D02*
X425196Y633730D01*
X427736D01*
X425196Y636270D01*
X427736Y638810D01*
X425196D01*
X422656Y641350D01*
X420116Y638810D01*
X417576D01*
X420116Y636270D01*
X417576Y633730D01*
X420116D01*
X422656Y631190D01*
X422910Y661162D02*
X425450Y663702D01*
X427990D01*
X425450Y666242D01*
X427990Y668782D01*
X425450D01*
X422910Y671322D01*
X420370Y668782D01*
X417830D01*
X420370Y666242D01*
X417830Y663702D01*
X420370D01*
X422910Y661162D01*
X412750Y662686D02*
X415290Y665226D01*
X417830D01*
X415290Y667766D01*
X417830Y670306D01*
X415290D01*
X412750Y672846D01*
X410210Y670306D01*
X407670D01*
X410210Y667766D01*
X407670Y665226D01*
X410210D01*
X412750Y662686D01*
X424434Y615747D02*
X426974Y618287D01*
X429514D01*
X426974Y620827D01*
X429514Y623367D01*
X426974D01*
X424434Y625907D01*
X421894Y623367D01*
X419354D01*
X421894Y620827D01*
X419354Y618287D01*
X421894D01*
X424434Y615747D01*
X416611Y623316D02*
X419151Y625856D01*
X421691D01*
X419151Y628396D01*
X421691Y630936D01*
X419151D01*
X416611Y633476D01*
X414071Y630936D01*
X411531D01*
X414071Y628396D01*
X411531Y625856D01*
X414071D01*
X416611Y623316D01*
X401574Y638556D02*
X404114Y641096D01*
X406654D01*
X404114Y643636D01*
X406654Y646176D01*
X404114D01*
X401574Y648716D01*
X399034Y646176D01*
X396494D01*
X399034Y643636D01*
X396494Y641096D01*
X399034D01*
X401574Y638556D01*
X409091Y631130D02*
X411631Y633670D01*
X414171D01*
X411631Y636210D01*
X414171Y638750D01*
X411631D01*
X409091Y641290D01*
X406551Y638750D01*
X404011D01*
X406551Y636210D01*
X404011Y633670D01*
X406551D01*
X409091Y631130D01*
X425958Y552450D02*
X428498Y554990D01*
X431038D01*
X428498Y557530D01*
X431038Y560070D01*
X428498D01*
X425958Y562610D01*
X423418Y560070D01*
X420878D01*
X423418Y557530D01*
X420878Y554990D01*
X423418D01*
X425958Y552450D01*
X413766Y534416D02*
X416306Y536956D01*
X418846D01*
X416306Y539496D01*
X418846Y542036D01*
X416306D01*
X413766Y544576D01*
X411226Y542036D01*
X408686D01*
X411226Y539496D01*
X408686Y536956D01*
X411226D01*
X413766Y534416D01*
X406966Y541840D02*
X409506Y544380D01*
X412046D01*
X409506Y546920D01*
X412046Y549460D01*
X409506D01*
X406966Y552000D01*
X404426Y549460D01*
X401886D01*
X404426Y546920D01*
X401886Y544380D01*
X404426D01*
X406966Y541840D01*
X389890Y524002D02*
X392430Y526542D01*
X394970D01*
X392430Y529082D01*
X394970Y531622D01*
X392430D01*
X389890Y534162D01*
X387350Y531622D01*
X384810D01*
X387350Y529082D01*
X384810Y526542D01*
X387350D01*
X389890Y524002D01*
X334010Y508508D02*
X336550Y511048D01*
X339090D01*
X336550Y513588D01*
X339090Y516128D01*
X336550D01*
X334010Y518668D01*
X331470Y516128D01*
X328930D01*
X331470Y513588D01*
X328930Y511048D01*
X331470D01*
X334010Y508508D01*
X393515Y533077D02*
X396055Y535617D01*
X398595D01*
X396055Y538157D01*
X398595Y540697D01*
X396055D01*
X393515Y543237D01*
X390975Y540697D01*
X388435D01*
X390975Y538157D01*
X388435Y535617D01*
X390975D01*
X393515Y533077D01*
X414782Y550418D02*
X417322Y552958D01*
X419862D01*
X417322Y555498D01*
X419862Y558038D01*
X417322D01*
X414782Y560578D01*
X412242Y558038D01*
X409702D01*
X412242Y555498D01*
X409702Y552958D01*
X412242D01*
X414782Y550418D01*
X417830Y609600D02*
X420370Y612140D01*
X422910D01*
X420370Y614680D01*
X422910Y617220D01*
X420370D01*
X417830Y619760D01*
X415290Y617220D01*
X412750D01*
X415290Y614680D01*
X412750Y612140D01*
X415290D01*
X417830Y609600D01*
X72136Y348903D02*
X74676Y351443D01*
X77216D01*
X74676Y353983D01*
X77216Y356523D01*
X74676D01*
X72136Y359063D01*
X69596Y356523D01*
X67056D01*
X69596Y353983D01*
X67056Y351443D01*
X69596D01*
X72136Y348903D01*
Y354173D02*
X74676Y356713D01*
X77216D01*
X74676Y359253D01*
X77216Y361793D01*
X74676D01*
X72136Y364333D01*
X69596Y361793D01*
X67056D01*
X69596Y359253D01*
X67056Y356713D01*
X69596D01*
X72136Y354173D01*
X168402Y114046D02*
X170942Y116586D01*
X173482D01*
X170942Y119126D01*
X173482Y121666D01*
X170942D01*
X168402Y124206D01*
X165862Y121666D01*
X163322D01*
X165862Y119126D01*
X163322Y116586D01*
X165862D01*
X168402Y114046D01*
X165100Y110490D02*
X167640Y113030D01*
X170180D01*
X167640Y115570D01*
X170180Y118110D01*
X167640D01*
X165100Y120650D01*
X162560Y118110D01*
X160020D01*
X162560Y115570D01*
X160020Y113030D01*
X162560D01*
X165100Y110490D01*
X171958Y117856D02*
X174498Y120396D01*
X177038D01*
X174498Y122936D01*
X177038Y125476D01*
X174498D01*
X171958Y128016D01*
X169418Y125476D01*
X166878D01*
X169418Y122936D01*
X166878Y120396D01*
X169418D01*
X171958Y117856D01*
X73152Y211171D02*
X75692Y213711D01*
X78232D01*
X75692Y216251D01*
X78232Y218791D01*
X75692D01*
X73152Y221331D01*
X70612Y218791D01*
X68072D01*
X70612Y216251D01*
X68072Y213711D01*
X70612D01*
X73152Y211171D01*
Y205901D02*
X75692Y208441D01*
X78232D01*
X75692Y210981D01*
X78232Y213521D01*
X75692D01*
X73152Y216061D01*
X70612Y213521D01*
X68072D01*
X70612Y210981D01*
X68072Y208441D01*
X70612D01*
X73152Y205901D01*
X123444Y401320D02*
X125984Y403860D01*
X128524D01*
X125984Y406400D01*
X128524Y408940D01*
X125984D01*
X123444Y411480D01*
X120904Y408940D01*
X118364D01*
X120904Y406400D01*
X118364Y403860D01*
X120904D01*
X123444Y401320D01*
X71628Y495461D02*
X74168Y498001D01*
X76708D01*
X74168Y500541D01*
X76708Y503081D01*
X74168D01*
X71628Y505621D01*
X69088Y503081D01*
X66548D01*
X69088Y500541D01*
X66548Y498001D01*
X69088D01*
X71628Y495461D01*
Y500731D02*
X74168Y503271D01*
X76708D01*
X74168Y505811D01*
X76708Y508351D01*
X74168D01*
X71628Y510891D01*
X69088Y508351D01*
X66548D01*
X69088Y505811D01*
X66548Y503271D01*
X69088D01*
X71628Y500731D01*
X198628Y619252D02*
X201168Y621792D01*
X203708D01*
X201168Y624332D01*
X203708Y626872D01*
X201168D01*
X198628Y629412D01*
X196088Y626872D01*
X193548D01*
X196088Y624332D01*
X193548Y621792D01*
X196088D01*
X198628Y619252D01*
X207264Y626364D02*
X209804Y628904D01*
X212344D01*
X209804Y631444D01*
X212344Y633984D01*
X209804D01*
X207264Y636524D01*
X204724Y633984D01*
X202184D01*
X204724Y631444D01*
X202184Y628904D01*
X204724D01*
X207264Y626364D01*
X211074Y609854D02*
X213614Y612394D01*
X216154D01*
X213614Y614934D01*
X216154Y617474D01*
X213614D01*
X211074Y620014D01*
X208534Y617474D01*
X205994D01*
X208534Y614934D01*
X205994Y612394D01*
X208534D01*
X211074Y609854D01*
X140970Y605536D02*
X143510Y608076D01*
X146050D01*
X143510Y610616D01*
X146050Y613156D01*
X143510D01*
X140970Y615696D01*
X138430Y613156D01*
X135890D01*
X138430Y610616D01*
X135890Y608076D01*
X138430D01*
X140970Y605536D01*
X246634Y590275D02*
X249174Y592815D01*
X251714D01*
X249174Y595355D01*
X251714Y597895D01*
X249174D01*
X246634Y600435D01*
X244094Y597895D01*
X241554D01*
X244094Y595355D01*
X241554Y592815D01*
X244094D01*
X246634Y590275D01*
X172974Y661924D02*
X175514Y664464D01*
X178054D01*
X175514Y667004D01*
X178054Y669544D01*
X175514D01*
X172974Y672084D01*
X170434Y669544D01*
X167894D01*
X170434Y667004D01*
X167894Y664464D01*
X170434D01*
X172974Y661924D01*
X204948Y639053D02*
X207488Y641593D01*
X210028D01*
X207488Y644133D01*
X210028Y646673D01*
X207488D01*
X204948Y649213D01*
X202408Y646673D01*
X199868D01*
X202408Y644133D01*
X199868Y641593D01*
X202408D01*
X204948Y639053D01*
X72898Y569436D02*
X75438Y571976D01*
X77978D01*
X75438Y574516D01*
X77978Y577056D01*
X75438D01*
X72898Y579596D01*
X70358Y577056D01*
X67818D01*
X70358Y574516D01*
X67818Y571976D01*
X70358D01*
X72898Y569436D01*
X83566D02*
X86106Y571976D01*
X88646D01*
X86106Y574516D01*
X88646Y577056D01*
X86106D01*
X83566Y579596D01*
X81026Y577056D01*
X78486D01*
X81026Y574516D01*
X78486Y571976D01*
X81026D01*
X83566Y569436D01*
X55490Y567404D02*
X58030Y569944D01*
X60570D01*
X58030Y572484D01*
X60570Y575024D01*
X58030D01*
X55490Y577564D01*
X52950Y575024D01*
X50410D01*
X52950Y572484D01*
X50410Y569944D01*
X52950D01*
X55490Y567404D01*
X51816Y563626D02*
X54356Y566166D01*
X56896D01*
X54356Y568706D01*
X56896Y571246D01*
X54356D01*
X51816Y573786D01*
X49276Y571246D01*
X46736D01*
X49276Y568706D01*
X46736Y566166D01*
X49276D01*
X51816Y563626D01*
X158914Y518551D02*
X161454Y521091D01*
X163994D01*
X161454Y523632D01*
X163994Y526171D01*
X161454D01*
X158914Y528712D01*
X156374Y526171D01*
X153834D01*
X156374Y523632D01*
X153834Y521091D01*
X156374D01*
X158914Y518551D01*
X26416Y370935D02*
X28956Y373475D01*
X31496D01*
X28956Y376015D01*
X31496Y378555D01*
X28956D01*
X26416Y381095D01*
X23876Y378555D01*
X21336D01*
X23876Y376015D01*
X21336Y373475D01*
X23876D01*
X26416Y370935D01*
Y365665D02*
X28956Y368205D01*
X31496D01*
X28956Y370745D01*
X31496Y373285D01*
X28956D01*
X26416Y375825D01*
X23876Y373285D01*
X21336D01*
X23876Y370745D01*
X21336Y368205D01*
X23876D01*
X26416Y365665D01*
X72390Y388173D02*
X74930Y390713D01*
X77470D01*
X74930Y393253D01*
X77470Y395793D01*
X74930D01*
X72390Y398333D01*
X69850Y395793D01*
X67310D01*
X69850Y393253D01*
X67310Y390713D01*
X69850D01*
X72390Y388173D01*
Y382903D02*
X74930Y385443D01*
X77470D01*
X74930Y387983D01*
X77470Y390523D01*
X74930D01*
X72390Y393063D01*
X69850Y390523D01*
X67310D01*
X69850Y387983D01*
X67310Y385443D01*
X69850D01*
X72390Y382903D01*
X136201Y515200D02*
X138741Y517740D01*
X141281D01*
X138741Y520280D01*
X141281Y522820D01*
X138741D01*
X136201Y525360D01*
X133661Y522820D01*
X131121D01*
X133661Y520280D01*
X131121Y517740D01*
X133661D01*
X136201Y515200D01*
X166212Y546400D02*
X168752Y548941D01*
X171292D01*
X168752Y551480D01*
X171292Y554021D01*
X168752D01*
X166212Y556561D01*
X163672Y554021D01*
X161132D01*
X163672Y551480D01*
X161132Y548941D01*
X163672D01*
X166212Y546400D01*
X162528Y542819D02*
X165068Y545359D01*
X167608D01*
X165068Y547899D01*
X167608Y550439D01*
X165068D01*
X162528Y552979D01*
X159988Y550439D01*
X157448D01*
X159988Y547899D01*
X157448Y545359D01*
X159988D01*
X162528Y542819D01*
X169550Y550448D02*
X172090Y552989D01*
X174630D01*
X172090Y555528D01*
X174630Y558069D01*
X172090D01*
X169550Y560608D01*
X167010Y558069D01*
X164470D01*
X167010Y555528D01*
X164470Y552989D01*
X167010D01*
X169550Y550448D01*
X95614Y390923D02*
X98154Y393463D01*
X100694D01*
X98154Y396003D01*
X100694Y398543D01*
X98154D01*
X95614Y401083D01*
X93074Y398543D01*
X90534D01*
X93074Y396003D01*
X90534Y393463D01*
X93074D01*
X95614Y390923D01*
X101980Y390980D02*
X104520Y393520D01*
X107060D01*
X104520Y396060D01*
X107060Y398600D01*
X104520D01*
X101980Y401140D01*
X99440Y398600D01*
X96900D01*
X99440Y396060D01*
X96900Y393520D01*
X99440D01*
X101980Y390980D01*
X121412Y431721D02*
X123952Y434262D01*
X126492D01*
X123952Y436801D01*
X126492Y439342D01*
X123952D01*
X121412Y441881D01*
X118872Y439342D01*
X116332D01*
X118872Y436801D01*
X116332Y434262D01*
X118872D01*
X121412Y431721D01*
X30480Y446532D02*
X33020Y449072D01*
X35560D01*
X33020Y451612D01*
X35560Y454152D01*
X33020D01*
X30480Y456692D01*
X27940Y454152D01*
X25400D01*
X27940Y451612D01*
X25400Y449072D01*
X27940D01*
X30480Y446532D01*
X56642Y476504D02*
X59182Y479044D01*
X61722D01*
X59182Y481584D01*
X61722Y484124D01*
X59182D01*
X56642Y486664D01*
X54102Y484124D01*
X51562D01*
X54102Y481584D01*
X51562Y479044D01*
X54102D01*
X56642Y476504D01*
X75758Y557022D02*
X78298Y559562D01*
X80838D01*
X78298Y562102D01*
X80838Y564642D01*
X78298D01*
X75758Y567182D01*
X73218Y564642D01*
X70678D01*
X73218Y562102D01*
X70678Y559562D01*
X73218D01*
X75758Y557022D01*
X26416Y512223D02*
X28956Y514763D01*
X31496D01*
X28956Y517303D01*
X31496Y519843D01*
X28956D01*
X26416Y522383D01*
X23876Y519843D01*
X21336D01*
X23876Y517303D01*
X21336Y514763D01*
X23876D01*
X26416Y512223D01*
Y517493D02*
X28956Y520033D01*
X31496D01*
X28956Y522573D01*
X31496Y525113D01*
X28956D01*
X26416Y527653D01*
X23876Y525113D01*
X21336D01*
X23876Y522573D01*
X21336Y520033D01*
X23876D01*
X26416Y517493D01*
X107696Y558546D02*
X110236Y561086D01*
X112776D01*
X110236Y563626D01*
X112776Y566166D01*
X110236D01*
X107696Y568706D01*
X105156Y566166D01*
X102616D01*
X105156Y563626D01*
X102616Y561086D01*
X105156D01*
X107696Y558546D01*
X90006Y536914D02*
X92546Y539454D01*
X95086D01*
X92546Y541994D01*
X95086Y544534D01*
X92546D01*
X90006Y547074D01*
X87466Y544534D01*
X84926D01*
X87466Y541994D01*
X84926Y539454D01*
X87466D01*
X90006Y536914D01*
X120650Y577596D02*
X123190Y580136D01*
X125730D01*
X123190Y582676D01*
X125730Y585216D01*
X123190D01*
X120650Y587756D01*
X118110Y585216D01*
X115570D01*
X118110Y582676D01*
X115570Y580136D01*
X118110D01*
X120650Y577596D01*
X71882Y529461D02*
X74422Y532001D01*
X76962D01*
X74422Y534541D01*
X76962Y537081D01*
X74422D01*
X71882Y539621D01*
X69342Y537081D01*
X66802D01*
X69342Y534541D01*
X66802Y532001D01*
X69342D01*
X71882Y529461D01*
Y534731D02*
X74422Y537271D01*
X76962D01*
X74422Y539811D01*
X76962Y542351D01*
X74422D01*
X71882Y544891D01*
X69342Y542351D01*
X66802D01*
X69342Y539811D01*
X66802Y537271D01*
X69342D01*
X71882Y534731D01*
X164338Y251714D02*
X166878Y254254D01*
X169418D01*
X166878Y256794D01*
X169418Y259334D01*
X166878D01*
X164338Y261874D01*
X161798Y259334D01*
X159258D01*
X161798Y256794D01*
X159258Y254254D01*
X161798D01*
X164338Y251714D01*
X167132Y255270D02*
X169672Y257810D01*
X172212D01*
X169672Y260350D01*
X172212Y262890D01*
X169672D01*
X167132Y265430D01*
X164592Y262890D01*
X162052D01*
X164592Y260350D01*
X162052Y257810D01*
X164592D01*
X167132Y255270D01*
X167640Y400304D02*
X170180Y402844D01*
X172720D01*
X170180Y405384D01*
X172720Y407924D01*
X170180D01*
X167640Y410464D01*
X165100Y407924D01*
X162560D01*
X165100Y405384D01*
X162560Y402844D01*
X165100D01*
X167640Y400304D01*
X163830Y396240D02*
X166370Y398780D01*
X168910D01*
X166370Y401320D01*
X168910Y403860D01*
X166370D01*
X163830Y406400D01*
X161290Y403860D01*
X158750D01*
X161290Y401320D01*
X158750Y398780D01*
X161290D01*
X163830Y396240D01*
X170180Y258826D02*
X172720Y261366D01*
X175260D01*
X172720Y263906D01*
X175260Y266446D01*
X172720D01*
X170180Y268986D01*
X167640Y266446D01*
X165100D01*
X167640Y263906D01*
X165100Y261366D01*
X167640D01*
X170180Y258826D01*
X73914Y103185D02*
X76454Y105725D01*
X78994D01*
X76454Y108265D01*
X78994Y110805D01*
X76454D01*
X73914Y113345D01*
X71374Y110805D01*
X68834D01*
X71374Y108265D01*
X68834Y105725D01*
X71374D01*
X73914Y103185D01*
Y97915D02*
X76454Y100455D01*
X78994D01*
X76454Y102995D01*
X78994Y105535D01*
X76454D01*
X73914Y108075D01*
X71374Y105535D01*
X68834D01*
X71374Y102995D01*
X68834Y100455D01*
X71374D01*
X73914Y97915D01*
X26620Y85947D02*
X29160Y88487D01*
X31700D01*
X29160Y91027D01*
X31700Y93567D01*
X29160D01*
X26620Y96107D01*
X24080Y93567D01*
X21540D01*
X24080Y91027D01*
X21540Y88487D01*
X24080D01*
X26620Y85947D01*
Y80677D02*
X29160Y83217D01*
X31700D01*
X29160Y85757D01*
X31700Y88297D01*
X29160D01*
X26620Y90837D01*
X24080Y88297D01*
X21540D01*
X24080Y85757D01*
X21540Y83217D01*
X24080D01*
X26620Y80677D01*
X155325Y69719D02*
X157865Y72259D01*
X160405D01*
X157865Y74799D01*
X160405Y77339D01*
X157865D01*
X155325Y79879D01*
X152785Y77339D01*
X150245D01*
X152785Y74799D01*
X150245Y72259D01*
X152785D01*
X155325Y69719D01*
X73660Y69185D02*
X76200Y71725D01*
X78740D01*
X76200Y74265D01*
X78740Y76805D01*
X76200D01*
X73660Y79345D01*
X71120Y76805D01*
X68580D01*
X71120Y74265D01*
X68580Y71725D01*
X71120D01*
X73660Y69185D01*
Y63915D02*
X76200Y66455D01*
X78740D01*
X76200Y68995D01*
X78740Y71535D01*
X76200D01*
X73660Y74075D01*
X71120Y71535D01*
X68580D01*
X71120Y68995D01*
X68580Y66455D01*
X71120D01*
X73660Y63915D01*
X43180Y589788D02*
X45720Y592328D01*
X48260D01*
X45720Y594868D01*
X48260Y597408D01*
X45720D01*
X43180Y599948D01*
X40640Y597408D01*
X38100D01*
X40640Y594868D01*
X38100Y592328D01*
X40640D01*
X43180Y589788D01*
X37084Y541528D02*
X39624Y544068D01*
X42164D01*
X39624Y546608D01*
X42164Y549148D01*
X39624D01*
X37084Y551688D01*
X34544Y549148D01*
X32004D01*
X34544Y546608D01*
X32004Y544068D01*
X34544D01*
X37084Y541528D01*
X34108Y526216D02*
X36648Y528756D01*
X39188D01*
X36648Y531296D01*
X39188Y533836D01*
X36648D01*
X34108Y536376D01*
X31568Y533836D01*
X29028D01*
X31568Y531296D01*
X29028Y528756D01*
X31568D01*
X34108Y526216D01*
X26416Y506222D02*
X28956Y508762D01*
X31496D01*
X28956Y511302D01*
X31496Y513842D01*
X28956D01*
X26416Y516382D01*
X23876Y513842D01*
X21336D01*
X23876Y511302D01*
X21336Y508762D01*
X23876D01*
X26416Y506222D01*
Y523748D02*
X28956Y526288D01*
X31496D01*
X28956Y528828D01*
X31496Y531368D01*
X28956D01*
X26416Y533908D01*
X23876Y531368D01*
X21336D01*
X23876Y528828D01*
X21336Y526288D01*
X23876D01*
X26416Y523748D01*
X37338Y486791D02*
X39878Y489331D01*
X42418D01*
X39878Y491871D01*
X42418Y494411D01*
X39878D01*
X37338Y496951D01*
X34798Y494411D01*
X32258D01*
X34798Y491871D01*
X32258Y489331D01*
X34798D01*
X37338Y486791D01*
X37084Y498856D02*
X39624Y501396D01*
X42164D01*
X39624Y503936D01*
X42164Y506476D01*
X39624D01*
X37084Y509016D01*
X34544Y506476D01*
X32004D01*
X34544Y503936D01*
X32004Y501396D01*
X34544D01*
X37084Y498856D01*
X44077Y435842D02*
X46617Y438382D01*
X49157D01*
X46617Y440922D01*
X49157Y443462D01*
X46617D01*
X44077Y446002D01*
X41537Y443462D01*
X38997D01*
X41537Y440922D01*
X38997Y438382D01*
X41537D01*
X44077Y435842D01*
X29982Y463804D02*
X32522Y466344D01*
X35062D01*
X32522Y468884D01*
X35062Y471424D01*
X32522D01*
X29982Y473964D01*
X27442Y471424D01*
X24902D01*
X27442Y468884D01*
X24902Y466344D01*
X27442D01*
X29982Y463804D01*
X40132Y457168D02*
X42672Y459708D01*
X45212D01*
X42672Y462248D01*
X45212Y464788D01*
X42672D01*
X40132Y467328D01*
X37592Y464788D01*
X35052D01*
X37592Y462248D01*
X35052Y459708D01*
X37592D01*
X40132Y457168D01*
X66030Y441452D02*
X68570Y443992D01*
X71110D01*
X68570Y446532D01*
X71110Y449072D01*
X68570D01*
X66030Y451612D01*
X63490Y449072D01*
X60950D01*
X63490Y446532D01*
X60950Y443992D01*
X63490D01*
X66030Y441452D01*
X87630Y450596D02*
X90170Y453136D01*
X92710D01*
X90170Y455676D01*
X92710Y458216D01*
X90170D01*
X87630Y460756D01*
X85090Y458216D01*
X82550D01*
X85090Y455676D01*
X82550Y453136D01*
X85090D01*
X87630Y450596D01*
X99822D02*
X102362Y453136D01*
X104902D01*
X102362Y455676D01*
X104902Y458216D01*
X102362D01*
X99822Y460756D01*
X97282Y458216D01*
X94742D01*
X97282Y455676D01*
X94742Y453136D01*
X97282D01*
X99822Y450596D01*
X49030Y466344D02*
X51570Y468884D01*
X54110D01*
X51570Y471424D01*
X54110Y473964D01*
X51570D01*
X49030Y476504D01*
X46490Y473964D01*
X43950D01*
X46490Y471424D01*
X43950Y468884D01*
X46490D01*
X49030Y466344D01*
X34798Y390144D02*
X37338Y392684D01*
X39878D01*
X37338Y395224D01*
X39878Y397764D01*
X37338D01*
X34798Y400304D01*
X32258Y397764D01*
X29718D01*
X32258Y395224D01*
X29718Y392684D01*
X32258D01*
X34798Y390144D01*
X34704Y379658D02*
X37244Y382198D01*
X39784D01*
X37244Y384738D01*
X39784Y387278D01*
X37244D01*
X34704Y389818D01*
X32164Y387278D01*
X29624D01*
X32164Y384738D01*
X29624Y382198D01*
X32164D01*
X34704Y379658D01*
X29972Y352552D02*
X32512Y355092D01*
X35052D01*
X32512Y357632D01*
X35052Y360172D01*
X32512D01*
X29972Y362712D01*
X27432Y360172D01*
X24892D01*
X27432Y357632D01*
X24892Y355092D01*
X27432D01*
X29972Y352552D01*
Y340106D02*
X32512Y342646D01*
X35052D01*
X32512Y345186D01*
X35052Y347726D01*
X32512D01*
X29972Y350266D01*
X27432Y347726D01*
X24892D01*
X27432Y345186D01*
X24892Y342646D01*
X27432D01*
X29972Y340106D01*
X157366Y372618D02*
X159906Y375158D01*
X162446D01*
X159906Y377698D01*
X162446Y380238D01*
X159906D01*
X157366Y382778D01*
X154826Y380238D01*
X152286D01*
X154826Y377698D01*
X152286Y375158D01*
X154826D01*
X157366Y372618D01*
Y350774D02*
X159906Y353314D01*
X162446D01*
X159906Y355854D01*
X162446Y358394D01*
X159906D01*
X157366Y360934D01*
X154826Y358394D01*
X152286D01*
X154826Y355854D01*
X152286Y353314D01*
X154826D01*
X157366Y350774D01*
X44450Y289814D02*
X46990Y292354D01*
X49530D01*
X46990Y294894D01*
X49530Y297434D01*
X46990D01*
X44450Y299974D01*
X41910Y297434D01*
X39370D01*
X41910Y294894D01*
X39370Y292354D01*
X41910D01*
X44450Y289814D01*
X68580Y288544D02*
X71120Y291084D01*
X73660D01*
X71120Y293624D01*
X73660Y296164D01*
X71120D01*
X68580Y298704D01*
X66040Y296164D01*
X63500D01*
X66040Y293624D01*
X63500Y291084D01*
X66040D01*
X68580Y288544D01*
X28311Y91440D02*
X30851Y93980D01*
X33391D01*
X30851Y96520D01*
X33391Y99060D01*
X30851D01*
X28311Y101600D01*
X25771Y99060D01*
X23231D01*
X25771Y96520D01*
X23231Y93980D01*
X25771D01*
X28311Y91440D01*
X28353Y74902D02*
X30893Y77442D01*
X33433D01*
X30893Y79982D01*
X33433Y82522D01*
X30893D01*
X28353Y85062D01*
X25813Y82522D01*
X23273D01*
X25813Y79982D01*
X23273Y77442D01*
X25813D01*
X28353Y74902D01*
X75554Y490474D02*
X78094Y493014D01*
X80634D01*
X78094Y495554D01*
X80634Y498094D01*
X78094D01*
X75554Y500634D01*
X73014Y498094D01*
X70474D01*
X73014Y495554D01*
X70474Y493014D01*
X73014D01*
X75554Y490474D01*
Y505968D02*
X78094Y508508D01*
X80634D01*
X78094Y511048D01*
X80634Y513588D01*
X78094D01*
X75554Y516128D01*
X73014Y513588D01*
X70474D01*
X73014Y511048D01*
X70474Y508508D01*
X73014D01*
X75554Y505968D01*
X76062Y343916D02*
X78602Y346456D01*
X81142D01*
X78602Y348996D01*
X81142Y351536D01*
X78602D01*
X76062Y354076D01*
X73522Y351536D01*
X70982D01*
X73522Y348996D01*
X70982Y346456D01*
X73522D01*
X76062Y343916D01*
Y359410D02*
X78602Y361950D01*
X81142D01*
X78602Y364490D01*
X81142Y367030D01*
X78602D01*
X76062Y369570D01*
X73522Y367030D01*
X70982D01*
X73522Y364490D01*
X70982Y361950D01*
X73522D01*
X76062Y359410D01*
X77586Y58928D02*
X80126Y61468D01*
X82666D01*
X80126Y64008D01*
X82666Y66548D01*
X80126D01*
X77586Y69088D01*
X75046Y66548D01*
X72506D01*
X75046Y64008D01*
X72506Y61468D01*
X75046D01*
X77586Y58928D01*
Y74422D02*
X80126Y76962D01*
X82666D01*
X80126Y79502D01*
X82666Y82042D01*
X80126D01*
X77586Y84582D01*
X75046Y82042D01*
X72506D01*
X75046Y79502D01*
X72506Y76962D01*
X75046D01*
X77586Y74422D01*
X76708Y216408D02*
X79248Y218948D01*
X81788D01*
X79248Y221488D01*
X81788Y224028D01*
X79248D01*
X76708Y226568D01*
X74168Y224028D01*
X71628D01*
X74168Y221488D01*
X71628Y218948D01*
X74168D01*
X76708Y216408D01*
Y200914D02*
X79248Y203454D01*
X81788D01*
X79248Y205994D01*
X81788Y208534D01*
X79248D01*
X76708Y211074D01*
X74168Y208534D01*
X71628D01*
X74168Y205994D01*
X71628Y203454D01*
X74168D01*
X76708Y200914D01*
X58420Y30448D02*
X60960Y32988D01*
X63500D01*
X60960Y35528D01*
X63500Y38068D01*
X60960D01*
X58420Y40608D01*
X55880Y38068D01*
X53340D01*
X55880Y35528D01*
X53340Y32988D01*
X55880D01*
X58420Y30448D01*
X50808Y38608D02*
X53348Y41148D01*
X55888D01*
X53348Y43688D01*
X55888Y46228D01*
X53348D01*
X50808Y48768D01*
X48268Y46228D01*
X45728D01*
X48268Y43688D01*
X45728Y41148D01*
X48268D01*
X50808Y38608D01*
X41910Y28670D02*
X44450Y31210D01*
X46990D01*
X44450Y33750D01*
X46990Y36290D01*
X44450D01*
X41910Y38830D01*
X39370Y36290D01*
X36830D01*
X39370Y33750D01*
X36830Y31210D01*
X39370D01*
X41910Y28670D01*
X48760Y17694D02*
X51300Y20234D01*
X53840D01*
X51300Y22774D01*
X53840Y25314D01*
X51300D01*
X48760Y27854D01*
X46220Y25314D01*
X43680D01*
X46220Y22774D01*
X43680Y20234D01*
X46220D01*
X48760Y17694D01*
X50292Y120396D02*
X52832Y122936D01*
X55372D01*
X52832Y125476D01*
X55372Y128016D01*
X52832D01*
X50292Y130556D01*
X47752Y128016D01*
X45212D01*
X47752Y125476D01*
X45212Y122936D01*
X47752D01*
X50292Y120396D01*
X65522Y156210D02*
X68062Y158750D01*
X70602D01*
X68062Y161290D01*
X70602Y163830D01*
X68062D01*
X65522Y166370D01*
X62982Y163830D01*
X60442D01*
X62982Y161290D01*
X60442Y158750D01*
X62982D01*
X65522Y156210D01*
X38862Y168910D02*
X41402Y171450D01*
X43942D01*
X41402Y173990D01*
X43942Y176530D01*
X41402D01*
X38862Y179070D01*
X36322Y176530D01*
X33782D01*
X36322Y173990D01*
X33782Y171450D01*
X36322D01*
X38862Y168910D01*
X46474Y160188D02*
X49014Y162728D01*
X51554D01*
X49014Y165268D01*
X51554Y167808D01*
X49014D01*
X46474Y170348D01*
X43934Y167808D01*
X41394D01*
X43934Y165268D01*
X41394Y162728D01*
X43934D01*
X46474Y160188D01*
X55626Y173031D02*
X58166Y175571D01*
X60706D01*
X58166Y178111D01*
X60706Y180651D01*
X58166D01*
X55626Y183191D01*
X53086Y180651D01*
X50546D01*
X53086Y178111D01*
X50546Y175571D01*
X53086D01*
X55626Y173031D01*
X48522Y181188D02*
X51062Y183728D01*
X53602D01*
X51062Y186268D01*
X53602Y188808D01*
X51062D01*
X48522Y191348D01*
X45982Y188808D01*
X43442D01*
X45982Y186268D01*
X43442Y183728D01*
X45982D01*
X48522Y181188D01*
X29474Y178054D02*
X32014Y180594D01*
X34554D01*
X32014Y183134D01*
X34554Y185674D01*
X32014D01*
X29474Y188214D01*
X26934Y185674D01*
X24394D01*
X26934Y183134D01*
X24394Y180594D01*
X26934D01*
X29474Y178054D01*
X87873Y304128D02*
X90413Y306668D01*
X92953D01*
X90413Y309208D01*
X92953Y311748D01*
X90413D01*
X87873Y314288D01*
X85333Y311748D01*
X82793D01*
X85333Y309208D01*
X82793Y306668D01*
X85333D01*
X87873Y304128D01*
X100020Y303916D02*
X102560Y306456D01*
X105100D01*
X102560Y308996D01*
X105100Y311536D01*
X102560D01*
X100020Y314076D01*
X97480Y311536D01*
X94940D01*
X97480Y308996D01*
X94940Y306456D01*
X97480D01*
X100020Y303916D01*
X48268Y323596D02*
X50808Y326136D01*
X53348D01*
X50808Y328676D01*
X53348Y331216D01*
X50808D01*
X48268Y333756D01*
X45728Y331216D01*
X43188D01*
X45728Y328676D01*
X43188Y326136D01*
X45728D01*
X48268Y323596D01*
X56388Y314965D02*
X58928Y317505D01*
X61468D01*
X58928Y320045D01*
X61468Y322585D01*
X58928D01*
X56388Y325125D01*
X53848Y322585D01*
X51308D01*
X53848Y320045D01*
X51308Y317505D01*
X53848D01*
X56388Y314965D01*
X29220Y320294D02*
X31760Y322834D01*
X34300D01*
X31760Y325374D01*
X34300Y327914D01*
X31760D01*
X29220Y330454D01*
X26680Y327914D01*
X24140D01*
X26680Y325374D01*
X24140Y322834D01*
X26680D01*
X29220Y320294D01*
X38608Y310388D02*
X41148Y312928D01*
X43688D01*
X41148Y315468D01*
X43688Y318008D01*
X41148D01*
X38608Y320548D01*
X36068Y318008D01*
X33528D01*
X36068Y315468D01*
X33528Y312928D01*
X36068D01*
X38608Y310388D01*
X46220Y302428D02*
X48760Y304968D01*
X51300D01*
X48760Y307508D01*
X51300Y310048D01*
X48760D01*
X46220Y312588D01*
X43680Y310048D01*
X41140D01*
X43680Y307508D01*
X41140Y304968D01*
X43680D01*
X46220Y302428D01*
X65268Y297688D02*
X67808Y300228D01*
X70348D01*
X67808Y302768D01*
X70348Y305308D01*
X67808D01*
X65268Y307848D01*
X62728Y305308D01*
X60188D01*
X62728Y302768D01*
X60188Y300228D01*
X62728D01*
X65268Y297688D01*
X84582Y288290D02*
X87122Y290830D01*
X89662D01*
X87122Y293370D01*
X89662Y295910D01*
X87122D01*
X84582Y298450D01*
X82042Y295910D01*
X79502D01*
X82042Y293370D01*
X79502Y290830D01*
X82042D01*
X84582Y288290D01*
X79502Y268732D02*
X82042Y271272D01*
X84582D01*
X82042Y273812D01*
X84582Y276352D01*
X82042D01*
X79502Y278892D01*
X76962Y276352D01*
X74422D01*
X76962Y273812D01*
X74422Y271272D01*
X76962D01*
X79502Y268732D01*
X100620Y288198D02*
X103160Y290738D01*
X105700D01*
X103160Y293278D01*
X105700Y295818D01*
X103160D01*
X100620Y298358D01*
X98080Y295818D01*
X95540D01*
X98080Y293278D01*
X95540Y290738D01*
X98080D01*
X100620Y288198D01*
X27686Y216408D02*
X30226Y218948D01*
X32766D01*
X30226Y221488D01*
X32766Y224028D01*
X30226D01*
X27686Y226568D01*
X25146Y224028D01*
X22606D01*
X25146Y221488D01*
X22606Y218948D01*
X25146D01*
X27686Y216408D01*
Y233934D02*
X30226Y236474D01*
X32766D01*
X30226Y239014D01*
X32766Y241554D01*
X30226D01*
X27686Y244094D01*
X25146Y241554D01*
X22606D01*
X25146Y239014D01*
X22606Y236474D01*
X25146D01*
X27686Y233934D01*
X130326Y242536D02*
X132866Y245076D01*
X135406D01*
X132866Y247616D01*
X135406Y250156D01*
X132866D01*
X130326Y252696D01*
X127786Y250156D01*
X125246D01*
X127786Y247616D01*
X125246Y245076D01*
X127786D01*
X130326Y242536D01*
X35052Y236659D02*
X37592Y239199D01*
X40132D01*
X37592Y241739D01*
X40132Y244279D01*
X37592D01*
X35052Y246819D01*
X32512Y244279D01*
X29972D01*
X32512Y241739D01*
X29972Y239199D01*
X32512D01*
X35052Y236659D01*
X34798Y247142D02*
X37338Y249682D01*
X39878D01*
X37338Y252222D01*
X39878Y254762D01*
X37338D01*
X34798Y257302D01*
X32258Y254762D01*
X29718D01*
X32258Y252222D01*
X29718Y249682D01*
X32258D01*
X34798Y247142D01*
X31242Y209296D02*
X33782Y211836D01*
X36322D01*
X33782Y214376D01*
X36322Y216916D01*
X33782D01*
X31242Y219456D01*
X28702Y216916D01*
X26162D01*
X28702Y214376D01*
X26162Y211836D01*
X28702D01*
X31242Y209296D01*
Y197104D02*
X33782Y199644D01*
X36322D01*
X33782Y202184D01*
X36322Y204724D01*
X33782D01*
X31242Y207264D01*
X28702Y204724D01*
X26162D01*
X28702Y202184D01*
X26162Y199644D01*
X28702D01*
X31242Y197104D01*
X88900Y168402D02*
X91440Y170942D01*
X93980D01*
X91440Y173482D01*
X93980Y176022D01*
X91440D01*
X88900Y178562D01*
X86360Y176022D01*
X83820D01*
X86360Y173482D01*
X83820Y170942D01*
X86360D01*
X88900Y168402D01*
X100838D02*
X103378Y170942D01*
X105918D01*
X103378Y173482D01*
X105918Y176022D01*
X103378D01*
X100838Y178562D01*
X98298Y176022D01*
X95758D01*
X98298Y173482D01*
X95758Y170942D01*
X98298D01*
X100838Y168402D01*
X151196Y207645D02*
X153736Y210185D01*
X156276D01*
X153736Y212725D01*
X156276Y215265D01*
X153736D01*
X151196Y217805D01*
X148656Y215265D01*
X146116D01*
X148656Y212725D01*
X146116Y210185D01*
X148656D01*
X151196Y207645D01*
X125476Y109728D02*
X128016Y112268D01*
X130556D01*
X128016Y114808D01*
X130556Y117348D01*
X128016D01*
X125476Y119888D01*
X122936Y117348D01*
X120396D01*
X122936Y114808D01*
X120396Y112268D01*
X122936D01*
X125476Y109728D01*
X69342Y643382D02*
X71882Y645922D01*
X74422D01*
X71882Y648462D01*
X74422Y651002D01*
X71882D01*
X69342Y653542D01*
X66802Y651002D01*
X64262D01*
X66802Y648462D01*
X64262Y645922D01*
X66802D01*
X69342Y643382D01*
X84582Y643128D02*
X87122Y645668D01*
X89662D01*
X87122Y648208D01*
X89662Y650748D01*
X87122D01*
X84582Y653288D01*
X82042Y650748D01*
X79502D01*
X82042Y648208D01*
X79502Y645668D01*
X82042D01*
X84582Y643128D01*
X84461Y635926D02*
X87001Y638466D01*
X89541D01*
X87001Y641006D01*
X89541Y643546D01*
X87001D01*
X84461Y646086D01*
X81921Y643546D01*
X79381D01*
X81921Y641006D01*
X79381Y638466D01*
X81921D01*
X84461Y635926D01*
X68326Y603250D02*
X70866Y605790D01*
X73406D01*
X70866Y608330D01*
X73406Y610870D01*
X70866D01*
X68326Y613410D01*
X65786Y610870D01*
X63246D01*
X65786Y608330D01*
X63246Y605790D01*
X65786D01*
X68326Y603250D01*
X85598D02*
X88138Y605790D01*
X90678D01*
X88138Y608330D01*
X90678Y610870D01*
X88138D01*
X85598Y613410D01*
X83058Y610870D01*
X80518D01*
X83058Y608330D01*
X80518Y605790D01*
X83058D01*
X85598Y603250D01*
X69463Y610706D02*
X72003Y613246D01*
X74543D01*
X72003Y615786D01*
X74543Y618326D01*
X72003D01*
X69463Y620866D01*
X66923Y618326D01*
X64383D01*
X66923Y615786D01*
X64383Y613246D01*
X66923D01*
X69463Y610706D01*
X44356Y236656D02*
X46896Y239196D01*
X49436D01*
X46896Y241736D01*
X49436Y244276D01*
X46896D01*
X44356Y246816D01*
X41816Y244276D01*
X39276D01*
X41816Y241736D01*
X39276Y239196D01*
X41816D01*
X44356Y236656D01*
X41286Y209296D02*
X43826Y211836D01*
X46366D01*
X43826Y214376D01*
X46366Y216916D01*
X43826D01*
X41286Y219456D01*
X38746Y216916D01*
X36206D01*
X38746Y214376D01*
X36206Y211836D01*
X38746D01*
X41286Y209296D01*
X41358Y197104D02*
X43898Y199644D01*
X46438D01*
X43898Y202184D01*
X46438Y204724D01*
X43898D01*
X41358Y207264D01*
X38818Y204724D01*
X36278D01*
X38818Y202184D01*
X36278Y199644D01*
X38818D01*
X41358Y197104D01*
X58166Y242570D02*
X60706Y245110D01*
X63246D01*
X60706Y247650D01*
X63246Y250190D01*
X60706D01*
X58166Y252730D01*
X55626Y250190D01*
X53086D01*
X55626Y247650D01*
X53086Y245110D01*
X55626D01*
X58166Y242570D01*
X137668Y223774D02*
X140208Y226314D01*
X142748D01*
X140208Y228854D01*
X142748Y231394D01*
X140208D01*
X137668Y233934D01*
X135128Y231394D01*
X132588D01*
X135128Y228854D01*
X132588Y226314D01*
X135128D01*
X137668Y223774D01*
X88646Y179070D02*
X91186Y181610D01*
X93726D01*
X91186Y184150D01*
X93726Y186690D01*
X91186D01*
X88646Y189230D01*
X86106Y186690D01*
X83566D01*
X86106Y184150D01*
X83566Y181610D01*
X86106D01*
X88646Y179070D01*
X100838D02*
X103378Y181610D01*
X105918D01*
X103378Y184150D01*
X105918Y186690D01*
X103378D01*
X100838Y189230D01*
X98298Y186690D01*
X95758D01*
X98298Y184150D01*
X95758Y181610D01*
X98298D01*
X100838Y179070D01*
X130325Y210441D02*
X132865Y212981D01*
X135405D01*
X132865Y215521D01*
X135405Y218061D01*
X132865D01*
X130325Y220601D01*
X127785Y218061D01*
X125245D01*
X127785Y215521D01*
X125245Y212981D01*
X127785D01*
X130325Y210441D01*
X97028Y247904D02*
X99568Y250444D01*
X102108D01*
X99568Y252984D01*
X102108Y255524D01*
X99568D01*
X97028Y258064D01*
X94488Y255524D01*
X91948D01*
X94488Y252984D01*
X91948Y250444D01*
X94488D01*
X97028Y247904D01*
X100441Y260176D02*
X102981Y262716D01*
X105521D01*
X102981Y265256D01*
X105521Y267796D01*
X102981D01*
X100441Y270336D01*
X97901Y267796D01*
X95361D01*
X97901Y265256D01*
X95361Y262716D01*
X97901D01*
X100441Y260176D01*
X124968Y251968D02*
X127508Y254508D01*
X130048D01*
X127508Y257048D01*
X130048Y259588D01*
X127508D01*
X124968Y262128D01*
X122428Y259588D01*
X119888D01*
X122428Y257048D01*
X119888Y254508D01*
X122428D01*
X124968Y251968D01*
X87838Y322133D02*
X90378Y324673D01*
X92918D01*
X90378Y327213D01*
X92918Y329753D01*
X90378D01*
X87838Y332293D01*
X85298Y329753D01*
X82758D01*
X85298Y327213D01*
X82758Y324673D01*
X85298D01*
X87838Y322133D01*
X100241Y314452D02*
X102781Y316992D01*
X105321D01*
X102781Y319532D01*
X105321Y322072D01*
X102781D01*
X100241Y324612D01*
X97701Y322072D01*
X95161D01*
X97701Y319532D01*
X95161Y316992D01*
X97701D01*
X100241Y314452D01*
X33528Y434340D02*
X36068Y436880D01*
X38608D01*
X36068Y439420D01*
X38608Y441960D01*
X36068D01*
X33528Y444500D01*
X30988Y441960D01*
X28448D01*
X30988Y439420D01*
X28448Y436880D01*
X30988D01*
X33528Y434340D01*
X137148Y367284D02*
X139688Y369824D01*
X142228D01*
X139688Y372364D01*
X142228Y374904D01*
X139688D01*
X137148Y377444D01*
X134608Y374904D01*
X132068D01*
X134608Y372364D01*
X132068Y369824D01*
X134608D01*
X137148Y367284D01*
X132267Y354552D02*
X134807Y357092D01*
X137347D01*
X134807Y359632D01*
X137347Y362172D01*
X134807D01*
X132267Y364712D01*
X129727Y362172D01*
X127187D01*
X129727Y359632D01*
X127187Y357092D01*
X129727D01*
X132267Y354552D01*
X124714Y340106D02*
X127254Y342646D01*
X129794D01*
X127254Y345186D01*
X129794Y347726D01*
X127254D01*
X124714Y350266D01*
X122174Y347726D01*
X119634D01*
X122174Y345186D01*
X119634Y342646D01*
X122174D01*
X124714Y340106D01*
X57290Y385572D02*
X59830Y388112D01*
X62370D01*
X59830Y390652D01*
X62370Y393192D01*
X59830D01*
X57290Y395732D01*
X54750Y393192D01*
X52210D01*
X54750Y390652D01*
X52210Y388112D01*
X54750D01*
X57290Y385572D01*
X90322Y403909D02*
X92862Y406449D01*
X95402D01*
X92862Y408988D01*
X95402Y411529D01*
X92862D01*
X90322Y414068D01*
X87782Y411529D01*
X85242D01*
X87782Y408988D01*
X85242Y406449D01*
X87782D01*
X90322Y403909D01*
X111633Y330527D02*
X114173Y333067D01*
X116713D01*
X114173Y335607D01*
X116713Y338147D01*
X114173D01*
X111633Y340687D01*
X109093Y338147D01*
X106553D01*
X109093Y335607D01*
X106553Y333067D01*
X109093D01*
X111633Y330527D01*
X130604Y500564D02*
X133144Y503104D01*
X135684D01*
X133144Y505644D01*
X135684Y508184D01*
X133144D01*
X130604Y510724D01*
X128064Y508184D01*
X125524D01*
X128064Y505644D01*
X125524Y503104D01*
X128064D01*
X130604Y500564D01*
X124206Y541020D02*
X126746Y543560D01*
X129286D01*
X126746Y546100D01*
X129286Y548640D01*
X126746D01*
X124206Y551180D01*
X121666Y548640D01*
X119126D01*
X121666Y546100D01*
X119126Y543560D01*
X121666D01*
X124206Y541020D01*
X51308Y525018D02*
X53848Y527558D01*
X56388D01*
X53848Y530098D01*
X56388Y532638D01*
X53848D01*
X51308Y535178D01*
X48768Y532638D01*
X46228D01*
X48768Y530098D01*
X46228Y527558D01*
X48768D01*
X51308Y525018D01*
X48768Y486410D02*
X51308Y488950D01*
X53848D01*
X51308Y491490D01*
X53848Y494030D01*
X51308D01*
X48768Y496570D01*
X46228Y494030D01*
X43688D01*
X46228Y491490D01*
X43688Y488950D01*
X46228D01*
X48768Y486410D01*
Y498602D02*
X51308Y501142D01*
X53848D01*
X51308Y503682D01*
X53848Y506222D01*
X51308D01*
X48768Y508762D01*
X46228Y506222D01*
X43688D01*
X46228Y503682D01*
X43688Y501142D01*
X46228D01*
X48768Y498602D01*
X87122Y469646D02*
X89662Y472186D01*
X92202D01*
X89662Y474726D01*
X92202Y477266D01*
X89662D01*
X87122Y479806D01*
X84582Y477266D01*
X82042D01*
X84582Y474726D01*
X82042Y472186D01*
X84582D01*
X87122Y469646D01*
X99314D02*
X101854Y472186D01*
X104394D01*
X101854Y474726D01*
X104394Y477266D01*
X101854D01*
X99314Y479806D01*
X96774Y477266D01*
X94234D01*
X96774Y474726D01*
X94234Y472186D01*
X96774D01*
X99314Y469646D01*
X56896Y532130D02*
X59436Y534670D01*
X61976D01*
X59436Y537210D01*
X61976Y539750D01*
X59436D01*
X56896Y542290D01*
X54356Y539750D01*
X51816D01*
X54356Y537210D01*
X51816Y534670D01*
X54356D01*
X56896Y532130D01*
X99822Y559054D02*
X102362Y561594D01*
X104902D01*
X102362Y564134D01*
X104902Y566674D01*
X102362D01*
X99822Y569214D01*
X97282Y566674D01*
X94742D01*
X97282Y564134D01*
X94742Y561594D01*
X97282D01*
X99822Y559054D01*
X91199Y550687D02*
X93739Y553227D01*
X96279D01*
X93739Y555767D01*
X96279Y558307D01*
X93739D01*
X91199Y560847D01*
X88659Y558307D01*
X86119D01*
X88659Y555767D01*
X86119Y553227D01*
X88659D01*
X91199Y550687D01*
X111252Y477077D02*
X113792Y479617D01*
X116332D01*
X113792Y482157D01*
X116332Y484697D01*
X113792D01*
X111252Y487237D01*
X108712Y484697D01*
X106172D01*
X108712Y482157D01*
X106172Y479617D01*
X108712D01*
X111252Y477077D01*
X109484Y537544D02*
X112024Y540084D01*
X114564D01*
X112024Y542624D01*
X114564Y545164D01*
X112024D01*
X109484Y547704D01*
X106944Y545164D01*
X104404D01*
X106944Y542624D01*
X104404Y540084D01*
X106944D01*
X109484Y537544D01*
X22860Y535432D02*
X25400Y537972D01*
X27940D01*
X25400Y540512D01*
X27940Y543052D01*
X25400D01*
X22860Y545592D01*
X20320Y543052D01*
X17780D01*
X20320Y540512D01*
X17780Y537972D01*
X20320D01*
X22860Y535432D01*
X22847Y558843D02*
X25387Y561383D01*
X27927D01*
X25387Y563923D01*
X27927Y566463D01*
X25387D01*
X22847Y569003D01*
X20307Y566463D01*
X17767D01*
X20307Y563923D01*
X17767Y561383D01*
X20307D01*
X22847Y558843D01*
X34290Y581914D02*
X36830Y584454D01*
X39370D01*
X36830Y586994D01*
X39370Y589534D01*
X36830D01*
X34290Y592074D01*
X31750Y589534D01*
X29210D01*
X31750Y586994D01*
X29210Y584454D01*
X31750D01*
X34290Y581914D01*
X24130Y400050D02*
X26670Y402590D01*
X29210D01*
X26670Y405130D01*
X29210Y407670D01*
X26670D01*
X24130Y410210D01*
X21590Y407670D01*
X19050D01*
X21590Y405130D01*
X19050Y402590D01*
X21590D01*
X24130Y400050D01*
Y406146D02*
X26670Y408686D01*
X29210D01*
X26670Y411226D01*
X29210Y413766D01*
X26670D01*
X24130Y416306D01*
X21590Y413766D01*
X19050D01*
X21590Y411226D01*
X19050Y408686D01*
X21590D01*
X24130Y406146D01*
X78740Y410718D02*
X81280Y413258D01*
X83820D01*
X81280Y415798D01*
X83820Y418338D01*
X81280D01*
X78740Y420878D01*
X76200Y418338D01*
X73660D01*
X76200Y415798D01*
X73660Y413258D01*
X76200D01*
X78740Y410718D01*
X100736Y411480D02*
X103276Y414020D01*
X105816D01*
X103276Y416560D01*
X105816Y419100D01*
X103276D01*
X100736Y421640D01*
X98196Y419100D01*
X95656D01*
X98196Y416560D01*
X95656Y414020D01*
X98196D01*
X100736Y411480D01*
X101655Y405075D02*
X104195Y407615D01*
X106735D01*
X104195Y410155D01*
X106735Y412695D01*
X104195D01*
X101655Y415235D01*
X99115Y412695D01*
X96575D01*
X99115Y410155D01*
X96575Y407615D01*
X99115D01*
X101655Y405075D01*
X126746Y486664D02*
X129286Y489204D01*
X131826D01*
X129286Y491744D01*
X131826Y494284D01*
X129286D01*
X126746Y496824D01*
X124206Y494284D01*
X121666D01*
X124206Y491744D01*
X121666Y489204D01*
X124206D01*
X126746Y486664D01*
X53086Y136180D02*
X55626Y138720D01*
X58166D01*
X55626Y141260D01*
X58166Y143800D01*
X55626D01*
X53086Y146340D01*
X50546Y143800D01*
X48006D01*
X50546Y141260D01*
X48006Y138720D01*
X50546D01*
X53086Y136180D01*
X52832Y130916D02*
X55372Y133456D01*
X57912D01*
X55372Y135996D01*
X57912Y138536D01*
X55372D01*
X52832Y141076D01*
X50292Y138536D01*
X47752D01*
X50292Y135996D01*
X47752Y133456D01*
X50292D01*
X52832Y130916D01*
X30870Y126816D02*
X33410Y129356D01*
X35950D01*
X33410Y131896D01*
X35950Y134436D01*
X33410D01*
X30870Y136976D01*
X28330Y134436D01*
X25790D01*
X28330Y131896D01*
X25790Y129356D01*
X28330D01*
X30870Y126816D01*
X30988Y120396D02*
X33528Y122936D01*
X36068D01*
X33528Y125476D01*
X36068Y128016D01*
X33528D01*
X30988Y130556D01*
X28448Y128016D01*
X25908D01*
X28448Y125476D01*
X25908Y122936D01*
X28448D01*
X30988Y120396D01*
X29766Y258887D02*
X32306Y261427D01*
X34845D01*
X32306Y263967D01*
X34845Y266507D01*
X32306D01*
X29766Y269047D01*
X27225Y266507D01*
X24685D01*
X27225Y263967D01*
X24685Y261427D01*
X27225D01*
X29766Y258887D01*
X23876Y258826D02*
X26416Y261366D01*
X28956D01*
X26416Y263906D01*
X28956Y266446D01*
X26416D01*
X23876Y268986D01*
X21336Y266446D01*
X18796D01*
X21336Y263906D01*
X18796Y261366D01*
X21336D01*
X23876Y258826D01*
X57912Y275844D02*
X60452Y278384D01*
X62992D01*
X60452Y280924D01*
X62992Y283464D01*
X60452D01*
X57912Y286004D01*
X55372Y283464D01*
X52832D01*
X55372Y280924D01*
X52832Y278384D01*
X55372D01*
X57912Y275844D01*
X100764Y268890D02*
X103304Y271430D01*
X105844D01*
X103304Y273970D01*
X105844Y276510D01*
X103304D01*
X100764Y279050D01*
X98224Y276510D01*
X95684D01*
X98224Y273970D01*
X95684Y271430D01*
X98224D01*
X100764Y268890D01*
X102756Y247917D02*
X105296Y250457D01*
X107836D01*
X105296Y252997D01*
X107836Y255536D01*
X105296D01*
X102756Y258076D01*
X100216Y255536D01*
X97676D01*
X100216Y252997D01*
X97676Y250457D01*
X100216D01*
X102756Y247917D01*
X98706Y550995D02*
X101246Y553535D01*
X103786D01*
X101246Y556075D01*
X103786Y558615D01*
X101246D01*
X98706Y561155D01*
X96166Y558615D01*
X93626D01*
X96166Y556075D01*
X93626Y553535D01*
X96166D01*
X98706Y550995D01*
X40640Y384302D02*
X43180Y386842D01*
X45720D01*
X43180Y389382D01*
X45720Y391922D01*
X43180D01*
X40640Y394462D01*
X38100Y391922D01*
X35560D01*
X38100Y389382D01*
X35560Y386842D01*
X38100D01*
X40640Y384302D01*
Y352044D02*
X43180Y354584D01*
X45720D01*
X43180Y357124D01*
X45720Y359664D01*
X43180D01*
X40640Y362204D01*
X38100Y359664D01*
X35560D01*
X38100Y357124D01*
X35560Y354584D01*
X38100D01*
X40640Y352044D01*
X40712Y340106D02*
X43252Y342646D01*
X45792D01*
X43252Y345186D01*
X45792Y347726D01*
X43252D01*
X40712Y350266D01*
X38172Y347726D01*
X35632D01*
X38172Y345186D01*
X35632Y342646D01*
X38172D01*
X40712Y340106D01*
X90564Y261124D02*
X93104Y263664D01*
X95644D01*
X93104Y266204D01*
X95644Y268744D01*
X93104D01*
X90564Y271284D01*
X88024Y268744D01*
X85484D01*
X88024Y266204D01*
X85484Y263664D01*
X88024D01*
X90564Y261124D01*
X112036Y187551D02*
X114576Y190091D01*
X117116D01*
X114576Y192631D01*
X117116Y195171D01*
X114576D01*
X112036Y197711D01*
X109496Y195171D01*
X106956D01*
X109496Y192631D01*
X106956Y190091D01*
X109496D01*
X112036Y187551D01*
X127000Y55118D02*
X129540Y57658D01*
X132080D01*
X129540Y60198D01*
X132080Y62738D01*
X129540D01*
X127000Y65278D01*
X124460Y62738D01*
X121920D01*
X124460Y60198D01*
X121920Y57658D01*
X124460D01*
X127000Y55118D01*
X126238Y197612D02*
X128778Y200152D01*
X131318D01*
X128778Y202692D01*
X131318Y205232D01*
X128778D01*
X126238Y207772D01*
X123698Y205232D01*
X121158D01*
X123698Y202692D01*
X121158Y200152D01*
X123698D01*
X126238Y197612D01*
X31242Y285750D02*
X33782Y288290D01*
X36322D01*
X33782Y290830D01*
X36322Y293370D01*
X33782D01*
X31242Y295910D01*
X28702Y293370D01*
X26162D01*
X28702Y290830D01*
X26162Y288290D01*
X28702D01*
X31242Y285750D01*
X126492Y283972D02*
X129032Y286512D01*
X131572D01*
X129032Y289052D01*
X131572Y291592D01*
X129032D01*
X126492Y294132D01*
X123952Y291592D01*
X121412D01*
X123952Y289052D01*
X121412Y286512D01*
X123952D01*
X126492Y283972D01*
X36140Y94670D02*
X38680Y97210D01*
X41220D01*
X38680Y99750D01*
X41220Y102290D01*
X38680D01*
X36140Y104830D01*
X33600Y102290D01*
X31060D01*
X33600Y99750D01*
X31060Y97210D01*
X33600D01*
X36140Y94670D01*
X133232Y68328D02*
X135772Y70868D01*
X138312D01*
X135772Y73408D01*
X138312Y75948D01*
X135772D01*
X133232Y78488D01*
X130692Y75948D01*
X128152D01*
X130692Y73408D01*
X128152Y70868D01*
X130692D01*
X133232Y68328D01*
X87504Y119108D02*
X90044Y121648D01*
X92584D01*
X90044Y124188D01*
X92584Y126728D01*
X90044D01*
X87504Y129268D01*
X84964Y126728D01*
X82424D01*
X84964Y124188D01*
X82424Y121648D01*
X84964D01*
X87504Y119108D01*
X103504Y105992D02*
X106044Y108532D01*
X108584D01*
X106044Y111072D01*
X108584Y113612D01*
X106044D01*
X103504Y116152D01*
X100964Y113612D01*
X98424D01*
X100964Y111072D01*
X98424Y108532D01*
X100964D01*
X103504Y105992D01*
X113030Y45551D02*
X115570Y48091D01*
X118110D01*
X115570Y50631D01*
X118110Y53171D01*
X115570D01*
X113030Y55711D01*
X110490Y53171D01*
X107950D01*
X110490Y50631D01*
X107950Y48091D01*
X110490D01*
X113030Y45551D01*
X42418Y143976D02*
X44958Y146516D01*
X47498D01*
X44958Y149056D01*
X47498Y151596D01*
X44958D01*
X42418Y154136D01*
X39878Y151596D01*
X37338D01*
X39878Y149056D01*
X37338Y146516D01*
X39878D01*
X42418Y143976D01*
X31187Y144302D02*
X33727Y146842D01*
X36267D01*
X33727Y149382D01*
X36267Y151922D01*
X33727D01*
X31187Y154462D01*
X28647Y151922D01*
X26107D01*
X28647Y149382D01*
X26107Y146842D01*
X28647D01*
X31187Y144302D01*
X35786Y104436D02*
X38326Y106976D01*
X40866D01*
X38326Y109516D01*
X40866Y112056D01*
X38326D01*
X35786Y114596D01*
X33246Y112056D01*
X30706D01*
X33246Y109516D01*
X30706Y106976D01*
X33246D01*
X35786Y104436D01*
X127394Y141879D02*
X129934Y144419D01*
X132474D01*
X129934Y146959D01*
X132474Y149499D01*
X129934D01*
X127394Y152039D01*
X124854Y149499D01*
X122314D01*
X124854Y146959D01*
X122314Y144419D01*
X124854D01*
X127394Y141879D01*
X111252Y120396D02*
X113792Y122936D01*
X116332D01*
X113792Y125476D01*
X116332Y128016D01*
X113792D01*
X111252Y130556D01*
X108712Y128016D01*
X106172D01*
X108712Y125476D01*
X106172Y122936D01*
X108712D01*
X111252Y120396D01*
X58674Y100584D02*
X61214Y103124D01*
X63754D01*
X61214Y105664D01*
X63754Y108204D01*
X61214D01*
X58674Y110744D01*
X56134Y108204D01*
X53594D01*
X56134Y105664D01*
X53594Y103124D01*
X56134D01*
X58674Y100584D01*
X141869Y87053D02*
X144409Y89593D01*
X146949D01*
X144409Y92133D01*
X146949Y94673D01*
X144409D01*
X141869Y97213D01*
X139329Y94673D01*
X136789D01*
X139329Y92133D01*
X136789Y89593D01*
X139329D01*
X141869Y87053D01*
X80264Y135819D02*
X82804Y138359D01*
X85344D01*
X82804Y140899D01*
X85344Y143439D01*
X82804D01*
X80264Y145979D01*
X77724Y143439D01*
X75184D01*
X77724Y140899D01*
X75184Y138359D01*
X77724D01*
X80264Y135819D01*
X101506D02*
X104046Y138359D01*
X106586D01*
X104046Y140899D01*
X106586Y143439D01*
X104046D01*
X101506Y145979D01*
X98966Y143439D01*
X96426D01*
X98966Y140899D01*
X96426Y138359D01*
X98966D01*
X101506Y135819D01*
X89916Y29464D02*
X92456Y32004D01*
X94996D01*
X92456Y34544D01*
X94996Y37084D01*
X92456D01*
X89916Y39624D01*
X87376Y37084D01*
X84836D01*
X87376Y34544D01*
X84836Y32004D01*
X87376D01*
X89916Y29464D01*
X101600D02*
X104140Y32004D01*
X106680D01*
X104140Y34544D01*
X106680Y37084D01*
X104140D01*
X101600Y39624D01*
X99060Y37084D01*
X96520D01*
X99060Y34544D01*
X96520Y32004D01*
X99060D01*
X101600Y29464D01*
X159300Y87122D02*
X161840Y89662D01*
X164380D01*
X161840Y92202D01*
X164380Y94742D01*
X161840D01*
X159300Y97282D01*
X156760Y94742D01*
X154220D01*
X156760Y92202D01*
X154220Y89662D01*
X156760D01*
X159300Y87122D01*
X146812Y530783D02*
X149352Y533323D01*
X151892D01*
X149352Y535863D01*
X151892Y538403D01*
X149352D01*
X146812Y540943D01*
X144272Y538403D01*
X141732D01*
X144272Y535863D01*
X141732Y533323D01*
X144272D01*
X146812Y530783D01*
X147320Y384048D02*
X149860Y386588D01*
X152400D01*
X149860Y389128D01*
X152400Y391668D01*
X149860D01*
X147320Y394208D01*
X144780Y391668D01*
X142240D01*
X144780Y389128D01*
X142240Y386588D01*
X144780D01*
X147320Y384048D01*
X147966Y241046D02*
X150506Y243586D01*
X153046D01*
X150506Y246126D01*
X153046Y248666D01*
X150506D01*
X147966Y251206D01*
X145426Y248666D01*
X142886D01*
X145426Y246126D01*
X142886Y243586D01*
X145426D01*
X147966Y241046D01*
X74346Y141536D02*
X76886Y144076D01*
X79426D01*
X76886Y146616D01*
X79426Y149156D01*
X76886D01*
X74346Y151696D01*
X71806Y149156D01*
X69266D01*
X71806Y146616D01*
X69266Y144076D01*
X71806D01*
X74346Y141536D01*
X84954Y141511D02*
X87494Y144051D01*
X90034D01*
X87494Y146591D01*
X90034Y149131D01*
X87494D01*
X84954Y151671D01*
X82414Y149131D01*
X79874D01*
X82414Y146591D01*
X79874Y144051D01*
X82414D01*
X84954Y141511D01*
X95896Y141565D02*
X98436Y144105D01*
X100976D01*
X98436Y146645D01*
X100976Y149185D01*
X98436D01*
X95896Y151725D01*
X93356Y149185D01*
X90816D01*
X93356Y146645D01*
X90816Y144105D01*
X93356D01*
X95896Y141565D01*
X106492Y141763D02*
X109032Y144304D01*
X111572D01*
X109032Y146844D01*
X111572Y149383D01*
X109032D01*
X106492Y151924D01*
X103952Y149383D01*
X101412D01*
X103952Y146844D01*
X101412Y144304D01*
X103952D01*
X106492Y141763D01*
X112522Y139084D02*
X115062Y141624D01*
X117602D01*
X115062Y144164D01*
X117602Y146704D01*
X115062D01*
X112522Y149244D01*
X109982Y146704D01*
X107442D01*
X109982Y144164D01*
X107442Y141624D01*
X109982D01*
X112522Y139084D01*
X42236Y54991D02*
X44776Y57531D01*
X47316D01*
X44776Y60071D01*
X47316Y62611D01*
X44776D01*
X42236Y65151D01*
X39696Y62611D01*
X37156D01*
X39696Y60071D01*
X37156Y57531D01*
X39696D01*
X42236Y54991D01*
X42164Y67310D02*
X44704Y69850D01*
X47244D01*
X44704Y72390D01*
X47244Y74930D01*
X44704D01*
X42164Y77470D01*
X39624Y74930D01*
X37084D01*
X39624Y72390D01*
X37084Y69850D01*
X39624D01*
X42164Y67310D01*
Y99353D02*
X44704Y101893D01*
X47244D01*
X44704Y104433D01*
X47244Y106973D01*
X44704D01*
X42164Y109513D01*
X39624Y106973D01*
X37084D01*
X39624Y104433D01*
X37084Y101893D01*
X39624D01*
X42164Y99353D01*
X31890Y67310D02*
X34430Y69850D01*
X36970D01*
X34430Y72390D01*
X36970Y74930D01*
X34430D01*
X31890Y77470D01*
X29350Y74930D01*
X26810D01*
X29350Y72390D01*
X26810Y69850D01*
X29350D01*
X31890Y67310D01*
X31962Y55118D02*
X34502Y57658D01*
X37042D01*
X34502Y60198D01*
X37042Y62738D01*
X34502D01*
X31962Y65278D01*
X29422Y62738D01*
X26882D01*
X29422Y60198D01*
X26882Y57658D01*
X29422D01*
X31962Y55118D01*
X21082Y34178D02*
X23622Y36718D01*
X26162D01*
X23622Y39258D01*
X26162Y41798D01*
X23622D01*
X21082Y44338D01*
X18542Y41798D01*
X16002D01*
X18542Y39258D01*
X16002Y36718D01*
X18542D01*
X21082Y34178D01*
X77470Y12262D02*
X80010Y14802D01*
X82550D01*
X80010Y17342D01*
X82550Y19882D01*
X80010D01*
X77470Y22422D01*
X74930Y19882D01*
X72390D01*
X74930Y17342D01*
X72390Y14802D01*
X74930D01*
X77470Y12262D01*
X89916Y19190D02*
X92456Y21730D01*
X94996D01*
X92456Y24270D01*
X94996Y26810D01*
X92456D01*
X89916Y29350D01*
X87376Y26810D01*
X84836D01*
X87376Y24270D01*
X84836Y21730D01*
X87376D01*
X89916Y19190D01*
X101600D02*
X104140Y21730D01*
X106680D01*
X104140Y24270D01*
X106680Y26810D01*
X104140D01*
X101600Y29350D01*
X99060Y26810D01*
X96520D01*
X99060Y24270D01*
X96520Y21730D01*
X99060D01*
X101600Y19190D01*
X148844Y99060D02*
X151384Y101600D01*
X153924D01*
X151384Y104140D01*
X153924Y106680D01*
X151384D01*
X148844Y109220D01*
X146304Y106680D01*
X143764D01*
X146304Y104140D01*
X143764Y101600D01*
X146304D01*
X148844Y99060D01*
X112928Y260858D02*
X115468Y263398D01*
X118008D01*
X115468Y265938D01*
X118008Y268478D01*
X115468D01*
X112928Y271018D01*
X110388Y268478D01*
X107848D01*
X110388Y265938D01*
X107848Y263398D01*
X110388D01*
X112928Y260858D01*
X51954Y275844D02*
X54494Y278384D01*
X57034D01*
X54494Y280924D01*
X57034Y283464D01*
X54494D01*
X51954Y286004D01*
X49414Y283464D01*
X46874D01*
X49414Y280924D01*
X46874Y278384D01*
X49414D01*
X51954Y275844D01*
X97790Y123952D02*
X100330Y126492D01*
X102870D01*
X100330Y129032D01*
X102870Y131572D01*
X100330D01*
X97790Y134112D01*
X95250Y131572D01*
X92710D01*
X95250Y129032D01*
X92710Y126492D01*
X95250D01*
X97790Y123952D01*
X101600Y119126D02*
X104140Y121666D01*
X106680D01*
X104140Y124206D01*
X106680Y126746D01*
X104140D01*
X101600Y129286D01*
X99060Y126746D01*
X96520D01*
X99060Y124206D01*
X96520Y121666D01*
X99060D01*
X101600Y119126D01*
X739140Y427482D02*
X741680Y430022D01*
X744220D01*
X741680Y432562D01*
X744220Y435102D01*
X741680D01*
X739140Y437642D01*
X736600Y435102D01*
X734060D01*
X736600Y432562D01*
X734060Y430022D01*
X736600D01*
X739140Y427482D01*
Y433070D02*
X741680Y435610D01*
X744220D01*
X741680Y438150D01*
X744220Y440690D01*
X741680D01*
X739140Y443230D01*
X736600Y440690D01*
X734060D01*
X736600Y438150D01*
X734060Y435610D01*
X736600D01*
X739140Y433070D01*
Y438404D02*
X741680Y440944D01*
X744220D01*
X741680Y443484D01*
X744220Y446024D01*
X741680D01*
X739140Y448564D01*
X736600Y446024D01*
X734060D01*
X736600Y443484D01*
X734060Y440944D01*
X736600D01*
X739140Y438404D01*
Y421894D02*
X741680Y424434D01*
X744220D01*
X741680Y426974D01*
X744220Y429514D01*
X741680D01*
X739140Y432054D01*
X736600Y429514D01*
X734060D01*
X736600Y426974D01*
X734060Y424434D01*
X736600D01*
X739140Y421894D01*
Y270002D02*
X741680Y272542D01*
X744220D01*
X741680Y275082D01*
X744220Y277622D01*
X741680D01*
X739140Y280162D01*
X736600Y277622D01*
X734060D01*
X736600Y275082D01*
X734060Y272542D01*
X736600D01*
X739140Y270002D01*
Y264668D02*
X741680Y267208D01*
X744220D01*
X741680Y269748D01*
X744220Y272288D01*
X741680D01*
X739140Y274828D01*
X736600Y272288D01*
X734060D01*
X736600Y269748D01*
X734060Y267208D01*
X736600D01*
X739140Y264668D01*
Y253492D02*
X741680Y256032D01*
X744220D01*
X741680Y258572D01*
X744220Y261112D01*
X741680D01*
X739140Y263652D01*
X736600Y261112D01*
X734060D01*
X736600Y258572D01*
X734060Y256032D01*
X736600D01*
X739140Y253492D01*
Y259080D02*
X741680Y261620D01*
X744220D01*
X741680Y264160D01*
X744220Y266700D01*
X741680D01*
X739140Y269240D01*
X736600Y266700D01*
X734060D01*
X736600Y264160D01*
X734060Y261620D01*
X736600D01*
X739140Y259080D01*
X726034Y224478D02*
X728574Y227019D01*
X731114D01*
X728574Y229559D01*
X731114Y232099D01*
X728574D01*
X726034Y234639D01*
X723494Y232099D01*
X720954D01*
X723494Y229559D01*
X720954Y227019D01*
X723494D01*
X726034Y224478D01*
X654304Y246634D02*
X656844Y249174D01*
X659384D01*
X656844Y251714D01*
X659384Y254254D01*
X656844D01*
X654304Y256794D01*
X651764Y254254D01*
X649224D01*
X651764Y251714D01*
X649224Y249174D01*
X651764D01*
X654304Y246634D01*
X725272Y392335D02*
X727812Y394874D01*
X730352D01*
X727812Y397415D01*
X730352Y399954D01*
X727812D01*
X725272Y402495D01*
X722732Y399954D01*
X720192D01*
X722732Y397415D01*
X720192Y394874D01*
X722732D01*
X725272Y392335D01*
X654304Y414274D02*
X656844Y416814D01*
X659384D01*
X656844Y419354D01*
X659384Y421894D01*
X656844D01*
X654304Y424434D01*
X651764Y421894D01*
X649224D01*
X651764Y419354D01*
X649224Y416814D01*
X651764D01*
X654304Y414274D01*
X591058Y589026D02*
X593598Y591566D01*
X596138D01*
X593598Y594106D01*
X596138Y596646D01*
X593598D01*
X591058Y599186D01*
X588518Y596646D01*
X585978D01*
X588518Y594106D01*
X585978Y591566D01*
X588518D01*
X591058Y589026D01*
X585724D02*
X588264Y591566D01*
X590804D01*
X588264Y594106D01*
X590804Y596646D01*
X588264D01*
X585724Y599186D01*
X583184Y596646D01*
X580644D01*
X583184Y594106D01*
X580644Y591566D01*
X583184D01*
X585724Y589026D01*
X596138D02*
X598678Y591566D01*
X601218D01*
X598678Y594106D01*
X601218Y596646D01*
X598678D01*
X596138Y599186D01*
X593598Y596646D01*
X591058D01*
X593598Y594106D01*
X591058Y591566D01*
X593598D01*
X596138Y589026D01*
X499110Y589280D02*
X501650Y591820D01*
X504190D01*
X501650Y594360D01*
X504190Y596900D01*
X501650D01*
X499110Y599440D01*
X496570Y596900D01*
X494030D01*
X496570Y594360D01*
X494030Y591820D01*
X496570D01*
X499110Y589280D01*
X493776D02*
X496316Y591820D01*
X498856D01*
X496316Y594360D01*
X498856Y596900D01*
X496316D01*
X493776Y599440D01*
X491236Y596900D01*
X488696D01*
X491236Y594360D01*
X488696Y591820D01*
X491236D01*
X493776Y589280D01*
X504190D02*
X506730Y591820D01*
X509270D01*
X506730Y594360D01*
X509270Y596900D01*
X506730D01*
X504190Y599440D01*
X501650Y596900D01*
X499110D01*
X501650Y594360D01*
X499110Y591820D01*
X501650D01*
X504190Y589280D01*
X590042Y215728D02*
X592582Y218268D01*
X595122D01*
X592582Y220808D01*
X595122Y223348D01*
X592582D01*
X590042Y225888D01*
X587502Y223348D01*
X584962D01*
X587502Y220808D01*
X584962Y218268D01*
X587502D01*
X590042Y215728D01*
X584454D02*
X586994Y218268D01*
X589534D01*
X586994Y220808D01*
X589534Y223348D01*
X586994D01*
X584454Y225888D01*
X581914Y223348D01*
X579374D01*
X581914Y220808D01*
X579374Y218268D01*
X581914D01*
X584454Y215728D01*
X578866D02*
X581406Y218268D01*
X583946D01*
X581406Y220808D01*
X583946Y223348D01*
X581406D01*
X578866Y225888D01*
X576326Y223348D01*
X573786D01*
X576326Y220808D01*
X573786Y218268D01*
X576326D01*
X578866Y215728D01*
X590042Y384028D02*
X592582Y386568D01*
X595122D01*
X592582Y389108D01*
X595122Y391648D01*
X592582D01*
X590042Y394188D01*
X587502Y391648D01*
X584962D01*
X587502Y389108D01*
X584962Y386568D01*
X587502D01*
X590042Y384028D01*
X584454D02*
X586994Y386568D01*
X589534D01*
X586994Y389108D01*
X589534Y391648D01*
X586994D01*
X584454Y394188D01*
X581914Y391648D01*
X579374D01*
X581914Y389108D01*
X579374Y386568D01*
X581914D01*
X584454Y384028D01*
X578866D02*
X581406Y386568D01*
X583946D01*
X581406Y389108D01*
X583946Y391648D01*
X581406D01*
X578866Y394188D01*
X576326Y391648D01*
X573786D01*
X576326Y389108D01*
X573786Y386568D01*
X576326D01*
X578866Y384028D01*
X513842D02*
X516382Y386568D01*
X518922D01*
X516382Y389108D01*
X518922Y391648D01*
X516382D01*
X513842Y394188D01*
X511302Y391648D01*
X508762D01*
X511302Y389108D01*
X508762Y386568D01*
X511302D01*
X513842Y384028D01*
X508254D02*
X510794Y386568D01*
X513334D01*
X510794Y389108D01*
X513334Y391648D01*
X510794D01*
X508254Y394188D01*
X505714Y391648D01*
X503174D01*
X505714Y389108D01*
X503174Y386568D01*
X505714D01*
X508254Y384028D01*
X502666D02*
X505206Y386568D01*
X507746D01*
X505206Y389108D01*
X507746Y391648D01*
X505206D01*
X502666Y394188D01*
X500126Y391648D01*
X497586D01*
X500126Y389108D01*
X497586Y386568D01*
X500126D01*
X502666Y384028D01*
X513842Y215728D02*
X516382Y218268D01*
X518922D01*
X516382Y220808D01*
X518922Y223348D01*
X516382D01*
X513842Y225888D01*
X511302Y223348D01*
X508762D01*
X511302Y220808D01*
X508762Y218268D01*
X511302D01*
X513842Y215728D01*
X508254D02*
X510794Y218268D01*
X513334D01*
X510794Y220808D01*
X513334Y223348D01*
X510794D01*
X508254Y225888D01*
X505714Y223348D01*
X503174D01*
X505714Y220808D01*
X503174Y218268D01*
X505714D01*
X508254Y215728D01*
X502666D02*
X505206Y218268D01*
X507746D01*
X505206Y220808D01*
X507746Y223348D01*
X505206D01*
X502666Y225888D01*
X500126Y223348D01*
X497586D01*
X500126Y220808D01*
X497586Y218268D01*
X500126D01*
X502666Y215728D01*
X706897Y179668D02*
X709437Y182208D01*
X711977D01*
X709437Y184748D01*
X711977Y187288D01*
X709437D01*
X706897Y189828D01*
X704357Y187288D01*
X701817D01*
X704357Y184748D01*
X701817Y182208D01*
X704357D01*
X706897Y179668D01*
X701432Y179729D02*
X703972Y182269D01*
X706512D01*
X703972Y184809D01*
X706512Y187349D01*
X703972D01*
X701432Y189889D01*
X698892Y187349D01*
X696352D01*
X698892Y184809D01*
X696352Y182269D01*
X698892D01*
X701432Y179729D01*
X701555Y173948D02*
X704095Y176488D01*
X706635D01*
X704095Y179028D01*
X706635Y181567D01*
X704095D01*
X701555Y184107D01*
X699015Y181567D01*
X696475D01*
X699015Y179028D01*
X696475Y176488D01*
X699015D01*
X701555Y173948D01*
X707020Y173887D02*
X709560Y176427D01*
X712100D01*
X709560Y178967D01*
X712100Y181507D01*
X709560D01*
X707020Y184047D01*
X704480Y181507D01*
X701940D01*
X704480Y178967D01*
X701940Y176427D01*
X704480D01*
X707020Y173887D01*
X707005Y341691D02*
X709545Y344231D01*
X712085D01*
X709545Y346771D01*
X712085Y349311D01*
X709545D01*
X707005Y351851D01*
X704465Y349311D01*
X701925D01*
X704465Y346771D01*
X701925Y344231D01*
X704465D01*
X707005Y341691D01*
X701540Y341751D02*
X704080Y344291D01*
X706620D01*
X704080Y346831D01*
X706620Y349371D01*
X704080D01*
X701540Y351911D01*
X699000Y349371D01*
X696460D01*
X699000Y346831D01*
X696460Y344291D01*
X699000D01*
X701540Y341751D01*
X701417Y347533D02*
X703957Y350073D01*
X706497D01*
X703957Y352613D01*
X706497Y355153D01*
X703957D01*
X701417Y357693D01*
X698877Y355153D01*
X696337D01*
X698877Y352613D01*
X696337Y350073D01*
X698877D01*
X701417Y347533D01*
X706882Y347472D02*
X709422Y350012D01*
X711962D01*
X709422Y352552D01*
X711962Y355092D01*
X709422D01*
X706882Y357632D01*
X704342Y355092D01*
X701802D01*
X704342Y352552D01*
X701802Y350012D01*
X704342D01*
X706882Y347472D01*
X754380Y504444D02*
X756920Y506984D01*
X759460D01*
X756920Y509524D01*
X759460Y512064D01*
X756920D01*
X754380Y514604D01*
X751840Y512064D01*
X749300D01*
X751840Y509524D01*
X749300Y506984D01*
X751840D01*
X754380Y504444D01*
X748792D02*
X751332Y506984D01*
X753872D01*
X751332Y509524D01*
X753872Y512064D01*
X751332D01*
X748792Y514604D01*
X746252Y512064D01*
X743712D01*
X746252Y509524D01*
X743712Y506984D01*
X746252D01*
X748792Y504444D01*
X743204D02*
X745744Y506984D01*
X748284D01*
X745744Y509524D01*
X748284Y512064D01*
X745744D01*
X743204Y514604D01*
X740664Y512064D01*
X738124D01*
X740664Y509524D01*
X738124Y506984D01*
X740664D01*
X743204Y504444D01*
X737616D02*
X740156Y506984D01*
X742696D01*
X740156Y509524D01*
X742696Y512064D01*
X740156D01*
X737616Y514604D01*
X735076Y512064D01*
X732536D01*
X735076Y509524D01*
X732536Y506984D01*
X735076D01*
X737616Y504444D01*
Y510286D02*
X740156Y512826D01*
X742696D01*
X740156Y515366D01*
X742696Y517906D01*
X740156D01*
X737616Y520446D01*
X735076Y517906D01*
X732536D01*
X735076Y515366D01*
X732536Y512826D01*
X735076D01*
X737616Y510286D01*
X743204D02*
X745744Y512826D01*
X748284D01*
X745744Y515366D01*
X748284Y517906D01*
X745744D01*
X743204Y520446D01*
X740664Y517906D01*
X738124D01*
X740664Y515366D01*
X738124Y512826D01*
X740664D01*
X743204Y510286D01*
X748792D02*
X751332Y512826D01*
X753872D01*
X751332Y515366D01*
X753872Y517906D01*
X751332D01*
X748792Y520446D01*
X746252Y517906D01*
X743712D01*
X746252Y515366D01*
X743712Y512826D01*
X746252D01*
X748792Y510286D01*
X754380D02*
X756920Y512826D01*
X759460D01*
X756920Y515366D01*
X759460Y517906D01*
X756920D01*
X754380Y520446D01*
X751840Y517906D01*
X749300D01*
X751840Y515366D01*
X749300Y512826D01*
X751840D01*
X754380Y510286D01*
X278391Y611269D02*
X280931Y613809D01*
X283472D01*
X280931Y616349D01*
X283472Y618889D01*
X280931D01*
X278391Y621429D01*
X275851Y618889D01*
X273312D01*
X275851Y616349D01*
X273312Y613809D01*
X275851D01*
X278391Y611269D01*
X410210Y617220D02*
X412750Y619760D01*
X415290D01*
X412750Y622300D01*
X415290Y624840D01*
X412750D01*
X410210Y627380D01*
X407670Y624840D01*
X405130D01*
X407670Y622300D01*
X405130Y619760D01*
X407670D01*
X410210Y617220D01*
X520700Y618490D02*
X523240Y621030D01*
X525780D01*
X523240Y623570D01*
X525780Y626110D01*
X523240D01*
X520700Y628650D01*
X518160Y626110D01*
X515620D01*
X518160Y623570D01*
X515620Y621030D01*
X518160D01*
X520700Y618490D01*
X500126D02*
X502666Y621030D01*
X505206D01*
X502666Y623570D01*
X505206Y626110D01*
X502666D01*
X500126Y628650D01*
X497586Y626110D01*
X495046D01*
X497586Y623570D01*
X495046Y621030D01*
X497586D01*
X500126Y618490D01*
X510286Y623316D02*
X512826Y625856D01*
X515366D01*
X512826Y628396D01*
X515366Y630936D01*
X512826D01*
X510286Y633476D01*
X507746Y630936D01*
X505206D01*
X507746Y628396D01*
X505206Y625856D01*
X507746D01*
X510286Y623316D01*
X515620D02*
X518160Y625856D01*
X520700D01*
X518160Y628396D01*
X520700Y630936D01*
X518160D01*
X515620Y633476D01*
X513080Y630936D01*
X510540D01*
X513080Y628396D01*
X510540Y625856D01*
X513080D01*
X515620Y623316D01*
X510286Y618490D02*
X512826Y621030D01*
X515366D01*
X512826Y623570D01*
X515366Y626110D01*
X512826D01*
X510286Y628650D01*
X507746Y626110D01*
X505206D01*
X507746Y623570D01*
X505206Y621030D01*
X507746D01*
X510286Y618490D01*
X520700Y623316D02*
X523240Y625856D01*
X525780D01*
X523240Y628396D01*
X525780Y630936D01*
X523240D01*
X520700Y633476D01*
X518160Y630936D01*
X515620D01*
X518160Y628396D01*
X515620Y625856D01*
X518160D01*
X520700Y623316D01*
X504952D02*
X507492Y625856D01*
X510032D01*
X507492Y628396D01*
X510032Y630936D01*
X507492D01*
X504952Y633476D01*
X502412Y630936D01*
X499872D01*
X502412Y628396D01*
X499872Y625856D01*
X502412D01*
X504952Y623316D01*
X500126D02*
X502666Y625856D01*
X505206D01*
X502666Y628396D01*
X505206Y630936D01*
X502666D01*
X500126Y633476D01*
X497586Y630936D01*
X495046D01*
X497586Y628396D01*
X495046Y625856D01*
X497586D01*
X500126Y623316D01*
X515620Y618490D02*
X518160Y621030D01*
X520700D01*
X518160Y623570D01*
X520700Y626110D01*
X518160D01*
X515620Y628650D01*
X513080Y626110D01*
X510540D01*
X513080Y623570D01*
X510540Y621030D01*
X513080D01*
X515620Y618490D01*
X504952D02*
X507492Y621030D01*
X510032D01*
X507492Y623570D01*
X510032Y626110D01*
X507492D01*
X504952Y628650D01*
X502412Y626110D01*
X499872D01*
X502412Y623570D01*
X499872Y621030D01*
X502412D01*
X504952Y618490D01*
X500380Y544576D02*
X502920Y547116D01*
X505460D01*
X502920Y549656D01*
X505460Y552196D01*
X502920D01*
X500380Y554736D01*
X497840Y552196D01*
X495300D01*
X497840Y549656D01*
X495300Y547116D01*
X497840D01*
X500380Y544576D01*
Y549402D02*
X502920Y551942D01*
X505460D01*
X502920Y554482D01*
X505460Y557022D01*
X502920D01*
X500380Y559562D01*
X497840Y557022D01*
X495300D01*
X497840Y554482D01*
X495300Y551942D01*
X497840D01*
X500380Y549402D01*
X505206D02*
X507746Y551942D01*
X510286D01*
X507746Y554482D01*
X510286Y557022D01*
X507746D01*
X505206Y559562D01*
X502666Y557022D01*
X500126D01*
X502666Y554482D01*
X500126Y551942D01*
X502666D01*
X505206Y549402D01*
Y544576D02*
X507746Y547116D01*
X510286D01*
X507746Y549656D01*
X510286Y552196D01*
X507746D01*
X505206Y554736D01*
X502666Y552196D01*
X500126D01*
X502666Y549656D01*
X500126Y547116D01*
X502666D01*
X505206Y544576D01*
X510540D02*
X513080Y547116D01*
X515620D01*
X513080Y549656D01*
X515620Y552196D01*
X513080D01*
X510540Y554736D01*
X508000Y552196D01*
X505460D01*
X508000Y549656D01*
X505460Y547116D01*
X508000D01*
X510540Y544576D01*
Y549402D02*
X513080Y551942D01*
X515620D01*
X513080Y554482D01*
X515620Y557022D01*
X513080D01*
X510540Y559562D01*
X508000Y557022D01*
X505460D01*
X508000Y554482D01*
X505460Y551942D01*
X508000D01*
X510540Y549402D01*
X515874Y544576D02*
X518414Y547116D01*
X520954D01*
X518414Y549656D01*
X520954Y552196D01*
X518414D01*
X515874Y554736D01*
X513334Y552196D01*
X510794D01*
X513334Y549656D01*
X510794Y547116D01*
X513334D01*
X515874Y544576D01*
Y549402D02*
X518414Y551942D01*
X520954D01*
X518414Y554482D01*
X520954Y557022D01*
X518414D01*
X515874Y559562D01*
X513334Y557022D01*
X510794D01*
X513334Y554482D01*
X510794Y551942D01*
X513334D01*
X515874Y549402D01*
X520954Y544576D02*
X523494Y547116D01*
X526034D01*
X523494Y549656D01*
X526034Y552196D01*
X523494D01*
X520954Y554736D01*
X518414Y552196D01*
X515874D01*
X518414Y549656D01*
X515874Y547116D01*
X518414D01*
X520954Y544576D01*
Y549402D02*
X523494Y551942D01*
X526034D01*
X523494Y554482D01*
X526034Y557022D01*
X523494D01*
X520954Y559562D01*
X518414Y557022D01*
X515874D01*
X518414Y554482D01*
X515874Y551942D01*
X518414D01*
X520954Y549402D01*
X577596Y592582D02*
X580136Y595122D01*
X582676D01*
X580136Y597662D01*
X582676Y600202D01*
X580136D01*
X577596Y602742D01*
X575056Y600202D01*
X572516D01*
X575056Y597662D01*
X572516Y595122D01*
X575056D01*
X577596Y592582D01*
X74328Y602996D02*
X76868Y605536D01*
X79408D01*
X76868Y608076D01*
X79408Y610616D01*
X76868D01*
X74328Y613156D01*
X71788Y610616D01*
X69248D01*
X71788Y608076D01*
X69248Y605536D01*
X71788D01*
X74328Y602996D01*
X79597Y649986D02*
X82137Y652526D01*
X84677D01*
X82137Y655066D01*
X84677Y657606D01*
X82137D01*
X79597Y660146D01*
X77057Y657606D01*
X74517D01*
X77057Y655066D01*
X74517Y652526D01*
X77057D01*
X79597Y649986D01*
X396665Y594189D02*
X399205Y596729D01*
X401745D01*
X399205Y599269D01*
X401745Y601809D01*
X399205D01*
X396665Y604349D01*
X394125Y601809D01*
X391585D01*
X394125Y599269D01*
X391585Y596729D01*
X394125D01*
X396665Y594189D01*
X79598Y602996D02*
X82138Y605536D01*
X84678D01*
X82138Y608076D01*
X84678Y610616D01*
X82138D01*
X79598Y613156D01*
X77058Y610616D01*
X74518D01*
X77058Y608076D01*
X74518Y605536D01*
X77058D01*
X79598Y602996D01*
X74327Y649986D02*
X76867Y652526D01*
X79407D01*
X76867Y655066D01*
X79407Y657606D01*
X76867D01*
X74327Y660146D01*
X71787Y657606D01*
X69247D01*
X71787Y655066D01*
X69247Y652526D01*
X71787D01*
X74327Y649986D01*
X400392Y590462D02*
X402932Y593002D01*
X405472D01*
X402932Y595542D01*
X405472Y598082D01*
X402932D01*
X400392Y600622D01*
X397852Y598082D01*
X395312D01*
X397852Y595542D01*
X395312Y593002D01*
X397852D01*
X400392Y590462D01*
X146050Y645483D02*
X148590Y648023D01*
X151130D01*
X148590Y650563D01*
X151130Y653103D01*
X148590D01*
X146050Y655643D01*
X143510Y653103D01*
X140970D01*
X143510Y650563D01*
X140970Y648023D01*
X143510D01*
X146050Y645483D01*
Y640213D02*
X148590Y642753D01*
X151130D01*
X148590Y645293D01*
X151130Y647833D01*
X148590D01*
X146050Y650373D01*
X143510Y647833D01*
X140970D01*
X143510Y645293D01*
X140970Y642753D01*
X143510D01*
X146050Y640213D01*
X115653Y637116D02*
X118194Y639655D01*
X120733D01*
X118194Y642196D01*
X120733Y644735D01*
X118194D01*
X115653Y647275D01*
X113113Y644735D01*
X110574D01*
X113113Y642196D01*
X110574Y639655D01*
X113113D01*
X115653Y637116D01*
X119380Y640842D02*
X121920Y643382D01*
X124460D01*
X121920Y645922D01*
X124460Y648462D01*
X121920D01*
X119380Y651002D01*
X116840Y648462D01*
X114300D01*
X116840Y645922D01*
X114300Y643382D01*
X116840D01*
X119380Y640842D01*
X132588Y618744D02*
X135128Y621284D01*
X137668D01*
X135128Y623824D01*
X137668Y626364D01*
X135128D01*
X132588Y628904D01*
X130048Y626364D01*
X127508D01*
X130048Y623824D01*
X127508Y621284D01*
X130048D01*
X132588Y618744D01*
X128862Y615018D02*
X131402Y617557D01*
X133941D01*
X131402Y620098D01*
X133941Y622637D01*
X131402D01*
X128862Y625177D01*
X126321Y622637D01*
X123781D01*
X126321Y620098D01*
X123781Y617557D01*
X126321D01*
X128862Y615018D01*
X129032Y595481D02*
X131572Y598021D01*
X134112D01*
X131572Y600561D01*
X134112Y603101D01*
X131572D01*
X129032Y605641D01*
X126492Y603101D01*
X123952D01*
X126492Y600561D01*
X123952Y598021D01*
X126492D01*
X129032Y595481D01*
Y600751D02*
X131572Y603291D01*
X134112D01*
X131572Y605831D01*
X134112Y608371D01*
X131572D01*
X129032Y610911D01*
X126492Y608371D01*
X123952D01*
X126492Y605831D01*
X123952Y603291D01*
X126492D01*
X129032Y600751D01*
X387925Y602421D02*
X390465Y604961D01*
X393005D01*
X390465Y607501D01*
X393005Y610041D01*
X390465D01*
X387925Y612581D01*
X385385Y610041D01*
X382845D01*
X385385Y607501D01*
X382845Y604961D01*
X385385D01*
X387925Y602421D01*
X391651Y598695D02*
X394191Y601235D01*
X396731D01*
X394191Y603775D01*
X396731Y606315D01*
X394191D01*
X391651Y608855D01*
X389111Y606315D01*
X386571D01*
X389111Y603775D01*
X386571Y601235D01*
X389111D01*
X391651Y598695D01*
X551797Y552450D02*
X554337Y554990D01*
X556877D01*
X554337Y557530D01*
X556877Y560070D01*
X554337D01*
X551797Y562610D01*
X549257Y560070D01*
X546717D01*
X549257Y557530D01*
X546717Y554990D01*
X549257D01*
X551797Y552450D01*
X373380Y610768D02*
X375920Y613308D01*
X378460D01*
X375920Y615848D01*
X378460Y618388D01*
X375920D01*
X373380Y620928D01*
X370840Y618388D01*
X368300D01*
X370840Y615848D01*
X368300Y613308D01*
X370840D01*
X373380Y610768D01*
X381977Y601262D02*
X384517Y603802D01*
X387057D01*
X384517Y606342D01*
X387057Y608882D01*
X384517D01*
X381977Y611422D01*
X379437Y608882D01*
X376897D01*
X379437Y606342D01*
X376897Y603802D01*
X379437D01*
X381977Y601262D01*
X390830Y592684D02*
X393369Y595224D01*
X395910D01*
X393369Y597764D01*
X395910Y600304D01*
X393369D01*
X390830Y602844D01*
X388289Y600304D01*
X385750D01*
X388289Y597764D01*
X385750Y595224D01*
X388289D01*
X390830Y592684D01*
X115363Y630807D02*
X117903Y633346D01*
X120443D01*
X117903Y635886D01*
X120443Y638427D01*
X117903D01*
X115363Y640966D01*
X112823Y638427D01*
X110283D01*
X112823Y635886D01*
X110283Y633346D01*
X112823D01*
X115363Y630807D01*
X109220Y637794D02*
X111760Y640334D01*
X114300D01*
X111760Y642874D01*
X114300Y645414D01*
X111760D01*
X109220Y647954D01*
X106680Y645414D01*
X104140D01*
X106680Y642874D01*
X104140Y640334D01*
X106680D01*
X109220Y637794D01*
X125984Y640588D02*
X128524Y643128D01*
X131064D01*
X128524Y645668D01*
X131064Y648208D01*
X128524D01*
X125984Y650748D01*
X123444Y648208D01*
X120904D01*
X123444Y645668D01*
X120904Y643128D01*
X123444D01*
X125984Y640588D01*
X120142Y647192D02*
X122682Y649732D01*
X125222D01*
X122682Y652272D01*
X125222Y654812D01*
X122682D01*
X120142Y657352D01*
X117602Y654812D01*
X115062D01*
X117602Y652272D01*
X115062Y649732D01*
X117602D01*
X120142Y647192D01*
X123952Y604774D02*
X126492Y607314D01*
X129032D01*
X126492Y609854D01*
X129032Y612394D01*
X126492D01*
X123952Y614934D01*
X121412Y612394D01*
X118872D01*
X121412Y609854D01*
X118872Y607314D01*
X121412D01*
X123952Y604774D01*
X134112D02*
X136652Y607314D01*
X139192D01*
X136652Y609854D01*
X139192Y612394D01*
X136652D01*
X134112Y614934D01*
X131572Y612394D01*
X129032D01*
X131572Y609854D01*
X129032Y607314D01*
X131572D01*
X134112Y604774D01*
Y591312D02*
X136652Y593852D01*
X139192D01*
X136652Y596392D01*
X139192Y598932D01*
X136652D01*
X134112Y601472D01*
X131572Y598932D01*
X129032D01*
X131572Y596392D01*
X129032Y593852D01*
X131572D01*
X134112Y591312D01*
X123952D02*
X126492Y593852D01*
X129032D01*
X126492Y596392D01*
X129032Y598932D01*
X126492D01*
X123952Y601472D01*
X121412Y598932D01*
X118872D01*
X121412Y596392D01*
X118872Y593852D01*
X121412D01*
X123952Y591312D01*
X122936Y614426D02*
X125476Y616966D01*
X128016D01*
X125476Y619506D01*
X128016Y622046D01*
X125476D01*
X122936Y624586D01*
X120396Y622046D01*
X117856D01*
X120396Y619506D01*
X117856Y616966D01*
X120396D01*
X122936Y614426D01*
X129032Y608838D02*
X131572Y611378D01*
X134112D01*
X131572Y613918D01*
X134112Y616458D01*
X131572D01*
X129032Y618998D01*
X126492Y616458D01*
X123952D01*
X126492Y613918D01*
X123952Y611378D01*
X126492D01*
X129032Y608838D01*
X138684Y618490D02*
X141224Y621030D01*
X143764D01*
X141224Y623570D01*
X143764Y626110D01*
X141224D01*
X138684Y628650D01*
X136144Y626110D01*
X133604D01*
X136144Y623570D01*
X133604Y621030D01*
X136144D01*
X138684Y618490D01*
X132842Y624840D02*
X135382Y627380D01*
X137922D01*
X135382Y629920D01*
X137922Y632460D01*
X135382D01*
X132842Y635000D01*
X130302Y632460D01*
X127762D01*
X130302Y629920D01*
X127762Y627380D01*
X130302D01*
X132842Y624840D01*
X146050Y633222D02*
X148590Y635762D01*
X151130D01*
X148590Y638302D01*
X151130Y640842D01*
X148590D01*
X146050Y643382D01*
X143510Y640842D01*
X140970D01*
X143510Y638302D01*
X140970Y635762D01*
X143510D01*
X146050Y633222D01*
X139954Y651002D02*
X142494Y653542D01*
X145034D01*
X142494Y656082D01*
X145034Y658622D01*
X142494D01*
X139954Y661162D01*
X137414Y658622D01*
X134874D01*
X137414Y656082D01*
X134874Y653542D01*
X137414D01*
X139954Y651002D01*
X151638D02*
X154178Y653542D01*
X156718D01*
X154178Y656082D01*
X156718Y658622D01*
X154178D01*
X151638Y661162D01*
X149098Y658622D01*
X146558D01*
X149098Y656082D01*
X146558Y653542D01*
X149098D01*
X151638Y651002D01*
D130*
X709990Y591818D02*
G03*
X709990Y591818I-5080J0D01*
G01*
M02*
