G04*
G04 #@! TF.GenerationSoftware,Altium Limited,Altium Designer,24.0.1 (36)*
G04*
G04 Layer_Physical_Order=3*
G04 Layer_Color=16440176*
%FSLAX44Y44*%
%MOMM*%
G71*
G04*
G04 #@! TF.SameCoordinates,2863EE23-0FE7-43ED-B731-855E9A245776*
G04*
G04*
G04 #@! TF.FilePolarity,Positive*
G04*
G01*
G75*
%ADD13C,1.0000*%
%ADD18C,0.1270*%
%ADD64C,0.1308*%
%ADD68C,1.3000*%
%ADD69O,1.2000X0.8000*%
%ADD70R,1.2000X0.8000*%
%ADD71R,1.8000X4.5000*%
%ADD72R,1.8000X4.0000*%
%ADD73R,5.0000X2.6000*%
%ADD74C,0.4000*%
%ADD75C,0.8890*%
D13*
X249403Y55896D02*
D03*
X629403D02*
D03*
X249403Y224125D02*
D03*
X629403D02*
D03*
Y560726D02*
D03*
X249403Y392425D02*
D03*
X629403D02*
D03*
D18*
X551797Y557530D02*
Y565005D01*
X577596Y590804D02*
Y597662D01*
X551797Y565005D02*
X577596Y590804D01*
D64*
X74328Y625762D02*
X79597Y631031D01*
X74328Y608076D02*
Y625762D01*
X79597Y631031D02*
Y655066D01*
D68*
X100962Y649896D02*
D03*
Y606896D02*
D03*
X52962D02*
D03*
Y649896D02*
D03*
D69*
X14224Y411734D02*
D03*
Y386334D02*
D03*
Y373634D02*
D03*
Y360934D02*
D03*
Y399034D02*
D03*
X14478Y558800D02*
D03*
Y533400D02*
D03*
Y520700D02*
D03*
Y508000D02*
D03*
Y546100D02*
D03*
X14224Y127000D02*
D03*
Y101600D02*
D03*
Y88900D02*
D03*
Y76200D02*
D03*
Y114300D02*
D03*
X13970Y269240D02*
D03*
Y243840D02*
D03*
Y231140D02*
D03*
Y218440D02*
D03*
Y256540D02*
D03*
D70*
X14224Y348234D02*
D03*
X14478Y495300D02*
D03*
X14224Y63500D02*
D03*
X13970Y205740D02*
D03*
D71*
X654910Y614318D02*
D03*
D72*
X676910Y639318D02*
D03*
D73*
X704910Y591818D02*
D03*
D74*
X48134Y556975D02*
D03*
X379439Y615988D02*
D03*
X383165Y612261D02*
D03*
X277622Y549656D02*
D03*
X720852Y62992D02*
D03*
X724662Y59436D02*
D03*
X728472Y56388D02*
D03*
X714502Y33274D02*
D03*
X719582Y28194D02*
D03*
X725424Y22860D02*
D03*
X678706Y551872D02*
D03*
X767334Y601726D02*
D03*
X641379Y229870D02*
D03*
X640842Y397764D02*
D03*
X171159Y408857D02*
D03*
X85852Y81280D02*
D03*
X155194Y560324D02*
D03*
X696628Y219052D02*
D03*
Y229974D02*
D03*
Y224386D02*
D03*
X695613Y398052D02*
D03*
X695597Y387028D02*
D03*
Y392606D02*
D03*
X195072Y640588D02*
D03*
X157988Y398526D02*
D03*
X695452Y272796D02*
D03*
Y261620D02*
D03*
Y267208D02*
D03*
Y256286D02*
D03*
X470154Y87376D02*
D03*
X482854D02*
D03*
X533400Y87630D02*
D03*
X559308D02*
D03*
X470408Y256032D02*
D03*
X483108D02*
D03*
X533654Y255524D02*
D03*
X559054D02*
D03*
X470662Y423418D02*
D03*
X482854D02*
D03*
X533654Y423164D02*
D03*
X559054Y390398D02*
D03*
X517144Y605790D02*
D03*
X506730D02*
D03*
X512064D02*
D03*
X528828Y562832D02*
D03*
X470154Y558800D02*
D03*
X482854Y559054D02*
D03*
X279604Y386081D02*
D03*
X317754Y385826D02*
D03*
X355854Y385572D02*
D03*
X279400Y221488D02*
D03*
X318008Y221234D02*
D03*
X355600Y217170D02*
D03*
X279400Y54102D02*
D03*
X317500Y53086D02*
D03*
X355854Y48260D02*
D03*
X654304Y262636D02*
D03*
X659130Y193040D02*
D03*
X717565Y158840D02*
D03*
X723153D02*
D03*
X728487D02*
D03*
X711977D02*
D03*
X723153Y153252D02*
D03*
X717565D02*
D03*
X712231D02*
D03*
X728741D02*
D03*
X728233Y282030D02*
D03*
X722645D02*
D03*
X717311D02*
D03*
X733821D02*
D03*
X728233Y287364D02*
D03*
X722645D02*
D03*
X717311D02*
D03*
X727964Y321056D02*
D03*
X711454D02*
D03*
X716788D02*
D03*
X722376D02*
D03*
X711200Y326644D02*
D03*
X727710D02*
D03*
X722376D02*
D03*
X716788D02*
D03*
X659130Y361188D02*
D03*
X654558Y429768D02*
D03*
X695960Y439928D02*
D03*
Y423418D02*
D03*
Y428752D02*
D03*
Y434340D02*
D03*
X733806Y455168D02*
D03*
X717296D02*
D03*
X722630D02*
D03*
X728218D02*
D03*
X733806Y449834D02*
D03*
X717296D02*
D03*
X722630D02*
D03*
X728218D02*
D03*
X500532Y521510D02*
D03*
X505644Y525606D02*
D03*
X496754Y526114D02*
D03*
X500853Y530612D02*
D03*
X517296Y521510D02*
D03*
X522408Y525606D02*
D03*
X513518Y526114D02*
D03*
X517617Y530612D02*
D03*
X501040Y649294D02*
D03*
X497262Y653898D02*
D03*
X501361Y658396D02*
D03*
X517972Y658294D02*
D03*
X513874Y653796D02*
D03*
X522764Y653288D02*
D03*
X517652Y649192D02*
D03*
X579120Y360680D02*
D03*
Y355092D02*
D03*
Y349504D02*
D03*
X505799D02*
D03*
Y355092D02*
D03*
Y360680D02*
D03*
X432477Y349504D02*
D03*
Y355092D02*
D03*
Y360680D02*
D03*
X359156Y349504D02*
D03*
Y355092D02*
D03*
Y360680D02*
D03*
X579120Y192024D02*
D03*
Y186436D02*
D03*
Y180848D02*
D03*
X505799D02*
D03*
Y186436D02*
D03*
Y192024D02*
D03*
X432477Y180848D02*
D03*
Y186436D02*
D03*
Y192024D02*
D03*
X359156Y180848D02*
D03*
Y186436D02*
D03*
Y192024D02*
D03*
Y23876D02*
D03*
Y18288D02*
D03*
Y12700D02*
D03*
X432477Y23876D02*
D03*
Y18288D02*
D03*
Y12700D02*
D03*
X505799Y23876D02*
D03*
Y18288D02*
D03*
Y12700D02*
D03*
X579120D02*
D03*
Y18288D02*
D03*
Y23876D02*
D03*
X502666Y52660D02*
D03*
X508254D02*
D03*
X513842D02*
D03*
X578866D02*
D03*
X584454D02*
D03*
X590042D02*
D03*
X593090Y550046D02*
D03*
X581152Y518160D02*
D03*
X581406Y659638D02*
D03*
X592582Y636778D02*
D03*
X323342Y588010D02*
D03*
X356108Y559054D02*
D03*
X343662Y617728D02*
D03*
X356108Y618998D02*
D03*
X366522Y577342D02*
D03*
X375158Y585216D02*
D03*
X110367Y582807D02*
D03*
X153408Y573794D02*
D03*
X157226Y544830D02*
D03*
X162814Y568706D02*
D03*
X49687Y267436D02*
D03*
X95758Y80772D02*
D03*
X108458Y78486D02*
D03*
X85598Y98298D02*
D03*
X97282Y98806D02*
D03*
X108204Y99060D02*
D03*
X160020Y119888D02*
D03*
X154432Y124206D02*
D03*
X155956Y135128D02*
D03*
X161798Y141732D02*
D03*
X159766Y261620D02*
D03*
X156718Y275844D02*
D03*
X159004Y283972D02*
D03*
X158750Y234188D02*
D03*
X80264Y235966D02*
D03*
X105918Y221742D02*
D03*
X91440Y222504D02*
D03*
X87630Y238252D02*
D03*
X104902Y372110D02*
D03*
X83312Y385064D02*
D03*
X85598Y369824D02*
D03*
X106172Y380746D02*
D03*
X106934Y360426D02*
D03*
X159258Y405638D02*
D03*
X166878Y420370D02*
D03*
X155194Y427736D02*
D03*
X45655Y406074D02*
D03*
X83856Y427772D02*
D03*
X94525Y427770D02*
D03*
X105309Y427635D02*
D03*
X59030Y426666D02*
D03*
X56794Y421894D02*
D03*
X112928Y411068D02*
D03*
X537972Y598424D02*
D03*
X344932Y527558D02*
D03*
X366014Y528574D02*
D03*
X390652Y556514D02*
D03*
X291520Y624912D02*
D03*
X387096Y639064D02*
D03*
X369062Y656336D02*
D03*
X333756Y649732D02*
D03*
X325374Y641604D02*
D03*
X308356Y624586D02*
D03*
X316738Y632714D02*
D03*
X381072Y529772D02*
D03*
X412780Y572770D02*
D03*
X311658Y525018D02*
D03*
X295910Y542036D02*
D03*
X303439Y534726D02*
D03*
X278357Y560545D02*
D03*
X311152Y558091D02*
D03*
X319651Y549636D02*
D03*
X328049Y541079D02*
D03*
X284346Y630453D02*
D03*
X292862Y638950D02*
D03*
X302006Y648716D02*
D03*
X309118Y657098D02*
D03*
X317754Y665208D02*
D03*
X337058Y663702D02*
D03*
X365506Y663194D02*
D03*
X434086Y661924D02*
D03*
X442214Y669856D02*
D03*
X459232Y632460D02*
D03*
X451470Y639826D02*
D03*
X422656Y636270D02*
D03*
X422910Y666242D02*
D03*
X412750Y667766D02*
D03*
X424434Y620827D02*
D03*
X416611Y628396D02*
D03*
X401574Y643636D02*
D03*
X409091Y636210D02*
D03*
X425958Y557530D02*
D03*
X413766Y539496D02*
D03*
X406966Y546920D02*
D03*
X389890Y529082D02*
D03*
X334010Y513588D02*
D03*
X393515Y538157D02*
D03*
X414782Y555498D02*
D03*
X417830Y614680D02*
D03*
X72136Y353983D02*
D03*
Y359253D02*
D03*
X168402Y119126D02*
D03*
X165100Y115570D02*
D03*
X171958Y122936D02*
D03*
X73152Y216251D02*
D03*
Y210981D02*
D03*
X123444Y406400D02*
D03*
X71628Y500541D02*
D03*
Y505811D02*
D03*
X198628Y624332D02*
D03*
X207264Y631444D02*
D03*
X211074Y614934D02*
D03*
X140970Y610616D02*
D03*
X246634Y595355D02*
D03*
X172974Y667004D02*
D03*
X204948Y644133D02*
D03*
X72898Y574516D02*
D03*
X83566D02*
D03*
X55490Y572484D02*
D03*
X51816Y568706D02*
D03*
X158914Y523632D02*
D03*
X26416Y376015D02*
D03*
Y370745D02*
D03*
X72390Y393253D02*
D03*
Y387983D02*
D03*
X136201Y520280D02*
D03*
X166212Y551480D02*
D03*
X162528Y547899D02*
D03*
X169550Y555528D02*
D03*
X95614Y396003D02*
D03*
X101980Y396060D02*
D03*
X121412Y436801D02*
D03*
X73152Y250251D02*
D03*
Y244981D02*
D03*
X30480Y451612D02*
D03*
X56642Y481584D02*
D03*
X75758Y562102D02*
D03*
X26416Y517303D02*
D03*
Y522573D02*
D03*
X107696Y563626D02*
D03*
X90006Y541994D02*
D03*
X120650Y582676D02*
D03*
X71882Y534541D02*
D03*
Y539811D02*
D03*
X26416Y233013D02*
D03*
Y227743D02*
D03*
X164338Y256794D02*
D03*
X167132Y260350D02*
D03*
X167640Y405384D02*
D03*
X163830Y401320D02*
D03*
X170180Y263906D02*
D03*
X73914Y108265D02*
D03*
Y102995D02*
D03*
X26620Y91027D02*
D03*
Y85757D02*
D03*
X155325Y74799D02*
D03*
X73660Y74265D02*
D03*
Y68995D02*
D03*
X43180Y594868D02*
D03*
X37084Y546608D02*
D03*
X34108Y531296D02*
D03*
X26416Y511302D02*
D03*
Y528828D02*
D03*
X37338Y491871D02*
D03*
X37084Y503936D02*
D03*
X44077Y440922D02*
D03*
X29982Y468884D02*
D03*
X40132Y462248D02*
D03*
X66030Y446532D02*
D03*
X87630Y455676D02*
D03*
X99822D02*
D03*
X49030Y471424D02*
D03*
X34798Y395224D02*
D03*
X34704Y384738D02*
D03*
X29972Y357632D02*
D03*
Y345186D02*
D03*
X157366Y377698D02*
D03*
Y355854D02*
D03*
X44450Y294894D02*
D03*
X68580Y293624D02*
D03*
X28311Y96520D02*
D03*
X28353Y79982D02*
D03*
X75554Y495554D02*
D03*
Y511048D02*
D03*
X76062Y348996D02*
D03*
Y364490D02*
D03*
X77586Y64008D02*
D03*
Y79502D02*
D03*
X76708Y221488D02*
D03*
Y205994D02*
D03*
X58420Y35528D02*
D03*
X50808Y43688D02*
D03*
X41910Y33750D02*
D03*
X48760Y22774D02*
D03*
X50292Y125476D02*
D03*
X65522Y161290D02*
D03*
X38862Y173990D02*
D03*
X46474Y165268D02*
D03*
X55626Y178111D02*
D03*
X48522Y186268D02*
D03*
X29474Y183134D02*
D03*
X87873Y309208D02*
D03*
X100020Y308996D02*
D03*
X48268Y328676D02*
D03*
X56388Y320045D02*
D03*
X29220Y325374D02*
D03*
X38608Y315468D02*
D03*
X46220Y307508D02*
D03*
X65268Y302768D02*
D03*
X84582Y293370D02*
D03*
X79502Y273812D02*
D03*
X100620Y293278D02*
D03*
X27686Y221488D02*
D03*
Y239014D02*
D03*
X130326Y247616D02*
D03*
X35052Y241739D02*
D03*
X34798Y252222D02*
D03*
X31242Y214376D02*
D03*
Y202184D02*
D03*
X88900Y173482D02*
D03*
X100838D02*
D03*
X151196Y212725D02*
D03*
X125476Y114808D02*
D03*
X69342Y648462D02*
D03*
X84582Y648208D02*
D03*
X84461Y641006D02*
D03*
X68326Y608330D02*
D03*
X85598D02*
D03*
X69463Y615786D02*
D03*
X44356Y241736D02*
D03*
X41286Y214376D02*
D03*
X41358Y202184D02*
D03*
X58166Y247650D02*
D03*
X137668Y228854D02*
D03*
X88646Y184150D02*
D03*
X100838D02*
D03*
X130325Y215521D02*
D03*
X97028Y252984D02*
D03*
X100441Y265256D02*
D03*
X124968Y257048D02*
D03*
X87838Y327213D02*
D03*
X100241Y319532D02*
D03*
X33528Y439420D02*
D03*
X137148Y372364D02*
D03*
X132267Y359632D02*
D03*
X124714Y345186D02*
D03*
X57290Y390652D02*
D03*
X90322Y408988D02*
D03*
X111633Y335607D02*
D03*
X130604Y505644D02*
D03*
X124206Y546100D02*
D03*
X51308Y530098D02*
D03*
X48768Y491490D02*
D03*
Y503682D02*
D03*
X87122Y474726D02*
D03*
X99314D02*
D03*
X56896Y537210D02*
D03*
X99822Y564134D02*
D03*
X91199Y555767D02*
D03*
X111252Y482157D02*
D03*
X109484Y542624D02*
D03*
X22860Y540512D02*
D03*
X22847Y563923D02*
D03*
X34290Y586994D02*
D03*
X24130Y405130D02*
D03*
Y411226D02*
D03*
X78740Y415798D02*
D03*
X100736Y416560D02*
D03*
X101655Y410155D02*
D03*
X126746Y491744D02*
D03*
X53086Y141260D02*
D03*
X52832Y135996D02*
D03*
X30870Y131896D02*
D03*
X30988Y125476D02*
D03*
X29766Y263967D02*
D03*
X23876Y263906D02*
D03*
X57912Y280924D02*
D03*
X100764Y273970D02*
D03*
X102756Y252997D02*
D03*
X98706Y556075D02*
D03*
X40640Y389382D02*
D03*
Y357124D02*
D03*
X40712Y345186D02*
D03*
X90564Y266204D02*
D03*
X112036Y192631D02*
D03*
X127000Y60198D02*
D03*
X126238Y202692D02*
D03*
X31242Y290830D02*
D03*
X126492Y289052D02*
D03*
X36140Y99750D02*
D03*
X133232Y73408D02*
D03*
X87504Y124188D02*
D03*
X103504Y111072D02*
D03*
X113030Y50631D02*
D03*
X42418Y149056D02*
D03*
X31187Y149382D02*
D03*
X35786Y109516D02*
D03*
X127394Y146959D02*
D03*
X111252Y125476D02*
D03*
X58674Y105664D02*
D03*
X141869Y92133D02*
D03*
X80264Y140899D02*
D03*
X101506D02*
D03*
X89916Y34544D02*
D03*
X101600D02*
D03*
X159300Y92202D02*
D03*
X146812Y535863D02*
D03*
X147320Y389128D02*
D03*
X147966Y246126D02*
D03*
X74346Y146616D02*
D03*
X84954Y146591D02*
D03*
X95896Y146645D02*
D03*
X106492Y146844D02*
D03*
X112522Y144164D02*
D03*
X42236Y60071D02*
D03*
X42164Y72390D02*
D03*
Y104433D02*
D03*
X31890Y72390D02*
D03*
X31962Y60198D02*
D03*
X21082Y39258D02*
D03*
X77470Y17342D02*
D03*
X89916Y24270D02*
D03*
X101600D02*
D03*
X148844Y104140D02*
D03*
X112928Y265938D02*
D03*
X51954Y280924D02*
D03*
X97790Y129032D02*
D03*
X101600Y124206D02*
D03*
X739140Y432562D02*
D03*
Y438150D02*
D03*
Y443484D02*
D03*
Y426974D02*
D03*
Y275082D02*
D03*
Y269748D02*
D03*
Y258572D02*
D03*
Y264160D02*
D03*
X726034Y229559D02*
D03*
X654304Y251714D02*
D03*
X725272Y397415D02*
D03*
X654304Y419354D02*
D03*
X591058Y594106D02*
D03*
X585724D02*
D03*
X596138D02*
D03*
X499110Y594360D02*
D03*
X493776D02*
D03*
X504190D02*
D03*
X590042Y220808D02*
D03*
X584454D02*
D03*
X578866D02*
D03*
X590042Y389108D02*
D03*
X584454D02*
D03*
X578866D02*
D03*
X513842D02*
D03*
X508254D02*
D03*
X502666D02*
D03*
X513842Y220808D02*
D03*
X508254D02*
D03*
X502666D02*
D03*
X706897Y184748D02*
D03*
X701432Y184809D02*
D03*
X701555Y179028D02*
D03*
X707020Y178967D02*
D03*
X707005Y346771D02*
D03*
X701540Y346831D02*
D03*
X701417Y352613D02*
D03*
X706882Y352552D02*
D03*
X754380Y509524D02*
D03*
X748792D02*
D03*
X743204D02*
D03*
X737616D02*
D03*
Y515366D02*
D03*
X743204D02*
D03*
X748792D02*
D03*
X754380D02*
D03*
X278391Y616349D02*
D03*
X410210Y622300D02*
D03*
X537972Y593598D02*
D03*
X543052Y598424D02*
D03*
Y593598D02*
D03*
X520700Y623570D02*
D03*
X500126D02*
D03*
X510286Y628396D02*
D03*
X515620D02*
D03*
X510286Y623570D02*
D03*
X520700Y628396D02*
D03*
X504952D02*
D03*
X500126D02*
D03*
X515620Y623570D02*
D03*
X504952D02*
D03*
X500380Y549656D02*
D03*
Y554482D02*
D03*
X505206D02*
D03*
Y549656D02*
D03*
X510540D02*
D03*
Y554482D02*
D03*
X515874Y549656D02*
D03*
Y554482D02*
D03*
X520954Y549656D02*
D03*
Y554482D02*
D03*
X577596Y597662D02*
D03*
X74328Y608076D02*
D03*
X79597Y655066D02*
D03*
X396665Y599269D02*
D03*
X79598Y608076D02*
D03*
X74327Y655066D02*
D03*
X400392Y595542D02*
D03*
X146050Y650563D02*
D03*
Y645293D02*
D03*
X115653Y642196D02*
D03*
X119380Y645922D02*
D03*
X132588Y623824D02*
D03*
X128862Y620098D02*
D03*
X129032Y600561D02*
D03*
Y605831D02*
D03*
X387925Y607501D02*
D03*
X391651Y603775D02*
D03*
X551797Y557530D02*
D03*
X373380Y615848D02*
D03*
X381977Y606342D02*
D03*
X390830Y597764D02*
D03*
X115363Y635886D02*
D03*
X109220Y642874D02*
D03*
X125984Y645668D02*
D03*
X120142Y652272D02*
D03*
X123952Y609854D02*
D03*
X134112D02*
D03*
Y596392D02*
D03*
X123952D02*
D03*
X122936Y619506D02*
D03*
X129032Y613918D02*
D03*
X138684Y623570D02*
D03*
X132842Y629920D02*
D03*
X146050Y638302D02*
D03*
X139954Y656082D02*
D03*
X151638D02*
D03*
D75*
X701432Y184809D02*
X704088Y187465D01*
X693166Y205994D02*
X704088Y195072D01*
Y187465D02*
Y195072D01*
X554482Y205994D02*
X693166D01*
X674116Y39624D02*
X704088Y69596D01*
Y176495D01*
X701555Y179028D02*
X706960D01*
X701432Y179151D02*
Y184809D01*
X701493Y184748D02*
X706897D01*
X513842Y220808D02*
X539668D01*
X508254D02*
X513842D01*
X502666D02*
X508254D01*
X539668D02*
X554482Y205994D01*
X513842Y52578D02*
X553720D01*
X508254D02*
X513842D01*
X502666D02*
X508254D01*
X553720D02*
X566674Y39624D01*
X674116D01*
X706897Y179090D02*
X706960Y179028D01*
X706897Y179090D02*
Y184748D01*
X706960Y179028D02*
X707020Y178967D01*
X701432Y184809D02*
X701493Y184748D01*
X530118Y389108D02*
X542798Y376428D01*
X704180D02*
Y502320D01*
Y355254D02*
Y376428D01*
X542798D02*
X704180D01*
Y355254D02*
X706882Y352552D01*
X680212Y526288D02*
X704180Y502320D01*
X707005Y346771D02*
Y352582D01*
X701478Y352552D02*
X706882D01*
X701417Y352613D02*
X701447Y352582D01*
X701478Y352552D01*
X701540Y346831D02*
X706944D01*
X701417Y346954D02*
Y352613D01*
X706944Y346831D02*
X707005Y346771D01*
X701479Y346893D02*
X701540Y346831D01*
X701417Y346954D02*
X701479Y346893D01*
X513842Y389108D02*
X530118D01*
X508254D02*
X513842D01*
X502666D02*
X508254D01*
X517906Y594360D02*
X537718Y574548D01*
Y541782D02*
Y574548D01*
X499110Y594360D02*
X517906D01*
X537718Y541782D02*
X553212Y526288D01*
X680212D01*
X493776Y594360D02*
X499110D01*
M02*
